<svg width="24" height="24" fill="none" xmlns="http://www.w3.org/2000/svg"><path d="M10.88 14.149c-.51.44-1.17.72-1.89.72a2.87 2.87 0 0 1-2.87-2.87c0-1.59 1.28-2.87 2.87-2.87.73 0 1.39.27 1.89.72M17.88 14.149c-.51.44-1.17.72-1.89.72a2.87 2.87 0 0 1-2.87-2.87c0-1.59 1.28-2.87 2.87-2.87.73 0 1.39.27 1.89.72" stroke="#292D32" stroke-width="1.5" stroke-linecap="round" stroke-linejoin="round"/><path d="M4 6c-1.25 1.67-2 3.75-2 6 0 5.52 4.48 10 10 10s10-4.48 10-10S17.52 2 12 2c-1.43 0-2.8.3-4.03.85" stroke="#292D32" stroke-width="1.5" stroke-linecap="round" stroke-linejoin="round"/></svg>