<svg width="24" height="24" fill="none" xmlns="http://www.w3.org/2000/svg"><path d="M3 7c0-3 1.5-5 5-5h8c3.5 0 5 2 5 5v10c0 3-1.5 5-5 5H8c-3.5 0-5-2-5-5v-5.98" stroke="#292D32" stroke-width="1.5" stroke-miterlimit="10" stroke-linecap="round" stroke-linejoin="round"/><path d="M14.5 4.5v2c0 1.1.9 2 2 2h2" stroke="#292D32" stroke-width="1.5" stroke-miterlimit="10" stroke-linecap="round" stroke-linejoin="round"/><path d="M7.48 15.491c-.33-1.03.06-2.3 1.13-2.65.57-.18 1.27-.03 1.66.52.37-.57 1.1-.7 1.66-.52 1.08.35 1.46 1.62 1.14 2.65-.51 1.63-2.3 2.48-2.8 2.48-.49-.01-2.26-.84-2.79-2.48Z" stroke="#292D32" stroke-width="1.5" stroke-linecap="round" stroke-linejoin="round"/></svg>