<svg width="24" height="24" fill="none" xmlns="http://www.w3.org/2000/svg"><path d="M3.35 2h8.9c.74 0 1.35.61 1.35 1.35v1.48c0 .54-.34 1.21-.67 1.55l-2.9 2.56c-.4.34-.67 1.01-.67 1.55v2.9c0 .4-.27.94-.61 1.15l-.94.61c-.88.54-2.09-.07-2.09-1.15v-3.57c0-.47-.27-1.08-.54-1.42l-2.56-2.7c-.34-.34-.61-.94-.61-1.35V3.41C2 2.61 2.61 2 3.35 2Z" stroke="#292D32" stroke-width="1.5" stroke-miterlimit="10" stroke-linecap="round" stroke-linejoin="round"/><path d="M22 8.998c0-3.12-.78-5.08-2.59-6.1-.51-.29-1.53-.51-2.46-.66M2 12v3c0 5 2 7 7 7h6c5 0 7-2 7-7v-2M13 13h5M11 17h7" stroke="#292D32" stroke-width="1.5" stroke-linecap="round" stroke-linejoin="round"/></svg>