<svg width="24" height="24" fill="none" xmlns="http://www.w3.org/2000/svg"><path opacity=".4" d="M16.192 2h-8.37c-3.64 0-5.81 2.17-5.81 5.81v8.37c0 3.64 2.17 5.81 5.81 5.81h8.37c3.64 0 5.81-2.17 5.81-5.81V7.81c0-3.64-2.17-5.81-5.81-5.81Z" fill="#292D32"/><path d="M19.35 8.27a.776.776 0 0 0-.16-.24l-1.8-1.8a.754.754 0 0 0-1.06 0c-.29.29-.29.77 0 1.06l.52.52h-.15c-1.95 0-3.64 1.07-4.57 2.64-.92-1.57-2.61-2.64-4.56-2.64h-.43l.52-.52c.29-.29.29-.77 0-1.06a.754.754 0 0 0-1.06 0l-1.8 1.8c-.29.29-.29.77 0 1.06l1.8 1.8c.15.15.34.22.53.22s.38-.07.53-.22c.29-.29.29-.77 0-1.06l-.52-.52h.42c2.1 0 3.81 1.71 3.81 3.81v4.13c0 .41.34.75.75.75s.75-.34.75-.75v-4.13c0-2.1 1.71-3.81 3.82-3.81h.15l-.52.52c-.29.29-.29.77 0 1.06.15.15.34.22.53.22s.38-.07.53-.22l1.8-1.8c.07-.07.12-.15.16-.24.09-.19.09-.4.01-.58Z" fill="#292D32"/></svg>