<svg width="24" height="24" fill="none" xmlns="http://www.w3.org/2000/svg"><path d="m21.79 20.76-.72-.72a3.576 3.576 0 0 0-2.99-5.54c-1.98 0-3.58 1.6-3.58 3.58a3.576 3.576 0 0 0 5.54 2.99l.72.72a.728.728 0 0 0 1.03-1.03Z" fill="#292D32"/><path opacity=".4" d="M2.032 14.629c0 .03-.02.07-.02.1a9.494 9.494 0 0 0 4.26 4.26c.03 0 .07-.02.1-.02-.34-1.16-.6-2.35-.79-3.54-1.2-.2-2.39-.46-3.55-.8ZM19.068 6.431a9.5 9.5 0 0 0-4.49-4.49c.36 1.19.66 2.41.86 3.63 1.22.2 2.44.49 3.63.86ZM1.93 6.43c1.2-.36 2.42-.66 3.64-.86.2-1.19.45-2.37.79-3.53-.03 0-.07-.02-.1-.02-1.88.93-3.41 2.5-4.33 4.41ZM13.82 5.358c-.24-1.3-.54-2.6-.97-3.86-.02-.07-.02-.13-.03-.21a9.83 9.83 0 0 0-2.32-.3c-.81 0-1.58.11-2.33.3-.01.07 0 .13-.02.21-.42 1.26-.73 2.56-.97 3.86 2.21-.24 4.43-.24 6.64 0ZM5.358 7.18c-1.31.24-2.6.54-3.86.97-.07.02-.13.02-.21.03-.18.74-.3 1.52-.3 2.32 0 .81.11 1.58.3 2.33.07.01.13 0 .21.02 1.26.42 2.55.73 3.86.97-.24-2.21-.24-4.43 0-6.64ZM19.699 8.18c-.07 0-.13-.01-.21-.03-1.26-.42-2.56-.73-3.86-.97.25 2.21.25 4.43 0 6.63 1.3-.24 2.6-.54 3.86-.97.07-.02.13-.01.21-.02.18-.75.3-1.52.3-2.33 0-.79-.11-1.56-.3-2.31ZM7.18 15.64c.24 1.31.54 2.6.97 3.86.02.07.01.13.02.21.75.18 1.52.3 2.33.3.8 0 1.58-.11 2.32-.3.01-.07.01-.13.03-.21.42-1.26.73-2.55.97-3.86-1.1.12-2.21.21-3.32.21a33.43 33.43 0 0 1-3.32-.21ZM6.952 6.952c-.3 2.36-.3 4.74 0 7.11 2.36.3 4.74.3 7.11 0 .3-2.36.3-4.74 0-7.11-2.37-.3-4.75-.3-7.11 0Z" fill="#292D32"/></svg>