<svg width="24" height="24" fill="none" xmlns="http://www.w3.org/2000/svg"><path opacity=".4" d="m18.939 8.059-3.83 3.83c.01.04.01.07.01.11 0 1.72-1.4 3.12-3.12 3.12-.04 0-.07 0-.11-.01l-3.83 3.83a7.77 7.77 0 0 0 3.94 1.06c4.41 0 8-3.59 8-8 0-1.43-.38-2.78-1.06-3.94ZM17.65 6.35 14.2 9.8c-.56-.57-1.34-.92-2.2-.92-1.72 0-3.12 1.4-3.12 3.12 0 .86.35 1.64.92 2.2l-3.45 3.45A7.975 7.975 0 0 1 4 12c0-4.41 3.59-8 8-8 2.2 0 4.2.9 5.65 2.35Z" fill="#292D32"/><path d="m14.199 9.799-4.4 4.4c-.57-.56-.92-1.34-.92-2.2 0-1.72 1.4-3.12 3.12-3.12.86 0 1.64.35 2.2.92ZM12.75 2v2.04h-.01C12.5 4.01 12.25 4 12 4s-.5.01-.74.04h-.01V2c0-.41.34-.75.75-.75s.75.34.75.75ZM4 12c0 .25.01.51.04.75H2c-.41 0-.75-.34-.75-.75s.34-.75.75-.75h2.04c-.03.24-.04.5-.04.75ZM12.75 19.96V22c0 .41-.34.75-.75.75s-.75-.34-.75-.75v-2.04h.01c.24.03.49.04.74.04s.5-.01.74-.04h.01ZM22.75 12c0 .41-.34.75-.75.75h-2.04c.03-.24.04-.5.04-.75s-.01-.51-.04-.75H22c.41 0 .75.34.75.75Z" fill="#292D32"/><path d="M21.769 2.229c-.3-.3-.79-.3-1.09 0l-18.45 18.46c-.3.3-.3.79 0 1.09a.758.758 0 0 0 1.08-.01l18.46-18.46c.31-.3.31-.78 0-1.08Z" fill="#292D32"/></svg>