<svg width="24" height="24" fill="none" xmlns="http://www.w3.org/2000/svg"><path opacity=".4" d="m18.889 5.11-13.1 13.1c-1.89-2.57-3.25-5.85-2.41-9.52.52-2.31 1.8-3.98 3.38-5.08C8.339 2.52 10.229 2 11.999 2c2.44 0 5.12.98 6.89 3.11ZM15.78 20.98A5.436 5.436 0 0 1 12 22.51c-1.36 0-2.72-.52-3.78-1.54-.36-.34-.72-.72-1.08-1.11l12.9-12.9c.25.54.44 1.11.58 1.74 1.17 5.16-1.99 9.52-4.84 12.28Z" fill="#292D32"/><path d="M21.769 2.229a.743.743 0 0 0-1.08 0l-5.67 5.67-.72.72a2.848 2.848 0 0 0-2.3-1.18c-1.58 0-2.87 1.29-2.87 2.87 0 .9.44 1.75 1.18 2.3l-8.08 8.08c-.31.3-.31.78 0 1.08.15.15.34.23.54.23s.39-.08.54-.23l18.46-18.46c.31-.3.31-.78 0-1.08Z" fill="#292D32"/></svg>