<svg width="24" height="24" fill="none" xmlns="http://www.w3.org/2000/svg"><path d="m14.531 12.42-1.45-1.45 1.4-1.4c.29-.29.29-.77 0-1.06a.754.754 0 0 0-1.06 0l-1.4 1.4-1.45-1.45a.754.754 0 0 0-1.06 0c-.29.29-.29.77 0 1.06l1.45 1.45-1.49 1.49c-.29.29-.29.77 0 1.06.15.15.34.22.53.22s.38-.07.53-.22l1.49-1.49 1.45 1.45c.15.15.34.22.53.22s.38-.07.53-.22c.29-.29.29-.76 0-1.06Z" fill="#292D32"/><path opacity=".4" d="M20.619 8.7c-1.04-4.63-5.08-6.7-8.62-6.7h-.01c-3.53 0-7.56 2.07-8.61 6.69-1.18 5.16 1.98 9.53 4.84 12.29a5.436 5.436 0 0 0 3.78 1.53c1.36 0 2.72-.51 3.77-1.53 2.86-2.76 6.02-7.12 4.85-12.28Z" fill="#292D32"/></svg>