<svg width="24" height="24" fill="none" xmlns="http://www.w3.org/2000/svg"><path opacity=".4" d="M8.56 3.34v14.33c-.34.01-.68.09-.93.24l-2.35 1.34c-1.64.94-2.99.16-2.99-1.74V7.78c0-.63.45-1.41 1.01-1.73l4.33-2.48c.25-.14.59-.22.93-.23Z" fill="#292D32"/><path d="M15.729 6.33v14.33c-.35.01-.69-.05-.96-.18l-5.25-2.63c-.27-.13-.61-.19-.96-.18V3.34c.35-.01.69.05.96.18l5.25 2.63c.27.13.61.19.96.18Z" fill="#292D32"/><path opacity=".4" d="M22 6.49v9.73c0 .63-.45 1.41-1.01 1.73l-4.33 2.48c-.25.14-.59.22-.93.23V6.33c.34-.01.68-.09.93-.24l2.35-1.34C20.65 3.81 22 4.59 22 6.49Z" fill="#292D32"/></svg>