<svg width="24" height="24" fill="none" xmlns="http://www.w3.org/2000/svg"><path opacity=".4" d="M19.882 20.939c-.95.7-2.2 1.06-3.69 1.06h-8.38c-.24 0-.48-.01-.71-.04l6.9-6.9 5.88 5.88ZM21.999 7.812v8.38c0 1.49-.36 2.74-1.06 3.69l-5.88-5.88 6.9-6.9c.03.23.04.47.04.71Z" fill="#292D32"/><path opacity=".4" d="m15.06 14 5.88 5.88c-.29.42-.64.77-1.06 1.06L14 15.06l-6.9 6.9c-.64-.04-1.22-.17-1.75-.37C3.21 20.81 2 18.91 2 16.19V7.81C2 4.17 4.17 2 7.81 2h8.38c2.72 0 4.62 1.21 5.4 3.35.2.53.33 1.11.37 1.75l-6.9 6.9Z" fill="#292D32"/><path d="m15.062 14.002 5.88 5.88c-.29.42-.64.77-1.06 1.06l-5.88-5.88-6.9 6.9c-.64-.04-1.22-.17-1.75-.37l.39-.39 15.85-15.85c.2.53.33 1.11.37 1.75l-6.9 6.9ZM12.24 7.931c-.38-1.65-1.84-2.39-3.12-2.4-1.28 0-2.74.74-3.12 2.39-.42 1.83.7 3.36 1.71 4.32.4.38.9.56 1.41.56.51 0 1.01-.19 1.41-.56 1.01-.96 2.13-2.49 1.71-4.31Zm-3.09 1.56c-.55 0-1-.45-1-1s.44-1 1-1h.01c.55 0 1 .45 1 1s-.46 1-1.01 1Z" fill="#292D32"/></svg>