<svg width="24" height="24" fill="none" xmlns="http://www.w3.org/2000/svg"><path opacity=".4" d="M12 22c5.523 0 10-4.477 10-10S17.523 2 12 2 2 6.477 2 12s4.477 10 10 10Z" fill="#292D32"/><path d="M11.998 4.25c-1.69 0-3.3.54-4.65 1.55a.75.75 0 0 0 .9 1.2 6.174 6.174 0 0 1 3.75-1.25c3.45 0 6.25 2.8 6.25 6.25s-2.8 6.25-6.25 6.25-6.25-2.8-6.25-6.25c0-.84.17-1.67.49-2.44l1.14.65a4.95 4.95 0 0 0-.34 1.79c0 2.73 2.22 4.95 4.95 4.95s4.95-2.22 4.95-4.95a4.955 4.955 0 0 0-7.06-4.48c-.37.18-.54.62-.36 1 .18.37.62.53 1 .36.46-.22.95-.33 1.47-.33 1.9 0 3.45 1.55 3.45 3.45 0 1.9-1.55 3.45-3.45 3.45-1.9 0-3.45-1.55-3.45-3.45 0-.35.07-.69.17-1.02l2.91 1.67c.36.21.82.08 1.02-.28a.74.74 0 0 0-.28-1.02l-6.07-3.49a.741.741 0 0 0-1.02.28A7.77 7.77 0 0 0 4.238 12c0 4.27 3.48 7.75 7.75 7.75s7.75-3.48 7.75-7.75-3.47-7.75-7.74-7.75Z" fill="#292D32"/></svg>