<svg width="24" height="24" fill="none" xmlns="http://www.w3.org/2000/svg"><path d="M11 18v3c0 .55-.45 1-1 1s-1-.45-1-1v-3h2ZM15 18v3c0 .55-.45 1-1 1s-1-.45-1-1v-3h2ZM7 11c0-1.1.9-2 2-2h6c1.1 0 2 .9 2 2v5c0 1.1-.9 2-2 2H9c-1.1 0-2-.9-2-2v-.71M5 11v4c0 .55-.45 1-1 1s-1-.45-1-1v-4c0-.55.45-1 1-1s1 .45 1 1ZM21 11v4c0 .55-.45 1-1 1s-1-.45-1-1v-4c0-.55.45-1 1-1s1 .45 1 1ZM13 18h-2M9.6 6.998h4.8c.88 0 1.6-.72 1.6-1.6 0-2.21-1.79-4-4-4s-4 1.79-4 4c0 .88.72 1.6 1.6 1.6Z" stroke="#000" stroke-width="1.5" stroke-miterlimit="10" stroke-linecap="round" stroke-linejoin="round"/></svg>