<svg width="24" height="24" fill="none" xmlns="http://www.w3.org/2000/svg"><path d="m6.06 15.58 5.61-9.61c.16-.28.56-.3.75-.04l1.56 2.09c.45.6.48 1.41.09 2.05l-3.34 5.35c-.33.53-.91.85-1.54.85H6.45c-.35-.01-.57-.39-.39-.69ZM15.24 12.37l-1.92 3.2c-.18.3.04.69.39.69h3.84c.35 0 .57-.38.39-.69l-1.92-3.2c-.17-.29-.6-.29-.78 0Z" stroke="#000" stroke-width="1.5" stroke-miterlimit="10" stroke-linecap="round" stroke-linejoin="round"/><path d="M4 6c-1.25 1.67-2 3.75-2 6 0 5.52 4.48 10 10 10s10-4.48 10-10S17.52 2 12 2c-1.43 0-2.8.3-4.03.85" stroke="#17191C" stroke-width="1.5" stroke-linecap="round" stroke-linejoin="round"/></svg>