<svg width="24" height="24" fill="none" xmlns="http://www.w3.org/2000/svg"><path d="M8.78 7.672h5.42c1.2 0 2.17 1.08 2.17 2.17 0 1.2-.97 2.17-2.17 2.17H8.78v-4.34Z" stroke="#000" stroke-width="1.5" stroke-miterlimit="10" stroke-linecap="round" stroke-linejoin="round"/><path d="M8.78 12h6.19c1.37 0 2.48.97 2.48 2.17s-1.11 2.17-2.48 2.17H8.78V12ZM12.57 16.328v2.17M9.87 16.328v2.17M12.57 5.5v2.17M9.87 5.5v2.17M10.84 7.672H7.05M10.84 16.328H7.05" stroke="#000" stroke-width="1.5" stroke-miterlimit="10" stroke-linecap="round" stroke-linejoin="round"/><path d="M4 6c-1.25 1.67-2 3.75-2 6 0 5.52 4.48 10 10 10s10-4.48 10-10S17.52 2 12 2c-1.43 0-2.8.3-4.03.85" stroke="#17191C" stroke-width="1.5" stroke-linecap="round" stroke-linejoin="round"/></svg>