<svg width="24" height="24" fill="none" xmlns="http://www.w3.org/2000/svg"><path d="M13.75 10a1 1 0 1 0 0-2 1 1 0 0 0 0 2Z" stroke="#000" stroke-miterlimit="10"/><path d="M10.25 10c.55 0 1-.45 1-1s-.45-1-1-1" stroke="#000" stroke-miterlimit="10" stroke-linecap="round" stroke-linejoin="round"/><path d="M15.5 13a1 1 0 1 0 0-2 1 1 0 0 0 0 2ZM17.15 9.75a.75.75 0 1 0 0-1.5.75.75 0 0 0 0 1.5ZM17.15 15.75a.75.75 0 1 0 0-1.5.75.75 0 0 0 0 1.5ZM19.75 12.75a.75.75 0 1 0 0-1.5.75.75 0 0 0 0 1.5ZM6.8 9.75a.75.75 0 1 0 0-1.5.75.75 0 0 0 0 1.5ZM6.8 15.75a.75.75 0 1 0 0-1.5.75.75 0 0 0 0 1.5ZM4.2 12.75a.75.75 0 1 0 0-1.5.75.75 0 0 0 0 1.5ZM15.9 5.95a.75.75 0 1 0 0-1.5.75.75 0 0 0 0 1.5ZM8.1 5.95a.75.75 0 1 0 0-1.5.75.75 0 0 0 0 1.5ZM12.05 6.75a.75.75 0 1 0 0-1.5.75.75 0 0 0 0 1.5ZM15.9 19.75a.75.75 0 1 0 0-1.5.75.75 0 0 0 0 1.5Z" stroke="#000" stroke-miterlimit="10"/><path d="M8.85 19c0 .41-.34.75-.75.75s-.75-.34-.75-.75" stroke="#000" stroke-miterlimit="10" stroke-linecap="round" stroke-linejoin="round"/><path d="M12.05 18.95a.75.75 0 1 0 0-1.5.75.75 0 0 0 0 1.5ZM8.5 13a1 1 0 1 0 0-2 1 1 0 0 0 0 2ZM10.25 16a1 1 0 1 0 0-2 1 1 0 0 0 0 2Z" stroke="#000" stroke-miterlimit="10"/><path d="M14.75 15c0-.55-.45-1-1-1s-1 .45-1 1" stroke="#000" stroke-miterlimit="10" stroke-linecap="round" stroke-linejoin="round"/><path d="M11.95 2.5v0" stroke="#000" stroke-width="2" stroke-linecap="round" stroke-linejoin="round"/><path d="M17.45 2.898v0M17.45 21.25v0M19.95 16.55v0M19.95 7.05v0M3.95 16.55v0M3.95 7.05v0M6.45 2.898v0M6.45 21.25v0" stroke="#000" stroke-width="1.5" stroke-linecap="round" stroke-linejoin="round"/><path d="M11.95 21.55v0M1.5 12.05v0M22.45 12.05v0" stroke="#000" stroke-width="2" stroke-linecap="round" stroke-linejoin="round"/></svg>