<svg width="24" height="24" fill="none" xmlns="http://www.w3.org/2000/svg"><path d="M3.82 8.99c.48-.5 1.03-.92 1.65-1.24l.19-.1L2 4h5l6 6H8.5C6.57 10 5 11.57 5 13.5S6.57 17 8.5 17H10l3 3H8.5A6.5 6.5 0 0 1 2 13.5c0-.33.02-.65.07-.96" stroke="#000" stroke-width="1.5" stroke-miterlimit="10" stroke-linecap="round" stroke-linejoin="round"/><path d="M18.35 16.35 22 20h-5l-6-6h4.5c1.93 0 3.5-1.57 3.5-3.5S17.43 7 15.5 7H14l-3-3h4.5a6.5 6.5 0 0 1 3.03 12.25l-.18.1Z" stroke="#000" stroke-width="1.5" stroke-miterlimit="10" stroke-linecap="round" stroke-linejoin="round"/></svg>