<svg width="24" height="24" fill="none" xmlns="http://www.w3.org/2000/svg"><path d="M12 18.152c-.72 0-1.32-.59-1.32-1.32v-9.66c0-.72.59-1.32 1.32-1.32.72 0 1.32.59 1.32 1.32v9.66c0 .73-.6 1.32-1.32 1.32Z" stroke="#000" stroke-width="1.5" stroke-miterlimit="10"/><path d="M6.68 8.929a1.32 1.32 0 0 1 1.8-.48l8.37 4.83c.63.36.84 1.17.48 1.8-.36.63-1.17.84-1.8.48l-8.37-4.83c-.63-.37-.85-1.18-.48-1.8Z" stroke="#000" stroke-width="1.5" stroke-miterlimit="10"/><path d="M6.68 15.071a1.32 1.32 0 0 1 .48-1.8l8.37-4.83a1.32 1.32 0 0 1 1.8.48c.36.63.15 1.44-.48 1.8l-8.37 4.83c-.63.37-1.44.15-1.8-.48Z" stroke="#000" stroke-width="1.5" stroke-miterlimit="10"/><path d="M4 6c-1.25 1.67-2 3.75-2 6 0 5.52 4.48 10 10 10s10-4.48 10-10S17.52 2 12 2c-1.43 0-2.8.3-4.03.85" stroke="#17191C" stroke-width="1.5" stroke-linecap="round" stroke-linejoin="round"/></svg>