<svg width="24" height="24" fill="none" xmlns="http://www.w3.org/2000/svg"><path d="m6.9 9.101 4.77-2.12c.21-.09.45-.09.65 0l4.77 2.12c.42.19.81-.32.52-.68l-5-6.11c-.34-.42-.9-.42-1.24 0l-5 6.11c-.28.36.11.87.53.68ZM6.9 14.9l4.78 2.12c.21.09.45.09.65 0l4.78-2.12c.42-.19.81.32.52.68l-5 6.11c-.34.42-.9.42-1.24 0l-5-6.11c-.3-.36.08-.87.51-.68ZM16.01 12.619l1.23-.62L12 9.379l-5.24 2.62 5.24 2.62.8-.4" stroke="#000" stroke-width="1.5" stroke-miterlimit="10" stroke-linecap="round" stroke-linejoin="round"/></svg>