<svg width="24" height="24" fill="none" xmlns="http://www.w3.org/2000/svg"><path d="M14 9.3v2.95h2.63c.19 0 .33.17.29.36l-.38 1.9c-.03.14-.15.24-.29.24H14V22h-3v-7.25H9.3c-.17 0-.3-.13-.3-.3v-1.9c0-.17.13-.3.3-.3H11V9c0-1.66 1.34-3 3-3h2.7c.17 0 .3.13.3.3v2.4c0 .17-.13.3-.3.3h-2.4c-.17 0-.3.13-.3.3Z" stroke="#000" stroke-width="1.5" stroke-miterlimit="10" stroke-linecap="round"/><path d="M2 12.83V15c0 5 2 7 7 7h6c5 0 7-2 7-7V9c0-5-2-7-7-7H9C4 2 2 4 2 9" stroke="#000" stroke-width="1.5" stroke-linecap="round" stroke-linejoin="round"/></svg>