<svg width="24" height="24" fill="none" xmlns="http://www.w3.org/2000/svg"><path d="M12 2H8.67C6.83 2 5.34 3.49 5.34 5.33s1.49 3.33 3.33 3.33H12V2Z" stroke="#000" stroke-width="1.5" stroke-miterlimit="10"/><path d="M8.67 15.33H12V8.66H8.67c-1.84 0-3.33 1.49-3.33 3.33" stroke="#000" stroke-width="1.5" stroke-miterlimit="10" stroke-linecap="round" stroke-linejoin="round"/><path d="M12 15.328H8.67c-1.84 0-3.33 1.49-3.33 3.33s1.49 3.33 3.33 3.33 3.33-1.49 3.33-3.33v-3.33ZM12 2h3.33c1.84 0 3.33 1.49 3.33 3.33s-1.49 3.33-3.33 3.33H12V2ZM15.33 8.672c1.84 0 3.33 1.49 3.33 3.33s-1.49 3.33-3.33 3.33-3.33-1.49-3.33-3.33 1.49-3.33 3.33-3.33Z" stroke="#000" stroke-width="1.5" stroke-miterlimit="10"/></svg>