<svg width="24" height="24" fill="none" xmlns="http://www.w3.org/2000/svg"><path d="M12 6h-2c-1.1 0-2 .9-2 2s.9 2 2 2h2V6ZM12 10h-2c-1.1 0-2 .9-2 2s.9 2 2 2h2v-4ZM12 14h-2c-1.1 0-2 .9-2 2s.9 2 2 2 2-.9 2-2v-2ZM12 6h2c1.1 0 2 .9 2 2s-.9 2-2 2h-2V6ZM14 10c1.1 0 2 .9 2 2s-.9 2-2 2-2-.9-2-2 .9-2 2-2Z" stroke="#000" stroke-width="1.5" stroke-miterlimit="10"/><path d="M4 6c-1.25 1.67-2 3.75-2 6 0 5.52 4.48 10 10 10s10-4.48 10-10S17.52 2 12 2c-1.43 0-2.8.3-4.03.85" stroke="#17191C" stroke-width="1.5" stroke-linecap="round" stroke-linejoin="round"/></svg>