<svg width="24" height="24" fill="none" xmlns="http://www.w3.org/2000/svg"><path d="M22 5.74c0 1.7-.84 3.3-2.28 4.2-1.3.82-3.18 1.65-5.72 1.94V5.74C14 3.68 15.68 2 17.74 2h.52C20.32 2 22 3.68 22 5.74Z" stroke="#000" stroke-width="1.5" stroke-miterlimit="10"/><path d="M22 8v10.26c0 2.06-1.68 3.74-3.74 3.74h-.52C15.68 22 14 20.32 14 18.26v-6.38C19.58 11.23 22 8 22 8ZM2 18.261c0-1.7.84-3.3 2.28-4.2 1.3-.82 3.18-1.65 5.72-1.94v6.14c0 2.06-1.68 3.74-3.74 3.74h-.52c-2.06 0-3.74-1.68-3.74-3.74Z" stroke="#000" stroke-width="1.5" stroke-miterlimit="10"/><path d="M2 5.74C2 3.68 3.68 2 5.74 2h.52C8.32 2 10 3.68 10 5.74v6.38C4.42 12.77 2 16 2 16V9.68" stroke="#000" stroke-width="1.5" stroke-miterlimit="10" stroke-linecap="round" stroke-linejoin="round"/><path d="M10 12.099c.63-.06 1.29-.1 2-.1s1.37-.04 2-.12" stroke="#000" stroke-width="1.5" stroke-miterlimit="10"/><path d="M2 18v-2.77" stroke="#000" stroke-width="1.5" stroke-miterlimit="10" stroke-linecap="round" stroke-linejoin="round"/></svg>