<svg width="24" height="24" fill="none" xmlns="http://www.w3.org/2000/svg"><path d="m7.5 6.98 9 .02-1 9-3.5 1-3.5-1-.5-2M8 11h8.06" stroke="#000" stroke-width="1.5" stroke-miterlimit="10" stroke-linecap="round" stroke-linejoin="round"/><path d="m3.32 4.91-.2-1.8c-.07-.59.4-1.11.99-1.11h15.77c.6 0 1.06.52.99 1.11l-1.8 16.22c-.04.4-.33.74-.72.85l-6.08 1.74c-.18.05-.37.05-.55 0l-6.08-1.74a1.01 1.01 0 0 1-.72-.85l-1.1-9.92" stroke="#000" stroke-width="1.5" stroke-miterlimit="10" stroke-linecap="round" stroke-linejoin="round"/></svg>