<svg width="24" height="24" fill="none" xmlns="http://www.w3.org/2000/svg"><path d="M3.5 12.872v2.98c0 .71.38 1.36.99 1.72l6.5 3.82c.63.37 1.4.37 2.03 0l6.5-3.82c.61-.36.99-1.02.99-1.72v-7.71c0-.71-.38-1.36-.99-1.72l-6.5-3.82c-.63-.37-1.4-.37-2.03 0l-6.5 3.82c-.61.36-.99 1.02-.99 1.72" stroke="#000" stroke-width="1.5" stroke-miterlimit="10" stroke-linecap="round" stroke-linejoin="round"/><path d="m17 9-5-3-5 3 10 6-5 3-5-3M11.5 10l-2 2M14.5 12l-2 2" stroke="#000" stroke-width="1.5" stroke-miterlimit="10" stroke-linecap="round" stroke-linejoin="round"/></svg>