<svg width="24" height="24" fill="none" xmlns="http://www.w3.org/2000/svg"><path d="M21.54 15c-1.28 4.06-5.07 7-9.54 7-4.46 0-8.24-2.92-9.53-6.96L7 15V9l5 6 5-6v6h4.54Z" stroke="#000" stroke-width="1.5" stroke-miterlimit="10" stroke-linecap="round" stroke-linejoin="round"/><path d="M21.54 15H17V9l-5 6-5-6v6l-4.53.04" stroke="#000" stroke-width="1.5" stroke-miterlimit="10" stroke-linecap="round" stroke-linejoin="round"/><path d="M4 6c-1.25 1.67-2 3.75-2 6 0 5.52 4.48 10 10 10s10-4.48 10-10S17.52 2 12 2c-1.43 0-2.8.3-4.03.85" stroke="#17191C" stroke-width="1.5" stroke-linecap="round" stroke-linejoin="round"/></svg>