<svg width="24" height="24" fill="none" xmlns="http://www.w3.org/2000/svg"><path d="M17 17a5 5 0 1 0 0-10 5 5 0 0 0 0 10Z" stroke="#000" stroke-width="1.5" stroke-miterlimit="10" stroke-linecap="round" stroke-linejoin="round"/><path d="M12 22a5 5 0 1 0 0-10 5 5 0 0 0 0 10ZM12 12a5 5 0 1 0 0-10 5 5 0 0 0 0 10Z" stroke="#000" stroke-width="1.5" stroke-miterlimit="10" stroke-linecap="round" stroke-linejoin="round"/><path d="M2.81 9.27A5.003 5.003 0 0 0 7 17c2.76 0 5-2.24 5-5S9.76 7 7 7c-.35 0-.68.03-1.01.1" stroke="#000" stroke-width="1.5" stroke-miterlimit="10" stroke-linecap="round" stroke-linejoin="round"/></svg>