<svg width="24" height="24" fill="none" xmlns="http://www.w3.org/2000/svg"><path opacity=".58" d="M24 0H0v24h24V0Z" fill="#fff"/><path d="M12 11.5a2 2 0 1 0 0-4 2 2 0 0 0 0 4Z" fill="#fff" stroke="#000" stroke-width="1.5" stroke-miterlimit="10"/><path d="M10 13.5c1.25.63 2.73.63 3.99.01l.01-.01" stroke="#000" stroke-width="1.5" stroke-miterlimit="10" stroke-linecap="round" stroke-linejoin="round"/><path d="m10 16.499 2-2.53 2 2.53" stroke="#000" stroke-width="1.5" stroke-miterlimit="10" stroke-linecap="round" stroke-linejoin="round"/><path d="M12 22c5.523 0 10-4.477 10-10S17.523 2 12 2 2 6.477 2 12s4.477 10 10 10Z" stroke="#000" stroke-width="1.5" stroke-miterlimit="10"/></svg>