<svg width="24" height="24" fill="none" xmlns="http://www.w3.org/2000/svg"><path d="M16.3 21.03c-1.3.62-2.76.97-4.3.97-5.52 0-10-4.48-10-10 0-1.41.29-2.76.82-3.98M7.97 2.84C9.2 2.3 10.56 2 12 2c5.52 0 10 4.48 10 10 0 2.29-.77 4.4-2.06 6.08" stroke="#000" stroke-width="1.5" stroke-miterlimit="10" stroke-linecap="round" stroke-linejoin="round"/><path d="M16 16.25V12c0-2.35-1.9-4.25-4.25-4.25S7.5 9.65 7.5 12s1.9 4.25 4.25 4.25H16ZM5 6.5a1.5 1.5 0 1 0 0-3 1.5 1.5 0 0 0 0 3Z" stroke="#000" stroke-width="1.5" stroke-miterlimit="10" stroke-linecap="round" stroke-linejoin="round"/></svg>