<svg width="24" height="24" fill="none" xmlns="http://www.w3.org/2000/svg"><path d="M14.54 2.262c-1.03 0-1.86.83-1.86 1.86v4.64c0 1.03.83 1.86 1.86 1.86 1.03 0 1.86-.83 1.86-1.86v-4.64c0-1.03-.83-1.86-1.86-1.86ZM18.62 10.62h1.57c.87 0 1.57-.7 1.57-1.57 0-.87-.7-1.57-1.57-1.57-.87 0-1.57.7-1.57 1.57v1.57ZM3.86 7.371c-1.03 0-1.86.83-1.86 1.86 0 1.03.83 1.86 1.86 1.86H8.5c1.03 0 1.86-.83 1.86-1.86 0-1.03-.83-1.86-1.86-1.86h-.75M10.36 5.128v-1.57c0-.87-.7-1.57-1.57-1.57-.87 0-1.57.7-1.57 1.57 0 .87.7 1.57 1.57 1.57h1.57ZM9.43 21.77c1.03 0 1.86-.83 1.86-1.86v-4.64c0-1.03-.83-1.86-1.86-1.86-1.03 0-1.86.83-1.86 1.86v4.64c0 1.02.83 1.86 1.86 1.86ZM5.36 13.41H3.79c-.87 0-1.57.7-1.57 1.57 0 .87.7 1.57 1.57 1.57.87 0 1.57-.7 1.57-1.57v-1.57ZM21.97 14.801c0-1.03-.83-1.86-1.86-1.86h-4.64c-1.03 0-1.86.83-1.86 1.86 0 1.03.83 1.86 1.86 1.86h4.64c1.03 0 1.86-.83 1.86-1.86ZM13.61 18.84v1.57c0 .87.7 1.57 1.57 1.57.87 0 1.57-.7 1.57-1.57 0-.87-.7-1.57-1.57-1.57h-1.57Z" stroke="#000" stroke-width="1.5" stroke-miterlimit="10" stroke-linecap="round" stroke-linejoin="round"/></svg>