<svg width="24" height="24" fill="none" xmlns="http://www.w3.org/2000/svg"><path d="M20 3.5H5.5c-.31 0-.61.15-.8.4l-1.5 2c-.49.66-.02 1.6.8 1.6h14.5c.31 0 .61-.15.8-.4l1.5-2c.49-.66.02-1.6-.8-1.6Z" stroke="#000" stroke-width="1.5" stroke-miterlimit="10"/><path d="M6.94 14H5.5c-.31 0-.61-.15-.8-.4l-1.5-2c-.49-.66-.02-1.6.8-1.6h14.5c.31 0 .61.15.8.4l1.5 2c.49.66.02 1.6-.8 1.6h-8.64" stroke="#000" stroke-width="1.5" stroke-miterlimit="10" stroke-linecap="round" stroke-linejoin="round"/><path d="M20 16.5H5.5c-.31 0-.61.15-.8.4l-1.5 2c-.49.66-.02 1.6.8 1.6h14.5c.31 0 .61-.15.8-.4l1.5-2c.49-.66.02-1.6-.8-1.6Z" stroke="#000" stroke-width="1.5" stroke-miterlimit="10"/></svg>