<svg width="24" height="24" fill="none" xmlns="http://www.w3.org/2000/svg"><path d="m16.77 4.32-.63-1.07a.504.504 0 0 0-.43-.25H8.87c-.39 0-.63.42-.43.75L11.5 9H5.27c-.17 0-.32.08-.42.22l-3.67 5.5a.5.5 0 0 0 0 .55l3.37 5.06a.5.5 0 0 0 .85-.03l2.46-4.22c.19-.32.64-.33.85-.03l3.14 4.71c.09.14.25.22.42.22h6.46c.17 0 .32-.08.42-.22l3.68-5.52c.11-.16.11-.36.02-.53l-3.58-6.14-2.5-4.25ZM8.5 15l3.25-5.57 2.81 4.82c.19.33-.05.75-.43.75H8.5Z" stroke="#000" stroke-width="1.5" stroke-miterlimit="10" stroke-linecap="round"/></svg>