<svg width="24" height="24" fill="none" xmlns="http://www.w3.org/2000/svg"><path d="M10.5 11.46v2.85L8 15.75l-2.5-1.44v-2.85L8 10.02l1.25.72 1.25.72ZM18.5 11.46v2.85L16 15.75l-2.5-1.44v-2.85l1.25-.72 1.25-.72 2.5 1.44Z" stroke="#000" stroke-width="1.5" stroke-miterlimit="10" stroke-linejoin="round"/><path d="M14.75 9.33v1.41l-1.25.72v1.73l-1.5.86-1.5-.86v-1.73l-1.25-.72V9.33L12 7.75l2.75 1.58Z" stroke="#000" stroke-width="1.5" stroke-miterlimit="10" stroke-linejoin="round"/><path d="M4 6c-1.25 1.67-2 3.75-2 6 0 5.52 4.48 10 10 10s10-4.48 10-10S17.52 2 12 2c-1.43 0-2.8.3-4.03.85" stroke="#17191C" stroke-width="1.5" stroke-linecap="round" stroke-linejoin="round"/></svg>