<svg width="24" height="24" fill="none" xmlns="http://www.w3.org/2000/svg"><path d="M10.432 2.42c.97-.56 2.17-.56 3.15 0l5.94 3.43c.97.56 1.57 1.6 1.57 2.73v6.84c0 1.12-.6 2.16-1.57 2.73l-5.94 3.43c-.97.56-2.17.56-3.15 0l-5.94-3.43a3.15 3.15 0 0 1-1.57-2.73V8.58c0-1.12.6-2.16 1.57-2.73l1.9-1.1" stroke="#292D32" stroke-width="1.5" stroke-linecap="round" stroke-linejoin="round"/><path d="M12.002 11a2.33 2.33 0 1 0 0-4.66 2.33 2.33 0 0 0 0 4.66ZM16 16.658c0-1.8-1.79-3.26-4-3.26s-4 1.46-4 3.26" stroke="#292D32" stroke-width="1.5" stroke-linecap="round" stroke-linejoin="round"/></svg>