<svg width="24" height="24" fill="none" xmlns="http://www.w3.org/2000/svg"><path d="M15.02 3.01A4.944 4.944 0 0 0 12 2C9.24 2 7 4.24 7 7s2.24 5 5 5 5-2.24 5-5" stroke="#292D32" stroke-width="1.5" stroke-linecap="round" stroke-linejoin="round"/><path d="m19.211 15.741-3.54 3.54c-.14.14-.27.4-.3.59l-.19 1.35c-.07.49.27.83.76.76l1.35-.19c.19-.03.46-.16.59-.3l3.54-3.54c.61-.61.9-1.32 0-2.22-.89-.89-1.6-.6-2.21.01Z" stroke="#292D32" stroke-width="1.5" stroke-miterlimit="10" stroke-linecap="round" stroke-linejoin="round"/><path d="M18.7 16.25c.3 1.08 1.14 1.92 2.22 2.22" stroke="#292D32" stroke-width="1.5" stroke-miterlimit="10" stroke-linecap="round" stroke-linejoin="round"/><path d="M3.41 22c0-3.87 3.85-7 8.59-7 1.04 0 2.04.15 2.97.43" stroke="#292D32" stroke-width="1.5" stroke-linecap="round" stroke-linejoin="round"/></svg>