<svg width="24" height="24" fill="none" xmlns="http://www.w3.org/2000/svg"><path d="M12 7.95c-1.79 0-3.25 1.46-3.25 3.25v1.6c0 1.79 1.46 3.25 3.25 3.25s3.25-1.46 3.25-3.25v-1.6c0-1.79-1.46-3.25-3.25-3.25Zm.9 5.29c0 .5-.4.9-.9.9s-.9-.4-.9-.9v-2.47c0-.49.4-.9.9-.9s.9.4.9.9v2.47Z" fill="#292D32"/><path d="M12 2C6.48 2 2 6.48 2 12s4.48 10 10 10 10-4.48 10-10S17.52 2 12 2Zm4.75 10.8c0 2.62-2.13 4.75-4.75 4.75s-4.75-2.13-4.75-4.75v-1.6c0-2.62 2.13-4.75 4.75-4.75s4.75 2.13 4.75 4.75v1.6Z" fill="#292D32"/></svg>