<svg width="24" height="24" fill="none" xmlns="http://www.w3.org/2000/svg"><path d="M19.36 4.64 5.83 18.17l-1.1-.82c-.65-.49-1.18-1.55-1.18-2.37V6.89c0-1.13.86-2.37 1.91-2.77l5.5-2.06c.57-.21 1.51-.21 2.08 0l5.5 2.06c.29.11.57.29.82.52ZM20.449 14.979c0 .82-.53 1.88-1.18 2.37l-5.5 4.11c-.98.72-2.56.72-3.54 0l-1.76-1.31c-.49-.36-.54-1.08-.11-1.51l10.38-10.38c.63-.63 1.71-.18 1.71.71v6.01Z" fill="#292D32"/><path d="M21.769 2.229c-.3-.3-.79-.3-1.09 0l-18.45 18.46c-.3.3-.3.79 0 1.09a.758.758 0 0 0 1.08-.01l18.46-18.46c.31-.3.31-.78 0-1.08Z" fill="#292D32"/></svg>