<svg width="24" height="24" fill="none" xmlns="http://www.w3.org/2000/svg"><path opacity=".4" d="M16.19 2H7.81C4.17 2 2 4.17 2 7.81v8.37C2 19.83 4.17 22 7.81 22h8.37c3.64 0 5.81-2.17 5.81-5.81V7.81C22 4.17 19.83 2 16.19 2Z" fill="#292D32"/><path opacity=".97" d="M12 10.311a1.31 1.31 0 1 0 0-2.62 1.31 1.31 0 0 0 0 2.62ZM8.31 13.691c-.72 0-1.31.59-1.31 1.31 0 .72.59 1.31 1.31 1.31.72 0 1.31-.59 1.31-1.31 0-.72-.59-1.31-1.31-1.31ZM15.69 13.691c-.72 0-1.31.59-1.31 1.31 0 .72.59 1.31 1.31 1.31.72 0 1.31-.59 1.31-1.31 0-.72-.59-1.31-1.31-1.31Z" fill="#292D32"/></svg>