<svg width="24" height="24" fill="none" xmlns="http://www.w3.org/2000/svg"><path opacity=".4" d="M21.23 7.62h-5.54c-.38 0-.69-.31-.69-.7 0-.38.31-.69.69-.69h5.54c.38 0 .69.31.69.69 0 .39-.31.7-.69.7ZM6.46 7.618H2.77c-.38 0-.69-.31-.69-.69 0-.38.31-.69.69-.69h3.69c.38 0 .69.31.69.69 0 .38-.31.69-.69.69Z" fill="#292D32"/><path d="M10.15 10.84a3.92 3.92 0 1 0 0-7.84 3.92 3.92 0 0 0 0 7.84Z" fill="#292D32"/><path opacity=".4" d="M21.23 17.77h-3.69c-.38 0-.69-.31-.69-.69 0-.38.31-.69.69-.69h3.69c.38 0 .69.31.69.69 0 .38-.31.69-.69.69ZM8.31 17.77H2.77c-.38 0-.69-.31-.69-.69 0-.38.31-.69.69-.69h5.54c.38 0 .69.31.69.69 0 .38-.31.69-.69.69Z" fill="#292D32"/><path d="M13.85 21a3.92 3.92 0 1 0 0-7.84 3.92 3.92 0 0 0 0 7.84Z" fill="#292D32"/></svg>