<svg width="24" height="24" fill="none" xmlns="http://www.w3.org/2000/svg"><path d="M8.97 2c3.55 0 6.48 2.64 6.93 6.07.05.3.07.61.07.93 0 3.87-3.13 7-7 7-.32 0-.63-.02-.93-.07A6.986 6.986 0 0 1 1.97 9c0-1.93.78-3.68 2.05-4.95" stroke="#292D32" stroke-width="1.5" stroke-linecap="round" stroke-linejoin="round"/><path d="M21.97 15c0 3.87-3.13 7-7 7-3.55 0-6.48-2.64-6.93-6.07.3.05.61.07.93.07 3.87 0 7-3.13 7-7 0-.32-.02-.63-.07-.93 3.43.45 6.07 3.38 6.07 6.93ZM14.12 14.121l1.31 1.29M16.97 12l-1-1M11.97 17l-1-1" stroke="#292D32" stroke-width="1.5" stroke-linecap="round" stroke-linejoin="round"/></svg>