<svg width="24" height="24" fill="none" xmlns="http://www.w3.org/2000/svg"><path d="M1.97 12.941v2.06c0 5 2 7 7 7h6c5 0 7-2 7-7v-2M10.97 2h-2c-5 0-7 2-7 7" stroke="#292D32" stroke-width="1.5" stroke-linecap="round" stroke-linejoin="round"/><path d="M18.51 3c.66-.37 1.3-.68 1.9-.92.47-.18.93-.04 1.22.25.3.3.45.76.26 1.23-1.23 3.07-4.32 7.25-6.9 9.32l-1.58 1.26c-.2.15-.4.27-.63.36 0-.15-.01-.3-.03-.46-.09-.67-.39-1.3-.93-1.83-.55-.55-1.21-.86-1.89-.95-.16-.01-.32-.02-.48-.01.09-.25.22-.48.39-.67L11.09 9c1.07-1.34 2.72-2.82 4.49-4.11" stroke="#292D32" stroke-width="1.5" stroke-linecap="round" stroke-linejoin="round"/><path d="M12.78 14.489c0 .88-.34 1.72-.97 2.36-.49.49-1.15.83-1.94.93l-1.97.21a1.7 1.7 0 0 1-1.87-1.88l.21-1.97c.19-1.75 1.65-2.87 3.21-2.9.16-.01.32 0 .48.01.68.09 1.34.4 1.89.95.54.54.84 1.16.93 1.83.02.16.03.32.03.46ZM15.82 11.981c0-2.09-1.69-3.79-3.79-3.79" stroke="#292D32" stroke-width="1.5" stroke-linecap="round" stroke-linejoin="round"/></svg>