<svg width="24" height="24" fill="none" xmlns="http://www.w3.org/2000/svg"><path d="M8.94 16.93 6.11 14.1c-.94-.94-.94-1.89 0-2.83l4.72-4.72 5.19 5.19c.26.26.26.68 0 .94l-4.25 4.25c-.94.94-1.89.94-2.83 0ZM9.879 5.602l.95.94M5.44 12.642l10.69-.47" stroke="#292D32" stroke-width="1.5" stroke-miterlimit="10" stroke-linecap="round" stroke-linejoin="round"/><path d="M17.3 14.813s-1.31 1.42-1.31 2.29c0 .72.59 1.31 1.31 1.31.72 0 1.31-.59 1.31-1.31-.01-.87-1.31-2.29-1.31-2.29Z" stroke="#292D32" stroke-width="1.5" stroke-linecap="round" stroke-linejoin="round"/><path d="M2 12.97V15c0 5 2 7 7 7h6c5 0 7-2 7-7V9c0-5-2-7-7-7H9C4 2 2 4 2 9" stroke="#292D32" stroke-width="1.5" stroke-linecap="round" stroke-linejoin="round"/></svg>