<svg width="24" height="24" fill="none" xmlns="http://www.w3.org/2000/svg"><path d="m8.36 7.62.39-.88h-.3a2.374 2.374 0 0 1-2.38-2.37C6.07 3.07 7.13 2 8.44 2h7.11c.66 0 1.25.27 1.68.7.56.56.84 1.38.63 2.25-.27 1.08-1.31 1.79-2.42 1.79h-.16l4.22 9.66c1.35 3.08.47 5.6-3.67 5.6H8.16c-4.18 0-5.02-2.53-3.66-5.61l2.07-4.7" stroke="#292D32" stroke-width="1.5" stroke-linecap="round" stroke-linejoin="round"/><path d="M5.94 13.12S9 13 12 14c3 1 5.83-.89 5.83-.89" stroke="#292D32" stroke-width="1.5" stroke-linecap="round" stroke-linejoin="round"/></svg>