<svg width="24" height="24" fill="none" xmlns="http://www.w3.org/2000/svg"><path d="M22 6.9C22 3.4 20.6 2 17.1 2h-4.2C9.4 2 8 3.4 8 6.9V8h3.1c3.5 0 4.9 1.4 4.9 4.9V16h1.1c3.5 0 4.9-1.4 4.9-4.9" stroke="#292D32" stroke-width="1.5" stroke-linecap="round" stroke-linejoin="round"/><path d="M2 17.1C2 20.6 3.4 22 6.9 22h4.2c3.5 0 4.9-1.4 4.9-4.9v-4.2C16 9.4 14.6 8 11.1 8H6.9C3.4 8 2 9.4 2 12.9" stroke="#292D32" stroke-width="1.5" stroke-linecap="round" stroke-linejoin="round"/><path d="m6.08 15 1.95 1.95 3.89-3.9" stroke="#292D32" stroke-width="1.5" stroke-linecap="round" stroke-linejoin="round"/></svg>