<svg width="24" height="24" fill="none" xmlns="http://www.w3.org/2000/svg"><path d="m16.98 10.021 2.52-2.52c.83-.83.83-2.17 0-3-.83-.83-2.17-.83-3 0l-13 13c-.83.83-.83 2.17 0 3 .83.83 2.17.83 3 0l8-8M18.01 8.988l-3-3" stroke="#292D32" stroke-width="1.5" stroke-linecap="round" stroke-linejoin="round"/><path d="M9.56 3.5 10 5l-1.5-.44L7 5l.44-1.5L7 2l1.5.44M4.5 8.44 6 8l-.44 1.5L6 11l-1.5-.44L3 11l.44-1.5L3 8l1.5.44ZM18.44 14.5 18 13l1.5.44L21 13l-.44 1.5L21 16l-1.5-.44" stroke="#292D32" stroke-linecap="round" stroke-linejoin="round"/></svg>