<svg width="24" height="24" fill="none" xmlns="http://www.w3.org/2000/svg"><path d="M2 12c0 2.76 1.12 5.26 2.93 7.07L19.07 4.93A9.969 9.969 0 0 0 12 2C8.07 2 4.67 4.27 3.03 7.57" stroke="#292D32" stroke-width="1.5" stroke-linecap="round" stroke-linejoin="round"/><path d="M22 12c0 5.52-4.48 10-10 10-2.76 0-5.26-1.12-7.07-2.93L19.07 4.93A9.969 9.969 0 0 1 22 12ZM7.76 16.238l5.65 5.66M11.29 12.71l6.58 6.57M14.83 9.172l6.29 6.3" stroke="#292D32" stroke-width="1.5" stroke-linecap="round" stroke-linejoin="round"/></svg>