<svg width="24" height="24" fill="none" xmlns="http://www.w3.org/2000/svg"><path d="M17 16.5h-3.1l1.62-1.79c.8-.89 1.24-2.02 1.24-3.18 0-1.2-.5-2.35-1.39-3.2C14.48 7.48 13.27 7 12 7c-1.26 0-2.47.48-3.37 1.33-.89.85-1.39 2-1.39 3.2 0 1.17.44 2.3 1.24 3.18l1.62 1.79H7" stroke="#292D32" stroke-width="1.5" stroke-linecap="round" stroke-linejoin="round"/><path d="M4 6c-1.25 1.67-2 3.75-2 6 0 5.52 4.48 10 10 10s10-4.48 10-10S17.52 2 12 2c-1.43 0-2.8.3-4.03.85" stroke="#292D32" stroke-width="1.5" stroke-linecap="round" stroke-linejoin="round"/></svg>