<svg width="24" height="24" fill="none" xmlns="http://www.w3.org/2000/svg"><path d="M10.751 22.503h2.52c.96 0 1.58-.68 1.4-1.51l-.41-1.81h-4.5l-.41 1.81c-.18.78.5 1.51 1.4 1.51ZM14.22 12.672l-1.05-1.33c-.64-.81-1.69-.81-2.33 0l-3.05 3.87c-.77.97-.77 1.6.24 2.43l1.73 1.54M14.262 19.173l1.73-1.54c.97-.86 1.01-1.46.24-2.43M12.012 11.121v2.53M12.52 5h-1c-.55 0-1-.45-1-1V3c0-.55.45-1 1-1h1c.55 0 1 .45 1 1v1c0 .55-.45 1-1 1ZM3.27 14.172h1c.55 0 1-.45 1-1v-1c0-.55-.45-1-1-1h-1c-.55 0-1 .45-1 1v1c0 .55.45 1 1 1ZM20.73 14.172h-1c-.55 0-1-.45-1-1v-1c0-.55.45-1 1-1h1c.55 0 1 .45 1 1v1c0 .55-.45 1-1 1ZM3.75 11.17c0-1.97.74-3.76 1.96-5.12M10.52 3.559a8.2 8.2 0 0 0-1.85.45" stroke="#292D32" stroke-width="1.5" stroke-linecap="round" stroke-linejoin="round"/><path d="M20.25 11.169c0-3.92-2.94-7.14-6.73-7.61" stroke="#292D32" stroke-width="1.5" stroke-linecap="round" stroke-linejoin="round"/></svg>