<svg width="24" height="24" fill="none" xmlns="http://www.w3.org/2000/svg"><path d="M20.42 9c-.14-.01-.32-.02-.52-.02-.39 0-.7.31-.7.7v4.65c0 .39.31.7.7.7.2 0 .37-.01.54-.02C22 14.83 22 13.73 22 12.93v-1.86c0-.8 0-1.9-1.58-2.07ZM12.93 4.79H7.35C3.25 4.79 2 6.04 2 10.14v3.72c0 4.1 1.25 5.35 5.35 5.35h5.58c4.1 0 5.35-1.25 5.35-5.35v-3.72c0-4.1-1.25-5.35-5.35-5.35ZM7.1 14.18c-.08.34-.39.57-.73.57-.06 0-.12-.01-.18-.02-.4-.1-.65-.51-.55-.91.3-1.19.3-2.45 0-3.64-.1-.4.14-.81.55-.91.41-.1.81.15.91.55.36 1.43.36 2.93 0 4.36Zm3.5 0c-.08.34-.39.57-.73.57-.06 0-.12-.01-.18-.02-.4-.1-.65-.51-.55-.91.3-1.19.3-2.45 0-3.64-.1-.4.14-.81.55-.91.4-.1.81.14.91.55.36 1.43.36 2.93 0 4.36Zm3.5 0c-.08.34-.39.57-.73.57-.06 0-.12-.01-.18-.02-.4-.1-.65-.51-.55-.91.3-1.19.3-2.45 0-3.64-.1-.4.14-.81.55-.91.4-.1.81.14.91.55.36 1.43.36 2.93 0 4.36Z" fill="#292D32"/></svg>