<svg width="24" height="24" fill="none" xmlns="http://www.w3.org/2000/svg"><path d="m8.82 4.901-1.28-2.12c-.48-.78-1.43-1.22-2.32-.96-1.34.4-1.86 1.91-1.19 3.02l1.32 2.17c.15.23.46.31.69.17l2.61-1.59c.24-.15.32-.46.17-.69ZM19.74 14.21l-2.81-3.8c-.98-1.32-2.68-1.94-4.28-1.51 0-.01-.01-.01-.01-.02l-1.66-2.73c-.3-.47-.92-.62-1.39-.33L6.12 7.93c-.48.28-.63.91-.34 1.39l1.65 2.73s0 .01.01.01a4.046 4.046 0 0 0-.61 4.51l2.08 4.24c.64 1.31 2.15 1.81 3.43 1.15.1-.05.13-.17.07-.27l-1.56-2.58a.765.765 0 0 1 .25-1.05c.36-.21.82-.1 1.05.25l1.57 2.58c.06.09.18.12.27.07l.96-.58c.09-.06.12-.18.07-.27l-1.57-2.58c-.21-.36-.1-.82.25-1.05.37-.21.83-.1 1.05.25l1.57 2.58c.06.09.18.12.27.07l.96-.58c.09-.06.12-.18.07-.27l-1.57-2.58c-.21-.36-.1-.82.25-1.05.37-.21.83-.1 1.05.25l1.58 2.57c.06.09.18.12.27.06 1.16-.83 1.42-2.39.54-3.57Z" fill="#292D32"/></svg>