<svg width="24" height="24" fill="none" xmlns="http://www.w3.org/2000/svg"><path d="M6 5.121c-.41 0-.75-.34-.75-.75v-1.75c0-.41.34-.75.75-.75s.75.34.75.75v1.75c0 .42-.34.75-.75.75ZM10 5.121c-.41 0-.75-.34-.75-.75v-1.75c0-.41.34-.75.75-.75s.75.34.75.75v1.75c0 .42-.34.75-.75.75ZM14 5.121c-.41 0-.75-.34-.75-.75v-1.75c0-.41.34-.75.75-.75s.75.34.75.75v1.75c0 .42-.34.75-.75.75ZM22.25 13.252c0-2.62-2.03-4.74-4.59-4.96-.74-1.21-2.06-2.03-3.58-2.03H6.71c-2.32 0-4.21 1.89-4.21 4.21v.53h15.79v-.53c0-.19-.03-.38-.06-.56 1.45.43 2.52 1.75 2.52 3.34 0 1.57-1.04 2.88-2.46 3.32v-4.57H2.5v5.79c0 2.32 1.89 4.21 4.21 4.21h7.37c2.2 0 3.99-1.7 4.17-3.86 2.28-.46 4-2.48 4-4.89Z" fill="#292D32"/></svg>