<svg width="24" height="24" fill="none" xmlns="http://www.w3.org/2000/svg"><path d="M20.95 4.129 4.13 20.949c.95.69 2.19 1.05 3.68 1.05h8.38c3.64 0 5.81-2.17 5.81-5.81v-8.38c0-1.49-.36-2.73-1.05-3.68Zm-2.45 12.12h-1.69v1.75c0 .41-.34.75-.75.75s-.75-.34-.75-.75v-1.75H13.5c-.41 0-.75-.34-.75-.75s.34-.75.75-.75h1.81v-1.75c0-.41.34-.75.75-.75s.75.34.75.75v1.75h1.69c.41 0 .75.34.75.75s-.34.75-.75.75ZM16.19 2H7.81C4.17 2 2 4.17 2 7.81v8.38c0 1.49.36 2.73 1.05 3.68L19.87 3.05C18.92 2.36 17.68 2 16.19 2ZM10.5 8.25h-5c-.41 0-.75-.34-.75-.75s.34-.75.75-.75h5c.41 0 .75.34.75.75s-.34.75-.75.75Z" fill="#292D32"/></svg>