<svg width="24" height="24" fill="none" xmlns="http://www.w3.org/2000/svg"><path d="M17 22H7c-.41 0-.75-.34-.75-.75s.34-.75.75-.75h10c.41 0 .75.34.75.75s-.34.75-.75.75ZM20.35 5.52l-4 2.86c-.53.38-1.29.15-1.52-.46l-1.89-5.04c-.32-.87-1.55-.87-1.87 0l-1.9 5.03c-.23.62-.98.85-1.51.46l-4-2.86c-.8-.56-1.86.23-1.53 1.16l4.16 11.65c.14.4.52.66.94.66h9.53c.42 0 .8-.27.94-.66l4.16-11.65c.34-.93-.72-1.72-1.51-1.15Zm-5.85 9.23h-5c-.41 0-.75-.34-.75-.75s.34-.75.75-.75h5c.41 0 .75.34.75.75s-.34.75-.75.75Z" fill="#292D32"/></svg>