<svg width="24" height="24" fill="none" xmlns="http://www.w3.org/2000/svg"><path d="M16.88 10c-2.62 0-4.75 2.13-4.75 4.75 0 .89.25 1.73.69 2.45.82 1.38 2.33 2.3 4.06 2.3 1.73 0 3.24-.93 4.06-2.3.44-.71.69-1.56.69-2.45 0-2.62-2.12-4.75-4.75-4.75Zm1.78 5.48h-1.03v1.07c0 .41-.34.75-.75.75s-.75-.34-.75-.75v-1.07h-1.02c-.41 0-.75-.34-.75-.75s.34-.75.75-.75h1.02V13c0-.41.34-.75.75-.75s.75.34.75.75v.98h1.03c.41 0 .75.34.75.75s-.34.75-.75.75Z" fill="#292D32"/><path d="M20.58 4.02v2.22c0 .81-.5 1.82-1 2.33l-.18.16c-.14.13-.35.16-.53.1-.2-.07-.4-.12-.6-.17-.44-.11-.91-.16-1.39-.16-3.45 0-6.25 2.8-6.25 6.25 0 1.14.31 2.26.9 3.22.5.84 1.2 1.54 1.96 2.01.23.15.32.47.12.65-.07.06-.14.11-.21.16l-1.4.91c-1.3.81-3.09-.1-3.09-1.72v-5.35c0-.71-.4-1.62-.8-2.12L4.32 8.47c-.5-.51-.9-1.42-.9-2.02V4.12c0-1.21.9-2.12 1.99-2.12h13.18c1.09 0 1.99.91 1.99 2.02Z" fill="#292D32"/></svg>