<svg width="24" height="24" fill="none" xmlns="http://www.w3.org/2000/svg"><path d="m20.72 18.24-.94-.94c.49-.74.78-1.63.78-2.59 0-2.6-2.11-4.71-4.71-4.71s-4.71 2.11-4.71 4.71 2.11 4.71 4.71 4.71c.96 0 1.84-.29 2.59-.78l.94.94c.19.19.43.28.68.28.25 0 .49-.09.68-.28.35-.36.35-.96-.02-1.34Z" fill="#292D32"/><path d="M19.58 4.02v2.22c0 .81-.5 1.82-1 2.33l-.18.16c-.14.13-.35.16-.53.1-.2-.07-.4-.12-.6-.17-.44-.11-.91-.16-1.39-.16-3.45 0-6.25 2.8-6.25 6.25 0 1.14.31 2.26.9 3.22.5.84 1.2 1.54 1.96 2.01.23.15.32.47.12.65-.07.06-.14.11-.21.16l-1.4.91c-1.3.81-3.09-.1-3.09-1.72v-5.35c0-.71-.4-1.62-.8-2.12L3.32 8.47c-.5-.51-.9-1.42-.9-2.02V4.12c0-1.21.9-2.12 1.99-2.12h13.18c1.09 0 1.99.91 1.99 2.02Z" fill="#292D32"/></svg>