<svg width="24" height="24" fill="none" xmlns="http://www.w3.org/2000/svg"><path d="M17.92 10.12a4.42 4.42 0 0 0-1.04-.12c-2.62 0-4.75 2.13-4.75 4.75 0 .89.25 1.73.69 2.45.37.62.88 1.15 1.5 1.53.74.49 1.62.77 2.56.77 1.74 0 3.25-.93 4.07-2.3.44-.72.68-1.56.68-2.45a4.74 4.74 0 0 0-3.71-4.63Zm1.33 4.01-2.54 2.34c-.14.13-.33.2-.51.2-.19 0-.38-.07-.53-.22l-1.17-1.17a.754.754 0 0 1 0-1.06c.29-.29.77-.29 1.06 0l.66.66 2.01-1.85c.31-.28.78-.26 1.06.04.28.31.26.78-.04 1.06Z" fill="#292D32"/><path d="M20.58 4.02v2.22c0 .81-.5 1.82-1 2.33l-.18.16c-.14.13-.35.16-.53.1-.2-.07-.4-.12-.6-.17-.44-.11-.91-.16-1.39-.16-3.45 0-6.25 2.8-6.25 6.25 0 1.14.31 2.26.9 3.22.5.84 1.2 1.54 1.96 2.01.23.15.32.47.12.65-.07.06-.14.11-.21.16l-1.4.91c-1.3.81-3.09-.1-3.09-1.72v-5.35c0-.71-.4-1.62-.8-2.12L4.32 8.47c-.5-.51-.9-1.42-.9-2.02V4.12c0-1.21.9-2.12 1.99-2.12h13.18c1.09 0 1.99.91 1.99 2.02Z" fill="#292D32"/></svg>