<svg width="24" height="24" fill="none" xmlns="http://www.w3.org/2000/svg"><path d="m20.86 8.37-6.93-5.54c-1.07-.86-2.8-.86-3.86-.01L3.14 8.37c-.78.62-1.28 1.93-1.11 2.91l1.33 7.96c.24 1.42 1.6 2.57 3.04 2.57h11.2c1.43 0 2.8-1.16 3.04-2.57l1.33-7.96c.16-.98-.34-2.29-1.11-2.91Zm-8.15 8.83c-.2.2-.45.3-.71.3-.26 0-.51-.1-.71-.29a.996.996 0 0 1 0-1.41c.39-.39 1.03-.39 1.42 0 .39.38.39 1.01 0 1.4Zm1.95-2.3a.75.75 0 0 1-1.06.02c-.97-.93-2.23-.93-3.21 0-.3.29-.77.28-1.06-.02-.29-.3-.28-.77.02-1.06 1.55-1.49 3.72-1.49 5.28 0 .31.28.32.76.03 1.06Zm2.12-2.12c-.15.15-.34.23-.54.23-.19 0-.38-.07-.52-.21a5.9 5.9 0 0 0-1.56-1.1c-1.4-.67-2.93-.67-4.32 0-.56.27-1.08.64-1.56 1.1-.29.29-.77.29-1.06-.01-.29-.3-.28-.77.01-1.06.59-.58 1.25-1.04 1.96-1.38 1.81-.87 3.81-.87 5.61 0 .71.34 1.37.8 1.96 1.38.3.28.31.76.02 1.05Z" fill="#292D32"/></svg>