<svg width="24" height="24" fill="none" xmlns="http://www.w3.org/2000/svg"><path d="M18 15.998v3c0 1.65-1.35 3-3 3H9c-1.65 0-3-1.35-3-3v-4.01c0-.55.45-1 1.01-1l2.88.01c.69 0 1.37.15 2 .45.69.32 1.42.55 2.19.55H17c.55 0 1 .45 1 1ZM17.41 9.41l-2.12-2.12a.984.984 0 0 1-.29-.7V4.91A1.498 1.498 0 0 0 14.5 2h-5A1.498 1.498 0 0 0 9 4.91v1.68c0 .26-.1.51-.29.7L6.59 9.41c-.32.32-.59.97-.59 1.42v.65c0 .55.44 1 .99 1l2.91.02c.98 0 1.97.24 2.85.7.42.22.9.3 1.37.3H17c.55 0 1-.45 1-1v-1.67c0-.45-.27-1.1-.59-1.42Z" fill="#292D32"/></svg>