<svg width="24" height="24" fill="none" xmlns="http://www.w3.org/2000/svg"><path d="m19.53 5.53-14 14c-.02.02-.03.03-.05.04-.38-.32-.73-.67-1.05-1.05A9.903 9.903 0 0 1 2 12C2 6.48 6.48 2 12 2c2.49 0 4.77.91 6.52 2.43.38.32.73.67 1.05 1.05-.01.02-.02.03-.04.05ZM22 12c0 5.49-4.51 10-10 10-1.5 0-2.92-.33-4.2-.93-.62-.29-.74-1.12-.26-1.61L19.46 7.54c.48-.48 1.32-.36 1.61.26.6 1.27.93 2.7.93 4.2Z" fill="#292D32"/><path d="M21.77 2.229c-.3-.3-.79-.3-1.09 0L2.23 20.689c-.3.3-.3.79 0 1.09a.758.758 0 0 0 1.08-.01l18.46-18.46c.31-.3.31-.78 0-1.08Z" fill="#292D32"/></svg>