<svg width="24" height="24" fill="none" xmlns="http://www.w3.org/2000/svg"><path d="m20.86 8.561-6.93-5.54c-1.07-.86-2.8-.86-3.86-.01l-6.93 5.55c-.78.62-1.28 1.93-1.11 2.91l1.33 7.96c.24 1.42 1.6 2.57 3.04 2.57h11.2c1.43 0 2.8-1.16 3.04-2.57l1.33-7.96c.16-.98-.34-2.29-1.11-2.91Zm-11.48 8.82c-.56 0-1-.45-1-1s.45-1 1-1 1 .45 1 1-.45 1-1 1Zm3.01-.26h-.02c-.41 0-.74-.33-.75-.73-.03-1.35-.92-2.24-2.27-2.27a.75.75 0 0 1-.73-.77c.01-.41.34-.73.75-.73h.02c2.15.05 3.69 1.58 3.73 3.73.01.42-.31.77-.73.77Zm2.99 0c-.42 0-.75-.33-.76-.74-.01-.66-.12-1.29-.32-1.88-.51-1.46-1.6-2.54-3.06-3.06-.59-.21-1.22-.32-1.88-.32-.41 0-.75-.34-.74-.76 0-.41.34-.74.75-.74h.01c.83.01 1.62.15 2.36.41 1.89.67 3.3 2.08 3.97 3.97.26.74.4 1.54.41 2.36.01.42-.32.76-.74.76Z" fill="#292D32"/></svg>