<svg width="24" height="24" fill="none" xmlns="http://www.w3.org/2000/svg"><path d="M19.14 20.25c-.19 0-.38-.07-.53-.21-.3-.29-.3-.76-.01-1.06a9.188 9.188 0 0 0 2.65-6.48c0-5.1-4.15-9.25-9.25-9.25S2.75 7.4 2.75 12.5c0 2.43.93 4.72 2.63 6.46.29.3.28.77-.01 1.06-.3.29-.77.28-1.06-.01a10.709 10.709 0 0 1-3.06-7.51C1.25 6.57 6.07 1.75 12 1.75S22.75 6.57 22.75 12.5c0 2.83-1.09 5.51-3.08 7.53-.14.15-.34.22-.53.22Z" fill="#292D32"/><path d="M12 21.998a3.88 3.88 0 1 0 0-7.76 3.88 3.88 0 0 0 0 7.76ZM16 8.5c-1.1 0-2 .9-2 2v.75c0 .69.56 1.25 1.25 1.25H16c1.1 0 2-.9 2-2s-.9-2-2-2Z" fill="#292D32"/></svg>