<svg width="24" height="24" fill="none" xmlns="http://www.w3.org/2000/svg"><path d="M16.19 2H7.81C4.17 2 2 4.17 2 7.81v8.37C2 19.83 4.17 22 7.81 22h8.37c3.64 0 5.81-2.17 5.81-5.81V7.81C22 4.17 19.83 2 16.19 2Zm-.43 13.76c-.06.85-.13 1.91-2.05 1.91h-3.42c-1.91 0-1.99-1.06-2.05-1.91l-.31-3.96a.94.94 0 0 1 .24-.7.9.9 0 0 1 .67-.29h6.32c.25 0 .5.11.67.29.17.19.26.44.24.69l-.31 3.97Zm1.04-5.94h-.06c-1.04-.1-1.99-.17-2.9-.21a40.81 40.81 0 0 0-3.67-.03c-.6.03-1.21.07-1.81.13l-1.09.11H7.2c-.35 0-.65-.26-.68-.62-.04-.37.24-.71.61-.74l1.09-.11c.43-.04.85-.07 1.28-.09l.08-.47c.08-.5.23-1.46 1.73-1.46h1.39c1.51 0 1.66.99 1.73 1.47l.08.48c.75.04 1.52.1 2.36.18.38.04.65.37.62.75-.04.35-.34.61-.69.61Z" fill="#292D32"/></svg>