<svg width="24" height="24" fill="none" xmlns="http://www.w3.org/2000/svg"><path d="m19.51 5.85-5.94-3.43c-.97-.56-2.17-.56-3.15 0L4.49 5.85a3.15 3.15 0 0 0-1.57 2.73v6.84c0 1.12.6 2.16 1.57 2.73l5.94 3.43c.97.56 2.17.56 3.15 0l5.94-3.43a3.15 3.15 0 0 0 1.57-2.73V8.58a3.192 3.192 0 0 0-1.58-2.73Zm-8.26 1.9c0-.41.34-.75.75-.75s.75.34.75.75V13c0 .41-.34.75-.75.75s-.75-.34-.75-.75V7.75Zm1.67 8.88c-.05.12-.12.23-.21.33a.99.99 0 0 1-1.09.21c-.13-.05-.23-.12-.33-.21-.09-.1-.16-.21-.22-.33a.986.986 0 0 1-.07-.38c0-.26.1-.52.29-.71.1-.09.2-.16.33-.21.37-.16.81-.07 1.09.21.09.1.16.2.21.33.05.12.08.25.08.38s-.03.26-.08.38Z" fill="#292D32"/></svg>