<svg width="24" height="24" fill="none" xmlns="http://www.w3.org/2000/svg"><path d="M16.19 2H7.81C4.17 2 2 4.17 2 7.81v8.37C2 19.83 4.17 22 7.81 22h8.37c3.64 0 5.81-2.17 5.81-5.81V7.81C22 4.17 19.83 2 16.19 2Zm-1.4 14.6c-.15.19-.37.29-.59.29-.16 0-.32-.05-.46-.16-1.06-.82-2.43-.82-3.49 0-.33.25-.8.19-1.05-.13-.25-.33-.19-.8.13-1.05a4.296 4.296 0 0 1 5.32 0c.34.25.4.72.14 1.05ZM17 13.51c-.15.19-.37.29-.59.29-.16 0-.32-.05-.46-.16-2.4-1.85-5.49-1.85-7.89 0a.751.751 0 1 1-.93-1.18c2.95-2.28 6.77-2.28 9.72 0 .34.25.4.72.15 1.05Zm1.59-3.09c-.15.19-.37.29-.59.29-.16 0-.32-.05-.46-.16-3.37-2.6-7.72-2.6-11.08 0-.33.25-.8.19-1.05-.13-.25-.33-.19-.8.13-1.05 3.92-3.03 8.99-3.03 12.92 0 .33.25.39.72.13 1.05Z" fill="#292D32"/></svg>