<svg xmlns="http://www.w3.org/2000/svg" width="24" height="24" fill="none" viewBox="0 0 24 24">
  <path fill="#000" d="M20.89 10.53c-.41 0-.75-.34-.75-.75V6.91L12 2.84 3.86 6.91v2.87c0 .41-.34.75-.75.75s-.75-.34-.75-.75V6.45c0-.28.16-.54.42-.67l8.89-4.44c.21-.11.46-.11.67 0l8.89 4.44c.25.13.42.39.42.67v3.33a.77.77 0 01-.76.75zM12 22.75a.73.73 0 01-.33-.08l-8.89-4.44a.77.77 0 01-.42-.67v-3.33c0-.41.34-.75.75-.75s.75.34.75.75v2.87L12 21.17l8.14-4.07v-2.87c0-.41.34-.75.75-.75s.75.34.75.75v3.33c0 .28-.16.54-.42.67l-8.89 4.44a.73.73 0 01-.33.08z"/>
  <path fill="#000" d="M16.44 11.999c0-2.45-1.99-4.44-4.44-4.44s-4.44 1.99-4.44 4.44c0 2.2 1.61 4.02 3.71 4.37 0 .03-.01.05-.01.07v5.56c0 .41.34.75.75.75s.75-.34.75-.75v-5.56c0-.03-.01-.05-.01-.07a4.43 4.43 0 003.69-4.37z"/>
</svg>
