<svg xmlns="http://www.w3.org/2000/svg" width="24" height="24" fill="none" viewBox="0 0 24 24">
  <path fill="#000" fill-rule="evenodd" d="M19.1 19.16c.59-.9.81-1.36 1.26-2.37-3.32-1.26-3.85-5.99-.57-7.8-1-1.26-2.41-1.99-3.74-1.99-.96 0-1.62.25-2.21.48-.5.19-.95.36-1.51.36-.6 0-1.13-.19-1.69-.39C10.03 7.23 9.39 7 8.59 7 7.1 7 5.51 7.91 4.5 9.47c-1.42 2.2-1.17 6.32 1.12 9.84.82 1.26 1.92 2.67 3.35 2.69.6.01.99-.17 1.42-.36.49-.22 1.02-.46 1.95-.46.93-.01 1.45.24 1.94.46.42.19.8.37 1.39.36 1.45-.02 2.61-1.58 3.43-2.84zM15.84 2c.16 1.1-.29 2.19-.88 2.95-.63.82-1.73 1.46-2.79 1.42-.19-1.06.3-2.15.9-2.88.67-.8 1.8-1.42 2.77-1.49z" clip-rule="evenodd"/>
</svg>
