<svg xmlns="http://www.w3.org/2000/svg" width="24" height="24" fill="none" viewBox="0 0 24 24">
  <path fill="#000" d="M12 2C6.48 2 2 6.48 2 12s4.48 10 10 10 10-4.48 10-10S17.52 2 12 2zm-3.67 8.66l2.5-5a.76.76 0 01.67-.41h1c.28 0 .54.16.67.41l2.5 5c.19.37.04.82-.34 1.01a.8.8 0 01-.33.08c-.27 0-.54-.15-.67-.41l-2.29-4.59h-.07l-2.29 4.59a.757.757 0 11-1.35-.68zm9.06 4.98l-5 3c-.12.07-.25.11-.39.11s-.27-.04-.39-.11l-5-3a.755.755 0 01-.29-.98l1-2c.19-.37.64-.52 1.01-.34.37.19.52.64.34 1.01l-.69 1.38L12 17.12l4.02-2.41-.69-1.38a.745.745 0 01.34-1.01c.37-.18.82-.04 1.01.34l1 2c.17.35.04.78-.29.98z"/>
</svg>
