<svg xmlns="http://www.w3.org/2000/svg" width="24" height="24" fill="none" viewBox="0 0 24 24">
  <path fill="#000" d="M11.4 2.35L6.25 7.5c-.2.2-.2.51 0 .71l1.73 1.73c.2.2.51.2.71 0l5.15-5.15c.2-.2.2-.51 0-.71l-1.73-1.73a.513.513 0 00-.71 0zM15.3 6.26l-9.05 9.05c-.2.2-.2.51 0 .71l1.73 1.73c.2.2.51.2.71 0l9.05-9.05c.2-.2.2-.51 0-.71l-1.73-1.73c-.19-.2-.51-.2-.71 0zM19.21 10.162l-9.05 9.05c-.2.2-.2.51 0 .71l1.73 1.73c.2.2.51.2.71 0l9.05-9.05c.2-.2.2-.51 0-.71l-1.73-1.73c-.2-.2-.52-.2-.71 0zM4.091 13.84l-1.73-1.73c-.2-.2-.2-.51 0-.71l1.73-1.73c.2-.2.51-.2.71 0l1.73 1.73c.2.2.2.51 0 .71l-1.73 1.73c-.2.2-.52.2-.71 0z"/>
</svg>
