<svg xmlns="http://www.w3.org/2000/svg" width="24" height="24" fill="none" viewBox="0 0 24 24">
  <path fill="#000" d="M11.65 2.35L6.36 7.64c-.2.2-.2.51 0 .71l1.29 1.29c.2.2.51.2.71 0l3.29-3.29c.2-.2.51-.2.71 0l3.29 3.29c.2.2.51.2.71 0l1.29-1.29c.2-.2.2-.51 0-.71l-5.29-5.29a.513.513 0 00-.71 0zM11.65 21.65l-5.29-5.29c-.2-.2-.2-.51 0-.71l1.29-1.29c.2-.2.51-.2.71 0l3.29 3.29c.2.2.51.2.71 0l3.29-3.29c.2-.2.51-.2.71 0l1.29 1.29c.2.2.2.51 0 .71l-5.29 5.29c-.2.19-.52.19-.71 0zM20.1 10.1l1.54 1.54c.2.2.2.51 0 .71l-1.54 1.54c-.2.2-.51.2-.71 0l-1.54-1.54c-.2-.2-.2-.51 0-.71l1.54-1.54c.2-.19.52-.19.71 0zM4.6 10.1l1.54 1.54c.2.2.2.51 0 .71L4.6 13.89c-.2.2-.51.2-.71 0l-1.54-1.54c-.2-.2-.2-.51 0-.71l1.54-1.54c.2-.19.52-.19.71 0z"/>
  <path fill="#000" d="M12.35 9.88l1.77 1.77c.2.2.2.51 0 .71l-1.77 1.77c-.2.2-.51.2-.71 0l-1.77-1.77c-.2-.2-.2-.51 0-.71l1.77-1.77c.2-.2.52-.2.71 0z"/>
</svg>
