<svg xmlns="http://www.w3.org/2000/svg" width="24" height="24" fill="none" viewBox="0 0 24 24">
  <path fill="#000" d="M14 13.25h-4c-.41 0-.75.34-.75.75s.34.75.75.75h4c.41 0 .75-.34.75-.75s-.34-.75-.75-.75zM10 10.75h2c.41 0 .75-.34.75-.75s-.34-.75-.75-.75h-2c-.41 0-.75.34-.75.75s.34.75.75.75z"/>
  <path fill="#000" d="M16.19 2H7.82C4.18 2 2.01 4.17 2.01 7.81v8.37c0 3.64 2.17 5.81 5.81 5.81h8.37c3.64 0 5.81-2.17 5.81-5.81V7.81C22 4.17 19.83 2 16.19 2zM18 15c0 2-1 3-3 3H9c-2 0-3-1-3-3V9c0-2 1-3 3-3h4c2 0 3 1 3 3v1c0 .55.45 1 1 1s1 .45 1 1v3z"/>
</svg>
