<svg xmlns="http://www.w3.org/2000/svg" width="24" height="24" fill="none" viewBox="0 0 24 24">
  <path fill="#000" d="M12.67 12.75H10.5v2.67h2.17c.74 0 1.33-.6 1.33-1.33 0-.73-.6-1.34-1.33-1.34zM12.67 8.578H10.5v2.67h2.17c.74 0 1.33-.6 1.33-1.33 0-.73-.6-1.34-1.33-1.34z"/>
  <path fill="#000" d="M23 11c-1.19 0-2.25-.76-2.63-1.9-.24-.73-.37-1.5-.37-2.27V6c0-1.66-1.34-3-3-3H7C5.34 3 4 4.34 4 6v.84c0 .77-.12 1.53-.37 2.27A2.785 2.785 0 011 11.01v2c1.19 0 2.25.76 2.63 1.9.24.73.37 1.5.37 2.26V18c0 1.66 1.34 3 3 3h10c1.66 0 3-1.34 3-3v-.84c0-.77.12-1.53.37-2.26.38-1.13 1.44-1.9 2.63-1.9v-2zm-7.5 3.08c0 1.56-1.27 2.83-2.83 2.83H9.75c-.41 0-.75-.34-.75-.75V7.83c0-.41.34-.75.75-.75h2.92c1.56 0 2.83 1.27 2.83 2.83 0 .82-.35 1.57-.92 2.08.57.53.92 1.27.92 2.09z"/>
</svg>
