<svg xmlns="http://www.w3.org/2000/svg" width="24" height="24" fill="none" viewBox="0 0 24 24">
  <path fill="#000" d="M17.148 10a1 1 0 100-2 1 1 0 000 2zM17.148 16a1 1 0 100-2 1 1 0 000 2zM19.75 13a1 1 0 100-2 1 1 0 000 2zM6.799 10a1 1 0 100-2 1 1 0 000 2zM6.799 16a1 1 0 100-2 1 1 0 000 2zM4.2 13a1 1 0 100-2 1 1 0 000 2zM15.898 6.2a1 1 0 100-2 1 1 0 000 2zM8.1 6.2a1 1 0 100-2 1 1 0 000 2zM12.049 7a1 1 0 100-2 1 1 0 000 2zM15.898 20a1 1 0 100-2 1 1 0 000 2zM8.1 20a1 1 0 100-2 1 1 0 000 2zM12.049 19.2a1 1 0 100-2 1 1 0 000 2zM13.75 10.25a1.25 1.25 0 100-2.5 1.25 1.25 0 000 2.5zM10.25 10.25a1.25 1.25 0 100-2.5 1.25 1.25 0 000 2.5zM15.5 13.25a1.25 1.25 0 100-2.5 1.25 1.25 0 000 2.5zM8.5 13.25a1.25 1.25 0 100-2.5 1.25 1.25 0 000 2.5zM10.25 16.25a1.25 1.25 0 100-2.5 1.25 1.25 0 000 2.5zM13.75 16.25a1.25 1.25 0 100-2.5 1.25 1.25 0 000 2.5z"/>
  <g>
    <path fill="#000" d="M12 3.33c-.49 0-.88-.39-.88-.88s.39-.88.88-.88.88.39.88.88-.39.88-.88.88z"/>
  </g>
  <g>
    <path fill="#000" d="M17.25 3.602c-.42 0-.76-.34-.76-.75s.34-.75.75-.75.76.34.76.75-.33.75-.75.75z"/>
  </g>
  <g>
    <path fill="#000" d="M6.75 3.602a.749.749 0 110-1.5h.01c.41 0 .75.34.75.75s-.34.75-.76.75z"/>
  </g>
  <g>
    <path fill="#000" d="M12 22.381c-.49 0-.88-.39-.88-.88s.39-.88.88-.88.88.39.88.88-.39.88-.88.88z"/>
  </g>
  <g>
    <path fill="#000" d="M17.25 21.852c-.42 0-.76-.34-.76-.75s.34-.75.75-.75.76.34.76.75-.33.75-.75.75z"/>
  </g>
  <g>
    <path fill="#000" d="M6.75 21.852a.749.749 0 110-1.5h.01c.41 0 .75.34.75.75s-.34.75-.76.75z"/>
  </g>
  <g>
    <path fill="#000" d="M1.55 12.881a.88.88 0 01-.88-.87v-.01c0-.48.39-.88.88-.88s.88.39.88.88-.4.88-.88.88z"/>
  </g>
  <g>
    <path fill="#000" d="M3.75 17.748c-.41 0-.75-.33-.75-.75v-.01c0-.41.34-.75.75-.75s.75.34.75.75-.34.76-.75.76z"/>
  </g>
  <g>
    <path fill="#000" d="M3.75 7.762c-.41 0-.75-.34-.75-.75s.34-.75.75-.75.75.33.75.74v.01c0 .41-.34.75-.75.75z"/>
  </g>
  <g>
    <path fill="#000" d="M22.5 12.881a.88.88 0 01-.88-.87v-.01a.881.881 0 011.76 0c0 .49-.4.88-.88.88z"/>
  </g>
  <g>
    <path fill="#000" d="M20.3 17.748c-.41 0-.75-.33-.75-.75v-.01c0-.41.34-.75.75-.75s.75.34.75.75-.34.76-.75.76z"/>
  </g>
  <g>
    <path fill="#000" d="M20.3 7.762c-.41 0-.75-.34-.75-.75s.34-.75.75-.75.75.33.75.75v.01c0 .4-.34.74-.75.74z"/>
  </g>
</svg>
