<svg xmlns="http://www.w3.org/2000/svg" width="24" height="24" fill="none" viewBox="0 0 24 24">
  <path fill="#000" d="M12 2C6.48 2 2 6.48 2 12s4.48 10 10 10 10-4.48 10-10S17.52 2 12 2zm4.93 13.74A6.133 6.133 0 0112 18.19c-3.41 0-6.19-2.78-6.19-6.19 0-3.41 2.78-6.19 6.19-6.19 1.35 0 2.64.43 3.72 1.24a.75.75 0 01-.9 1.2c-.82-.62-1.79-.94-2.82-.94-2.58 0-4.69 2.1-4.69 4.69a4.69 4.69 0 008.43 2.83.749.749 0 111.19.91zm.49-4.4c-.65 0-1.17-.52-1.17-1.17 0-.65.52-1.17 1.17-1.17.65 0 1.17.52 1.17 1.17 0 .65-.52 1.17-1.17 1.17z"/>
</svg>
