<svg xmlns="http://www.w3.org/2000/svg" width="24" height="24" fill="none" viewBox="0 0 24 24">
  <path fill="#000" d="M5.65 7.65l-2.8-2.8A.5.5 0 013.2 4h3.59c.13 0 .26.05.35.15l5 5a.5.5 0 01-.35.85H8.5C6.57 10 5 11.57 5 13.5S6.57 17 8.5 17H10l2.15 2.15a.5.5 0 01-.35.85H8.51A6.5 6.5 0 015.48 7.75l.17-.1z"/>
  <path fill="#000" d="M18.35 16.35l2.8 2.8a.5.5 0 01-.35.85h-3.59a.47.47 0 01-.35-.15l-5-5a.5.5 0 01.35-.85h3.29c1.93 0 3.5-1.57 3.5-3.5S17.43 7 15.5 7H14l-2.15-2.15A.5.5 0 0112.2 4h3.29a6.5 6.5 0 013.03 12.25l-.17.1z"/>
</svg>
