<svg xmlns="http://www.w3.org/2000/svg" width="24" height="24" fill="none" viewBox="0 0 24 24">
  <path fill="#000" fill-rule="evenodd" d="M15.88 20.92c.03.16-.06.33-.21.39-1.13.45-2.37.69-3.65.69-2.21 0-4.25-.71-5.9-1.93-.14-.1-.18-.3-.09-.45.55-.98 2.7-4.13 7.45-5.89.18-.07.38.02.44.2 1.19 3.19 1.75 5.89 1.96 6.99zM21.82 13.888a9.89 9.89 0 01-3.77 6.06c-.21.16-.51.04-.56-.21-.21-1.08-.72-3.41-1.7-6.18-.07-.21.07-.44.29-.47 2.49-.3 4.67.18 5.49.4.17.06.28.23.25.4zM21.59 11.819c-1.02-.18-3.62-.56-6.28-.27-.16.02-.3-.07-.37-.22-.04-.09-.07-.18-.11-.27-.16-.37-.33-.75-.5-1.12-.09-.18 0-.4.18-.48 2.8-1.21 4.36-2.77 4.97-3.47.15-.17.41-.16.55.02a9.896 9.896 0 011.97 5.42c.01.25-.19.43-.41.39zM18.44 4.792c-.52.63-1.98 2.13-4.75 3.23a.35.35 0 01-.44-.16 53.586 53.586 0 00-3.27-5.15c-.15-.21-.03-.51.22-.55.58-.1 1.19-.15 1.81-.15 2.42 0 4.65.86 6.38 2.3.15.11.17.33.05.48zM11.02 8.84c-3.79.95-7.14 1.08-8.36 1.1-.23 0-.4-.22-.34-.44.72-2.8 2.64-5.14 5.17-6.43.15-.08.34-.03.44.11.52.72 1.93 2.75 3.31 5.14.11.2.01.46-.22.52zM12.92 11.599c.09.19-.02.42-.22.49-4.43 1.43-7.08 4.98-7.88 6.2-.13.2-.41.21-.56.03-1.4-1.72-2.25-3.69-2.25-6.08v-.18c0-.2.16-.36.36-.35 1.26.05 5.37-.12 9.64-1.35.16-.05.34.03.41.18.17.35.34.7.5 1.06z" clip-rule="evenodd"/>
</svg>
