<svg xmlns="http://www.w3.org/2000/svg" width="24" height="24" fill="none" viewBox="0 0 24 24">
  <path fill="#000" d="M12 6.001l-5.56 4-3.25-2.2a.995.995 0 01-.02-1.64L7 3.401c.34-.24.8-.25 1.14-.02L12 6.001zM20.81 7.799l-3.25 2.2-5.56-4 3.86-2.61c.35-.23.8-.23 1.14.02l3.83 2.76c.57.4.56 1.24-.02 1.63zM12 14l-4.44 3L5 15.16l-1.84-1.32c-.56-.41-.55-1.25.02-1.64L6.43 10 12 14z"/>
  <path fill="#000" d="M20.81 12.2c.58.39.59 1.23.02 1.64l-1.84 1.32L16.43 17l-4.44-3 5.56-4 3.26 2.2z"/>
  <path fill="#000" d="M18.68 17.338c.13-.1.32 0 .32.16v.73c0 .39-.23.74-.58.91l-6 2.77c-.27.12-.57.12-.84 0l-6-2.77c-.35-.17-.58-.52-.58-.91v-.73a.2.2 0 01.32-.16l1.93 1.39c.17.12.4.13.57.01l3.9-2.64c.17-.11.39-.11.56 0l3.9 2.64c.17.12.4.11.57-.01l1.93-1.39z"/>
</svg>
