<svg xmlns="http://www.w3.org/2000/svg" width="24" height="24" fill="none" viewBox="0 0 24 24">
  <path fill="#000" d="M6.9 9.101l4.77-2.12c.21-.09.45-.09.65 0l4.77 2.12c.42.19.81-.32.52-.68l-5-6.11c-.34-.42-.9-.42-1.24 0l-5 6.11c-.28.36.11.87.53.68zM6.9 14.9l4.78 2.12c.21.09.45.09.65 0l4.78-2.12c.42-.19.81.32.52.68l-5 6.11c-.34.42-.9.42-1.24 0l-5-6.11c-.3-.36.08-.87.51-.68zM11.78 9.49l-4.13 2.06c-.37.18-.37.71 0 .89l4.13 2.06c.14.07.31.07.45 0l4.13-2.06c.37-.18.37-.71 0-.89l-4.13-2.06a.508.508 0 00-.45 0z"/>
</svg>
