<svg xmlns="http://www.w3.org/2000/svg" width="24" height="24" fill="none" viewBox="0 0 24 24">
  <path fill="#000" d="M22 16.19c0 3.64-2.17 5.81-5.81 5.81H15c-.55 0-1-.45-1-1v-5.77c0-.27.22-.5.49-.5l1.76-.03c.14-.01.26-.11.29-.25l.35-1.91a.303.303 0 00-.3-.35l-2.13.03c-.28 0-.5-.22-.51-.49l-.04-2.45c0-.16.13-.3.3-.3l2.4-.04c.17 0 .3-.13.3-.3l-.04-2.4c0-.17-.13-.3-.3-.3l-2.7.04a2.996 2.996 0 00-2.95 3.05l.05 2.75c.01.28-.21.5-.49.51l-1.2.02c-.17 0-.3.13-.3.3l.03 1.9c0 .17.13.3.3.3l1.2-.02c.28 0 .5.22.51.49l.09 5.7c.01.56-.44 1.02-1 1.02h-2.3C4.17 22 2 19.83 2 16.18V7.81C2 4.17 4.17 2 7.81 2h8.38C19.83 2 22 4.17 22 7.81v8.38z"/>
</svg>
