<svg xmlns="http://www.w3.org/2000/svg" width="24" height="24" fill="none" viewBox="0 0 24 24">
  <path fill="#000" d="M21.74 11.07a.989.989 0 00-.99-.89H13.2c-.55 0-1 .45-1 1v1.71c0 .55.45 1 1 1h4.51c-.11.92-.71 2.31-2.04 3.24-.85.59-1.98 1-3.47 1-.07 0-.13 0-.2-.01-2.55-.08-4.71-1.79-5.49-4.14A6.23 6.23 0 016.18 12c0-.69.12-1.36.32-1.98.06-.18.13-.36.21-.54.92-2.07 2.93-3.53 5.29-3.6.06-.01.13-.01.2-.01 1.43 0 2.5.47 3.25.99.39.27.91.21 1.25-.12l1.39-1.36c.44-.43.4-1.16-.1-1.52C16.4 2.69 14.46 2 12.2 2c-.07 0-.13 0-.2.01a9.96 9.96 0 00-8.73 5.5C2.59 8.87 2.2 10.39 2.2 12c0 1.61.39 3.13 1.07 4.49h.01a9.956 9.956 0 008.72 5.5c.07.01.13.01.2.01 2.7 0 4.97-.89 6.62-2.42 1.89-1.75 2.98-4.31 2.98-7.36 0-.43-.02-.8-.06-1.15z"/>
</svg>
