<svg xmlns="http://www.w3.org/2000/svg" width="24" height="24" fill="none" viewBox="0 0 24 24">
  <path fill="#000" d="M5.94 16.771l-1.66 2.82c-.12.21-.43.21-.56 0l-1.69-2.82c-.13-.22.03-.49.28-.49h3.35c.25 0 .4.28.28.49zM11.69 8.408l-3.95 6.47c-.09.15-.25.23-.42.23H2.25c-.38 0-.62-.4-.43-.72l6.46-10.66c.19-.31.66-.32.85 0l2.56 4.21c.09.14.09.32 0 .47zM13.721 14.49h-3.48c-.2 0-.33-.22-.23-.4l1.74-2.95c.1-.17.35-.17.45 0l1.74 2.95c.11.18-.02.4-.22.4zM13.661 3.4l-1.45 2.47c-.1.17-.36.17-.46 0l-1.45-2.47c-.1-.18.02-.4.23-.4h2.9c.21 0 .33.22.23.4zM22.17 14.368c.2.33-.05.75-.43.75h-4.87c-.17 0-.32-.09-.41-.23l-3.81-6.47a.46.46 0 010-.48l2.47-4.21c.18-.31.64-.32.82 0 1.22 2.11 4.95 8.45 6.23 10.64zM21.93 16.77c-.55.93-1.14 1.93-1.68 2.84-.13.22-.44.21-.57-.01l-1.66-2.83c-.13-.22.03-.5.29-.5h3.33c.26.01.42.28.29.5zM18.02 21H5.94c-.36 0-.58-.39-.4-.7l2.33-3.96c.08-.14.23-.23.4-.23h7.42c.16 0 .32.09.4.23l2.33 3.96c.18.31-.04.7-.4.7z"/>
</svg>
