<svg xmlns="http://www.w3.org/2000/svg" width="24" height="24" fill="none" viewBox="0 0 24 24">
  <path fill="#000" d="M10.87 14l1.93 3.33-1.92 3.33H7l-1.91-3.31L7.03 14h3.84z" opacity=".13"/>
  <path fill="#000" d="M10.54 14.078H7.12c-.18 0-.34.1-.43.25l-1.71 2.96c-.09.15-.09.35 0 .5l1.71 2.96c.09.15.25.25.43.25h3.42c.18 0 .34-.1.43-.25l1.71-2.96c.09-.15.09-.35 0-.5l-1.71-2.96a.484.484 0 00-.43-.25z"/>
  <path fill="#000" d="M22.24 11.738c.09.16.09.36 0 .52l-4.93 8.53a.414.414 0 11-.72-.41l3.29-5.7c.09-.16.09-.36 0-.52l-4.4-7.62a.513.513 0 00-.45-.26H6.22c-.19 0-.35.1-.45.26l-3.27 5.68a.45.45 0 01-.78-.45l4.92-8.52c.08-.16.26-.26.45-.26h9.79c.19 0 .35.1.45.26l4.91 8.49z"/>
  <path fill="#000" d="M18.089 14.682l-3.5 6.06c-.09.16-.26.26-.45.26h-.6a.52.52 0 01-.45-.78l1.4-2.42c.09-.16.09-.36 0-.52l-2.6-4.5a.558.558 0 00-.47-.26h-5.2c-.19 0-.35.1-.45.26l-1.4 2.42c-.2.35-.7.35-.9 0l-.3-.51a.534.534 0 010-.52l3.49-6.06c.09-.16.26-.26.45-.26h6.99c.19 0 .35.1.45.26l3.5 6.06c.12.15.12.36.04.51z"/>
</svg>
