<svg xmlns="http://www.w3.org/2000/svg" width="24" height="24" fill="none" viewBox="0 0 24 24">
  <path fill="#000" d="M19.88 2H4.12c-.6 0-1.06.52-.99 1.11l1.8 16.22c.04.4.33.74.72.85l6.08 1.74c.18.05.37.05.55 0l6.08-1.74c.39-.11.67-.45.72-.85l1.8-16.22c.06-.59-.4-1.11-1-1.11zm-3.63 14.08c-.03.3-.25.55-.54.64l-3.5 1a.761.761 0 01-.42 0l-3.5-1a.73.73 0 01-.52-.54l-.5-2c-.1-.4.14-.81.55-.91.4-.1.81.14.91.55l.4 1.58 2.88.82 2.81-.8.41-3.67H8c-.41 0-.75-.34-.75-.75s.34-.75.75-.75h7.38l.28-2.5-8.16-.02c-.41 0-.75-.34-.75-.75s.34-.75.75-.75l9 .02c.21 0 .42.09.56.25.14.16.21.37.19.58l-1 9z"/>
</svg>
