<svg xmlns="http://www.w3.org/2000/svg" width="24" height="24" fill="none" viewBox="0 0 24 24">
  <path fill="#000" d="M19.88 2H4.11c-.6 0-1.06.52-.99 1.11l1.8 16.22c.04.4.33.74.72.85l6.08 1.74c.18.05.37.05.55 0l6.08-1.74c.39-.11.67-.45.72-.85l1.8-16.22A.993.993 0 0019.88 2zm-3.63 5.5H8.59l.33 3h6.83c.21 0 .41.09.56.25.14.16.21.37.19.58l-.5 5c-.03.31-.24.56-.54.65l-3.5 1a.762.762 0 01-.42 0l-3.5-1a.75.75 0 01-.54-.72v-2c0-.41.34-.75.75-.75s.75.34.75.75v1.43l2.75.79 2.8-.8.37-3.67H8.25c-.38 0-.7-.29-.75-.67L7 6.84c-.02-.21.04-.42.19-.58a.75.75 0 01.56-.25h8.5c.41 0 .75.34.75.75s-.34.74-.75.74z"/>
</svg>
