<svg xmlns="http://www.w3.org/2000/svg" width="24" height="24" fill="none" viewBox="0 0 24 24">
  <path fill="#000" d="M16.19 2H7.81C4.17 2 2 4.17 2 7.81v8.37c0 3.64 2.17 5.81 5.81 5.81h8.37c3.64 0 5.81-2.17 5.81-5.81V7.81C22 4.17 19.83 2 16.19 2zm-3.13 14.68a.75.75 0 01-.95-.47l-.71-2.13H8.32l-.98 2.2c-.17.38-.61.55-.99.38-.38-.17-.55-.61-.38-.99L9.5 7.74c.13-.28.4-.47.72-.44.31.01.58.22.68.51l2.64 7.93a.76.76 0 01-.48.94zm4.04-.71c0 .41-.34.75-.75.75s-.75-.34-.75-.75v-5.29c0-.41.34-.75.75-.75s.75.34.75.75v5.29zm.17-7.55c-.05.12-.12.23-.22.32-.09.09-.2.17-.32.22-.12.05-.25.07-.38.07a1.015 1.015 0 01-.93-.61c-.05-.13-.07-.25-.07-.39 0-.13.02-.26.07-.38.06-.12.13-.23.22-.32.09-.1.2-.17.32-.22.37-.15.82-.06 1.09.22a.995.995 0 01.3.7c0 .14-.03.27-.08.39z"/>
  <path fill="#000" d="M8.98 12.57h1.92l-.82-2.46-1.1 2.46z"/>
</svg>
