<svg xmlns="http://www.w3.org/2000/svg" width="24" height="24" fill="none" viewBox="0 0 24 24">
  <path fill="#000" d="M19.51 6.422l-6.5-3.82c-.63-.37-1.4-.37-2.03 0l-6.5 3.82c-.61.36-.99 1.02-.99 1.72v7.71c0 .71.38 1.36.99 1.72l6.5 3.82c.63.37 1.4.37 2.03 0l6.5-3.82c.61-.36.99-1.02.99-1.72v-7.71c0-.7-.38-1.36-.99-1.72zm-2.12 9.22l-5 3c-.12.07-.25.11-.39.11s-.27-.04-.39-.11l-5-3a.749.749 0 01-.26-1.03c.21-.36.67-.47 1.03-.26l4.61 2.77 3.54-2.13-1.86-1.12-.65.65c-.15.15-.34.22-.53.22s-.38-.07-.53-.22a.754.754 0 010-1.06l.38-.38-1.8-1.08-.52.52c-.15.15-.34.22-.53.22s-.38-.07-.53-.22a.754.754 0 010-1.06l.26-.26-2.61-1.57a.751.751 0 010-1.28l5-3c.24-.14.54-.14.77 0l5 3c.36.21.47.67.26 1.03-.21.35-.67.47-1.03.26L12 6.872l-3.54 2.13 1.86 1.12.65-.65c.29-.29.77-.29 1.06 0 .29.29.29.77 0 1.06l-.38.38 1.8 1.08.52-.52c.29-.29.77-.29 1.06 0 .29.29.29.77 0 1.06l-.26.26 2.61 1.57c.23.14.36.38.36.64s-.13.51-.35.64z"/>
</svg>
