<svg xmlns="http://www.w3.org/2000/svg" width="24" height="24" fill="none" viewBox="0 0 24 24">
  <path fill="#000" d="M19.88 2H4.11c-.6 0-1.06.52-.99 1.11l1.8 16.22c.04.4.33.74.72.85l6.08 1.74c.18.05.37.05.55 0l6.08-1.74c.39-.11.67-.45.72-.85l1.8-16.22A.993.993 0 0019.88 2zm-8.51 13.99c0 .24-.11.46-.3.6a.738.738 0 01-.66.12l-3.12-.9a.746.746 0 01-.51-.93c.11-.4.53-.62.93-.51l2.16.62V7.01c0-.41.34-.75.75-.75s.75.34.75.75v8.98zm5.88-.89c0 .34-.23.64-.57.73l-3.6.9c-.06.02-.12.02-.18.02-.34 0-.64-.23-.73-.57-.1-.4.14-.81.55-.91l3.03-.76v-1.7l-2.29.33a.736.736 0 01-.6-.18.765.765 0 01-.26-.57V7.44c0-.37.27-.69.64-.74l3.15-.45c.41-.06.79.23.85.64.06.41-.23.79-.64.85l-2.51.36v3.43l2.29-.33c.22-.03.43.03.6.18.16.14.26.35.26.57v3.15h.01z"/>
</svg>
