<svg xmlns="http://www.w3.org/2000/svg" width="24" height="24" fill="none" viewBox="0 0 24 24">
  <path fill="#000" d="M12 2C6.48 2 2 6.48 2 12s4.48 10 10 10 10-4.48 10-10S17.52 2 12 2zm-.5 12.5c0 .41-.34.75-.75.75s-.75-.34-.75-.75v-2.08l-2.67-1.6v3.68c0 .41-.34.75-.75.75s-.75-.34-.75-.75v-5a.745.745 0 011.13-.64l4.17 2.5c.23.14.36.38.36.64v2.5h.01zm6.67 0c0 .41-.34.75-.75.75s-.75-.34-.75-.75v-3.68L14 12.42v2.08c0 .41-.34.75-.75.75s-.75-.34-.75-.75V12c0-.26.14-.51.36-.64l4.17-2.5c.23-.14.52-.14.75-.01.24.13.38.38.38.65v5h.01z"/>
</svg>
