<svg xmlns="http://www.w3.org/2000/svg" width="24" height="24" fill="none" viewBox="0 0 24 24">
  <path fill="#000" d="M3.18 15.029c-.35 0-.6.35-.47.67 1.47 3.7 5.08 6.3 9.29 6.3 4.22 0 7.83-2.62 9.3-6.33.13-.32-.13-.67-.47-.67H17.5c-.28 0-.5-.22-.5-.5v-2.74c0-.92-1.15-1.35-1.75-.65l-2.87 3.43c-.2.24-.57.24-.77 0l-2.87-3.43c-.59-.7-1.74-.27-1.74.65v2.74c0 .28-.22.5-.5.5l-3.32.03z"/>
  <path fill="#000" d="M22 12.14c0 .31-.02.62-.06.92-.03.25-.25.44-.51.44H19c-.28 0-.5-.22-.5-.5v-1.1c0-1.01-.54-1.99-1.46-2.41-1.03-.47-2.2-.21-2.94.66l-1.72 2.05c-.2.24-.57.24-.77 0l-1.73-2.07C9.16 9.28 8 9.02 6.96 9.49c-.92.42-1.46 1.4-1.46 2.41v.98c0 .42-.22.64-.5.64l-2.44.01c-.25 0-.48-.19-.51-.44C2.02 12.73 2 12.37 2 12 2 5.95 7.39 1.14 13.63 2.13c4.83.76 8.44 5.11 8.37 10.01z"/>
</svg>
