<svg xmlns="http://www.w3.org/2000/svg" width="24" height="24" fill="none" viewBox="0 0 24 24">
  <path fill="#000" d="M15.07 17.88l-1.01 2.22c-.26.56-.64 1.05-1.15 1.39-.52.35-1.2.38-1.74.04-1.64-1.04-5.22-3.71-7.39-8.34-.08-.16.14-.32.28-.22.57.4 1.18.68 1.85.84.41.09.83.13 1.23.13 1.86 0 3.54-.95 4.66-1.77.33-.24.77-.29 1.11-.08 1.12.7 1.87 1.54 2.24 2.49.64 1.68-.06 3.23-.08 3.3z"/>
  <path fill="#000" d="M16.85 18.05c-.08.09-.24-.01-.2-.12.44-1.46 1.01-5.31-4.09-7.75-.31-.15-.54-.43-.58-.77-.62-5.56 4.17-6.56 4.17-6.56.39-.08.8-.08 1.18.03 1.08.29 2.18.69 3.29 1.23.95.46 1.5 1.46 1.36 2.51-.33 2.48-1.43 7.26-5.13 11.43z"/>
  <path fill="#000" d="M10.56 10.21l.03.2c.07.38-.09.77-.41.97-2.15 1.35-5.67 2.37-7.82-3.54-.2-.54-.32-.94-.36-1.52-.05-.76.38-1.63 1.06-1.95 1.76-.82 5.48-2.25 9.97-2.12.2.01.27.27.11.38-1.73 1.32-3.22 3.7-2.58 7.58z"/>
</svg>
