<svg xmlns="http://www.w3.org/2000/svg" width="24" height="24" fill="none" viewBox="0 0 24 24">
  <path fill="#000" d="M21.38 11.448l-4.5-2.6a.77.77 0 00-.75 0l-4.5 2.6s0 .01-.01.01l-4.12 2.38-3.75-2.17v-4.33l3.75-2.17 3.75 2.17v1.14c0 .41.34.75.75.75s.75-.34.75-.75v-1.58c0-.27-.14-.52-.38-.65l-4.5-2.6a.77.77 0 00-.75 0l-4.5 2.6c-.23.13-.38.38-.38.65v5.2c0 .27.14.52.38.65l4.5 2.6c.12.07.25.1.38.1s.26-.03.38-.1l4.5-2.6s0-.01.01-.01l4.12-2.38 3.75 2.17v4.33l-3.75 2.17-3.75-2.17v-1.22c0-.41-.34-.75-.75-.75s-.75.34-.75.75v1.65c0 .27.14.52.38.65l4.5 2.6c.12.07.25.1.38.1s.26-.03.38-.1l4.5-2.6c.23-.13.38-.38.38-.65v-5.2a.84.84 0 00-.4-.64z"/>
  <path fill="#000" d="M4.5 8.35v2.31c0 .36.19.69.5.87l2 1.15c.31.18.69.18 1 0l2-1.15c.31-.18.5-.51.5-.87V8.35c0-.36-.19-.69-.5-.87L8 6.33a.993.993 0 00-1 0L5 7.48c-.31.18-.5.51-.5.87zM13.5 13.55v2.31c0 .36.19.69.5.87l2 1.15c.31.18.69.18 1 0l2-1.15c.31-.18.5-.51.5-.87v-2.31c0-.36-.19-.69-.5-.87l-2-1.15a.993.993 0 00-1 0l-2 1.15c-.31.18-.5.51-.5.87z"/>
</svg>
