<svg xmlns="http://www.w3.org/2000/svg" width="24" height="24" fill="none" viewBox="0 0 24 24">
  <path fill="#000" d="M20.49 6.708l-8-4.44a.986.986 0 00-.97 0l-8 4.44c-.32.18-.51.51-.51.87v8.82c0 .36.2.7.51.87l8.02 4.46c.29.16.64.17.93.02l4.03-2.01c.31-.16.68-.14.98.05l1.99 1.25a.998.998 0 001.53-.85v-2.61a1 1 0 00-.51-.87l-3-1.66a.986.986 0 00-.97 0l-4.03 2.24c-.3.17-.67.17-.97 0l-4-2.22a.992.992 0 01-.51-.87v-4.38c0-.36.2-.7.51-.87l4-2.22c.3-.17.67-.17.97 0l4 2.22c.32.18.51.51.51.87v3.06c0 .81.91 1.28 1.57.82l2-1.39c.27-.19.43-.49.43-.82v-3.89c0-.37-.2-.71-.51-.89z"/>
  <path fill="#000" d="M15.86 10.422v3.15c0 .35-.19.67-.5.84l-2.89 1.61a.98.98 0 01-.94 0l-2.89-1.61a.956.956 0 01-.5-.84v-3.15c0-.35.19-.67.5-.84l2.89-1.61a.98.98 0 01.94 0l2.89 1.61c.31.17.5.49.5.84z"/>
</svg>
