<svg xmlns="http://www.w3.org/2000/svg" width="24" height="24" fill="none" viewBox="0 0 24 24">
  <path fill="#000" d="M16.19 2H7.82C4.18 2 2.01 4.17 2.01 7.81v8.37c0 3.64 2.17 5.81 5.81 5.81h8.37c3.64 0 5.81-2.17 5.81-5.81V7.81C22 4.17 19.83 2 16.19 2zM11 7.5c0 .28-.22.5-.5.5H9c-.55 0-1 .45-1 1v1.5c0 .28-.22.5-.5.5h-2c-.28 0-.5-.22-.5-.5V9c0-2.21 1.79-4 4-4h1.5c.28 0 .5.22.5.5v2zm8 7.5c0 2.21-1.79 4-4 4h-1.5c-.28 0-.5-.22-.5-.5v-2c0-.28.22-.5.5-.5H15c.55 0 1-.45 1-1v-1.5c0-.28.22-.5.5-.5h2c.28 0 .5.22.5.5V15z"/>
</svg>
