<svg xmlns="http://www.w3.org/2000/svg" width="24" height="24" fill="none" viewBox="0 0 24 24">
  <path fill="#000" d="M12 22.75C6.07 22.75 1.25 17.93 1.25 12c0-1.49.3-2.92.89-4.28a.76.76 0 01.99-.39c.38.17.55.61.39.99-.5 1.16-.76 2.4-.76 3.68 0 5.1 4.15 9.25 9.25 9.25s9.25-4.15 9.25-9.25-4.15-9.25-9.25-9.25c-1.29 0-2.55.26-3.72.78a.75.75 0 01-.61-1.37c1.37-.6 2.82-.91 4.33-.91 5.93 0 10.75 4.82 10.75 10.75S17.93 22.75 12 22.75z"/>
  <path fill="#000" d="M16 15.25V12c0-2.35-1.9-4.25-4.25-4.25S7.5 9.65 7.5 12s1.9 4.25 4.25 4.25H15c.55 0 1-.45 1-1zM5 6.881a1.88 1.88 0 100-3.76 1.88 1.88 0 000 3.76z"/>
</svg>
