<svg xmlns="http://www.w3.org/2000/svg" width="24" height="24" fill="none" viewBox="0 0 24 24">
  <path fill="#000" d="M12 2C6.48 2 2 6.48 2 12s4.48 10 10 10 10-4.48 10-10S17.52 2 12 2zm3.42 14.58a.74.74 0 01-.61.31c-.15 0-.3-.05-.44-.14a5.55 5.55 0 00-5.27-.65.753.753 0 01-.97-.42.75.75 0 01.42-.97c2.24-.89 4.74-.58 6.69.82.35.25.42.72.18 1.05zm1.1-2.79a.74.74 0 01-.61.31c-.15 0-.3-.05-.44-.14a7.604 7.604 0 00-7.26-.89.753.753 0 01-.97-.42.75.75 0 01.42-.97 9.08 9.08 0 018.68 1.07c.34.24.42.71.18 1.04zm1.57-2.68a.74.74 0 01-.61.31c-.15 0-.3-.05-.44-.14-2.98-2.14-6.8-2.61-10.2-1.25a.75.75 0 01-.97-.42c-.15-.38.04-.82.42-.97 3.88-1.54 8.23-1.01 11.63 1.43.34.23.42.7.17 1.04z"/>
</svg>
