<svg xmlns="http://www.w3.org/2000/svg" width="24" height="24" fill="none" viewBox="0 0 24 24">
  <path fill="#000" d="M12 2C6.48 2 2 6.48 2 12s4.48 10 10 10 10-4.48 10-10S17.52 2 12 2zm4.5 12.25h-3.05l1.99 2.82c.24.34.16.81-.18 1.04a.76.76 0 01-.43.14c-.24 0-.47-.11-.61-.32l-2.3-3.26-2.3 3.26a.75.75 0 01-.61.32c-.15 0-.3-.04-.43-.14a.743.743 0 01-.18-1.04l1.99-2.82H7.52c-.41 0-.75-.34-.75-.75s.34-.75.75-.75h9c.41 0 .75.34.75.75s-.36.75-.77.75zm0-3h-9c-.41 0-.75-.34-.75-.75s.34-.75.75-.75h2.87L8.38 6.93a.74.74 0 01.18-1.04.74.74 0 011.04.18l2.3 3.26 2.3-3.26c.24-.34.71-.42 1.04-.18.34.24.42.71.18 1.04l-1.99 2.82h3.05c.41 0 .75.34.75.75s-.32.75-.73.75z"/>
</svg>
