<svg xmlns="http://www.w3.org/2000/svg" width="24" height="24" fill="none" viewBox="0 0 24 24">
  <path fill="#000" d="M12 2C6.48 2 2 6.48 2 12s4.48 10 10 10 10-4.48 10-10S17.52 2 12 2zm-4.06 8.56c0-1.86 1.51-3.38 3.38-3.38 1.87 0 3.38 1.51 3.38 3.38 0 1.87-1.51 3.38-3.38 3.38-1.87 0-3.38-1.51-3.38-3.38zm7.65 4.78l-3 3c-.15.15-.34.22-.53.22s-.38-.07-.53-.22a.754.754 0 010-1.06l3-3c.29-.29.77-.29 1.06 0 .29.29.3.77 0 1.06zm.92-7.03c-.55 0-1-.45-1-1s.44-1 1-1h.01c.55 0 1 .45 1 1s-.46 1-1.01 1z"/>
</svg>
