<svg xmlns="http://www.w3.org/2000/svg" width="24" height="24" fill="none" viewBox="0 0 24 24">
  <path fill="#000" d="M14 9.75h-1.25V8.5c0-.41-.34-.75-.75-.75s-.75.34-.75.75v1.25H10c-.41 0-.75.34-.75.75s.34.75.75.75h4c.41 0 .75-.34.75-.75s-.34-.75-.75-.75zM14 12.75h-4c-.41 0-.75.34-.75.75s.34.75.75.75h1.25v1.25c0 .41.34.75.75.75s.75-.34.75-.75v-1.25H14c.41 0 .75-.34.75-.75s-.34-.75-.75-.75z"/>
  <path fill="#000" d="M16.19 2H7.82C4.18 2 2.01 4.17 2.01 7.81v8.37c0 3.64 2.17 5.81 5.81 5.81h8.37c3.64 0 5.81-2.17 5.81-5.81V7.81C22 4.17 19.83 2 16.19 2zM17 16.15c0 1.02-.83 1.85-1.85 1.85h-6.3C7.83 18 7 17.17 7 16.15v-8.3C7 6.83 7.83 6 8.85 6h6.3C16.17 6 17 6.83 17 7.85v8.3z"/>
</svg>
