<svg xmlns="http://www.w3.org/2000/svg" width="24" height="24" fill="none" viewBox="0 0 24 24">
  <path fill="#000" d="M19.402 10.53c.52-.1.88.49.56.91l-6.95 8.85c-.35.45-1.07.16-1.01-.4l.7-7.6c.02-.25.21-.46.46-.51l6.24-1.25zM21.64 7.691c.22.24.1.63-.21.7l-8.44 1.69c-.55.11-.91-.56-.51-.96l5.02-5.02c.23-.23.6-.22.82.01l3.32 3.58zM14.691 3.191c.47.06.66.63.33.97l-3.56 3.56c-.21.21-.55.22-.78.02l-5.34-4.75c-.42-.37-.1-1.06.45-.99l8.9 1.19zM10.72 10.073c.27.24.4.59.38.94l-.86 10.46c-.05.6-.88.72-1.1.16L2.29 3.963c-.22-.56.46-1.03.91-.63l7.52 6.74z"/>
</svg>
