<svg xmlns="http://www.w3.org/2000/svg" width="24" height="24" fill="none" viewBox="0 0 24 24">
  <path fill="#000" d="M18 6.34c-.14 0-.58.03-.58.45 0 .29.22.46.58.46s.58-.17.58-.46c0-.33-.3-.45-.58-.45zM18 5.512c.27 0 .44-.15.44-.38 0-.28-.23-.37-.44-.37s-.44.1-.44.37c0 .23.17.38.44.38z"/>
  <path fill="#000" d="M18 2a3.99 3.99 0 00-3.98 3.66C14 5.77 14 5.89 14 6c0 2.21 1.79 4 4 4 .35 0 .68-.04 1-.13A3.999 3.999 0 0018 2zm0 6.2c-.99 0-1.6-.5-1.6-1.31 0-.39.18-.74.5-.98-.24-.21-.37-.5-.37-.83 0-.77.59-1.28 1.46-1.28s1.46.52 1.46 1.28c0 .33-.12.62-.37.83.33.23.51.58.51.98.01.81-.6 1.31-1.59 1.31z"/>
  <path fill="#000" d="M18 11.498a5.42 5.42 0 01-3.1-.96.1.1 0 00-.16.08l.01 4.82a.749.749 0 11-1.5 0v-4.94c0-.33.22-.61.52-.71.08-.03.13-.14.07-.2a5.46 5.46 0 01-1.34-3.58c0-.17.01-.35.03-.52 0-.04.01-.07.01-.11a.537.537 0 00-.29-.55l-.9-.43a2.02 2.02 0 00-1.7 0l-6.5 3.06c-.7.33-1.15 1.03-1.15 1.81v7.46c0 .78.45 1.48 1.15 1.81l6.5 3.06c.54.25 1.16.25 1.7 0l6.5-3.06c.7-.33 1.15-1.03 1.15-1.81v-4.71c0-.31-.29-.55-.6-.53-.13.01-.26.01-.4.01zm-6.25 2c0 1.52-1.23 2.75-2.75 2.75s-2.75-1.23-2.75-2.75v-3c0-.41.34-.75.75-.75s.75.34.75.75v3a1.25 1.25 0 002.5 0v-3c0-.41.34-.75.75-.75s.75.34.75.75v3z"/>
</svg>
