<svg xmlns="http://www.w3.org/2000/svg" width="24" height="24" fill="none" viewBox="0 0 24 24">
  <path fill="#000" d="M12.75 14.52h.23c.33 0 .61-.3.61-.67 0-.47-.11-.53-.43-.64l-.41-.14v1.45z"/>
  <path fill="#000" d="M12 2C6.48 2 2 6.48 2 12s4.48 10 10 10 10-4.48 10-10S17.52 2 12 2zM7.58 16.42c.29.29.29.77 0 1.06-.15.15-.34.22-.53.22s-.38-.07-.53-.22A7.709 7.709 0 014.25 12c0-2.07.81-4.02 2.27-5.48.29-.29.77-.29 1.06 0 .29.29.29.77 0 1.06A6.21 6.21 0 005.75 12c0 1.67.65 3.24 1.83 4.42zm6.07-4.64c.96.34 1.43 1.01 1.43 2.06 0 1.2-.94 2.17-2.11 2.17h-.23v.18c0 .41-.34.75-.75.75s-.75-.34-.75-.75v-.18h-.03c-1.27 0-2.31-1.07-2.31-2.38 0-.41.34-.75.75-.75s.75.34.75.75c0 .49.36.88.81.88h.03v-1.98l-.9-.32c-.96-.34-1.43-1.01-1.43-2.06 0-1.2.94-2.17 2.11-2.17h.23V7.8c0-.41.34-.75.75-.75s.75.34.75.75v.18h.03c1.27 0 2.31 1.07 2.31 2.38 0 .41-.34.75-.75.75s-.75-.34-.75-.75c0-.49-.36-.88-.81-.88h-.03v1.98l.9.32zm3.83 5.7c-.15.15-.34.22-.53.22s-.38-.07-.53-.22a.754.754 0 010-1.06A6.21 6.21 0 0018.25 12c0-1.67-.65-3.24-1.83-4.42a.754.754 0 010-1.06c.29-.29.77-.29 1.06 0A7.709 7.709 0 0119.75 12c0 2.07-.81 4.02-2.27 5.48z"/>
  <path fill="#000" d="M10.42 10.16c0 .47.11.53.43.64l.41.14V9.48h-.23c-.34 0-.61.31-.61.68z"/>
</svg>
