<svg xmlns="http://www.w3.org/2000/svg" width="24" height="24" fill="none" viewBox="0 0 24 24">
  <path fill="#000" d="M12 2C6.48 2 2 6.48 2 12s4.48 10 10 10 10-4.48 10-10S17.52 2 12 2zm2.67 14.43l-2.25 1.5c-.13.08-.27.13-.42.13-.15 0-.29-.04-.42-.13l-2.25-1.5a.755.755 0 01-.21-1.04c.23-.35.7-.44 1.04-.21l1.83 1.22 1.83-1.22c.34-.23.81-.14 1.04.21.24.35.15.81-.19 1.04zm1.83-3.44c0 .78-.85 1.26-1.51.86l-2.47-1.48c-.32-.19-.71-.19-1.03 0l-2.47 1.48a.996.996 0 01-1.51-.86V9.16c0-.34.18-.66.46-.84l3.5-2.22c.33-.21.74-.21 1.07 0l3.5 2.22c.29.18.46.5.46.84v3.83z"/>
</svg>
