<svg xmlns="http://www.w3.org/2000/svg" width="24" height="24" fill="none" viewBox="0 0 24 24">
  <path fill="#000" d="M21.98 11.41c-.34-5.8-5.61-10.27-11.68-9.27-4.18.69-7.53 4.08-8.18 8.26-.38 2.42.12 4.71 1.21 6.6l-.89 3.31c-.2.75.49 1.43 1.23 1.22l3.26-.9c1.48.87 3.21 1.37 5.06 1.37 5.64 0 10.32-4.97 9.99-10.59zm-5.1 4.31a2.279 2.279 0 01-1.16 1.1c-.3.13-.63.19-.98.19-.51 0-1.06-.12-1.63-.37a9.16 9.16 0 01-1.72-.99c-.58-.42-1.12-.89-1.64-1.4-.52-.52-.98-1.07-1.4-1.64-.41-.57-.74-1.14-.98-1.71-.24-.57-.36-1.12-.36-1.64 0-.34.06-.67.18-.97.12-.31.31-.59.58-.84.32-.32.67-.47 1.04-.47.14 0 .28.03.41.09.13.06.25.15.34.28l1.16 1.64c.09.13.16.24.2.35.05.11.07.21.07.31 0 .12-.04.24-.11.36s-.16.24-.28.36l-.38.4c-.06.06-.08.12-.08.2 0 .04.01.08.02.12.02.04.03.07.04.1.09.17.25.38.47.64a13.482 13.482 0 001.53 1.53c.26.22.48.37.65.46.03.01.06.03.09.04.04.02.08.02.13.02.09 0 .15-.03.21-.09l.38-.38c.13-.13.25-.22.36-.28.12-.07.23-.11.36-.11.1 0 .2.02.31.07.11.05.23.11.35.2l1.66 1.18c.13.09.22.2.28.32.05.13.08.25.08.39-.06.17-.1.36-.18.54z"/>
</svg>
