<svg xmlns="http://www.w3.org/2000/svg" width="24" height="24" fill="none" viewBox="0 0 24 24">
  <path fill="#000" d="M15.17 13.772c0 .56.46 1.02 1.02 1.02h1.02v-2.03h-1.02a1.01 1.01 0 00-1.02 1.01z"/>
  <path fill="#000" d="M16.19 2H7.82C4.18 2 2.01 4.17 2.01 7.81v8.37c0 3.64 2.17 5.81 5.81 5.81h8.37c3.64 0 5.81-2.17 5.81-5.81V7.81C22 4.17 19.83 2 16.19 2zm-3.91 13.06c.26.32.21.8-.12 1.05-.14.11-.3.16-.47.16-.22 0-.44-.1-.59-.28l-2.24-2.8-2.24 2.8a.763.763 0 01-1.06.12.748.748 0 01-.12-1.05L7.89 12 5.44 8.94c-.26-.32-.21-.8.12-1.05.32-.26.8-.21 1.05.12l2.24 2.8 2.24-2.8a.748.748 0 011.17.93L9.81 12l2.47 3.06zm6.43.47c0 .41-.34.75-.75.75h-1.77c-1.39 0-2.52-1.13-2.52-2.52 0-1.39 1.13-2.52 2.52-2.52h1.02V8.46c0-.41.34-.75.75-.75s.75.34.75.75v7.07z"/>
</svg>
