<svg xmlns="http://www.w3.org/2000/svg" width="24" height="24" fill="none" viewBox="0 0 24 24">
  <path fill="#000" d="M12 2C6.48 2 2 6.48 2 12s4.48 10 10 10 10-4.48 10-10S17.52 2 12 2zm-.75 13c0 .41-.34.75-.75.75s-.75-.34-.75-.75v-3c0-.41.34-.75.75-.75s.75.34.75.75v3zm3 0c0 .41-.34.75-.75.75s-.75-.34-.75-.75v-4c0-.69-.56-1.25-1.25-1.25H8.25V15c0 .41-.34.75-.75.75s-.75-.34-.75-.75V9c0-.41.34-.75.75-.75h4c1.52 0 2.75 1.23 2.75 2.75v4zm3 0c0 .41-.34.75-.75.75s-.75-.34-.75-.75V9c0-.41.34-.75.75-.75s.75.34.75.75v6z"/>
</svg>
