<svg xmlns="http://www.w3.org/2000/svg" width="24" height="24" fill="none" viewBox="0 0 24 24">
  <path fill="#000" d="M12 2C6.48 2 2 6.48 2 12s4.48 10 10 10 10-4.48 10-10S17.52 2 12 2zm6.5 12.02c0 .18-.1.34-.25.43l-2 1.15c-.15.09-.34.09-.5 0l-2-1.15a.484.484 0 01-.25-.43v-.83l-1.25.72c-.15.09-.34.09-.5 0l-1.25-.72v.83c0 .18-.1.34-.25.43l-2 1.15c-.15.09-.34.09-.5 0l-2-1.15a.484.484 0 01-.25-.43v-2.28c0-.18.1-.34.25-.43l2-1.15c.15-.09.35-.09.5 0l1 .58V9.61c0-.18.1-.34.25-.43l2.25-1.29c.15-.09.34-.09.5 0l2.25 1.29c.16.09.25.25.25.43v1.13l1-.58c.15-.09.34-.09.5 0l2 1.15c.16.09.25.25.25.43v2.28z"/>
</svg>
