<svg width="24" height="24" fill="none" xmlns="http://www.w3.org/2000/svg"><path d="M12 22c5.52 0 10-4.48 10-10S17.52 2 12 2 2 6.48 2 12s4.48 10 10 10Z" stroke="#292D32" stroke-width="1.5" stroke-linecap="round" stroke-linejoin="round"/><g opacity=".4" stroke="#292D32" stroke-width="1.5" stroke-linecap="round" stroke-linejoin="round"><path d="M12 16c2.21 0 4-1.79 4-4s-1.79-4-4-4-4 1.79-4 4 1.79 4 4 4ZM21.17 7.999c-3.02-.66-6.15-.66-9.17 0"/><path d="m3.95 6.059.02.06c1.01 2.89 2.56 5.57 4.57 7.88M10.88 21.94c2.06-2.27 3.61-4.95 4.55-7.86l.03-.08"/></g></svg>