<svg width="24" height="24" fill="none" xmlns="http://www.w3.org/2000/svg"><path d="M17.79 10.472v7.32a4.21 4.21 0 0 1-4.21 4.21H6.21c-2.32 0-4.21-1.89-4.21-4.21v-7.32a4.21 4.21 0 0 1 4.21-4.21h7.37c2.32 0 4.21 1.89 4.21 4.21Z" stroke="#292D32" stroke-width="1.5" stroke-linecap="round" stroke-linejoin="round"/><path opacity=".34" d="M5.5 4V2.25M9.5 4V2.25M13.5 4V2.25" stroke="#292D32" stroke-width="1.5" stroke-linecap="round" stroke-linejoin="round"/><path d="M22 13.16c0 2.32-1.89 4.21-4.21 4.21V8.95A4.21 4.21 0 0 1 22 13.16Z" stroke="#292D32" stroke-width="1.5" stroke-linecap="round" stroke-linejoin="round"/><path opacity=".34" d="M2 12h15.51" stroke="#292D32" stroke-width="1.5" stroke-linecap="round" stroke-linejoin="round"/></svg>