<svg width="24" height="24" fill="none" xmlns="http://www.w3.org/2000/svg"><path d="M9 22h6c5 0 7-2 7-7V9c0-5-2-7-7-7H9C4 2 2 4 2 9v6c0 5 2 7 7 7Z" stroke="#292D32" stroke-width="1.5" stroke-linecap="round" stroke-linejoin="round"/><path opacity=".34" d="M7 8.75c1-1 2.63-1 3.64 0M13.36 8.75c1-1 2.63-1 3.64 0M8.4 17.7h7.2c.5 0 .9-.4.9-.9 0-2.49-2.01-4.5-4.5-4.5s-4.5 2.01-4.5 4.5c0 .5.4.9.9.9Z" stroke="#292D32" stroke-width="1.5" stroke-miterlimit="10" stroke-linecap="round" stroke-linejoin="round"/></svg>