<svg width="24" height="24" fill="none" xmlns="http://www.w3.org/2000/svg"><path d="M5.4 2.102h13.2c1.1 0 2 .9 2 2v2.2c0 .8-.5 1.8-1 2.3l-4.3 3.8c-.6.5-1 1.5-1 2.3v4.3c0 .6-.4 1.4-.9 1.7l-1.4.9c-1.3.8-3.1-.1-3.1-1.7v-5.3c0-.7-.4-1.6-.8-2.1l-3.8-4c-.5-.5-.9-1.4-.9-2v-2.3c0-1.2.9-2.1 2-2.1Z" stroke="#292D32" stroke-width="1.5" stroke-miterlimit="10" stroke-linecap="round" stroke-linejoin="round"/><path opacity=".4" d="M10.93 2.102 6 10.002" stroke="#292D32" stroke-width="1.5" stroke-miterlimit="10" stroke-linecap="round" stroke-linejoin="round"/></svg>