<svg width="24" height="24" fill="none" xmlns="http://www.w3.org/2000/svg"><path opacity=".4" d="M8.16 6.648h7.67c.64 0 1.16.52 1.16 1.16v1.28c0 .47-.29 1.05-.58 1.34l-2.5 2.21c-.35.29-.58.87-.58 1.34v2.5c0 .35-.23.81-.52.99l-.81.51c-.76.47-1.8-.06-1.8-.99v-3.08c0-.41-.23-.93-.47-1.22l-2.21-2.33c-.29-.28-.52-.81-.52-1.16v-1.33c0-.7.52-1.22 1.16-1.22Z" stroke="#292D32" stroke-width="1.5" stroke-miterlimit="10" stroke-linecap="round" stroke-linejoin="round"/><path d="M9 22h6c5 0 7-2 7-7V9c0-5-2-7-7-7H9C4 2 2 4 2 9v6c0 5 2 7 7 7Z" stroke="#292D32" stroke-width="1.5" stroke-linecap="round" stroke-linejoin="round"/></svg>