<svg width="24" height="24" fill="none" xmlns="http://www.w3.org/2000/svg"><path opacity=".4" d="M14.32 19.072c0 .61-.4 1.41-.91 1.72l-1.41.91c-1.31.81-3.13-.1-3.13-1.72v-5.35c0-.71-.4-1.62-.81-2.12l-3.84-4.04c-.51-.51-.91-1.41-.91-2.02v-2.32c0-1.21.91-2.12 2.02-2.12h13.34c1.11 0 2.02.91 2.02 2.02v2.22c0 .81-.51 1.82-1.01 2.32" stroke="#292D32" stroke-width="1.5" stroke-miterlimit="10" stroke-linecap="round" stroke-linejoin="round"/><path d="M16.07 16.521a3.2 3.2 0 1 0 0-6.4 3.2 3.2 0 0 0 0 6.4ZM19.87 17.121l-1-1" stroke="#292D32" stroke-width="1.5" stroke-linecap="round" stroke-linejoin="round"/></svg>