<svg width="24" height="24" fill="none" xmlns="http://www.w3.org/2000/svg"><path d="M22 8v5c0 4-2 6-6 6h-.5c-.31 0-.61.15-.8.4l-1.5 2c-.66.88-1.74.88-2.4 0l-1.5-2c-.16-.22-.53-.4-.8-.4H8c-4 0-6-1-6-6V8c0-4 2-6 6-6h4" stroke="#292D32" stroke-width="1.5" stroke-miterlimit="10" stroke-linecap="round" stroke-linejoin="round"/><path opacity=".4" d="M15.2 4.622c-.33-.99.06-2.21 1.14-2.55.56-.17 1.26-.03 1.66.5.38-.55 1.1-.67 1.66-.5 1.08.33 1.47 1.56 1.14 2.55-.51 1.57-2.3 2.38-2.8 2.38s-2.27-.8-2.8-2.38Z" stroke="#292D32" stroke-width="1.5" stroke-linecap="round" stroke-linejoin="round"/><path opacity=".4" d="M15.996 11h.01M11.995 11h.009M7.995 11h.008" stroke="#292D32" stroke-width="2" stroke-linecap="round" stroke-linejoin="round"/></svg>