<svg width="24" height="24" fill="none" xmlns="http://www.w3.org/2000/svg"><path opacity=".4" d="M22 6.25v5.1c0 1.27-.42 2.34-1.17 3.08-.74.75-1.81 1.17-3.08 1.17v1.81c0 .68-.76 1.09-1.32.71l-.97-.64c.09-.31.13-.65.13-1.01V12.4c0-2.04-1.36-3.4-3.4-3.4H5.4c-.14 0-.27.01-.4.02V6.25C5 3.7 6.7 2 9.25 2h8.5C20.3 2 22 3.7 22 6.25Z" stroke="#292D32" stroke-width="1.5" stroke-miterlimit="10" stroke-linecap="round" stroke-linejoin="round"/><path d="M15.59 12.4v4.07c0 .36-.04.7-.13 1.01-.37 1.47-1.59 2.39-3.27 2.39H9.47l-3.02 2.01a.671.671 0 0 1-1.05-.56v-1.45c-1.02 0-1.87-.34-2.46-.93-.6-.6-.94-1.45-.94-2.47V12.4c0-1.9 1.18-3.21 3-3.38.13-.01.26-.02.4-.02h6.79c2.04 0 3.4 1.36 3.4 3.4Z" stroke="#292D32" stroke-width="1.5" stroke-miterlimit="10" stroke-linecap="round" stroke-linejoin="round"/></svg>