<svg width="24" height="24" fill="none" xmlns="http://www.w3.org/2000/svg"><path d="M16.19 2.328H7.81C4.17 2.328 2 4.508 2 8.148v8.37c0 3.64 2.17 5.81 5.81 5.81h8.37c3.64 0 5.81-2.17 5.81-5.81v-8.37c.01-3.64-2.16-5.82-5.8-5.82Zm-4.62 14.79c0 .3-.15.57-.41.73-.14.09-.29.13-.45.13-.13 0-.26-.03-.39-.09l-3.5-1.75c-.5-.26-.82-.77-.82-1.34v-3.31a.867.867 0 0 1 1.25-.77l3.5 1.75c.51.26.83.77.83 1.34v3.31h-.01Zm-.21-5.35L7.6 9.738a.87.87 0 0 1-.44-.77c0-.32.17-.62.44-.77l3.76-2.03c.4-.21.87-.21 1.27 0l3.76 2.03c.27.15.44.44.44.77s-.17.62-.44.77l-3.76 2.03c-.2.11-.42.16-.64.16-.22 0-.43-.05-.63-.16Zm6.64 3.03c0 .57-.32 1.09-.83 1.34l-3.5 1.75a.86.86 0 0 1-.39.09c-.16 0-.31-.04-.45-.13a.847.847 0 0 1-.41-.73v-3.31c0-.57.32-1.09.83-1.34l3.5-1.75a.867.867 0 0 1 1.25.77v3.31Z" fill="#292D32"/></svg>