<svg width="24" height="24" fill="none" xmlns="http://www.w3.org/2000/svg"><path d="m17.6 5.311-5.65-3.04a2.02 2.02 0 0 0-1.91 0L4.4 5.311c-.41.23-.67.67-.67 1.15 0 .49.25.93.67 1.15l5.65 3.04a2 2 0 0 0 1.9 0l5.65-3.04c.41-.22.67-.66.67-1.15 0-.48-.26-.92-.67-1.15ZM9.12 11.71 3.87 9.09A1.286 1.286 0 0 0 2 10.24v4.96c0 .86.48 1.63 1.25 2.02l5.25 2.62c.18.09.38.14.58.14.23 0 .47-.07.68-.19.38-.24.61-.65.61-1.1v-4.96c-.01-.86-.49-1.63-1.25-2.02ZM20 10.24v2.46c-.48-.14-.99-.2-1.5-.2-1.36 0-2.69.47-3.74 1.31-1.44 1.13-2.26 2.84-2.26 4.69 0 .49.06.98.19 1.45-.15-.02-.3-.08-.44-.17-.38-.23-.61-.64-.61-1.09v-4.96c0-.86.48-1.63 1.24-2.02l5.25-2.62A1.286 1.286 0 0 1 20 10.24Z" fill="#292D32"/><path d="M22 15.7c0-.01-.01-.02-.02-.03-.04-.06-.09-.12-.14-.17-.01-.01-.02-.03-.03-.04-.81-.9-2-1.46-3.31-1.46-1.26 0-2.41.52-3.23 1.36a4.5 4.5 0 0 0-.62 5.46c.22.37.5.71.82.99.02.01.03.02.04.03.05.05.1.09.16.14h.01c.01.01.02.02.03.02.75.63 1.72 1 2.79 1 1.64 0 3.07-.88 3.85-2.18.23-.39.41-.82.52-1.27.09-.34.13-.69.13-1.05 0-1.06-.37-2.04-1-2.8Zm-1.82 3.53h-.93v.97c0 .41-.34.75-.75.75s-.75-.34-.75-.75v-.97h-.93c-.41 0-.75-.34-.75-.75s.34-.75.75-.75h.93v-.89c0-.41.34-.75.75-.75s.75.34.75.75v.89h.93a.749.749 0 1 1 0 1.5Z" fill="#292D32"/></svg>