<svg width="24" height="24" fill="none" xmlns="http://www.w3.org/2000/svg"><path d="m17.6 5.311-5.65-3.04a2.02 2.02 0 0 0-1.91 0L4.4 5.311c-.41.23-.67.67-.67 1.15 0 .49.25.93.67 1.15l5.65 3.04a2 2 0 0 0 1.9 0l5.65-3.04c.41-.22.67-.66.67-1.15 0-.48-.26-.92-.67-1.15ZM9.12 11.71 3.87 9.09A1.286 1.286 0 0 0 2 10.24v4.96c0 .86.48 1.63 1.25 2.02l5.25 2.62c.18.09.38.14.58.14.23 0 .47-.07.68-.19.38-.24.61-.65.61-1.1v-4.96c-.01-.86-.49-1.63-1.25-2.02ZM20 10.24v2.46c-.48-.14-.99-.2-1.5-.2-1.36 0-2.69.47-3.74 1.31-1.44 1.13-2.26 2.84-2.26 4.69 0 .49.06.98.19 1.45-.15-.02-.3-.08-.44-.17-.38-.23-.61-.64-.61-1.09v-4.96c0-.86.48-1.63 1.24-2.02l5.25-2.62A1.286 1.286 0 0 1 20 10.24Z" fill="#292D32"/><path d="M21.98 15.67a4.46 4.46 0 0 0-3.48-1.65c-1.06 0-2.04.37-2.81.99A4.448 4.448 0 0 0 14 18.52 4.5 4.5 0 0 0 15.66 22h.01c.77.64 1.76 1.02 2.83 1.02 1.14 0 2.17-.42 2.96-1.12A4.5 4.5 0 0 0 23 18.52c0-1.08-.38-2.08-1.02-2.85Zm-1.22 2.29-2.4 2.22c-.14.13-.33.2-.51.2-.19 0-.38-.07-.53-.22l-1.11-1.11a.754.754 0 0 1 0-1.06c.29-.29.77-.29 1.06 0l.6.6 1.87-1.73c.3-.28.78-.26 1.06.04.29.31.27.78-.04 1.06Z" fill="#292D32"/></svg>