<svg width="24" height="24" fill="none" xmlns="http://www.w3.org/2000/svg"><path d="M21.5 15.5c.28 0 .5.22.5.5v1c0 1.66-1.34 3-3 3 0-1.65-1.35-3-3-3s-3 1.35-3 3h-2c0-1.65-1.35-3-3-3s-3 1.35-3 3c-1.66 0-3-1.34-3-3v-2c0-.55.45-1 1-1h9.5a2.5 2.5 0 0 0 2.5-2.5V6c0-.55.45-1 1-1h.84c.72 0 1.38.39 1.74 1.01l.64 1.12c.09.16-.03.37-.22.37a2.5 2.5 0 0 0-2.5 2.5v3a2.5 2.5 0 0 0 2.5 2.5h2.5Z" fill="#292D32"/><path d="M8 22a2 2 0 1 0 0-4 2 2 0 0 0 0 4ZM16 22a2 2 0 1 0 0-4 2 2 0 0 0 0 4ZM22 12.53V14h-3c-.55 0-1-.45-1-1v-3c0-.55.45-1 1-1h1.29l1.45 2.54c.17.3.26.64.26.99ZM13.08 1.98H5.69C3.65 1.98 2 3.63 2 5.67v6.39c0 .55.45 1 1 1h9.15c1.02 0 1.85-.83 1.85-1.85V2.9c0-.51-.41-.92-.92-.92ZM9.6 9.1a.775.775 0 0 1-1.06 0l-.53-.53-.55.55c-.15.15-.34.22-.53.22s-.38-.07-.53-.22a.754.754 0 0 1 0-1.06l.55-.55-.53-.53a.754.754 0 0 1 0-1.06c.3-.29.77-.29 1.07 0l.52.53.5-.51c.3-.29.77-.29 1.07 0 .29.3.29.77 0 1.07l-.51.5.53.52c.29.3.29.77 0 1.07Z" fill="#292D32"/></svg>