<svg width="24" height="24" fill="none" xmlns="http://www.w3.org/2000/svg"><path d="M14.93 2.5v5.9c0 .44-.52.66-.84.37l-1.75-1.61a.496.496 0 0 0-.68 0l-1.75 1.6c-.32.3-.84.07-.84-.36V2.5c0-.28.22-.5.5-.5h4.86c.28 0 .5.22.5.5Z" fill="#292D32"/><path d="M16.98 2.059c-.29-.04-.55.21-.55.5v6.02c0 .76-.45 1.45-1.15 1.76-.7.3-1.51.17-2.07-.35l-.87-.8a.496.496 0 0 0-.68 0l-.87.8c-.36.34-.83.51-1.3.51a1.9 1.9 0 0 1-.77-.16c-.7-.31-1.15-1-1.15-1.76v-6.02c0-.29-.26-.54-.55-.5-2.8.35-4.02 2.24-4.02 4.94v10c0 3 1.5 5 5 5h8c3.5 0 5-2 5-5v-10c0-2.7-1.22-4.59-4.02-4.94Zm.52 16.69H9c-.41 0-.75-.34-.75-.75s.34-.75.75-.75h8.5c.41 0 .75.34.75.75s-.34.75-.75.75Zm0-4h-4.25c-.41 0-.75-.34-.75-.75s.34-.75.75-.75h4.25c.41 0 .75.34.75.75s-.34.75-.75.75Z" fill="#292D32"/></svg>