<svg width="24" height="24" fill="none" xmlns="http://www.w3.org/2000/svg"><path d="M15.8 2.21c-.41-.41-1.12-.13-1.12.44v3.49c0 1.46 1.24 2.67 2.75 2.67.95.01 2.27.01 3.4.01.57 0 .87-.67.47-1.07-1.44-1.45-4.02-4.06-5.5-5.54ZM14.76 19.262c-2.35.17-2.35 3.57 0 3.74h5.56c.67 0 1.33-.25 1.82-.7 1.65-1.44.77-4.32-1.4-4.59-.78-4.69-7.56-2.91-5.96 1.56" fill="#292D32"/><path d="M21.5 11.19v3.25c0 .3-.44.44-.66.23-.48-.47-1.07-.83-1.75-1.04-1.68-.52-3.63-.01-4.84 1.27-.81.84-1.22 1.91-1.21 3.07 0 .19-.09.36-.24.47-.8.61-1.3 1.57-1.3 2.68 0 .08 0 .16.01.24.02.32-.21.63-.54.63h-2.9c-3.08 0-5.57-2-5.57-5.57V7.57C2.5 4 4.99 2 8.07 2h4.24c.55 0 1 .45 1 1v2.89c0 2.38 1.92 4.3 4.3 4.3h2.89c.55 0 1 .45 1 1Z" fill="#292D32"/></svg>