<svg width="24" height="24" fill="none" xmlns="http://www.w3.org/2000/svg"><path d="M20.5 10.19h-2.89c-2.37 0-4.3-1.93-4.3-4.3V3c0-.55-.45-1-1-1H8.07C4.99 2 2.5 4 2.5 7.57v8.86C2.5 20 4.99 22 8.07 22h7.86c3.08 0 5.57-2 5.57-5.57v-5.24c0-.55-.45-1-1-1Zm-8.22 5.59-2 2c-.07.07-.16.13-.25.16a.671.671 0 0 1-.56 0 .662.662 0 0 1-.22-.15c-.01-.01-.02-.01-.02-.02l-2-2a.754.754 0 0 1 0-1.06c.29-.29.77-.29 1.06 0l.71.73v-4.19c0-.41.34-.75.75-.75s.75.34.75.75v4.19l.72-.72c.29-.29.77-.29 1.06 0 .29.29.29.77 0 1.06Z" fill="#292D32"/><path d="M17.43 8.81c.95.01 2.27.01 3.4.01.57 0 .87-.67.47-1.07-1.44-1.45-4.02-4.06-5.5-5.54-.41-.41-1.12-.13-1.12.44v3.49c0 1.46 1.24 2.67 2.75 2.67Z" fill="#292D32"/></svg>