<svg width="24" height="24" fill="none" xmlns="http://www.w3.org/2000/svg"><path d="M20.5 10.19h-2.89c-2.37 0-4.3-1.93-4.3-4.3V3c0-.55-.45-1-1-1H8.07C4.99 2 2.5 4 2.5 7.57v8.86C2.5 20 4.99 22 8.07 22h7.86c3.08 0 5.57-2 5.57-5.57v-5.24c0-.55-.45-1-1-1Zm-8.97 3.34c-.15.15-.34.22-.53.22s-.38-.07-.53-.22l-.72-.72V17c0 .41-.34.75-.75.75s-.75-.34-.75-.75v-4.19l-.72.72c-.29.29-.77.29-1.06 0a.754.754 0 0 1 0-1.06l2-2c.07-.06.14-.11.22-.15.02-.01.05-.02.07-.03.06-.02.12-.03.19-.04h.08c.08 0 .16.02.24.05h.02c.08.03.16.09.22.15.01.01.02.01.02.02l2 2c.29.29.29.77 0 1.06Z" fill="#292D32"/><path d="M17.43 8.81c.95.01 2.27.01 3.4.01.57 0 .87-.67.47-1.07-1.44-1.45-4.02-4.06-5.5-5.54-.41-.41-1.12-.13-1.12.44v3.49c0 1.46 1.24 2.67 2.75 2.67Z" fill="#292D32"/></svg>