<svg width="24" height="24" fill="none" xmlns="http://www.w3.org/2000/svg"><path d="M16.19 2H7.81C4.17 2 2 4.17 2 7.81v8.37C2 19.83 4.17 22 7.81 22h8.37c3.64 0 5.81-2.17 5.81-5.81V7.81C22 4.17 19.83 2 16.19 2Zm-5.24 15.51c-.29.29-.84.57-1.24.63l-2.46.35c-.09.01-.18.02-.27.02-.41 0-.79-.14-1.06-.41-.33-.33-.47-.81-.39-1.34l.35-2.46c.06-.41.33-.95.63-1.24l4.46-4.46a7.546 7.546 0 0 0 .6 1.29c.1.17.21.33.3.45.11.17.24.33.32.42.05.07.09.12.11.14.25.3.54.58.79.79.07.07.11.11.13.12.15.12.3.24.43.33.16.12.32.23.49.32.2.12.42.23.64.34.23.1.44.19.65.26l-4.48 4.45Zm6.42-6.42-.92.93a.31.31 0 0 1-.22.09c-.03 0-.07 0-.09-.01a6.202 6.202 0 0 1-4.23-4.23c-.03-.11 0-.23.08-.3l.93-.93c1.52-1.52 2.97-1.49 4.46 0 .76.76 1.13 1.49 1.13 2.25-.01.72-.38 1.44-1.14 2.2Z" fill="#292D32"/></svg>