<svg width="24" height="24" fill="none" xmlns="http://www.w3.org/2000/svg"><path d="M7.75 3.5V2c0-.41-.34-.75-.75-.75s-.75.34-.75.75v1.56c.25-.03.48-.06.75-.06h.75ZM15.75 3.56V2c0-.41-.34-.75-.75-.75s-.75.34-.75.75v1.5H15c.27 0 .5.03.75.06ZM21.29 14.97a4.491 4.491 0 0 0-5.6.02c-1.04.82-1.69 2.1-1.69 3.51 0 .84.24 1.65.65 2.31.32.52.73.98 1.22 1.33.74.54 1.64.86 2.63.86 1.14 0 2.17-.42 2.96-1.12.35-.29.65-.65.89-1.06a4.49 4.49 0 0 0-1.06-5.85Zm-2.79 5.67c0-1.18-.96-2.14-2.14-2.14 1.18 0 2.14-.96 2.14-2.14 0 1.18.96 2.14 2.14 2.14-1.18 0-2.14.96-2.14 2.14Z" fill="#292D32"/><path d="M15.75 3.56V5c0 .41-.34.75-.75.75s-.75-.34-.75-.75V3.5h-6.5V5c0 .41-.34.75-.75.75s-.75-.34-.75-.75V3.56C3.3 3.83 2 5.73 2 8.5V17c0 3 1.5 5 5 5h4.13c.76 0 1.27-.85 1.08-1.59-.14-.54-.21-1.1-.21-1.66 0-2.08.93-4 2.54-5.27A6.706 6.706 0 0 1 18.75 12h.04c.63 0 1.21-.46 1.21-1.09V8.5c0-2.77-1.3-4.67-4.25-4.94ZM9 16.75H7c-.41 0-.75-.34-.75-.75s.34-.75.75-.75h2c.41 0 .75.34.75.75s-.34.75-.75.75Zm3-5H7c-.41 0-.75-.34-.75-.75s.34-.75.75-.75h5c.41 0 .75.34.75.75s-.34.75-.75.75Z" fill="#292D32"/></svg>