<svg width="24" height="24" fill="none" xmlns="http://www.w3.org/2000/svg"><path d="M5.97 1H3.03C1.76 1 1 1.76 1 3.03v2.94C1 7.24 1.76 8 3.03 8h2.94C7.24 8 8 7.24 8 5.97V3.03C8 1.76 7.24 1 5.97 1Zm.5 4.56c.25.25.25.66 0 .91a.661.661 0 0 1-.91 0L4.49 5.41 3.45 6.47a.674.674 0 0 1-.92 0 .646.646 0 0 1 0-.91L3.6 4.5 2.54 3.45a.646.646 0 0 1 0-.91c.25-.25.66-.25.91 0L4.49 3.6l1.06-1.06c.25-.25.66-.25.91 0s.25.66 0 .91L5.41 4.5l1.06 1.06ZM21.5 15.82c0 .15-.05.3-.18.43l-5.51 5.55c-.13.14-.3.2-.47.2-.33 0-.65-.26-.65-.64v-3.5c0-1.46 1.24-2.67 2.76-2.67.95-.01 2.27-.01 3.4-.01.39 0 .65.31.65.64Z" fill="#292D32"/><path d="M21.5 15.82c0 .15-.05.3-.18.43l-5.51 5.55c-.13.14-.3.2-.47.2-.33 0-.65-.26-.65-.64v-3.5c0-1.46 1.24-2.67 2.76-2.67.95-.01 2.27-.01 3.4-.01.39 0 .65.31.65.64Z" fill="#292D32"/><path d="M16.63 2H10.5c-.55 0-1 .45-1 1v3.5c0 1.66-1.34 3-3 3h-3c-.55 0-1 .45-1 1v6.63A4.87 4.87 0 0 0 7.37 22h4.82c.55 0 1-.45 1-1v-3.14c0-2.3 1.91-4.17 4.26-4.17.53-.01 1.82-.01 3.05-.01.55 0 1-.44 1-1V6.87A4.87 4.87 0 0 0 16.63 2ZM8.72 17.01H6.08a.755.755 0 0 1 0-1.51h2.64c.43 0 .75.34.75.76 0 .41-.32.75-.75.75Zm2.79-3.71H6.08a.755.755 0 0 1 0-1.51h5.43c.41 0 .76.34.76.76 0 .41-.35.75-.76.75Z" fill="#292D32"/></svg>