<svg width="24" height="24" fill="none" xmlns="http://www.w3.org/2000/svg"><path d="M20 19.261h-9.07c-.45 0-.82-.37-.82-.82 0-.45.37-.82.82-.82H20c.45 0 .82.37.82.82 0 .46-.37.82-.82.82ZM20 12.968h-9.07c-.45 0-.82-.37-.82-.82 0-.45.37-.82.82-.82H20c.45 0 .82.37.82.82 0 .45-.37.82-.82.82ZM20 6.671h-9.07c-.45 0-.82-.37-.82-.82 0-.45.37-.82.82-.82H20c.45 0 .82.37.82.82 0 .45-.37.82-.82.82ZM4.91 8.032c-.22 0-.43-.09-.58-.24l-.91-.91a.82.82 0 0 1 1.16-1.16l.33.33 2.14-2.14a.82.82 0 0 1 1.16 1.16l-2.72 2.72c-.16.15-.36.24-.58.24ZM4.91 14.329c-.21 0-.42-.08-.58-.24l-.91-.91a.82.82 0 0 1 1.16-1.16l.33.33 2.14-2.14a.82.82 0 0 1 1.16 1.16l-2.72 2.72c-.16.16-.37.24-.58.24ZM4.91 20.329c-.21 0-.42-.08-.58-.24l-.91-.91a.82.82 0 0 1 1.16-1.16l.33.33 2.14-2.14a.821.821 0 0 1 1.16 1.16l-2.72 2.72c-.16.16-.37.24-.58.24Z" fill="#292D32"/></svg>