<svg width="24" height="24" fill="none" xmlns="http://www.w3.org/2000/svg"><path d="M21.769 2.229c-.3-.3-.79-.3-1.09 0l-18.45 18.46c-.3.3-.3.79 0 1.09a.758.758 0 0 0 1.08-.01l18.46-18.46c.31-.3.31-.78 0-1.08Z" fill="#292D32"/><path opacity=".4" d="m21.749 9.99-.52 8.26c-.13 2.06-1.23 3.75-3.99 3.75H6.759c-.59 0-1.1-.08-1.54-.22l15.03-15.03c.98.73 1.59 1.92 1.5 3.24ZM18 6 3.48 20.52c-.45-.63-.66-1.42-.71-2.27l-.52-8.26A3.753 3.753 0 0 1 6 6c.61 0 1.17-.35 1.45-.89l.72-1.45C8.63 2.75 9.83 2 10.86 2h2.29c1.02 0 2.22.75 2.68 1.66l.72 1.45c.28.54.84.89 1.45.89Z" fill="#292D32"/><path d="M9.5 10.75h-3c-.41 0-.75-.34-.75-.75s.34-.75.75-.75h3c.41 0 .75.34.75.75s-.34.75-.75.75ZM12.569 11.429l-3.89 3.89a3.372 3.372 0 0 1 3.89-3.89ZM15.38 14.75A3.38 3.38 0 0 1 12 18.12c-.87 0-1.66-.33-2.25-.87l4.75-4.75c.55.59.88 1.38.88 2.25Z" fill="#292D32"/></svg>