<svg width="24" height="24" fill="none" xmlns="http://www.w3.org/2000/svg"><path opacity=".4" d="M16.192 2h-8.37c-3.64 0-5.81 2.17-5.81 5.81v8.37c0 3.64 2.17 5.81 5.81 5.81h8.37c3.64 0 5.81-2.17 5.81-5.81V7.81c0-3.64-2.17-5.81-5.81-5.81Z" fill="#292D32"/><path d="m14.17 11.992 3.6-2.69a.75.75 0 0 0-.9-1.2l-3.95 2.95-2.4-1.8c.01-.09.03-.18.03-.28a2.3 2.3 0 1 0-2.3 2.3c.62 0 1.18-.25 1.6-.65l1.83 1.37-1.84 1.38a2.3 2.3 0 0 0-1.58-.64 2.3 2.3 0 1 0 2.3 2.3c0-.1-.02-.2-.03-.3l2.41-1.8 3.95 2.95c.13.1.29.15.45.15a.75.75 0 0 0 .45-1.35l-3.62-2.69Z" fill="#292D32"/></svg>