<svg width="24" height="24" fill="none" xmlns="http://www.w3.org/2000/svg"><path d="M21.999 13.899v2.29c0 3.64-2.17 5.81-5.81 5.81h-8.38c-2.55 0-4.39-1.07-5.25-2.97l.11-.08 4.92-3.3c.8-.54 1.93-.48 2.64.14l.34.28c.78.67 2.04.67 2.82 0l4.16-3.57c.78-.67 2.04-.67 2.82 0l1.63 1.4Z" fill="#292D32"/><path opacity=".4" d="M20.97 8h-2.94C16.76 8 16 7.24 16 5.97V3.03c0-.4.08-.74.22-1.03H7.81C4.17 2 2 4.17 2 7.81v8.38c0 1.09.19 2.04.56 2.84l.11-.08 4.92-3.3c.8-.54 1.93-.48 2.64.14l.34.28c.78.67 2.04.67 2.82 0l4.16-3.57c.78-.67 2.04-.67 2.82 0L22 13.9V7.78c-.29.14-.63.22-1.03.22Z" fill="#292D32"/><path d="M9.001 10.381a2.38 2.38 0 1 0 0-4.76 2.38 2.38 0 0 0 0 4.76ZM20.97 1h-2.94C16.76 1 16 1.76 16 3.03v2.94C16 7.24 16.76 8 18.03 8h2.94C22.24 8 23 7.24 23 5.97V3.03C23 1.76 22.24 1 20.97 1Zm-1.96 5.57c-.03.03-.1.07-.15.07l-1.04.15c-.03.01-.07.01-.1.01-.15 0-.28-.05-.37-.15a.528.528 0 0 1-.14-.47l.15-1.04c.01-.05.04-.12.07-.15l1.7-1.7c.03.07.06.15.09.23.04.08.08.15.12.22.03.06.07.12.11.16.04.06.08.12.11.15a1.848 1.848 0 0 0 .32.33c.02.02.04.04.05.04.05.04.11.09.15.12.06.04.11.08.17.11.07.04.15.08.23.12.08.04.16.07.23.09l-1.7 1.71Zm2.39-2.39-.32.32a.09.09 0 0 1-.08.04h-.03c-.72-.21-1.29-.78-1.5-1.5-.01-.04 0-.08.03-.11l.33-.33c.54-.54 1.05-.53 1.58 0 .27.27.4.53.4.79-.01.26-.14.52-.41.79Z" fill="#292D32"/></svg>