<svg width="24" height="24" fill="none" xmlns="http://www.w3.org/2000/svg"><path opacity=".4" d="M22 7.81v6.09l-1.63-1.4c-.78-.67-2.04-.67-2.82 0l-4.16 3.57c-.78.67-2.04.67-2.82 0l-.34-.28c-.71-.62-1.84-.68-2.64-.14l-4.92 3.3-.11.08c-.37-.8-.56-1.75-.56-2.84V7.81C2 4.17 4.17 2 7.81 2h8.38C19.83 2 22 4.17 22 7.81Z" fill="#292D32"/><path d="M9.001 10.381a2.38 2.38 0 1 0 0-4.76 2.38 2.38 0 0 0 0 4.76ZM21.999 13.899v2.29c0 3.64-2.17 5.81-5.81 5.81h-8.38c-2.55 0-4.39-1.07-5.25-2.97l.11-.08 4.92-3.3c.8-.54 1.93-.48 2.64.14l.34.28c.78.67 2.04.67 2.82 0l4.16-3.57c.78-.67 2.04-.67 2.82 0l1.63 1.4Z" fill="#292D32"/></svg>