<svg width="24" height="24" fill="none" xmlns="http://www.w3.org/2000/svg"><path opacity=".4" d="M16.192 2h-8.37c-3.64 0-5.81 2.17-5.81 5.81v8.37c0 3.64 2.17 5.81 5.81 5.81h8.37c3.64 0 5.81-2.17 5.81-5.81V7.81c0-3.64-2.17-5.81-5.81-5.81Z" fill="#292D32"/><path d="M16.139 6.711c-.34-.26-.94-.51-1.9-.25l-2.99.82c-.93.25-1.54 1.04-1.54 2.01v3.78c-.21-.06-.42-.1-.65-.1-1.29 0-2.34 1.05-2.34 2.34 0 1.29 1.05 2.34 2.34 2.34a2.35 2.35 0 0 0 2.34-2.31c0-.01.01-.02.01-.03v-3.62l3.78-1.03v1.42c-.21-.06-.42-.1-.65-.1-1.29 0-2.34 1.05-2.34 2.34 0 1.29 1.05 2.34 2.34 2.34 1.29 0 2.34-1.05 2.34-2.34v-5.83c0-1-.41-1.52-.74-1.78Zm-7.08 9.25a.649.649 0 1 1 0-1.3.649.649 0 1 1 0 1.3Zm5.48-1c-.36 0-.65-.29-.65-.65 0-.36.29-.65.65-.65.36 0 .65.29.65.65-.01.36-.3.65-.65.65Z" fill="#292D32"/></svg>