<svg width="24" height="24" fill="none" xmlns="http://www.w3.org/2000/svg"><path d="m22.79 21.76-.72-.72a3.576 3.576 0 0 0-2.99-5.54c-1.98 0-3.58 1.6-3.58 3.58a3.576 3.576 0 0 0 5.54 2.99l.72.72a.728.728 0 0 0 1.03-1.03Z" fill="#292D32"/><path opacity=".4" d="M16.192 2h-8.37c-3.64 0-5.81 2.17-5.81 5.81v8.37c0 3.64 2.17 5.81 5.81 5.81h8.37c3.64 0 5.81-2.17 5.81-5.81V7.81c0-3.64-2.17-5.81-5.81-5.81Z" fill="#292D32"/><path d="M13.781 5.299c-.32-.25-.9-.49-1.82-.24l-2.98.82c-.89.23-1.47.98-1.47 1.92v3.91c-.23-.08-.48-.14-.74-.14-1.24 0-2.24 1.01-2.24 2.24a2.25 2.25 0 0 0 2.24 2.24c1.22 0 2.22-.99 2.24-2.2 0-.01.01-.02.01-.03v-3.7l3.97-1.08v1.68c-.23-.08-.48-.14-.75-.14-1.24 0-2.24 1.01-2.24 2.24 0 1.24 1.01 2.24 2.24 2.24 1.22 0 2.22-.99 2.24-2.21 0-.01.01-.02.01-.04v-5.83c-.01-.76-.25-1.33-.71-1.68Zm-7.02 9.25c-.41 0-.74-.33-.74-.74s.33-.74.74-.74.74.33.74.74-.33.74-.74.74Zm5.47-1c-.41 0-.74-.33-.74-.74s.33-.74.74-.74.74.33.74.74-.33.74-.74.74Z" fill="#292D32"/></svg>