<svg width="24" height="24" fill="none" xmlns="http://www.w3.org/2000/svg"><path d="M19.21 15.012c-1.09-.07-2.21.33-3.04 1.16a4.008 4.008 0 0 0 0 5.66c.53.53 1.18.88 1.87 1.05.38.1.78.13 1.18.11.95-.04 1.88-.42 2.61-1.15a3.98 3.98 0 0 0 1.05-3.79c-.16-.69-.52-1.34-1.05-1.87a3.952 3.952 0 0 0-2.62-1.17Zm2.03 3.97c0 .21-.08.39-.22.53s-.32.22-.53.22h-.74v.78c0 .21-.08.39-.22.53s-.32.22-.53.22c-.41 0-.75-.34-.75-.75v-.78h-.75c-.41 0-.75-.34-.75-.75s.34-.75.75-.75h.75v-.71c0-.41.34-.75.75-.75s.75.34.75.75v.71h.74c.42 0 .75.34.75.75Z" fill="#292D32"/><path opacity=".4" d="M16.34 21.97c-.3-.26-.56-.57-.76-.91A3.92 3.92 0 0 1 15 19c0-2.21 1.79-4 4-4 1.18 0 2.25.51 2.97 1.33.01.01.01.02.02.02 0-.06.01-.11.01-.16V7.81C22 4.17 19.83 2 16.19 2H7.81c-.28 0-.55.01-.81.05-3.15.29-5 2.4-5 5.76v8.38c0 3.36 1.85 5.47 5 5.76.26.04.53.05.81.05h8.38c.06 0 .11-.01.17-.01 0-.01-.01-.01-.02-.02Z" fill="#292D32"/><path d="M13.781 5.299c-.32-.25-.9-.49-1.82-.24l-2.98.82c-.89.23-1.47.98-1.47 1.92v3.91c-.23-.08-.48-.14-.74-.14-1.24 0-2.24 1.01-2.24 2.24a2.25 2.25 0 0 0 2.24 2.24c1.22 0 2.22-.99 2.24-2.2 0-.01.01-.02.01-.03v-3.7l3.97-1.08v1.68c-.23-.08-.48-.14-.75-.14-1.24 0-2.24 1.01-2.24 2.24 0 1.24 1.01 2.24 2.24 2.24 1.22 0 2.22-.99 2.24-2.21 0-.01.01-.02.01-.04v-5.83c-.01-.76-.25-1.33-.71-1.68Zm-7.02 9.25c-.41 0-.74-.33-.74-.74s.33-.74.74-.74.74.33.74.74-.33.74-.74.74Zm5.47-1c-.41 0-.74-.33-.74-.74s.33-.74.74-.74.74.33.74.74-.33.74-.74.74Z" fill="#292D32"/></svg>