<svg width="24" height="24" fill="none" xmlns="http://www.w3.org/2000/svg"><path opacity=".4" d="M22 3.75H2c-.41 0-.75-.34-.75-.75s.34-.75.75-.75h20c.41 0 .75.34.75.75s-.34.75-.75.75ZM11 9.75H2c-.41 0-.75-.34-.75-.75s.34-.75.75-.75h9c.41 0 .75.34.75.75s-.34.75-.75.75ZM8 15.75H2c-.41 0-.75-.34-.75-.75s.34-.75.75-.75h6c.41 0 .75.34.75.75s-.34.75-.75.75ZM6 21.75H2c-.41 0-.75-.34-.75-.75s.34-.75.75-.75h4c.41 0 .75.34.75.75s-.34.75-.75.75Z" fill="#292D32"/><path d="M21.86 7.678c-.59-.45-1.4-.54-2.35-.28l-4.35 1.18c-1.17.32-1.89 1.27-1.89 2.47v6.23c-.42-.24-.91-.39-1.43-.39-1.61 0-2.93 1.31-2.93 2.93 0 1.61 1.31 2.93 2.93 2.93s2.93-1.31 2.93-2.93v-5.65l6.48-1.77v3.43c-.42-.24-.91-.39-1.43-.39-1.61 0-2.93 1.31-2.93 2.93 0 1.61 1.31 2.93 2.93 2.93s2.93-1.31 2.93-2.93v-8.5c0-1.01-.3-1.75-.89-2.19Zm-10.02 13.57a1.43 1.43 0 1 1 0-2.86 1.43 1.43 0 0 1 0 2.86Zm7.98-1.45a1.43 1.43 0 1 1 0-2.86 1.43 1.43 0 0 1 0 2.86Z" fill="#292D32"/></svg>