<svg width="24" height="24" fill="none" xmlns="http://www.w3.org/2000/svg"><path d="M18 5.25H6c-.41 0-.75-.34-.75-.75s.34-.75.75-.75h12c.41 0 .75.34.75.75s-.34.75-.75.75ZM15 2.75H9c-.41 0-.75-.34-.75-.75s.34-.75.75-.75h6c.41 0 .75.34.75.75s-.34.75-.75.75Z" fill="#292D32"/><path opacity=".4" d="M18 7H6c-2.2 0-4 1.8-4 4v7c0 2.2 1.8 4 4 4h12c2.2 0 4-1.8 4-4v-7c0-2.2-1.8-4-4-4Z" fill="#292D32"/><path d="M15.37 9.89c-.3-.24-.85-.47-1.73-.24l-2.73.75c-.85.22-1.4.94-1.4 1.83v3.5c-.2-.06-.4-.1-.62-.1a2.121 2.121 0 0 0 0 4.24c1.17 0 2.12-.95 2.12-2.12v-3.34l3.52-.96v1.37c-.2-.06-.4-.1-.62-.1a2.121 2.121 0 0 0 0 4.24c1.15 0 2.09-.92 2.11-2.07 0-.02.01-.03.01-.05v-5.35c0-.9-.36-1.37-.66-1.6Zm-6.48 8.47c-.34 0-.62-.28-.62-.62a.621.621 0 0 1 1.24-.01c0 .35-.28.63-.62.63Zm5.02-.91c-.34 0-.62-.28-.62-.62 0-.34.28-.62.62-.62.34 0 .62.28.62.62 0 .34-.28.62-.62.62Z" fill="#292D32"/></svg>