<svg width="24" height="24" fill="none" xmlns="http://www.w3.org/2000/svg"><path d="M21.97 16.33A3.944 3.944 0 0 0 19 15c-2.21 0-4 1.79-4 4 0 .75.21 1.46.58 2.06.2.34.46.65.76.91.7.64 1.63 1.03 2.66 1.03 1.46 0 2.73-.78 3.42-1.94.37-.6.58-1.31.58-2.06 0-1.02-.39-1.96-1.03-2.67Zm-1.37 4.25c-.15.15-.34.22-.53.22s-.38-.07-.53-.22l-.53-.53-.55.55c-.15.15-.34.22-.53.22s-.38-.07-.53-.22a.754.754 0 0 1 0-1.06l.55-.55-.53-.53a.754.754 0 0 1 0-1.06c.29-.29.77-.29 1.06 0l.53.53.5-.5c.29-.29.77-.29 1.06 0 .29.29.29.77 0 1.06l-.5.5.53.53c.29.29.29.76 0 1.06Z" fill="#292D32"/><path opacity=".4" d="M16.34 21.97c-.3-.26-.56-.57-.76-.91A3.92 3.92 0 0 1 15 19c0-2.21 1.79-4 4-4 1.18 0 2.25.51 2.97 1.33.01.01.01.02.02.02 0-.06.01-.11.01-.16V7.81C22 4.17 19.83 2 16.19 2H7.81c-.28 0-.55.01-.81.05-3.15.29-5 2.4-5 5.76v8.38c0 3.36 1.85 5.47 5 5.76.26.04.53.05.81.05h8.38c.06 0 .11-.01.17-.01 0-.01-.01-.01-.02-.02Z" fill="#292D32"/><path d="M13.781 5.299c-.32-.25-.9-.49-1.82-.24l-2.98.82c-.89.23-1.47.98-1.47 1.92v3.91c-.23-.08-.48-.14-.74-.14-1.24 0-2.24 1.01-2.24 2.24a2.25 2.25 0 0 0 2.24 2.24c1.22 0 2.22-.99 2.24-2.2 0-.01.01-.02.01-.03v-3.7l3.97-1.08v1.68c-.23-.08-.48-.14-.75-.14-1.24 0-2.24 1.01-2.24 2.24 0 1.24 1.01 2.24 2.24 2.24 1.22 0 2.22-.99 2.24-2.21 0-.01.01-.02.01-.04v-5.83c-.01-.76-.25-1.33-.71-1.68Zm-7.02 9.25c-.41 0-.74-.33-.74-.74s.33-.74.74-.74.74.33.74.74-.33.74-.74.74Zm5.47-1c-.41 0-.74-.33-.74-.74s.33-.74.74-.74.74.33.74.74-.33.74-.74.74Z" fill="#292D32"/></svg>