<svg width="24" height="24" fill="none" xmlns="http://www.w3.org/2000/svg"><path d="M21.28 15.72c-.65-.45-1.44-.72-2.28-.72-.94 0-1.81.33-2.5.88A3.97 3.97 0 0 0 15 19c0 .75.21 1.46.58 2.06.04.07.09.14.15.21A3.93 3.93 0 0 0 19 23c1.01 0 1.93-.37 2.63-1 .31-.26.58-.58.79-.94.37-.6.58-1.31.58-2.06 0-1.36-.68-2.56-1.72-3.28Zm-.68 4.86c-.15.15-.34.22-.53.22s-.38-.07-.53-.22l-.53-.53-.55.55c-.15.15-.34.22-.53.22s-.38-.07-.53-.22a.754.754 0 0 1 0-1.06l.55-.55-.53-.53a.754.754 0 0 1 0-1.06c.29-.29.77-.29 1.06 0l.53.53.5-.5c.29-.29.77-.29 1.06 0 .29.29.29.77 0 1.06l-.5.5.53.53c.29.29.29.76 0 1.06Z" fill="#292D32"/><path opacity=".4" d="M22 12c0 1.31-.25 2.57-.72 3.72-.65-.45-1.44-.72-2.28-.72-.94 0-1.81.33-2.5.88A3.97 3.97 0 0 0 15 19c0 .75.21 1.46.58 2.06.04.07.09.14.15.21A9.84 9.84 0 0 1 12 22C6.48 22 2 17.52 2 12S6.48 2 12 2s10 4.48 10 10Z" fill="#292D32"/><path d="M9.379 12.002v-1.39c0-1.72 1.22-2.43 2.71-1.57l1.2.69 1.2.69c1.49.86 1.49 2.27 0 3.13l-1.2.69-1.2.69c-1.49.86-2.71.16-2.71-1.57v-1.36Z" fill="#292D32"/></svg>