<svg width="24" height="24" fill="none" xmlns="http://www.w3.org/2000/svg"><path opacity=".4" d="M3.66 16.931c-.19 0-.38-.07-.53-.22A7.244 7.244 0 0 1 1 11.581c0-4.01 3.25-7.27 7.25-7.27l6.07.02-1.09-1.04a.746.746 0 0 1-.02-1.06c.29-.3.76-.31 1.06-.02l2.44 2.34c.22.21.29.54.18.82-.11.28-.39.47-.7.47l-7.95-.02c-3.17 0-5.75 2.59-5.75 5.77 0 1.53.6 2.98 1.69 4.07.29.29.29.77 0 1.06-.14.14-.33.21-.52.21ZM9.75 21.5c-.19 0-.37-.07-.52-.21l-2.44-2.34a.76.76 0 0 1-.18-.82c.11-.28.39-.47.7-.47l7.95.02c3.17 0 5.75-2.59 5.75-5.77 0-1.53-.6-2.98-1.69-4.07a.754.754 0 0 1 0-1.06c.29-.29.77-.29 1.06 0a7.244 7.244 0 0 1 2.13 5.13c0 4.01-3.25 7.27-7.25 7.27l-6.07-.02 1.09 1.04c.3.29.31.76.02 1.06-.16.16-.35.24-.55.24Z" fill="#292D32"/><path d="M9 15.5h6c1.93 0 3.5-1.58 3.5-3.5S16.93 8.5 15 8.5H9A3.51 3.51 0 0 0 5.5 12c0 1.92 1.57 3.5 3.5 3.5Z" fill="#292D32"/></svg>