<svg width="24" height="24" fill="none" xmlns="http://www.w3.org/2000/svg"><path d="M21.98 15.67c-.04-.06-.09-.12-.14-.17-.81-.93-2.01-1.5-3.34-1.5-1.26 0-2.41.52-3.23 1.36a4.5 4.5 0 0 0-.62 5.46c.23.38.52.73.86 1.02.05.05.1.09.16.14h.01A4.35 4.35 0 0 0 18.5 23c1.64 0 3.07-.88 3.85-2.18.23-.39.41-.82.52-1.27a4.417 4.417 0 0 0-.89-3.88Zm-1.75 4.54c-.15.15-.34.22-.53.22s-.38-.07-.53-.22l-.66-.66-.69.69c-.15.15-.34.22-.53.22s-.38-.07-.53-.22a.754.754 0 0 1 0-1.06l.69-.69-.66-.66a.754.754 0 0 1 0-1.06c.29-.29.77-.29 1.06 0l.66.66.63-.63c.29-.29.77-.29 1.06 0 .29.29.29.77 0 1.06l-.63.63.66.66c.3.29.3.76 0 1.06Z" fill="#292D32"/><path opacity=".4" d="M22 7.81v7.89c0-.01-.01-.02-.02-.03-.04-.06-.09-.12-.14-.17-.01-.01-.02-.03-.03-.04-.81-.9-2-1.46-3.31-1.46-1.26 0-2.41.52-3.23 1.36a4.5 4.5 0 0 0-.62 5.46c.22.37.5.71.82.99.02.01.03.02.04.03.05.05.1.09.16.14h.01c.01.01.02.02.03.02h-7.9C4.17 22 2 19.83 2 16.19V7.81c0-.51.04-1 .13-1.45C2.64 3.61 4.67 2.01 7.77 2h8.46c3.1.01 5.13 1.61 5.64 4.36.09.45.13.94.13 1.45Z" fill="#292D32"/><path d="M22 7.81v.05H2v-.05c0-.51.04-1 .13-1.45h5.64V2h1.5v4.36h5.46V2h1.5v4.36h5.64c.09.45.13.94.13 1.45Z" fill="#292D32"/></svg>