<svg width="24" height="24" fill="none" xmlns="http://www.w3.org/2000/svg"><path opacity=".4" d="M22 7.81v7.89c0-.01-.01-.02-.02-.03-.04-.06-.09-.12-.14-.17-.01-.01-.02-.03-.03-.04-.81-.9-2-1.46-3.31-1.46-1.26 0-2.41.52-3.23 1.36a4.5 4.5 0 0 0-.62 5.46c.22.37.5.71.82.99.02.01.03.02.04.03.05.05.1.09.16.14h.01c.01.01.02.02.03.02h-7.9C4.17 22 2 19.83 2 16.19V7.81c0-.51.04-1 .13-1.45C2.64 3.61 4.67 2.01 7.77 2h8.46c3.1.01 5.13 1.61 5.64 4.36.09.45.13.94.13 1.45Z" fill="#292D32"/><path d="M22 7.81v.05H2v-.05c0-.51.04-1 .13-1.45h5.64V2h1.5v4.36h5.46V2h1.5v4.36h5.64c.09.45.13.94.13 1.45ZM22 15.7c0-.01-.01-.02-.02-.03-.04-.06-.09-.12-.14-.17-.01-.01-.02-.03-.03-.04-.81-.9-2-1.46-3.31-1.46-1.26 0-2.41.52-3.23 1.36a4.5 4.5 0 0 0-.62 5.46c.22.37.5.71.82.99.02.01.03.02.04.03.05.05.1.09.16.14h.01c.01.01.02.02.03.02.75.63 1.72 1 2.79 1 1.64 0 3.07-.88 3.85-2.18.23-.39.41-.82.52-1.27.09-.34.13-.69.13-1.05 0-1.06-.37-2.04-1-2.8Zm-1.82 3.53h-.93v.97c0 .41-.34.75-.75.75s-.75-.34-.75-.75v-.97h-.93c-.41 0-.75-.34-.75-.75s.34-.75.75-.75h.93v-.89c0-.41.34-.75.75-.75s.75.34.75.75v.89h.93a.749.749 0 1 1 0 1.5Z" fill="#292D32"/></svg>