<svg width="24" height="24" fill="none" xmlns="http://www.w3.org/2000/svg"><path d="M21.98 15.65A4.46 4.46 0 0 0 18.5 14c-1.06 0-2.04.37-2.81.99A4.448 4.448 0 0 0 14 18.5a4.5 4.5 0 0 0 1.66 3.48h.01c.77.64 1.76 1.02 2.83 1.02 1.14 0 2.17-.42 2.96-1.12A4.5 4.5 0 0 0 23 18.5c0-1.08-.38-2.08-1.02-2.85Zm-1.22 2.29-2.4 2.22c-.14.13-.33.2-.51.2-.19 0-.38-.07-.53-.22l-1.11-1.11a.754.754 0 0 1 0-1.06c.29-.29.77-.29 1.06 0l.6.6 1.87-1.73c.3-.28.78-.26 1.06.04.29.31.27.78-.04 1.06Z" fill="#292D32"/><path opacity=".4" d="M22 7.81v7.89c0-.01-.01-.02-.02-.03-.04-.06-.09-.12-.14-.17-.01-.01-.02-.03-.03-.04-.81-.9-2-1.46-3.31-1.46-1.26 0-2.41.52-3.23 1.36a4.5 4.5 0 0 0-.62 5.46c.22.37.5.71.82.99.02.01.03.02.04.03.05.05.1.09.16.14h.01c.01.01.02.02.03.02h-7.9C4.17 22 2 19.83 2 16.19V7.81c0-.51.04-1 .13-1.45C2.64 3.61 4.67 2.01 7.77 2h8.46c3.1.01 5.13 1.61 5.64 4.36.09.45.13.94.13 1.45Z" fill="#292D32"/><path d="M22 7.81v.05H2v-.05c0-.51.04-1 .13-1.45h5.64V2h1.5v4.36h5.46V2h1.5v4.36h5.64c.09.45.13.94.13 1.45Z" fill="#292D32"/></svg>