<svg width="24" height="24" fill="none" xmlns="http://www.w3.org/2000/svg"><path opacity=".4" d="M17.65 6.56 4.2 20.01c-1.4-.89-1.95-2.48-1.95-4.01V8c0-3.42 1.33-4.75 4.75-4.75h6c2.89 0 4.29.95 4.65 3.31ZM17.75 9.25V16c0 .08-.01.14-.01.21 0 .07-.01.14-.01.21h.01c-.11 3.11-1.46 4.33-4.74 4.33H7c-.25 0-.48-.01-.71-.04L17.75 9.25Z" fill="#292D32"/><path opacity=".4" d="M17.73 16.42c0-.07.01-.14.01-.21.01.07.01.14 0 .21h-.01ZM17.74 7.57c.01.07.01.15 0 .22 0-.07-.01-.14-.01-.21l.01-.01Z" fill="#292D32"/><path d="M22.75 8.38v7.24c0 1.43-.69 2-1.1 2.21-.19.1-.48.21-.85.21-.43 0-.97-.14-1.59-.58l-1.47-1.04h-.01c0-.07.01-.14.01-.21 0-.07.01-.13.01-.21V9.25l3.27-3.27c.27.02.48.1.63.19.41.21 1.1.78 1.1 2.21ZM21.769 2.229c-.3-.3-.79-.3-1.09 0l-18.45 18.46c-.3.3-.3.79 0 1.09a.758.758 0 0 0 1.08-.01l18.46-18.46c.31-.3.31-.78 0-1.08Z" fill="#292D32"/></svg>