<svg width="24" height="24" fill="none" xmlns="http://www.w3.org/2000/svg"><path opacity=".4" d="M22 7.81v8.38c0 .06 0 .12-.01.17 0 .54-.06 1.04-.17 1.5-.47 2.16-1.91 3.56-4.1 3.99-.47.1-.97.15-1.5.15h-8.5c-.53-.01-1.03-.06-1.5-.16-2.15-.44-3.57-1.84-4.04-3.98-.11-.46-.17-.96-.17-1.5-.01-.05-.01-.11-.01-.17V7.81c0-.51.04-1 .13-1.45C2.55 4.1 4 2.62 6.22 2.16c.47-.11.97-.16 1.5-.16h8.51c.53 0 1.03.05 1.49.15 2.26.44 3.73 1.93 4.15 4.21.09.45.13.94.13 1.45Z" fill="#292D32"/><path d="M12.75 7.86v8.5h9.24c0 .54-.06 1.04-.17 1.5h-4.1v3.99c-.47.1-.97.15-1.5.15v-4.14h-3.47V22h-1.5v-4.14H7.72V22c-.53-.01-1.03-.06-1.5-.16v-3.98H2.18c-.11-.46-.17-.96-.17-1.5h9.24v-8.5H2v-.05c0-.51.04-1 .13-1.45h4.11c-.01-.04-.02-.08-.02-.12V2.16c.47-.11.97-.16 1.5-.16v4.24c0 .04-.02.08-.03.12h3.56V2h1.5v4.36h3.47V2h.01c.53 0 1.03.05 1.49.15v4.18c0 .01-.01.02-.01.03h4.16c.09.45.13.94.13 1.45v.05h-9.25Z" fill="#292D32"/></svg>