<svg width="24" height="24" fill="none" xmlns="http://www.w3.org/2000/svg"><path opacity=".4" d="M7.81 2h8.38c.06 0 .12 0 .17.01.54 0 1.04.06 1.5.17 2.16.47 3.56 1.91 3.99 4.1.1.47.15.97.15 1.5v8.5c-.01.53-.06 1.03-.16 1.5-.44 2.15-1.84 3.57-3.98 4.04-.46.11-.96.17-1.5.17-.05.01-.11.01-.17.01H7.81c-.51 0-1-.04-1.45-.13-2.26-.42-3.74-1.87-4.2-4.09-.11-.47-.16-.97-.16-1.5V7.77c0-.53.05-1.03.15-1.49.44-2.26 1.93-3.73 4.21-4.15.45-.09.94-.13 1.45-.13Z" fill="#292D32"/><path d="M7.86 11.25h8.5V2.01c.54 0 1.04.06 1.5.17v4.1h3.99c.1.47.15.97.15 1.5h-4.14v3.47H22v1.5h-4.14v3.53H22c-.01.53-.06 1.03-.16 1.5h-3.98v4.04c-.46.11-.96.17-1.5.17v-9.24h-8.5V22h-.05c-.51 0-1-.04-1.45-.13v-4.11c-.04.01-.08.02-.12.02H2.16c-.11-.47-.16-.97-.16-1.5h4.24c.04 0 .08.02.12.03v-3.56H2v-1.5h4.36V7.78H2v-.01c0-.53.05-1.03.15-1.49h4.18c.01 0 .02.01.03.01V2.13C6.81 2.04 7.3 2 7.81 2h.05v9.25Z" fill="#292D32"/></svg>