<svg width="24" height="24" fill="none" xmlns="http://www.w3.org/2000/svg"><path opacity=".4" d="M16.192 2h-8.37c-3.64 0-5.81 2.17-5.81 5.81v8.37c0 3.64 2.17 5.81 5.81 5.81h8.37c3.64 0 5.81-2.17 5.81-5.81V7.81c0-3.64-2.17-5.81-5.81-5.81Z" fill="#292D32"/><path d="M6 14.892c-.41 0-.75-.34-.75-.75v-4.29c0-.41.34-.75.75-.75s.75.34.75.75v4.29c0 .42-.34.75-.75.75ZM9 16.32c-.41 0-.75-.34-.75-.75V8.43c0-.41.34-.75.75-.75s.75.34.75.75v7.14c0 .42-.34.75-.75.75ZM12 17.75c-.41 0-.75-.34-.75-.75V7c0-.41.34-.75.75-.75s.75.34.75.75v10c0 .41-.34.75-.75.75ZM15 16.32c-.41 0-.75-.34-.75-.75V8.43c0-.41.34-.75.75-.75s.75.34.75.75v7.14c0 .42-.34.75-.75.75ZM18 14.892c-.41 0-.75-.34-.75-.75v-4.29c0-.41.34-.75.75-.75s.75.34.75.75v4.29c0 .42-.34.75-.75.75Z" fill="#292D32"/></svg>