<svg width="24" height="24" fill="none" xmlns="http://www.w3.org/2000/svg"><path opacity=".4" d="M12 22c5.523 0 10-4.477 10-10S17.523 2 12 2 2 6.477 2 12s4.477 10 10 10Z" fill="#292D32"/><path d="M6 14.892c-.41 0-.75-.34-.75-.75v-4.29c0-.41.34-.75.75-.75s.75.34.75.75v4.29c0 .42-.34.75-.75.75ZM9 16.32c-.41 0-.75-.34-.75-.75V8.43c0-.41.34-.75.75-.75s.75.34.75.75v7.14c0 .42-.34.75-.75.75ZM12 17.75c-.41 0-.75-.34-.75-.75V7c0-.41.34-.75.75-.75s.75.34.75.75v10c0 .41-.34.75-.75.75ZM15 16.32c-.41 0-.75-.34-.75-.75V8.43c0-.41.34-.75.75-.75s.75.34.75.75v7.14c0 .42-.34.75-.75.75ZM18 14.892c-.41 0-.75-.34-.75-.75v-4.29c0-.41.34-.75.75-.75s.75.34.75.75v4.29c0 .42-.34.75-.75.75Z" fill="#292D32"/></svg>