<svg width="24" height="24" fill="none" xmlns="http://www.w3.org/2000/svg"><path d="M15.72 9.69a5.251 5.251 0 0 0-7.44 0 5.25 5.25 0 0 0 0 7.44 5.251 5.251 0 0 0 7.44 0 5.25 5.25 0 0 0 0-7.44Zm-3.19 4.25-1.59 1.59c-.15.15-.34.22-.53.22s-.39-.07-.53-.22a.767.767 0 0 1 0-1.07l1.59-1.59c.29-.29.77-.29 1.07 0 .29.3.29.78-.01 1.07Z" fill="#292D32"/><path opacity=".4" d="M19.598 5.809c-.22-.22-.5-.34-.81-.34a1.14 1.14 0 0 0-.81 1.95c.22.22.5.34.81.34.31 0 .59-.12.81-.33.22-.22.34-.5.34-.81 0-.31-.12-.6-.34-.81ZM6.019 19.39c-.22-.22-.5-.34-.81-.34-.31 0-.59.12-.81.33-.22.22-.34.5-.34.81 0 .31.12.59.34.81a1.15 1.15 0 0 0 1.62-.01c.44-.43.44-1.16 0-1.6ZM22.41 12.602c-.21-.22-.5-.33-.81-.34-.31 0-.59.12-.81.34a1.14 1.14 0 0 0 .81 1.95 1.14 1.14 0 0 0 .81-1.95ZM3.211 12.6a1.15 1.15 0 0 0-1.62 0 1.14 1.14 0 0 0 .81 1.95c.29 0 .59-.11.81-.33.44-.45.44-1.18 0-1.62ZM19.598 19.388a1.14 1.14 0 0 0-1.62 0 1.14 1.14 0 0 0 .81 1.95 1.144 1.144 0 0 0 1.15-1.14c0-.31-.12-.6-.34-.81ZM6.019 5.809c-.22-.22-.5-.34-.81-.34-.31 0-.59.12-.81.33-.22.22-.34.5-.34.81 0 .31.12.59.33.81.22.22.5.34.81.34.31 0 .59-.12.81-.34.45-.44.45-1.17.01-1.61ZM12.812 3.002c0-.01 0-.01 0 0a1.14 1.14 0 0 0-1.62 0 1.144 1.144 0 0 0-.01 1.62c.22.22.5.34.81.34.31 0 .59-.12.81-.34.46-.45.46-1.18.01-1.62Z" fill="#292D32"/></svg>