<svg width="24" height="24" fill="none" xmlns="http://www.w3.org/2000/svg"><path d="M19.328 16.75a.75.75 0 0 1-.6-1.2 5.94 5.94 0 0 0 0-7.1.75.75 0 0 1 1.2-.9 7.44 7.44 0 0 1 0 8.9c-.14.2-.37.3-.6.3Z" fill="#292D32"/><path opacity=".4" d="M17.078 7.412v9.18c0 1.72-.62 3.01-1.73 3.63a3 3 0 0 1-1.47.37c-.8 0-1.66-.27-2.54-.82l-2.92-1.83c-.2-.12-.43-.19-.66-.19h-.93v-11.5h.93c.23 0 .46-.07.66-.19l2.92-1.83c1.46-.91 2.89-1.07 4.01-.45 1.11.62 1.73 1.91 1.73 3.63Z" fill="#292D32"/><path d="M6.828 6.25v11.5h-.5c-2.42 0-3.75-1.33-3.75-3.75v-4c0-2.42 1.33-3.75 3.75-3.75h.5Z" fill="#292D32"/></svg>