<svg width="24" height="24" fill="none" xmlns="http://www.w3.org/2000/svg"><path d="M22 12.75h-4c-.41 0-.75-.34-.75-.75s.34-.75.75-.75h4c.41 0 .75.34.75.75s-.34.75-.75.75Z" fill="#292D32"/><path opacity=".4" d="M15.75 7.412v9.18c0 1.72-.62 3.01-1.73 3.63a3 3 0 0 1-1.47.37c-.8 0-1.66-.27-2.54-.82l-2.92-1.83c-.2-.12-.43-.19-.66-.19H5.5v-11.5h.93c.23 0 .46-.07.66-.19l2.92-1.83c1.46-.91 2.89-1.07 4.01-.45 1.11.62 1.73 1.91 1.73 3.63Z" fill="#292D32"/><path d="M5.5 6.25v11.5H5c-2.42 0-3.75-1.33-3.75-3.75v-4c0-2.42 1.33-3.75 3.75-3.75h.5Z" fill="#292D32"/></svg>