<svg width="24" height="24" fill="none" xmlns="http://www.w3.org/2000/svg"><path d="M18 16.75a.75.75 0 0 1-.6-1.2 5.926 5.926 0 0 0 .72-5.84.75.75 0 0 1 .4-.98c.38-.16.82.02.98.4 1.02 2.42.67 5.23-.9 7.33-.15.19-.37.29-.6.29Z" fill="#292D32"/><path d="M19.828 19.25a.75.75 0 0 1-.6-1.2c2.14-2.85 2.61-6.67 1.23-9.96a.75.75 0 0 1 .4-.98c.38-.16.82.02.98.4 1.59 3.78 1.05 8.16-1.41 11.44-.14.2-.37.3-.6.3Z" fill="#292D32"/><path opacity=".4" d="M14.04 12.958c.63-.63 1.71-.18 1.71.71v2.93c0 1.72-.62 3.01-1.73 3.63a3 3 0 0 1-1.47.37c-.8 0-1.66-.27-2.54-.82l-.64-.4c-.54-.34-.63-1.1-.18-1.55l4.85-4.87ZM14.02 3.782c-1.12-.62-2.55-.46-4.01.45l-2.92 1.83c-.2.12-.43.19-.66.19H5c-2.42 0-3.75 1.33-3.75 3.75v4c0 2.42 1.33 3.75 3.75 3.75h1.25l9.5-9.5v-.84c0-1.72-.62-3.01-1.73-3.63Z" fill="#292D32"/><path d="M21.769 2.229c-.3-.3-.79-.3-1.09 0l-18.45 18.46c-.3.3-.3.79 0 1.09a.758.758 0 0 0 1.08-.01l18.46-18.46c.31-.3.31-.78 0-1.08Z" fill="#292D32"/></svg>