<svg width="24" height="24" fill="none" xmlns="http://www.w3.org/2000/svg"><path d="M11.4 2.35 6.25 7.5c-.2.2-.2.51 0 .71l1.73 1.73c.2.2.51.2.71 0l5.15-5.15c.2-.2.2-.51 0-.71l-1.73-1.73a.513.513 0 0 0-.71 0Z" stroke="#000" stroke-width="1.5" stroke-miterlimit="10" stroke-linecap="round" stroke-linejoin="round"/><path opacity=".4" d="m15.3 6.26-9.05 9.05c-.2.2-.2.51 0 .71l1.73 1.73c.2.2.51.2.71 0l9.05-9.05c.2-.2.2-.51 0-.71l-1.73-1.73c-.19-.2-.51-.2-.71 0Z" stroke="#000" stroke-width="1.5" stroke-miterlimit="10" stroke-linecap="round" stroke-linejoin="round"/><path d="m19.21 10.162-9.05 9.05c-.2.2-.2.51 0 .71l1.73 1.73c.2.2.51.2.71 0l9.05-9.05c.2-.2.2-.51 0-.71l-1.73-1.73c-.2-.2-.52-.2-.71 0Z" stroke="#000" stroke-width="1.5" stroke-miterlimit="10" stroke-linecap="round" stroke-linejoin="round"/><path opacity=".4" d="m4.091 13.84-1.73-1.73c-.2-.2-.2-.51 0-.71l1.73-1.73c.2-.2.51-.2.71 0l1.73 1.73c.2.2.2.51 0 .71l-1.73 1.73c-.2.2-.52.2-.71 0Z" stroke="#000" stroke-width="1.5" stroke-miterlimit="10" stroke-linecap="round" stroke-linejoin="round"/></svg>