<svg width="24" height="24" fill="none" xmlns="http://www.w3.org/2000/svg"><path d="M12 2 6 8l2 2 4-4 4 4 2-2-6-6ZM12 22l-6-6 2-2 4 4 4-4 2 2-6 6Z" stroke="#000" stroke-width="1.5" stroke-miterlimit="10" stroke-linecap="round" stroke-linejoin="round"/><path opacity=".4" d="M19.749 9.751 17.5 12l2.249 2.249L21.997 12 19.75 9.751ZM4.249 9.751 2 12l2.249 2.249L6.497 12 4.25 9.751ZM11.998 9.525 9.523 12l2.475 2.475L14.473 12l-2.475-2.475Z" stroke="#000" stroke-width="1.5" stroke-miterlimit="10" stroke-linecap="round" stroke-linejoin="round"/></svg>