<svg width="24" height="24" fill="none" xmlns="http://www.w3.org/2000/svg"><path d="M12 22c5.523 0 10-4.477 10-10S17.523 2 12 2 2 6.477 2 12s4.477 10 10 10Z" stroke="#000" stroke-width="1.5" stroke-miterlimit="10"/><g opacity=".4" stroke="#000" stroke-width="1.5" stroke-miterlimit="10" stroke-linecap="round" stroke-linejoin="round"><path d="M8.781 7.672h5.42c1.2 0 2.17 1.08 2.17 2.17 0 1.2-.97 2.17-2.17 2.17h-5.42v-4.34Z"/><path d="M8.781 12h6.19c1.37 0 2.48.97 2.48 2.17s-1.11 2.17-2.48 2.17h-6.19V12ZM12.57 16.328v2.17M9.871 16.328v2.17M12.57 5.5v2.17M9.871 5.5v2.17M10.84 7.672H7.05M10.84 16.328H7.05"/></g></svg>