<svg width="24" height="24" fill="none" xmlns="http://www.w3.org/2000/svg"><path opacity=".4" d="M14.3 10.129c.28 1.1-.21 2.12-1.05 2.64v1.98a1.25 1.25 0 0 1-2.5 0v-1.98a2.373 2.373 0 0 1-1.13-2.02c0-1.52 1.44-2.7 3.02-2.28.8.21 1.45.86 1.66 1.66Z" stroke="#000" stroke-width="1.5" stroke-miterlimit="10"/><path d="M21.55 9.03C20.28 4.96 16.49 2 12 2 6.48 2 2 6.48 2 12s4.48 10 10 10c4.47 0 8.26-2.94 9.54-6.99" stroke="#000" stroke-width="1.5" stroke-miterlimit="10" stroke-linecap="round" stroke-linejoin="round"/></svg>