<svg width="24" height="24" fill="none" xmlns="http://www.w3.org/2000/svg"><g opacity=".4" stroke="#000" stroke-width="1.5" stroke-miterlimit="10"><path d="M12 18.152c-.72 0-1.32-.59-1.32-1.32v-9.66c0-.72.59-1.32 1.32-1.32.72 0 1.32.59 1.32 1.32v9.66c0 .73-.6 1.32-1.32 1.32Z"/><path d="M6.68 8.933a1.32 1.32 0 0 1 1.8-.48l8.37 4.83c.63.36.84 1.17.48 1.8-.36.63-1.17.84-1.8.48l-8.37-4.83c-.63-.37-.85-1.18-.48-1.8Z"/><path d="M6.68 15.071a1.32 1.32 0 0 1 .48-1.8l8.37-4.83a1.32 1.32 0 0 1 1.8.48c.36.63.15 1.44-.48 1.8l-8.37 4.83c-.63.37-1.44.15-1.8-.48Z"/></g><path d="M12 22c5.523 0 10-4.477 10-10S17.523 2 12 2 2 6.477 2 12s4.477 10 10 10Z" stroke="#000" stroke-width="1.5" stroke-miterlimit="10"/></svg>