<svg width="24" height="24" fill="none" xmlns="http://www.w3.org/2000/svg"><path d="m10.85 3.379-3.6 4.32c-.13.16-.28.46-.32.67l-1.71 8.57c-.12.58.21 1.3.73 1.6l5.32 3.04c.41.23 1.08.23 1.49 0l5.32-3.04c.52-.3.84-1.01.73-1.6l-1.71-8.57c-.04-.21-.18-.51-.32-.67l-3.6-4.32c-.66-.76-1.7-.76-2.33 0Z" stroke="#000" stroke-width="1.5" stroke-miterlimit="10" stroke-linecap="round" stroke-linejoin="round"/><path opacity=".4" d="m16.81 8.52-4.34 12.16a.5.5 0 0 1-.94 0L7.18 8.5" stroke="#000" stroke-width="1.5" stroke-miterlimit="10" stroke-linecap="round" stroke-linejoin="round"/></svg>