<svg width="24" height="24" fill="none" xmlns="http://www.w3.org/2000/svg"><path d="M4.12 2h15.77c.6 0 1.06.52.99 1.11l-1.8 16.22c-.04.4-.33.74-.72.85l-6.08 1.74c-.18.05-.37.05-.55 0l-6.08-1.74a1.01 1.01 0 0 1-.72-.85L3.13 3.11A.993.993 0 0 1 4.12 2Z" stroke="#000" stroke-width="1.5" stroke-miterlimit="10" stroke-linecap="round" stroke-linejoin="round"/><path opacity=".4" d="M10.62 7.012v8.98l-3.12-.9M16.5 7l-3.15.45v4.95l3.15-.45v3.15l-3.6.9" stroke="#000" stroke-width="1.5" stroke-miterlimit="10" stroke-linecap="round" stroke-linejoin="round"/></svg>