<svg width="24" height="24" fill="none" xmlns="http://www.w3.org/2000/svg"><path d="m11.01 2.571-5 2.86C5.39 5.791 5 6.451 5 7.171v8.81c0 .65.31 1.25.84 1.63l5 3.57c.7.5 1.63.5 2.32 0l5-3.57c.53-.38.84-.98.84-1.63v-8.81c0-.72-.38-1.38-1.01-1.74l-5-2.86c-.61-.35-1.37-.35-1.98 0Z" stroke="#000" stroke-width="1.5" stroke-miterlimit="10" stroke-linecap="round" stroke-linejoin="round"/><g opacity=".4" stroke="#000" stroke-width="1.5" stroke-miterlimit="10" stroke-linecap="round" stroke-linejoin="round"><path d="m12 3-2 9 1.85 9.23"/><path d="M18.16 16.912 10 12.002l8.54-4.74"/></g></svg>