<svg width="24" height="24" fill="none" xmlns="http://www.w3.org/2000/svg"><path d="M17 17a5 5 0 1 0 0-10 5 5 0 0 0 0 10Z" stroke="#000" stroke-width="1.5" stroke-miterlimit="10" stroke-linecap="round" stroke-linejoin="round"/><g opacity=".4" stroke="#000" stroke-width="1.5" stroke-miterlimit="10" stroke-linecap="round" stroke-linejoin="round"><path d="M12 22a5 5 0 1 0 0-10 5 5 0 0 0 0 10ZM12 12a5 5 0 1 0 0-10 5 5 0 0 0 0 10Z"/></g><path d="M7 17A5 5 0 1 0 7 7a5 5 0 0 0 0 10Z" stroke="#000" stroke-width="1.5" stroke-miterlimit="10" stroke-linecap="round" stroke-linejoin="round"/></svg>