<svg width="24" height="24" fill="none" xmlns="http://www.w3.org/2000/svg"><path opacity=".4" d="M7.56 7.56V3.89c0-.83.61-1.52 1.42-1.65 2-.31 4.04-.31 6.04 0 .82.13 1.42.83 1.42 1.65v5.89c0 1.23-.99 2.22-2.22 2.22H9.78c-1.23 0-2.22.99-2.22 2.22v5.89c0 .83.61 1.52 1.42 1.65 2 .31 4.04.31 6.04 0 .82-.13 1.42-.83 1.42-1.65v-3.67" stroke="#000" stroke-width="1.5" stroke-linecap="round" stroke-linejoin="round"/><path d="M16.44 7.559h3.67c.83 0 1.52.61 1.65 1.42.31 2 .31 4.04 0 6.04-.13.82-.83 1.42-1.65 1.42H12M12 7.559H3.88c-.83 0-1.52.61-1.65 1.42-.31 2-.31 4.04 0 6.04.13.82.83 1.42 1.65 1.42h3.67" stroke="#000" stroke-width="1.5" stroke-linecap="round" stroke-linejoin="round"/><path opacity=".4" d="M10 4.852v0M14 19.148v0" stroke="#000" stroke-width="1.5" stroke-linecap="round" stroke-linejoin="round"/></svg>