<svg width="24" height="24" fill="none" xmlns="http://www.w3.org/2000/svg"><g opacity=".4" stroke="#000" stroke-width="1.5" stroke-miterlimit="10" stroke-linecap="round" stroke-linejoin="round"><path d="M15.15 18h-6.3C7.83 18 7 17.17 7 16.15v-8.3C7 6.83 7.83 6 8.85 6h6.3C16.17 6 17 6.83 17 7.85v8.3c0 1.02-.83 1.85-1.85 1.85ZM12 8.5v2M10 10.5h4M12 15.5v-2M10 13.5h4"/></g><path d="M15 22H9c-5 0-7-2-7-7V9c0-5 2-7 7-7h6c5 0 7 2 7 7v6c0 5-2 7-7 7Z" stroke="#000" stroke-width="1.5" stroke-linecap="round" stroke-linejoin="round"/></svg>