<svg width="24" height="24" fill="none" xmlns="http://www.w3.org/2000/svg"><path d="M15 22H9c-5 0-7-2-7-7V9c0-5 2-7 7-7h6c5 0 7 2 7 7v6c0 5-2 7-7 7Z" stroke="#000" stroke-width="1.5" stroke-linecap="round" stroke-linejoin="round"/><path opacity=".4" d="M9.55 17.72H7.1c-.67 0-1.22-.55-1.22-1.22V7.52c0-.67.55-1.22 1.22-1.22h2.45c.67 0 1.22.55 1.22 1.22v8.98c0 .67-.55 1.22-1.22 1.22ZM17.14 13.631H14.2c-.54 0-.98-.44-.98-.98v-5.39c0-.54.44-.98.98-.98h2.94c.54 0 .98.44.98.98v5.39c0 .54-.44.98-.98.98Z" stroke="#000" stroke-width="1.5" stroke-miterlimit="10"/></svg>