<svg width="24" height="24" fill="none" xmlns="http://www.w3.org/2000/svg"><path opacity=".4" d="M16.95 16.95a7.007 7.007 0 0 0 0-9.9M7.05 7.05a7.007 7.007 0 0 0 0 9.9" stroke="#000" stroke-width="1.5" stroke-miterlimit="10" stroke-linecap="round" stroke-linejoin="round"/><g opacity=".4" stroke="#000" stroke-width="1.5" stroke-linecap="round" stroke-linejoin="round"><path d="M9.67 13.632c0 .9.7 1.63 1.56 1.63h1.76c.75 0 1.36-.64 1.36-1.42 0-.85-.37-1.16-.93-1.35l-2.81-.98c-.55-.19-.93-.5-.93-1.35 0-.79.61-1.42 1.36-1.42h1.76c.86 0 1.56.73 1.56 1.63M12 7.8v8.4"/></g><path d="M12 22c5.523 0 10-4.477 10-10S17.523 2 12 2 2 6.477 2 12s4.477 10 10 10Z" stroke="#000" stroke-width="1.5" stroke-miterlimit="10" stroke-linecap="round" stroke-linejoin="round"/></svg>