<svg width="24" height="24" fill="none" xmlns="http://www.w3.org/2000/svg"><path d="M11.75 9.43 8.5 15l-.63 1.09-2.47 4.22c-.18.32-.64.33-.84.02l-3.38-5.05a.516.516 0 0 1 0-.56l3.67-5.5c.09-.14.25-.22.42-.22h6.23l.25.43Z" stroke="#000" stroke-width="1.5" stroke-miterlimit="10" stroke-linecap="round" stroke-linejoin="round"/><path opacity=".4" d="M8.5 15h5.63c.39 0 .63-.42.43-.75l-2.81-4.82L11.5 9 8.44 3.75c-.2-.33.04-.75.43-.75h6.84c.18 0 .35.09.43.25l6.7 11.48c.1.17.09.37-.01.53l-3.68 5.52c-.09.14-.25.22-.42.22h-6.46c-.17 0-.33-.08-.42-.22l-3.14-4.71-.44-.67.23-.4Z" stroke="#000" stroke-width="1.5" stroke-miterlimit="10"/></svg>