<svg width="24" height="24" fill="none" xmlns="http://www.w3.org/2000/svg"><path d="M5.46 2H4.05c-.93 0-1.4 1.13-.74 1.79l5.73 5.73a4.189 4.189 0 0 0 5.93 0l5.73-5.73c.66-.66.19-1.79-.74-1.79h-1.41c-.83 0-1.63.33-2.22.92L12.75 6.5c-.41.41-1.07.41-1.48 0L7.69 2.92C7.09 2.33 6.29 2 5.46 2Z" stroke="#000" stroke-width="1.5" stroke-miterlimit="10" stroke-linecap="round" stroke-linejoin="round"/><path opacity=".4" d="M5.46 21.969H4.05c-.93 0-1.4-1.13-.74-1.79l5.73-5.73a4.189 4.189 0 0 1 5.93 0l5.73 5.73c.66.66.19 1.79-.74 1.79h-1.41c-.83 0-1.63-.33-2.22-.92l-3.58-3.58c-.41-.41-1.07-.41-1.48 0l-3.58 3.58c-.6.59-1.4.92-2.23.92Z" stroke="#000" stroke-width="1.5" stroke-miterlimit="10" stroke-linecap="round" stroke-linejoin="round"/></svg>