<svg width="24" height="24" fill="none" xmlns="http://www.w3.org/2000/svg"><path opacity=".4" clip-rule="evenodd" d="M6 9.682v2.8c0 1.54 1.25 2.78 2.79 2.77l3.68-.03c.51 0 .92-.42.92-.92v-2.77a2.77 2.77 0 0 0-2.77-2.77H6.93a.92.92 0 0 0-.93.92Z" stroke="#000" stroke-width="1.5" stroke-miterlimit="10"/><path opacity=".4" clip-rule="evenodd" d="M18 9.238v5.54l-2.77-1.85v-1.84L18 9.238Z" stroke="#000" stroke-width="1.5" stroke-miterlimit="10" stroke-linecap="round" stroke-linejoin="round"/><path d="M12 22c5.523 0 10-4.477 10-10S17.523 2 12 2 2 6.477 2 12s4.477 10 10 10Z" stroke="#000" stroke-width="1.5" stroke-miterlimit="10"/></svg>