<svg width="24" height="24" fill="none" xmlns="http://www.w3.org/2000/svg"><path opacity=".4" d="M16.19 2H7.81C4.17 2 2 4.17 2 7.81v8.37C2 19.83 4.17 22 7.81 22h8.37c3.64 0 5.81-2.17 5.81-5.81V7.81C22 4.17 19.83 2 16.19 2Z" fill="#292D32"/><path d="M16.42 7.808v8.38c0 .64-.52 1.16-1.16 1.16-.65 0-1.17-.52-1.17-1.16v-8.38c0-.64.52-1.16 1.17-1.16.64 0 1.16.52 1.16 1.16ZM9.91 12.93v3.26c0 .64-.52 1.16-1.17 1.16-.64 0-1.16-.52-1.16-1.16v-3.26c0-.64.52-1.16 1.16-1.16.65 0 1.17.52 1.17 1.16Z" fill="#292D32"/></svg>