<svg width="24" height="24" fill="none" xmlns="http://www.w3.org/2000/svg"><path opacity=".4" d="M21 22.75H3c-.41 0-.75-.34-.75-.75s.34-.75.75-.75h18c.41 0 .75.34.75.75s-.34.75-.75.75Z" fill="#292D32"/><path d="M5.6 8.379H4c-.55 0-1 .45-1 1v8.62c0 .55.45 1 1 1h1.6c.55 0 1-.45 1-1v-8.62c0-.56-.45-1-1-1ZM12.8 5.191h-1.6c-.55 0-1 .45-1 1v11.81c0 .55.45 1 1 1h1.6c.55 0 1-.45 1-1V6.191c0-.55-.45-1-1-1ZM20 2h-1.6c-.55 0-1 .45-1 1v15c0 .55.45 1 1 1H20c.55 0 1-.45 1-1V3c0-.55-.45-1-1-1Z" fill="#292D32"/></svg>