<svg width="24" height="24" fill="none" xmlns="http://www.w3.org/2000/svg"><path opacity=".4" d="M16 20.97v-2.94c0-1.27.76-2.03 2.03-2.03h2.94c.4 0 .74.08 1.03.22V7.81C22 4.17 19.83 2 16.19 2H7.81C4.17 2 2 4.17 2 7.81v8.37C2 19.83 4.17 22 7.81 22H16.22c-.14-.29-.22-.63-.22-1.03Z" fill="#292D32"/><path d="M7 14.25c-.41 0-.75-.34-.75-.75v-3c0-.41.34-.75.75-.75s.75.34.75.75v3c0 .41-.34.75-.75.75ZM12 14.25c-.41 0-.75-.34-.75-.75v-3c0-.41.34-.75.75-.75s.75.34.75.75v3c0 .41-.34.75-.75.75ZM17 14.25c-.41 0-.75-.34-.75-.75v-3c0-.41.34-.75.75-.75s.75.34.75.75v3c0 .41-.34.75-.75.75ZM20.97 16h-2.94c-1.27 0-2.03.76-2.03 2.03v2.94c0 1.27.76 2.03 2.03 2.03h2.94c1.27 0 2.03-.76 2.03-2.03v-2.94c0-1.27-.76-2.03-2.03-2.03Zm.5 4.56c.25.25.25.66 0 .91a.667.667 0 0 1-.91 0l-1.06-1.06-1.05 1.06a.667.667 0 0 1-.91 0 .646.646 0 0 1 0-.91l1.06-1.06-1.06-1.05a.646.646 0 0 1 0-.91c.25-.25.66-.25.91 0l1.05 1.06 1.06-1.06c.25-.25.66-.25.91 0s.25.66 0 .91l-1.06 1.05 1.06 1.06Z" fill="#292D32"/></svg>