<svg width="24" height="24" fill="none" xmlns="http://www.w3.org/2000/svg"><path opacity=".4" d="M16.19 2H7.81C4.17 2 2 4.17 2 7.81v8.37C2 19.83 4.17 22 7.81 22h8.37c3.64 0 5.81-2.17 5.81-5.81V7.81C22 4.17 19.83 2 16.19 2Z" fill="#292D32"/><path d="M7 14.348c-.41 0-.75-.34-.75-.75v-3.2c0-.41.34-.75.75-.75s.75.34.75.75v3.21c0 .41-.34.74-.75.74ZM12 16.09c-.41 0-.75-.34-.75-.75V8.66c0-.41.34-.75.75-.75s.75.34.75.75v6.68c0 .41-.34.75-.75.75ZM17 14.348c-.41 0-.75-.34-.75-.75v-3.2c0-.41.34-.75.75-.75s.75.34.75.75v3.21c0 .41-.34.74-.75.74Z" fill="#292D32"/></svg>