<svg width="24" height="24" fill="none" xmlns="http://www.w3.org/2000/svg"><path opacity=".4" d="M16.19 2H7.81C4.17 2 2 4.17 2 7.81v8.37C2 19.83 4.17 22 7.81 22h8.37c3.64 0 5.81-2.17 5.81-5.81V7.81C22 4.17 19.83 2 16.19 2Z" fill="#292D32"/><path d="M6.88 18.898c-.41 0-.75-.34-.75-.75v-2.07c0-.41.34-.75.75-.75s.75.34.75.75v2.07c0 .42-.34.75-.75.75ZM12 18.9c-.41 0-.75-.34-.75-.75V14c0-.41.34-.75.75-.75s.75.34.75.75v4.15c0 .42-.34.75-.75.75ZM17.12 18.9c-.41 0-.75-.34-.75-.75v-6.22c0-.41.34-.75.75-.75s.75.34.75.75v6.22c0 .42-.33.75-.75.75ZM17.871 5.822c0-.05-.02-.11-.03-.16l-.03-.13c-.02-.04-.05-.07-.07-.11-.03-.04-.06-.09-.1-.12-.01-.01-.01-.02-.02-.02-.03-.02-.06-.03-.09-.05a.638.638 0 0 0-.14-.08c-.05-.02-.1-.02-.15-.03-.04-.01-.07-.02-.11-.02h-2.93c-.41 0-.75.34-.75.75s.34.75.75.75h1.25c-2.38 2.5-5.38 4.26-8.75 5.11-.4.1-.65.51-.55.91.08.34.39.57.73.57.06 0 .12-.01.18-.02 3.57-.89 6.76-2.74 9.31-5.36v.97c0 .41.34.75.75.75s.75-.34.75-.75v-2.96Z" fill="#292D32"/></svg>