<svg width="24" height="24" fill="none" xmlns="http://www.w3.org/2000/svg"><path d="M16.68 20.831H5.55c-2.94-.21-4.26-2.47-4.26-4.49 0-1.8 1.05-3.8 3.34-4.35-.64-2.5-.1-4.85 1.53-6.55 1.85-1.94 4.82-2.71 7.37-1.92 2.34.72 3.99 2.65 4.59 5.33 2.05.46 3.68 2.01 4.34 4.15.71 2.33.07 4.72-1.68 6.25a6.128 6.128 0 0 1-4.1 1.58Zm-11.11-7.48h-.02c-1.9.14-2.77 1.6-2.77 2.99 0 1.39.87 2.85 2.81 2.99h11.04c1.16-.02 2.27-.42 3.13-1.2 1.56-1.37 1.67-3.32 1.25-4.69-.42-1.38-1.59-2.94-3.63-3.2a.753.753 0 0 1-.65-.62c-.4-2.4-1.7-4.06-3.65-4.66-2.03-.62-4.37-.01-5.84 1.52-1.33 1.39-1.71 3.31-1.09 5.42.51.07 1 .22 1.45.45.37.19.52.64.33 1.01a.75.75 0 0 1-1.01.33 2.88 2.88 0 0 0-1.31-.32c-.01-.02-.02-.02-.04-.02Z" fill="#292D32"/><path d="M15.848 10.67c-.28 0-.54-.15-.67-.42a.754.754 0 0 1 .34-1.01c.62-.31 1.31-.48 1.99-.49.4-.01.76.32.76.74.01.41-.32.76-.74.76-.46.01-.93.12-1.35.33-.11.06-.22.09-.33.09Z" fill="#292D32"/></svg>