<svg width="24" height="24" fill="none" xmlns="http://www.w3.org/2000/svg"><path d="M4.29 12.37a.75.75 0 0 1-.71-.5c-1.01-2.82-.55-5.53 1.26-7.42 1.85-1.94 4.81-2.71 7.37-1.92 2.34.72 3.99 2.65 4.59 5.33 1.8.41 3.31 1.67 4.08 3.47a.76.76 0 0 1-.39.99.76.76 0 0 1-.99-.39c-.65-1.5-1.9-2.47-3.44-2.67a.753.753 0 0 1-.65-.62c-.4-2.4-1.7-4.06-3.65-4.66-2.02-.62-4.37-.01-5.84 1.52-1.43 1.49-1.76 3.58-.94 5.88a.75.75 0 0 1-.45.96c-.07.01-.16.03-.24.03Z" fill="#292D32"/><path d="M14.54 9.682c-.28 0-.54-.15-.67-.42a.754.754 0 0 1 .34-1.01c.63-.31 1.3-.48 1.99-.49.43.02.76.32.76.74.01.41-.32.76-.74.76-.47.01-.92.12-1.35.33a.59.59 0 0 1-.33.09ZM20 15.781H4c-.41 0-.75-.34-.75-.75s.34-.75.75-.75h16c.41 0 .75.34.75.75s-.34.75-.75.75ZM18 18.781H6c-.41 0-.75-.34-.75-.75s.34-.75.75-.75h12c.41 0 .75.34.75.75s-.34.75-.75.75ZM15 21.781H9c-.41 0-.75-.34-.75-.75s.34-.75.75-.75h6c.41 0 .75.34.75.75s-.34.75-.75.75Z" fill="#292D32"/></svg>