<svg width="24" height="24" fill="none" xmlns="http://www.w3.org/2000/svg"><path d="M13.572 22.38c-.23 0-.46-.04-.68-.12a1.88 1.88 0 0 1-1.23-1.78v-6.45h-2.34c-.76 0-1.42-.43-1.73-1.12-.31-.69-.19-1.47.31-2.04l7.57-8.6c.53-.6 1.35-.81 2.1-.52.75.28 1.23.98 1.23 1.78v6.45h2.34c.76 0 1.42.43 1.73 1.12.31.69.19 1.47-.31 2.04l-7.57 8.6c-.37.42-.89.64-1.42.64Zm3.31-19.26c-.09 0-.2.03-.29.14l-7.57 8.61c-.16.18-.1.36-.07.43s.13.24.37.24h3.09c.41 0 .75.34.75.75v7.2c0 .25.18.35.26.38.08.03.28.08.44-.11l7.57-8.61c.16-.18.1-.36.07-.43a.39.39 0 0 0-.37-.24h-3.09c-.41 0-.75-.34-.75-.75v-7.2c0-.25-.18-.35-.26-.38a.306.306 0 0 0-.15-.03ZM8.5 4.75h-7c-.41 0-.75-.34-.75-.75s.34-.75.75-.75h7c.41 0 .75.34.75.75s-.34.75-.75.75ZM7.5 20.75h-6c-.41 0-.75-.34-.75-.75s.34-.75.75-.75h6c.41 0 .75.34.75.75s-.34.75-.75.75ZM4.5 12.75h-3c-.41 0-.75-.34-.75-.75s.34-.75.75-.75h3c.41 0 .75.34.75.75s-.34.75-.75.75Z" fill="#292D32"/></svg>