<svg width="24" height="24" fill="none" xmlns="http://www.w3.org/2000/svg"><path d="M12.459 22.748c-.17 0-.34 0-.51-.01-5.6-.25-10.28-4.76-10.67-10.26-.34-4.72 2.39-9.13 6.79-10.98 1.25-.52 1.91-.12 2.19.17.28.28.67.93.15 2.12a8.196 8.196 0 0 0-.68 3.35c.02 4.43 3.7 8.19 8.19 8.37.65.03 1.29-.02 1.91-.13 1.32-.24 1.87.29 2.08.63.21.34.45 1.07-.35 2.15-2.12 2.9-5.49 4.59-9.1 4.59Zm-9.69-10.38c.34 4.76 4.4 8.66 9.24 8.87 3.29.16 6.41-1.34 8.33-3.96.15-.21.22-.36.25-.44-.09-.01-.25-.02-.5.03-.73.13-1.49.18-2.24.15-5.28-.21-9.6-4.64-9.63-9.86 0-1.38.27-2.71.82-3.96.1-.22.12-.37.13-.45-.09 0-.25.02-.51.13-3.81 1.6-6.17 5.42-5.89 9.49Z" fill="#292D32"/></svg>