<svg width="24" height="24" fill="none" xmlns="http://www.w3.org/2000/svg"><path d="M12 19.25C8 19.25 4.75 16 4.75 12S8 4.75 12 4.75 19.25 8 19.25 12 16 19.25 12 19.25Zm0-13c-3.17 0-5.75 2.58-5.75 5.75s2.58 5.75 5.75 5.75 5.75-2.58 5.75-5.75S15.17 6.25 12 6.25ZM12 22.96c-.55 0-1-.41-1-.96v-.08c0-.55.45-1 1-1s1 .45 1 1-.45 1.04-1 1.04Zm7.14-2.82c-.26 0-.51-.1-.71-.29l-.13-.13a.996.996 0 1 1 1.41-1.41l.13.13a.996.996 0 0 1-.7 1.7Zm-14.28 0c-.26 0-.51-.1-.71-.29a.996.996 0 0 1 0-1.41l.13-.13a.996.996 0 1 1 1.41 1.41l-.13.13c-.19.19-.45.29-.7.29ZM22 13h-.08c-.55 0-1-.45-1-1s.45-1 1-1 1.04.45 1.04 1-.41 1-.96 1ZM2.08 13H2c-.55 0-1-.45-1-1s.45-1 1-1 1.04.45 1.04 1-.41 1-.96 1Zm16.93-7.01c-.26 0-.51-.1-.71-.29a.996.996 0 0 1 0-1.41l.13-.13a.996.996 0 1 1 1.41 1.41l-.13.13c-.19.19-.44.29-.7.29Zm-14.02 0c-.26 0-.51-.1-.71-.29l-.13-.14a.996.996 0 1 1 1.41-1.41l.13.13c.39.39.39 1.02 0 1.41-.19.2-.45.3-.7.3ZM12 3.04c-.55 0-1-.41-1-.96V2c0-.55.45-1 1-1s1 .45 1 1-.45 1.04-1 1.04Z" fill="#292D32"/></svg>