<svg width="24" height="24" fill="none" xmlns="http://www.w3.org/2000/svg"><path d="M18.5 22.75a4.26 4.26 0 0 1-4.25-4.25V18c0-.41.34-.75.75-.75s.75.34.75.75v.5c0 1.52 1.23 2.75 2.75 2.75s2.75-1.23 2.75-2.75-1.23-2.75-2.75-2.75H2c-.41 0-.75-.34-.75-.75s.34-.75.75-.75h16.5a4.26 4.26 0 0 1 4.25 4.25 4.26 4.26 0 0 1-4.25 4.25ZM18.5 12.75H2c-.41 0-.75-.34-.75-.75s.34-.75.75-.75h16.5c1.52 0 2.75-1.23 2.75-2.75s-1.23-2.75-2.75-2.75-2.75 1.23-2.75 2.75V9c0 .41-.34.75-.75.75s-.75-.34-.75-.75v-.5a4.26 4.26 0 0 1 4.25-4.25 4.26 4.26 0 0 1 4.25 4.25 4.26 4.26 0 0 1-4.25 4.25Z" fill="#292D32"/><path d="M9.31 9.751H2c-.41 0-.75-.34-.75-.75s.34-.75.75-.75h7.31c1.07 0 1.94-.87 1.94-1.94 0-1.07-.87-1.94-1.94-1.94-1.07 0-1.94.87-1.94 1.94v.38c0 .41-.34.75-.75.75s-.75-.34-.75-.75v-.38a3.44 3.44 0 1 1 3.44 3.44Z" fill="#292D32"/></svg>