<svg width="24" height="24" fill="none" xmlns="http://www.w3.org/2000/svg"><path d="M12 10.281c-1.02 0-2.04-.18-3.01-.53a.75.75 0 0 1-.45-.96c.15-.39.58-.59.97-.45 1.61.58 3.38.58 4.99 0a.75.75 0 1 1 .51 1.41c-.97.35-1.99.53-3.01.53Z" fill="#292D32"/><path d="M19.07 22.75c-.51 0-1.07-.15-1.61-.46l-4.88-2.71c-.29-.16-.86-.16-1.15 0l-4.88 2.71c-.99.55-2 .61-2.77.15-.77-.45-1.21-1.36-1.21-2.49V5.86c0-2.54 2.07-4.61 4.61-4.61h9.65c2.54 0 4.61 2.07 4.61 4.61v14.09c0 1.13-.44 2.04-1.21 2.49-.35.21-.75.31-1.16.31ZM12 17.96c.47 0 .93.1 1.3.31l4.88 2.71c.51.29.98.35 1.28.17.3-.18.47-.61.47-1.2V5.86c0-1.71-1.4-3.11-3.11-3.11H7.18a3.12 3.12 0 0 0-3.11 3.11v14.09c0 .59.17 1.03.47 1.2.3.17.76.12 1.28-.17l4.88-2.71c.37-.21.83-.31 1.3-.31Z" fill="#292D32"/><path d="M19.07 22.75c-.51 0-1.07-.15-1.61-.46l-4.88-2.71c-.29-.16-.86-.16-1.15 0l-4.88 2.71c-.99.55-2 .61-2.77.15-.77-.45-1.21-1.36-1.21-2.49V5.86c0-2.54 2.07-4.61 4.61-4.61h9.65c2.54 0 4.61 2.07 4.61 4.61v14.09c0 1.13-.44 2.04-1.21 2.49-.35.21-.75.31-1.16.31ZM12 17.96c.47 0 .93.1 1.3.31l4.88 2.71c.51.29.98.35 1.28.17.3-.18.47-.61.47-1.2V5.86c0-1.71-1.4-3.11-3.11-3.11H7.18a3.12 3.12 0 0 0-3.11 3.11v14.09c0 .59.17 1.03.47 1.2.3.17.76.12 1.28-.17l4.88-2.71c.37-.21.83-.31 1.3-.31Z" fill="#292D32"/></svg>