<svg width="24" height="24" fill="none" xmlns="http://www.w3.org/2000/svg"><path d="M14.5 11.398h-5c-.41 0-.75-.34-.75-.75s.34-.75.75-.75h5c.41 0 .75.34.75.75s-.34.75-.75.75Z" fill="#292D32"/><path d="M4.93 22.75c-.42 0-.81-.1-1.16-.3C3 22 2.56 21.09 2.56 19.96V5.86c0-2.54 2.07-4.61 4.61-4.61h9.65c2.54 0 4.61 2.07 4.61 4.61v14.09c0 1.13-.44 2.04-1.21 2.49-.77.45-1.78.4-2.77-.15l-4.88-2.71c-.29-.16-.86-.16-1.15 0l-4.88 2.71c-.54.3-1.09.46-1.61.46Zm2.25-20a3.12 3.12 0 0 0-3.11 3.11v14.09c0 .59.17 1.03.47 1.2.3.18.77.12 1.28-.17l4.88-2.71c.74-.41 1.86-.41 2.6 0l4.88 2.71c.51.29.98.35 1.28.17.3-.18.47-.62.47-1.2V5.86c0-1.71-1.4-3.11-3.11-3.11H7.18Z" fill="#292D32"/></svg>