<svg width="24" height="24" fill="none" xmlns="http://www.w3.org/2000/svg"><path d="M15 22.75H9c-5.43 0-7.75-2.32-7.75-7.75V9c0-5.43 2.32-7.75 7.75-7.75h6c5.43 0 7.75 2.32 7.75 7.75v6c0 5.43-2.32 7.75-7.75 7.75Zm-6-20C4.39 2.75 2.75 4.39 2.75 9v6c0 4.61 1.64 6.25 6.25 6.25h6c4.61 0 6.25-1.64 6.25-6.25V9c0-4.61-1.64-6.25-6.25-6.25H9Z" fill="#292D32"/><path d="M12.001 18.95c-.24 0-.48-.06-.68-.17-1.16-.63-3.21-1.31-4.5-1.48l-.19-.03c-.98-.12-1.76-1-1.76-2.01v-7.7c0-.57.24-1.12.65-1.5.42-.38.96-.57 1.54-.52 1.46.12 3.58.82 4.83 1.6l.1.06.04-.03c1.26-.79 3.38-1.5 4.85-1.63h.1c.52-.05 1.08.15 1.49.52.42.38.65.91.65 1.49v7.69c0 1-.78 1.88-1.77 2.01l-.21.03c-1.28.17-3.34.85-4.48 1.48-.19.14-.42.19-.66.19Zm-5.11-11.9a.52.52 0 0 0-.35.13c-.11.1-.16.24-.16.39v7.7c0 .24.22.49.45.52l.19.03c1.46.2 3.7.93 5 1.64 1.21-.7 3.46-1.45 4.93-1.64l.22-.03c.23-.03.45-.28.45-.52V7.58c0-.16-.06-.29-.16-.39a.536.536 0 0 0-.41-.13h-.1c-1.16.1-3.07.74-4.11 1.4l-.1.06c-.44.27-1.06.27-1.48.01l-.15-.09c-1.05-.66-2.96-1.29-4.17-1.39h-.05Z" fill="#292D32"/><path d="M12 18.412c-.41 0-.75-.34-.75-.75v-9.56c0-.41.34-.75.75-.75s.75.34.75.75v9.56c0 .42-.34.75-.75.75Z" fill="#292D32"/></svg>