<svg width="24" height="24" fill="none" xmlns="http://www.w3.org/2000/svg"><path d="M14.69 22.75c-.44 0-.9-.13-1.37-.38l-3.93-2.19c-.19-.1-.6-.1-.79 0l-3.92 2.19c-.85.47-1.72.51-2.38.12-.67-.39-1.05-1.17-1.05-2.13V9c0-2.13 1.73-3.86 3.86-3.86h7.78c2.13 0 3.86 1.73 3.86 3.86v11.36c0 .96-.38 1.74-1.05 2.13-.3.17-.64.26-1.01.26ZM9 18.6c.4 0 .79.09 1.12.27l3.93 2.19c.36.2.69.25.89.13.19-.11.31-.43.31-.84V8.99c0-1.3-1.06-2.36-2.36-2.36H5.11c-1.3 0-2.36 1.06-2.36 2.36v11.36c0 .41.12.73.31.84.19.11.53.06.89-.14l3.93-2.19c.32-.17.72-.26 1.12-.26Z" fill="#292D32"/><path d="M20.69 18.872c-.44 0-.9-.13-1.37-.38l-3.69-2.06a.732.732 0 0 1-.38-.65v-6.78c0-1.3-1.06-2.36-2.36-2.36H8c-.41 0-.75-.34-.75-.75v-.77c0-2.13 1.73-3.86 3.86-3.86h7.78c2.13 0 3.86 1.73 3.86 3.86v11.36c0 .96-.38 1.74-1.05 2.13-.3.17-.64.26-1.01.26Zm-3.94-3.54 3.3 1.85c.36.2.69.25.89.13.19-.11.31-.43.31-.84V5.112c0-1.3-1.06-2.36-2.36-2.36h-7.78c-1.3 0-2.36 1.06-2.36 2.36v.02h4.14c2.13 0 3.86 1.73 3.86 3.86v6.34Z" fill="#292D32"/><path d="M11 12.75H7c-.41 0-.75-.34-.75-.75s.34-.75.75-.75h4c.41 0 .75.34.75.75s-.34.75-.75.75Z" fill="#292D32"/><path d="M9 14.75c-.41 0-.75-.34-.75-.75v-4c0-.41.34-.75.75-.75s.75.34.75.75v4c0 .41-.34.75-.75.75Z" fill="#292D32"/></svg>