<svg width="24" height="24" fill="none" xmlns="http://www.w3.org/2000/svg"><path opacity=".4" d="m17.952 7.712-.14-.08-1.39-.8-2.87-1.66c-.88-.51-2.22-.51-3.1 0l-2.87 1.66-1.39.81-.18.1c-1.79 1.2-1.91 1.42-1.91 3.35v4.61c0 1.93.12 2.15 1.95 3.38l4.4 2.54c.44.26.99.38 1.55.38.55 0 1.11-.12 1.55-.38l4.44-2.57c1.79-1.2 1.91-1.42 1.91-3.35v-4.61c0-1.93-.12-2.15-1.95-3.38Z" fill="#292D32"/><path d="m6.191 7.64 1.39-.81 2.74-1.58.13-.08c.88-.51 2.22-.51 3.1 0l.13.08 2.74 1.58 1.39.8V5.49c0-2.25-1.24-3.49-3.49-3.49h-4.65c-2.25 0-3.48 1.24-3.48 3.49v2.15ZM14.84 13.341l-.62.76c-.1.11-.17.33-.16.48l.06.98c.04.6-.39.91-.95.69l-.91-.36a.92.92 0 0 0-.52 0l-.91.36c-.56.22-.99-.09-.95-.69l.06-.98a.751.751 0 0 0-.16-.48l-.62-.76c-.39-.46-.22-.97.36-1.12l.95-.24c.15-.04.33-.18.41-.31l.53-.82c.33-.51.85-.51 1.18 0l.53.82c.08.13.26.27.41.31l.95.24c.58.15.75.66.36 1.12Z" fill="#292D32"/></svg>