<svg width="24" height="24" fill="none" xmlns="http://www.w3.org/2000/svg"><path d="M17 4.96v7.12c0 1.99-1.41 2.76-3.14 1.72l-1.32-.8c-.3-.18-.78-.18-1.08 0l-1.32.8C8.41 14.84 7 14.07 7 12.08V4.99C7.01 3 8.01 2 10 2h4c1.98 0 2.98.99 3 2.96Z" fill="#292D32"/><path opacity=".4" d="M22 11.9v3.03c0 5.05-2 7.07-7 7.07H9c-5 0-7-2.02-7-7.07V11.9c0-4.24 1.41-6.34 4.82-6.91H7v7.09c0 1.99 1.41 2.76 3.14 1.72l1.32-.8c.3-.18.78-.18 1.08 0l1.32.8c1.73 1.04 3.14.27 3.14-1.72V4.96c3.54.52 5 2.63 5 6.94Z" fill="#292D32"/></svg>