<svg width="24" height="24" fill="none" xmlns="http://www.w3.org/2000/svg"><path opacity=".4" d="M12 5.302v16.03c-.17 0-.35-.03-.49-.11l-.04-.02c-1.92-1.05-5.27-2.15-7.44-2.44l-.29-.04c-.96-.12-1.74-1.02-1.74-1.98V4.662c0-1.19.97-2.09 2.16-1.99 2.1.17 5.28 1.23 7.06 2.34l.25.15c.15.09.34.14.53.14Z" fill="#292D32"/><path d="M22 4.67v12.07c0 .96-.78 1.86-1.74 1.98l-.33.04c-2.18.29-5.54 1.4-7.46 2.46-.13.08-.29.11-.47.11V5.3c.19 0 .38-.05.53-.14l.17-.11c1.78-1.12 4.97-2.19 7.07-2.37h.06c1.19-.1 2.17.79 2.17 1.99ZM7.75 9.238H5.5c-.41 0-.75-.34-.75-.75s.34-.75.75-.75h2.25c.41 0 .75.34.75.75s-.34.75-.75.75ZM8.5 12.238h-3c-.41 0-.75-.34-.75-.75s.34-.75.75-.75h3c.41 0 .75.34.75.75s-.34.75-.75.75Z" fill="#292D32"/></svg>