<svg width="24" height="24" fill="none" xmlns="http://www.w3.org/2000/svg"><path d="M21.091 6.98c-.85-.94-2.27-1.41-4.33-1.41h-.24v-.04c0-1.68 0-3.76-3.76-3.76h-1.52c-3.76 0-3.76 2.09-3.76 3.76v.05h-.24c-2.07 0-3.48.47-4.33 1.41-.99 1.1-.96 2.58-.86 3.59l.01.07.1 1.05c.01.01.03.03.05.04.33.22.67.44 1.03.64.14.09.29.17.44.25 1.71.94 3.59 1.57 5.5 1.88.09.94.5 2.04 2.69 2.04s2.62-1.09 2.69-2.06c2.04-.33 4.01-1.04 5.79-2.08.06-.03.1-.06.15-.09.46-.26.89-.54 1.31-.85a.12.12 0 0 0 .05-.05l.04-.36.05-.47c.01-.06.01-.11.02-.18.08-1.01.06-2.39-.88-3.43Zm-8 6.85c0 1.06 0 1.22-1.23 1.22s-1.23-.19-1.23-1.21v-1.26h2.46v1.25Zm-4.18-8.26v-.04c0-1.7 0-2.33 2.33-2.33h1.52c2.33 0 2.33.64 2.33 2.33v.05h-6.18v-.01Z" fill="#292D32"/><path opacity=".4" d="m20.5 12.298-.15.09a17.037 17.037 0 0 1-5.79 2.08c-.08.96-.5 2.06-2.69 2.06s-2.61-1.09-2.69-2.04c-1.91-.3-3.79-.93-5.5-1.88-.15-.08-.3-.16-.44-.25-.36-.2-.7-.42-1.03-.64-.02-.01-.04-.03-.05-.04l.61 6.51c.21 1.99 1.03 4.04 5.43 4.04h7.62c4.4 0 5.22-2.05 5.43-4.05l.63-6.78a.12.12 0 0 1-.05.05c-.43.31-.87.6-1.33.85Z" fill="#292D32"/></svg>