<svg width="24" height="24" fill="none" xmlns="http://www.w3.org/2000/svg"><path d="m13.601 14.51-.53-.53.5-.5c.29-.29.29-.77 0-1.06a.754.754 0 0 0-1.06 0l-.5.5-.53-.53a.754.754 0 0 0-1.06 0c-.29.29-.29.77 0 1.06l.53.53-.55.55c-.29.29-.29.77 0 1.06.15.15.34.22.53.22s.38-.07.53-.22l.55-.55.53.53c.15.15.34.22.53.22s.38-.07.53-.22c.29-.29.29-.76 0-1.06Z" fill="#292D32"/><path opacity=".4" d="m21.848 11.41-.62 6.78c-.21 2-1.03 4.04-5.43 4.04h-7.62c-4.4 0-5.22-2.04-5.42-4.03l-.61-6.51c.01.01.02.02.04.03.34.22.67.44 1.03.64.14.09.29.17.44.25 1.13.62 2.34 1.11 3.59 1.45.5.15 1.01.26 1.53.35a3.25 3.25 0 0 0 3.22 2.84c1.67 0 3.05-1.27 3.23-2.9v-.01c.51-.1 1.02-.23 1.52-.38 1.25-.39 2.46-.91 3.59-1.57.06-.03.11-.06.15-.09.46-.25.9-.54 1.32-.84.02-.01.03-.03.04-.05Z" fill="#292D32"/><path d="M21.091 6.98c-.85-.94-2.26-1.41-4.33-1.41h-.24v-.04c0-1.68 0-3.76-3.76-3.76h-1.52c-3.76 0-3.76 2.08-3.76 3.76v.04h-.24c-2.07 0-3.49.47-4.33 1.41-.99 1.11-.96 2.58-.86 3.59l.01.07.09 1.05c.01.01.03.02.05.03.34.22.67.44 1.03.64.14.09.29.17.44.25 1.13.62 2.34 1.11 3.58 1.45a4.755 4.755 0 0 0 4.75 4.69c2.62 0 4.75-2.13 4.75-4.75v-.04c1.26-.38 2.47-.91 3.6-1.57.06-.03.1-.06.15-.09.46-.25.9-.54 1.32-.84.01-.01.03-.03.04-.05l.04-.36.05-.47c.01-.06.01-.11.02-.18.08-1 .06-2.38-.88-3.42ZM8.911 5.53c0-1.7 0-2.34 2.33-2.34h1.52c2.33 0 2.33.64 2.33 2.34v.04h-6.18v-.04Zm3.09 11.72a3.25 3.25 0 0 1-3.22-2.84c-.02-.13-.03-.27-.03-.41 0-1.79 1.46-3.25 3.25-3.25s3.25 1.46 3.25 3.25c0 .12-.01.23-.02.34v.01a3.258 3.258 0 0 1-3.23 2.9Z" fill="#292D32"/></svg>