<svg width="24" height="24" fill="none" xmlns="http://www.w3.org/2000/svg"><path opacity=".4" d="M19.969 10v8c0 3-1 4-4 4h-8c-3 0-4-1-4-4v-8h16Z" fill="#292D32"/><path d="M21.5 7v1c0 1.1-.53 2-2 2h-15c-1.53 0-2-.9-2-2V7c0-1.1.47-2 2-2h15c1.47 0 2 .9 2 2Z" fill="#292D32"/><path opacity=".4" d="M11.639 5.001h-5.52a.936.936 0 0 1 .03-1.3l1.42-1.42a.96.96 0 0 1 1.35 0l2.72 2.72ZM17.872 5.001h-5.52l2.72-2.72a.96.96 0 0 1 1.35 0l1.42 1.42c.36.36.37.93.03 1.3Z" fill="#292D32"/><path opacity=".6" d="M8.941 10v5.14c0 .8.88 1.27 1.55.84l.94-.62a1 1 0 0 1 1.1 0l.89.6a.997.997 0 0 0 1.55-.83V10h-6.03Z" fill="#292D32"/></svg>