<svg width="24" height="24" fill="none" xmlns="http://www.w3.org/2000/svg"><path d="M2 13.05V15c0 5 2 7 7 7h6c5 0 7-2 7-7V9c0-5-2-7-7-7H9C4 2 2 4 2 9" stroke="#292D32" stroke-width="1.5" stroke-linecap="round" stroke-linejoin="round"/><path d="m6.991 15.082 1.94 1.94c.64.64 1.7.64 2.34 0l5.75-5.75c.64-.64.64-1.7 0-2.34l-1.94-1.94c-.64-.64-1.7-.64-2.34 0l-5.75 5.75c-.65.64-.65 1.69 0 2.34ZM9.313 10.422l4.27 4.27" stroke="#292D32" stroke-width="1.5" stroke-linecap="round" stroke-linejoin="round"/></svg>