<svg width="24" height="24" fill="none" xmlns="http://www.w3.org/2000/svg"><path d="M7.939 14.51c-.62-.23-1.17-.68-1.52-1.32-.8-1.46-.31-3.36 1.11-4.24l2.34-1.45c1.41-.88 3.23-.4 4.03 1.05.8 1.46.31 3.36-1.11 4.24l-.31.22" stroke="#292D32" stroke-width="1.5" stroke-linecap="round" stroke-linejoin="round"/><path d="M16.11 9.45c.62.23 1.17.68 1.52 1.32.8 1.46.31 3.36-1.11 4.24l-2.34 1.45c-1.41.88-3.23.4-4.03-1.05-.8-1.46-.31-3.36 1.11-4.24l.31-.22" stroke="#292D32" stroke-width="1.5" stroke-linecap="round" stroke-linejoin="round"/><path d="M4 6c-1.25 1.67-2 3.75-2 6 0 5.52 4.48 10 10 10s10-4.48 10-10S17.52 2 12 2c-1.43 0-2.8.3-4.03.85" stroke="#292D32" stroke-width="1.5" stroke-linecap="round" stroke-linejoin="round"/></svg>