<svg width="24" height="24" fill="none" xmlns="http://www.w3.org/2000/svg"><path d="M13.63 5.86c0-1.42 1.05-2.58 2.58-2.58h3.21c1.42 0 2.58 1.16 2.58 2.58v5.8" stroke="#292D32" stroke-width="1.5" stroke-linecap="round" stroke-linejoin="round"/><path d="M22 11.648h-5.8c-.96 0-1.72-.45-2.16-1.14M22 11.649c0 6.05-1.13 7.05-4.53 9.07M10.369 11.648h-5.8c-1.53 0-2.58-1.16-2.58-2.58v-3.22c0-1.42 1.05-2.58 2.58-2.58h3.23c1.42 0 2.58 1.16 2.58 2.58v5.8M10.367 11.649c0 6.05-1.13 7.05-4.53 9.07" stroke="#292D32" stroke-width="1.5" stroke-linecap="round" stroke-linejoin="round"/></svg>