<svg width="24" height="24" fill="none" xmlns="http://www.w3.org/2000/svg"><path d="M2 12.83V15c0 5 2 7 7 7h6c5 0 7-2 7-7V9c0-5-2-7-7-7H9C4 2 2 4 2 9" stroke="#292D32" stroke-width="1.5" stroke-linecap="round" stroke-linejoin="round"/><path d="M7 12.16h2.68c.71 0 1.19.54 1.19 1.19v1.49c0 .65-.48 1.19-1.19 1.19H8.19A1.2 1.2 0 0 1 7 14.84v-2.68M7 12.159c0-2.79.52-3.26 2.09-4.19M13.14 12.16h2.68c.71 0 1.19.54 1.19 1.19v1.49c0 .65-.48 1.19-1.19 1.19h-1.49a1.2 1.2 0 0 1-1.19-1.19v-2.68M13.14 12.159c0-2.79.52-3.26 2.09-4.19" stroke="#292D32" stroke-width="1.5" stroke-linecap="round" stroke-linejoin="round"/></svg>