<svg width="24" height="24" fill="none" xmlns="http://www.w3.org/2000/svg"><path d="M7 12.16h2.68c.71 0 1.19.54 1.19 1.19v1.49c0 .65-.48 1.19-1.19 1.19H8.19A1.2 1.2 0 0 1 7 14.84v-2.68ZM7 12.159c0-2.79.52-3.26 2.09-4.19M13.14 12.16h2.68c.71 0 1.19.54 1.19 1.19v1.49c0 .65-.48 1.19-1.19 1.19h-1.49a1.2 1.2 0 0 1-1.19-1.19v-2.68ZM13.14 12.159c0-2.79.52-3.26 2.09-4.19" stroke="#292D32" stroke-width="1.5" stroke-linecap="round" stroke-linejoin="round"/><path d="M4 6c-1.25 1.67-2 3.75-2 6 0 5.52 4.48 10 10 10s10-4.48 10-10S17.52 2 12 2c-1.43 0-2.8.3-4.03.85" stroke="#292D32" stroke-width="1.5" stroke-linecap="round" stroke-linejoin="round"/></svg>