<svg width="24" height="24" fill="none" xmlns="http://www.w3.org/2000/svg"><path d="m19.061 18.668-2.14-4.27-2.14 4.27M15.172 17.91h3.52" stroke="#292D32" stroke-width="1.5" stroke-linecap="round" stroke-linejoin="round"/><path d="M19.922 21.02c-.84.61-1.87.98-2.99.98a5.08 5.08 0 1 1 5.08-5.08M11.95 8.928c.05 2.07-.95 3.07-3.02 3.02H5.01C3 11.998 2 10.998 2 8.928v-3.92c0-2.02 1-3.02 3.02-3.02h3.92c2.07 0 3.07 1 3.02 3.02M9.013 5.852h-4.06M6.973 5.172v.68" stroke="#292D32" stroke-width="1.5" stroke-linecap="round" stroke-linejoin="round"/><path d="M7.991 5.844c0 1.75-1.37 3.17-3.05 3.17" stroke="#292D32" stroke-width="1.5" stroke-linecap="round" stroke-linejoin="round"/><path d="M9.01 9.01c-.73 0-1.39-.39-1.85-1.01M2 15c0 3.87 3.13 7 7 7l-1.05-1.75M22 9c0-3.87-3.13-7-7-7l1.05 1.75" stroke="#292D32" stroke-width="1.5" stroke-linecap="round" stroke-linejoin="round"/></svg>