<svg width="24" height="24" fill="none" xmlns="http://www.w3.org/2000/svg"><path d="M22 16.74V4.67c0-1.2-.98-2.09-2.17-1.99h-.06c-2.1.18-5.29 1.25-7.07 2.37l-.17.11c-.29.18-.77.18-1.06 0l-.25-.15C9.44 3.9 6.26 2.84 4.16 2.67 2.97 2.57 2 3.47 2 4.66v12.08c0 .96.78 1.86 1.74 1.98l.29.04c2.17.29 5.52 1.39 7.44 2.44l.04.02c.27.15.7.15.96 0 1.92-1.06 5.28-2.17 7.46-2.46l.33-.04c.96-.12 1.74-1.02 1.74-1.98ZM12 5.49v15M7.75 8.49H5.5M8.5 11.49h-3" stroke="#292D32" stroke-width="1.5" stroke-linecap="round" stroke-linejoin="round"/></svg>