<svg width="24" height="24" fill="none" xmlns="http://www.w3.org/2000/svg"><path d="M10 22h4c5 0 7-2 7-7V9c0-5-2-7-7-7h-4C5 2 3 4 3 9v6c0 5 2 7 7 7Z" stroke="#292D32" stroke-width="1.5" stroke-linecap="round" stroke-linejoin="round"/><path d="M16.5 7.58v1c0 .82-.67 1.5-1.5 1.5H9c-.82 0-1.5-.67-1.5-1.5v-1c0-.82.67-1.5 1.5-1.5h6c.83 0 1.5.67 1.5 1.5Z" stroke="#292D32" stroke-width="1.5" stroke-linecap="round" stroke-linejoin="round"/><path d="M8.136 14h.012M11.995 14h.012M15.854 14h.012M8.136 17.5h.012M11.995 17.5h.012M15.854 17.5h.012" stroke="#292D32" stroke-width="2" stroke-linecap="round" stroke-linejoin="round"/></svg>