<svg width="24" height="24" fill="none" xmlns="http://www.w3.org/2000/svg"><path d="M18.63 7.15c.04.61-.01 1.3-.13 2.07l-.73 4.69c-.62 3.91-2.43 5.23-6.34 4.62l-4.69-.74c-1.35-.21-2.39-.57-3.15-1.11-1.45-1.01-1.87-2.67-1.47-5.23l.74-4.69c.62-3.91 2.43-5.23 6.34-4.62l4.69.74c3.14.49 4.61 1.77 4.74 4.27Z" stroke="#292D32" stroke-width="1.5" stroke-linecap="round" stroke-linejoin="round"/><path d="M20.5 13.47 19 17.98c-1.25 3.76-3.25 4.76-7.01 3.51l-4.51-1.5c-2.27-.75-3.53-1.79-3.89-3.31.76.54 1.8.9 3.15 1.11l4.69.74c3.91.61 5.72-.71 6.34-4.62l.73-4.69c.12-.77.17-1.46.13-2.07 2.39 1.27 2.91 3.19 1.87 6.32ZM8.24 8.98a1.74 1.74 0 1 0 0-3.48 1.74 1.74 0 0 0 0 3.48Z" stroke="#292D32" stroke-width="1.5" stroke-linecap="round" stroke-linejoin="round"/></svg>