<svg width="24" height="24" fill="none" xmlns="http://www.w3.org/2000/svg"><path d="M19.97 10h-16v8c0 3 1 4 4 4h8c3 0 4-1 4-4v-8ZM21.5 7v1c0 1.1-.53 2-2 2h-15c-1.53 0-2-.9-2-2V7c0-1.1.47-2 2-2h15c1.47 0 2 .9 2 2ZM11.64 5H6.12a.936.936 0 0 1 .03-1.3l1.42-1.42a.96.96 0 0 1 1.35 0L11.64 5ZM17.87 5h-5.52l2.72-2.72a.96.96 0 0 1 1.35 0l1.42 1.42c.36.36.37.93.03 1.3Z" stroke="#292D32" stroke-width="1.5" stroke-miterlimit="10" stroke-linecap="round" stroke-linejoin="round"/><path d="M8.94 10v5.14c0 .8.88 1.27 1.55.84l.94-.62a1 1 0 0 1 1.1 0l.89.6a.997.997 0 0 0 1.55-.83V10H8.94Z" stroke="#292D32" stroke-width="1.5" stroke-miterlimit="10" stroke-linecap="round" stroke-linejoin="round"/></svg>