<svg width="24" height="24" fill="none" xmlns="http://www.w3.org/2000/svg"><path d="M6 10.031h15.9" stroke="#292D32" stroke-width="1.5" stroke-miterlimit="10" stroke-linecap="round" stroke-linejoin="round"/><path d="M11.458 20.53h-5.11c-3.55 0-4.45-.88-4.45-4.39V7.92c0-3.18.74-4.2 3.53-4.36.28-.01.59-.02.92-.02h11.11c3.55 0 4.45.88 4.45 4.39v4.41" stroke="#292D32" stroke-width="1.5" stroke-linecap="round" stroke-linejoin="round"/><path d="M17.898 22.031a4 4 0 1 0 0-8 4 4 0 0 0 0 8ZM18.97 19.151l-2.11-2.12M18.948 17.063l-2.12 2.11M5.898 16.031h4" stroke="#292D32" stroke-width="1.5" stroke-miterlimit="10" stroke-linecap="round" stroke-linejoin="round"/></svg>