<svg width="24" height="24" fill="none" xmlns="http://www.w3.org/2000/svg"><path d="M2 8.5c0-3.5 2-5 5-5h10c3 0 5 1.5 5 5v7c0 3.5-2 5-5 5H7c-3 0-5-1.5-5-5v-2.97" stroke="#292D32" stroke-width="1.5" stroke-miterlimit="10" stroke-linecap="round" stroke-linejoin="round"/><path d="M15 12c0-1.66-1.34-3-3-3s-3 1.34-3 3 1.34 3 3 3M8.5 6H7a2.5 2.5 0 0 0-2.5 2.5V10M15.5 6H17a2.5 2.5 0 0 1 2.5 2.5V10M8.5 18H7a2.5 2.5 0 0 1-2.5-2.5V14M15.5 18H17a2.5 2.5 0 0 0 2.5-2.5V14" stroke="#292D32" stroke-width="1.5" stroke-miterlimit="10" stroke-linecap="round" stroke-linejoin="round"/></svg>