<svg width="24" height="24" fill="none" xmlns="http://www.w3.org/2000/svg"><path d="M15.3 4.17a4.75 4.75 0 0 0-3.6-1.39l-5 .24c-2 .09-3.59 1.68-3.69 3.67l-.24 5c-.06 1.34.44 2.65 1.39 3.6l4.53 4.53a4.78 4.78 0 0 0 6.75 0l4.39-4.39a4.78 4.78 0 0 0 0-6.75L18.7 7.55" stroke="#292D32" stroke-width="1.5" stroke-linecap="round" stroke-linejoin="round"/><path d="M8.51 11.8c.3.13.64.2.99.2a2.5 2.5 0 0 0 0-5A2.5 2.5 0 0 0 7 9.5" stroke="#292D32" stroke-width="1.5" stroke-linecap="round"/><path d="m13 17 4-4" stroke="#292D32" stroke-width="1.5" stroke-miterlimit="10" stroke-linecap="round" stroke-linejoin="round"/></svg>