<svg width="24" height="24" fill="none" xmlns="http://www.w3.org/2000/svg"><path d="M3.242 15.27c-.38.14-.8.22-1.23.22.09 3.59 1.16 4.51 4.99 4.51h10c4 0 5-1 5-5V9c0-4-1-5-5-5h-10c-3.83 0-4.9.92-4.99 4.5 1.93 0 3.49 1.57 3.49 3.5M9 4v3.5M9 16.5V20" stroke="#292D32" stroke-width="1.5" stroke-linecap="round" stroke-linejoin="round"/><path d="M14.862 14.208a.445.445 0 0 0-.39 0l-1.23.65c-.31.16-.66-.1-.6-.44l.24-1.37a.422.422 0 0 0-.12-.37l-.99-.97a.416.416 0 0 1 .23-.71l1.38-.2c.14-.02.25-.1.31-.23l.61-1.25a.41.41 0 0 1 .74 0l.62 1.25c.06.12.18.21.31.23l1.38.2c.34.05.48.47.23.71l-1 .97c-.1.09-.14.23-.12.37" stroke="#292D32" stroke-width="1.5" stroke-linecap="round" stroke-linejoin="round"/></svg>