<svg width="24" height="24" fill="none" xmlns="http://www.w3.org/2000/svg"><path d="M6.19 7.06C6.45 7.02 6.72 7 7 7h10c.26 0 .51.01.75.05C20.33 7.35 22 9.26 22 12v5c0 3-2 5-5 5H7.63c.31-.26.58-.58.79-.94.37-.6.58-1.31.58-2.06 0-2.21-1.79-4-4-4-1.2 0-2.27.53-3 1.36V12c0-.87.17-1.66.48-2.33" stroke="#292D32" stroke-width="1.5" stroke-linecap="round" stroke-linejoin="round"/><path d="M17.751 7.05c-.24-.04-.49-.05-.75-.05h-10c-.28 0-.55.02-.81.06.14-.28.34-.54.58-.78l3.25-3.26a3.525 3.525 0 0 1 4.96 0l1.75 1.77c.64.63.98 1.43 1.02 2.26Z" stroke="#292D32" stroke-width="1.5" stroke-linecap="round" stroke-linejoin="round"/><path d="M9 19c0 .75-.21 1.46-.58 2.06A3.97 3.97 0 0 1 5 23a3.97 3.97 0 0 1-3.42-1.94A3.92 3.92 0 0 1 1 19c0-2.21 1.79-4 4-4s4 1.79 4 4ZM6.492 18.98h-2.98M5 17.52v2.99" stroke="#292D32" stroke-width="1.5" stroke-miterlimit="10" stroke-linecap="round" stroke-linejoin="round"/><path d="M22 12.5h-3c-1.1 0-2 .9-2 2s.9 2 2 2h3" stroke="#292D32" stroke-width="1.5" stroke-linecap="round" stroke-linejoin="round"/></svg>