<svg width="24" height="24" fill="none" xmlns="http://www.w3.org/2000/svg"><path d="M13 11.148H7M11.309 2.852c2.04 0 3.69 1.27 3.69 3.31M2 10.15V6.53c0-2.04 1.65-3.69 3.69-3.69h1.93" stroke="#292D32" stroke-width="1.5" stroke-linecap="round" stroke-linejoin="round"/><path d="M2 10.148c0-2.21 1.79-4 4-4h10c2.2 0 4 1.8 4 4v1.45h-1.08c-.56 0-1.07.22-1.44.6-.5.48-.74 1.22-.54 1.98.25.93 1.17 1.52 2.13 1.52H20v1.45c0 2.21-1.79 4-4 4H6c-2.21 0-4-1.79-4-4v-2.63" stroke="#292D32" stroke-width="1.5" stroke-linecap="round" stroke-linejoin="round"/><path d="M22 12.622v2.06c0 .56-.46 1.02-1.03 1.02h-1.93c-1.08 0-2.07-.79-2.16-1.87-.06-.63.18-1.22.6-1.63.37-.38.88-.6 1.44-.6h2.05c.57 0 1.03.46 1.03 1.02Z" stroke="#292D32" stroke-width="1.5" stroke-linecap="round" stroke-linejoin="round"/></svg>