<svg width="24" height="24" fill="none" xmlns="http://www.w3.org/2000/svg"><path opacity=".4" d="M12 22c5.523 0 10-4.477 10-10S17.523 2 12 2 2 6.477 2 12s4.477 10 10 10Z" fill="#292D32"/><path d="M8 14.751c-.19 0-.38-.07-.53-.22l-2-2a.755.755 0 0 1 0-1.06l2-2c.29-.29.77-.29 1.06 0 .29.29.29.77 0 1.06l-1.47 1.47 1.47 1.47c.29.29.29.77 0 1.06-.15.15-.34.22-.53.22ZM16 14.751c-.19 0-.38-.07-.53-.22a.755.755 0 0 1 0-1.06l1.47-1.47-1.47-1.47a.755.755 0 0 1 0-1.06c.29-.29.77-.29 1.06 0l2 2c.29.29.29.77 0 1.06l-2 2c-.15.15-.34.22-.53.22ZM11 15.08a.745.745 0 0 1-.68-1.05l2-4.67c.16-.38.6-.56.98-.39.38.16.56.6.39.99l-2 4.67c-.12.28-.4.45-.69.45Z" fill="#292D32"/></svg>