<svg width="24" height="24" fill="none" xmlns="http://www.w3.org/2000/svg"><path d="M7 8H4c-1.1 0-2-.9-2-2V4c0-1.1.9-2 2-2h3c1.1 0 2 .9 2 2v2c0 1.1-.9 2-2 2ZM20.8 7h-3.6c-.66 0-1.2-.54-1.2-1.2V4.2c0-.66.54-1.2 1.2-1.2h3.6c.66 0 1.2.54 1.2 1.2v1.6c0 .66-.54 1.2-1.2 1.2ZM20.8 14.5h-3.6c-.66 0-1.2-.54-1.2-1.2v-1.6c0-.66.54-1.2 1.2-1.2h3.6c.66 0 1.2.54 1.2 1.2v1.6c0 .66-.54 1.2-1.2 1.2Z" fill="#292D32"/><path opacity=".37" d="M16 13.25c.41 0 .75-.34.75-.75s-.34-.75-.75-.75h-2.75v-6H16c.41 0 .75-.34.75-.75s-.34-.75-.75-.75H9c-.41 0-.75.34-.75.75s.34.75.75.75h2.75V18c0 1.52 1.23 2.75 2.75 2.75H16c.41 0 .75-.34.75-.75s-.34-.75-.75-.75h-1.5c-.69 0-1.25-.56-1.25-1.25v-4.75H16Z" fill="#292D32"/><path d="M20.8 22h-3.6c-.66 0-1.2-.54-1.2-1.2v-1.6c0-.66.54-1.2 1.2-1.2h3.6c.66 0 1.2.54 1.2 1.2v1.6c0 .66-.54 1.2-1.2 1.2Z" fill="#292D32"/></svg>