<svg width="24" height="24" fill="none" xmlns="http://www.w3.org/2000/svg"><path opacity=".4" d="M21 7v10c0 3-1.5 5-5 5H9c1.21-.91 2-2.37 2-4 0-2.76-2.24-5-5-5-1.13 0-2.17.37-3 1V7c0-3 1.5-5 5-5h8c3.5 0 5 2 5 5Z" fill="#292D32"/><path fill-rule="evenodd" clip-rule="evenodd" d="M14.5 3.75a.75.75 0 0 1 .75.75v2c0 .686.564 1.25 1.25 1.25h2a.75.75 0 0 1 0 1.5h-2a2.756 2.756 0 0 1-2.75-2.75v-2a.75.75 0 0 1 .75-.75Z" fill="#292D32"/><path d="M6 13c-2.76 0-5 2.24-5 5s2.24 5 5 5 5-2.24 5-5-2.24-5-5-5Zm-.84 6.27c.25.25.25.66 0 .92-.13.13-.29.19-.46.19-.17 0-.33-.06-.46-.19l-1.73-1.73a.658.658 0 0 1 0-.92l1.73-1.73c.25-.25.66-.25.92 0 .25.25.25.66 0 .92L3.89 18l1.27 1.27Zm4.32-.81-1.73 1.73c-.13.13-.29.19-.46.19-.17 0-.33-.06-.46-.19a.658.658 0 0 1 0-.92L8.1 18l-1.27-1.27a.658.658 0 0 1 0-.92c.25-.25.66-.25.92 0l1.73 1.73c.25.26.25.66 0 .92Z" fill="#292D32"/></svg>