<svg width="24" height="24" fill="none" xmlns="http://www.w3.org/2000/svg"><path d="M20.97 16h-2.94c-1.27 0-2.03.76-2.03 2.03v2.94c0 1.27.76 2.03 2.03 2.03h2.94c1.27 0 2.03-.76 2.03-2.03v-2.94c0-1.27-.76-2.03-2.03-2.03Zm.22 3.31a.62.62 0 0 1-.44.18.62.62 0 0 1-.44-.18l-.18-.18v2.24c0 .35-.28.63-.63.63s-.63-.28-.63-.63v-2.24l-.18.18c-.24.24-.64.24-.88 0a.628.628 0 0 1 0-.88l1.25-1.25c.05-.05.12-.09.19-.12.02-.01.04-.01.06-.02.05-.02.1-.03.16-.03h.06c.07 0 .13.01.2.04h.02c.07.03.13.07.18.12.01.01.01.01.02.01l1.25 1.25c.24.24.24.64-.01.88Z" fill="#292D32"/><path opacity=".4" d="M16 20.97v-2.94c0-1.27.76-2.03 2.03-2.03h2.94c.4 0 .74.08 1.03.22V7.81C22 4.17 19.83 2 16.19 2H7.81C4.17 2 2 4.17 2 7.81v8.37C2 19.83 4.17 22 7.81 22H16.22c-.14-.29-.22-.63-.22-1.03Z" fill="#292D32"/><path d="M16 10.171c.41 0 .75-.34.75-.75s-.34-.75-.75-.75h-2.41l.26-2.32a.751.751 0 0 0-.66-.83.758.758 0 0 0-.83.66l-.28 2.49h-1.65l.26-2.32a.751.751 0 0 0-.66-.83.751.751 0 0 0-.83.66l-.28 2.49h-2.4c-.41 0-.75.34-.75.75s.34.75.75.75h2.23l-.18 1.66H6c-.41 0-.75.34-.75.75s.34.75.75.75h2.41l-.26 2.32c-.05.41.25.78.66.83h.08c.38 0 .7-.28.74-.67l.28-2.49h1.65l-.26 2.32c-.05.41.25.78.66.83h.08c.38 0 .7-.28.74-.67l.28-2.49h2.4c.41 0 .75-.34.75-.75s-.34-.75-.75-.75h-2.23l.18-1.66H16v.02Zm-4.27 1.66h-1.65l.18-1.66h1.65l-.18 1.66Z" fill="#292D32"/></svg>