<svg width="24" height="24" fill="none" xmlns="http://www.w3.org/2000/svg"><path opacity=".4" d="M16.19 2H7.81C4.17 2 2 4.17 2 7.81v8.37C2 19.83 4.17 22 7.81 22h8.37c3.64 0 5.81-2.17 5.81-5.81V7.81C22 4.17 19.83 2 16.19 2Z" fill="#292D32"/><path d="M18.82 10.579c.4 0 .73-.33.73-.73 0-.4-.33-.73-.73-.73h-3.61l.39-3.5c.04-.4-.24-.76-.65-.81-.4-.04-.76.24-.81.65l-.41 3.66H10.9l.39-3.5c.04-.4-.24-.76-.65-.81-.4-.04-.76.24-.81.65l-.4 3.66H5.9c-.4 0-.73.33-.73.73 0 .4.33.73.73.73h3.37l-.32 2.85H5.18c-.4 0-.73.33-.73.73 0 .4.33.73.73.73h3.61l-.39 3.5c-.04.4.24.76.65.81h.08c.37 0 .68-.28.73-.65l.41-3.66h2.84l-.39 3.5c-.04.4.24.76.65.81h.08c.37 0 .68-.28.73-.65l.41-3.66h3.53c.4 0 .73-.33.73-.73 0-.4-.33-.73-.73-.73h-3.37l.32-2.85h3.75Zm-5.56 2.84h-2.84l.32-2.85h2.84l-.32 2.85Z" fill="#292D32"/></svg>