<svg width="24" height="24" fill="none" xmlns="http://www.w3.org/2000/svg"><path opacity=".4" d="M8.5 18.969H8c-4 0-6-1-6-6v-5c0-4 2-6 6-6h8c4 0 6 2 6 6v5c0 4-2 6-6 6h-.5c-.31 0-.61.15-.8.4l-1.5 2c-.66.88-1.74.88-2.4 0l-1.5-2c-.16-.22-.52-.4-.8-.4Z" fill="#292D32"/><path d="M8 13.45c-.19 0-.38-.07-.53-.22l-2-2a.754.754 0 0 1 0-1.06l2-2c.29-.29.77-.29 1.06 0 .29.29.29.77 0 1.06L7.06 10.7l1.47 1.47c.29.29.29.77 0 1.06-.15.15-.34.22-.53.22ZM16 13.45c-.19 0-.38-.07-.53-.22a.754.754 0 0 1 0-1.06l1.47-1.47-1.47-1.47a.754.754 0 0 1 0-1.06c.29-.29.77-.29 1.06 0l2 2c.29.29.29.77 0 1.06l-2 2c-.15.15-.34.22-.53.22ZM11 13.78a.745.745 0 0 1-.69-1.05l2-4.67c.16-.38.6-.56.99-.39.38.16.56.6.39.99l-2 4.67c-.12.28-.4.45-.69.45Z" fill="#292D32"/></svg>