<svg width="24" height="24" fill="none" xmlns="http://www.w3.org/2000/svg"><path opacity=".4" d="M17 3.75h-3.93l1.41-1.17c.32-.27.36-.74.1-1.06a.758.758 0 0 0-1.06-.1l-3 2.5a.761.761 0 0 0 0 1.16l3 2.5c.14.12.31.17.48.17a.75.75 0 0 0 .48-1.33l-1.41-1.17H17c.69 0 1.25.56 1.25 1.25V16c0 .41.34.75.75.75s.75-.34.75-.75V6.5c0-1.52-1.23-2.75-2.75-2.75Z" fill="#292D32"/><path d="M19 22a3 3 0 1 0 0-6 3 3 0 0 0 0 6Z" fill="#292D32"/><path opacity=".4" d="m13.48 18.92-3-2.5a.75.75 0 0 0-1.06.1.75.75 0 0 0 .1 1.06l1.41 1.17H7c-.69 0-1.25-.56-1.25-1.25V8c0-.41-.34-.75-.75-.75s-.75.34-.75.75v9.5c0 1.52 1.23 2.75 2.75 2.75h3.93l-1.41 1.17c-.32.27-.36.74-.1 1.06.15.18.36.27.58.27.17 0 .34-.06.48-.17l3-2.5a.761.761 0 0 0 0-1.16Z" fill="#292D32"/><path d="M5 8a3 3 0 1 0 0-6 3 3 0 0 0 0 6Z" fill="#292D32"/></svg>