<svg width="24" height="24" fill="none" xmlns="http://www.w3.org/2000/svg"><path opacity=".4" d="M16.19 2H7.81C4.17 2 2 4.17 2 7.81v8.37C2 19.83 4.17 22 7.81 22h8.37c3.64 0 5.81-2.17 5.81-5.81V7.81C22 4.17 19.83 2 16.19 2Z" fill="#292D32"/><path d="M9.6 15.782c-.19 0-.38-.07-.53-.22l-2.49-2.49c-.59-.59-.59-1.54 0-2.13l2.49-2.49c.29-.29.77-.29 1.06 0 .29.29.29.77 0 1.06l-2.49 2.49 2.49 2.5c.29.29.29.77 0 1.06-.15.14-.34.22-.53.22ZM14.4 15.78c-.19 0-.38-.07-.53-.22a.754.754 0 0 1 0-1.06l2.49-2.5-2.49-2.5a.754.754 0 0 1 0-1.06c.29-.29.77-.29 1.06 0l2.49 2.49c.59.59.59 1.54 0 2.13l-2.49 2.49c-.14.15-.34.23-.53.23Z" fill="#292D32"/></svg>