<svg width="24" height="24" fill="none" xmlns="http://www.w3.org/2000/svg"><path opacity=".4" d="M22 7.81v8.38c0 3.64-2.17 5.81-5.81 5.81H7.81c-.2 0-.4-.01-.59-.02-1.23-.08-2.27-.43-3.09-1.03-.42-.29-.79-.66-1.08-1.08C2.36 18.92 2 17.68 2 16.19V7.81c0-3.44 1.94-5.57 5.22-5.78.19-.02.39-.03.59-.03h8.38c1.49 0 2.73.36 3.68 1.05.42.29.79.66 1.08 1.08.69.95 1.05 2.19 1.05 3.68Z" fill="#292D32"/><path d="M8.72 2v20h-.91c-.2 0-.4-.01-.59-.02V2.03c.19-.02.39-.03.59-.03h.91ZM14.97 15.309c-.19 0-.38-.07-.53-.22l-2.56-2.56a.754.754 0 0 1 0-1.06l2.56-2.56c.29-.29.77-.29 1.06 0 .29.29.29.77 0 1.06l-2.02 2.03 2.03 2.03c.29.29.29.77 0 1.06-.15.15-.34.22-.54.22Z" fill="#292D32"/></svg>