<svg width="24" height="24" fill="none" xmlns="http://www.w3.org/2000/svg"><path d="M9.159 11.62h-.08a.543.543 0 0 0-.18 0c-2.9-.09-5.09-2.37-5.09-5.18 0-2.86 2.33-5.19 5.19-5.19 2.86 0 5.19 2.33 5.19 5.19-.01 2.81-2.21 5.09-5 5.18h-.03Zm-.16-8.87a3.7 3.7 0 0 0-3.69 3.69c0 2 1.56 3.61 3.55 3.68.06-.01.19-.01.32 0 1.96-.09 3.5-1.7 3.51-3.68a3.7 3.7 0 0 0-3.69-3.69ZM16.538 11.75c-.03 0-.06 0-.09-.01-.41.04-.83-.25-.87-.66-.04-.41.21-.78.62-.83.12-.01.25-.01.36-.01 1.46-.08 2.6-1.28 2.6-2.75 0-1.52-1.23-2.75-2.75-2.75a.74.74 0 0 1-.75-.74c0-.41.34-.75.75-.75a4.26 4.26 0 0 1 4.25 4.25c0 2.3-1.8 4.16-4.09 4.25h-.03ZM9.172 22.55c-1.96 0-3.93-.5-5.42-1.5-1.39-.92-2.15-2.18-2.15-3.55 0-1.37.76-2.64 2.15-3.57 3-1.99 7.86-1.99 10.84 0 1.38.92 2.15 2.18 2.15 3.55 0 1.37-.76 2.64-2.15 3.57-1.5 1-3.46 1.5-5.42 1.5Zm-4.59-7.36c-.96.64-1.48 1.46-1.48 2.32 0 .85.53 1.67 1.48 2.3 2.49 1.67 6.69 1.67 9.18 0 .96-.64 1.48-1.46 1.48-2.32 0-.85-.53-1.67-1.48-2.3-2.49-1.66-6.69-1.66-9.18 0ZM18.338 20.75c-.35 0-.66-.24-.73-.6a.76.76 0 0 1 .58-.89c.63-.13 1.21-.38 1.66-.73.57-.43.88-.97.88-1.54 0-.57-.31-1.11-.87-1.53-.44-.34-.99-.58-1.64-.73a.756.756 0 0 1-.57-.9c.09-.4.49-.66.9-.57.86.19 1.61.53 2.22 1 .93.7 1.46 1.69 1.46 2.73s-.54 2.03-1.47 2.74c-.62.48-1.4.83-2.26 1-.06.02-.11.02-.16.02Z" fill="#292D32"/></svg>