<svg width="24" height="24" fill="none" xmlns="http://www.w3.org/2000/svg"><path d="M12 12.75c-3.17 0-5.75-2.58-5.75-5.75S8.83 1.25 12 1.25 17.75 3.83 17.75 7s-2.58 5.75-5.75 5.75Zm0-10A4.26 4.26 0 0 0 7.75 7 4.26 4.26 0 0 0 12 11.25 4.26 4.26 0 0 0 16.25 7 4.26 4.26 0 0 0 12 2.75ZM15.82 22.751c-.38 0-.74-.14-1-.4-.31-.31-.45-.76-.38-1.23l.19-1.35c.05-.35.26-.76.51-1.02l3.54-3.54c1.42-1.42 2.67-.61 3.28 0 .52.52.79 1.08.79 1.64 0 .57-.26 1.1-.79 1.63l-3.54 3.54c-.25.25-.67.46-1.02.51l-1.35.19c-.08.02-.15.03-.23.03Zm4.49-6.83c-.18 0-.34.12-.57.35l-3.54 3.54a.38.38 0 0 0-.08.17l-.18 1.25 1.25-.18c.04-.01.14-.06.17-.09l3.54-3.54c.16-.16.35-.39.35-.57 0-.15-.12-.36-.35-.58-.24-.24-.42-.35-.59-.35Z" fill="#292D32"/><path d="M20.92 19.221c-.07 0-.14-.01-.2-.03a3.977 3.977 0 0 1-2.74-2.74c-.11-.4.12-.81.52-.92.4-.11.81.12.92.52.23.82.88 1.47 1.7 1.7a.749.749 0 0 1-.2 1.47ZM3.41 22.75c-.41 0-.75-.34-.75-.75 0-4.27 4.19-7.75 9.34-7.75 1.09 0 2.17.16 3.18.46.4.12.62.54.5.93-.12.4-.54.62-.93.5-.88-.26-1.8-.4-2.75-.4-4.32 0-7.84 2.8-7.84 6.25 0 .42-.34.76-.75.76Z" fill="#292D32"/></svg>