<svg width="24" height="24" fill="none" xmlns="http://www.w3.org/2000/svg"><path d="M12 22.752c-.7 0-1.41-.27-1.94-.8l-1.71-1.69c-.42-.42-1-.65-1.59-.65H6c-2.07 0-3.75-1.67-3.75-3.72V4.982c0-2.05 1.68-3.72 3.75-3.72h12c2.07 0 3.75 1.67 3.75 3.72v10.91c0 2.05-1.68 3.72-3.75 3.72h-.76a2.3 2.3 0 0 0-1.59.65l-1.71 1.69c-.53.53-1.24.8-1.94.8Zm-6-20c-1.24 0-2.25 1-2.25 2.22v10.91c0 1.23 1.01 2.22 2.25 2.22h.76c.99 0 1.95.4 2.65 1.09l1.71 1.69c.49.48 1.28.48 1.77 0l1.71-1.69c.7-.69 1.66-1.09 2.65-1.09H18c1.24 0 2.25-1 2.25-2.22V4.972c0-1.23-1.01-2.22-2.25-2.22H6Z" fill="#292D32"/><path d="M12.002 10.75c-1.7 0-3.08-1.38-3.08-3.08 0-1.7 1.38-3.08 3.08-3.08 1.7 0 3.08 1.38 3.08 3.08 0 1.7-1.38 3.08-3.08 3.08Zm0-4.66c-.87 0-1.58.71-1.58 1.58 0 .87.71 1.58 1.58 1.58.87 0 1.58-.71 1.58-1.58 0-.87-.71-1.58-1.58-1.58ZM16 16.408c-.41 0-.75-.34-.75-.75 0-1.38-1.46-2.51-3.25-2.51s-3.25 1.13-3.25 2.51c0 .41-.34.75-.75.75s-.75-.34-.75-.75c0-2.21 2.13-4.01 4.75-4.01s4.75 1.8 4.75 4.01c0 .41-.34.75-.75.75Z" fill="#292D32"/></svg>