<svg width="24" height="24" fill="none" xmlns="http://www.w3.org/2000/svg"><path d="M11.458 14.48c-1.96 0-3.56-1.6-3.56-3.56s1.6-3.56 3.56-3.56 3.56 1.6 3.56 3.56-1.6 3.56-3.56 3.56Zm0-5.61c-1.13 0-2.06.92-2.06 2.06 0 1.14.92 2.06 2.06 2.06 1.14 0 2.06-.92 2.06-2.06 0-1.14-.92-2.06-2.06-2.06ZM16.65 20.949c-.41 0-.75-.34-.75-.75 0-1.92-1.99-3.48-4.44-3.48s-4.44 1.56-4.44 3.48c0 .41-.34.75-.75.75s-.75-.34-.75-.75c0-2.74 2.66-4.98 5.94-4.98 3.28 0 5.94 2.23 5.94 4.98 0 .41-.34.75-.75.75Z" fill="#292D32"/><path d="M11.5 22.75c-5.65 0-10.25-4.6-10.25-10.25S5.85 2.25 11.5 2.25c1.39 0 2.73.27 3.99.8.36.15.54.55.42.92-.11.33-.16.68-.16 1.03 0 .59.16 1.17.47 1.67.16.28.37.53.61.74.87.79 2.16 1.04 3.17.68.37-.14.79.05.94.42.54 1.27.81 2.62.81 4 0 5.64-4.6 10.24-10.25 10.24Zm0-19c-4.82 0-8.75 3.92-8.75 8.75s3.93 8.75 8.75 8.75 8.75-3.92 8.75-8.75c0-.96-.16-1.91-.46-2.82a4.75 4.75 0 0 1-3.95-1.16c-.35-.3-.66-.67-.9-1.08a4.695 4.695 0 0 1-.61-3.23c-.91-.31-1.86-.46-2.83-.46Z" fill="#292D32"/><path d="M19 9.75a4.7 4.7 0 0 1-3.17-1.23c-.35-.3-.66-.67-.9-1.08-.44-.72-.68-1.57-.68-2.44 0-.51.08-1.01.24-1.49.22-.68.6-1.31 1.11-1.82.9-.92 2.11-1.44 3.41-1.44 1.36 0 2.65.58 3.53 1.58A4.74 4.74 0 0 1 23.76 5c0 .38-.05.76-.15 1.12-.1.45-.29.92-.55 1.33a4.61 4.61 0 0 1-2.58 2.05c-.45.17-.95.25-1.48.25Zm0-8c-.89 0-1.72.35-2.33.98-.35.36-.6.77-.75 1.24-.11.33-.16.68-.16 1.03 0 .59.16 1.17.47 1.67.16.28.37.53.61.74.87.79 2.16 1.04 3.17.68.76-.24 1.38-.74 1.78-1.41.18-.29.3-.6.37-.91.07-.26.1-.51.1-.77 0-.8-.3-1.57-.84-2.17A3.22 3.22 0 0 0 19 1.75Z" fill="#292D32"/><path d="M20.49 5.73H17.5c-.41 0-.75-.34-.75-.75s.34-.75.75-.75h2.99a.749.749 0 1 1 0 1.5Z" fill="#292D32"/><path d="M19 7.26c-.41 0-.75-.34-.75-.75V3.52c0-.41.34-.75.75-.75s.75.34.75.75v2.99c0 .42-.34.75-.75.75Z" fill="#292D32"/></svg>