<svg width="24" height="24" fill="none" xmlns="http://www.w3.org/2000/svg"><path d="M12 22.751c-.67 0-1.35-.17-1.95-.52l-5.94-3.43c-1.2-.7-1.95-1.99-1.95-3.38v-6.84c0-1.39.75-2.68 1.95-3.38l5.94-3.43c1.2-.7 2.69-.7 3.9 0l5.94 3.43c1.2.7 1.95 1.99 1.95 3.38v6.84c0 1.39-.75 2.68-1.95 3.38l-5.94 3.43c-.6.35-1.28.52-1.95.52Zm0-20c-.41 0-.83.11-1.2.32l-5.94 3.43c-.74.43-1.2 1.22-1.2 2.08v6.84c0 .85.46 1.65 1.2 2.08l5.94 3.43c.74.43 1.66.43 2.4 0l5.94-3.43c.74-.43 1.2-1.22 1.2-2.08v-6.84c0-.85-.46-1.65-1.2-2.08l-5.94-3.43c-.37-.21-.79-.32-1.2-.32Z" fill="#292D32"/><path d="M12.002 11.75c-1.7 0-3.08-1.38-3.08-3.08 0-1.7 1.38-3.08 3.08-3.08 1.7 0 3.08 1.38 3.08 3.08 0 1.7-1.38 3.08-3.08 3.08Zm0-4.66c-.87 0-1.58.71-1.58 1.58 0 .87.71 1.58 1.58 1.58.87 0 1.58-.71 1.58-1.58 0-.87-.71-1.58-1.58-1.58ZM16 17.408c-.41 0-.75-.34-.75-.75 0-1.38-1.46-2.51-3.25-2.51s-3.25 1.13-3.25 2.51c0 .41-.34.75-.75.75s-.75-.34-.75-.75c0-2.21 2.13-4.01 4.75-4.01s4.75 1.8 4.75 4.01c0 .41-.34.75-.75.75Z" fill="#292D32"/></svg>