<svg width="24" height="24" fill="none" xmlns="http://www.w3.org/2000/svg"><path d="M12 12.75c-3.17 0-5.75-2.58-5.75-5.75S8.83 1.25 12 1.25 17.75 3.83 17.75 7s-2.58 5.75-5.75 5.75Zm0-10A4.26 4.26 0 0 0 7.75 7 4.26 4.26 0 0 0 12 11.25 4.26 4.26 0 0 0 16.25 7 4.26 4.26 0 0 0 12 2.75ZM3.41 22.75c-.41 0-.75-.34-.75-.75 0-4.27 4.19-7.75 9.34-7.75 1.01 0 2 .13 2.96.4.4.11.63.52.52.92-.11.4-.52.63-.92.52-.82-.23-1.68-.34-2.56-.34-4.32 0-7.84 2.8-7.84 6.25 0 .41-.34.75-.75.75Z" fill="#292D32"/><path d="M18 22.75c-1.66 0-3.22-.88-4.06-2.31-.45-.72-.69-1.57-.69-2.44 0-1.46.65-2.81 1.78-3.71.84-.67 1.9-1.04 2.97-1.04 2.62 0 4.75 2.13 4.75 4.75 0 .87-.24 1.72-.69 2.45-.25.42-.57.8-.95 1.12-.83.76-1.94 1.18-3.11 1.18Zm0-8c-.74 0-1.44.25-2.03.72a3.224 3.224 0 0 0-.75 4.2c.58.98 1.65 1.58 2.78 1.58.79 0 1.55-.29 2.13-.81.26-.22.48-.48.64-.76.32-.51.48-1.09.48-1.68 0-1.79-1.46-3.25-3.25-3.25Z" fill="#292D32"/><path d="M17.429 19.741c-.19 0-.38-.07-.53-.22l-.99-.99a.755.755 0 0 1 0-1.06c.29-.29.77-.29 1.06 0l.48.48 1.6-1.48c.3-.28.78-.26 1.06.04s.26.78-.04 1.06l-2.13 1.97c-.15.13-.33.2-.51.2Z" fill="#292D32"/></svg>