<svg width="24" height="24" fill="none" xmlns="http://www.w3.org/2000/svg"><path d="M8.51 2v6.5H2v-.69C2 4.17 4.17 2 7.81 2h.7ZM22 7.81v.69h-6.49V2h.68C19.83 2 22 4.17 22 7.81ZM22 15.5v.69c0 3.64-2.17 5.81-5.81 5.81h-.68v-6.5H22ZM8.51 15.5V22h-.7C4.17 22 2 19.83 2 16.19v-.69h6.51Z" fill="#292D32"/><path opacity=".4" d="M8.51 8.5H2v7h6.51v-7ZM22 8.5h-6.49v7H22v-7Z" fill="#292D32"/><path d="M15.51 8.5h-7v7h7v-7Z" fill="#292D32"/><path opacity=".4" d="M15.51 2h-7v6.5h7V2ZM15.51 15.5h-7V22h7v-6.5Z" fill="#292D32"/></svg>