<svg width="24" height="24" fill="none" xmlns="http://www.w3.org/2000/svg"><path d="M21.33 14.67c-1.05-1.05-1.88-.71-2.6 0l-4.15 4.15c-.16.16-.31.47-.35.69L14 21.1c-.08.57.32.98.89.89l1.59-.23c.22-.03.53-.19.69-.35l4.15-4.15c.73-.71 1.06-1.54.01-2.59ZM8.39 2.172v6.45H1.93v-.68c0-3.61 2.15-5.76 5.76-5.76h.7v-.01ZM21.77 7.93c0 .38-.31.68-.68.68h-5.75V2.16h.67c3.18.01 5.76 2.59 5.76 5.77ZM8.39 15.55v5.76c0 .38-.31.68-.68.68H7.7c-3.18 0-5.76-2.58-5.76-5.76v-.68h6.45Z" fill="#292D32"/><path opacity=".4" d="M8.4 8.61H1.94v6.94H8.4V8.61Z" fill="#292D32"/><path d="M15.33 8.61v5.94c0 .55-.45 1-1 1H8.39V8.61h6.94Z" fill="#292D32"/><path opacity=".4" d="M15.33 2.172H8.39v6.45h6.94v-6.45Z" fill="#292D32"/></svg>