<svg width="24" height="24" fill="none" xmlns="http://www.w3.org/2000/svg"><path d="M8.39 2.172v6.45H1.93v-.68c0-3.61 2.15-5.76 5.76-5.76h.7v-.01ZM21.77 7.93c0 .38-.31.68-.68.68h-5.75V2.16h.67c3.18.01 5.76 2.59 5.76 5.77ZM8.39 15.55v5.76c0 .38-.31.68-.68.68H7.7c-3.18 0-5.76-2.58-5.76-5.76v-.68h6.45Z" fill="#292D32"/><path opacity=".4" d="M8.4 8.61H1.94v6.94H8.4V8.61Z" fill="#292D32"/><path d="M15.33 8.61v6.26c0 .38-.31.68-.68.68H8.39V8.61h6.94Z" fill="#292D32"/><path opacity=".4" d="M15.33 2.172H8.39v6.45h6.94v-6.45ZM19.8 20.7l-1.9 1.91c-.52.52-1.38.52-1.92 0l-1.58-1.59c-.52-.53-.52-1.38 0-1.92l1.91-1.89 3.49 3.49Z" fill="#292D32"/><path d="m22.61 17.9-2.81 2.8-3.49-3.49 2.8-2.82c.53-.52 1.39-.52 1.92 0l1.58 1.59c.52.53.52 1.4 0 1.92Z" fill="#292D32"/></svg>