<svg width="24" height="24" fill="none" xmlns="http://www.w3.org/2000/svg"><path opacity=".4" d="M16.19 2H7.81C4.17 2 2 4.17 2 7.81v8.37C2 19.83 4.17 22 7.81 22h8.37c3.64 0 5.81-2.17 5.81-5.81V7.81C22 4.17 19.83 2 16.19 2Z" fill="#292D32"/><path d="M18.69 5.71a.782.782 0 0 0-.41-.41.868.868 0 0 0-.28-.05h-4c-.41 0-.75.34-.75.75s.34.75.75.75h2.19l-3.72 3.72c-.29.29-.29.77 0 1.06.15.15.34.22.53.22s.38-.07.53-.22l3.72-3.72V10c0 .41.34.75.75.75s.75-.34.75-.75V6c0-.1-.02-.19-.06-.29ZM11.53 12.471a.754.754 0 0 0-1.06 0l-3.72 3.72v-2.19c0-.41-.34-.75-.75-.75s-.75.34-.75.75v4c0 .1.02.19.06.29.08.18.22.33.41.41.08.03.18.05.28.05h4c.41 0 .75-.34.75-.75s-.34-.75-.75-.75H7.81l3.72-3.72c.29-.29.29-.77 0-1.06Z" fill="#292D32"/></svg>