<svg width="24" height="24" fill="none" xmlns="http://www.w3.org/2000/svg"><path opacity=".4" d="M16.19 2H7.81C4.17 2 2 4.17 2 7.81v8.37C2 19.83 4.17 22 7.81 22h8.37c3.64 0 5.81-2.17 5.81-5.81V7.81C22 4.17 19.83 2 16.19 2Z" fill="#292D32"/><path d="M2.75 9.97c-.41 0-.75-.33-.75-.75V6.91C2 4.2 4.2 2 6.91 2h2.31a.749.749 0 1 1 0 1.5H6.91C5.03 3.5 3.5 5.03 3.5 6.91v2.31c0 .42-.34.75-.75.75ZM21.25 9.97c-.41 0-.75-.34-.75-.75V6.91c0-1.88-1.53-3.41-3.41-3.41h-2.31a.749.749 0 1 1 0-1.5h2.31C19.8 2 22 4.2 22 6.91v2.31c0 .42-.34.75-.75.75ZM17.09 22H15.7c-.41 0-.75-.34-.75-.75s.34-.75.75-.75h1.39c1.88 0 3.41-1.53 3.41-3.41V15.7c0-.41.34-.75.75-.75s.75.34.75.75v1.39C22 19.8 19.8 22 17.09 22ZM9.22 22.001H6.91c-2.71 0-4.91-2.2-4.91-4.91v-2.31c0-.41.34-.75.75-.75s.75.34.75.75v2.31c0 1.88 1.53 3.41 3.41 3.41h2.31a.749.749 0 1 1 0 1.5Z" fill="#292D32"/></svg>