<svg width="24" height="24" fill="none" xmlns="http://www.w3.org/2000/svg"><path opacity=".4" d="M15 2H9C7.34 2 6 3.34 6 5v14c0 1.66 1.34 3 3 3h6c1.66 0 3-1.34 3-3V5c0-1.66-1.34-3-3-3Z" fill="#292D32"/><path d="M18.67 5.328h-.34c-.12 0-.23 0-.35.01.01.05.02.1.02.16v13c0 .06-.01.11-.02.16.11.01.22.01.35.01h.34c2.66 0 3.33-.67 3.33-3.34v-6.66c0-2.67-.67-3.34-3.33-3.34ZM6 18.498v-13c0-.06.01-.11.02-.16a4.09 4.09 0 0 0-.35-.01h-.34c-2.66 0-3.33.67-3.33 3.34v6.66c0 2.67.67 3.34 3.33 3.34h.34c.12 0 .23 0 .35-.01a.777.777 0 0 1-.02-.16Z" fill="#292D32"/></svg>