<svg width="24" height="24" fill="none" xmlns="http://www.w3.org/2000/svg"><path d="M12 9.32c1.19 0 2.16-.97 2.16-2.16C14.16 5.97 13.19 5 12 5c-1.19 0-2.16.97-2.16 2.16 0 1.19.97 2.16 2.16 2.16ZM6.79 19c1.19 0 2.16-.97 2.16-2.16 0-1.19-.97-2.16-2.16-2.16-1.19 0-2.16.97-2.16 2.16 0 1.19.96 2.16 2.16 2.16ZM17.21 19c1.19 0 2.16-.97 2.16-2.16 0-1.19-.97-2.16-2.16-2.16-1.19 0-2.16.97-2.16 2.16 0 1.19.97 2.16 2.16 2.16Z" stroke="#292D32" stroke-width="1.5" stroke-linecap="round" stroke-linejoin="round"/></svg>