<svg width="24" height="24" fill="none" xmlns="http://www.w3.org/2000/svg"><path d="M9 22h6c5 0 7-2 7-7V9c0-5-2-7-7-7H9C4 2 2 4 2 9v6c0 5 2 7 7 7Z" stroke="#292D32" stroke-width="1.5" stroke-linecap="round" stroke-linejoin="round"/><path d="M15.57 18.5v-3.9M15.57 7.45V5.5M15.57 12.65a2.6 2.6 0 1 0 0-5.2 2.6 2.6 0 0 0 0 5.2ZM8.43 18.5v-1.95M8.43 9.4V5.5M8.43 16.55a2.6 2.6 0 1 0 0-5.2 2.6 2.6 0 0 0 0 5.2Z" stroke="#292D32" stroke-width="1.5" stroke-miterlimit="10" stroke-linecap="round" stroke-linejoin="round"/></svg>