<svg width="24" height="24" fill="none" xmlns="http://www.w3.org/2000/svg"><path d="M21.69 2.71a.782.782 0 0 0-.41-.41.868.868 0 0 0-.28-.05h-9c-.41 0-.75.34-.75.75s.34.75.75.75h7.19L2.47 20.47c-.29.29-.29.77 0 1.06.15.15.34.22.53.22s.38-.07.53-.22L20.25 4.81V12c0 .41.34.75.75.75s.75-.34.75-.75V3c0-.1-.02-.19-.06-.29Z" fill="#292D32"/><path d="M17.4 18.15c-.19 0-.38-.07-.53-.22L6.07 7.13a.754.754 0 0 1 0-1.06c.29-.29.77-.29 1.06 0l10.8 10.8c.29.29.29.77 0 1.06-.15.15-.34.22-.53.22Z" fill="#292D32"/></svg>