<svg width="24" height="24" fill="none" xmlns="http://www.w3.org/2000/svg"><path d="M15.31 15.02c-.58 0-1.21-.19-1.84-.58l-1.32-.8c-.06-.04-.24-.04-.3 0l-1.32.8c-1.08.66-2.14.76-2.99.28-.83-.47-1.29-1.41-1.29-2.64V5.03c0-2.44 1.33-3.78 3.75-3.78h4c2.42 0 3.75 1.34 3.75 3.78v7.05c0 1.24-.46 2.18-1.29 2.64-.35.2-.74.3-1.15.3ZM12 12.11c.33 0 .66.08.93.24l1.32.8c.59.36 1.13.45 1.47.26.33-.19.52-.68.52-1.34V5.03c0-1.6-.67-2.28-2.25-2.28h-4c-1.58 0-2.25.68-2.25 2.28v7.05c0 .66.19 1.15.52 1.34.34.19.88.1 1.47-.26l1.32-.8c.29-.17.62-.25.95-.25Z" fill="#292D32"/><path d="M15 22.749H9c-5.43 0-7.75-2.34-7.75-7.82v-3.03c0-4.66 1.68-7.02 5.44-7.65.4-.07.79.21.86.62.07.41-.21.79-.62.86-3.01.5-4.19 2.23-4.19 6.17v3.03c0 4.61 1.69 6.32 6.25 6.32h6c4.56 0 6.25-1.71 6.25-6.32v-3.03c0-4-1.22-5.73-4.36-6.2a.747.747 0 0 1-.63-.85c.06-.41.44-.69.85-.63 3.9.58 5.64 2.94 5.64 7.68v3.03c.01 5.48-2.31 7.82-7.74 7.82Z" fill="#292D32"/></svg>