<svg width="24" height="24" fill="none" xmlns="http://www.w3.org/2000/svg"><path d="M3.5 18.75c-.41 0-.75-.34-.75-.75V7c0-4.41 1.34-5.75 5.75-5.75h7c4.41 0 5.75 1.34 5.75 5.75v10c0 .16 0 .31-.01.47-.03.41-.4.73-.8.7a.757.757 0 0 1-.7-.8c.01-.12.01-.25.01-.37V7c0-3.57-.67-4.25-4.25-4.25h-7c-3.58 0-4.25.68-4.25 4.25v11c0 .41-.34.75-.75.75Z" fill="#292D32"/><path d="M17 22.75H7a4.26 4.26 0 0 1-4.25-4.25v-.65c0-1.99 1.62-3.6 3.6-3.6H20.5c.41 0 .75.34.75.75v3.5A4.26 4.26 0 0 1 17 22.75Zm-10.65-7a2.1 2.1 0 0 0-2.1 2.1v.65c0 1.52 1.23 2.75 2.75 2.75h10c1.52 0 2.75-1.23 2.75-2.75v-2.75H6.35ZM16 7.75H8c-.41 0-.75-.34-.75-.75s.34-.75.75-.75h8c.41 0 .75.34.75.75s-.34.75-.75.75ZM13 11.25H8c-.41 0-.75-.34-.75-.75s.34-.75.75-.75h5c.41 0 .75.34.75.75s-.34.75-.75.75Z" fill="#292D32"/></svg>