<svg width="24" height="24" fill="none" xmlns="http://www.w3.org/2000/svg"><path d="M12 18.95c-2.62 0-4.75-2.13-4.75-4.75S9.38 9.45 12 9.45s4.75 2.13 4.75 4.75-2.13 4.75-4.75 4.75Zm0-8c-1.79 0-3.25 1.46-3.25 3.25s1.46 3.25 3.25 3.25 3.25-1.46 3.25-3.25-1.46-3.25-3.25-3.25Z" fill="#292D32"/><path d="M11 15.95c-.25 0-.5-.13-.64-.36-.21-.36-.1-.82.26-1.03l.76-.46c.08-.04.12-.13.12-.21v-.93c0-.41.34-.75.75-.75s.75.33.75.74v.93c0 .61-.33 1.19-.85 1.5l-.76.46c-.12.08-.26.11-.39.11Z" fill="#292D32"/><path d="M15.998 22.752h-8c-4.62 0-5.48-2.15-5.7-4.24l-.75-8.01c-.11-1.05-.14-2.6.9-3.76.9-1 2.39-1.48 4.55-1.48h10c2.17 0 3.66.49 4.55 1.48 1.04 1.16 1.01 2.71.9 3.77l-.75 7.99c-.22 2.1-1.08 4.25-5.7 4.25Zm-9-16c-1.69 0-2.85.33-3.44.99-.49.54-.65 1.37-.52 2.61l.75 8.01c.17 1.58.6 2.89 4.21 2.89h8c3.6 0 4.04-1.31 4.21-2.9l.75-7.99c.13-1.25-.03-2.08-.52-2.62-.59-.66-1.75-.99-3.44-.99h-10Z" fill="#292D32"/><path d="M16 6.75c-.41 0-.75-.34-.75-.75v-.8c0-1.78 0-2.45-2.45-2.45h-1.6c-2.45 0-2.45.67-2.45 2.45V6c0 .41-.34.75-.75.75s-.75-.34-.75-.75v-.8c0-1.76 0-3.95 3.95-3.95h1.6c3.95 0 3.95 2.19 3.95 3.95V6c0 .41-.34.75-.75.75ZM16.01 14.392c-.34 0-.64-.23-.73-.57-.1-.4.14-.81.54-.91 1.95-.49 3.76-1.34 5.38-2.52.33-.24.8-.17 1.05.17.24.33.17.8-.17 1.05a17.157 17.157 0 0 1-5.9 2.76.88.88 0 0 1-.17.02ZM8 14.42c-.06 0-.12-.01-.18-.02-2.01-.49-3.9-1.34-5.63-2.52a.753.753 0 0 1-.2-1.04c.23-.34.7-.43 1.04-.2 1.58 1.08 3.3 1.85 5.14 2.3.4.1.65.5.55.91-.07.34-.38.57-.72.57Z" fill="#292D32"/></svg>