<svg width="24" height="24" fill="none" xmlns="http://www.w3.org/2000/svg"><path d="M13.05 19.42c-.54 0-1.11-.05-1.73-.15l-4.69-.74c-1.48-.23-2.62-.64-3.47-1.24-2.19-1.52-2.06-4.13-1.78-5.96l.74-4.69c.68-4.3 2.9-5.91 7.2-5.24l4.69.74c2.21.35 5.18 1.24 5.37 4.97.04.64 0 1.37-.14 2.23l-.73 4.69c-.58 3.67-2.29 5.39-5.46 5.39ZM7.53 2.75c-2.38 0-3.46 1.21-3.93 4.13l-.74 4.69c-.46 2.95.38 3.95 1.16 4.5.66.47 1.59.79 2.84.98l4.69.74c3.49.55 4.93-.5 5.48-4l.73-4.69c.12-.75.16-1.38.12-1.91v-.01c-.11-2.1-1.3-3.13-4.11-3.57l-4.68-.73c-.58-.09-1.09-.13-1.56-.13Z" fill="#292D32"/><path d="M14.681 22.749c-.85 0-1.81-.18-2.92-.55l-4.51-1.5c-2.57-.85-3.96-2.07-4.38-3.85-.07-.3.05-.62.31-.79.26-.17.6-.17.85.01.66.47 1.58.79 2.83.98l4.69.74c3.49.55 4.93-.5 5.48-4l.73-4.69c.12-.75.16-1.38.12-1.91-.01-.26.12-.52.35-.67a.74.74 0 0 1 .76-.03c2.68 1.43 3.39 3.72 2.23 7.22l-1.5 4.51c-.71 2.12-1.64 3.42-2.94 4.07-.63.31-1.32.46-2.1.46Zm-8.95-4.39c.48.32 1.12.63 1.99.92l4.51 1.5c1.72.57 2.95.62 3.87.17.92-.46 1.62-1.48 2.19-3.2l1.5-4.51c.82-2.48.5-3.8-.45-4.69-.02.25-.06.51-.1.79l-.73 4.69c-.68 4.3-2.9 5.91-7.2 5.25l-4.69-.74c-.31-.06-.61-.12-.89-.18ZM8.24 9.718c-1.37 0-2.49-1.12-2.49-2.49s1.12-2.49 2.49-2.49 2.49 1.12 2.49 2.49-1.12 2.49-2.49 2.49Zm0-3.47c-.54 0-.99.44-.99.99s.44.99.99.99c.54 0 .99-.44.99-.99s-.45-.99-.99-.99Z" fill="#292D32"/></svg>