<svg width="24" height="24" fill="none" xmlns="http://www.w3.org/2000/svg"><path d="M15.808 20.179c-.26 0-.53-.01-.82-.04-.52-.04-1.11-.14-1.72-.29l-1.68-.4c-4.61-1.09-6.12-3.53-5.04-8.13l.98-4.19c.22-.95.48-1.72.8-2.36 1.72-3.55 5.01-3.23 7.35-2.68l1.67.39c2.34.55 3.82 1.42 4.65 2.75.82 1.33.95 3.04.4 5.38l-.98 4.18c-.86 3.66-2.65 5.39-5.61 5.39Zm-2.69-16.93c-1.67 0-2.73.69-3.44 2.17-.26.54-.49 1.21-.69 2.05l-.98 4.19c-.89 3.78.14 5.43 3.92 6.33l1.68.4c.54.13 1.05.21 1.51.25 2.72.27 4.07-.92 4.83-4.19l.98-4.18c.45-1.93.39-3.28-.21-4.25-.6-.97-1.78-1.63-3.72-2.08l-1.67-.39c-.83-.2-1.57-.3-2.21-.3Z" fill="#292D32"/><path d="M8.33 22.252c-2.57 0-4.21-1.54-5.26-4.79l-1.28-3.95c-1.42-4.4-.15-6.88 4.23-8.3l1.58-.51c.52-.16.91-.27 1.26-.33.29-.06.57.05.74.28.17.23.2.53.08.79-.26.53-.49 1.2-.68 2.04l-.98 4.19c-.89 3.78.14 5.43 3.92 6.33l1.68.4c.54.13 1.05.21 1.51.25.32.03.58.25.67.56.08.31-.04.63-.3.81-.66.45-1.49.83-2.54 1.17l-1.58.52c-1.15.36-2.15.54-3.05.54Zm-.55-16.03-1.29.42c-3.57 1.15-4.42 2.83-3.27 6.41l1.28 3.95c1.16 3.57 2.84 4.43 6.41 3.28l1.58-.52c.06-.02.11-.04.17-.06l-1.06-.25c-4.61-1.09-6.12-3.53-5.04-8.13l.98-4.19c.07-.32.15-.63.24-.91ZM17.49 10.512c-.06 0-.12-.01-.19-.02l-4.85-1.23a.75.75 0 0 1 .37-1.45l4.85 1.23a.748.748 0 0 1-.18 1.47Z" fill="#292D32"/><path d="M14.561 13.889c-.06 0-.12-.01-.19-.02l-2.91-.74a.75.75 0 0 1 .37-1.45l2.91.74c.4.1.64.51.54.91-.08.34-.38.56-.72.56Z" fill="#292D32"/></svg>