<svg width="24" height="24" fill="none" xmlns="http://www.w3.org/2000/svg"><path d="M10.75 4.64 6.32 2.45c-2.39-1.17-4.35.02-4.35 2.64v14.84c0 1.14.95 2.07 2.11 2.07h7.42c.55 0 1-.45 1-1V7.41c0-1.05-.79-2.3-1.75-2.77Zm-1.78 9.11H5.5c-.41 0-.75-.34-.75-.75s.34-.75.75-.75h3.47a.749.749 0 1 1 0 1.5Zm0-4H5.5c-.41 0-.75-.34-.75-.75s.34-.75.75-.75h3.47a.749.749 0 1 1 0 1.5ZM22 18.04v1.46a2.5 2.5 0 0 1-2.5 2.5h-4.53c-.54 0-.97-.43-.97-.97v-2.16c1.07.13 2.2-.18 3.01-.83.68.55 1.55.88 2.5.88.93 0 1.8-.33 2.49-.88ZM22 15.05v.01a2.5 2.5 0 0 1-2.49 2.36 2.5 2.5 0 0 1-2.5-2.5c0 1.53-1.41 2.76-3.01 2.45V12c0-.64.59-1.12 1.22-.98l1.79.4.48.11 2.04.46c.49.1.94.27 1.33.52 0 .01.01.01.01.01.1.07.2.15.29.24.46.46.76 1.13.83 2.11 0 .06.01.12.01.18Z" fill="#292D32"/></svg>