<svg width="24" height="24" fill="none" xmlns="http://www.w3.org/2000/svg"><path d="M22 21.251h-1.25v-10.25c0-2.42-1.33-3.75-3.75-3.75h-4.25v-1.23c.58.14 1.16.22 1.75.22.94 0 1.88-.18 2.78-.54.28-.11.47-.39.47-.7v-3c0-.25-.12-.48-.33-.62a.76.76 0 0 0-.7-.08c-1.43.57-3.01.57-4.44 0a.76.76 0 0 0-.7.08c-.21.14-.33.37-.33.62v5.25H7c-2.42 0-3.75 1.33-3.75 3.75v10.25H2c-.41 0-.75.34-.75.75s.34.75.75.75h20c.41 0 .75-.34.75-.75s-.34-.75-.75-.75Zm-14.76 0H4.75v-8.5h2.49v8.5Zm4 0h-2.5v-8.5h2.5v8.5Zm4 0h-2.5v-8.5h2.5v8.5Zm4.01 0h-2.51v-8.5h2.51v8.5Z" fill="#292D32"/></svg>