<svg width="24" height="24" fill="none" xmlns="http://www.w3.org/2000/svg"><path d="M2 13.02V15c0 5 2 7 7 7h6c5 0 7-2 7-7V9c0-5-2-7-7-7H9C4 2 2 4 2 9M7.8 13.802v-4.2" stroke="#292D32" stroke-width="1.5" stroke-linecap="round" stroke-linejoin="round"/><path d="M7.95 18.002a1.95 1.95 0 1 0 0-3.9 1.95 1.95 0 0 0 0 3.9ZM7.8 9.6a1.8 1.8 0 1 0 0-3.6 1.8 1.8 0 0 0 0 3.6ZM16.2 9.6a1.8 1.8 0 1 0 0-3.6 1.8 1.8 0 0 0 0 3.6ZM7.88 13.798a2.425 2.425 0 0 1 2.36-1.82l2.06.01c1.57.01 2.91-1 3.4-2.41" stroke="#292D32" stroke-width="1.5" stroke-linecap="round" stroke-linejoin="round"/></svg>