<svg width="24" height="24" fill="none" xmlns="http://www.w3.org/2000/svg"><path d="M5.11 20.46c-1.17-.97-1.97-2.34-2.33-3.94l-.41-1.86c-.2-.91.34-1.94 1.21-2.29L5 11.8l5.51-2.21c.96-.38 2.02-.38 2.98 0L19 11.8l1.42.57c.87.35 1.41 1.38 1.21 2.29l-.41 1.86C20.51 19.72 18 22 14.38 22H9.62M12 22V10" stroke="#292D32" stroke-width="1.5" stroke-linecap="round" stroke-linejoin="round"/><path d="M19 8v3.8l-5.51-2.21c-.96-.38-2.02-.38-2.98 0L5 11.8V8c0-1.65 1.35-3 3-3h8c1.65 0 3 1.35 3 3ZM14.5 5h-5V3c0-.55.45-1 1-1h3c.55 0 1 .45 1 1v2Z" stroke="#292D32" stroke-width="1.5" stroke-linecap="round" stroke-linejoin="round"/></svg>