<svg width="24" height="24" fill="none" xmlns="http://www.w3.org/2000/svg"><path d="m19.06 18.67-2.14-4.27-2.14 4.27M15.17 17.91h3.52" stroke="#292D32" stroke-width="1.5" stroke-linecap="round" stroke-linejoin="round"/><path d="M16.92 22a5.08 5.08 0 1 1 .002-10.162A5.08 5.08 0 0 1 16.92 22ZM5.02 2h3.92c2.07 0 3.07 1 3.02 3.02v3.92c.05 2.07-.95 3.07-3.02 3.02H5.02C3 12 2 11 2 8.93V5.01C2 3 3 2 5.02 2ZM9.01 5.85H4.95M6.97 5.17v.68" stroke="#292D32" stroke-width="1.5" stroke-linecap="round" stroke-linejoin="round"/><path d="M7.99 5.84c0 1.75-1.37 3.17-3.05 3.17" stroke="#292D32" stroke-width="1.5" stroke-linecap="round" stroke-linejoin="round"/><path d="M9.01 9.01c-.73 0-1.39-.39-1.85-1.01M2 15c0 3.87 3.13 7 7 7l-1.05-1.75M22 9c0-3.87-3.13-7-7-7l1.05 1.75" stroke="#292D32" stroke-width="1.5" stroke-linecap="round" stroke-linejoin="round"/></svg>