<svg width="24" height="24" fill="none" xmlns="http://www.w3.org/2000/svg"><path d="M21 11.5c0 5.25-4.25 9.5-9.5 9.5S2 16.75 2 11.5 6.25 2 11.5 2M22 22l-2-2" stroke="#292D32" stroke-width="1.5" stroke-linecap="round" stroke-linejoin="round"/><path d="M14.5 6.13c-.35-1.1.06-2.47 1.22-2.84.61-.2 1.36-.03 1.79.56.4-.61 1.18-.75 1.78-.56 1.16.37 1.57 1.74 1.22 2.84-.55 1.75-2.47 2.66-3 2.66-.54 0-2.44-.89-3.01-2.66Z" stroke="#292D32" stroke-width="1.5" stroke-linecap="round" stroke-linejoin="round"/></svg>