<svg width="24" height="24" fill="none" xmlns="http://www.w3.org/2000/svg"><path d="M6 4c1.67-1.25 3.75-2 6-2 5.52 0 10 4.48 10 10s-4.48 10-10 10S2 17.52 2 12c0-1.81.48-3.51 1.33-4.98L12 12" stroke="#292D32" stroke-width="1.5" stroke-miterlimit="10" stroke-linecap="round" stroke-linejoin="round"/><path d="M6.83 8.96A5.92 5.92 0 0 0 6 12c0 3.31 2.69 6 6 6s6-2.69 6-6-2.69-6-6-6c-.91 0-1.78.2-2.55.57" stroke="#292D32" stroke-width="1.5" stroke-miterlimit="10" stroke-linecap="round" stroke-linejoin="round"/></svg>