<svg width="24" height="24" fill="none" xmlns="http://www.w3.org/2000/svg"><path d="M5.47 9a3.5 3.5 0 1 0 0-7 3.5 3.5 0 0 0 0 7ZM16.97 15h3c1.1 0 2 .9 2 2v3c0 1.1-.9 2-2 2h-3c-1.1 0-2-.9-2-2v-3c0-1.1.9-2 2-2Z" stroke="#292D32" stroke-width="1.5"/><path d="M12 5h2.68c1.85 0 2.71 2.29 1.32 3.51L8.01 15.5C6.62 16.71 7.48 19 9.32 19H12" stroke="#292D32" stroke-width="1.5" stroke-linecap="round" stroke-linejoin="round"/><path d="M5.486 5.5h.012M18.486 18.5h.012" stroke="#292D32" stroke-width="2" stroke-linecap="round" stroke-linejoin="round"/></svg>