<svg width="24" height="24" fill="none" xmlns="http://www.w3.org/2000/svg"><path d="M2.07 4.6c.8-3.46 6.01-3.46 6.8 0 .47 2.03-.82 3.75-1.94 4.82-.82.78-2.11.77-2.93 0C2.89 8.35 1.6 6.63 2.07 4.6ZM15.07 16.6c.8-3.46 6.04-3.46 6.84 0 .47 2.03-.82 3.75-1.95 4.82-.82.78-2.12.77-2.94 0-1.13-1.07-2.42-2.79-1.95-4.82Z" stroke="#292D32" stroke-width="1.5"/><path d="M12 5h2.68c1.85 0 2.71 2.29 1.32 3.51L8.01 15.5C6.62 16.71 7.48 19 9.32 19H12" stroke="#292D32" stroke-width="1.5" stroke-linecap="round" stroke-linejoin="round"/><path d="M5.486 5.5h.012M18.486 17.5h.012" stroke="#292D32" stroke-width="2" stroke-linecap="round" stroke-linejoin="round"/></svg>