<svg width="24" height="24" fill="none" xmlns="http://www.w3.org/2000/svg"><path d="m15.7 4.35-9.3 9.3c-.47.47-1.29.37-1.59-.23-.54-1.07-.84-2.24-.84-3.37 0-2.45 1.09-4.74 3-6.28s4.41-2.11 6.86-1.57c.54.12 1.07.29 1.57.52.64.29.8 1.13.3 1.63ZM15.45 20.628c-2.26-.64-4.64-.64-6.9 0-.37.11-.59.49-.48.86.11.37.49.58.86.48 2.01-.57 4.12-.57 6.13 0 .06.02.13.03.19.03.3 0 .58-.2.67-.51.11-.37-.1-.75-.47-.86ZM20.56 1.952a.754.754 0 0 0-1.06 0L3.65 17.802c-.29.29-.29.77 0 1.06.15.15.34.22.53.22s.38-.07.53-.22l2.46-2.46c.22.18.45.36.69.52v.83c-.01.28-.02.71.31 1.06.35.35.87.4 1.28.4h5.13c.54 0 .95-.15 1.23-.43.39-.4.37-.9.36-1.16v-.7c3.11-2.09 5.06-6.5 3.04-10.56-.22-.43-.49-.84-.79-1.22l2.13-2.13c.3-.29.3-.77.01-1.06Z" fill="#292D32"/></svg>