<svg width="24" height="24" fill="none" xmlns="http://www.w3.org/2000/svg"><path d="m20.19 14.06-1.13-1.88c-.25-.41-.47-1.2-.47-1.68V8.63c0-3.63-2.95-6.58-6.57-6.58C8.39 2.06 5.44 5 5.44 8.63v1.86c0 .48-.22 1.27-.46 1.68l-1.13 1.88c-.43.73-.53 1.56-.26 2.28.27.73.88 1.31 1.68 1.57 1.08.36 2.17.62 3.28.81.11.02.22.03.33.05l.44.06c.26.04.52.07.79.09a20.187 20.187 0 0 0 3.79 0c.23-.02.46-.04.68-.07.18-.02.36-.04.54-.07.11-.01.22-.03.33-.05 1.12-.18 2.23-.46 3.31-.82a2.65 2.65 0 0 0 1.64-1.58c.28-.75.2-1.57-.21-2.26ZM12.75 10a.76.76 0 1 1-1.52 0V6.9a.76.76 0 1 1 1.52 0V10ZM14.83 20.01A3.014 3.014 0 0 1 12 22c-.79 0-1.57-.32-2.12-.89-.32-.3-.56-.7-.7-1.11.13.02.26.03.4.05.23.03.47.06.71.08.57.05 1.15.08 1.73.08.57 0 1.14-.03 1.7-.08.21-.02.42-.03.62-.06l.49-.06Z" fill="#292D32"/></svg>