<svg width="24" height="24" fill="none" xmlns="http://www.w3.org/2000/svg"><path d="M19 8a3 3 0 1 0 0-6 3 3 0 0 0 0 6Z" fill="#292D32"/><path d="M19.8 9.42c-.02 0-.04.01-.06.01-.1.02-.2.03-.31.05-.42.04-.87.02-1.33-.07-.12-.03-.22-.05-.33-.09-.33-.08-.64-.21-.93-.38-.12-.06-.24-.14-.35-.21-.48-.33-.89-.74-1.22-1.22-.07-.11-.15-.23-.21-.35-.17-.29-.3-.6-.38-.93-.04-.11-.06-.21-.09-.33a4.65 4.65 0 0 1-.07-1.33c.02-.11.03-.21.05-.31 0-.02.01-.04.01-.06A1 1 0 0 0 13.6 3H7.52c-.14 0-.28.01-.41.02-.12.01-.23.02-.35.04-.12.01-.24.03-.35.05-2.41.35-3.95 1.88-4.3 4.3-.02.11-.04.23-.05.35-.02.12-.03.23-.04.35-.01.13-.02.27-.02.41v7.96c0 .14.01.28.02.41.01.12.02.23.04.35.01.12.03.24.05.35.35 2.42 1.89 3.95 4.3 4.3.11.02.23.04.35.05.12.02.23.03.35.04.13.01.27.02.41.02h7.96c.14 0 .28-.01.41-.02.12-.01.23-.02.35-.04.12-.01.24-.03.35-.05 2.41-.35 3.95-1.88 4.3-4.3.02-.11.04-.23.05-.35.02-.12.03-.23.04-.35.01-.13.02-.27.02-.41V10.4a1 1 0 0 0-1.2-.98ZM6.75 12.5h5c.41 0 .75.34.75.75s-.34.75-.75.75h-5c-.41 0-.75-.34-.75-.75s.34-.75.75-.75Zm9 5.5h-9c-.41 0-.75-.34-.75-.75s.34-.75.75-.75h9c.41 0 .75.34.75.75s-.34.75-.75.75Z" fill="#292D32"/></svg>