<svg width="24" height="24" fill="none" xmlns="http://www.w3.org/2000/svg"><path d="M12.073 8.95h-.15A1.945 1.945 0 0 1 10.043 7c0-1.08.87-1.95 1.95-1.95s1.95.88 1.95 1.95c.01 1.06-.82 1.92-1.87 1.95ZM9.251 11.96c-1.33.89-1.33 2.34 0 3.23 1.51 1.01 3.99 1.01 5.5 0 1.33-.89 1.33-2.34 0-3.23-1.51-1-3.98-1-5.5 0Z" fill="#292D32"/><path opacity=".4" d="M18 2H6C4.34 2 3 3.33 3 4.97v10.91c0 1.64 1.34 2.97 3 2.97h.76c.8 0 1.56.31 2.12.87l1.71 1.69c.78.77 2.05.77 2.83 0l1.71-1.69c.56-.56 1.33-.87 2.12-.87H18c1.66 0 3-1.33 3-2.97V4.97C21 3.33 19.66 2 18 2Zm-6 3.05c1.08 0 1.95.88 1.95 1.95 0 1.06-.84 1.91-1.88 1.95h-.15A1.945 1.945 0 0 1 10.04 7c.01-1.07.88-1.95 1.96-1.95Zm2.75 10.14c-1.51 1.01-3.99 1.01-5.5 0-1.33-.88-1.33-2.34 0-3.23 1.52-1.01 4-1.01 5.5 0 1.33.89 1.33 2.34 0 3.23Z" fill="#292D32"/></svg>