<svg width="24" height="24" fill="none" xmlns="http://www.w3.org/2000/svg"><path d="M18 13c-.94 0-1.81.33-2.5.88A3.97 3.97 0 0 0 14 17c0 .75.21 1.46.58 2.06A3.97 3.97 0 0 0 18 21c1.01 0 1.93-.37 2.63-1 .31-.26.58-.58.79-.94.37-.6.58-1.31.58-2.06 0-2.21-1.79-4-4-4Zm2.07 3.57-2.13 1.97c-.14.13-.33.2-.51.2-.19 0-.38-.07-.53-.22l-.99-.99a.754.754 0 0 1 0-1.06c.29-.29.77-.29 1.06 0l.48.48 1.6-1.48c.3-.28.78-.26 1.06.04s.26.77-.04 1.06Z" fill="#292D32"/><path opacity=".4" d="M21.09 21.5c0 .28-.22.5-.5.5H3.41c-.28 0-.5-.22-.5-.5 0-4.14 4.08-7.5 9.09-7.5 1.03 0 2.03.14 2.95.41-.59.7-.95 1.61-.95 2.59 0 .75.21 1.46.58 2.06.2.34.46.65.76.91.7.64 1.63 1.03 2.66 1.03 1.12 0 2.13-.46 2.85-1.2.16.54.24 1.11.24 1.7Z" fill="#292D32"/><path d="M12 12a5 5 0 1 0 0-10 5 5 0 0 0 0 10Z" fill="#292D32"/></svg>