<svg width="24" height="24" fill="none" xmlns="http://www.w3.org/2000/svg"><path opacity=".4" d="M22 7.81v8.38c0 2.81-1.29 4.74-3.56 5.47-.66.23-1.42.34-2.25.34H7.81c-.83 0-1.59-.11-2.25-.34C3.29 20.93 2 19 2 16.19V7.81C2 4.17 4.17 2 7.81 2h8.38C19.83 2 22 4.17 22 7.81Z" fill="#292D32"/><path d="M18.439 21.659c-.66.23-1.42.34-2.25.34h-8.38c-.83 0-1.59-.11-2.25-.34.35-2.64 3.11-4.69 6.44-4.69 3.33 0 6.09 2.05 6.44 4.69ZM15.582 11.58c0 1.98-1.6 3.59-3.58 3.59s-3.58-1.61-3.58-3.59c0-1.98 1.6-3.58 3.58-3.58s3.58 1.6 3.58 3.58Z" fill="#292D32"/></svg>