<svg width="24" height="24" fill="none" xmlns="http://www.w3.org/2000/svg"><path d="M16.65 20.199v.29a9.513 9.513 0 0 1-10.38-.06v-.23c0-2.33 2.33-4.23 5.19-4.23 2.87 0 5.19 1.9 5.19 4.23Z" fill="#292D32"/><path opacity=".4" d="M21 12.5c0 3.35-1.73 6.29-4.35 7.99v-.29c0-2.33-2.32-4.23-5.19-4.23-2.86 0-5.19 1.9-5.19 4.23v.23A9.487 9.487 0 0 1 2 12.5C2 7.25 6.25 3 11.5 3c1.31 0 2.56.26 3.7.74-.13.4-.2.82-.2 1.26 0 .75.21 1.46.58 2.06.2.34.46.65.76.91C17.04 8.61 17.97 9 19 9c.44 0 .86-.07 1.25-.21.48 1.14.75 2.4.75 3.71Z" fill="#292D32"/><path d="M21.97 2.33A3.944 3.944 0 0 0 19 1a3.995 3.995 0 0 0-4 4c0 .75.21 1.46.58 2.06.2.34.46.65.76.91C17.04 8.61 17.97 9 19 9c.44 0 .86-.07 1.25-.21.92-.29 1.69-.92 2.17-1.73.21-.34.37-.73.46-1.13.08-.3.12-.61.12-.93 0-1.02-.39-1.96-1.03-2.67Zm-1.48 3.4h-.74v.78c0 .41-.34.75-.75.75s-.75-.34-.75-.75v-.78h-.74c-.41 0-.75-.34-.75-.75s.34-.75.75-.75h.74v-.71c0-.41.34-.75.75-.75s.75.34.75.75v.71h.74a.749.749 0 1 1 0 1.5ZM11.458 14.73a2.81 2.81 0 1 0 0-5.62 2.81 2.81 0 0 0 0 5.62Z" fill="#292D32"/></svg>