<svg width="24" height="24" fill="none" xmlns="http://www.w3.org/2000/svg"><path d="m8.59 15.562 6.62-6.07a.57.57 0 0 0-.02-.89l-2.06-1.72c-.54-.45-.97-.24-.97.46v9.33c0 .7.44.9.97.46l2.06-1.72c.29-.24.3-.64.02-.89l-6.62-6.07" stroke="#292D32" stroke-width="1.5" stroke-miterlimit="10" stroke-linecap="round" stroke-linejoin="round"/><path d="M4 6c-1.25 1.67-2 3.75-2 6 0 5.52 4.48 10 10 10s10-4.48 10-10S17.52 2 12 2c-1.43 0-2.8.3-4.03.85" stroke="#292D32" stroke-width="1.5" stroke-linecap="round" stroke-linejoin="round"/></svg>