<svg width="24" height="24" fill="none" xmlns="http://www.w3.org/2000/svg"><path d="m8.59 15.562 6.62-6.07a.57.57 0 0 0-.02-.89l-2.06-1.72c-.54-.45-.97-.24-.97.46v9.33c0 .7.44.9.97.46l2.06-1.72c.29-.24.3-.64.02-.89l-6.62-6.07" stroke="#292D32" stroke-width="1.5" stroke-miterlimit="10" stroke-linecap="round" stroke-linejoin="round"/><path d="M4 7c0-3 2-5 5-5h6c3 0 5 2 5 5v10c0 3-2 5-5 5H9c-3 0-5-2-5-5v-5.97" stroke="#292D32" stroke-width="1.5" stroke-miterlimit="10" stroke-linecap="round" stroke-linejoin="round"/></svg>