<svg width="24" height="24" fill="none" xmlns="http://www.w3.org/2000/svg"><path d="M17.01 12.73a1.07 1.07 0 1 0 0-2.14 1.07 1.07 0 0 0 0 2.14Z" stroke="#292D32" stroke-width="1.5" stroke-linecap="round" stroke-linejoin="round"/><path d="M2 6c0-3.2.8-4 4-4h10c3.2 0 4 .8 4 4v1.79c-.25-.03-.54-.05-.85-.05h-4.28c-2.14 0-2.85.71-2.85 2.85v5.11H6c-3.2 0-4-.8-4-4v-1.65M9 15.7V20M2 11.898h10M5.95 20H12" stroke="#292D32" stroke-width="1.5" stroke-linecap="round" stroke-linejoin="round"/><path d="M17.01 12.73a1.07 1.07 0 1 0 0-2.14 1.07 1.07 0 0 0 0 2.14Z" stroke="#292D32" stroke-width="1.5" stroke-miterlimit="10" stroke-linecap="round" stroke-linejoin="round"/><path d="M20 7.788c-.25-.03-.54-.05-.85-.05h-4.28c-2.14 0-2.85.71-2.85 2.85v8.56c0 2.14.71 2.85 2.85 2.85h4.28c2.14 0 2.85-.71 2.85-2.85v-8.56c0-1.83-.52-2.61-2-2.8Zm-2.99 2.8a1.071 1.071 0 0 1 0 2.14c-.59 0-1.07-.48-1.07-1.07 0-.59.48-1.07 1.07-1.07Zm0 8.56c-1.18 0-2.14-.96-2.14-2.14a2.142 2.142 0 0 1 3.54-1.62c.45.4.74.98.74 1.62 0 1.18-.96 2.14-2.14 2.14Z" stroke="#292D32" stroke-width="1.5" stroke-miterlimit="10" stroke-linecap="round" stroke-linejoin="round"/><path d="M19.15 17.007c0 1.18-.96 2.14-2.14 2.14-1.18 0-2.14-.96-2.14-2.14a2.142 2.142 0 0 1 3.54-1.62c.45.4.74.98.74 1.62ZM17.01 12.73a1.07 1.07 0 1 0 0-2.14 1.07 1.07 0 0 0 0 2.14Z" stroke="#292D32" stroke-width="1.5" stroke-miterlimit="10" stroke-linecap="round" stroke-linejoin="round"/></svg>