<svg width="24" height="24" fill="none" xmlns="http://www.w3.org/2000/svg"><path d="M8.5 11.999v-4.78M8.5 22v-3M15.5 9.999v-2.78M15.5 22v-9M10.1 5.3c0 .49-.2.95-.53 1.27-.32.33-.77.53-1.27.53H6.05c.28-.37.45-.85.45-1.35v-.9c0-.5-.17-.98-.45-1.35H8.3c.99 0 1.8.81 1.8 1.8Z" stroke="#292D32" stroke-width="1.5" stroke-miterlimit="10" stroke-linecap="round" stroke-linejoin="round"/><path d="M6.5 4.85v.9c0 .5-.17.98-.45 1.35-.76 1.01-2.32 1.35-3.77.06C2.12 7.02 2 6.72 2 6.5V4.16c0-.19.1-.47.23-.61 1.26-1.32 2.78-1.13 3.61-.3.07.07.14.15.21.24.28.38.45.86.45 1.36ZM13.9 5.3c0 .49.2.95.53 1.27.32.33.77.53 1.27.53h2.25c-.28-.37-.45-.85-.45-1.35v-.9c0-.5.17-.98.45-1.35H15.7c-.99 0-1.8.81-1.8 1.8Z" stroke="#292D32" stroke-width="1.5" stroke-miterlimit="10" stroke-linecap="round" stroke-linejoin="round"/><path d="M17.5 4.85v.9c0 .5.17.98.45 1.35.76 1.01 2.32 1.35 3.77.06.16-.14.28-.44.28-.66V4.16c0-.19-.1-.47-.23-.61-1.26-1.32-2.78-1.13-3.61-.3-.07.07-.14.15-.21.24-.28.38-.45.86-.45 1.36ZM10 13.5v4c0 .83-.67 1.5-1.5 1.5S7 18.33 7 17.5v-4c0-.83.67-1.5 1.5-1.5s1.5.67 1.5 1.5Z" stroke="#292D32" stroke-width="1.5" stroke-miterlimit="10" stroke-linecap="round" stroke-linejoin="round"/></svg>