<svg width="24" height="24" fill="none" xmlns="http://www.w3.org/2000/svg"><path d="M2 7.26c0-3.56.75-4.86 3.52-5.17C6.04 2.02 6.61 2 7.27 2h9.47c.65 0 1.23.02 1.75.09 2.77.31 3.52 1.61 3.52 5.17v6.32c0 3.56-.75 4.86-3.52 5.17-.52.07-1.09.09-1.75.09H7.27c-.65 0-1.23-.02-1.75-.09C2.75 18.44 2 17.14 2 13.58V11.1M13.58 8.32h3.68M6.74 14.11h10.53M7 22h10" stroke="#292D32" stroke-width="1.5" stroke-linecap="round" stroke-linejoin="round"/><path d="M7.194 8.3h.009M10.495 8.3h.009" stroke="#292D32" stroke-width="2" stroke-linecap="round" stroke-linejoin="round"/></svg>