<svg width="24" height="24" fill="none" xmlns="http://www.w3.org/2000/svg"><path d="M2.5 9c0-3.38.71-4.62 3.34-4.91C6.33 4.02 6.88 4 7.5 4h9c.62 0 1.17.02 1.66.09 2.63.29 3.34 1.53 3.34 4.91v6c0 3.38-.71 4.62-3.34 4.91-.49.07-1.04.09-1.66.09h-9c-.62 0-1.17-.02-1.66-.09C3.21 19.62 2.5 18.38 2.5 15v-2.08M13.5 10H17M7 15.5h10" stroke="#292D32" stroke-width="1.5" stroke-linecap="round" stroke-linejoin="round"/><path d="M10.094 10h.01M7.094 10h.01" stroke="#292D32" stroke-width="2" stroke-linecap="round" stroke-linejoin="round"/></svg>