<svg width="24" height="24" fill="none" xmlns="http://www.w3.org/2000/svg"><path d="M2 6.741c0-3.37.84-4.21 4.21-4.21h10.53c3.37 0 4.21.84 4.21 4.21M10 16.952H6.21c-3.37 0-4.21-.84-4.21-4.21v-1.89M10 21.47v-4.52M2 12.95h8M6.74 21.469H10M22 12.8c0-2.37-.59-2.96-2.96-2.96h-3.55c-2.37 0-2.96.59-2.96 2.96v5.71c0 2.37.59 2.96 2.96 2.96h3.55c2.37 0 2.96-.59 2.96-2.96v-1.57" stroke="#292D32" stroke-width="1.5" stroke-linecap="round" stroke-linejoin="round"/><path d="M17.244 18.25h.01" stroke="#292D32" stroke-width="2" stroke-linecap="round" stroke-linejoin="round"/></svg>