<svg width="24" height="24" fill="none" xmlns="http://www.w3.org/2000/svg"><path d="M7.25 7h9.5V5c0-2-.75-3-3-3h-3.5c-2.25 0-3 1-3 3v2ZM16 15v4c0 2-1 3-3 3h-2c-2 0-3-1-3-3v-4h8Z" stroke="#292D32" stroke-width="1.5" stroke-miterlimit="10" stroke-linecap="round" stroke-linejoin="round"/><path d="M21 10v5c0 2-1 3-3 3h-2v-3H8v3H6c-2 0-3-1-3-3v-5c0-2 1-3 3-3h12c2 0 3 1 3 3ZM17 15H7M7 11h3" stroke="#292D32" stroke-width="1.5" stroke-miterlimit="10" stroke-linecap="round" stroke-linejoin="round"/></svg>