<svg width="24" height="24" fill="none" xmlns="http://www.w3.org/2000/svg"><path d="M14.77 19.748H9.26c-.44 0-1-.05-1.37-.43-.36-.37-.35-.83-.34-1.14v-.89c-2.52-1.68-4.18-4.6-4.18-7.38a8.62 8.62 0 0 1 3.23-6.74c2.05-1.65 4.74-2.27 7.37-1.69 2.5.55 4.66 2.22 5.78 4.47 2.17 4.37.08 9.1-3.26 11.35v.75c.01.29.02.82-.39 1.24-.31.3-.75.46-1.33.46Zm-5.73-1.51c.05 0 .12.01.21.01h5.52c.1 0 .17-.01.21-.02v-1.36c0-.26.14-.51.36-.64 2.96-1.79 4.92-5.88 3.05-9.63-.92-1.85-2.7-3.22-4.76-3.67-2.18-.48-4.41.03-6.11 1.4a7.127 7.127 0 0 0-2.67 5.58c0 2.78 1.92 5.18 3.82 6.33.23.14.36.38.36.64v1.35c.01 0 .01 0 .01.01ZM15.5 22.751c-.07 0-.14-.01-.21-.03-2.16-.62-4.43-.62-6.59 0a.76.76 0 0 1-.93-.52c-.12-.4.12-.81.52-.93 2.42-.69 4.99-.69 7.41 0 .4.11.63.53.52.93-.09.34-.39.55-.72.55Z" fill="#292D32"/></svg>