<svg width="24" height="24" fill="none" xmlns="http://www.w3.org/2000/svg"><path d="M19 8.75c-2.07 0-3.75-1.68-3.75-3.75 0-2.07 1.68-3.75 3.75-3.75 2.07 0 3.75 1.68 3.75 3.75 0 2.07-1.68 3.75-3.75 3.75Zm0-6c-1.24 0-2.25 1.01-2.25 2.25S17.76 7.25 19 7.25 21.25 6.24 21.25 5 20.24 2.75 19 2.75Z" fill="#292D32"/><path d="M15 22.75H9c-5.43 0-7.75-2.32-7.75-7.75V9c0-5.43 2.32-7.75 7.75-7.75h5c.41 0 .75.34.75.75s-.34.75-.75.75H9C4.39 2.75 2.75 4.39 2.75 9v6c0 4.61 1.64 6.25 6.25 6.25h6c4.61 0 6.25-1.64 6.25-6.25v-5c0-.41.34-.75.75-.75s.75.34.75.75v5c0 5.43-2.32 7.75-7.75 7.75Z" fill="#292D32"/><path d="M9.81 18.328c-.92 0-3.06-1.12-3.72-3.18-.45-1.41.07-3.26 1.7-3.79.7-.23 1.43-.12 2.01.25.57-.37 1.32-.48 2.02-.25 1.63.53 2.16 2.38 1.7 3.79-.65 2.1-2.89 3.18-3.71 3.18Zm-2.29-3.63c.46 1.45 2.02 2.11 2.3 2.14.32-.03 1.85-.77 2.27-2.13.23-.73 0-1.67-.73-1.91-.31-.1-.73-.04-.93.25-.14.21-.36.33-.61.34-.24 0-.48-.11-.62-.31-.24-.33-.66-.38-.95-.28-.72.23-.96 1.17-.73 1.9Z" fill="#292D32"/></svg>