<svg width="24" height="24" fill="none" xmlns="http://www.w3.org/2000/svg"><path d="M12 10.521c-.41 0-.75-.34-.75-.75v-3.33c0-.41.34-.75.75-.75s.75.34.75.75v3.33c0 .42-.34.75-.75.75Z" fill="#292D32"/><path d="M12.02 20.348c-2.58 0-5.15-.41-7.6-1.23-.91-.3-1.6-.95-1.9-1.77-.3-.82-.2-1.76.29-2.58l1.27-2.12c.28-.47.53-1.35.53-1.9v-2.1c0-4.09 3.32-7.41 7.41-7.41s7.41 3.32 7.41 7.41v2.1c0 .54.25 1.43.53 1.9l1.27 2.12c.47.78.55 1.71.24 2.56-.31.85-.99 1.5-1.85 1.79-2.45.83-5.02 1.23-7.6 1.23Zm0-17.6c-3.26 0-5.91 2.65-5.91 5.91v2.1c0 .81-.32 1.98-.74 2.67l-1.27 2.13c-.26.43-.32.89-.17 1.29s.49.7.97.86c4.6 1.53 9.66 1.53 14.26 0 .43-.14.76-.46.91-.88.16-.42.11-.88-.12-1.27l-1.27-2.12c-.42-.69-.74-1.86-.74-2.67v-2.1c-.01-3.27-2.66-5.92-5.92-5.92Z" fill="#292D32"/><path d="M12 22.9c-1.07 0-2.12-.44-2.88-1.2-.76-.76-1.2-1.81-1.2-2.88h1.5c0 .68.28 1.34.76 1.82s1.14.76 1.82.76c1.42 0 2.58-1.16 2.58-2.58h1.5c0 2.25-1.83 4.08-4.08 4.08Z" fill="#292D32"/></svg>