<svg width="24" height="24" fill="none" xmlns="http://www.w3.org/2000/svg"><path d="M22 9.75c-.41 0-.75-.34-.75-.75V7c0-2.58-1.67-4.25-4.25-4.25H7C4.42 2.75 2.75 4.42 2.75 7v2c0 .41-.34.75-.75.75s-.75-.34-.75-.75V7c0-3.44 2.31-5.75 5.75-5.75h10c3.44 0 5.75 2.31 5.75 5.75v2c0 .41-.34.75-.75.75ZM17 22.75H7c-3.44 0-5.75-2.31-5.75-5.75v-2c0-.41.34-.75.75-.75s.75.34.75.75v2c0 2.58 1.67 4.25 4.25 4.25h10c2.58 0 4.25-1.67 4.25-4.25v-2c0-.41.34-.75.75-.75s.75.34.75.75v2c0 3.44-2.31 5.75-5.75 5.75Z" fill="#292D32"/><path d="M11.999 13.079c-.13 0-.26-.03-.38-.1l-5.3-3.06a.752.752 0 0 1-.27-1.03c.21-.36.67-.48 1.02-.27l4.92 2.85 4.89-2.83c.36-.21.82-.08 1.02.27.21.36.08.82-.27 1.03l-5.26 3.04c-.11.06-.24.1-.37.1Z" fill="#292D32"/><path d="M12 18.518c-.41 0-.75-.34-.75-.75v-5.44c0-.41.34-.75.75-.75s.75.34.75.75v5.44c0 .41-.34.75-.75.75Z" fill="#292D32"/><path d="M12.002 18.75c-.58 0-1.15-.13-1.61-.38l-3.2-1.78c-.96-.53-1.7-1.8-1.7-2.9V10.3c0-1.09.75-2.36 1.7-2.9l3.2-1.78c.92-.51 2.3-.51 3.22 0l3.2 1.78c.96.53 1.7 1.8 1.7 2.9v3.39c0 1.09-.75 2.36-1.7 2.9l-3.2 1.78c-.46.25-1.03.38-1.61.38Zm-.88-11.81-3.2 1.78c-.49.27-.93 1.03-.93 1.58v3.39c0 .56.44 1.31.93 1.58l3.2 1.78c.46.25 1.3.25 1.76 0l3.2-1.78c.49-.27.93-1.03.93-1.58V10.3c0-.56-.44-1.31-.93-1.58l-3.2-1.78c-.46-.25-1.3-.25-1.76 0Z" fill="#292D32"/></svg>