<svg width="24" height="24" fill="none" xmlns="http://www.w3.org/2000/svg"><path d="M11.999 13.08c-.13 0-.26-.03-.38-.1l-5.3-3.06a.742.742 0 0 1-.27-1.02.75.75 0 0 1 1.03-.27l4.92 2.85 4.89-2.83a.76.76 0 0 1 1.03.27c.21.36.08.82-.27 1.02l-5.26 3.04a.94.94 0 0 1-.39.1Z" fill="#292D32"/><path d="M12 18.518c-.41 0-.75-.34-.75-.75v-5.44c0-.41.34-.75.75-.75s.75.34.75.75v5.44c0 .41-.34.75-.75.75Z" fill="#292D32"/><path d="M12.002 18.75c-.58 0-1.15-.13-1.61-.38l-3.2-1.78c-.96-.53-1.7-1.8-1.7-2.9V10.3c0-1.09.75-2.37 1.7-2.9l3.2-1.78c.92-.51 2.3-.51 3.22 0l3.2 1.78c.96.53 1.7 1.8 1.7 2.9v3.39c0 1.09-.75 2.37-1.7 2.9l-3.2 1.78c-.46.25-1.03.38-1.61.38Zm0-12c-.33 0-.65.06-.88.19l-3.2 1.78c-.49.27-.93 1.03-.93 1.58v3.39c0 .56.44 1.31.93 1.58l3.2 1.78c.46.26 1.3.26 1.76 0l3.2-1.78c.49-.27.93-1.03.93-1.58V10.3c0-.56-.44-1.31-.93-1.58l-3.2-1.78c-.23-.13-.55-.19-.88-.19ZM15 22.748a.752.752 0 0 1-.64-1.14l1.05-1.75c.21-.35.67-.47 1.03-.26.36.21.47.67.26 1.03l-.27.45c2.76-.65 4.83-3.13 4.83-6.09 0-.41.34-.75.75-.75s.75.34.75.75c-.01 4.28-3.49 7.76-7.76 7.76ZM2 9.75c-.41 0-.75-.34-.75-.75 0-4.27 3.48-7.75 7.75-7.75a.752.752 0 0 1 .64 1.14L8.59 4.14c-.21.35-.67.47-1.03.26a.749.749 0 0 1-.26-1.03l.27-.45c-2.76.65-4.83 3.13-4.83 6.09.01.4-.33.74-.74.74Z" fill="#292D32"/></svg>