<svg width="24" height="24" fill="none" xmlns="http://www.w3.org/2000/svg"><path d="M12.001 13.3c-.13 0-.26-.03-.38-.1l-8.83-5.11a.752.752 0 0 1-.27-1.03.75.75 0 0 1 1.03-.27l8.45 4.89 8.4-4.86a.76.76 0 0 1 1.03.27c.21.36.08.82-.27 1.03l-8.77 5.08a.94.94 0 0 1-.39.1Z" fill="#292D32"/><path d="M12 22.36c-.41 0-.75-.34-.75-.75v-9.07c0-.41.34-.75.75-.75s.75.34.75.75v9.07c0 .41-.34.75-.75.75Z" fill="#292D32"/><path d="M11.999 22.748c-.91 0-1.78-.21-2.44-.58l-5.34-2.96c-1.45-.8-2.59-2.73-2.59-4.39v-5.66c0-1.66 1.14-3.58 2.59-4.39l5.34-2.96c1.36-.76 3.5-.76 4.87 0l5.34 2.96c1.45.8 2.59 2.73 2.59 4.39v3.66c0 .41-.34.75-.75.75s-.75-.34-.75-.75v-3.66c0-1.1-.85-2.54-1.81-3.07l-5.34-2.96c-.91-.51-2.5-.51-3.41 0l-5.34 2.96c-.97.54-1.81 1.97-1.81 3.07v5.66c0 1.1.85 2.54 1.81 3.07l5.34 2.96c.88.49 2.54.49 3.41 0 .36-.2.82-.07 1.02.29.2.36.07.82-.29 1.02-.66.38-1.53.59-2.44.59Z" fill="#292D32"/><path d="M19.2 22.15c-2.18 0-3.95-1.77-3.95-3.95s1.77-3.95 3.95-3.95 3.95 1.77 3.95 3.95-1.77 3.95-3.95 3.95Zm0-6.4c-1.35 0-2.45 1.1-2.45 2.45s1.1 2.45 2.45 2.45 2.45-1.1 2.45-2.45-1.1-2.45-2.45-2.45Z" fill="#292D32"/><path d="M23.001 22.751c-.19 0-.38-.07-.53-.22l-1-1a.755.755 0 0 1 0-1.06c.29-.29.77-.29 1.06 0l1 1c.29.29.29.77 0 1.06-.15.15-.34.22-.53.22Z" fill="#292D32"/></svg>