<svg width="24" height="24" fill="none" xmlns="http://www.w3.org/2000/svg"><path d="M12 13.3c-.13 0-.26-.03-.38-.1L2.79 8.09a.752.752 0 1 1 .76-1.3L12 11.68l8.4-4.86a.76.76 0 0 1 1.03.27c.21.36.08.82-.27 1.03l-8.77 5.08a.94.94 0 0 1-.39.1Z" fill="#292D32"/><path d="M12 22.36c-.41 0-.75-.34-.75-.75v-9.07c0-.41.34-.75.75-.75s.75.34.75.75v9.07c0 .41-.34.75-.75.75Z" fill="#292D32"/><path d="M12 22.75c-.88 0-1.75-.19-2.44-.57l-5.34-2.97c-1.45-.8-2.58-2.73-2.58-4.39V9.17c0-1.66 1.13-3.58 2.58-4.39l5.34-2.96c1.37-.76 3.51-.76 4.88 0l5.34 2.97c1.45.8 2.58 2.73 2.58 4.39v5.65c0 1.66-1.13 3.58-2.58 4.39l-5.34 2.96c-.69.38-1.56.57-2.44.57Zm0-20c-.63 0-1.25.13-1.71.38L4.95 6.1c-.96.53-1.81 1.97-1.81 3.07v5.65c0 1.1.85 2.54 1.81 3.08l5.34 2.97c.91.51 2.51.51 3.42 0l5.34-2.97c.96-.54 1.81-1.97 1.81-3.08V9.17c0-1.1-.85-2.54-1.81-3.08l-5.34-2.97c-.46-.24-1.08-.37-1.71-.37Z" fill="#292D32"/></svg>