<svg width="24" height="24" fill="none" xmlns="http://www.w3.org/2000/svg"><path d="M15 22.75a.745.745 0 0 1-.64-1.13l1.05-1.75c.21-.36.67-.47 1.03-.26.36.21.47.67.26 1.03l-.27.45c2.76-.65 4.83-3.13 4.83-6.09 0-.41.34-.75.75-.75s.75.34.75.75c-.01 4.27-3.49 7.75-7.76 7.75ZM2 9.75c-.41 0-.75-.34-.75-.75 0-4.27 3.48-7.75 7.75-7.75a.745.745 0 0 1 .64 1.13L8.59 4.13c-.21.36-.67.47-1.03.26a.749.749 0 0 1-.26-1.03l.27-.45C4.81 3.56 2.74 6.04 2.74 9a.74.74 0 0 1-.74.75ZM17.68 7.499c-.13 0-.26-.03-.38-.1l-3.97-2.3a.752.752 0 0 1-.27-1.03c.21-.36.67-.48 1.02-.27l3.6 2.08 3.57-2.07c.36-.21.82-.08 1.02.27.21.36.08.82-.27 1.03l-3.95 2.28c-.11.07-.24.11-.37.11Z" fill="#292D32"/><path d="M17.68 11.568c-.41 0-.75-.34-.75-.75v-4.08c0-.41.34-.75.75-.75s.75.34.75.75v4.08c0 .42-.34.75-.75.75Z" fill="#292D32"/><path d="M17.68 11.75c-.46 0-.93-.1-1.3-.31l-2.4-1.33c-.78-.43-1.37-1.44-1.37-2.33V5.24c0-.9.59-1.9 1.38-2.34l2.4-1.33c.74-.41 1.85-.41 2.6 0l2.4 1.33c.78.43 1.37 1.44 1.37 2.33v2.54c0 .9-.59 1.9-1.37 2.33l-2.4 1.33c-.39.22-.85.32-1.31.32Zm-.57-8.88-2.4 1.33c-.3.17-.6.68-.6 1.02v2.54c0 .35.3.86.6 1.02l2.4 1.34c.29.16.85.16 1.14 0l2.4-1.33c.3-.17.6-.68.6-1.02V5.23c0-.35-.3-.86-.6-1.02l-2.4-1.33c-.29-.17-.86-.17-1.14-.01ZM6.321 18.499c-.13 0-.26-.03-.38-.1l-3.97-2.3a.752.752 0 0 1 .75-1.3l3.6 2.08 3.57-2.07c.36-.21.82-.08 1.02.27.21.36.08.82-.27 1.03l-3.95 2.28c-.11.07-.24.11-.37.11Z" fill="#292D32"/><path d="M6.32 22.568c-.41 0-.75-.34-.75-.75v-4.08c0-.41.34-.75.75-.75s.75.34.75.75v4.08c0 .42-.33.75-.75.75Z" fill="#292D32"/><path d="M6.32 22.75c-.46 0-.93-.1-1.3-.31l-2.4-1.33c-.78-.43-1.37-1.44-1.37-2.33v-2.54c0-.9.59-1.9 1.37-2.33l2.4-1.33c.74-.41 1.86-.41 2.6 0l2.4 1.33c.78.43 1.37 1.44 1.37 2.33v2.54c0 .9-.59 1.9-1.38 2.34l-2.4 1.33c-.36.2-.82.3-1.29.3Zm-.57-8.88-2.4 1.33c-.3.17-.6.68-.6 1.02v2.54c0 .35.3.86.6 1.02l2.4 1.33c.29.16.85.16 1.14 0l2.4-1.33c.3-.17.6-.68.6-1.02v-2.54c0-.35-.3-.86-.6-1.02l-2.4-1.34c-.28-.15-.85-.15-1.14.01Z" fill="#292D32"/></svg>