<svg width="24" height="24" fill="none" xmlns="http://www.w3.org/2000/svg"><path d="M13 14.75H2c-.41 0-.75-.34-.75-.75V7.62c0-.32.2-.6.49-.71.3-.11.63-.02.83.22.6.71 1.47 1.11 2.42 1.11h.08c.8-.02 1.54-.32 2.1-.85.26-.22.47-.48.63-.77.31-.53.46-1.11.45-1.7-.02-.92-.42-1.76-1.1-2.37a.748.748 0 0 1-.21-.83c.11-.29.39-.49.7-.49H15c.41 0 .75.34.75.75v10c0 1.54-1.23 2.77-2.75 2.77Zm-10.25-1.5H13c.69 0 1.25-.56 1.25-1.25V2.75H9.19c.35.65.54 1.38.56 2.14.02.87-.2 1.73-.64 2.48-.24.43-.57.84-.93 1.14-.8.76-1.9 1.21-3.07 1.24-.83.03-1.65-.18-2.35-.56v4.06h-.01Z" fill="#292D32"/><path d="M19 20.75h-1c-.41 0-.75-.34-.75-.75a1.25 1.25 0 0 0-2.5 0c0 .41-.34.75-.75.75h-4c-.41 0-.75-.34-.75-.75a1.25 1.25 0 0 0-2.5 0c0 .41-.34.75-.75.75H5c-2.07 0-3.75-1.68-3.75-3.75v-3c0-.41.34-.75.75-.75h11c.69 0 1.25-.56 1.25-1.25V5c0-.41.34-.75.75-.75h1.84c.99 0 1.9.53 2.39 1.39l1.71 2.99c.13.23.13.52 0 .75-.13.23-.38.37-.65.37H19c-.14 0-.25.11-.25.25v3c0 .14.11.25.25.25h3c.41 0 .75.34.75.75v3c0 2.07-1.68 3.75-3.75 3.75Zm-.35-1.5H19c1.24 0 2.25-1.01 2.25-2.25v-2.25H19c-.96 0-1.75-.79-1.75-1.75v-3c0-.96.78-1.75 1.75-1.75l-1.07-1.87c-.22-.39-.64-.63-1.09-.63h-1.09V12c0 1.52-1.23 2.75-2.75 2.75H2.75V17c0 1.24 1.01 2.25 2.25 2.25h.35c.33-1.15 1.39-2 2.65-2s2.32.85 2.65 2h2.71c.33-1.15 1.39-2 2.65-2s2.31.85 2.64 2Z" fill="#292D32"/><path d="M8 22.75c-1.52 0-2.75-1.23-2.75-2.75S6.48 17.25 8 17.25s2.75 1.23 2.75 2.75S9.52 22.75 8 22.75Zm0-4a1.25 1.25 0 1 0 0 2.5 1.25 1.25 0 0 0 0-2.5ZM16 22.75c-1.52 0-2.75-1.23-2.75-2.75s1.23-2.75 2.75-2.75 2.75 1.23 2.75 2.75-1.23 2.75-2.75 2.75Zm0-4a1.25 1.25 0 1 0 0 2.5 1.25 1.25 0 0 0 0-2.5ZM22 14.75h-3c-.96 0-1.75-.79-1.75-1.75v-3c0-.96.79-1.75 1.75-1.75h1.29c.27 0 .52.14.65.38l1.71 3c.06.11.1.24.1.37v2c0 .41-.34.75-.75.75Zm-3-5c-.14 0-.25.11-.25.25v3c0 .14.11.25.25.25h2.25V12.2l-1.4-2.45H19ZM5 9.75c-1.66 0-3.22-.88-4.06-2.31C.49 6.72.25 5.87.25 5c0-1.46.65-2.81 1.78-3.71C2.87.62 3.93.25 5 .25 7.62.25 9.75 2.38 9.75 5c0 .87-.24 1.72-.69 2.45-.25.42-.57.8-.95 1.12-.83.76-1.94 1.18-3.11 1.18Zm0-8c-.74 0-1.44.25-2.03.72a3.224 3.224 0 0 0-.75 4.2C2.8 7.65 3.87 8.25 5 8.25c.79 0 1.55-.29 2.13-.81.26-.22.48-.48.64-.76.32-.51.48-1.09.48-1.68 0-1.79-1.46-3.25-3.25-3.25Z" fill="#292D32"/><path d="M6.068 6.791c-.19 0-.38-.07-.53-.22l-2.11-2.11a.754.754 0 0 1 0-1.06c.29-.29.77-.29 1.06 0l2.11 2.11c.29.29.29.77 0 1.06-.15.15-.34.22-.53.22Z" fill="#292D32"/><path d="M3.931 6.818c-.19 0-.38-.07-.53-.22a.754.754 0 0 1 0-1.06l2.11-2.11c.29-.29.77-.29 1.06 0 .29.29.29.77 0 1.06l-2.11 2.11c-.15.15-.34.22-.53.22Z" fill="#292D32"/></svg>