<svg width="24" height="24" fill="none" xmlns="http://www.w3.org/2000/svg"><path d="M13 14.75H2c-.41 0-.75-.34-.75-.75V6c0-2.62 2.13-4.75 4.75-4.75h9c.41 0 .75.34.75.75v10c0 1.52-1.23 2.75-2.75 2.75Zm-10.25-1.5H13c.69 0 1.25-.56 1.25-1.25V2.75H6C4.21 2.75 2.75 4.21 2.75 6v7.25Z" fill="#292D32"/><path d="M19 20.75h-1c-.41 0-.75-.34-.75-.75a1.25 1.25 0 0 0-2.5 0c0 .41-.34.75-.75.75h-4c-.41 0-.75-.34-.75-.75a1.25 1.25 0 0 0-2.5 0c0 .41-.34.75-.75.75H5c-2.07 0-3.75-1.68-3.75-3.75v-3c0-.41.34-.75.75-.75h11c.69 0 1.25-.56 1.25-1.25V5c0-.41.34-.75.75-.75h1.84c.99 0 1.9.53 2.39 1.39l1.71 2.99c.13.23.13.52 0 .75-.13.23-.38.37-.65.37H19c-.14 0-.25.11-.25.25v3c0 .14.11.25.25.25h3c.41 0 .75.34.75.75v3c0 2.07-1.68 3.75-3.75 3.75Zm-.35-1.5H19c1.24 0 2.25-1.01 2.25-2.25v-2.25H19c-.96 0-1.75-.79-1.75-1.75v-3c0-.96.78-1.75 1.75-1.75l-1.07-1.87c-.22-.39-.64-.63-1.09-.63h-1.09V12c0 1.52-1.23 2.75-2.75 2.75H2.75V17c0 1.24 1.01 2.25 2.25 2.25h.35c.33-1.15 1.39-2 2.65-2s2.32.85 2.65 2h2.71c.33-1.15 1.39-2 2.65-2s2.31.85 2.64 2Z" fill="#292D32"/><path d="M8 22.75c-1.52 0-2.75-1.23-2.75-2.75S6.48 17.25 8 17.25s2.75 1.23 2.75 2.75S9.52 22.75 8 22.75Zm0-4a1.25 1.25 0 1 0 0 2.5 1.25 1.25 0 0 0 0-2.5ZM16 22.75c-1.52 0-2.75-1.23-2.75-2.75s1.23-2.75 2.75-2.75 2.75 1.23 2.75 2.75-1.23 2.75-2.75 2.75Zm0-4a1.25 1.25 0 1 0 0 2.5 1.25 1.25 0 0 0 0-2.5ZM22 14.75h-3c-.96 0-1.75-.79-1.75-1.75v-3c0-.96.79-1.75 1.75-1.75h1.29c.27 0 .52.14.65.38l1.71 3c.06.11.1.24.1.37v2c0 .41-.34.75-.75.75Zm-3-5c-.14 0-.25.11-.25.25v3c0 .14.11.25.25.25h2.25V12.2l-1.4-2.45H19Z" fill="#292D32"/></svg>