<svg width="24" height="24" fill="none" xmlns="http://www.w3.org/2000/svg"><path d="M22 18.25h-7c-.41 0-.75-.34-.75-.75s.34-.75.75-.75h7c.41 0 .75.34.75.75s-.34.75-.75.75ZM5 18.25H2c-.41 0-.75-.34-.75-.75s.34-.75.75-.75h3c.41 0 .75.34.75.75s-.34.75-.75.75ZM22 7.25h-3c-.41 0-.75-.34-.75-.75s.34-.75.75-.75h3c.41 0 .75.34.75.75s-.34.75-.75.75ZM9 7.25H2c-.41 0-.75-.34-.75-.75s.34-.75.75-.75h7c.41 0 .75.34.75.75s-.34.75-.75.75Z" fill="#292D32"/><path d="M13 21.25H7c-1.72 0-2.75-1.03-2.75-2.75v-2c0-1.72 1.03-2.75 2.75-2.75h6c1.72 0 2.75 1.03 2.75 2.75v2c0 1.72-1.03 2.75-2.75 2.75Zm-6-6c-.89 0-1.25.36-1.25 1.25v2c0 .89.36 1.25 1.25 1.25h6c.89 0 1.25-.36 1.25-1.25v-2c0-.89-.36-1.25-1.25-1.25H7ZM17 10.25h-6c-1.72 0-2.75-1.03-2.75-2.75v-2c0-1.72 1.03-2.75 2.75-2.75h6c1.72 0 2.75 1.03 2.75 2.75v2c0 1.72-1.03 2.75-2.75 2.75Zm-6-6c-.89 0-1.25.36-1.25 1.25v2c0 .89.36 1.25 1.25 1.25h6c.89 0 1.25-.36 1.25-1.25v-2c0-.89-.36-1.25-1.25-1.25h-6Z" fill="#292D32"/></svg>