<svg width="24" height="24" fill="none" xmlns="http://www.w3.org/2000/svg"><path d="M17.54 9.06c-1.77 0-3.21-1.44-3.21-3.21s1.44-3.21 3.21-3.21 3.21 1.44 3.21 3.21-1.44 3.21-3.21 3.21Zm0-4.93c-.94 0-1.71.77-1.71 1.71s.77 1.71 1.71 1.71 1.71-.77 1.71-1.71-.77-1.71-1.71-1.71ZM6.46 9.06c-1.77 0-3.21-1.44-3.21-3.21s1.44-3.21 3.21-3.21 3.21 1.44 3.21 3.21-1.44 3.21-3.21 3.21Zm0-4.93c-.94 0-1.71.77-1.71 1.71s.77 1.71 1.71 1.71 1.71-.77 1.71-1.71-.76-1.71-1.71-1.71ZM17.54 21.37c-1.77 0-3.21-1.44-3.21-3.21s1.44-3.21 3.21-3.21 3.21 1.44 3.21 3.21-1.44 3.21-3.21 3.21Zm0-4.93c-.94 0-1.71.77-1.71 1.71s.77 1.71 1.71 1.71 1.71-.77 1.71-1.71-.77-1.71-1.71-1.71ZM6.46 21.37c-1.77 0-3.21-1.44-3.21-3.21s1.44-3.21 3.21-3.21 3.21 1.44 3.21 3.21-1.44 3.21-3.21 3.21Zm0-4.93c-.94 0-1.71.77-1.71 1.71s.77 1.71 1.71 1.71 1.71-.77 1.71-1.71-.76-1.71-1.71-1.71Z" fill="#292D32"/></svg>