<svg width="24" height="24" fill="none" xmlns="http://www.w3.org/2000/svg"><path d="M12 10.07a2.92 2.92 0 0 1-2.91-2.91c0-1.6 1.31-2.91 2.91-2.91s2.91 1.31 2.91 2.91-1.31 2.91-2.91 2.91Zm0-4.32c-.78 0-1.41.63-1.41 1.41 0 .78.63 1.41 1.41 1.41.78 0 1.41-.63 1.41-1.41 0-.78-.63-1.41-1.41-1.41ZM6.79 19.75a2.92 2.92 0 0 1-2.91-2.91c0-1.6 1.31-2.91 2.91-2.91s2.91 1.31 2.91 2.91-1.31 2.91-2.91 2.91Zm0-4.32c-.78 0-1.41.63-1.41 1.41 0 .78.63 1.41 1.41 1.41.78 0 1.41-.63 1.41-1.41 0-.78-.64-1.41-1.41-1.41ZM17.21 19.75a2.92 2.92 0 0 1-2.91-2.91c0-1.6 1.31-2.91 2.91-2.91s2.91 1.31 2.91 2.91-1.3 2.91-2.91 2.91Zm0-4.32c-.78 0-1.41.63-1.41 1.41 0 .78.63 1.41 1.41 1.41.78 0 1.41-.63 1.41-1.41 0-.78-.63-1.41-1.41-1.41Z" fill="#292D32"/></svg>