<svg width="24" height="24" fill="none" xmlns="http://www.w3.org/2000/svg"><path d="M15 22.75H9c-5.43 0-7.75-2.32-7.75-7.75V9c0-5.43 2.32-7.75 7.75-7.75h6c5.43 0 7.75 2.32 7.75 7.75v6c0 5.43-2.32 7.75-7.75 7.75Zm-6-20C4.39 2.75 2.75 4.39 2.75 9v6c0 4.61 1.64 6.25 6.25 6.25h6c4.61 0 6.25-1.64 6.25-6.25V9c0-4.61-1.64-6.25-6.25-6.25H9Z" fill="#292D32"/><path d="M15.58 19.252c-.41 0-.75-.34-.75-.75v-3.9c0-.41.34-.75.75-.75s.75.34.75.75v3.9c0 .41-.34.75-.75.75ZM15.58 8.2c-.41 0-.75-.34-.75-.75V5.5c0-.41.34-.75.75-.75s.75.34.75.75v1.95c0 .41-.34.75-.75.75Z" fill="#292D32"/><path d="M15.58 13.4a3.35 3.35 0 1 1 3.35-3.35c0 1.85-1.51 3.35-3.35 3.35Zm0-5.2c-1.02 0-1.85.83-1.85 1.85s.83 1.85 1.85 1.85 1.85-.83 1.85-1.85-.84-1.85-1.85-1.85ZM8.42 19.25c-.41 0-.75-.34-.75-.75v-1.95c0-.41.34-.75.75-.75s.75.34.75.75v1.95c0 .41-.33.75-.75.75ZM8.42 10.15c-.41 0-.75-.34-.75-.75V5.5c0-.41.34-.75.75-.75s.75.34.75.75v3.9c0 .41-.33.75-.75.75Z" fill="#292D32"/><path d="M8.42 17.302a3.35 3.35 0 1 1 0-6.7 3.35 3.35 0 0 1 0 6.7Zm0-5.2c-1.02 0-1.85.83-1.85 1.85s.83 1.85 1.85 1.85 1.85-.83 1.85-1.85-.82-1.85-1.85-1.85Z" fill="#292D32"/></svg>