<svg width="24" height="24" fill="none" xmlns="http://www.w3.org/2000/svg"><path d="M12 17.25c-2.89 0-5.25-2.35-5.25-5.25S9.11 6.75 12 6.75 17.25 9.1 17.25 12s-2.36 5.25-5.25 5.25Zm0-9c-2.07 0-3.75 1.68-3.75 3.75 0 2.07 1.68 3.75 3.75 3.75 2.07 0 3.75-1.68 3.75-3.75 0-2.07-1.68-3.75-3.75-3.75Z" fill="#292D32"/><path d="M7 12.75H2c-.41 0-.75-.34-.75-.75s.34-.75.75-.75h5c.41 0 .75.34.75.75s-.34.75-.75.75ZM22 12.75h-5c-.41 0-.75-.34-.75-.75s.34-.75.75-.75h5c.41 0 .75.34.75.75s-.34.75-.75.75Z" fill="#292D32"/></svg>