<svg width="24" height="24" fill="none" xmlns="http://www.w3.org/2000/svg"><path d="M12 22.63c-.67 0-1.35-.15-1.88-.46L4.62 19c-2.24-1.51-2.38-1.74-2.38-4.11V9.11c0-2.37.13-2.6 2.33-4.09l5.54-3.2c1.05-.61 2.7-.61 3.75 0L19.38 5c2.24 1.51 2.38 1.74 2.38 4.11v5.77c0 2.37-.13 2.6-2.33 4.09l-5.54 3.2c-.54.31-1.22.46-1.89.46Zm0-19.76c-.42 0-.83.08-1.12.25L5.38 6.3C3.75 7.4 3.75 7.4 3.75 9.11v5.77c0 1.71 0 1.71 1.67 2.84l5.46 3.15c.59.34 1.66.34 2.25 0l5.5-3.18c1.62-1.1 1.62-1.1 1.62-2.81V9.11c0-1.71 0-1.71-1.67-2.84l-5.46-3.15c-.29-.17-.7-.25-1.12-.25Z" fill="#292D32"/><path d="M12 15.75c-2.07 0-3.75-1.68-3.75-3.75 0-2.07 1.68-3.75 3.75-3.75 2.07 0 3.75 1.68 3.75 3.75 0 2.07-1.68 3.75-3.75 3.75Zm0-6c-1.24 0-2.25 1.01-2.25 2.25s1.01 2.25 2.25 2.25 2.25-1.01 2.25-2.25S13.24 9.75 12 9.75Z" fill="#292D32"/></svg>