<svg width="24" height="24" fill="none" xmlns="http://www.w3.org/2000/svg"><path d="M19 22.75c-.41 0-.75-.34-.75-.75V11c0-.41.34-.75.75-.75s.75.34.75.75v11c0 .41-.34.75-.75.75ZM19 7.75c-.41 0-.75-.34-.75-.75V2c0-.41.34-.75.75-.75s.75.34.75.75v5c0 .41-.34.75-.75.75ZM12 22.75c-.41 0-.75-.34-.75-.75v-5c0-.41.34-.75.75-.75s.75.34.75.75v5c0 .41-.34.75-.75.75ZM12 13.75c-.41 0-.75-.34-.75-.75V2c0-.41.34-.75.75-.75s.75.34.75.75v11c0 .41-.34.75-.75.75ZM5 22.75c-.41 0-.75-.34-.75-.75V11c0-.41.34-.75.75-.75s.75.34.75.75v11c0 .41-.34.75-.75.75ZM5 7.75c-.41 0-.75-.34-.75-.75V2c0-.41.34-.75.75-.75s.75.34.75.75v5c0 .41-.34.75-.75.75Z" fill="#292D32"/><path d="M7 11.75H3c-.41 0-.75-.34-.75-.75s.34-.75.75-.75h4c.41 0 .75.34.75.75s-.34.75-.75.75ZM21 11.75h-4c-.41 0-.75-.34-.75-.75s.34-.75.75-.75h4c.41 0 .75.34.75.75s-.34.75-.75.75ZM14 13.75h-4c-.41 0-.75-.34-.75-.75s.34-.75.75-.75h4c.41 0 .75.34.75.75s-.34.75-.75.75Z" fill="#292D32"/></svg>