<svg width="24" height="24" fill="none" xmlns="http://www.w3.org/2000/svg"><path d="M14 20.75h-4c-4.83 0-8.75-3.93-8.75-8.75S5.17 3.25 10 3.25h4c4.83 0 8.75 3.93 8.75 8.75s-3.92 8.75-8.75 8.75Zm-4-16C6 4.75 2.75 8 2.75 12S6 19.25 10 19.25h4c4 0 7.25-3.25 7.25-7.25S18 4.75 14 4.75h-4Z" fill="#292D32"/><path d="M14 16.75c-2.62 0-4.75-2.13-4.75-4.75S11.38 7.25 14 7.25s4.75 2.13 4.75 4.75-2.13 4.75-4.75 4.75Zm0-8c-1.79 0-3.25 1.46-3.25 3.25s1.46 3.25 3.25 3.25 3.25-1.46 3.25-3.25S15.79 8.75 14 8.75Z" fill="#292D32"/></svg>