<svg width="24" height="24" fill="none" xmlns="http://www.w3.org/2000/svg"><path d="M16.19 2H7.81C4.17 2 2 4.17 2 7.81v8.37C2 19.83 4.17 22 7.81 22h8.37c3.64 0 5.81-2.17 5.81-5.81V7.81C22 4.17 19.83 2 16.19 2Zm3.16 6.84c-.04.09-.09.17-.16.24l-1.8 1.8c-.15.15-.34.22-.53.22s-.38-.07-.53-.22a.754.754 0 0 1 0-1.06l.52-.52h-.15c-2.1 0-3.82 1.71-3.82 3.81v4.13c0 .41-.34.75-.75.75s-.75-.34-.75-.75v-4.13c0-2.1-1.71-3.81-3.81-3.81h-.42l.52.52c.29.29.29.77 0 1.06-.15.15-.34.22-.53.22s-.38-.07-.53-.22l-1.8-1.8a.754.754 0 0 1 0-1.06l1.8-1.8c.29-.29.77-.29 1.06 0 .29.29.29.77 0 1.06l-.52.52h.43c1.95 0 3.64 1.07 4.56 2.64.92-1.57 2.61-2.64 4.57-2.64h.15l-.52-.52a.754.754 0 0 1 0-1.06c.29-.29.77-.29 1.06 0l1.8 1.8c.07.07.12.15.16.24.07.19.07.4-.01.58Z" fill="#292D32"/></svg>