<svg width="24" height="24" fill="none" xmlns="http://www.w3.org/2000/svg"><path d="m18.73 14.671-4.15 4.15c-.16.16-.31.47-.35.69l-.23 1.59c-.08.57.32.98.89.89l1.59-.23c.22-.03.53-.19.69-.35l4.15-4.15c.71-.71 1.05-1.55 0-2.6-1.04-1.04-1.87-.71-2.59.01Z" fill="#292D32"/><path d="M18.14 15.262a3.761 3.761 0 0 0 2.6 2.6l-2.6-2.6ZM2.03 14.629c0 .03-.02.07-.02.1a9.494 9.494 0 0 0 4.26 4.26c.03 0 .07-.02.1-.02-.34-1.16-.6-2.35-.79-3.54-1.2-.2-2.39-.46-3.55-.8ZM19.07 6.431a9.5 9.5 0 0 0-4.49-4.49c.36 1.19.66 2.41.86 3.63 1.22.2 2.44.49 3.63.86ZM1.93 6.43c1.2-.36 2.42-.66 3.64-.86.2-1.19.45-2.37.79-3.53-.03 0-.07-.02-.1-.02-1.88.93-3.41 2.5-4.33 4.41ZM13.82 5.36c-.24-1.3-.54-2.6-.97-3.86-.02-.07-.02-.13-.03-.21C12.08 1.11 11.3 1 10.5 1c-.81 0-1.58.11-2.33.3-.01.07 0 .13-.02.21-.42 1.26-.73 2.55-.97 3.85 2.21-.24 4.43-.24 6.64 0ZM5.36 7.18c-1.31.24-2.59.55-3.86.97-.07.02-.13.02-.2.03-.19.74-.3 1.52-.3 2.32 0 .81.11 1.58.3 2.33.07.01.13 0 .21.02 1.26.42 2.55.73 3.86.97-.25-2.21-.25-4.43-.01-6.64ZM19.7 8.18c-.07 0-.13-.01-.21-.03-1.26-.42-2.56-.73-3.86-.97.25 2.21.25 4.43 0 6.63 1.3-.24 2.6-.54 3.86-.97.07-.02.13-.01.21-.02.18-.75.3-1.52.3-2.33 0-.79-.11-1.56-.3-2.31ZM7.18 15.639c.24 1.31.54 2.6.97 3.86.02.07.01.13.02.21.75.18 1.52.29 2.33.29.8 0 1.58-.11 2.32-.3.01-.07.01-.13.03-.21.42-1.26.73-2.55.97-3.86-1.1.12-2.21.21-3.32.21-1.11 0-2.22-.08-3.32-.2ZM6.95 6.952c-.3 2.36-.3 4.74 0 7.11 2.36.3 4.74.3 7.11 0 .3-2.36.3-4.74 0-7.11-2.37-.3-4.75-.3-7.11 0Z" fill="#292D32"/></svg>