<svg width="24" height="24" fill="none" xmlns="http://www.w3.org/2000/svg"><path d="M22.75 11.999c0 .41-.34.75-.75.75h-2.04c-.35 3.81-3.4 6.86-7.21 7.21v2.04c0 .41-.34.75-.75.75s-.75-.34-.75-.75v-2.04c-.61-.05-1.21-.18-1.78-.37-.71-.24-.93-1.14-.4-1.67l2.81-2.81c.04.01.07.01.11.01 1.73 0 3.12-1.39 3.12-3.12 0-.04 0-.07-.01-.11l2.81-2.81c.53-.53 1.43-.31 1.67.4.19.57.32 1.16.37 1.78H22c.41-.01.75.33.75.74ZM21.77 2.23c-.3-.3-.79-.3-1.09 0l-3.61 3.61c-1.2-.99-2.7-1.64-4.33-1.79V2c0-.41-.34-.75-.75-.75s-.75.34-.75.75v2.04c-3.81.36-6.86 3.4-7.21 7.21H2c-.41 0-.75.34-.75.75s.34.75.75.75h2.04c.15 1.63.8 3.13 1.79 4.33l-3.61 3.61c-.3.3-.3.79 0 1.09.16.14.35.22.55.22.2 0 .39-.08.54-.23L21.77 3.31c.31-.3.31-.78 0-1.08ZM8.88 12c0-1.72 1.4-3.12 3.12-3.12.58 0 1.12.17 1.58.45l-4.25 4.25c-.28-.46-.45-1-.45-1.58Z" fill="#292D32"/></svg>