<svg width="24" height="24" fill="none" xmlns="http://www.w3.org/2000/svg"><path d="M15.78 20.98A5.436 5.436 0 0 1 12 22.51c-1.36 0-2.72-.52-3.78-1.54-.36-.34-.72-.72-1.08-1.11l12.9-12.9c.25.54.44 1.11.58 1.74 1.17 5.16-1.99 9.52-4.84 12.28ZM21.769 2.229c-.3-.3-.79-.3-1.09 0l-18.45 18.46c-.3.3-.3.79 0 1.09a.758.758 0 0 0 1.08-.01l18.46-18.46c.31-.3.31-.78 0-1.08Z" fill="#292D32"/><path d="M8.849 10.31a3.15 3.15 0 0 1 6.06-1.21l3.98-3.98C17.119 2.98 14.439 2 11.999 2c-1.77 0-3.66.52-5.24 1.61-1.58 1.1-2.86 2.77-3.38 5.08-.84 3.67.52 6.95 2.41 9.52l5-5a3.144 3.144 0 0 1-1.94-2.9Z" fill="#292D32"/></svg>