<svg width="24" height="24" fill="none" xmlns="http://www.w3.org/2000/svg"><path d="M9.148 7.488c-.56 0-1 .45-1 1s.45 1 1 1 1-.45 1-1-.45-1-1-1Z" fill="#292D32"/><path d="M21.46 5.04C20.62 3.09 18.77 2 16.19 2H7.81C4.6 2 2 4.6 2 7.81v8.38c0 2.58 1.09 4.43 3.04 5.27.19.08.41.03.55-.11L21.35 5.59c.15-.15.2-.37.11-.55Zm-10.93 7.2c-.39.38-.9.56-1.41.56-.51 0-1.02-.19-1.41-.56C6.69 11.28 5.57 9.75 6 7.93c.38-1.65 1.84-2.39 3.12-2.39s2.74.74 3.12 2.4c.42 1.81-.7 3.34-1.71 4.3ZM19.469 20.53c.22.22.19.58-.08.73-.88.49-1.95.74-3.2.74h-8.38c-.29 0-.41-.34-.21-.54l6.04-6.04c.2-.2.51-.2.71 0l5.12 5.11ZM22.002 7.809v8.38c0 1.25-.25 2.33-.74 3.2-.15.27-.51.29-.73.08l-5.12-5.12c-.2-.2-.2-.51 0-.71l6.04-6.04c.21-.2.55-.08.55.21Z" fill="#292D32"/></svg>