<svg width="24" height="24" fill="none" xmlns="http://www.w3.org/2000/svg"><path d="M12 22C6.48 22 2 17.52 2 12S6.48 2 12 2s10 4.48 10 10-4.48 10-10 10Z" stroke="#292D32" stroke-width="1.5" stroke-linecap="round" stroke-linejoin="round"/><path opacity=".4" d="M10.88 14.149c-.51.44-1.17.72-1.89.72a2.87 2.87 0 0 1-2.87-2.87c0-1.59 1.28-2.87 2.87-2.87.73 0 1.39.27 1.89.72M17.88 14.149c-.51.44-1.17.72-1.89.72a2.87 2.87 0 0 1-2.87-2.87c0-1.59 1.28-2.87 2.87-2.87.73 0 1.39.27 1.89.72" stroke="#292D32" stroke-width="1.5" stroke-linecap="round" stroke-linejoin="round"/></svg>