<svg width="22" height="22" fill="none" xmlns="http://www.w3.org/2000/svg"><path opacity=".4" d="M16 12.4v3c0 4-1.6 5.6-5.6 5.6H6.6c-4 0-5.6-1.6-5.6-5.6v-3.8C1 7.6 2.6 6 6.6 6h3" stroke="#292D32" stroke-width="1.5" stroke-linecap="round" stroke-linejoin="round"/><path d="M16 12.4h-3.2c-2.4 0-3.2-.8-3.2-3.2V6l6.4 6.4Z" stroke="#292D32" stroke-width="1.5" stroke-linecap="round" stroke-linejoin="round"/><path opacity=".4" d="M6 4c0-1.66 1.34-3 3-3h6M21 7v6.19c0 1.55-1.26 2.81-2.81 2.81" stroke="#292D32" stroke-width="1.5" stroke-linecap="round" stroke-linejoin="round"/><path d="M21 7h-3c-2.25 0-3-.75-3-3V1l6 6Z" stroke="#292D32" stroke-width="1.5" stroke-linecap="round" stroke-linejoin="round"/></svg>