<svg width="24" height="24" fill="none" xmlns="http://www.w3.org/2000/svg"><path d="m21.93 6.761-3.37 13.53a2.228 2.228 0 0 1-2.18 1.71H3.24c-1.51 0-2.59-1.48-2.14-2.93L5.31 5.55a2.25 2.25 0 0 1 2.14-1.59h12.3c.95 0 1.74.58 2.07 1.38.19.43.23.92.11 1.42Z" stroke="#292D32" stroke-width="1.5" stroke-miterlimit="10"/><path opacity=".4" d="M16 22h4.78c1.29 0 2.3-1.09 2.21-2.38L22 6" stroke="#292D32" stroke-width="1.5" stroke-miterlimit="10" stroke-linecap="round" stroke-linejoin="round"/><path d="m9.68 6.379 1.04-4.32M16.38 6.39l.94-4.34" stroke="#292D32" stroke-width="1.5" stroke-miterlimit="10" stroke-linecap="round" stroke-linejoin="round"/><path opacity=".4" d="M7.7 12h8M6.7 16h8" stroke="#292D32" stroke-width="1.5" stroke-miterlimit="10" stroke-linecap="round" stroke-linejoin="round"/></svg>