<svg width="24" height="24" fill="none" xmlns="http://www.w3.org/2000/svg"><path d="M11 18v3c0 .55-.45 1-1 1s-1-.45-1-1v-3h2ZM15 18v3c0 .55-.45 1-1 1s-1-.45-1-1v-3h2Z" fill="#292D32"/><path opacity=".4" d="M17 11v5c0 1.1-.9 2-2 2H9c-1.1 0-2-.9-2-2v-5c0-1.1.9-2 2-2h6c1.1 0 2 .9 2 2Z" fill="#292D32"/><path d="M5 11v4c0 .55-.45 1-1 1s-1-.45-1-1v-4c0-.55.45-1 1-1s1 .45 1 1ZM21 11v4c0 .55-.45 1-1 1s-1-.45-1-1v-4c0-.55.45-1 1-1s1 .45 1 1Z" fill="#292D32"/><path opacity=".4" d="M9.6 7.6h4.8c.88 0 1.6-.72 1.6-1.6 0-2.21-1.79-4-4-4S8 3.79 8 6c0 .88.72 1.6 1.6 1.6Z" fill="#292D32"/></svg>
