<svg width="24" height="24" fill="none" xmlns="http://www.w3.org/2000/svg"><path d="M11.4 2.35 6.26 7.5c-.2.2-.2.51 0 .71l1.73 1.73c.2.2.51.2.71 0l5.15-5.15c.2-.2.2-.51 0-.71l-1.73-1.73a.526.526 0 0 0-.72 0Z" fill="#292D32"/><path opacity=".4" d="M15.3 6.26 6.26 15.3c-.2.2-.2.51 0 .71l1.73 1.73c.2.2.51.2.71 0l9.05-9.05c.2-.2.2-.51 0-.71l-1.73-1.73a.516.516 0 0 0-.72.01Z" fill="#292D32"/><path d="m19.21 10.162-9.05 9.05c-.2.2-.2.51 0 .71l1.73 1.73c.2.2.51.2.71 0l9.05-9.05c.2-.2.2-.51 0-.71l-1.73-1.73c-.2-.2-.52-.2-.71 0Z" fill="#292D32"/><path opacity=".4" d="m4.09 13.84-1.73-1.73c-.2-.2-.2-.51 0-.71l1.73-1.73c.2-.2.51-.2.71 0l1.73 1.73c.2.2.2.51 0 .71L4.8 13.84c-.2.2-.52.2-.71 0Z" fill="#292D32"/></svg>
