<svg width="24" height="24" fill="none" xmlns="http://www.w3.org/2000/svg"><path d="m11.65 2.348-5.3 5.3c-.2.2-.2.51 0 .71l1.29 1.29c.2.2.51.2.71 0l3.29-3.29c.2-.2.51-.2.71 0l3.29 3.29c.2.2.51.2.71 0l1.29-1.29c.2-.2.2-.51 0-.71l-5.29-5.29c-.19-.2-.51-.2-.7-.01ZM11.65 21.65l-5.29-5.29c-.2-.2-.2-.51 0-.71l1.29-1.29c.2-.2.51-.2.71 0l3.29 3.29c.2.2.51.2.71 0l3.29-3.29c.2-.2.51-.2.71 0l1.29 1.29c.2.2.2.51 0 .71l-5.29 5.29c-.2.19-.52.19-.71 0Z" fill="#292D32"/><path opacity=".4" d="m20.1 10.098 1.54 1.54c.2.2.2.51 0 .71l-1.54 1.55c-.2.2-.51.2-.71 0l-1.54-1.54c-.2-.2-.2-.51 0-.71l1.54-1.54c.2-.2.52-.2.71-.01ZM4.6 10.1l1.54 1.54c.2.2.2.51 0 .71L4.6 13.9c-.2.2-.51.2-.71 0l-1.54-1.54c-.2-.2-.2-.51 0-.71L3.9 10.1c.19-.19.51-.19.7 0ZM12.35 9.88l1.77 1.77c.2.2.2.51 0 .71l-1.77 1.77c-.2.2-.51.2-.71 0l-1.77-1.77c-.2-.2-.2-.51 0-.71l1.77-1.77c.2-.2.52-.2.71 0Z" fill="#292D32"/></svg>
