<svg width="24" height="24" fill="none" xmlns="http://www.w3.org/2000/svg"><g opacity=".6" fill="#292D32"><path opacity=".6" d="M17.148 10a1 1 0 1 0 0-2 1 1 0 0 0 0 2ZM17.148 16a1 1 0 1 0 0-2 1 1 0 0 0 0 2ZM19.75 13a1 1 0 1 0 0-2 1 1 0 0 0 0 2ZM6.799 10a1 1 0 1 0 0-2 1 1 0 0 0 0 2ZM6.799 16a1 1 0 1 0 0-2 1 1 0 0 0 0 2ZM4.2 13a1 1 0 1 0 0-2 1 1 0 0 0 0 2ZM15.898 6.2a1 1 0 1 0 0-2 1 1 0 0 0 0 2ZM8.1 6.2a1 1 0 1 0 0-2 1 1 0 0 0 0 2ZM12.049 7a1 1 0 1 0 0-2 1 1 0 0 0 0 2ZM15.898 20a1 1 0 1 0 0-2 1 1 0 0 0 0 2ZM8.1 20a1 1 0 1 0 0-2 1 1 0 0 0 0 2ZM12.049 19.2a1 1 0 1 0 0-2 1 1 0 0 0 0 2Z"/></g><path d="M13.75 10.25a1.25 1.25 0 1 0 0-2.5 1.25 1.25 0 0 0 0 2.5ZM10.25 10.25a1.25 1.25 0 1 0 0-2.5 1.25 1.25 0 0 0 0 2.5ZM15.5 13.25a1.25 1.25 0 1 0 0-2.5 1.25 1.25 0 0 0 0 2.5ZM8.5 13.25a1.25 1.25 0 1 0 0-2.5 1.25 1.25 0 0 0 0 2.5ZM10.25 16.25a1.25 1.25 0 1 0 0-2.5 1.25 1.25 0 0 0 0 2.5ZM13.75 16.25a1.25 1.25 0 1 0 0-2.5 1.25 1.25 0 0 0 0 2.5Z" fill="#292D32"/><path opacity=".4" d="M12 3.328c-.49 0-.88-.39-.88-.88s.39-.87.88-.87.88.39.88.88-.39.87-.88.87ZM17.25 3.602c-.42 0-.76-.34-.76-.75s.34-.75.75-.75.76.34.76.75-.33.75-.75.75ZM6.75 3.602a.749.749 0 1 1 0-1.5h.01c.41 0 .75.34.75.75s-.34.75-.76.75ZM12 22.381c-.49 0-.88-.39-.88-.88s.39-.88.88-.88.88.39.88.88-.39.88-.88.88ZM17.25 21.852c-.42 0-.76-.34-.76-.75s.34-.75.75-.75.76.34.76.75-.33.75-.75.75ZM6.75 21.852a.749.749 0 1 1 0-1.5h.01c.41 0 .75.34.75.75s-.34.75-.76.75ZM1.55 12.881a.88.88 0 0 1-.88-.87v-.01c0-.48.39-.88.88-.88s.87.39.87.88-.39.88-.87.88ZM3.75 17.748c-.41 0-.75-.34-.75-.75v-.01c0-.41.34-.75.75-.75s.75.34.75.75-.34.76-.75.76ZM3.75 7.762c-.41 0-.75-.34-.75-.75s.34-.75.75-.75.75.33.75.74v.01c0 .41-.34.75-.75.75ZM22.5 12.881a.88.88 0 0 1-.88-.87v-.01c0-.48.39-.88.88-.88s.88.39.88.88-.4.88-.88.88ZM20.3 17.748c-.41 0-.75-.33-.75-.75v-.01c0-.41.34-.75.75-.75s.75.34.75.75-.34.76-.75.76ZM20.3 7.762c-.41 0-.75-.34-.75-.75s.34-.75.75-.75.75.33.75.74v.01c0 .41-.34.75-.75.75Z" fill="#292D32"/></svg>
