<svg width="24" height="24" fill="none" xmlns="http://www.w3.org/2000/svg"><path opacity=".4" d="M12 22c5.523 0 10-4.477 10-10S17.523 2 12 2 2 6.477 2 12s4.477 10 10 10Z" fill="#292D32"/><path d="M12 17.75H8c-.41 0-.75-.34-.75-.75V7c0-.41.34-.75.75-.75h4c3.17 0 5.75 2.58 5.75 5.75s-2.58 5.75-5.75 5.75Zm-3.25-1.5H12A4.26 4.26 0 0 0 16.25 12 4.26 4.26 0 0 0 12 7.75H8.75v8.5Z" fill="#292D32"/><path d="M18.52 10.75H6.48c-.41 0-.75-.34-.75-.75s.34-.75.75-.75h12.04c.41 0 .75.34.75.75s-.34.75-.75.75ZM18.52 14.75H6.48c-.41 0-.75-.34-.75-.75s.34-.75.75-.75h12.04c.41 0 .75.34.75.75s-.34.75-.75.75Z" fill="#292D32"/></svg>
