<svg width="24" height="24" fill="none" xmlns="http://www.w3.org/2000/svg"><path opacity=".4" d="m7.93 5.481 3.13 3.13c.52.52 1.37.52 1.89 0l3.13-3.13c.84-.84.25-2.29-.95-2.29H8.87c-1.19 0-1.79 1.45-.94 2.29ZM7.93 18.52l3.13-3.13a1.34 1.34 0 0 1 1.89 0l3.13 3.13c.84.84.25 2.29-.95 2.29H8.87c-1.19 0-1.79-1.45-.94-2.29Z" fill="#292D32"/><path d="m2.16 11.43 2.29-3.6c.36-.57 1.16-.66 1.64-.18l3.6 3.6c.41.41.41 1.08 0 1.49l-3.6 3.6c-.48.48-1.27.39-1.64-.18l-2.29-3.6c-.21-.34-.21-.78 0-1.13ZM21.84 11.43l-2.29-3.6c-.36-.57-1.16-.66-1.64-.18l-3.6 3.6c-.41.41-.41 1.08 0 1.49l3.6 3.6c.48.48 1.27.39 1.64-.18l2.29-3.6c.21-.34.21-.78 0-1.13Z" fill="#292D32"/></svg>
