<svg width="24" height="24" fill="none" xmlns="http://www.w3.org/2000/svg"><path opacity=".4" d="M12 22c5.523 0 10-4.477 10-10S17.523 2 12 2 2 6.477 2 12s4.477 10 10 10Z" fill="#292D32"/><path d="M12 6h-2c-1.1 0-2 .9-2 2s.9 2 2 2h2V6Z" fill="#292D32"/><path opacity=".4" d="M12 10h-2c-1.1 0-2 .9-2 2s.9 2 2 2h2v-4Z" fill="#292D32"/><path d="M12 14h-2c-1.1 0-2 .9-2 2s.9 2 2 2 2-.9 2-2v-2Z" fill="#292D32"/><path opacity=".4" d="M12 6h2c1.1 0 2 .9 2 2s-.9 2-2 2h-2V6Z" fill="#292D32"/><path d="M14 10c1.1 0 2 .9 2 2s-.9 2-2 2-2-.9-2-2 .9-2 2-2Z" fill="#292D32"/></svg>
