<svg width="24" height="24" fill="none" xmlns="http://www.w3.org/2000/svg"><path d="M12 2H8.67C6.83 2 5.34 3.49 5.34 5.33s1.49 3.33 3.33 3.33H12V2Z" fill="#292D32"/><path opacity=".4" d="M12 8.672H8.67c-1.84 0-3.33 1.49-3.33 3.33s1.49 3.33 3.33 3.33H12v-6.66Z" fill="#292D32"/><path d="M12 15.328H8.67c-1.84 0-3.33 1.49-3.33 3.33s1.49 3.33 3.33 3.33 3.33-1.49 3.33-3.33v-3.33Z" fill="#292D32"/><path opacity=".4" d="M12 2h3.33c1.84 0 3.33 1.49 3.33 3.33s-1.49 3.33-3.33 3.33H12V2Z" fill="#292D32"/><path d="M15.33 8.672c1.84 0 3.33 1.49 3.33 3.33s-1.49 3.33-3.33 3.33-3.33-1.49-3.33-3.33 1.49-3.33 3.33-3.33Z" fill="#292D32"/></svg>
