<svg width="24" height="24" fill="none" xmlns="http://www.w3.org/2000/svg"><path opacity=".4" d="M7.7 15.71 4.59 21l-3.18-5.29H7.7Z" fill="#292D32"/><path d="m12 8.41-4.3 7.3H1.41L8.82 3 12 8.41Z" fill="#292D32"/><path opacity=".4" d="M15.18 3 12 8.41 8.82 3h6.36Z" fill="#292D32"/><path d="M22.59 15.63s-.02.03-.06.08H16.3L12 8.41 15.18 3s7.36 12.63 7.41 12.63Z" fill="#292D32"/><path opacity=".4" d="M22.53 15.71c-.42.66-3.12 5.29-3.12 5.29l-3.11-5.29h6.23Z" fill="#292D32"/><path d="M19.41 21H4.59l3.11-5.29h8.6L19.41 21Z" fill="#292D32"/><path opacity=".4" d="M16.3 15.71H7.7l4.3-7.3 4.3 7.3Z" fill="#292D32"/></svg>
