<svg width="24" height="24" fill="none" xmlns="http://www.w3.org/2000/svg"><path opacity=".4" d="M20.26 5.25c-.83 0-1.5-.67-1.5-1.5s.67-1.5 1.5-1.5h.01c.83 0 1.5.67 1.5 1.5s-.68 1.5-1.51 1.5ZM3.76 21.75c-.83 0-1.5-.67-1.5-1.5s.67-1.5 1.5-1.5h.01c.83 0 1.5.67 1.5 1.5s-.68 1.5-1.51 1.5Z" fill="#292D32"/><path d="M6.03 16.4c-.25 0-.5-.13-.64-.36A7.754 7.754 0 0 1 4.25 12c0-4.27 3.48-7.75 7.75-7.75 1.41 0 2.79.38 3.99 1.1.35.21.47.67.26 1.03-.21.35-.67.47-1.03.26a6.26 6.26 0 0 0-3.21-.89c-3.45 0-6.25 2.8-6.25 6.25 0 1.15.32 2.28.92 3.26.22.35.11.81-.25 1.03-.13.08-.27.11-.4.11ZM12 19.75c-1.44 0-2.84-.4-4.05-1.14a.76.76 0 0 1-.25-1.03.76.76 0 0 1 1.03-.25A6.252 6.252 0 0 0 18.25 12c0-1.15-.32-2.28-.92-3.26a.742.742 0 0 1 .25-1.03.75.75 0 0 1 1.03.25 7.789 7.789 0 0 1 1.14 4.05c0 4.26-3.48 7.74-7.75 7.74Z" fill="#292D32"/></svg>
