<svg width="24" height="24" fill="none" xmlns="http://www.w3.org/2000/svg"><path opacity=".4" d="m10.99 2.602-6.5 3.82c-.61.36-.99 1.02-.99 1.72v7.71c0 .71.38 1.36.99 1.72l6.5 3.82c.63.37 1.4.37 2.03 0l6.5-3.82c.61-.36.99-1.02.99-1.72v-7.71c0-.71-.38-1.36-.99-1.72l-6.5-3.82c-.63-.37-1.41-.37-2.03 0Z" fill="#292D32"/><path d="m17.39 14.361-2.61-1.57.26-.26c.29-.29.29-.77 0-1.06a.754.754 0 0 0-1.06 0l-.52.52-1.8-1.08.38-.38c.29-.29.29-.77 0-1.06a.754.754 0 0 0-1.06 0l-.65.65-1.87-1.12L12 6.871l4.61 2.77a.751.751 0 1 0 .77-1.29l-5-3a.758.758 0 0 0-.77 0l-5 3a.751.751 0 0 0 0 1.28l2.61 1.57-.26.26c-.29.29-.29.77 0 1.06.15.15.34.22.53.22s.38-.07.53-.22l.52-.52 1.8 1.08-.38.38c-.29.29-.29.77 0 1.06.15.15.34.22.53.22s.38-.07.53-.22l.65-.65 1.86 1.12-3.53 2.14-4.61-2.77a.749.749 0 0 0-1.03.26c-.21.36-.1.82.26 1.03l5 3c.12.07.25.11.39.11s.27-.04.39-.11l5-3c.23-.14.36-.38.36-.64s-.15-.52-.37-.65Z" fill="#292D32"/></svg>
