<svg width="24" height="24" fill="none" xmlns="http://www.w3.org/2000/svg"><path opacity=".4" d="M12 22c5.523 0 10-4.477 10-10S17.523 2 12 2 2 6.477 2 12s4.477 10 10 10Z" fill="#292D32"/><path d="M12.78 6.36a1 1 0 0 1 .97 1.26l-1.79 6.68h3.03c.62 0 1.1.56.98 1.18l-.15.84c-.09.48-.5.82-.98.82H9.3c-.66 0-1.14-.64-.96-1.27l2.61-9.14c.06-.21.26-.36.48-.36h1.35v-.01Z" fill="#292D32"/><path d="M7.32 13.269a.748.748 0 0 1-.14-1.48l7.7-1.54a.75.75 0 1 1 .29 1.47l-7.7 1.54c-.05.01-.1.01-.15.01Z" fill="#292D32"/></svg>
