<svg width="24" height="24" fill="none" xmlns="http://www.w3.org/2000/svg"><path opacity=".4" d="M12 22c5.523 0 10-4.477 10-10S17.523 2 12 2 2 6.477 2 12s4.477 10 10 10Z" fill="#292D32"/><path d="m14.5 10.748-.41.21h-.01l-4.68 2.42 1.07-3.34 3.08-1.39.95 2.1Z" fill="#292D32"/><path d="m13.55 8.65-3.08 1.39L12 5.25l1.55 3.4ZM10.47 10.04 9.4 13.38 6 12.25l2.18-1.09 1.82-.91.47-.21Z" fill="#292D32"/><path d="m18 12.25-4.5 2.5-.31-.1-.09-.03-3.7-1.24 4.68-2.42h.01L18 12.25Z" fill="#292D32"/><path d="m13.19 14.649-.19.6-1 3-2.5-4.68-.1-.19 3.7 1.24.09.03Z" fill="#292D32"/></svg>
