<svg width="24" height="24" fill="none" xmlns="http://www.w3.org/2000/svg"><path opacity=".6" d="M16.36 18.488c-.01.01-.01.02-.01.02a20.414 20.414 0 0 1-4.35 3.49s-8.84-4.42-9.9-14.92c3.11 10.07 9.9 2.92 9.9 2.92 6.76 2.9 4.52 8.14 4.36 8.49Z" fill="#292D32"/><path opacity=".4" d="M16.36 18.49c.16-.35 2.4-5.59-4.36-8.49-1-6 4.07-7.06 4.07-7.06l.59-.12h.01C18.41 3.23 20.2 3.92 22 5c0 0 0 7.5-5.64 13.49Z" fill="#292D32"/><path d="m16.66 2.822-.59.12S11 4.002 12 10.002c0 0-6.79 7.15-9.9-2.92v-.01c-.06-.66-.1-1.36-.1-2.07 0 0 6.72-4.03 14.66-2.18Z" fill="#292D32"/></svg>
