<svg width="24" height="24" fill="none" xmlns="http://www.w3.org/2000/svg"><path opacity=".4" d="M22 12c0 2.76-2.24 5-5 5 0-2.76-2.24-5-5-5 2.76 0 5-2.24 5-5 2.76 0 5 2.24 5 5Z" fill="#292D32"/><path d="M17 17c-2.76 0-5-2.24-5-5 2.76 0 5 2.24 5 5Z" fill="#292D32"/><path opacity=".4" d="M17 17c0 2.76-2.24 5-5 5s-5-2.24-5-5c2.76 0 5-2.24 5-5 0 2.76 2.24 5 5 5Z" fill="#292D32"/><path d="M17 7c0 2.76-2.24 5-5 5 0-2.76 2.24-5 5-5Z" fill="#292D32"/><path opacity=".4" d="M17 7c-2.76 0-5 2.24-5 5 0-2.76-2.24-5-5-5 0-2.76 2.24-5 5-5s5 2.24 5 5Z" fill="#292D32"/><path d="M12 12c0 2.76-2.24 5-5 5 0-2.76 2.24-5 5-5ZM12 12c-2.76 0-5-2.24-5-5 2.76 0 5 2.24 5 5Z" fill="#292D32"/><path opacity=".4" d="M12 12c-2.76 0-5 2.24-5 5-2.76 0-5-2.24-5-5s2.24-5 5-5c0 2.76 2.24 5 5 5Z" fill="#292D32"/></svg>
