<svg width="24" height="24" fill="none" xmlns="http://www.w3.org/2000/svg"><path d="M14.5 18h-11c-.41 0-.75-.34-.75-.75s.34-.75.75-.75h11c3.45 0 6.25-2.8 6.25-6.25S17.95 4 14.5 4h-5c-.41 0-.75-.34-.75-.75s.34-.75.75-.75h5c4.27 0 7.75 3.48 7.75 7.75S18.77 18 14.5 18Z" fill="#292D32"/><path opacity=".4" d="M13.81 14.89H8c-.41 0-.75-.34-.75-.75s.34-.75.75-.75h5.81c1.62 0 2.94-1.32 2.94-2.94 0-1.62-1.32-2.94-2.94-2.94H3.17a.755.755 0 0 1 0-1.51h10.64c2.45 0 4.44 1.99 4.44 4.44s-1.99 4.45-4.44 4.45Z" fill="#292D32"/><path d="M8.5 11.5h-3c-.41 0-.75-.34-.75-.75s.34-.75.75-.75h3c.41 0 .75.34.75.75s-.34.75-.75.75Z" fill="#292D32"/><path opacity=".4" d="M6.5 21.5h-4c-.41 0-.75-.34-.75-.75s.34-.75.75-.75h4c.41 0 .75.34.75.75s-.34.75-.75.75Z" fill="#292D32"/></svg>
