<svg width="24" height="24" fill="none" xmlns="http://www.w3.org/2000/svg"><path opacity=".6" d="M21 7v5l-4 2.78V9.23L21 7ZM12 17.56V22l-9-5 4-2.23v.01l5 2.78Z" fill="#292D32"/><path d="M7 9.23v5.54L3 17V7l4 2.23Z" fill="#292D32"/><path opacity=".6" d="M12 2v4.44L7 9.22v.01L3 7l9-5Z" fill="#292D32"/><path d="M17 9.23v-.01l-5-2.78V2l9 5-4 2.23ZM17 14.781v4.72l-5 2.5v-4.44l5-2.78Z" fill="#292D32"/><path opacity=".4" d="M21 17.001v5l-4-2.5v-4.72l4 2.22ZM17 9.221v5.56l-5 2.78-5-2.78v-5.56l5-2.78 5 2.78Z" fill="#292D32"/></svg>
