<svg width="24" height="24" fill="none" xmlns="http://www.w3.org/2000/svg"><path opacity=".4" d="M16.19 2H7.82C4.17 2 2 4.17 2 7.81v8.37c0 3.64 2.17 5.81 5.81 5.81h8.37c3.64 0 5.81-2.17 5.81-5.81V7.81C22 4.17 19.83 2 16.19 2Z" fill="#292D32"/><path d="M15.15 6h-6.3C7.83 6 7 6.83 7 7.85v8.3C7 17.17 7.83 18 8.85 18h6.3c1.02 0 1.85-.83 1.85-1.85v-8.3C17 6.83 16.17 6 15.15 6ZM14 14.25h-1.25v1.25c0 .41-.34.75-.75.75s-.75-.34-.75-.75v-1.25H10c-.41 0-.75-.34-.75-.75s.34-.75.75-.75h4c.41 0 .75.34.75.75s-.34.75-.75.75Zm0-3h-4c-.41 0-.75-.34-.75-.75s.34-.75.75-.75h1.25V8.5c0-.41.34-.75.75-.75s.75.34.75.75v1.25H14c.41 0 .75.34.75.75s-.34.75-.75.75Z" fill="#292D32"/></svg>
