<svg width="24" height="24" fill="none" xmlns="http://www.w3.org/2000/svg"><path d="M20.66 8.04c0 .23-.06.47-.21.66l-9.38 11.94c-.34.43-.74.58-1.08.46L10 21l1-11 9.04-1.81.62-.15Z" fill="#292D32"/><path opacity=".4" d="m20.66 8.04-.62.15L11 10l5.95-5.95c.12.05.22.12.29.19l3.13 3.13c.18.18.28.42.29.67Z" fill="#292D32"/><path d="M16.95 4.05 11 10 3.01 2.9l-.35-.34v-.01c.2-.26.56-.39 1.04-.32l12.96 1.73c.09.01.19.04.29.09Z" fill="#292D32"/><path opacity=".4" d="m11 9.999-1 11-.01.1c-.25-.09-.48-.33-.63-.71l-6.72-16.8c-.17-.42-.15-.78.02-1.03l.35.34 7.99 7.1Z" fill="#292D32"/></svg>
