<svg width="24" height="24" fill="none" xmlns="http://www.w3.org/2000/svg"><path opacity=".4" d="M12 22c5.523 0 10-4.477 10-10S17.523 2 12 2 2 6.477 2 12s4.477 10 10 10Z" fill="#292D32"/><path d="M16.95 17.698c-.19 0-.38-.07-.53-.22a.754.754 0 0 1 0-1.06 6.21 6.21 0 0 0 1.83-4.42c0-1.67-.65-3.24-1.83-4.42a.754.754 0 0 1 0-1.06c.29-.29.77-.29 1.06 0a7.709 7.709 0 0 1 2.27 5.48c0 2.07-.81 4.02-2.27 5.48-.15.15-.34.22-.53.22ZM7.05 17.698c-.19 0-.38-.07-.53-.22a7.709 7.709 0 0 1-2.27-5.48c0-2.07.81-4.02 2.27-5.48.29-.29.77-.29 1.06 0 .29.29.29.77 0 1.06a6.21 6.21 0 0 0-1.83 4.42c0 1.67.65 3.24 1.83 4.42.29.29.29.77 0 1.06-.15.15-.34.22-.53.22ZM13.65 11.78l-.9-.32V9.48h.03c.44 0 .81.4.81.88 0 .41.34.75.75.75s.75-.34.75-.75c0-1.31-1.03-2.38-2.31-2.38h-.03V7.8c0-.41-.34-.75-.75-.75s-.75.34-.75.75v.18h-.23c-1.16 0-2.11.98-2.11 2.17 0 1.05.47 1.72 1.43 2.06l.9.32v1.98h-.03c-.44 0-.81-.4-.81-.88 0-.41-.34-.75-.75-.75s-.75.34-.75.75c0 1.31 1.03 2.38 2.31 2.38h.03v.18c0 .41.34.75.75.75s.75-.34.75-.75v-.18h.23c1.16 0 2.11-.98 2.11-2.17 0-1.05-.46-1.72-1.43-2.06Zm-2.81-.98c-.32-.11-.43-.17-.43-.64 0-.37.27-.67.61-.67h.23v1.46l-.41-.15Zm2.14 3.72h-.23v-1.46l.41.14c.32.11.43.17.43.64-.01.37-.28.68-.61.68Z" fill="#292D32"/></svg>
