<svg width="24" height="24" fill="none" xmlns="http://www.w3.org/2000/svg"><path d="M14.95 8.292a.5.5 0 0 0-.45-.28h-5c-.19 0-.36.11-.45.28a.47.47 0 0 0 .05.52l2.5 3.33c.09.13.24.2.4.2.16 0 .31-.07.4-.2l2.5-3.33a.51.51 0 0 0 .05-.52Z" fill="#292D32"/><path opacity=".4" d="M12 22c5.523 0 10-4.477 10-10S17.523 2 12 2 2 6.477 2 12s4.477 10 10 10Z" fill="#292D32"/><path d="M12 17.748c-.24 0-.47-.12-.61-.31l-5-7a.76.76 0 0 1 .17-1.05.76.76 0 0 1 1.05.17l4.39 6.15 4.39-6.15c.24-.34.71-.42 1.05-.17.34.24.42.71.17 1.05l-5 7c-.14.19-.37.31-.61.31Z" fill="#292D32"/></svg>
