<svg width="24" height="24" fill="none" xmlns="http://www.w3.org/2000/svg"><path opacity=".4" d="M11.75 9.43 8.5 15l-.63 1.09-2.47 4.22c-.18.32-.64.33-.84.02l-3.38-5.05a.516.516 0 0 1 0-.56l3.67-5.5c.09-.14.25-.22.42-.22h6.23l.25.43Z" fill="#292D32"/><path d="m22.84 14.73-6.7-11.48a.473.473 0 0 0-.43-.25H8.87c-.39 0-.63.42-.43.75L11.5 9l.25.43 2.81 4.82c.2.33-.04.75-.43.75H8.5l-.63 1.09c.18-.32.64-.33.84-.02l3.14 4.71c.09.14.25.22.42.22h6.46c.17 0 .33-.08.42-.22l3.68-5.52c.1-.16.11-.36.01-.53Z" fill="#292D32"/></svg>
