<svg width="24" height="24" fill="none" xmlns="http://www.w3.org/2000/svg"><path opacity=".4" d="M12 22c5.523 0 10-4.477 10-10S17.523 2 12 2 2 6.477 2 12s4.477 10 10 10Z" fill="#292D32"/><path d="M16.5 9.159v3.83c0 .78-.85 1.26-1.51.86l-2.47-1.48c-.32-.19-.71-.19-1.03 0l-2.47 1.48a.996.996 0 0 1-1.51-.86v-3.83c0-.34.18-.66.46-.84l3.5-2.22c.33-.21.74-.21 1.07 0l3.5 2.22c.28.18.46.5.46.84ZM12 18.058c-.15 0-.29-.04-.42-.13l-2.25-1.5a.755.755 0 0 1-.21-1.04c.23-.35.7-.44 1.04-.21l1.83 1.22 1.83-1.22c.34-.23.81-.14 1.04.21.23.34.14.81-.21 1.04l-2.25 1.5a.62.62 0 0 1-.4.13Z" fill="#292D32"/></svg>
