<svg width="24" height="24" fill="none" xmlns="http://www.w3.org/2000/svg"><path opacity=".4" d="M16.19 2H7.82C4.18 2 2.01 4.17 2.01 7.81v8.37c0 3.64 2.17 5.81 5.81 5.81h8.37c3.64 0 5.81-2.17 5.81-5.81V7.81C22 4.17 19.83 2 16.19 2Z" fill="#292D32"/><path d="M17.96 7.719c-.41 0-.75.34-.75.75v2.78h-1.02c-1.39 0-2.52 1.13-2.52 2.52 0 1.39 1.13 2.52 2.52 2.52h1.77c.41 0 .75-.34.75-.75v-7.06c0-.43-.34-.76-.75-.76Zm-.75 7.06h-1.02c-.56 0-1.02-.46-1.02-1.02s.46-1.02 1.02-1.02h1.02v2.04ZM12.16 7.88a.738.738 0 0 0-1.05.12l-2.24 2.8L6.63 8a.748.748 0 0 0-1.17.93l2.45 3.06-2.45 3.06c-.26.32-.21.8.12 1.05.14.11.3.16.47.16.22 0 .44-.1.59-.28l2.24-2.8 2.24 2.8a.763.763 0 0 0 1.06.12c.32-.26.38-.73.12-1.05l-2.45-3.06 2.45-3.06a.76.76 0 0 0-.14-1.05Z" fill="#292D32"/></svg>
