<svg width="24" height="24" fill="none" xmlns="http://www.w3.org/2000/svg"><path opacity=".4" d="M12 22c5.523 0 10-4.477 10-10S17.523 2 12 2 2 6.477 2 12s4.477 10 10 10Z" fill="#292D32"/><path d="M13.5 15.75c-.41 0-.75-.34-.75-.75v-4c0-.69-.56-1.25-1.25-1.25H8.25V15c0 .41-.34.75-.75.75s-.75-.34-.75-.75V9c0-.41.34-.75.75-.75h4c1.52 0 2.75 1.23 2.75 2.75v4c0 .41-.34.75-.75.75Z" fill="#292D32"/><path d="M10.5 15.75c-.41 0-.75-.34-.75-.75v-3c0-.41.34-.75.75-.75s.75.34.75.75v3c0 .41-.34.75-.75.75ZM16.5 15.75c-.41 0-.75-.34-.75-.75V9c0-.41.34-.75.75-.75s.75.34.75.75v6c0 .41-.34.75-.75.75Z" fill="#292D32"/></svg>
