<svg width="24" height="24" fill="none" xmlns="http://www.w3.org/2000/svg"><path d="M17 8.722c-.19 0-.38-.07-.53-.22l-2-2a.754.754 0 0 1 0-1.06c.29-.29.77-.29 1.06 0L17 6.912l3.47-3.46c.29-.29.77-.29 1.06 0 .29.29.29.77 0 1.06l-4 4c-.15.13-.34.21-.53.21Z" fill="#292D32"/><path opacity=".4" d="m11.79 14.21-3.27 3.27c-.36-.32-.71-.65-1.05-.99a28.414 28.414 0 0 1-2.79-3.27c-.82-1.14-1.48-2.28-1.96-3.41C2.24 8.67 2 7.58 2 6.54c0-.68.12-1.33.36-1.93.24-.61.62-1.17 1.15-1.67C4.15 2.31 4.85 2 5.59 2c.28 0 .56.06.81.18.26.12.49.3.67.56l2.32 3.27c.18.25.31.48.4.7.09.21.14.42.14.61 0 .24-.07.48-.21.71-.13.23-.32.47-.56.71l-.76.79c-.11.11-.16.24-.16.4 0 .08.01.15.03.23.03.08.06.14.08.2.18.33.49.76.93 1.28.45.52.93 1.05 1.45 1.58.36.35.71.69 1.06.99Z" fill="#292D32"/><path d="M21.97 18.33a2.54 2.54 0 0 1-.25 1.09c-.17.36-.39.7-.68 1.02-.49.54-1.03.93-1.64 1.18-.01 0-.02.01-.03.01-.59.24-1.23.37-1.92.37-1.02 0-2.11-.24-3.26-.73s-2.3-1.15-3.44-1.98c-.39-.29-.78-.58-1.15-.89l3.27-3.27c.28.21.53.37.74.48.05.02.11.05.18.08.08.03.16.04.25.04.17 0 .3-.06.41-.17l.76-.75c.25-.25.49-.44.72-.56.23-.14.46-.21.71-.21.19 0 .39.04.61.13.22.09.45.22.7.39l3.31 2.35c.26.18.44.39.55.64.1.25.16.5.16.78Z" fill="#292D32"/></svg>