<svg width="24" height="24" fill="none" xmlns="http://www.w3.org/2000/svg"><path d="M22 5.15v3.7c0 2.25-.9 3.15-3.15 3.15h-2.7C13.9 12 13 11.1 13 8.85v-3.7C13 2.9 13.9 2 16.15 2h2.7C21.1 2 22 2.9 22 5.15ZM11 15.15v3.7C11 21.1 10.1 22 7.85 22h-2.7C2.9 22 2 21.1 2 18.85v-3.7C2 12.9 2.9 12 5.15 12h2.7c2.25 0 3.15.9 3.15 3.15ZM14.78 22a.752.752 0 0 1-.64-1.14l.97-1.62c.21-.36.67-.47 1.03-.26.36.21.47.67.26 1.03l-.18.3a5.728 5.728 0 0 0 4.29-5.54c0-.41.34-.75.75-.75s.74.34.74.76c0 3.98-3.24 7.22-7.22 7.22ZM2.75 9.97c-.41 0-.75-.33-.75-.75C2 5.24 5.24 2 9.22 2c.28 0 .52.15.66.38.13.24.13.52-.01.76L8.9 4.75c-.22.36-.68.48-1.03.26a.749.749 0 0 1-.26-1.03l.18-.3C5.33 4.32 3.5 6.56 3.5 9.22c0 .42-.34.75-.75.75Z" fill="#292D32"/></svg>