<svg width="24" height="24" fill="none" xmlns="http://www.w3.org/2000/svg"><path d="M21.5 10.9V4.1c0-1.5-.64-2.1-2.23-2.1h-4.04C13.64 2 13 2.6 13 4.1v6.8c0 1.5.64 2.1 2.23 2.1h4.04c1.59 0 2.23-.6 2.23-2.1ZM11 13.1v6.8c0 1.5-.64 2.1-2.23 2.1H4.73c-1.59 0-2.23-.6-2.23-2.1v-6.8c0-1.5.64-2.1 2.23-2.1h4.04c1.59 0 2.23.6 2.23 2.1ZM21.5 19.9v-2.8c0-1.5-.64-2.1-2.23-2.1h-4.04c-1.59 0-2.23.6-2.23 2.1v2.8c0 1.5.64 2.1 2.23 2.1h4.04c1.59 0 2.23-.6 2.23-2.1ZM11 6.9V4.1C11 2.6 10.36 2 8.77 2H4.73C3.14 2 2.5 2.6 2.5 4.1v2.8c0 1.5.64 2.1 2.23 2.1h4.04C10.36 9 11 8.4 11 6.9Z" fill="#292D32"/></svg>