<svg width="24" height="24" fill="none" xmlns="http://www.w3.org/2000/svg"><path d="M21.1 7.87c.58-.64.9-1.47.9-2.34A3.53 3.53 0 0 0 18.47 2c-.87 0-1.69.32-2.33.9A9.73 9.73 0 0 0 12 2c-1.43 0-2.85.31-4.13.9C7.23 2.32 6.4 2 5.53 2A3.53 3.53 0 0 0 2 5.53c0 .87.32 1.7.9 2.34C2.31 9.15 2 10.57 2 12c0 1.46.3 2.85.9 4.14-.58.64-.9 1.46-.9 2.33A3.53 3.53 0 0 0 5.53 22c.87 0 1.7-.32 2.34-.9 1.28.59 2.7.9 4.13.9 1.46 0 2.85-.3 4.14-.9.64.58 1.46.9 2.33.9A3.53 3.53 0 0 0 22 18.47c0-.87-.32-1.69-.9-2.33.6-1.29.9-2.68.9-4.14 0-1.43-.31-2.85-.9-4.13Zm-1.42 7.3c-.11-.04-.22-.08-.33-.11-.17-.04-.35-.07-.52-.09-.12-.01-.24-.02-.36-.02-1.94 0-3.52 1.58-3.52 3.52 0 .12.01.24.02.36.02.17.05.35.09.52.03.11.07.22.11.33 0 .03.01.06.03.09l.03.09c-2.01.84-4.41.85-6.46 0l.03-.09c.02-.03.03-.06.03-.09.04-.11.08-.22.11-.33.04-.17.07-.35.09-.52.01-.12.02-.24.02-.36 0-1.94-1.58-3.52-3.52-3.52-.12 0-.24.01-.36.02-.17.02-.35.05-.52.09-.11.03-.22.07-.33.11-.03 0-.06.01-.09.03l-.09.03c-.43-1.01-.64-2.1-.64-3.23 0-1.11.22-2.22.64-3.23.01 0 .03.01.04.01a3.464 3.464 0 0 1-.83-.48c.3.23.62.41.97.53.12.05.25.09.37.12.08.02.15.03.22.04.09.02.17.03.26.04.12.01.24.02.36.02 1.94 0 3.52-1.58 3.52-3.52 0-.12-.01-.24-.02-.36-.01-.09-.02-.17-.04-.26-.01-.07-.02-.14-.04-.22-.03-.12-.07-.25-.12-.37a3.402 3.402 0 0 0-.05-.14c0-.01-.01-.03-.01-.04 2.04-.85 4.45-.84 6.46 0l-.03.09c-.02.03-.03.06-.03.09-.04.11-.08.22-.11.33-.04.17-.07.35-.09.52-.01.12-.02.24-.02.36 0 1.94 1.58 3.52 3.52 3.52.12 0 .24-.01.36-.02.17-.02.35-.05.52-.09.11-.03.22-.07.33-.11.03 0 .06-.01.09-.03l.09-.03c.42 1.01.64 2.12.64 3.23 0 1.13-.21 2.22-.64 3.23l-.09-.03a.161.161 0 0 0-.09-.03Z" fill="#292D32"/></svg>