<svg width="24" height="24" fill="none" xmlns="http://www.w3.org/2000/svg"><path d="M21.53 17.31v-.16c0-1.93-.98-2.9-2.9-2.9s-2.9.98-2.9 2.9v.16c-1.05.26-1.47.98-1.47 2.42v.74c0 1.85.69 2.53 2.53 2.53h3.68c1.85 0 2.53-.69 2.53-2.53v-.74c0-1.43-.42-2.16-1.47-2.42Zm-2.91-1.68c1.29 0 1.52.49 1.52 1.52v.05H17.1v-.05c0-1.03.23-1.52 1.52-1.52ZM6.747 2.065c.55-.07 1.003.386 1.003.94V6.8a1 1 0 0 1-1 1H3c-.552 0-1.008-.45-.941-.998.327-2.687 2.013-4.39 4.688-4.737ZM20.93 7.8h-3.68a1 1 0 0 1-1-1V3.006c0-.554.454-1.011 1.004-.94 2.634.344 4.31 2.002 4.676 4.614.08.59-.4 1.12-1 1.12ZM6.75 16.3a1 1 0 0 1 1 1v3.62c0 .6-.53 1.08-1.13 1-2.57-.382-4.19-2.028-4.546-4.61-.076-.551.381-1.01.939-1.01H6.75ZM7.75 10.3a1 1 0 0 0-1-1H3a1 1 0 0 0-1 1v3.5a1 1 0 0 0 1 1h3.75a1 1 0 0 0 1-1v-3.5ZM14.75 10.3a1 1 0 0 0-1-1h-3.5a1 1 0 0 0-1 1v3.5a1 1 0 0 0 1 1h3.5c.55 0 1-.45 1-1v-3.5ZM14.75 3a1 1 0 0 0-1-1h-3.5a1 1 0 0 0-1 1v3.8a1 1 0 0 0 1 1h3.5a1 1 0 0 0 1-1V3Z" fill="#292D32"/></svg>