<svg width="24" height="24" fill="none" xmlns="http://www.w3.org/2000/svg"><path d="M21.33 14.67c-1.05-1.05-1.88-.71-2.6 0l-4.15 4.15c-.16.16-.31.47-.35.69L14 21.1c-.08.57.32.98.89.89l1.59-.23c.22-.03.53-.19.69-.35l4.15-4.15c.73-.71 1.06-1.54.01-2.59ZM6.747 2.065c.55-.07 1.003.386 1.003.94V6.8a1 1 0 0 1-1 1H3c-.552 0-1.008-.45-.941-.998.327-2.687 2.013-4.39 4.688-4.737ZM20.93 7.8h-3.68a1 1 0 0 1-1-1V3.006c0-.554.454-1.011 1.004-.94 2.634.344 4.31 2.002 4.676 4.614.08.59-.4 1.12-1 1.12ZM6.75 16.3a1 1 0 0 1 1 1v3.62c0 .6-.53 1.08-1.13 1-2.57-.382-4.19-2.028-4.546-4.61-.076-.551.381-1.01.939-1.01H6.75ZM7.75 10.3a1 1 0 0 0-1-1H3a1 1 0 0 0-1 1v3.5a1 1 0 0 0 1 1h3.75a1 1 0 0 0 1-1v-3.5ZM14.75 10.3a1 1 0 0 0-1-1h-3.5a1 1 0 0 0-1 1v3.5a1 1 0 0 0 1 1h3.5c.55 0 1-.45 1-1v-3.5ZM14.75 3a1 1 0 0 0-1-1h-3.5a1 1 0 0 0-1 1v3.8a1 1 0 0 0 1 1h3.5a1 1 0 0 0 1-1V3Z" fill="#292D32"/></svg>