<svg width="24" height="24" fill="none" xmlns="http://www.w3.org/2000/svg"><path d="M16.19 2H7.81C4.17 2 2 4.17 2 7.81v8.37C2 19.83 4.17 22 7.81 22h8.37c3.64 0 5.81-2.17 5.81-5.81V7.81C22 4.17 19.83 2 16.19 2Zm2.56 8c0 .41-.34.75-.75.75s-.75-.34-.75-.75V7.81l-9.44 9.44H10c.41 0 .75.34.75.75s-.34.75-.75.75H6c-.1 0-.2-.02-.29-.06a.782.782 0 0 1-.41-.41.868.868 0 0 1-.05-.28v-4c0-.41.34-.75.75-.75s.75.34.75.75v2.19l9.44-9.44H14c-.41 0-.75-.34-.75-.75s.34-.75.75-.75h4c.1 0 .19.02.29.06.18.08.33.22.41.41.03.09.05.18.05.28v4Z" fill="#292D32"/></svg>