<?xml version="1.0" standalone="no"?>
<!DOCTYPE svg PUBLIC "-//W3C//DTD SVG 20010904//EN"
 "http://www.w3.org/TR/2001/REC-SVG-20010904/DTD/svg10.dtd">
<svg version="1.0" xmlns="http://www.w3.org/2000/svg"
 width="120.000000pt" height="120.000000pt" viewBox="0 0 120.000000 120.000000"
 preserveAspectRatio="xMidYMid meet">
<metadata>
Created by potrace 1.14, written by Peter Selinger 2001-2017
</metadata>
<g transform="translate(0.000000,120.000000) scale(0.100000,-0.100000)"
fill="#000000" stroke="none">
<path d="M831 1178 c-42 -11 -51 -33 -90 -224 -39 -185 -44 -203 -55 -206 -8
-3 -37 81 -51 147 -3 11 -14 58 -26 105 -11 47 -22 93 -24 102 -15 75 -103
102 -141 43 -15 -24 -17 -98 -2 -125 8 -15 37 -155 41 -195 2 -16 -5 -20 -38
-22 -30 -3 -47 -11 -68 -35 -24 -28 -29 -29 -45 -16 -22 19 -69 14 -102 -10
-25 -19 -25 -20 -24 -168 1 -269 25 -367 114 -452 74 -71 143 -93 285 -88 130
4 209 60 272 192 52 110 58 199 17 261 -30 47 -36 238 -10 359 2 12 7 39 10
60 6 41 12 72 22 114 11 46 13 120 3 120 -5 0 -9 6 -9 13 0 20 -43 34 -79 25z"/>
</g>
</svg>
