<svg width="24" height="24" fill="none" xmlns="http://www.w3.org/2000/svg"><path opacity=".4" d="M9 13c-.66.33-1.21.82-1.62 1.43-.23.35-.23.79 0 1.14.41.61.96 1.1 1.62 1.43M15.21 13c.66.33 1.21.82 1.62 1.43.23.35.23.79 0 1.14-.41.61-.96 1.1-1.62 1.43" stroke="#292D32" stroke-width="1.5" stroke-linecap="round" stroke-linejoin="round"/><path d="M9 22h6c5 0 7-2 7-7V9c0-5-2-7-7-7H9C4 2 2 4 2 9v6c0 5 2 7 7 7Z" stroke="#292D32" stroke-width="1.5" stroke-linecap="round" stroke-linejoin="round"/><path opacity=".4" d="M2.23 8.01 21.45 8" stroke="#292D32" stroke-width="1.5" stroke-linecap="round" stroke-linejoin="round"/></svg>