<svg width="24" height="24" fill="none" xmlns="http://www.w3.org/2000/svg"><g opacity=".4" stroke="#292D32" stroke-width="1.5" stroke-linecap="round" stroke-linejoin="round"><path d="M14.4 9.602H9.6v4.8h4.8v-4.8ZM7.8 17.998c.99 0 1.8-.81 1.8-1.8v-1.8H7.8c-.99 0-1.8.81-1.8 1.8s.81 1.8 1.8 1.8ZM7.8 9.6h1.8V7.8c0-.99-.81-1.8-1.8-1.8S6 6.81 6 7.8s.81 1.8 1.8 1.8ZM14.4 9.6h1.8c.99 0 1.8-.81 1.8-1.8S17.19 6 16.2 6s-1.8.81-1.8 1.8v1.8Z"/><path d="M16.2 17.998c.99 0 1.8-.81 1.8-1.8s-.81-1.8-1.8-1.8h-1.8v1.8c0 .99.81 1.8 1.8 1.8Z"/></g><path d="M9 22h6c5 0 7-2 7-7V9c0-5-2-7-7-7H9C4 2 2 4 2 9v6c0 5 2 7 7 7Z" stroke="#292D32" stroke-width="1.5" stroke-linecap="round" stroke-linejoin="round"/></svg>