<svg width="24" height="24" fill="none" xmlns="http://www.w3.org/2000/svg"><path d="M16 8H8v8h8V8ZM5 22c1.65 0 3-1.35 3-3v-3H5c-1.65 0-3 1.35-3 3s1.35 3 3 3Z" stroke="#292D32" stroke-width="1.5" stroke-linecap="round" stroke-linejoin="round"/><path opacity=".4" d="M5 8h3V5c0-1.65-1.35-3-3-3S2 3.35 2 5s1.35 3 3 3Z" stroke="#292D32" stroke-width="1.5" stroke-linecap="round" stroke-linejoin="round"/><path d="M16 8h3c1.65 0 3-1.35 3-3s-1.35-3-3-3-3 1.35-3 3v3Z" stroke="#292D32" stroke-width="1.5" stroke-linecap="round" stroke-linejoin="round"/><path opacity=".4" d="M19 22c1.65 0 3-1.35 3-3s-1.35-3-3-3h-3v3c0 1.65 1.35 3 3 3Z" stroke="#292D32" stroke-width="1.5" stroke-linecap="round" stroke-linejoin="round"/></svg>