<svg width="24" height="24" fill="none" xmlns="http://www.w3.org/2000/svg"><g opacity=".4" stroke="#292D32" stroke-width="1.5" stroke-linecap="round" stroke-linejoin="round"><path d="M7.8 10.2v4.2M7.95 9.9a1.95 1.95 0 1 0 0-3.9 1.95 1.95 0 0 0 0 3.9ZM7.8 17.998a1.8 1.8 0 1 0 0-3.6 1.8 1.8 0 0 0 0 3.6ZM16.2 17.998a1.8 1.8 0 1 0 0-3.6 1.8 1.8 0 0 0 0 3.6Z"/><path d="M7.879 10.2a2.425 2.425 0 0 0 2.36 1.82l2.06-.01c1.57-.01 2.91 1 3.4 2.41"/></g><path d="M9 22h6c5 0 7-2 7-7V9c0-5-2-7-7-7H9C4 2 2 4 2 9v6c0 5 2 7 7 7Z" stroke="#292D32" stroke-width="1.5" stroke-linecap="round" stroke-linejoin="round"/></svg>