<svg width="24" height="24" fill="none" xmlns="http://www.w3.org/2000/svg"><path d="m12.92 2.26 6.51 3.51c.76.41.76 1.58 0 1.99l-6.51 3.51c-.58.31-1.26.31-1.84 0L4.57 7.76c-.76-.41-.76-1.58 0-1.99l6.51-3.51c.58-.31 1.26-.31 1.84 0ZM3.61 10.13l6.05 3.03c.75.38 1.23 1.15 1.23 1.99v5.72c0 .83-.87 1.36-1.61.99l-6.05-3.03A2.238 2.238 0 0 1 2 16.84v-5.72c0-.83.87-1.36 1.61-.99ZM20.39 10.13l-6.05 3.03c-.75.38-1.23 1.15-1.23 1.99v5.72c0 .83.87 1.36 1.61.99l6.05-3.03c.75-.38 1.23-1.15 1.23-1.99v-5.72c0-.83-.87-1.36-1.61-.99Z" stroke="#292D32" stroke-width="1.5" stroke-linecap="round" stroke-linejoin="round"/></svg>