<svg width="24" height="24" fill="none" xmlns="http://www.w3.org/2000/svg"><path d="M10 17.5h4M2 17.5v-10c0-4 1-5 5-5M22 17.5v-10c0-4-1-5-5-5" stroke="#292D32" stroke-width="1.5" stroke-linecap="round" stroke-linejoin="round"/><path d="M10 15.91v3.29c0 2-.8 2.8-2.8 2.8H4.8c-2 0-2.8-.8-2.8-2.8v-3.29c0-2 .8-2.8 2.8-2.8h2.4c2 0 2.8.8 2.8 2.8ZM22 15.91v3.29c0 2-.8 2.8-2.8 2.8h-2.4c-2 0-2.8-.8-2.8-2.8v-3.29c0-2 .8-2.8 2.8-2.8h2.4c2 0 2.8.8 2.8 2.8Z" stroke="#292D32" stroke-width="1.5" stroke-linecap="round" stroke-linejoin="round"/></svg>