<svg width="24" height="24" fill="none" xmlns="http://www.w3.org/2000/svg"><path d="M8.61 19.748c-1.46 0-2.64-1.18-2.64-2.64v-6.81h-.2c-2.5 0-4.53-2.03-4.53-4.53 0-2.5 2.03-4.53 4.53-4.53h1.89c1.98 0 3.58 1.61 3.58 3.58v12.28a2.625 2.625 0 0 1-2.63 2.65Zm-2.83-17c-1.67 0-3.03 1.36-3.03 3.03 0 1.67 1.36 3.03 3.03 3.03h.95c.41 0 .75.34.75.75v7.56a1.14 1.14 0 1 0 2.28 0V4.838c0-1.15-.93-2.08-2.08-2.08h-1.9v-.01Z" fill="#292D32"/><path d="M5.78 7.468c-.93 0-1.69-.76-1.69-1.7s.76-1.69 1.69-1.69c.41 0 .75.34.75.75s-.34.75-.75.75a.19.19 0 0 0-.19.19c0 .1.09.2.19.2.41 0 .75.34.75.75s-.34.75-.75.75ZM15.39 19.75c-1.46 0-2.64-1.18-2.64-2.64V4.83c0-1.98 1.61-3.58 3.58-3.58h1.89c2.5 0 4.53 2.03 4.53 4.53 0 2.5-2.03 4.53-4.53 4.53h-.2v6.81c.01 1.45-1.18 2.63-2.63 2.63Zm.94-17c-1.15 0-2.08.93-2.08 2.08v12.28a1.14 1.14 0 1 0 2.28 0V9.55c0-.41.34-.75.75-.75h.95c1.67 0 3.03-1.36 3.03-3.03 0-1.67-1.36-3.03-3.03-3.03h-1.9v.01Z" fill="#292D32"/><path d="M18.219 7.468c-.41 0-.75-.34-.75-.75s.34-.75.75-.75c.11 0 .19-.09.19-.2a.19.19 0 0 0-.19-.19c-.41 0-.75-.34-.75-.75s.34-.75.75-.75a1.694 1.694 0 0 1 0 3.39ZM8.5 22.75c-.41 0-.75-.34-.75-.75v-3c0-.41.34-.75.75-.75s.75.34.75.75v3c0 .41-.34.75-.75.75ZM15.5 22.75c-.41 0-.75-.34-.75-.75v-3c0-.41.34-.75.75-.75s.75.34.75.75v3c0 .41-.34.75-.75.75Z" fill="#292D32"/></svg>