<svg width="24" height="24" fill="none" xmlns="http://www.w3.org/2000/svg"><path d="M12.6 18.109c-.22 0-.39-.06-.49-.1-.22-.1-.72-.43-.72-1.34v-2.67l-2.3 2.11c-.3.28-.78.26-1.06-.05a.746.746 0 0 1 .05-1.06l3.28-3.01-3.28-3.01a.746.746 0 0 1-.05-1.06c.28-.3.76-.33 1.06-.05l2.3 2.11v-2.66c0-.9.5-1.23.72-1.34.21-.1.79-.27 1.49.3l2.06 1.72c.3.25.48.62.49 1 .01.38-.15.76-.44 1.02l-2.13 1.95 2.13 1.95c.29.27.45.64.44 1.02-.01.38-.19.75-.49 1l-2.06 1.72c-.38.36-.73.45-1 .45Zm.3-4.7v2.92l1.67-1.39-1.67-1.53Zm0-5.74v2.92l1.67-1.53-1.67-1.39Z" fill="#292D32"/><path d="M12 22.75C6.07 22.75 1.25 17.93 1.25 12S6.07 1.25 12 1.25 22.75 6.07 22.75 12 17.93 22.75 12 22.75Zm0-20C6.9 2.75 2.75 6.9 2.75 12S6.9 21.25 12 21.25s9.25-4.15 9.25-9.25S17.1 2.75 12 2.75Z" fill="#292D32"/></svg>