<svg width="24" height="24" fill="none" xmlns="http://www.w3.org/2000/svg"><path d="M12.6 18.109c-.22 0-.39-.06-.49-.1-.22-.1-.72-.43-.72-1.34v-2.67l-2.3 2.11c-.3.28-.78.26-1.06-.05a.746.746 0 0 1 .05-1.06l3.28-3.01-3.28-3.01a.746.746 0 0 1-.05-1.06c.28-.3.76-.33 1.06-.05l2.3 2.11v-2.66c0-.9.5-1.23.72-1.34.21-.1.79-.27 1.49.3l2.06 1.72c.3.25.48.62.49 1 .01.38-.15.76-.44 1.02l-2.13 1.95 2.13 1.95c.29.27.45.64.44 1.02-.01.38-.19.75-.49 1l-2.06 1.72c-.38.36-.73.45-1 .45Zm.3-4.7v2.92l1.67-1.39-1.67-1.53Zm0-5.74v2.92l1.67-1.53-1.67-1.39Z" fill="#292D32"/><path d="M15 22.75H9c-3.44 0-5.75-2.31-5.75-5.75V7c0-3.44 2.31-5.75 5.75-5.75h6c3.44 0 5.75 2.31 5.75 5.75v10c0 3.44-2.31 5.75-5.75 5.75Zm-6-20C6.42 2.75 4.75 4.42 4.75 7v10c0 2.58 1.67 4.25 4.25 4.25h6c2.58 0 4.25-1.67 4.25-4.25V7c0-2.58-1.67-4.25-4.25-4.25H9Z" fill="#292D32"/></svg>