<svg width="24" height="24" fill="none" xmlns="http://www.w3.org/2000/svg"><path d="M12.13 22.75c-.27 0-.48-.07-.63-.14-.36-.17-.97-.64-.97-1.9v-6.45L5.14 19.2c-.3.28-.78.26-1.06-.05a.746.746 0 0 1 .05-1.06l6.4-5.87v-.45L4.13 5.9a.746.746 0 0 1-.05-1.06c.28-.3.76-.33 1.06-.05l5.39 4.94V3.28c0-1.26.61-1.74.97-1.9.36-.17 1.11-.33 2.08.48l3.85 3.21c.42.35.67.85.68 1.38.01.53-.21 1.04-.62 1.41l-4.5 4.13 4.5 4.13c.4.37.63.89.62 1.41-.01.53-.26 1.03-.68 1.38l-3.85 3.21c-.57.49-1.07.63-1.45.63Zm-.1-9.6v7.56c0 .37.08.53.12.55.01-.01.19-.05.47-.28l3.85-3.21c.09-.08.14-.17.14-.27s-.04-.19-.13-.27l-4.45-4.08Zm.09-10.4c-.01.01-.09.18-.09.54v7.56l4.45-4.08a.35.35 0 0 0 .13-.27c0-.1-.05-.19-.14-.27l-3.86-3.21c-.26-.22-.43-.27-.49-.27Z" fill="#292D32"/><path d="M5 13.75c-.96 0-1.75-.79-1.75-1.75s.79-1.75 1.75-1.75 1.75.79 1.75 1.75-.79 1.75-1.75 1.75Zm0-2c-.14 0-.25.11-.25.25 0 .28.5.28.5 0 0-.14-.11-.25-.25-.25ZM19 13.75c-.96 0-1.75-.79-1.75-1.75s.79-1.75 1.75-1.75 1.75.79 1.75 1.75-.79 1.75-1.75 1.75Zm0-2c-.14 0-.25.11-.25.25 0 .28.5.28.5 0 0-.14-.11-.25-.25-.25Z" fill="#292D32"/></svg>