<svg width="24" height="24" fill="none" xmlns="http://www.w3.org/2000/svg"><path d="M19.32 10.752H4.69c-1.89 0-3.43-1.54-3.43-3.43v-2.63c0-1.89 1.54-3.43 3.43-3.43h14.63c1.89 0 3.43 1.54 3.43 3.43v2.63c0 1.89-1.54 3.43-3.43 3.43Zm-14.64-8c-1.07 0-1.93.87-1.93 1.93v2.63c0 1.07.87 1.93 1.93 1.93h14.63c1.07 0 1.93-.87 1.93-1.93v-2.63c0-1.07-.87-1.93-1.93-1.93H4.68ZM19.32 22.752H4.69c-1.89 0-3.43-1.54-3.43-3.43v-2.63c0-1.89 1.54-3.43 3.43-3.43h14.63c1.89 0 3.43 1.54 3.43 3.43v2.63c0 1.89-1.54 3.43-3.43 3.43Zm-14.64-8c-1.07 0-1.93.87-1.93 1.93v2.63c0 1.07.87 1.93 1.93 1.93h14.63c1.07 0 1.93-.87 1.93-1.93v-2.63c0-1.07-.87-1.93-1.93-1.93H4.68Z" fill="#292D32"/><path d="M6 7.75c-.41 0-.75-.34-.75-.75V5c0-.41.34-.75.75-.75s.75.34.75.75v2c0 .41-.34.75-.75.75ZM10 7.75c-.41 0-.75-.34-.75-.75V5c0-.41.34-.75.75-.75s.75.34.75.75v2c0 .41-.34.75-.75.75ZM6 19.75c-.41 0-.75-.34-.75-.75v-2c0-.41.34-.75.75-.75s.75.34.75.75v2c0 .41-.34.75-.75.75ZM10 19.75c-.41 0-.75-.34-.75-.75v-2c0-.41.34-.75.75-.75s.75.34.75.75v2c0 .41-.34.75-.75.75ZM18 6.75h-4c-.41 0-.75-.34-.75-.75s.34-.75.75-.75h4c.41 0 .75.34.75.75s-.34.75-.75.75ZM18 18.75h-4c-.41 0-.75-.34-.75-.75s.34-.75.75-.75h4c.41 0 .75.34.75.75s-.34.75-.75.75Z" fill="#292D32"/></svg>