<svg width="24" height="24" fill="none" xmlns="http://www.w3.org/2000/svg"><path d="M12 19.75c-.41 0-.75-.34-.75-.75v-3c0-.41.34-.75.75-.75s.75.34.75.75v3c0 .41-.34.75-.75.75Z" fill="#292D32"/><path d="M12 23.75c-1.52 0-2.75-1.23-2.75-2.75s1.23-2.75 2.75-2.75 2.75 1.23 2.75 2.75-1.23 2.75-2.75 2.75Zm0-4a1.25 1.25 0 1 0 0 2.5 1.25 1.25 0 0 0 0-2.5Z" fill="#292D32"/><path d="M18 21.75h-4c-.41 0-.75-.34-.75-.75s.34-.75.75-.75h4c.41 0 .75.34.75.75s-.34.75-.75.75ZM10 21.75H6c-.41 0-.75-.34-.75-.75s.34-.75.75-.75h4c.41 0 .75.34.75.75s-.34.75-.75.75ZM15.5 16.75h-7c-3.22 0-4.25-1.03-4.25-4.25v-7c0-3.22 1.03-4.25 4.25-4.25h1.05c1.33 0 1.76.45 2.28 1.14l1.05 1.4c.2.26.2.26.52.26h2.1c3.22 0 4.25 1.03 4.25 4.25v4.2c0 3.22-1.03 4.25-4.25 4.25Zm-7-14c-2.39 0-2.75.36-2.75 2.75v7c0 2.39.36 2.75 2.75 2.75h7c2.39 0 2.75-.36 2.75-2.75V8.3c0-2.39-.36-2.75-2.75-2.75h-2.1c-.99 0-1.35-.37-1.71-.85l-1.06-1.41c-.35-.47-.4-.54-1.08-.54H8.5Z" fill="#292D32"/></svg>