<svg width="24" height="24" fill="none" xmlns="http://www.w3.org/2000/svg"><path d="M16 22.75H8c-3.65 0-5.75-2.1-5.75-5.75V7c0-3.65 2.1-5.75 5.75-5.75h8c3.65 0 5.75 2.1 5.75 5.75v10c0 3.65-2.1 5.75-5.75 5.75Zm-8-20C5.14 2.75 3.75 4.14 3.75 7v10c0 2.86 1.39 4.25 4.25 4.25h8c2.86 0 4.25-1.39 4.25-4.25V7c0-2.86-1.39-4.25-4.25-4.25H8Z" fill="#292D32"/><path d="M16.25 11.75h-8.5a2.5 2.5 0 0 1-2.5-2.5v-2.5a2.5 2.5 0 0 1 2.5-2.5h8.5a2.5 2.5 0 0 1 2.5 2.5v2.5a2.5 2.5 0 0 1-2.5 2.5Zm-8.5-6c-.55 0-1 .45-1 1v2.5c0 .55.45 1 1 1h8.5c.55 0 1-.45 1-1v-2.5c0-.55-.45-1-1-1h-8.5ZM8 18.329c-.19 0-.38-.07-.53-.22a.754.754 0 0 1 0-1.06l2.3-2.3c.29-.29.77-.29 1.06 0 .29.29.29.77 0 1.06l-2.3 2.3c-.15.15-.34.22-.53.22Z" fill="#292D32"/><path d="M10.329 18.36c-.19 0-.38-.07-.53-.22l-2.3-2.3a.754.754 0 0 1 0-1.06c.29-.29.77-.29 1.06 0l2.3 2.3c.29.29.29.77 0 1.06-.15.15-.34.22-.53.22ZM16.51 16.328c-.55 0-1.01-.45-1.01-1s.44-1 .99-1h.02c.55 0 1 .45 1 1s-.45 1-1 1ZM14.49 18.49c-.55 0-1-.44-1-.99v-.02c0-.55.45-1 1-1s1 .45 1 1-.45 1.01-1 1.01Z" fill="#292D32"/></svg>