<svg width="24" height="24" fill="none" xmlns="http://www.w3.org/2000/svg"><path d="M6.52 16.258c-.19 0-.38-.07-.53-.22a.754.754 0 0 1 0-1.06l3.05-3.05c.29-.29.77-.29 1.06 0 .29.29.29.77 0 1.06l-3.05 3.05c-.15.14-.34.22-.53.22Z" fill="#292D32"/><path d="M9.6 16.29c-.19 0-.38-.07-.53-.22l-3.05-3.05a.754.754 0 0 1 0-1.06c.29-.29.77-.29 1.06 0l3.05 3.05c.29.29.29.77 0 1.06-.15.15-.34.22-.53.22ZM13.54 15c-.55 0-1.01-.45-1.01-1s.44-1 .99-1h.02c.55 0 1 .45 1 1s-.44 1-1 1ZM17.48 15c-.55 0-1.01-.45-1.01-1s.44-1 .99-1h.02c.55 0 1 .45 1 1s-.45 1-1 1ZM15.5 16.97c-.55 0-1-.44-1-.99v-.02c0-.55.45-1 1-1s1 .45 1 1-.44 1.01-1 1.01ZM15.5 13.03c-.55 0-1-.44-1-.99v-.02c0-.55.45-1 1-1s1 .45 1 1-.44 1.01-1 1.01Z" fill="#292D32"/><path d="M15 22.75H9c-5.43 0-7.75-2.32-7.75-7.75v-2c0-5.43 2.32-7.75 7.75-7.75h6c5.43 0 7.75 2.32 7.75 7.75v2c0 5.43-2.32 7.75-7.75 7.75Zm-6-16c-4.61 0-6.25 1.64-6.25 6.25v2c0 4.61 1.64 6.25 6.25 6.25h6c4.61 0 6.25-1.64 6.25-6.25v-2c0-4.61-1.64-6.25-6.25-6.25H9Z" fill="#292D32"/><path d="M12.99 6.75h-1c-.96 0-1.75-.79-1.75-1.75s.78-1.75 1.74-1.75c.16 0 .27-.11.28-.25l.01-1.01c.01-.41.34-.74.75-.74h.01c.41.01.75.35.74.76l-.01 1.01c-.01.95-.8 1.73-1.75 1.73-.16 0-.26.11-.26.25s.11.25.25.25h1c.41 0 .75.34.75.75s-.35.75-.76.75Z" fill="#292D32"/></svg>