<svg width="24" height="24" fill="none" xmlns="http://www.w3.org/2000/svg"><path d="M5.57 22.7c-2.34 0-4.32-1.98-4.32-4.32v-6.16C1.2 9.3 2.28 6.55 4.3 4.49a10.65 10.65 0 0 1 7.65-3.19c5.96 0 10.8 4.85 10.8 10.8v6.16c0 2.38-1.94 4.32-4.32 4.32-2.34 0-4.32-1.98-4.32-4.32v-2.81c0-1.45 1.14-2.59 2.59-2.59s2.59 1.14 2.59 2.59v3.03c0 .41-.34.75-.75.75s-.75-.34-.75-.75v-3.03c0-.68-.55-1.09-1.09-1.09-.68 0-1.09.55-1.09 1.09v2.81c0 1.53 1.29 2.82 2.82 2.82 1.53 0 2.82-1.29 2.82-2.82V12.1c0-5.13-4.17-9.3-9.3-9.3-2.51 0-4.84.97-6.58 2.74C3.63 7.31 2.7 9.68 2.75 12.2v6.18c0 1.53 1.29 2.82 2.82 2.82 1.53 0 2.82-1.29 2.82-2.82v-2.81c0-.68-.55-1.09-1.09-1.09-.68 0-1.09.55-1.09 1.09v2.92c0 .41-.34.75-.75.75s-.75-.34-.75-.75v-2.92c0-1.45 1.14-2.59 2.59-2.59s2.59 1.14 2.59 2.59v2.81c0 2.34-1.98 4.32-4.32 4.32Z" fill="#292D32"/></svg>