<svg width="24" height="24" fill="none" xmlns="http://www.w3.org/2000/svg"><path d="M16.5 20.75h-9c-.75 0-1.3-.03-1.77-.1-3.32-.36-3.98-2.35-3.98-5.65V9c0-3.3.66-5.29 4.01-5.66.44-.06.99-.09 1.74-.09h9c.75 0 1.3.03 1.77.1 3.32.36 3.98 2.35 3.98 5.65v6c0 3.3-.66 5.29-4.01 5.66-.44.06-.99.09-1.74.09Zm-9-16c-.68 0-1.16.03-1.55.08-2.03.23-2.7.86-2.7 4.17v6c0 3.31.67 3.94 2.67 4.17.42.06.9.08 1.58.08h9c.68 0 1.16-.03 1.55-.08 2.03-.22 2.7-.86 2.7-4.17V9c0-3.31-.67-3.94-2.67-4.17-.42-.06-.9-.08-1.58-.08h-9Z" fill="#292D32"/><path d="M17 10.75h-3.5c-.41 0-.75-.34-.75-.75s.34-.75.75-.75H17c.41 0 .75.34.75.75s-.34.75-.75.75ZM10.1 11c-.55 0-1-.45-1-1s.44-1 1-1h.01c.55 0 1 .45 1 1s-.45 1-1.01 1ZM7.1 11c-.55 0-1-.45-1-1s.44-1 1-1c.55 0 1 .45 1 1s-.44 1-1 1ZM17 16.25H7.02c-.41 0-.76-.34-.76-.75s.33-.75.74-.75h10c.41 0 .75.34.75.75s-.34.75-.75.75Z" fill="#292D32"/></svg>