<svg width="24" height="24" fill="none" xmlns="http://www.w3.org/2000/svg"><path d="M17 21.75h-1c-.41 0-.75-.34-.75-.75s.34-.75.75-.75h1c2.58 0 4.25-1.67 4.25-4.25V8c0-2.58-1.67-4.25-4.25-4.25H7C4.42 3.75 2.75 5.42 2.75 8v1c0 .41-.34.75-.75.75s-.75-.34-.75-.75V8c0-3.44 2.31-5.75 5.75-5.75h10c3.44 0 5.75 2.31 5.75 5.75v8c0 3.44-2.31 5.75-5.75 5.75Z" fill="#292D32"/><path d="M12.29 21.059c-.37 0-.69-.28-.74-.65-.55-4.28-3.67-7.41-7.96-7.96a.753.753 0 0 1-.65-.84c.05-.41.43-.7.84-.65 4.98.64 8.62 4.27 9.25 9.25.05.41-.24.79-.65.84-.02.01-.06.01-.09.01Z" fill="#292D32"/><path d="M8.929 22.128c-.37 0-.69-.28-.74-.65-.39-3.05-2.62-5.28-5.67-5.67a.753.753 0 0 1-.65-.84c.05-.41.43-.7.84-.65 3.75.48 6.48 3.22 6.96 6.96.05.41-.24.79-.65.84-.03.01-.06.01-.09.01ZM5.13 22.769c-.37 0-.69-.28-.74-.65-.17-1.35-1.16-2.34-2.51-2.51a.753.753 0 0 1-.65-.84c.05-.41.43-.7.84-.65 2.02.26 3.55 1.79 3.81 3.81.05.41-.24.79-.65.84h-.1Z" fill="#292D32"/></svg>