<svg width="24" height="24" fill="none" xmlns="http://www.w3.org/2000/svg"><path d="M17.56 17.97H6.44c-3.98 0-5.19-1.21-5.19-5.19V6.44c0-3.98 1.21-5.19 5.19-5.19H8c.41 0 .75.34.75.75s-.34.75-.75.75H6.44c-3.14 0-3.69.55-3.69 3.69v6.33c0 3.14.55 3.69 3.69 3.69h11.11c3.14 0 3.69-.55 3.69-3.69v-.89c0-.41.34-.75.75-.75s.75.34.75.75v.89c.01 3.99-1.2 5.2-5.18 5.2Z" fill="#292D32"/><path d="M12 22.749c-.41 0-.75-.34-.75-.75v-4.78c0-.41.34-.75.75-.75s.75.34.75.75v4.78c0 .41-.34.75-.75.75ZM22 13.75H2c-.41 0-.75-.34-.75-.75s.34-.75.75-.75h20c.41 0 .75.34.75.75s-.34.75-.75.75Z" fill="#292D32"/><path d="M16.5 22.75h-9c-.41 0-.75-.34-.75-.75s.34-.75.75-.75h9c.41 0 .75.34.75.75s-.34.75-.75.75ZM17.86 10.122H13.1c-1.57 0-2.59-1.02-2.59-2.59v-3.52c0-1.52 1.23-2.75 2.75-2.75h4.6a2.59 2.59 0 0 1 2.59 2.59v3.68a2.59 2.59 0 0 1-2.59 2.59Zm-4.6-7.36c-.69 0-1.25.56-1.25 1.25v3.52c0 .98.62 1.09 1.09 1.09h4.76c.6 0 1.09-.49 1.09-1.09v-3.68c0-.6-.49-1.09-1.09-1.09h-4.6Z" fill="#292D32"/><path d="M21.45 8.872c-.32 0-.65-.11-.97-.34l-1.21-.85a.75.75 0 0 1-.32-.61v-2.76c0-.24.12-.47.32-.61l1.21-.85c.52-.37 1.08-.44 1.54-.2.46.24.72.74.72 1.38v3.33c0 .64-.26 1.14-.72 1.38-.17.09-.36.13-.57.13Zm-1-2.19.8.56v-3.1l-.8.56v1.98Z" fill="#292D32"/></svg>