<svg width="24" height="24" fill="none" xmlns="http://www.w3.org/2000/svg"><path d="M17.56 17.97H6.44c-3.98 0-5.19-1.21-5.19-5.19V6.44c0-3.98 1.21-5.19 5.19-5.19h11.11c3.98 0 5.19 1.21 5.19 5.19v6.33c.01 3.99-1.2 5.2-5.18 5.2ZM6.44 2.75c-3.14 0-3.69.55-3.69 3.69v6.33c0 3.14.55 3.69 3.69 3.69h11.11c3.14 0 3.69-.55 3.69-3.69V6.44c0-3.14-.55-3.69-3.69-3.69H6.44Z" fill="#292D32"/><path d="M12 22.749c-.41 0-.75-.34-.75-.75v-4.78c0-.41.34-.75.75-.75s.75.34.75.75v4.78c0 .41-.34.75-.75.75ZM22 13.75H2c-.41 0-.75-.34-.75-.75s.34-.75.75-.75h20c.41 0 .75.34.75.75s-.34.75-.75.75Z" fill="#292D32"/><path d="M16.5 22.75h-9c-.41 0-.75-.34-.75-.75s.34-.75.75-.75h9c.41 0 .75.34.75.75s-.34.75-.75.75Z" fill="#292D32"/></svg>