<svg width="24" height="24" fill="none" xmlns="http://www.w3.org/2000/svg"><path d="M5.59 22.7c-2.34 0-4.32-1.98-4.32-4.32v-6.16C1.21 9.31 2.3 6.56 4.32 4.49 6.34 2.43 9.06 1.3 11.97 1.3c5.96 0 10.8 4.85 10.8 10.81v6.16c0 2.38-1.94 4.32-4.32 4.32-2.38 0-4.32-1.94-4.32-4.32v-2.81a2.59 2.59 0 0 1 5.18 0v3.03c0 .41-.34.75-.75.75s-.75-.34-.75-.75v-3.03c0-.68-.55-1.09-1.09-1.09-.68 0-1.09.55-1.09 1.09v2.81c0 1.53 1.29 2.82 2.82 2.82 1.53 0 2.82-1.29 2.82-2.82v-6.16c0-5.13-4.17-9.31-9.3-9.31-2.51 0-4.84.97-6.58 2.74-1.74 1.77-2.67 4.14-2.62 6.66v6.17c0 1.53 1.29 2.82 2.82 2.82 1.53 0 2.82-1.29 2.82-2.82v-2.81c0-.68-.55-1.09-1.09-1.09-.68 0-1.09.55-1.09 1.09v2.92c0 .41-.34.75-.75.75s-.75-.34-.75-.75v-2.92c0-1.45 1.14-2.59 2.59-2.59a2.59 2.59 0 0 1 2.59 2.59v2.81a4.33 4.33 0 0 1-4.32 4.33Z" fill="#292D32"/><path d="M13.179 11.86c-.4 0-.76-.22-.93-.58l-1.45-2.89-.42.78c-.23.43-.69.7-1.18.7h-.73c-.41 0-.75-.34-.75-.75s.34-.75.75-.75h.64l.79-1.46c.19-.34.54-.52.93-.55.39 0 .74.23.92.57l1.43 2.86.34-.69c.23-.46.68-.74 1.2-.74h.81c.41 0 .75.34.75.75s-.34.75-.75.75h-.71l-.71 1.41c-.18.37-.53.59-.93.59Z" fill="#292D32"/></svg>