<svg width="24" height="24" fill="none" xmlns="http://www.w3.org/2000/svg"><path d="M16.75 7.75h-9.5c-.41 0-.75-.34-.75-.75V5c0-2.56 1.19-3.75 3.75-3.75h3.5c2.56 0 3.75 1.19 3.75 3.75v2c0 .41-.34.75-.75.75ZM8 6.25h8V5c0-1.7-.55-2.25-2.25-2.25h-3.5C8.55 2.75 8 3.3 8 5v1.25ZM13 22.75h-2c-2.04 0-3.34-.98-3.67-2.76-.07-.41.19-.8.6-.87.4-.08.8.19.87.6.13.71.5 1.53 2.19 1.53h2c1.58 0 2.25-.67 2.25-2.25v-3.25h-2.28c-.41 0-.75-.34-.75-.75s.34-.75.75-.75H16c.41 0 .75.34.75.75v4c0 2.42-1.33 3.75-3.75 3.75Z" fill="#292D32"/><path d="M6 18.75c-2.42 0-3.75-1.33-3.75-3.75v-5c0-2.42 1.33-3.75 3.75-3.75h10.59c.41 0 .75.34.75.75s-.34.75-.75.75H6c-1.58 0-2.25.67-2.25 2.25v5c0 1.58.67 2.25 2.25 2.25.41 0 .75.34.75.75s-.34.75-.75.75ZM18 18.752h-2c-.41 0-.75-.34-.75-.75v-2.25H13c-.41 0-.75-.34-.75-.75s.34-.75.75-.75h3c.41 0 .75.34.75.75v2.25H18c1.58 0 2.25-.67 2.25-2.25v-5c0-.92-.23-1.53-.71-1.87a.743.743 0 0 1-.18-1.04c.24-.34.71-.42 1.05-.18.89.63 1.34 1.67 1.34 3.09v5c0 2.42-1.33 3.75-3.75 3.75Z" fill="#292D32"/><path d="M17 15.75h-1.21c-.41 0-.75-.34-.75-.75s.34-.75.75-.75H17c.41 0 .75.34.75.75s-.34.75-.75.75ZM9 11.75H7c-.41 0-.75-.34-.75-.75s.34-.75.75-.75h2c.41 0 .75.34.75.75s-.34.75-.75.75ZM2 22.751c-.19 0-.38-.07-.53-.22a.754.754 0 0 1 0-1.06l20-20c.29-.29.77-.29 1.06 0 .29.29.29.77 0 1.06l-20 20c-.15.15-.34.22-.53.22Z" fill="#292D32"/></svg>