<svg width="24" height="24" fill="none" xmlns="http://www.w3.org/2000/svg"><path d="M15.5 22.75h-7c-3.71 0-5.75-2.04-5.75-5.75V7c0-3.71 2.04-5.75 5.75-5.75h7c3.65 0 5.75 2.1 5.75 5.75v1c0 .96-.79 1.75-1.75 1.75-.14 0-.25.11-.25.25v2.17c0 .33.13.65.37.88l.83.83c.52.52.81 1.21.81 1.94V17c-.01 3.65-2.11 5.75-5.76 5.75Zm-7-20C5.64 2.75 4.25 4.14 4.25 7v10c0 2.86 1.39 4.25 4.25 4.25h7c2.82 0 4.25-1.43 4.25-4.25v-1.17c0-.33-.13-.65-.37-.88l-.83-.83c-.52-.52-.81-1.21-.81-1.94V10c0-.96.79-1.75 1.75-1.75.14 0 .25-.11.25-.25V7c0-2.82-1.43-4.25-4.25-4.25H8.5Z" fill="#292D32"/><path d="M16.01 22.718c-.41 0-.75-.33-.75-.74l-.03-2.99c0-.69-.57-1.24-1.25-1.24h-4a1.249 1.249 0 0 0-1.25 1.25l.01 2.97a.749.749 0 1 1-1.5 0l-.01-2.97c0-.74.28-1.43.8-1.95s1.21-.81 1.95-.81h4.01c1.51 0 2.74 1.23 2.75 2.73l.03 2.98c0 .43-.34.77-.76.77 0 0 .01 0 0 0ZM13.97 8.531h-6c-.41 0-.75-.34-.75-.75s.34-.75.75-.75h6a.749.749 0 1 1 0 1.5Z" fill="#292D32"/></svg>