<svg width="24" height="24" fill="none" xmlns="http://www.w3.org/2000/svg"><path d="M12.11 22.722H5.89c-2.73 0-4.64-1.91-4.64-4.64v-7.77c0-2.73 1.91-4.64 4.64-4.64h3.83c1.22 0 2.42.5 3.28 1.36l2.39 2.38c.87.87 1.36 2.06 1.36 3.28v5.39c0 2.73-1.91 4.64-4.64 4.64ZM5.89 7.172c-1.91 0-3.14 1.23-3.14 3.14v7.77c0 1.91 1.23 3.14 3.14 3.14h6.22c1.91 0 3.14-1.23 3.14-3.14v-5.39c0-.83-.34-1.63-.92-2.22l-2.39-2.38a3.16 3.16 0 0 0-2.22-.92H5.89Z" fill="#292D32"/><path d="M18.11 18.279H16c-.41 0-.75-.34-.75-.75v-4.84c0-.83-.34-1.63-.92-2.22l-2.39-2.38a3.16 3.16 0 0 0-2.22-.92H8c-.41 0-.75-.34-.75-.75v-.56c0-2.73 1.91-4.64 4.64-4.64h3.83c1.22 0 2.42.5 3.28 1.36l2.39 2.39c.88.88 1.36 2.04 1.36 3.28v5.39c0 2.73-1.91 4.64-4.64 4.64Zm-1.36-1.5h1.36c1.91 0 3.14-1.23 3.14-3.14v-5.39c0-.84-.33-1.63-.92-2.22l-2.39-2.39c-.58-.58-1.39-.92-2.22-.92h-3.83c-1.84 0-3.06 1.15-3.14 2.95h.97c1.22 0 2.42.5 3.28 1.36l2.39 2.38c.87.87 1.36 2.06 1.36 3.28v4.09Z" fill="#292D32"/></svg>