<svg width="24" height="24" fill="none" xmlns="http://www.w3.org/2000/svg"><path d="M16 22.75H8c-3.44 0-5.75-2.31-5.75-5.75V7c0-3.44 2.31-5.75 5.75-5.75h4.93c1.54 0 2.98.6 4.07 1.68L20.07 6a5.684 5.684 0 0 1 1.68 4.07V17c0 3.44-2.31 5.75-5.75 5.75Zm-8-20C5.42 2.75 3.75 4.42 3.75 7v10c0 2.58 1.67 4.25 4.25 4.25h8c2.58 0 4.25-1.67 4.25-4.25v-6.93c0-1.14-.44-2.2-1.25-3L15.93 4c-.8-.8-1.87-1.24-3.01-1.24H8v-.01Z" fill="#292D32"/><path d="M9.5 18.751c-.19 0-.38-.07-.53-.22l-2-2a.755.755 0 0 1 0-1.06l2-2c.29-.29.77-.29 1.06 0 .29.29.29.77 0 1.06l-1.47 1.47 1.47 1.47c.29.29.29.77 0 1.06-.15.15-.34.22-.53.22ZM14.5 18.751c-.19 0-.38-.07-.53-.22a.755.755 0 0 1 0-1.06l1.47-1.47-1.47-1.47a.755.755 0 0 1 0-1.06c.29-.29.77-.29 1.06 0l2 2c.29.29.29.77 0 1.06l-2 2c-.15.15-.34.22-.53.22Z" fill="#292D32"/></svg>