<svg width="24" height="24" fill="none" xmlns="http://www.w3.org/2000/svg"><path d="M16 22.75H8c-3.44 0-5.75-2.31-5.75-5.75V7c0-3.44 2.31-5.75 5.75-5.75h4.93c1.54 0 2.98.6 4.07 1.68L20.07 6a5.701 5.701 0 0 1 1.68 4.07V17c0 3.44-2.31 5.75-5.75 5.75Zm-8-20C5.42 2.75 3.75 4.42 3.75 7v10c0 2.58 1.67 4.25 4.25 4.25h8c2.58 0 4.25-1.67 4.25-4.25v-6.93c0-1.13-.44-2.2-1.25-3.01L15.93 4c-.8-.8-1.87-1.25-3.01-1.25H8Z" fill="#292D32"/><path d="M14 19.25h-4c-2.07 0-3.75-1.68-3.75-3.75v-3c0-2.07 1.68-3.75 3.75-3.75h4c2.07 0 3.75 1.68 3.75 3.75v3c0 2.07-1.68 3.75-3.75 3.75Zm-4-9c-1.24 0-2.25 1.01-2.25 2.25v3c0 1.24 1.01 2.25 2.25 2.25h4c1.24 0 2.25-1.01 2.25-2.25v-3c0-1.24-1.01-2.25-2.25-2.25h-4Z" fill="#292D32"/><path d="M12 19.25c-.41 0-.75-.34-.75-.75v-9c0-.41.34-.75.75-.75s.75.34.75.75v9c0 .41-.34.75-.75.75Z" fill="#292D32"/><path d="M16.5 14.75h-9c-.41 0-.75-.34-.75-.75s.34-.75.75-.75h9c.41 0 .75.34.75.75s-.34.75-.75.75Z" fill="#292D32"/></svg>