<svg width="24" height="24" fill="none" xmlns="http://www.w3.org/2000/svg"><path d="M15 22.75H9c-3.42 0-4.75-1.33-4.75-4.75V6c0-3.42 1.33-4.75 4.75-4.75h6c3.42 0 4.75 1.33 4.75 4.75v12c0 3.42-1.33 4.75-4.75 4.75Zm-6-20c-2.58 0-3.25.67-3.25 3.25v12c0 2.58.67 3.25 3.25 3.25h6c2.58 0 3.25-.67 3.25-3.25V6c0-2.58-.67-3.25-3.25-3.25H9Z" fill="#292D32"/><path d="M12 18.75c-2.07 0-3.75-1.68-3.75-3.75 0-2.07 1.68-3.75 3.75-3.75 2.07 0 3.75 1.68 3.75 3.75 0 2.07-1.68 3.75-3.75 3.75Zm0-6c-1.24 0-2.25 1.01-2.25 2.25s1.01 2.25 2.25 2.25 2.25-1.01 2.25-2.25-1.01-2.25-2.25-2.25ZM12 9.75c-1.24 0-2.25-1.01-2.25-2.25S10.76 5.25 12 5.25s2.25 1.01 2.25 2.25S13.24 9.75 12 9.75Zm0-3c-.41 0-.75.34-.75.75s.34.75.75.75.75-.34.75-.75-.34-.75-.75-.75Z" fill="#292D32"/></svg>