<svg width="24" height="24" fill="none" xmlns="http://www.w3.org/2000/svg"><path d="M15.5 19.75h-7c-2.74 0-4.25-1.51-4.25-4.25v-7c0-2.74 1.51-4.25 4.25-4.25h7c2.74 0 4.25 1.51 4.25 4.25v7c0 2.74-1.51 4.25-4.25 4.25Zm-7-14c-1.93 0-2.75.82-2.75 2.75v7c0 1.93.82 2.75 2.75 2.75h7c1.93 0 2.75-.82 2.75-2.75v-7c0-1.93-.82-2.75-2.75-2.75h-7ZM16 2.75H8c-.41 0-.75-.34-.75-.75s.34-.75.75-.75h8c.41 0 .75.34.75.75s-.34.75-.75.75ZM16 22.75H8c-.41 0-.75-.34-.75-.75s.34-.75.75-.75h8c.41 0 .75.34.75.75s-.34.75-.75.75Z" fill="#292D32"/><path d="M14.5 13.25h-3c-.41 0-.75-.34-.75-.75v-3c0-.41.34-.75.75-.75s.75.34.75.75v2.25h2.25c.41 0 .75.34.75.75s-.34.75-.75.75Z" fill="#292D32"/></svg>