<svg width="24" height="24" fill="none" xmlns="http://www.w3.org/2000/svg"><path d="M13.4 14.6c-.19 0-.38-.07-.53-.22l-1.4-1.4a.75.75 0 0 1-.22-.53V9.66c0-.41.34-.75.75-.75s.75.34.75.75v2.48l1.18 1.18c.29.29.29.77 0 1.06-.15.15-.34.22-.53.22Z" fill="#292D32"/><path d="M12 19.25c-1.59 0-3.09-.5-4.35-1.45-.03-.02-.05-.03-.08-.05A7.243 7.243 0 0 1 4.75 12C4.75 8 8 4.75 12 4.75S19.25 8 19.25 12a7.23 7.23 0 0 1-2.79 5.72c-.03.02-.05.04-.08.06A7.2 7.2 0 0 1 12 19.25Zm-3.57-2.74c.03.02.05.03.07.05 2.03 1.57 5.01 1.56 7.03-.02.02-.02.05-.04.07-.05A5.717 5.717 0 0 0 17.75 12c0-3.17-2.58-5.75-5.75-5.75S6.25 8.83 6.25 12c0 1.77.79 3.41 2.18 4.51Z" fill="#292D32"/><path d="M12.55 22.75h-1.09c-1.96 0-3.16-.97-3.67-2.98l-.5-2.47c-.04-.22.01-.45.16-.62.15-.17.36-.27.58-.27h.01c.17 0 .33.05.46.16 2.03 1.57 5.01 1.56 7.03-.02.31-.24.8-.19 1.05.12.14.17.2.4.16.62l-.51 2.47c-.53 2.02-1.73 2.99-3.68 2.99Zm-3.46-4.11.16.8c.38 1.5 1.16 1.81 2.21 1.81h1.09c1.04 0 1.82-.31 2.21-1.83l.16-.78c-1.81.8-4.01.81-5.83 0ZM16 7.62c-.17 0-.34-.06-.47-.16-2.02-1.58-5-1.59-7.03-.02-.31.24-.8.19-1.04-.11-.14-.17-.2-.4-.16-.62l.49-2.44c.51-2.05 1.71-3.02 3.67-3.02h1.09c1.95 0 3.15.97 3.66 2.96l.52 2.51c.05.22-.01.45-.15.62-.14.18-.35.28-.58.28Zm-4-2.87c1.03 0 2.01.21 2.92.61l-.17-.81c-.39-1.48-1.16-1.8-2.2-1.8h-1.09c-1.05 0-1.83.31-2.21 1.85l-.16.76c.91-.4 1.89-.61 2.91-.61Z" fill="#292D32"/></svg>