<svg width="24" height="24" fill="none" xmlns="http://www.w3.org/2000/svg"><path d="M2 4.662c0-1.19.97-2.09 2.16-1.99 2.1.17 5.28 1.23 7.06 2.34l.25.15c.29.18.77.18 1.06 0l.17-.11c.63-.39 1.43-.78 2.3-1.13v4.08l2-1.33 2 1.33v-5.22c.27-.05.53-.08.77-.1h.06c1.19-.1 2.17.79 2.17 1.99v12.07c0 .96-.78 1.86-1.74 1.98l-.33.04c-2.18.29-5.54 1.4-7.46 2.46-.26.15-.69.15-.96 0l-.04-.02c-1.92-1.05-5.27-2.15-7.44-2.44l-.29-.04c-.96-.12-1.74-1.02-1.74-1.98v-7.89M12 5.488v15" stroke="#292D32" stroke-width="1.5" stroke-linecap="round" stroke-linejoin="round"/><path d="M19 2.781v5.22l-2-1.33-2 1.33v-4.08c1.31-.52 2.77-.94 4-1.14Z" stroke="#292D32" stroke-width="1.5" stroke-linecap="round" stroke-linejoin="round"/></svg>