<svg width="24" height="24" fill="none" xmlns="http://www.w3.org/2000/svg"><path opacity=".4" d="M22 17.5h-7M5 17.5H2M22 6.5h-3M9 6.5H2" stroke="#292D32" stroke-width="1.5" stroke-miterlimit="10" stroke-linecap="round" stroke-linejoin="round"/><path d="M7 14.5h6c1.1 0 2 .5 2 2v2c0 1.5-.9 2-2 2H7c-1.1 0-2-.5-2-2v-2c0-1.5.9-2 2-2ZM11 3.5h6c1.1 0 2 .5 2 2v2c0 1.5-.9 2-2 2h-6c-1.1 0-2-.5-2-2v-2c0-1.5.9-2 2-2Z" stroke="#292D32" stroke-width="1.5" stroke-miterlimit="10" stroke-linecap="round" stroke-linejoin="round"/></svg>