<svg width="24" height="24" fill="none" xmlns="http://www.w3.org/2000/svg"><path d="M17 10h2c2 0 3-1 3-3V5c0-2-1-3-3-3h-2c-2 0-3 1-3 3v2c0 2 1 3 3 3ZM5 22h2c2 0 3-1 3-3v-2c0-2-1-3-3-3H5c-2 0-3 1-3 3v2c0 2 1 3 3 3Z" stroke="#292D32" stroke-width="1.5" stroke-miterlimit="10" stroke-linecap="round" stroke-linejoin="round"/><path opacity=".34" d="M6 10a4 4 0 1 0 0-8 4 4 0 0 0 0 8ZM18 22a4 4 0 1 0 0-8 4 4 0 0 0 0 8Z" stroke="#292D32" stroke-width="1.5" stroke-miterlimit="10" stroke-linecap="round" stroke-linejoin="round"/></svg>