<svg width="24" height="24" fill="none" xmlns="http://www.w3.org/2000/svg"><path opacity=".34" d="M12 15a3 3 0 1 0 0-6 3 3 0 0 0 0 6Z" stroke="#292D32" stroke-width="1.5" stroke-miterlimit="10" stroke-linecap="round" stroke-linejoin="round"/><path d="M2 12.881v-1.76c0-1.04.85-1.9 1.9-1.9 1.81 0 2.55-1.28 1.64-2.85-.52-.9-.21-2.07.7-2.59l1.73-.99c.79-.47 1.81-.19 2.28.6l.11.19c.9 1.57 2.38 1.57 3.29 0l.11-.19c.47-.79 1.49-1.07 2.28-.6l1.73.99c.91.52 1.22 1.69.7 2.59-.91 1.57-.17 2.85 1.64 2.85 1.04 0 1.9.85 1.9 1.9v1.76c0 1.04-.85 1.9-1.9 1.9-1.81 0-2.55 1.28-1.64 2.85.52.91.21 2.07-.7 2.59l-1.73.99c-.79.47-1.81.19-2.28-.6l-.11-.19c-.9-1.57-2.38-1.57-3.29 0l-.11.19c-.47.79-1.49 1.07-2.28.6l-1.73-.99a1.899 1.899 0 0 1-.7-2.59c.91-1.57.17-2.85-1.64-2.85-1.05 0-1.9-.86-1.9-1.9Z" stroke="#292D32" stroke-width="1.5" stroke-miterlimit="10" stroke-linecap="round" stroke-linejoin="round"/></svg>