<svg xmlns="http://www.w3.org/2000/svg" width="24" height="24" fill="none" viewBox="0 0 24 24">
  <path fill="#292D32" d="M15 22.75H9c-5.43 0-7.75-2.32-7.75-7.75V9c0-5.43 2.32-7.75 7.75-7.75h6c5.43 0 7.75 2.32 7.75 7.75v6c0 5.43-2.32 7.75-7.75 7.75zm-6-20C4.39 2.75 2.75 4.39 2.75 9v6c0 4.61 1.64 6.25 6.25 6.25h6c4.61 0 6.25-1.64 6.25-6.25V9c0-4.61-1.64-6.25-6.25-6.25H9z"/>
  <path fill="#292D32" d="M10.18 17.9c-.19 0-.38-.07-.53-.22l-3.04-3.04a.754.754 0 010-1.06c.29-.29.77-.29 1.06 0l3.04 3.04c.29.29.29.77 0 1.06a.71.71 0 01-.53.22z"/>
  <path fill="#292D32" d="M10.18 17.9c-.41 0-.75-.34-.75-.75V6.85c0-.41.34-.75.75-.75s.75.34.75.75v10.31c0 .41-.33.74-.75.74zM16.86 10.64c-.19 0-.38-.07-.53-.22l-3.04-3.04a.754.754 0 010-1.06c.29-.29.77-.29 1.06 0l3.04 3.04c.29.29.29.77 0 1.06-.15.14-.34.22-.53.22z"/>
  <path fill="#292D32" d="M13.82 17.9c-.41 0-.75-.34-.75-.75V6.85c0-.41.34-.75.75-.75s.75.34.75.75v10.31c0 .41-.34.74-.75.74z"/>
</svg>
