<svg xmlns="http://www.w3.org/2000/svg" width="24" height="24" fill="none" viewBox="0 0 24 24">
  <path fill="#292D32" d="M10.45 7.47c-.19 0-.38-.07-.53-.22L6.73 4.06 3.54 7.25c-.29.29-.77.29-1.06 0a.754.754 0 010-1.06L6.2 2.47a.75.75 0 011.06 0l3.72 3.72c.29.29.29.77 0 1.06-.15.15-.34.22-.53.22z"/>
  <path fill="#292D32" d="M6.73 21.75c-.41 0-.75-.34-.75-.75V3c0-.41.34-.75.75-.75s.75.34.75.75v18c0 .41-.34.75-.75.75zM17.28 21.75a.75.75 0 01-.53-.22l-3.72-3.72a.754.754 0 010-1.06c.29-.29.77-.29 1.06 0l3.19 3.19 3.19-3.19c.29-.29.77-.29 1.06 0 .29.29.29.77 0 1.06l-3.72 3.72c-.14.14-.34.22-.53.22z"/>
  <path fill="#292D32" d="M17.27 21.75c-.41 0-.75-.34-.75-.75V3c0-.41.34-.75.75-.75s.75.34.75.75v18c0 .41-.33.75-.75.75z"/>
</svg>
