<svg xmlns="http://www.w3.org/2000/svg" width="24" height="24" fill="none" viewBox="0 0 24 24">
  <path fill="#292D32" d="M15.1 19.15c-.84 0-1.76-.27-2.69-.81l-4.63-2.67c-1.63-.95-2.53-2.25-2.53-3.67s.9-2.72 2.53-3.66l4.63-2.67c1.63-.94 3.2-1.07 4.44-.36 1.23.71 1.91 2.14 1.91 4.02v5.34c0 1.88-.68 3.31-1.91 4.02-.53.31-1.12.46-1.75.46zm0-12.79c-.58 0-1.24.2-1.94.61L8.53 9.64c-1.15.66-1.78 1.5-1.78 2.36 0 .86.63 1.7 1.78 2.36l4.63 2.67c1.15.66 2.19.79 2.94.36.75-.43 1.16-1.4 1.16-2.72V9.33c0-1.32-.41-2.29-1.16-2.72-.3-.17-.64-.25-1-.25z"/>
</svg>
