<svg xmlns="http://www.w3.org/2000/svg" width="24" height="24" fill="none" viewBox="0 0 24 24">
  <path fill="#292D32" d="M8.9 19.15c-.63 0-1.22-.15-1.74-.45-1.23-.71-1.91-2.14-1.91-4.02V9.33c0-1.88.68-3.31 1.91-4.02 1.23-.71 2.8-.58 4.44.36l4.63 2.67c1.63.94 2.53 2.24 2.53 3.66s-.9 2.72-2.53 3.66l-4.63 2.67c-.94.55-1.86.82-2.7.82zm0-12.79c-.37 0-.71.08-1 .25-.74.43-1.15 1.39-1.15 2.72v5.34c0 1.32.41 2.29 1.16 2.72.75.43 1.79.3 2.94-.36l4.63-2.67c1.15-.66 1.78-1.5 1.78-2.36 0-.86-.63-1.7-1.78-2.36l-4.63-2.67c-.71-.41-1.37-.61-1.95-.61z"/>
</svg>
