<svg xmlns="http://www.w3.org/2000/svg" width="24" height="24" fill="none" viewBox="0 0 24 24">
  <path fill="#292D32" d="M15 22.75H9c-5.43 0-7.75-2.32-7.75-7.75V9c0-5.43 2.32-7.75 7.75-7.75h6c5.43 0 7.75 2.32 7.75 7.75v6c0 5.43-2.32 7.75-7.75 7.75zm-6-20C4.39 2.75 2.75 4.39 2.75 9v6c0 4.61 1.64 6.25 6.25 6.25h6c4.61 0 6.25-1.64 6.25-6.25V9c0-4.61-1.64-6.25-6.25-6.25H9z"/>
  <path fill="#292D32" d="M15 16.13h-4.92c-2.11 0-3.83-1.72-3.83-3.83 0-2.11 1.72-3.83 3.83-3.83h6.77c.41 0 .75.34.75.75s-.34.75-.75.75h-6.77c-1.28 0-2.33 1.04-2.33 2.33s1.04 2.33 2.33 2.33H15c.41 0 .75.34.75.75s-.34.75-.75.75z"/>
  <path fill="#292D32" d="M15.431 11.52c-.19 0-.38-.07-.53-.22a.754.754 0 010-1.06l1.04-1.04-1.04-1.04a.755.755 0 010-1.06c.29-.29.77-.29 1.06 0l1.57 1.57c.29.29.29.77 0 1.06l-1.57 1.57c-.15.14-.34.22-.53.22z"/>
</svg>
