<svg xmlns="http://www.w3.org/2000/svg" width="24" height="24" fill="none" viewBox="0 0 24 24">
  <path fill="#292D32" d="M12 22.75C6.07 22.75 1.25 17.93 1.25 12S6.07 1.25 12 1.25 22.75 6.07 22.75 12 17.93 22.75 12 22.75zm0-20C6.9 2.75 2.75 6.9 2.75 12S6.9 21.25 12 21.25s9.25-4.15 9.25-9.25S17.1 2.75 12 2.75z"/>
  <path fill="#292D32" d="M13.26 16.28c-.19 0-.38-.07-.53-.22L9.2 12.53a.754.754 0 010-1.06l3.53-3.53c.29-.29.77-.29 1.06 0 .29.29.29.77 0 1.06l-3 3 3 3c.29.29.29.77 0 1.06a.71.71 0 01-.53.22z"/>
</svg>
