<svg xmlns="http://www.w3.org/2000/svg" width="24" height="24" fill="none" viewBox="0 0 24 24">
  <path fill="#292D32" d="M15.49 20.76c-.19 0-.38-.07-.53-.22a.754.754 0 010-1.06l5.01-5.01c.29-.29.77-.29 1.06 0 .29.29.29.77 0 1.06l-5.01 5.01c-.15.14-.34.22-.53.22z"/>
  <path fill="#292D32" d="M20.5 15.74h-17c-.41 0-.75-.34-.75-.75s.34-.75.75-.75h17c.41 0 .75.34.75.75s-.34.75-.75.75zM3.5 9.76c-.19 0-.38-.07-.53-.22a.754.754 0 010-1.06l5.01-5.01c.29-.29.77-.29 1.06 0 .29.29.29.77 0 1.06L4.03 9.54c-.14.14-.34.22-.53.22z"/>
  <path fill="#292D32" d="M20.5 9.76h-17c-.41 0-.75-.34-.75-.75s.34-.75.75-.75h17c.41 0 .75.34.75.75s-.34.75-.75.75z"/>
</svg>
