<svg xmlns="http://www.w3.org/2000/svg" width="24" height="24" fill="none" viewBox="0 0 24 24">
  <path fill="#292D32" d="M12 22.75c-5.2 0-9.42-4.23-9.42-9.42 0-1.87.55-3.68 1.59-5.24.23-.34.7-.44 1.04-.21.34.23.44.7.21 1.04a7.925 7.925 0 006.59 12.32c4.37 0 7.92-3.55 7.92-7.92S16.37 5.4 12 5.4c-.92 0-1.82.13-2.67.39a.75.75 0 01-.94-.5c-.12-.4.1-.82.5-.94 1-.3 2.04-.46 3.11-.46 5.2 0 9.42 4.23 9.42 9.42 0 5.19-4.22 9.44-9.42 9.44z"/>
  <path fill="#292D32" d="M7.87 6.07a.748.748 0 01-.57-1.24l2.89-3.32c.27-.31.75-.35 1.06-.07.31.27.34.75.07 1.06L8.43 5.81c-.15.17-.36.26-.56.26z"/>
  <path fill="#292D32" d="M11.24 8.53c-.15 0-.31-.05-.44-.14L7.42 5.92a.751.751 0 01.89-1.21l3.37 2.46c.33.24.41.71.16 1.05a.71.71 0 01-.6.31z"/>
</svg>
