<svg xmlns="http://www.w3.org/2000/svg" width="24" height="24" fill="none" viewBox="0 0 24 24">
  <path fill="#292D32" d="M11.999 18.75c-1.42 0-2.72-.9-3.66-2.53l-2.67-4.63c-.95-1.63-1.07-3.2-.36-4.43.71-1.23 2.14-1.91 4.02-1.91h5.34c1.88 0 3.31.68 4.02 1.91.71 1.23.58 2.81-.36 4.44l-2.67 4.63c-.94 1.62-2.24 2.52-3.66 2.52zm-2.67-12c-1.33 0-2.29.41-2.72 1.16-.44.75-.31 1.79.35 2.93l2.67 4.63c.66 1.15 1.5 1.78 2.36 1.78.86 0 1.7-.63 2.36-1.78l2.67-4.63c.66-1.15.79-2.19.36-2.94-.43-.75-1.4-1.16-2.72-1.16h-5.33v.01z"/>
</svg>
