<svg xmlns="http://www.w3.org/2000/svg" width="24" height="24" fill="none" viewBox="0 0 24 24">
  <path fill="#292D32" d="M12.005 22.733c-5.918 0-10.728-4.81-10.728-10.728S6.087 1.277 12.005 1.277s10.728 4.81 10.728 10.728-4.82 10.728-10.728 10.728zm0-19.959c-5.09 0-9.23 4.142-9.23 9.231 0 5.09 4.14 9.23 9.23 9.23 5.09 0 9.23-4.14 9.23-9.23 0-5.09-4.14-9.23-9.23-9.23z"/>
  <path fill="#292D32" d="M14.3 12.953c-.2 0-.39-.08-.53-.22L5.609 4.552a.753.753 0 010-1.058.753.753 0 011.057 0l6.896 6.906.01-2.735c0-.409.34-.748.748-.748.41-.03.749.34.749.748l-.01 4.54c0 .3-.18.58-.46.69-.099.04-.199.06-.298.06zM17.863 20.727a.74.74 0 01-.529-.22l-6.896-6.906-.01 2.735c0 .409-.339.748-.748.748a.754.754 0 01-.748-.748l.01-4.54c0-.3.18-.58.459-.69.28-.119.598-.05.818.16l8.163 8.183c.29.29.29.769 0 1.058-.13.15-.33.22-.519.22z"/>
</svg>
