<svg xmlns="http://www.w3.org/2000/svg" width="24" height="24" fill="none" viewBox="0 0 24 24">
  <path fill="#292D32" d="M15.26 22.25H8.74c-4.91 0-7.01-2.1-7.01-7.01v-.13c0-4.44 1.75-6.58 5.67-6.95.4-.03.78.27.82.68.04.41-.26.78-.68.82-3.14.29-4.31 1.77-4.31 5.46v.13c0 4.07 1.44 5.51 5.51 5.51h6.52c4.07 0 5.51-1.44 5.51-5.51v-.13c0-3.71-1.19-5.19-4.39-5.46a.75.75 0 01-.68-.81c.04-.41.39-.72.81-.68 3.98.34 5.76 2.49 5.76 6.96v.13c0 4.89-2.1 6.99-7.01 6.99z"/>
  <path fill="#292D32" d="M12 15.75c-.41 0-.75-.34-.75-.75V3.62c0-.41.34-.75.75-.75s.75.34.75.75V15c0 .41-.34.75-.75.75z"/>
  <path fill="#292D32" d="M15.35 6.6c-.19 0-.38-.07-.53-.22L12 3.56 9.18 6.38c-.29.29-.77.29-1.06 0a.754.754 0 010-1.06l3.35-3.35c.29-.29.77-.29 1.06 0l3.35 3.35c.29.29.29.77 0 1.06-.14.15-.34.22-.53.22z"/>
</svg>
