<svg xmlns="http://www.w3.org/2000/svg" width="24" height="24" fill="none" viewBox="0 0 24 24">
  <path fill="#292D32" d="M13 11.75c-.19 0-.38-.07-.53-.22a.754.754 0 010-1.06l8.2-8.2c.29-.29.77-.29 1.06 0 .29.29.29.77 0 1.06l-8.2 8.2c-.15.15-.34.22-.53.22z"/>
  <path fill="#292D32" d="M22 7.55c-.41 0-.75-.34-.75-.75V2.75H17.2c-.41 0-.75-.34-.75-.75s.34-.75.75-.75H22c.41 0 .75.34.75.75v4.8c0 .41-.34.75-.75.75zM15 22.75H9c-5.43 0-7.75-2.32-7.75-7.75V9c0-5.43 2.32-7.75 7.75-7.75h2c.41 0 .75.34.75.75s-.34.75-.75.75H9C4.39 2.75 2.75 4.39 2.75 9v6c0 4.61 1.64 6.25 6.25 6.25h6c4.61 0 6.25-1.64 6.25-6.25v-2c0-.41.34-.75.75-.75s.75.34.75.75v2c0 5.43-2.32 7.75-7.75 7.75z"/>
</svg>
