<svg xmlns="http://www.w3.org/2000/svg" width="24" height="24" fill="none" viewBox="0 0 24 24">
  <path fill="#292D32" d="M15.24 22.27h-.13c-4.44 0-6.58-1.75-6.95-5.67-.04-.41.26-.78.68-.82.41-.04.78.27.82.68.29 3.14 1.77 4.31 5.46 4.31h.13c4.07 0 5.51-1.44 5.51-5.51V8.74c0-4.07-1.44-5.51-5.51-5.51h-.13c-3.71 0-5.19 1.19-5.46 4.39-.05.41-.39.72-.82.68a.751.751 0 01-.69-.81c.34-3.98 2.49-5.76 6.96-5.76h.13c4.91 0 7.01 2.1 7.01 7.01v6.52c0 4.91-2.1 7.01-7.01 7.01z"/>
  <path fill="#292D32" d="M14.88 12.75H2c-.41 0-.75-.34-.75-.75s.34-.75.75-.75h12.88a.749.749 0 110 1.5z"/>
  <path fill="#292D32" d="M12.65 16.1c-.19 0-.38-.07-.53-.22a.754.754 0 010-1.06L14.94 12l-2.82-2.82a.754.754 0 010-1.06c.29-.29.77-.29 1.06 0l3.35 3.35c.29.29.29.77 0 1.06l-3.35 3.35c-.15.15-.34.22-.53.22z"/>
</svg>
