<svg xmlns="http://www.w3.org/2000/svg" width="24" height="24" fill="none" viewBox="0 0 24 24">
  <path fill="#292D32" d="M17.44 15.37c-.19 0-.38-.07-.53-.22a.754.754 0 010-1.06l2.03-2.03-2.03-2.03a.754.754 0 010-1.06c.29-.29.77-.29 1.06 0l2.56 2.56c.29.29.29.77 0 1.06l-2.56 2.56c-.15.15-.34.22-.53.22z"/>
  <path fill="#292D32" d="M19.93 12.81H9.76c-.41 0-.75-.34-.75-.75s.34-.75.75-.75h10.17c.41 0 .75.34.75.75s-.34.75-.75.75z"/>
  <path fill="#292D32" d="M11.76 20.75c-5.15 0-8.75-3.6-8.75-8.75s3.6-8.75 8.75-8.75c.41 0 .75.34.75.75s-.34.75-.75.75c-4.27 0-7.25 2.98-7.25 7.25s2.98 7.25 7.25 7.25c.41 0 .75.34.75.75s-.34.75-.75.75z"/>
</svg>
