<svg xmlns="http://www.w3.org/2000/svg" width="24" height="24" fill="none" viewBox="0 0 24 24">
  <path fill="#292D32" d="M15 22.75H9c-5.43 0-7.75-2.32-7.75-7.75V9c0-5.43 2.32-7.75 7.75-7.75h6c5.43 0 7.75 2.32 7.75 7.75v6c0 5.43-2.32 7.75-7.75 7.75zm-6-20C4.39 2.75 2.75 4.39 2.75 9v6c0 4.61 1.64 6.25 6.25 6.25h6c4.61 0 6.25-1.64 6.25-6.25V9c0-4.61-1.64-6.25-6.25-6.25H9z"/>
  <path fill="#292D32" d="M12 15.26c-.19 0-.38-.07-.53-.22l-3-3a.754.754 0 010-1.06c.29-.29.77-.29 1.06 0L12 13.45l2.47-2.47c.29-.29.77-.29 1.06 0 .29.29.29.77 0 1.06l-3 3c-.15.15-.34.22-.53.22z"/>
  <path fill="#292D32" d="M12 15.26c-.41 0-.75-.34-.75-.75v-8c0-.41.34-.75.75-.75s.75.34.75.75v8c0 .42-.34.75-.75.75zM12 18.23c-2.11 0-4.23-.34-6.24-1.01a.753.753 0 01-.47-.95c.13-.39.55-.61.95-.47 3.72 1.24 7.81 1.24 11.53 0 .39-.13.82.08.95.47.13.39-.08.82-.47.95-2.02.68-4.14 1.01-6.25 1.01z"/>
</svg>
