<svg xmlns="http://www.w3.org/2000/svg" width="24" height="24" fill="none" viewBox="0 0 24 24">
  <path fill="#292D32" d="M12 22.75C6.07 22.75 1.25 17.93 1.25 12S6.07 1.25 12 1.25 22.75 6.07 22.75 12 17.93 22.75 12 22.75zm0-20C6.9 2.75 2.75 6.9 2.75 12S6.9 21.25 12 21.25s9.25-4.15 9.25-9.25S17.1 2.75 12 2.75z"/>
  <path fill="#292D32" d="M12 17.47c-1.4 0-2.8-.53-3.87-1.6-.28-.28-.53-.59-.76-.96a.747.747 0 111.27-.79c.17.28.35.5.55.7a3.977 3.977 0 005.62 0c.6-.6.98-1.38 1.11-2.25.06-.41.44-.71.85-.64.41.06.69.44.64.85-.17 1.19-.7 2.26-1.53 3.1A5.522 5.522 0 0112 17.47zM7.34 12.08c-.04 0-.07 0-.11-.01a.754.754 0 01-.64-.85c.17-1.19.7-2.26 1.53-3.1 2.13-2.13 5.6-2.13 7.74 0 .28.28.53.59.76.97a.747.747 0 11-1.27.79c-.17-.27-.35-.5-.55-.7a3.977 3.977 0 00-5.62 0c-.6.6-.98 1.38-1.11 2.25-.04.38-.36.65-.73.65z"/>
  <path fill="#292D32" d="M7.82 17.93c-.41 0-.75-.34-.75-.75v-2.67c0-.41.34-.75.75-.75h2.67c.41 0 .75.34.75.75s-.34.75-.75.75H8.57v1.92c0 .41-.33.75-.75.75zM16.18 10.24h-2.67c-.41 0-.75-.34-.75-.75s.34-.75.75-.75h1.92V6.82c0-.41.34-.75.75-.75s.75.34.75.75v2.67c0 .42-.34.75-.75.75z"/>
</svg>
