<svg xmlns="http://www.w3.org/2000/svg" width="24" height="24" fill="none" viewBox="0 0 24 24">
  <path fill="#292D32" d="M15 22.75H9c-5.43 0-7.75-2.32-7.75-7.75V9c0-5.43 2.32-7.75 7.75-7.75h6c5.43 0 7.75 2.32 7.75 7.75v6c0 5.43-2.32 7.75-7.75 7.75zm-6-20C4.39 2.75 2.75 4.39 2.75 9v6c0 4.61 1.64 6.25 6.25 6.25h6c4.61 0 6.25-1.64 6.25-6.25V9c0-4.61-1.64-6.25-6.25-6.25H9z"/>
  <path stroke="#292D32" stroke-linecap="round" stroke-linejoin="round" stroke-width="1.5" d="M17.5 12c0 3.04-2.46 5.5-5.5 5.5s-4.89-3.06-4.89-3.06m0 0h2.48m-2.48 0v2.75M6.5 12c0-3.04 2.44-5.5 5.5-5.5 3.67 0 5.5 3.06 5.5 3.06m0 0V6.81m0 2.75h-2.44"/>
</svg>
