<svg xmlns="http://www.w3.org/2000/svg" width="24" height="24" fill="none" viewBox="0 0 24 24">
  <path fill="#292D32" d="M12 18.01c-3.17 0-5.75-2.58-5.75-5.75 0-1.14.33-2.25.97-3.19.23-.34.7-.44 1.04-.21.34.23.44.7.21 1.04a4.26 4.26 0 003.54 6.61 4.26 4.26 0 004.25-4.25 4.26 4.26 0 00-4.25-4.25c-.5 0-.98.07-1.45.21a.76.76 0 01-.94-.5c-.12-.4.1-.82.5-.94.61-.19 1.24-.28 1.89-.28 3.17 0 5.75 2.58 5.75 5.75s-2.59 5.76-5.76 5.76z"/>
  <path fill="#292D32" d="M9.62 8.4c-.17 0-.35-.06-.49-.18a.756.756 0 01-.07-1.06l1.67-1.91c.27-.31.75-.35 1.06-.07.31.27.34.75.07 1.06l-1.67 1.91c-.16.16-.36.25-.57.25z"/>
  <path fill="#292D32" d="M11.56 9.82c-.15 0-.31-.05-.44-.14L9.18 8.26a.75.75 0 01-.16-1.05.75.75 0 011.05-.16l1.94 1.42c.33.24.41.71.16 1.05-.15.19-.38.3-.61.3z"/>
  <path fill="#292D32" d="M15 22.75H9c-5.43 0-7.75-2.32-7.75-7.75V9c0-5.43 2.32-7.75 7.75-7.75h6c5.43 0 7.75 2.32 7.75 7.75v6c0 5.43-2.32 7.75-7.75 7.75zm-6-20C4.39 2.75 2.75 4.39 2.75 9v6c0 4.61 1.64 6.25 6.25 6.25h6c4.61 0 6.25-1.64 6.25-6.25V9c0-4.61-1.64-6.25-6.25-6.25H9z"/>
</svg>
