<svg xmlns="http://www.w3.org/2000/svg" width="24" height="24" fill="none" viewBox="0 0 24 24">
  <path fill="#292D32" d="M16.5 12.47c-.41 0-.75-.34-.75-.75V9.95a.85.85 0 00-.85-.85H7.5c-.41 0-.75-.34-.75-.75s.34-.75.75-.75h7.4c1.3 0 2.35 1.06 2.35 2.35v1.77c0 .41-.34.75-.75.75z"/>
  <path fill="#292D32" d="M9.19 10.78c-.19 0-.38-.07-.53-.22L6.97 8.87a.754.754 0 010-1.06l1.69-1.69c.29-.29.77-.29 1.06 0 .29.29.29.77 0 1.06L8.56 8.34 9.72 9.5c.29.29.29.77 0 1.06-.15.15-.34.22-.53.22zM16.5 16.41H9.1c-1.3 0-2.35-1.06-2.35-2.35v-1.77c0-.41.34-.75.75-.75s.75.34.75.75v1.77c0 .47.38.85.85.85h7.4c.41 0 .75.34.75.75s-.34.75-.75.75z"/>
  <path fill="#292D32" d="M14.81 18.09c-.19 0-.38-.07-.53-.22a.754.754 0 010-1.06l1.16-1.16-1.16-1.16a.754.754 0 010-1.06c.29-.29.77-.29 1.06 0l1.69 1.69c.29.29.29.77 0 1.06l-1.69 1.69c-.14.15-.34.22-.53.22z"/>
  <path fill="#292D32" d="M12 22.75C6.07 22.75 1.25 17.93 1.25 12S6.07 1.25 12 1.25 22.75 6.07 22.75 12 17.93 22.75 12 22.75zm0-20C6.9 2.75 2.75 6.9 2.75 12S6.9 21.25 12 21.25s9.25-4.15 9.25-9.25S17.1 2.75 12 2.75z"/>
</svg>
