<svg width="24" height="24" fill="none" xmlns="http://www.w3.org/2000/svg"><path d="M12 22.752c-.7 0-1.41-.27-1.94-.8l-1.71-1.69c-.43-.42-.99-.65-1.59-.65H6c-2.07 0-3.75-1.67-3.75-3.72V4.982c0-2.05 1.68-3.72 3.75-3.72h12c2.07 0 3.75 1.67 3.75 3.72v10.91c0 2.05-1.68 3.72-3.75 3.72h-.76c-.6 0-1.17.23-1.59.65l-1.71 1.69c-.53.53-1.24.8-1.94.8Zm-6-20c-1.24 0-2.25 1-2.25 2.22v10.91c0 1.23 1.01 2.22 2.25 2.22h.76c1 0 1.94.39 2.65 1.09l1.71 1.69c.49.48 1.28.48 1.77 0l1.71-1.69c.71-.7 1.65-1.09 2.65-1.09H18c1.24 0 2.25-1 2.25-2.22V4.972c0-1.23-1.01-2.22-2.25-2.22H6Z" fill="#292D32"/><path d="M10.38 14.511H7.7c-.44 0-.85-.21-1.11-.57-.25-.34-.31-.76-.19-1.16.35-1.07 1.21-1.65 1.97-2.17.8-.54 1.25-.88 1.25-1.46a.939.939 0 1 0-1.88 0c0 .41-.34.75-.75.75s-.75-.34-.75-.75c0-1.34 1.09-2.44 2.44-2.44 1.35 0 2.44 1.09 2.44 2.44 0 1.41-1.06 2.13-1.91 2.71-.53.36-1.03.7-1.28 1.15h2.44c.41 0 .75.34.75.75s-.33.75-.74.75ZM16.039 14.509c-.41 0-.75-.34-.75-.75v-.69h-1.97c-.49 0-.94-.26-1.19-.68-.25-.43-.25-.96 0-1.38.68-1.17 1.47-2.5 2.19-3.66.32-.51.93-.74 1.5-.58.57.17.97.69.96 1.29v3.52h.22c.41 0 .75.34.75.75s-.34.75-.75.75h-.21v.69c0 .41-.33.74-.75.74Zm-.75-5.87c-.59.96-1.2 1.99-1.75 2.93h1.75v-2.93Z" fill="#292D32"/></svg>