<svg width="24" height="24" fill="none" xmlns="http://www.w3.org/2000/svg"><path d="M12 22.75C6.07 22.75 1.25 17.93 1.25 12S6.07 1.25 12 1.25 22.75 6.07 22.75 12 17.93 22.75 12 22.75Zm0-20C6.9 2.75 2.75 6.9 2.75 12S6.9 21.25 12 21.25s9.25-4.15 9.25-9.25S17.1 2.75 12 2.75Z" fill="#292D32"/><path d="M12 18.25c-.21 0-.41-.03-.58-.09-2.15-.73-5.56-3.35-5.56-7.25 0-2.08 1.68-3.77 3.75-3.77.9 0 1.73.31 2.4.87.67-.56 1.51-.87 2.39-.87 2.07 0 3.75 1.69 3.75 3.77 0 3.89-3.41 6.51-5.57 7.25-.17.06-.38.09-.58.09Zm-2.4-9.6c-1.24 0-2.25 1.02-2.25 2.27 0 3.49 3.37 5.43 4.55 5.83.04.01.14.01.18 0 1.18-.4 4.55-2.34 4.55-5.83 0-1.25-1.01-2.27-2.25-2.27-.7 0-1.37.34-1.79.91-.28.38-.92.38-1.2 0a2.18 2.18 0 0 0-1.79-.91Z" fill="#292D32"/></svg>