<svg width="24" height="24" fill="none" xmlns="http://www.w3.org/2000/svg"><path d="M12 21.652c-.31 0-.61-.04-.86-.13-3.82-1.31-9.89-5.96-9.89-12.83 0-3.5 2.83-6.34 6.31-6.34 1.69 0 3.27.66 4.44 1.84a6.214 6.214 0 0 1 4.44-1.84c3.48 0 6.31 2.85 6.31 6.34 0 6.88-6.07 11.52-9.89 12.83-.25.09-.55.13-.86.13Zm-4.44-17.8c-2.65 0-4.81 2.17-4.81 4.84 0 6.83 6.57 10.63 8.88 11.42.18.06.57.06.75 0 2.3-.79 8.88-4.58 8.88-11.42 0-2.67-2.16-4.84-4.81-4.84-1.52 0-2.93.71-3.84 1.94-.28.38-.92.38-1.2 0a4.77 4.77 0 0 0-3.85-1.94Z" fill="#292D32"/></svg>