<svg width="24" height="24" fill="none" xmlns="http://www.w3.org/2000/svg"><path d="M12 21.652c-.22 0-.55-.02-.86-.13-3.82-1.31-9.89-5.95-9.89-12.83 0-3.5 2.83-6.34 6.31-6.34 1.69 0 3.27.66 4.44 1.84a6.214 6.214 0 0 1 4.44-1.84c3.48 0 6.31 2.84 6.31 6.34 0 1.21-.18 2.4-.54 3.54a.75.75 0 1 1-1.43-.45c.31-.99.47-2.03.47-3.08 0-2.67-2.16-4.84-4.81-4.84-1.52 0-2.93.71-3.84 1.93-.28.38-.92.38-1.2 0a4.756 4.756 0 0 0-3.84-1.93c-2.65 0-4.81 2.17-4.81 4.84 0 6.84 6.57 10.63 8.88 11.42.06.02.2.05.37.05.41 0 .75.34.75.75s-.34.73-.75.73Z" fill="#292D32"/><path d="M15.82 22.75c-.38 0-.74-.14-1-.4-.31-.31-.45-.76-.38-1.23l.19-1.35c.05-.35.26-.77.51-1.02l3.54-3.54c.48-.48.95-.73 1.46-.78.63-.06 1.24.2 1.82.78.58.58.84 1.19.78 1.82-.05.5-.31.98-.78 1.46l-3.54 3.54c-.25.25-.66.46-1.01.51l-1.35.19c-.09.01-.16.02-.24.02Zm4.49-6.83h-.03c-.14.01-.33.13-.54.35l-3.54 3.54a.38.38 0 0 0-.08.17l-.18 1.25 1.25-.18c.04-.01.14-.06.17-.09l3.54-3.54c.21-.21.34-.4.35-.54.02-.2-.18-.44-.35-.61-.16-.16-.39-.35-.59-.35Z" fill="#292D32"/><path d="M20.92 19.221c-.07 0-.14-.01-.2-.03a3.977 3.977 0 0 1-2.74-2.74c-.11-.4.12-.81.52-.92.4-.11.81.12.93.52.23.82.88 1.47 1.7 1.7.4.11.63.53.52.92-.1.33-.4.55-.73.55Z" fill="#292D32"/></svg>