<svg width="24" height="24" fill="none" xmlns="http://www.w3.org/2000/svg"><path d="M9.95 22.75H7.78c-.39 0-1.17-.12-1.62-.56l-1.7-1.31.92-1.19 1.77 1.37c.13.11.4.19.63.19h2.17c.37 0 .79-.31.87-.63l1.39-4.23c.04-.1.07-.25 0-.36-.06-.09-.2-.14-.37-.14H9.55c-.39 0-.75-.17-1.01-.46-.26-.3-.37-.68-.31-1.09l.29-1.84c.04-.17-.08-.38-.24-.43-.13-.05-.35.04-.4.11l-2.35 3.49-1.25-.84 2.34-3.49c.44-.66 1.4-.96 2.14-.68.85.28 1.41 1.24 1.21 2.12l-.25 1.6h2.09c.67 0 1.25.28 1.6.78.34.48.41 1.11.19 1.71l-1.37 4.16c-.2.94-1.22 1.72-2.28 1.72Z" fill="#292D32"/><path d="M3.72 22.12h-.57c-1.56 0-1.89-1-1.89-1.84v-5.6c0-.84.33-1.84 1.89-1.84h.57c1.56 0 1.89 1 1.89 1.84v5.6c0 .84-.33 1.84-1.89 1.84Zm-.93-1.54c.01 0 .11.04.35.04h.57c.26 0 .35-.04.37-.05 0-.01.03-.08.03-.29v-5.6c0-.21-.03-.29-.04-.3 0 .02-.1-.04-.35-.04h-.57c-.26 0-.35.04-.37.05 0 .01-.03.08-.03.29v5.6c0 .21.03.29.04.3ZM15.81 13.44c-.2 0-.4-.03-.59-.1-.85-.28-1.41-1.24-1.21-2.12l.25-1.6h-2.09c-.67 0-1.25-.28-1.6-.78-.34-.48-.41-1.11-.19-1.71l1.37-4.16c.23-.94 1.26-1.72 2.31-1.72h2.17c.39 0 1.17.12 1.62.56l1.7 1.31-.92 1.19-1.77-1.37c-.13-.11-.4-.19-.63-.19h-2.17c-.37 0-.79.31-.87.63L11.8 7.61c-.04.1-.07.25 0 .36.06.09.2.14.37.14h2.29c.39 0 .75.17 1.01.46.26.3.37.68.31 1.09l-.29 1.84c-.04.17.08.38.24.43.14.05.35-.03.4-.11l2.35-3.49 1.25.84-2.34 3.49c-.36.48-.98.78-1.58.78Z" fill="#292D32"/><path d="M20.86 11.159h-.57c-1.56 0-1.89-1-1.89-1.84v-5.6c0-.84.33-1.84 1.89-1.84h.57c1.56 0 1.89 1 1.89 1.84v5.6c0 .84-.33 1.84-1.89 1.84Zm-.93-1.54c.01 0 .11.04.35.04h.57c.26 0 .35-.04.37-.05 0-.01.03-.08.03-.29v-5.6c0-.21-.03-.28-.04-.3.01.04-.1-.04-.35-.04h-.57c-.26 0-.35.04-.37.05 0 .01-.03.08-.03.29v5.6c0 .21.03.28.04.3Z" fill="#292D32"/></svg>