<svg width="24" height="24" fill="none" xmlns="http://www.w3.org/2000/svg"><path d="M12.009 22.752c-.63 0-1.26-.21-1.75-.63l-1.58-1.36c-.16-.14-.56-.28-.77-.28h-1.73a2.68 2.68 0 0 1-2.68-2.68v-1.71c0-.21-.14-.6-.28-.76l-1.35-1.59c-.82-.97-.82-2.5 0-3.47l1.35-1.59c.14-.16.28-.55.28-.76v-1.71c0-1.48 1.2-2.68 2.68-2.68h1.73c.21 0 .61-.15.77-.28l1.58-1.36c.98-.84 2.51-.84 3.49 0l1.58 1.36c.16.14.56.28.77.28h1.7c1.48 0 2.68 1.2 2.68 2.68v1.7c0 .21.15.61.29.77l1.35 1.58c.84.98.84 2.51 0 3.49l-1.35 1.58c-.14.16-.28.56-.28.77v1.7c0 1.48-1.2 2.68-2.68 2.68h-1.7c-.21 0-.61.15-.77.28l-1.58 1.36c-.5.42-1.13.63-1.75.63Zm-5.83-17.73c-.65 0-1.18.53-1.18 1.18v1.71c0 .57-.27 1.3-.63 1.73l-1.35 1.59c-.35.41-.35 1.12 0 1.53l1.35 1.59c.37.44.64 1.17.64 1.73v1.71c0 .65.53 1.18 1.18 1.18h1.73c.58 0 1.31.27 1.75.65l1.58 1.36c.41.35 1.13.35 1.54 0l1.58-1.36c.44-.37 1.17-.65 1.75-.65h1.7c.65 0 1.18-.53 1.18-1.18v-1.7c0-.58.27-1.31.65-1.75l1.35-1.58c.35-.41.35-1.13 0-1.54l-1.35-1.58c-.37-.44-.65-1.17-.65-1.75v-1.7c0-.65-.53-1.18-1.18-1.18h-1.7c-.57 0-1.31-.27-1.75-.65l-1.58-1.36c-.41-.35-1.13-.35-1.54 0l-1.58 1.36c-.44.37-1.17.65-1.75.65h-1.74v.01Z" fill="#292D32"/><path d="M14 16.97h-1.78c-.42 0-1.05-.13-1.42-.5l-1.38-1.06.92-1.19 1.45 1.12c.1.07.28.12.43.12H14c.24 0 .53-.21.58-.42l1.14-3.47c.03-.09.03-.15.02-.17-.02-.03-.09-.06-.19-.06h-1.87c-.36 0-.69-.15-.93-.42-.23-.27-.34-.63-.29-1l.24-1.51c.02-.08-.04-.18-.1-.2-.06-.01-.15.01-.18.04l-1.91 2.84-1.25-.84 1.92-2.85c.4-.6 1.24-.86 1.92-.61.76.25 1.25 1.11 1.08 1.89L14 9.82h1.55c.59 0 1.11.25 1.42.69.3.43.37.99.18 1.52l-1.12 3.4c-.21.86-1.1 1.54-2.03 1.54Z" fill="#292D32"/><path d="M8.9 16.462h-.47c-1.47 0-1.69-1.03-1.69-1.64v-4.58c0-.61.22-1.64 1.69-1.64h.47c1.47 0 1.69 1.03 1.69 1.64v4.58c0 .61-.22 1.64-1.69 1.64Zm-.64-1.51c.04.01.1.01.18.01h.47c.08 0 .14 0 .18-.01 0-.03.01-.07.01-.13v-4.58c0-.06 0-.1-.01-.13-.04-.01-.1-.01-.18-.01h-.47c-.08 0-.14 0-.18.01 0 .03-.01.07-.01.13v4.58c0 .06 0 .1.01.13Z" fill="#292D32"/></svg>