<svg width="24" height="24" fill="none" xmlns="http://www.w3.org/2000/svg"><path d="M12 16.75c-.4 0-.8-.03-1.18-.1-2.12-.31-4.05-1.53-5.27-3.34A7.767 7.767 0 0 1 4.25 9c0-4.27 3.48-7.75 7.75-7.75S19.75 4.73 19.75 9c0 1.54-.45 3.03-1.3 4.31a7.8 7.8 0 0 1-5.3 3.35c-.35.06-.75.09-1.15.09Zm0-14c-3.45 0-6.25 2.8-6.25 6.25 0 1.25.36 2.45 1.04 3.47a6.254 6.254 0 0 0 4.26 2.69c.64.11 1.27.11 1.86 0 1.75-.25 3.3-1.24 4.29-2.7a6.232 6.232 0 0 0 1.04-3.47c.01-3.44-2.79-6.24-6.24-6.24Z" fill="#292D32"/><path d="M6.47 22.588c-.14 0-.27-.02-.41-.05-.65-.15-1.15-.65-1.3-1.3l-.35-1.47a.261.261 0 0 0-.19-.19l-1.65-.39a1.74 1.74 0 0 1-1.28-1.22c-.17-.61 0-1.27.45-1.72l3.9-3.9c.16-.16.38-.24.6-.22.22.02.42.14.55.33.99 1.46 2.54 2.45 4.27 2.7.64.11 1.27.11 1.86 0 1.75-.25 3.3-1.24 4.29-2.7.12-.19.33-.31.55-.33.22-.02.44.06.6.22l3.9 3.9c.45.45.62 1.11.45 1.72a1.74 1.74 0 0 1-1.28 1.22l-1.65.39c-.09.02-.16.09-.19.19l-.35 1.47c-.15.65-.65 1.15-1.3 1.3-.65.16-1.32-.07-1.74-.58l-4.2-4.83-4.2 4.84c-.34.4-.82.62-1.33.62Zm-.38-8.56-3.29 3.29c-.09.09-.08.19-.06.25.01.05.06.15.18.17l1.65.39c.65.15 1.15.65 1.3 1.3l.35 1.47c.03.13.13.17.19.19.06.01.16.02.25-.08l3.83-4.41a7.768 7.768 0 0 1-4.4-2.57Zm7.42 2.56 3.83 4.4c.09.11.2.11.26.09.06-.01.15-.06.19-.19l.35-1.47c.15-.65.65-1.15 1.3-1.3l1.65-.39c.12-.03.17-.12.18-.17.02-.05.03-.16-.06-.25l-3.29-3.29a7.793 7.793 0 0 1-4.41 2.57Z" fill="#292D32"/><path d="M13.891 12.888c-.26 0-.57-.07-.94-.29l-.95-.57-.95.56c-.87.52-1.44.22-1.65.07-.21-.15-.66-.6-.43-1.59l.24-1.03-.8-.74c-.44-.44-.6-.97-.45-1.45.15-.48.59-.82 1.21-.92l1.07-.18.51-1.12c.29-.57.74-.89 1.25-.89s.97.33 1.25.9l.59 1.18.99.12c.61.1 1.05.44 1.21.92.15.48-.01 1.01-.45 1.45l-.83.83.26.93c.23.99-.22 1.44-.43 1.59-.11.09-.35.23-.7.23Zm-4.28-4.5.69.69c.32.32.48.86.38 1.3l-.19.8.8-.47c.43-.25 1.01-.25 1.43 0l.8.47-.18-.8c-.1-.45.05-.98.37-1.3l.69-.69-.87-.15c-.42-.07-.84-.38-1.03-.76l-.5-.98-.5 1c-.18.37-.6.69-1.02.76l-.87.13Z" fill="#292D32"/></svg>