<svg width="24" height="24" fill="none" xmlns="http://www.w3.org/2000/svg"><path d="M10 14.75H6.2c-3.42 0-4.95-1.53-4.95-4.95V6.2c0-3.42 1.53-4.95 4.95-4.95h3.6c3.42 0 4.95 1.53 4.95 4.95V10c0 .41-.33.74-.74.75-2.4.04-3.22.87-3.26 3.26-.01.41-.34.74-.75.74Zm-3.8-12c-2.58 0-3.45.87-3.45 3.45v3.6c0 2.58.87 3.45 3.45 3.45h3.09c.24-2.44 1.52-3.71 3.96-3.96V6.2c0-2.58-.87-3.45-3.45-3.45H6.2Z" fill="#292D32"/><path d="M5.2 6.629c-.23 0-.47-.11-.61-.32a.753.753 0 0 1 .18-1.05c.78-.55 1.83-.56 2.62-.02.34.23.43.7.2 1.04-.23.34-.7.43-1.04.2a.8.8 0 0 0-.9.01c-.15.1-.3.14-.45.14ZM9.2 6.629c-.23 0-.47-.11-.61-.32a.753.753 0 0 1 .18-1.05c.78-.55 1.83-.56 2.62-.02.34.23.43.7.2 1.04-.23.34-.7.43-1.04.2a.8.8 0 0 0-.9.01c-.15.1-.3.14-.45.14ZM8.16 12.17H5.84c-.71 0-1.29-.58-1.29-1.29 0-1.9 1.55-3.45 3.45-3.45.78 0 1.55.27 2.16.76.32.26.38.73.12 1.05-.26.32-.73.37-1.05.12-.35-.28-.77-.43-1.22-.43-1 0-1.83.76-1.94 1.74h2.1c.41 0 .75.34.75.75s-.35.75-.76.75ZM17.8 22.75h-3.6c-3.42 0-4.95-1.53-4.95-4.95V14c.06-3.19 1.56-4.69 4.74-4.75h3.81c3.42 0 4.95 1.53 4.95 4.95v3.6c0 3.42-1.53 4.95-4.95 4.95Zm-3.8-12c-2.38.04-3.21.87-3.25 3.26v3.79c0 2.58.87 3.45 3.45 3.45h3.6c2.58 0 3.45-.87 3.45-3.45v-3.6c0-2.58-.87-3.45-3.45-3.45H14Z" fill="#292D32"/><path d="M14.09 14.628c-.47 0-.93-.14-1.32-.42a.753.753 0 1 1 .87-1.23.8.8 0 0 0 .9.01c.34-.23.81-.15 1.04.2.23.34.15.81-.2 1.04-.39.27-.84.4-1.29.4ZM18.09 14.628c-.47 0-.93-.14-1.32-.42a.753.753 0 1 1 .87-1.23.8.8 0 0 0 .9.01c.34-.23.81-.15 1.04.2.23.34.15.81-.2 1.04-.39.27-.84.4-1.29.4ZM16 20.17c-1.9 0-3.45-1.55-3.45-3.45 0-.71.58-1.29 1.29-1.29h4.32c.71 0 1.29.58 1.29 1.29 0 1.9-1.55 3.45-3.45 3.45Zm-1.94-3.24c.1.98.93 1.74 1.94 1.74 1.01 0 1.83-.76 1.94-1.74h-3.88Z" fill="#292D32"/></svg>