<svg width="24" height="24" fill="none" xmlns="http://www.w3.org/2000/svg"><path d="M17.66 22.67c-.53 0-1.21-.17-2.06-.67l-2.99-1.77c-.31-.18-.91-.18-1.21 0L8.4 22c-1.77 1.05-2.81.63-3.28.29-.46-.34-1.18-1.21-.71-3.21l.71-3.07c.08-.32-.08-.87-.32-1.11l-2.48-2.48c-1.24-1.24-1.14-2.3-.97-2.82.17-.52.71-1.44 2.43-1.73l3.19-.53c.3-.05.73-.37.86-.64L9.6 3.17c.8-1.61 1.85-1.85 2.4-1.85.55 0 1.6.24 2.4 1.85l1.76 3.52c.14.27.57.59.87.64l3.19.53c1.73.29 2.27 1.21 2.43 1.73.16.52.26 1.58-.97 2.82L19.2 14.9c-.24.24-.39.78-.32 1.11l.71 3.07c.46 2-.25 2.87-.71 3.21-.25.18-.65.38-1.22.38ZM12 18.59c.49 0 .98.12 1.37.35l2.99 1.77c.87.52 1.42.52 1.63.37.21-.15.36-.68.14-1.66l-.71-3.07c-.19-.83.12-1.9.72-2.51l2.48-2.48c.49-.49.71-.97.61-1.3-.11-.33-.57-.6-1.25-.71l-3.19-.53c-.77-.13-1.61-.75-1.96-1.45l-1.76-3.52c-.32-.64-.72-1.02-1.07-1.02-.35 0-.75.38-1.06 1.02L9.17 7.37c-.35.7-1.19 1.32-1.96 1.45l-3.18.53c-.68.11-1.14.38-1.25.71-.11.33.12.82.61 1.3l2.48 2.48c.6.6.91 1.68.72 2.51l-.71 3.07c-.23.99-.07 1.51.14 1.66.21.15.75.14 1.63-.37l2.99-1.77c.38-.23.87-.35 1.36-.35Z" fill="#292D32"/></svg>