<svg width="24" height="24" fill="none" xmlns="http://www.w3.org/2000/svg"><path d="M17.45 17.302c-1.68 0-3.23-.79-4.24-2.18-.24-.33-.17-.8.16-1.05s.8-.17 1.05.16c.73.99 1.83 1.56 3.03 1.56 2.09 0 3.8-1.7 3.8-3.8 0-2.1-1.7-3.8-3.8-3.8-1.42 0-2.76.76-3.49 1.97l-2.65 4.41c-1 1.67-2.83 2.7-4.77 2.7a5.31 5.31 0 0 1-5.3-5.3c0-2.92 2.38-5.3 5.3-5.3 1.68 0 3.23.79 4.24 2.18.24.33.17.8-.16 1.05a.76.76 0 0 1-1.05-.16c-.73-.99-1.83-1.56-3.03-1.56-2.09 0-3.8 1.7-3.8 3.8 0 2.1 1.7 3.8 3.8 3.8 1.42 0 2.76-.76 3.49-1.97l2.65-4.41c1-1.67 2.83-2.7 4.77-2.7 2.92 0 5.3 2.38 5.3 5.3s-2.38 5.3-5.3 5.3Z" fill="#292D32"/></svg>