<svg width="24" height="24" fill="none" xmlns="http://www.w3.org/2000/svg"><path d="M4.64 18.64 16.99 7.32c.51-.47.5-1.22-.04-1.67L13.1 2.44c-1-.83-1.82-.45-1.82.85v17.42c0 1.3.82 1.68 1.82.85l3.85-3.21c.54-.45.55-1.2.04-1.67L4.64 5.36" stroke="#292D32" stroke-width="1.5" stroke-miterlimit="10" stroke-linecap="round" stroke-linejoin="round"/><path opacity=".4" d="M5 13a1 1 0 1 0 0-2 1 1 0 0 0 0 2ZM19 13a1 1 0 1 0 0-2 1 1 0 0 0 0 2Z" stroke="#292D32" stroke-width="1.5" stroke-miterlimit="10" stroke-linecap="round" stroke-linejoin="round"/></svg>