<svg width="24" height="24" fill="none" xmlns="http://www.w3.org/2000/svg"><g opacity=".4" stroke="#292D32" stroke-width="1.5" stroke-miterlimit="10" stroke-linecap="round" stroke-linejoin="round"><path d="M5.54 11.117c-4.68.33-4.68 7.14 0 7.47h1.92M5.59 11.119c-3.21-8.93 10.33-12.5 11.88-3.12 4.33.55 6.08 6.32 2.8 9.19-1 .91-2.29 1.41-3.64 1.4h-.09"/></g><path d="M17 16.531c0 .74-.16 1.44-.46 2.06-.08.18-.17.35-.27.51a4.961 4.961 0 0 1-4.27 2.43c-1.82 0-3.41-.98-4.27-2.43-.1-.16-.19-.33-.27-.51-.3-.62-.46-1.32-.46-2.06 0-2.76 2.24-5 5-5s5 2.24 5 5Z" stroke="#292D32" stroke-width="1.5" stroke-miterlimit="10" stroke-linecap="round" stroke-linejoin="round"/><path d="m10.44 16.53.99.99 2.13-1.97" stroke="#292D32" stroke-width="1.5" stroke-linecap="round" stroke-linejoin="round"/></svg>