<svg width="24" height="24" fill="none" xmlns="http://www.w3.org/2000/svg"><path d="M20 9.6c0-4-1.6-5.6-5.6-5.6H9.6C5.6 4 4 5.6 4 9.6v4.8c0 4 1.6 5.6 5.6 5.6" stroke="#292D32" stroke-width="1.5" stroke-linecap="round" stroke-linejoin="round"/><path d="M16.35 8c-.55-.7-1.47-1-2.85-1h-3C8 7 7 8 7 10.5v3c0 1.38.3 2.3.99 2.85" stroke="#292D32" stroke-width="1.5" stroke-linecap="round" stroke-linejoin="round"/><path opacity=".4" d="M8.01 4V2M12 4V2M16 4V2M20 8h2M8.01 20v2M2 8h2M2 12h2M2 16h2" stroke="#292D32" stroke-width="1.5" stroke-linecap="round" stroke-linejoin="round"/><path opacity=".4" d="M16.71 18.59a1.59 1.59 0 1 0 0-3.18 1.59 1.59 0 0 0 0 3.18Z" stroke="#292D32" stroke-width="1.5" stroke-miterlimit="10" stroke-linecap="round" stroke-linejoin="round"/><path d="M11.41 17.462v-.93c0-.55.45-1 1-1 .96 0 1.35-.68.87-1.51a1 1 0 0 1 .37-1.37l.91-.53c.42-.25.96-.1 1.21.32l.06.1c.48.83 1.26.83 1.74 0l.06-.1c.25-.42.79-.56 1.21-.32l.91.53c.48.28.65.89.37 1.37-.48.83-.09 1.51.87 1.51.55 0 1 .45 1 1v.93c0 .55-.45 1-1 1-.96 0-1.35.68-.87 1.51a1 1 0 0 1-.37 1.37l-.91.53c-.42.25-.96.1-1.21-.32l-.06-.1c-.48-.83-1.26-.83-1.74 0l-.06.1c-.25.42-.79.56-1.21.32l-.91-.53c-.48-.28-.65-.89-.37-1.37.48-.83.09-1.51-.87-1.51a.99.99 0 0 1-1-1Z" stroke="#292D32" stroke-width="1.5" stroke-miterlimit="10" stroke-linecap="round" stroke-linejoin="round"/></svg>