<svg width="24" height="24" fill="none" xmlns="http://www.w3.org/2000/svg"><path d="m15.03 10.77 5.66-3.79c.57-.38.72-1.16.34-1.72l-1.82-2.71c-.38-.57-1.16-.72-1.72-.34L11.83 6l3.2 4.77Z" stroke="#292D32" stroke-width="1.5" stroke-linecap="round" stroke-linejoin="round"/><path d="m12.174 6.48-4.778 3.2 2.56 3.822 4.778-3.2-2.56-3.822ZM5.83 15.898l3.95-2.64-2.24-3.34-3.95 2.64c-.46.31-.58.93-.27 1.39l1.13 1.68c.3.45.92.57 1.38.27Z" stroke="#292D32" stroke-width="1.5" stroke-linecap="round" stroke-linejoin="round"/><path opacity=".4" d="M12.05 12.2 7.56 22M12 12.2l4.44 9.8" stroke="#292D32" stroke-width="1.5" stroke-linecap="round" stroke-linejoin="round"/></svg>