<svg width="24" height="24" fill="none" xmlns="http://www.w3.org/2000/svg"><path d="M22 11.89v.89c0 3.56-.89 4.44-4.44 4.44H6.44c-3.55 0-4.44-.89-4.44-4.44V6.44C2 2.89 2.89 2 6.44 2H8" stroke="#292D32" stroke-width="1.5" stroke-linecap="round" stroke-linejoin="round"/><path opacity=".4" d="M12 17.219v4.78M2 13h20" stroke="#292D32" stroke-width="1.5" stroke-linecap="round" stroke-linejoin="round"/><path d="M7.5 22h9M17.86 9.372H13.1c-1.38 0-1.84-.92-1.84-1.84v-3.52c0-1.1.9-2 2-2h4.6c1.02 0 1.84.82 1.84 1.84v3.68c0 1.02-.82 1.84-1.84 1.84ZM20.91 7.919l-1.21-.85v-2.76l1.21-.85c.6-.41 1.09-.16 1.09.57v3.33c0 .73-.49.98-1.09.56Z" stroke="#292D32" stroke-width="1.5" stroke-linecap="round" stroke-linejoin="round"/></svg>