<svg width="24" height="24" fill="none" xmlns="http://www.w3.org/2000/svg"><path opacity=".4" d="M7.25 7h9.5V5c0-2-.75-3-3-3h-3.5c-2.25 0-3 1-3 3v2Z" stroke="#292D32" stroke-width="1.5" stroke-miterlimit="10" stroke-linecap="round" stroke-linejoin="round"/><path d="M12.97 15H16v4c0 2-1 3-3 3h-2c-1.69 0-2.67-.71-2.93-2.14M6 18c-2 0-3-1-3-3v-5c0-2 1-3 3-3h10.59" stroke="#292D32" stroke-width="1.5" stroke-miterlimit="10" stroke-linecap="round" stroke-linejoin="round"/><path d="M19.97 7.52C20.66 8 21 8.83 21 10v5c0 2-1 3-3 3h-2v-3h-3M17 15h-1.21" stroke="#292D32" stroke-width="1.5" stroke-miterlimit="10" stroke-linecap="round" stroke-linejoin="round"/><path opacity=".4" d="M7 11h2" stroke="#292D32" stroke-width="1.5" stroke-miterlimit="10" stroke-linecap="round" stroke-linejoin="round"/><path d="M22 2 2 22" stroke="#292D32" stroke-width="1.5" stroke-linecap="round" stroke-linejoin="round"/></svg>