<svg width="24" height="24" fill="none" xmlns="http://www.w3.org/2000/svg"><path d="m19.54 6.54-3.07-3.07A5.003 5.003 0 0 0 12.93 2H8C5 2 3 4 3 7v10c0 3 2 5 5 5h8c3 0 5-2 5-5v-6.93c0-1.33-.53-2.6-1.46-3.53Z" stroke="#292D32" stroke-width="1.5" stroke-linecap="round" stroke-linejoin="round"/><g opacity=".4" stroke="#292D32" stroke-width="1.5" stroke-linecap="round" stroke-linejoin="round"><path d="M10 18.5h4c1.65 0 3-1.35 3-3v-3c0-1.65-1.35-3-3-3h-4c-1.65 0-3 1.35-3 3v3c0 1.65 1.35 3 3 3ZM12 9.5v9M7.5 14h9"/></g></svg>