<svg width="24" height="24" fill="none" xmlns="http://www.w3.org/2000/svg"><path d="M16 12.692v5.39c0 2.34-1.56 3.89-3.89 3.89H5.89c-2.33 0-3.89-1.55-3.89-3.89v-7.77c0-2.34 1.56-3.89 3.89-3.89h3.83c1.03 0 2.02.41 2.75 1.14l2.39 2.38c.73.73 1.14 1.72 1.14 2.75Z" stroke="#292D32" stroke-width="1.5" stroke-linecap="round" stroke-linejoin="round"/><path opacity=".4" d="M22 8.249v5.39c0 2.33-1.56 3.89-3.89 3.89H16v-4.84c0-1.03-.41-2.02-1.14-2.75l-2.39-2.38a3.89 3.89 0 0 0-2.75-1.14H8v-.56c0-2.33 1.56-3.89 3.89-3.89h3.83c1.03 0 2.02.41 2.75 1.14l2.39 2.39A3.89 3.89 0 0 1 22 8.249Z" stroke="#292D32" stroke-width="1.5" stroke-linecap="round" stroke-linejoin="round"/></svg>