<svg width="24" height="24" fill="none" xmlns="http://www.w3.org/2000/svg"><path opacity=".4" d="M20.68 6.32v13.63c0 1.8-1.29 2.56-2.86 1.69l-4.88-2.72c-.52-.28-1.36-.28-1.88 0l-4.88 2.72c-.42.23-.82.35-1.18.36L20.68 6.32Z" fill="#292D32"/><path d="M20.12 3.88 3.39 20.61c-.05-.2-.07-.42-.07-.66V5.86C3.32 3.74 5.05 2 7.18 2h9.64c1.4 0 2.63.75 3.3 1.88Z" fill="#292D32"/><path d="M21.77 2.229c-.3-.3-.79-.3-1.09 0L2.23 20.689c-.3.3-.3.79 0 1.09a.758.758 0 0 0 1.08-.01l18.46-18.46c.31-.3.31-.78 0-1.08Z" fill="#292D32"/></svg>