<svg width="24" height="24" fill="none" xmlns="http://www.w3.org/2000/svg"><path opacity=".4" d="M16.82 2H7.18C5.05 2 3.32 3.74 3.32 5.86v14.09c0 1.8 1.29 2.56 2.87 1.69l4.88-2.71c.52-.29 1.36-.29 1.87 0l4.88 2.71c1.58.88 2.87.12 2.87-1.69V5.86C20.68 3.74 18.95 2 16.82 2Z" fill="#292D32"/><path d="M14.5 9.9h-1.75V8.21c0-.41-.34-.75-.75-.75s-.75.34-.75.75V9.9H9.5c-.41 0-.75.34-.75.75s.34.75.75.75h1.75v1.81c0 .41.34.75.75.75s.75-.34.75-.75V11.4h1.75c.41 0 .75-.34.75-.75s-.34-.75-.75-.75Z" fill="#292D32"/></svg>