<svg width="24" height="24" fill="none" xmlns="http://www.w3.org/2000/svg"><path opacity=".4" d="M16 8.989v11.36c0 1.45-1.04 2.06-2.31 1.36l-3.93-2.19c-.42-.23-1.1-.23-1.52 0l-3.93 2.19c-1.27.7-2.31.09-2.31-1.36V8.989c0-1.71 1.4-3.11 3.11-3.11h7.78c1.71 0 3.11 1.4 3.11 3.11Z" fill="#292D32"/><path d="M22 5.11v11.36c0 1.45-1.04 2.06-2.31 1.36L16 15.77V8.99c0-1.71-1.4-3.11-3.11-3.11H8v-.77C8 3.4 9.4 2 11.11 2h7.78C20.6 2 22 3.4 22 5.11ZM11 11.25H9.75V10c0-.41-.34-.75-.75-.75s-.75.34-.75.75v1.25H7c-.41 0-.75.34-.75.75s.34.75.75.75h1.25V14c0 .41.34.75.75.75s.75-.34.75-.75v-1.25H11c.41 0 .75-.34.75-.75s-.34-.75-.75-.75Z" fill="#292D32"/></svg>