<svg width="24" height="24" fill="none" xmlns="http://www.w3.org/2000/svg"><path d="M2 13.01V15c0 5 2 7 7 7h6c5 0 7-2 7-7V9c0-5-2-7-7-7H9C4 2 2 4 2 9" stroke="#292D32" stroke-width="1.5" stroke-linecap="round" stroke-linejoin="round"/><path d="M15.57 18.502v-3.9M15.57 7.45V5.5M12.98 10.05c0-1.44 1.16-2.6 2.6-2.6 1.44 0 2.6 1.16 2.6 2.6 0 1.44-1.16 2.6-2.6 2.6M8.43 18.5v-1.95M8.43 9.4V5.5M8.43 16.552a2.6 2.6 0 1 0 0-5.2 2.6 2.6 0 0 0 0 5.2Z" stroke="#292D32" stroke-width="1.5" stroke-miterlimit="10" stroke-linecap="round" stroke-linejoin="round"/></svg>