<svg width="24" height="24" fill="none" xmlns="http://www.w3.org/2000/svg"><path d="M3 13.08v1.8C3 17 3 17 5 18.35l5.5 3.18c.83.48 2.18.48 3 0l5.5-3.18c2-1.35 2-1.35 2-3.46V9.11C21 7 21 7 19 5.65l-5.5-3.18c-.82-.48-2.17-.48-3 0L5 5.65C3 7 3 7 3 9.11" stroke="#292D32" stroke-width="1.5" stroke-linecap="round" stroke-linejoin="round"/><path d="M15 12c0-1.66-1.34-3-3-3s-3 1.34-3 3a2.996 2.996 0 0 0 4.17 2.76" stroke="#292D32" stroke-width="1.5" stroke-miterlimit="10" stroke-linecap="round" stroke-linejoin="round"/></svg>