<svg width="24" height="24" fill="none" xmlns="http://www.w3.org/2000/svg"><path opacity=".4" d="M19.24 5.579h-.4l-3.38-3.38a.706.706 0 0 0-.99 0c-.27.27-.27.71 0 .99l2.39 2.39H7.14l2.39-2.39c.27-.27.27-.71 0-.99a.706.706 0 0 0-.99 0l-3.37 3.38h-.4c-.9 0-2.77 0-2.77 2.56 0 .97.2 1.61.62 2.03.24.25.53.38.84.45.29.07.6.08.9.08h15.28c.31 0 .6-.02.88-.08.84-.2 1.48-.8 1.48-2.48 0-2.56-1.87-2.56-2.76-2.56Z" fill="#292D32"/><path d="M19.66 10.7H4.36c-.29 0-.61-.01-.9-.09l1.26 7.69c.29 1.72 1.04 3.7 4.37 3.7h5.61c3.37 0 3.97-1.69 4.33-3.58l1.51-7.81c-.28.07-.58.09-.88.09Zm-4.78 4.35-3.25 3c-.14.13-.33.2-.51.2-.19 0-.38-.07-.53-.22l-1.5-1.5a.754.754 0 0 1 0-1.06c.29-.29.77-.29 1.06 0l.99.99 2.72-2.51c.3-.28.78-.26 1.06.04.29.31.27.78-.04 1.06Z" fill="#292D32"/></svg>