<svg width="24" height="24" fill="none" xmlns="http://www.w3.org/2000/svg"><path opacity=".4" d="M16.19 8.858c-.39 0-.7-.31-.7-.7v-1.28a3.482 3.482 0 0 0-3.83-3.47c-1.68.16-3.15 1.87-3.15 3.65v.9c0 .39-.31.7-.7.7-.39 0-.7-.31-.7-.7v-.9c0-2.5 2.02-4.81 4.41-5.04 1.39-.13 2.73.31 3.76 1.25 1.02.92 1.6 2.24 1.6 3.61v1.28c0 .39-.31.7-.69.7Z" fill="#292D32"/><path d="M19.96 8.958c-.84-.93-2.22-1.38-4.24-1.38H8.28c-2.02 0-3.4.45-4.24 1.38-.97 1.08-.94 2.52-.83 3.52l.7 5.57c.21 1.95 1 3.95 5.3 3.95h5.58c4.3 0 5.09-2 5.3-3.94l.7-5.59c.11-.99.14-2.43-.83-3.51ZM12 18.578c-2.09 0-3.79-1.7-3.79-3.79s1.7-3.79 3.79-3.79 3.79 1.7 3.79 3.79-1.7 3.79-3.79 3.79Z" fill="#292D32"/><path opacity=".4" d="M12 18.58a3.79 3.79 0 1 0 .001-7.58 3.79 3.79 0 0 0 0 7.58Z" fill="#292D32"/><path d="M11.43 16.64c-.19 0-.38-.07-.53-.22l-.99-.99a.754.754 0 0 1 0-1.06c.29-.29.77-.29 1.06 0l.48.48 1.6-1.48c.3-.28.78-.26 1.06.04s.26.78-.04 1.06l-2.13 1.97c-.15.13-.33.2-.51.2Z" fill="#292D32"/></svg>