<svg width="24" height="24" fill="none" xmlns="http://www.w3.org/2000/svg"><path opacity=".4" d="M17 20.5H7c-3 0-5-1.5-5-5v-7c0-3.5 2-5 5-5h10c3 0 5 1.5 5 5v7c0 3.5-2 5-5 5Z" fill="#292D32"/><path d="M6 16.75c-.41 0-.75-.34-.75-.75V8c0-.41.34-.75.75-.75s.75.34.75.75v8c0 .41-.34.75-.75.75ZM9 12.75c-.41 0-.75-.34-.75-.75V8c0-.41.34-.75.75-.75s.75.34.75.75v4c0 .41-.34.75-.75.75ZM9 16.75c-.41 0-.75-.34-.75-.75v-1c0-.41.34-.75.75-.75s.75.34.75.75v1c0 .41-.34.75-.75.75ZM15 9.75c-.41 0-.75-.34-.75-.75V8c0-.41.34-.75.75-.75s.75.34.75.75v1c0 .41-.34.75-.75.75ZM12 16.75c-.41 0-.75-.34-.75-.75V8c0-.41.34-.75.75-.75s.75.34.75.75v8c0 .41-.34.75-.75.75ZM15 16.75c-.41 0-.75-.34-.75-.75v-4c0-.41.34-.75.75-.75s.75.34.75.75v4c0 .41-.34.75-.75.75ZM18 16.75c-.41 0-.75-.34-.75-.75V8c0-.41.34-.75.75-.75s.75.34.75.75v8c0 .41-.34.75-.75.75Z" fill="#292D32"/></svg>