<svg width="24" height="24" fill="none" xmlns="http://www.w3.org/2000/svg"><path d="M7.93 16.28c-.1-.11-.21-.22-.33-.31C6.9 15.36 6 15 5 15c-.71 0-1.38.19-1.96.52-.19.1-.37.22-.54.36A3.97 3.97 0 0 0 1 19c0 .75.21 1.46.58 2.06.09.16.2.31.32.45.02.03.05.05.07.08C2.69 22.45 3.78 23 5 23c1.01 0 1.93-.37 2.63-1 .04-.03.07-.06.1-.1.27-.23.5-.52.69-.84.37-.6.58-1.31.58-2.06 0-1.05-.41-2-1.07-2.72ZM6.5 19.73H3.51c-.41 0-.75-.34-.75-.75s.34-.75.75-.75H6.5c.41 0 .75.34.75.75s-.34.75-.75.75Z" fill="#292D32"/><path opacity=".4" d="M21.05 11.71v5.99c0 2.76-2.24 5-5 5H7.31c-.23 0-.46-.02-.68-.05.37-.16.7-.38 1-.65.04-.03.07-.06.1-.1.27-.23.5-.52.69-.84.37-.6.58-1.31.58-2.06 0-1.05-.41-2-1.07-2.72-.1-.11-.21-.22-.33-.31C6.9 15.36 6 15 5 15c-.71 0-1.38.19-1.96.52-.19.1-.37.22-.54.36-.07.05-.13.11-.19.17v-4.27c.76.82 1.84 1.29 3.01 1.29 1.26 0 2.47-.63 3.23-1.64a3.754 3.754 0 0 0 3.13 1.64c1.28 0 2.42-.6 3.11-1.6.77.99 1.96 1.6 3.2 1.6 1.21 0 2.31-.49 3.06-1.36Z" fill="#292D32"/><path d="M14.669 1.57h-6l-.74 7.36c-.06.68.04 1.32.29 1.9.58 1.36 1.94 2.24 3.46 2.24 1.54 0 2.87-.86 3.47-2.23.18-.43.29-.93.3-1.44v-.19l-.78-7.64Z" fill="#292D32"/><path opacity=".6" d="m22.04 8.589-.28-2.78c-.42-3.02-1.79-4.25-4.72-4.25H13.2l.74 7.5c.01.1.02.21.02.4.06.52.22 1 .46 1.43.72 1.32 2.12 2.17 3.58 2.17 1.33 0 2.53-.59 3.28-1.63.59-.79.86-1.8.76-2.84ZM6.27 1.57c-2.94 0-4.3 1.23-4.73 4.28L1.27 8.6c-.1 1.07.19 2.11.82 2.92.76.99 1.93 1.55 3.23 1.55 1.46 0 2.86-.85 3.57-2.15.26-.45.43-.97.48-1.51l.78-7.83H6.27v-.01Z" fill="#292D32"/></svg>