<svg width="24" height="24" fill="none" xmlns="http://www.w3.org/2000/svg"><path opacity=".4" d="M21.37 11.39v5.99c0 2.76-2.24 5-5 5H7.63c-2.76 0-5-2.24-5-5v-5.92c.76.82 1.84 1.29 3.01 1.29 1.26 0 2.47-.63 3.23-1.64A3.754 3.754 0 0 0 12 12.75c1.28 0 2.42-.6 3.11-1.6.77.99 1.96 1.6 3.2 1.6 1.21 0 2.31-.49 3.06-1.36Z" fill="#292D32"/><path d="M14.99 1.25h-6l-.74 7.36c-.06.68.04 1.32.29 1.9.58 1.36 1.94 2.24 3.46 2.24 1.54 0 2.87-.86 3.47-2.23.18-.43.29-.93.3-1.44v-.19l-.78-7.64Z" fill="#292D32"/><path opacity=".6" d="m22.36 8.27-.29-2.77c-.42-3.02-1.79-4.25-4.72-4.25h-3.84l.74 7.5c.01.1.02.21.02.4.06.52.22 1 .46 1.43.72 1.32 2.12 2.17 3.58 2.17 1.33 0 2.53-.59 3.28-1.63.6-.8.87-1.81.77-2.85ZM6.59 1.25c-2.94 0-4.3 1.23-4.73 4.28l-.27 2.75c-.1 1.07.19 2.11.82 2.92.76.99 1.93 1.55 3.23 1.55 1.46 0 2.86-.85 3.57-2.15.26-.45.43-.97.48-1.51l.78-7.83H6.59v-.01Z" fill="#292D32"/><path d="M11.35 16.66a2.495 2.495 0 0 0-2.23 2.49v3.23h5.75V19.5c.01-2.09-1.22-3.08-3.52-2.84Z" fill="#292D32"/></svg>