<svg width="24" height="24" fill="none" xmlns="http://www.w3.org/2000/svg"><path d="m19.27 3.648-5.1 5.1H3.2c-.66 0-1.2-.54-1.2-1.2v-.01c0-2.29 1.85-4.14 4.14-4.14h11.71c.5 0 .98.09 1.42.25ZM12.67 10.25l-5.5 5.5H6c-.41 0-.75.34-.75.75 0 .31.2.59.48.69l-2.35 2.35A4.087 4.087 0 0 1 2 16.46v-5.01c0-.66.54-1.2 1.2-1.2h9.47ZM21.999 11v5.46c0 2.29-1.85 4.14-4.14 4.14h-9.05c-.89 0-1.34-1.08-.71-1.71l1.35-1.35a.99.99 0 0 1 .71-.29h4.34c.41 0 .75-.34.75-.75s-.34-.75-.75-.75h-.84c-.89 0-1.34-1.08-.71-1.71l3.46-3.46c.38-.37.89-.58 1.42-.58h3.17c.55 0 1 .45 1 1Z" fill="#292D32"/><path d="M21.769 2.229c-.3-.3-.79-.3-1.09 0l-18.45 18.46c-.3.3-.3.79 0 1.09a.758.758 0 0 0 1.08-.01l18.46-18.46c.31-.3.31-.78 0-1.08Z" fill="#292D32"/><path d="m21.769 3.309-1.16 1.16-4.28 4.28-13.02 13.02c-.15.15-.34.23-.54.23s-.39-.08-.54-.23a.743.743 0 0 1 0-1.08l1.15-1.15 2.35-2.35 13.54-13.54 1.42-1.42c.3-.31.78-.31 1.08 0 .31.3.31.78 0 1.08ZM22 7.41c0-.89-1.08-1.34-1.71-.71L20 7l-.29.29c-.63.63-.19 1.71.7 1.71H21c.55 0 1-.45 1-1v-.59Z" fill="#292D32"/></svg>