<svg width="24" height="24" fill="none" xmlns="http://www.w3.org/2000/svg"><path d="M2 11.46v5c0 2.29 1.85 4.14 4.14 4.14h11.71c2.29 0 4.15-1.86 4.15-4.15v-4.99c0-.67-.54-1.21-1.21-1.21H3.21c-.67 0-1.21.54-1.21 1.21Zm6 5.79H6c-.41 0-.75-.34-.75-.75s.34-.75.75-.75h2c.41 0 .75.34.75.75s-.34.75-.75.75Zm6.5 0h-4c-.41 0-.75-.34-.75-.75s.34-.75.75-.75h4c.41 0 .75.34.75.75s-.34.75-.75.75ZM13.5 4.608v2.93c0 .67-.54 1.21-1.21 1.21H3.21c-.68 0-1.21-.56-1.21-1.23.01-1.13.46-2.16 1.21-2.91S5 3.398 6.14 3.398h6.15c.67 0 1.21.54 1.21 1.21ZM19.97 2h-2.94C15.76 2 15 2.76 15 4.03v2.94C15 8.24 15.76 9 17.03 9h2.94C21.24 9 22 8.24 22 6.97V4.03C22 2.76 21.24 2 19.97 2Zm.37 4.49c.11.13.17.27.17.44 0 .14-.06.3-.17.41a.61.61 0 0 1-.85 0l-.99-.99-.98 1c-.23.23-.62.23-.86-.01a.61.61 0 0 1 0-.85l1-.98-.99-.99a.622.622 0 0 1-.01-.86c.23-.24.62-.23.86.01l.98.99 1-1a.61.61 0 0 1 .85 0c.11.13.16.28.17.44 0 .14-.06.3-.16.42l-1 1 .98.97Z" fill="#292D32"/></svg>