<svg width="24" height="24" fill="none" xmlns="http://www.w3.org/2000/svg"><path d="M2 11.46v5c0 2.29 1.85 4.14 4.14 4.14h11.71c2.29 0 4.15-1.86 4.15-4.15v-4.99c0-.67-.54-1.21-1.21-1.21H3.21c-.67 0-1.21.54-1.21 1.21Zm6 5.79H6c-.41 0-.75-.34-.75-.75s.34-.75.75-.75h2c.41 0 .75.34.75.75s-.34.75-.75.75Zm6.5 0h-4c-.41 0-.75-.34-.75-.75s.34-.75.75-.75h4c.41 0 .75.34.75.75s-.34.75-.75.75ZM13.5 4.608v2.93c0 .67-.54 1.21-1.21 1.21H3.21c-.68 0-1.21-.56-1.21-1.23.01-1.13.46-2.16 1.21-2.91S5 3.398 6.14 3.398h6.15c.67 0 1.21.54 1.21 1.21ZM19.97 2h-2.94C15.76 2 15 2.76 15 4.03v2.94C15 8.24 15.76 9 17.03 9h2.94C21.24 9 22 8.24 22 6.97V4.03C22 2.76 21.24 2 19.97 2Zm.94 3.93c-.1.1-.25.17-.41.18h-1.41l.01 1.39c-.01.17-.07.31-.19.43-.1.1-.25.17-.41.17-.33 0-.6-.27-.6-.6V6.1l-1.4.01a.61.61 0 0 1-.6-.61c0-.33.27-.6.6-.6l1.4.01v-1.4c0-.33.27-.61.6-.61.33 0 .6.28.6.61l-.01 1.39h1.41c.33 0 .6.27.6.6a.68.68 0 0 1-.19.43Z" fill="#292D32"/></svg>