<svg width="24" height="24" fill="none" xmlns="http://www.w3.org/2000/svg"><path d="M19.97 8.75h-2.94c-1.27 0-2.03-.76-2.03-2.03V3.78c0-1.27.76-2.03 2.03-2.03h2.94c1.27 0 2.03.76 2.03 2.03v2.94c0 1.27-.76 2.03-2.03 2.03Zm.22-3.31a.62.62 0 0 0-.44-.18.62.62 0 0 0-.44.18l-.18.18V3.38c0-.35-.28-.63-.63-.63s-.63.28-.63.63v2.24l-.18-.18a.628.628 0 0 0-.88 0c-.24.24-.24.64 0 .88l1.25 1.25c.05.05.12.09.19.12.02.01.04.01.06.02.05.02.1.03.16.03h.06c.07 0 .13-.01.2-.04h.02c.07-.03.13-.07.18-.12.01-.01.01-.01.02-.01l1.25-1.25c.24-.24.24-.64-.01-.88ZM2 11.46v5c0 2.29 1.85 4.14 4.14 4.14h11.71c2.29 0 4.15-1.86 4.15-4.15v-4.99c0-.67-.54-1.21-1.21-1.21H3.21c-.67 0-1.21.54-1.21 1.21Zm6 5.79H6c-.41 0-.75-.34-.75-.75s.34-.75.75-.75h2c.41 0 .75.34.75.75s-.34.75-.75.75Zm6.5 0h-4c-.41 0-.75-.34-.75-.75s.34-.75.75-.75h4c.41 0 .75.34.75.75s-.34.75-.75.75ZM13.5 4.608v2.93c0 .67-.54 1.21-1.21 1.21H3.21c-.68 0-1.21-.56-1.21-1.23.01-1.13.46-2.16 1.21-2.91S5 3.398 6.14 3.398h6.15c.67 0 1.21.54 1.21 1.21Z" fill="#292D32"/></svg>