<svg width="24" height="24" fill="none" xmlns="http://www.w3.org/2000/svg"><path d="M15.22 6.55H5.78c-.28 0-.54.01-.78.02-2.37.14-3 1.01-3 3.71v.58c0 .55.45 1 1 1h15c.55 0 1-.45 1-1v-.58c0-2.98-.76-3.73-3.78-3.73ZM3 13.36c-.55 0-1 .45-1 1v2.91C2 20.25 2.76 21 5.78 21h9.44c2.97 0 3.75-.72 3.78-3.57v-3.07c0-.55-.45-1-1-1H3Zm3.96 5.2H5.25c-.41 0-.75-.34-.75-.75s.34-.75.75-.75h1.72c.41 0 .75.34.75.75s-.34.75-.76.75Zm5.59 0H9.11c-.41 0-.75-.34-.75-.75s.34-.75.75-.75h3.44a.749.749 0 1 1 0 1.5Z" fill="#292D32"/><path d="M22.002 13.332v-5.24c0-3.13-1.79-4.49-4.49-4.49h-8.93c-.76 0-1.44.11-2.04.34-.47.17-.89.42-1.23.75-.18.17-.04.45.22.45h10.87c2.25 0 4.07 1.82 4.07 4.07v7.17c0 .25.27.39.45.21.69-.73 1.08-1.8 1.08-3.26Z" fill="#292D32"/></svg>