<svg width="24" height="24" fill="none" xmlns="http://www.w3.org/2000/svg"><path d="M12 22.748c-4 0-7.25-2.87-7.25-6.4v-3.7c0-.41.34-.75.75-.75s.75.34.75.75c0 2.62 2.47 4.6 5.75 4.6s5.75-1.98 5.75-4.6c0-.41.34-.75.75-.75s.75.34.75.75v3.7c0 3.53-3.25 6.4-7.25 6.4Zm-5.75-6.29c.07 2.65 2.62 4.79 5.75 4.79s5.68-2.14 5.75-4.79c-1.3 1.41-3.36 2.29-5.75 2.29s-4.44-.88-5.75-2.29Z" fill="#292D32"/><path d="M12 13.75c-2.76 0-5.24-1.24-6.45-3.24-.52-.85-.8-1.84-.8-2.86 0-1.72.77-3.34 2.16-4.56C8.27 1.9 10.08 1.25 12 1.25s3.72.65 5.09 1.83c1.39 1.23 2.16 2.85 2.16 4.57 0 1.02-.28 2-.8 2.86-1.21 2-3.69 3.24-6.45 3.24Zm0-11c-1.56 0-3.02.52-4.11 1.48-1.06.92-1.64 2.14-1.64 3.42 0 .75.2 1.45.58 2.08.95 1.56 2.93 2.52 5.17 2.52 2.24 0 4.22-.97 5.17-2.52.39-.63.58-1.33.58-2.08 0-1.28-.58-2.5-1.65-3.44-1.09-.94-2.54-1.46-4.1-1.46Z" fill="#292D32"/><path d="M12 18.75c-4.13 0-7.25-2.62-7.25-6.1v-5c0-3.53 3.25-6.4 7.25-6.4 1.92 0 3.72.65 5.09 1.83 1.39 1.23 2.16 2.85 2.16 4.57v5c0 3.48-3.12 6.1-7.25 6.1Zm0-16c-3.17 0-5.75 2.2-5.75 4.9v5c0 2.62 2.47 4.6 5.75 4.6s5.75-1.98 5.75-4.6v-5c0-1.28-.58-2.5-1.65-3.44-1.09-.94-2.54-1.46-4.1-1.46Z" fill="#292D32"/></svg>