<svg width="25" height="24" fill="none" xmlns="http://www.w3.org/2000/svg"><path d="M8.259 21.245a3.896 3.896 0 0 0 1.115-2.326 3.865 3.865 0 0 0-1.115-3.18 3.816 3.816 0 0 0-1.817-1.019 3.864 3.864 0 0 0-3.69 1.02 3.801 3.801 0 0 0-1.121 2.498c-.035.392 0 .798.103 1.19.158.668.502 1.301 1.018 1.817a3.893 3.893 0 0 0 5.507 0Zm-1.294-3.469c.399 0 .73.33.73.73a.746.746 0 0 1-.737.736l-.723-.007.007.696a.746.746 0 0 1-.736.736.746.746 0 0 1-.737-.736l.007-.696-.723.007a.746.746 0 0 1-.736-.736.754.754 0 0 1 .73-.73h.729v-.757c0-.206.083-.385.213-.516.131-.13.31-.213.517-.213.399 0 .73.33.73.73v.756h.729ZM15.095 3.845v3.7h-1.46v-3.7c0-.262-.233-.389-.39-.389a.391.391 0 0 0-.145.03L5.38 6.395a1.308 1.308 0 0 0-.847 1.236v.652a3.636 3.636 0 0 0-1.46 2.92V7.632c0-1.158.71-2.19 1.791-2.599l7.729-2.92a1.854 1.854 0 0 1 2.502 1.733ZM21.57 14.116v.973a.486.486 0 0 1-.478.487h-1.421c-.516 0-.983-.38-1.022-.886a.972.972 0 0 1 .282-.779.925.925 0 0 1 .682-.282h1.47c.282.01.486.224.486.487Z" fill="#292D32"/><path d="M19.602 12.604h.993a.976.976 0 0 0 .973-.973v-.428a3.668 3.668 0 0 0-3.66-3.66H6.734c-.827 0-1.587.273-2.2.74a3.636 3.636 0 0 0-1.46 2.92v1.732c0 .37.39.604.74.487a5.282 5.282 0 0 1 1.694-.282 5.363 5.363 0 0 1 5.353 5.353c0 .701-.185 1.47-.477 2.151-.156.35.088.77.467.77h7.057a3.668 3.668 0 0 0 3.66-3.66v-.185a.976.976 0 0 0-.973-.974h-.847c-.934 0-1.83-.574-2.073-1.48a1.96 1.96 0 0 1 .525-1.927 1.94 1.94 0 0 1 1.402-.584Zm-5.334-.194H9.4c-.399 0-.73-.331-.73-.73 0-.4.331-.73.73-.73h4.867c.399 0 .73.33.73.73 0 .399-.331.73-.73.73Z" fill="#292D32"/></svg>