<svg width="24" height="24" fill="none" xmlns="http://www.w3.org/2000/svg"><path d="M5 15c-1.02 0-1.96.39-2.67 1.03-.16.14-.31.29-.44.46A3.96 3.96 0 0 0 1 19c0 2.21 1.8 4 4 4 .96 0 1.83-.34 2.52-.89.56-.47 1-1.08 1.24-1.78.16-.41.24-.86.24-1.33 0-2.2-1.79-4-4-4Zm2.4 3.23c0 .28-.22.49-.49.49s-.49-.21-.49-.49v-.1c0-.11-.08-.2-.19-.2h-2a.483.483 0 0 1-.43.72c-.12 0-.25-.05-.34-.14l-.72-.72a.645.645 0 0 1-.11-.16.585.585 0 0 1 0-.37c.03-.05.06-.12.11-.16l.72-.71c.19-.2.5-.2.68 0 .16.15.18.39.08.57h2.01c.64 0 1.16.52 1.16 1.17v.1h.01Zm-1.2 3.53a.46.46 0 0 1-.35-.14.471.471 0 0 1-.08-.57H3.76c-.64 0-1.16-.52-1.16-1.17v-.1c0-.28.22-.49.49-.49s.49.21.49.49v.1c0 .11.08.2.19.2h2.01c-.1-.19-.08-.42.08-.58.19-.19.5-.19.68 0l.72.72c.04.04.08.1.11.16.04.12.04.25 0 .37-.03.05-.07.11-.11.15l-.72.71c-.09.1-.22.15-.34.15ZM14.85 3.95v3.8h-1.5v-3.8c0-.27-.24-.4-.4-.4-.05 0-.1.01-.15.03L4.87 6.57c-.53.2-.87.7-.87 1.27v.67c-.91.68-1.5 1.77-1.5 3V7.84c0-1.19.73-2.25 1.84-2.67l7.94-3c.22-.08.45-.12.67-.12 1 0 1.9.81 1.9 1.9ZM21.5 14.5v1a.5.5 0 0 1-.49.5h-1.46c-.53 0-1.01-.39-1.05-.91-.03-.31.09-.6.29-.8a.95.95 0 0 1 .7-.29H21c.29.01.5.23.5.5Z" fill="#292D32"/><path d="M19.48 12.95h1.02c.55 0 1-.45 1-1v-.44c0-2.07-1.69-3.76-3.76-3.76H6.26c-.85 0-1.63.28-2.26.76-.91.68-1.5 1.77-1.5 3v1.78c0 .38.4.62.76.5.56-.19 1.15-.29 1.74-.29 3.03 0 5.5 2.47 5.5 5.5 0 .72-.19 1.51-.49 2.21-.16.36.09.79.48.79h7.25c2.07 0 3.76-1.69 3.76-3.76v-.19c0-.55-.45-1-1-1h-.87c-.96 0-1.88-.59-2.13-1.52-.2-.76.04-1.5.54-1.98.37-.38.88-.6 1.44-.6Zm-5.48-.2H9c-.41 0-.75-.34-.75-.75s.34-.75.75-.75h5c.41 0 .75.34.75.75s-.34.75-.75.75Z" fill="#292D32"/></svg>