<svg width="24" height="24" fill="none" xmlns="http://www.w3.org/2000/svg"><path d="M14.85 3.95v3.8h-1.5v-3.8c0-.27-.24-.4-.4-.4-.05 0-.1.01-.15.03L4.87 6.57c-.53.2-.87.7-.87 1.27v.67c-.91.68-1.5 1.77-1.5 3V7.84c0-1.19.73-2.25 1.84-2.67l7.94-3c.22-.08.45-.12.67-.12 1 0 1.9.81 1.9 1.9ZM21.5 14.5v1a.5.5 0 0 1-.49.5h-1.46c-.53 0-1.01-.39-1.05-.91-.03-.31.09-.6.29-.8a.95.95 0 0 1 .7-.29H21c.29.01.5.23.5.5ZM5 15c-.94 0-1.81.33-2.5.88A3.97 3.97 0 0 0 1 19c0 .75.21 1.46.58 2.06A3.97 3.97 0 0 0 5 23c1.01 0 1.93-.37 2.63-1 .31-.26.58-.58.79-.94.37-.6.58-1.31.58-2.06 0-2.21-1.79-4-4-4Zm-1.58 3.46a.754.754 0 0 1 0-1.06c.3-.29.77-.29 1.07 0l.52.53.5-.51c.3-.29.77-.29 1.07 0 .29.3.29.77 0 1.07l-.51.5.53.52c.29.3.29.77 0 1.07a.775.775 0 0 1-1.06 0l-.53-.53-.55.55c-.15.15-.34.22-.53.22s-.38-.07-.53-.22a.754.754 0 0 1 0-1.06l.55-.55-.53-.53Z" fill="#292D32"/><path d="M19.48 12.95h1.02c.55 0 1-.45 1-1v-.44c0-2.07-1.69-3.76-3.76-3.76H6.26c-.85 0-1.63.28-2.26.76-.91.68-1.5 1.77-1.5 3v1.78c0 .38.4.62.76.5.56-.19 1.15-.29 1.74-.29 3.03 0 5.5 2.47 5.5 5.5 0 .72-.19 1.51-.49 2.21-.16.36.09.79.48.79h7.25c2.07 0 3.76-1.69 3.76-3.76v-.19c0-.55-.45-1-1-1h-.87c-.96 0-1.88-.59-2.13-1.52-.2-.76.04-1.5.54-1.98.37-.38.88-.6 1.44-.6Zm-5.48-.2H9c-.41 0-.75-.34-.75-.75s.34-.75.75-.75h5c.41 0 .75.34.75.75s-.34.75-.75.75Z" fill="#292D32"/></svg>