<svg width="24" height="24" fill="none" xmlns="http://www.w3.org/2000/svg"><path d="M16.19 2H7.81C4.17 2 2 4.17 2 7.81v8.37C2 19.83 4.17 22 7.81 22h8.37c3.64 0 5.81-2.17 5.81-5.81V7.81C22 4.17 19.83 2 16.19 2Zm-5.16 15.66c.29.29.29.77 0 1.06-.15.15-.34.22-.53.22s-.38-.07-.53-.22L8.25 17l-1.72 1.72c-.15.14-.34.22-.53.22s-.38-.07-.53-.22a.754.754 0 0 1 0-1.06l1.72-1.72-1.72-1.72a.754.754 0 0 1 0-1.06c.29-.29.77-.29 1.06 0l1.72 1.72 1.72-1.72c.29-.29.77-.29 1.06 0 .29.29.29.77 0 1.06l-1.72 1.72 1.72 1.72Zm-.53-8.85H6c-.41 0-.75-.34-.75-.75s.34-.75.75-.75h4.5c.41 0 .75.34.75.75s-.34.75-.75.75Zm7.5 9.75h-4.5c-.41 0-.75-.34-.75-.75s.34-.75.75-.75H18c.41 0 .75.34.75.75s-.34.75-.75.75Zm0-3.75h-4.5c-.41 0-.75-.34-.75-.75s.34-.75.75-.75H18c.41 0 .75.34.75.75s-.34.75-.75.75Zm0-6h-1.48v1.5c0 .41-.34.75-.75.75s-.75-.34-.75-.75v-1.5H13.5c-.41 0-.75-.34-.75-.75s.34-.75.75-.75h1.52v-1.5c0-.41.34-.75.75-.75s.75.34.75.75v1.5H18c.41 0 .75.34.75.75s-.34.75-.75.75Z" fill="#292D32"/></svg>