<svg width="24" height="24" fill="none" xmlns="http://www.w3.org/2000/svg"><path d="M16 9.75H8c-.69 0-1.25.56-1.25 1.25v1.05c.03-.01.05-.02.08-.03.12-.06.25-.1.38-.14.06-.02.12-.04.19-.06.2-.04.4-.07.61-.07h8c.21 0 .41.03.61.07.06.01.12.04.19.06.13.04.26.08.38.14.03.01.06.02.08.03V11A1.28 1.28 0 0 0 16 9.75ZM16 13.25H8c-.69 0-1.25.56-1.25 1.25v.5H9.5c.41 0 .75.34.75.75 0 .96.79 1.75 1.75 1.75s1.75-.79 1.75-1.75c0-.41.34-.75.75-.75h2.75v-.5c0-.69-.56-1.25-1.25-1.25ZM16 6.5H8c-.69 0-1.25.56-1.25 1.25v.81c.38-.19.8-.31 1.25-.31h8c.45 0 .87.12 1.25.31v-.81c0-.69-.56-1.25-1.25-1.25Z" fill="#292D32"/><path d="M16.19 2H7.81C4.17 2 2 4.17 2 7.81v8.37C2 19.83 4.17 22 7.81 22h8.37c3.64 0 5.81-2.17 5.81-5.81V7.81C22 4.17 19.83 2 16.19 2ZM19 16.5h-3.84A3.258 3.258 0 0 1 12 19c-1.53 0-2.82-1.07-3.16-2.5H5c-.41 0-.75-.34-.75-.75S4.59 15 5 15h.25V7.75C5.25 6.23 6.48 5 8 5h8c1.52 0 2.75 1.23 2.75 2.75V15H19c.41 0 .75.34.75.75s-.34.75-.75.75Z" fill="#292D32"/></svg>