<svg width="24" height="24" fill="none" xmlns="http://www.w3.org/2000/svg"><path d="M18.809 6.25h1.36c-.19-.27-.39-.52-.6-.77l-.76.77ZM18.52 4.42c-.25-.21-.5-.41-.77-.6v1.36l.77-.76ZM19.58 5.481l2.95-2.95c.29-.29.29-.77 0-1.06a.754.754 0 0 0-1.06 0l-2.95 2.95c.38.33.73.69 1.06 1.06ZM17.752 3c0-.41-.34-.75-.75-.75-.4 0-.72.32-.74.71.52.25 1.02.53 1.49.86V3ZM21.752 7c0-.41-.34-.75-.75-.75h-.83c.33.47.62.97.86 1.49.4-.02.72-.34.72-.74ZM12.75 14.75h.3c.39 0 .7-.35.7-.78 0-.54-.15-.62-.49-.74l-.51-.18v1.7Z" fill="#292D32"/><path d="M21.04 7.74c-.01 0-.02.01-.04.01h-4c-.1 0-.19-.02-.29-.06a.782.782 0 0 1-.41-.41.868.868 0 0 1-.05-.28V3c0-.01.01-.02.01-.04C14.96 2.35 13.52 2 12 2 6.48 2 2 6.48 2 12s4.48 10 10 10 10-4.48 10-10c0-1.52-.35-2.96-.96-4.26Zm-7.29 4.08c.64.22 1.5.69 1.5 2.16 0 1.25-.99 2.28-2.2 2.28h-.3v.25c0 .41-.34.75-.75.75s-.75-.34-.75-.75v-.25h-.08c-1.33 0-2.42-1.12-2.42-2.5 0-.42.34-.76.75-.76s.75.34.75.75c0 .55.41 1 .92 1h.08v-2.22l-1-.35c-.64-.22-1.5-.69-1.5-2.16 0-1.25.99-2.28 2.2-2.28h.3V7.5c0-.41.34-.75.75-.75s.75.34.75.75v.25h.08c1.33 0 2.42 1.12 2.42 2.5 0 .41-.34.75-.75.75s-.75-.34-.75-.75c0-.55-.41-1-.92-1h-.08v2.22l1 .35Z" fill="#292D32"/><path d="M10.25 10.03c0 .54.15.62.49.74l.51.18v-1.7h-.3c-.38 0-.7.35-.7.78Z" fill="#292D32"/></svg>