<svg width="24" height="24" fill="none" xmlns="http://www.w3.org/2000/svg"><path d="M10.25 10.03c0 .54.15.62.49.74l.51.18v-1.7h-.3c-.38 0-.7.35-.7.78ZM12.75 14.75h.3c.39 0 .7-.35.7-.78 0-.54-.15-.62-.49-.74l-.51-.18v1.7Z" fill="#292D32"/><path d="m19.58 5.48-2.05 2.05c-.15.15-.34.22-.53.22s-.38-.07-.53-.22a.754.754 0 0 1 0-1.06l2.05-2.05C16.76 2.92 14.49 2 12 2 6.48 2 2 6.48 2 12s4.48 10 10 10 10-4.48 10-10c0-2.49-.92-4.76-2.42-6.52Zm-5.83 6.34c.64.23 1.5.69 1.5 2.16 0 1.25-.99 2.28-2.2 2.28h-.3v.25c0 .41-.34.75-.75.75s-.75-.34-.75-.75v-.25h-.08c-1.33 0-2.42-1.12-2.42-2.5 0-.42.34-.76.75-.76s.75.34.75.75c0 .55.41 1 .92 1h.08v-2.22l-1-.35c-.64-.23-1.5-.69-1.5-2.16 0-1.25.99-2.28 2.2-2.28h.3V7.5c0-.41.34-.75.75-.75s.75.34.75.75v.25h.08c1.33 0 2.42 1.12 2.42 2.5 0 .41-.34.75-.75.75s-.75-.34-.75-.75c0-.55-.41-1-.92-1h-.08v2.22l1 .35ZM22.69 1.71a.782.782 0 0 0-.41-.41.868.868 0 0 0-.28-.05h-4c-.41 0-.75.34-.75.75s.34.75.75.75h2.19l-1.67 1.67c.38.33.73.68 1.06 1.06l1.67-1.67V6c0 .41.34.75.75.75s.75-.34.75-.75V2c0-.1-.02-.19-.06-.29Z" fill="#292D32"/></svg>