<svg width="24" height="24" fill="none" xmlns="http://www.w3.org/2000/svg"><path d="M17 4H7C4 4 2 5.5 2 9v3.56c0 .37.38.6.71.45.98-.45 2.11-.62 3.3-.41 2.63.47 4.56 2.91 4.49 5.58-.01.42-.07.83-.18 1.23-.08.31.17.6.49.6H17c3 0 5-1.5 5-5V9c0-3.5-2-5-5-5Zm-5 10.5a2.5 2.5 0 0 1 0-5 2.5 2.5 0 0 1 0 5Zm7.25-.5c0 .41-.34.75-.75.75s-.75-.34-.75-.75v-4c0-.41.34-.75.75-.75s.75.34.75.75v4Z" fill="#292D32"/><path d="M5 14c-2.21 0-4 1.79-4 4 0 .75.21 1.46.58 2.06A3.97 3.97 0 0 0 5 22c1.46 0 2.73-.78 3.42-1.94.37-.6.58-1.31.58-2.06 0-2.21-1.79-4-4-4Zm1.49 4.73h-.74v.78c0 .41-.34.75-.75.75s-.75-.34-.75-.75v-.78h-.74c-.41 0-.75-.34-.75-.75s.34-.75.75-.75h.74v-.71c0-.41.34-.75.75-.75s.75.34.75.75v.71h.74a.749.749 0 1 1 0 1.5Z" fill="#292D32"/></svg>