<svg width="24" height="24" fill="none" xmlns="http://www.w3.org/2000/svg"><path d="M5 14c-2.21 0-4 1.79-4 4s1.79 4 4 4 4-1.79 4-4-1.79-4-4-4Zm1 3.68c0 .61-.33 1.19-.85 1.5l-.76.46c-.12.08-.26.11-.39.11-.25 0-.5-.13-.64-.36-.21-.35-.1-.82.26-1.03l.76-.46c.07-.04.12-.13.12-.21v-.93c0-.42.34-.76.75-.76s.75.34.75.75v.93Z" fill="#292D32"/><path d="M17 4H7C4 4 2 5.5 2 9v3.56c0 .37.38.6.71.45.98-.45 2.11-.62 3.3-.41 2.63.47 4.56 2.91 4.49 5.58-.01.42-.07.83-.18 1.23-.08.31.17.6.49.6H17c3 0 5-1.5 5-5V9c0-3.5-2-5-5-5Zm-5 10.5a2.5 2.5 0 0 1 0-5 2.5 2.5 0 0 1 0 5Zm7.25-.5c0 .41-.34.75-.75.75s-.75-.34-.75-.75v-4c0-.41.34-.75.75-.75s.75.34.75.75v4Z" fill="#292D32"/></svg>