<svg width="24" height="24" fill="none" xmlns="http://www.w3.org/2000/svg"><path d="M17 3.5H7c-3 0-5 1.5-5 5v7c0 3.5 2 5 5 5h10c3 0 5-1.5 5-5v-7c0-3.5-2-5-5-5Zm-13.25 5c0-1.79 1.46-3.25 3.25-3.25h1.5c.41 0 .75.34.75.75s-.34.75-.75.75H7c-.96 0-1.75.79-1.75 1.75V10c0 .41-.34.75-.75.75s-.75-.34-.75-.75V8.5ZM8.5 18.75H7c-1.79 0-3.25-1.46-3.25-3.25V14c0-.41.34-.75.75-.75s.75.34.75.75v1.5c0 .96.79 1.75 1.75 1.75h1.5c.41 0 .75.34.75.75s-.34.75-.75.75ZM12 15c-1.66 0-3-1.34-3-3s1.34-3 3-3 3 1.34 3 3-1.34 3-3 3Zm8.25.5c0 1.79-1.46 3.25-3.25 3.25h-1.5c-.41 0-.75-.34-.75-.75s.34-.75.75-.75H17c.96 0 1.75-.79 1.75-1.75V14c0-.41.34-.75.75-.75s.75.34.75.75v1.5Zm0-5.5c0 .41-.34.75-.75.75s-.75-.34-.75-.75V8.5c0-.96-.79-1.75-1.75-1.75h-1.5c-.41 0-.75-.34-.75-.75s.34-.75.75-.75H17c1.79 0 3.25 1.46 3.25 3.25V10Z" fill="#292D32"/></svg>