<svg width="24" height="24" fill="none" xmlns="http://www.w3.org/2000/svg"><path d="M12 2C6.48 2 2 6.48 2 12s4.48 10 10 10 10-4.48 10-10S17.52 2 12 2ZM8.73 7.66c.81 0 1.48.66 1.48 1.48 0 .81-.66 1.48-1.48 1.48-.81 0-1.48-.66-1.48-1.48s.66-1.48 1.48-1.48Zm.12 8.14c-.15.15-.34.22-.53.22s-.38-.07-.53-.22a.754.754 0 0 1 0-1.06l6.55-6.55c.29-.29.77-.29 1.06 0 .29.29.29.77 0 1.06L8.85 15.8Zm6.42.54c-.81 0-1.48-.66-1.48-1.48 0-.81.66-1.48 1.48-1.48.81 0 1.48.66 1.48 1.48s-.66 1.48-1.48 1.48Z" fill="#292D32"/></svg>