<svg width="24" height="24" fill="none" xmlns="http://www.w3.org/2000/svg"><path d="M19.5 3.67c0-.01 0-.02-.02-.03-.22-.28-.51-.43-.85-.43-.53 0-1.17.35-1.86 1.09-.82.88-2.08.81-2.8-.15l-1.01-1.34c-.4-.54-.93-.81-1.46-.81-.53 0-1.06.27-1.46.81L9.02 4.16c-.71.95-1.96 1.02-2.78.15l-.01-.01C5.1 3.09 4.09 2.91 3.52 3.64c-.02.01-.02.02-.02.03-.36.77-.5 1.85-.5 3.37v9.92c0 1.52.14 2.6.5 3.37 0 .01.01.03.02.04.58.72 1.58.54 2.71-.67l.01-.01c.82-.87 2.07-.8 2.78.15l1.02 1.35c.4.54.93.81 1.46.81.53 0 1.06-.27 1.46-.81l1.01-1.34c.72-.96 1.98-1.03 2.8-.15.69.74 1.33 1.09 1.86 1.09.34 0 .63-.14.85-.42.01-.01.02-.03.02-.04.36-.77.5-1.85.5-3.37V7.04c0-1.52-.14-2.6-.5-3.37ZM14 14.5H8c-.41 0-.75-.34-.75-.75S7.59 13 8 13h6c.41 0 .75.34.75.75s-.34.75-.75.75Zm2-3.5H8c-.41 0-.75-.34-.75-.75s.34-.75.75-.75h8c.41 0 .75.34.75.75s-.34.75-.75.75Z" fill="#292D32"/></svg>