<svg width="24" height="24" fill="none" xmlns="http://www.w3.org/2000/svg"><path d="M15.78 2H8.22C4.44 2 3.5 3.01 3.5 7.04V18.3c0 2.66 1.46 3.29 3.23 1.39l.01-.01c.82-.87 2.07-.8 2.78.15l1.01 1.35c.81 1.07 2.12 1.07 2.93 0l1.01-1.35c.72-.96 1.97-1.03 2.79-.15 1.78 1.9 3.23 1.27 3.23-1.39V7.04C20.5 3.01 19.56 2 15.78 2Zm-.94 7.99-.5.51h-.01l-3.03 3.03c-.13.13-.4.27-.59.29l-1.35.2c-.49.07-.83-.28-.76-.76l.19-1.36c.03-.19.16-.45.29-.59l3.04-3.03.5-.51c.33-.33.7-.57 1.1-.57.34 0 .71.16 1.12.57.9.9.61 1.61 0 2.22Z" fill="#292D32"/></svg>