<svg width="24" height="24" fill="none" xmlns="http://www.w3.org/2000/svg"><path d="M15.78 2H8.22C4.44 2 3.5 3.01 3.5 7.04V18.3c0 2.66 1.46 3.29 3.23 1.39l.01-.01c.82-.87 2.07-.8 2.78.15l1.01 1.35c.81 1.07 2.12 1.07 2.93 0l1.01-1.35c.72-.96 1.97-1.03 2.79-.15 1.78 1.9 3.23 1.27 3.23-1.39V7.04C20.5 3.01 19.56 2 15.78 2Zm-8 10c-.55 0-1-.45-1-1s.45-1 1-1 1 .45 1 1-.45 1-1 1Zm0-4c-.55 0-1-.45-1-1s.45-1 1-1 1 .45 1 1-.45 1-1 1Zm8.45 3.75h-5.5c-.41 0-.75-.34-.75-.75s.34-.75.75-.75h5.5c.41 0 .75.34.75.75s-.34.75-.75.75Zm0-4h-5.5c-.41 0-.75-.34-.75-.75s.34-.75.75-.75h5.5c.41 0 .75.34.75.75s-.34.75-.75.75Z" fill="#292D32"/></svg>