<svg width="24" height="24" fill="none" xmlns="http://www.w3.org/2000/svg"><path d="M16.649 3.86h-6.74v3.02c0 .39-.32.7-.7.7-.38 0-.7-.31-.7-.7V3.86h-1.16c-3.95 0-5.25 1.18-5.34 4.87-.01.18.07.37.2.5.13.14.3.21.5.21 1.4 0 2.55 1.16 2.55 2.56 0 1.4-1.15 2.56-2.55 2.56-.19 0-.37.07-.5.21-.13.13-.21.32-.2.5.09 3.69 1.39 4.87 5.34 4.87h1.16v-3.02c0-.39.32-.7.7-.7.38 0 .7.31.7.7v3.02h6.74c4.1 0 5.35-1.25 5.35-5.35V9.21c0-4.1-1.25-5.35-5.35-5.35Zm1.82 8.04-.93.9c-.04.03-.05.09-.04.14l.22 1.27c.04.23-.05.47-.25.61-.19.14-.44.16-.65.05l-1.15-.6a.17.17 0 0 0-.14 0l-1.15.6c-.09.05-.19.07-.29.07a.625.625 0 0 1-.61-.73l.22-1.27a.18.18 0 0 0-.04-.14l-.93-.9a.616.616 0 0 1-.16-.63.59.59 0 0 1 .5-.42l1.28-.19a.2.2 0 0 0 .12-.08l.57-1.16c.11-.21.32-.34.56-.34a.6.6 0 0 1 .55.34l.57 1.16c.02.05.06.08.11.08l1.28.19c.24.03.43.2.5.42.09.22.03.46-.14.63Z" fill="#292D32"/></svg>