<svg width="24" height="24" fill="none" xmlns="http://www.w3.org/2000/svg"><path d="M21.5 12.5H19c-1.1 0-2 .9-2 2s.9 2 2 2h2.5c.28 0 .5-.22.5-.5v-3c0-.28-.22-.5-.5-.5ZM5 15c-1.2 0-2.27.53-3 1.36A4 4 0 0 0 1 19c0 .75.21 1.46.58 2.06A3.97 3.97 0 0 0 5 23c1.01 0 1.93-.37 2.63-1 .31-.26.58-.58.79-.94.37-.6.58-1.31.58-2.06 0-2.21-1.79-4-4-4Zm1.6 5.58c-.15.15-.34.22-.53.22s-.38-.07-.53-.22l-.53-.53-.55.55c-.15.15-.34.22-.53.22s-.38-.07-.53-.22a.754.754 0 0 1 0-1.06l.55-.55-.53-.53a.754.754 0 0 1 0-1.06c.29-.29.77-.29 1.06 0l.53.53.5-.5c.29-.29.77-.29 1.06 0 .29.29.29.77 0 1.06l-.5.5.53.53c.29.29.29.76 0 1.06ZM16.53 5.4c.3.29.05.74-.37.74l-8.28-.01c-.48 0-.72-.58-.38-.92l1.75-1.76a3.796 3.796 0 0 1 5.35 0l1.89 1.91.04.04Z" fill="#292D32"/><path d="M21.87 18.66C21.26 20.72 19.5 22 17.1 22h-6.5c-.39 0-.64-.43-.48-.79.3-.7.49-1.49.49-2.21 0-3.03-2.47-5.5-5.5-5.5-.76 0-1.5.16-2.18.46-.37.16-.82-.09-.82-.49V12c0-2.72 1.64-4.62 4.19-4.94.25-.04.52-.06.8-.06h10c.26 0 .51.01.75.05 2.02.23 3.48 1.46 4.02 3.29.1.33-.14.66-.48.66H19.1c-2.17 0-3.89 1.98-3.42 4.23.33 1.64 1.85 2.77 3.52 2.77h2.19c.35 0 .58.34.48.66Z" fill="#292D32"/></svg>