<svg width="24" height="24" fill="none" xmlns="http://www.w3.org/2000/svg"><path d="M22 12.622v2.06c0 .56-.46 1.02-1.03 1.02h-1.93c-1.08 0-2.07-.79-2.16-1.87-.06-.63.18-1.22.6-1.63.37-.38.88-.6 1.44-.6h2.05c.57 0 1.03.46 1.03 1.02Z" fill="#292D32"/><path d="M15.38 13.958c-.09-1.05.29-2.08 1.05-2.83.64-.65 1.53-1.03 2.49-1.03h.57c.28 0 .51-.23.47-.51A4.008 4.008 0 0 0 16 6.148H6c-2.21 0-4 1.79-4 4v7c0 2.21 1.79 4 4 4h10a4 4 0 0 0 3.96-3.44c.04-.28-.19-.51-.47-.51h-.45c-1.9 0-3.5-1.42-3.66-3.24ZM13 11.898H7a.749.749 0 1 1 0-1.5h6c.41 0 .75.34.75.75s-.34.75-.75.75ZM14.21 3.982c.26.27.03.67-.35.67H6.03c-1.09 0-2.11.32-2.96.87-.39.25-.92-.02-.73-.45a3.675 3.675 0 0 1 3.38-2.22h5.62c1.16 0 2.19.41 2.87 1.13Z" fill="#292D32"/></svg>