<svg width="24" height="24" fill="none" xmlns="http://www.w3.org/2000/svg"><path d="M9.37 22.75H4.62c-2.3 0-3.37-1.07-3.37-3.37v-4.75c0-2.31 1.07-3.38 3.37-3.38H7c.41 0 .75.34.75.75v2.37c0 1.46.42 1.88 1.87 1.88H12c.41 0 .75.34.75.75v2.38c0 2.3-1.07 3.37-3.38 3.37Zm-4.75-10c-1.45 0-1.87.42-1.87 1.88v4.75c0 1.45.42 1.87 1.87 1.87h4.75c1.46 0 1.88-.42 1.88-1.87v-1.63H9.62c-2.3 0-3.37-1.07-3.37-3.38v-1.62H4.62Z" fill="#292D32"/><path d="M14.37 17.75H9.62c-2.3 0-3.37-1.07-3.37-3.38V9.62c0-2.3 1.07-3.37 3.37-3.37H12c.41 0 .75.34.75.75v2.37c0 1.46.42 1.88 1.87 1.88H17c.41 0 .75.34.75.75v2.37c0 2.31-1.07 3.38-3.38 3.38Zm-4.75-10c-1.45 0-1.87.42-1.87 1.87v4.75c0 1.46.42 1.88 1.87 1.88h4.75c1.46 0 1.88-.42 1.88-1.88v-1.62h-1.63c-2.3 0-3.37-1.07-3.37-3.38V7.75H9.62Z" fill="#292D32"/><path d="M19.37 12.75h-4.75c-2.3 0-3.37-1.07-3.37-3.38V4.62c0-2.3 1.07-3.37 3.37-3.37h4.75c2.31 0 3.38 1.07 3.38 3.37v4.75c0 2.31-1.07 3.38-3.38 3.38Zm-4.75-10c-1.45 0-1.87.42-1.87 1.87v4.75c0 1.46.42 1.88 1.87 1.88h4.75c1.46 0 1.88-.42 1.88-1.88V4.62c0-1.45-.42-1.87-1.88-1.87h-4.75Z" fill="#292D32"/></svg>