<svg width="24" height="24" fill="none" xmlns="http://www.w3.org/2000/svg"><path d="M8.02 20.25H6.98C4.97 20.25 4 19.32 4 17.4V6.6c0-1.92.98-2.85 2.98-2.85h1.04c2 0 2.98.93 2.98 2.85v10.8c0 1.92-.98 2.85-2.98 2.85Zm-1.04-15c-1.27 0-1.48.34-1.48 1.35v10.8c0 1.01.21 1.35 1.48 1.35h1.04c1.27 0 1.48-.34 1.48-1.35V6.6c0-1.01-.21-1.35-1.48-1.35H6.98ZM16.52 18.25h-1.04c-2.01 0-2.98-.93-2.98-2.85V8.6c0-1.92.98-2.85 2.98-2.85h1.04c2.01 0 2.98.93 2.98 2.85v6.8c0 1.92-.98 2.85-2.98 2.85Zm-1.04-11c-1.27 0-1.48.34-1.48 1.35v6.8c0 1.01.21 1.35 1.48 1.35h1.04c1.27 0 1.48-.34 1.48-1.35V8.6c0-1.01-.21-1.35-1.48-1.35h-1.04Z" fill="#292D32"/><path d="M4.4 12.75H2a.749.749 0 1 1 0-1.5h2.4a.749.749 0 1 1 0 1.5ZM13 12.75h-2c-.41 0-.75-.34-.75-.75s.34-.75.75-.75h2c.41 0 .75.34.75.75s-.34.75-.75.75ZM22 12.75h-2.7c-.41 0-.75-.34-.75-.75s.34-.75.75-.75H22a.749.749 0 1 1 0 1.5Z" fill="#292D32"/></svg>