<svg width="24" height="24" fill="none" xmlns="http://www.w3.org/2000/svg"><path d="M17.03 19.752h-1.04c-2.01 0-2.98-.93-2.98-2.85v-11.8c0-.41.34-.75.75-.75s.75.34.75.75v11.8c0 1.01.21 1.35 1.48 1.35h1.04c1.27 0 1.48-.34 1.48-1.35v-11.8c0-.41.34-.75.75-.75s.75.34.75.75v11.8c0 1.92-.97 2.85-2.98 2.85ZM8.53 14.752H7.49c-2.01 0-2.98-.93-2.98-2.85v-6.8c0-.41.34-.75.75-.75s.75.34.75.75v6.8c0 1.01.21 1.35 1.48 1.35h1.04c1.27 0 1.48-.34 1.48-1.35v-6.8c0-.41.34-.75.75-.75s.75.34.75.75v6.8c0 1.92-.97 2.85-2.98 2.85Z" fill="#292D32"/><path d="M22 5.75H2a.749.749 0 1 1 0-1.5h20a.749.749 0 1 1 0 1.5Z" fill="#292D32"/></svg>