<svg width="24" height="24" fill="none" xmlns="http://www.w3.org/2000/svg"><path d="M17.4 20H6.6c-1.92 0-2.85-.98-2.85-2.98v-1.04c0-2 .93-2.98 2.85-2.98h10.8c1.92 0 2.85.98 2.85 2.98v1.04c0 2-.93 2.98-2.85 2.98ZM6.6 14.5c-1.01 0-1.35.21-1.35 1.48v1.04c0 1.27.34 1.48 1.35 1.48h10.8c1.01 0 1.35-.21 1.35-1.48v-1.04c0-1.27-.34-1.48-1.35-1.48H6.6ZM15.4 11.5H8.6c-1.92 0-2.85-.98-2.85-2.98V7.48c0-2.01.93-2.98 2.85-2.98h6.8c1.92 0 2.85.98 2.85 2.98v1.04c0 2-.93 2.98-2.85 2.98ZM8.6 6c-1.01 0-1.35.21-1.35 1.48v1.04c0 1.27.34 1.48 1.35 1.48h6.8c1.01 0 1.35-.21 1.35-1.48V7.48c0-1.27-.34-1.48-1.35-1.48H8.6Z" fill="#292D32"/><path d="M12 22.752c-.41 0-.75-.34-.75-.75v-2.4c0-.41.34-.75.75-.75s.75.34.75.75v2.4c0 .41-.34.75-.75.75ZM12 13.75c-.41 0-.75-.34-.75-.75v-2c0-.41.34-.75.75-.75s.75.34.75.75v2c0 .41-.34.75-.75.75ZM12 5.44c-.41 0-.75-.34-.75-.75V2a.749.749 0 1 1 1.5 0v2.69c0 .42-.34.75-.75.75Z" fill="#292D32"/></svg>