<svg width="24" height="24" fill="none" xmlns="http://www.w3.org/2000/svg"><path d="M18.9 20H7.1c-1.92 0-2.85-.98-2.85-2.98v-1.04c0-2 .93-2.98 2.85-2.98h11.8c.41 0 .75.34.75.75s-.34.75-.75.75H7.1c-1.01 0-1.35.21-1.35 1.48v1.04c0 1.27.34 1.48 1.35 1.48h11.8c.41 0 .75.34.75.75s-.34.75-.75.75ZM18.9 11.5h-6.8c-1.92 0-2.85-.98-2.85-2.98V7.48c0-2.01.93-2.98 2.85-2.98h6.8c.41 0 .75.34.75.75s-.34.75-.75.75h-6.8c-1.01 0-1.35.21-1.35 1.48v1.04c0 1.27.34 1.48 1.35 1.48h6.8c.41 0 .75.34.75.75s-.34.75-.75.75Z" fill="#292D32"/><path d="M19 22.738c-.41 0-.75-.34-.75-.75v-20c0-.41.34-.75.75-.75s.75.34.75.75v20c0 .41-.34.75-.75.75Z" fill="#292D32"/></svg>