<svg width="24" height="24" fill="none" xmlns="http://www.w3.org/2000/svg"><path d="M19.77 11.25h-4.04c-2.01 0-2.98-.89-2.98-2.73V3.98c0-1.84.98-2.73 2.98-2.73h4.04c2.01 0 2.98.89 2.98 2.73v4.53c0 1.85-.98 2.74-2.98 2.74Zm-4.04-8.5c-1.34 0-1.48.38-1.48 1.23v4.53c0 .86.14 1.23 1.48 1.23h4.04c1.34 0 1.48-.38 1.48-1.23V3.98c0-.86-.14-1.23-1.48-1.23h-4.04ZM19.77 22.75h-4.04c-2.01 0-2.98-.98-2.98-2.98v-4.04c0-2.01.98-2.98 2.98-2.98h4.04c2.01 0 2.98.98 2.98 2.98v4.04c0 2-.98 2.98-2.98 2.98Zm-4.04-8.5c-1.18 0-1.48.3-1.48 1.48v4.04c0 1.18.3 1.48 1.48 1.48h4.04c1.18 0 1.48-.3 1.48-1.48v-4.04c0-1.18-.3-1.48-1.48-1.48h-4.04ZM8.27 11.25H4.23c-2.01 0-2.98-.89-2.98-2.73V3.98c0-1.84.98-2.73 2.98-2.73h4.04c2.01 0 2.98.89 2.98 2.73v4.53c0 1.85-.98 2.74-2.98 2.74Zm-4.04-8.5c-1.34 0-1.48.38-1.48 1.23v4.53c0 .86.14 1.23 1.48 1.23h4.04c1.34 0 1.48-.38 1.48-1.23V3.98c0-.86-.14-1.23-1.48-1.23H4.23ZM8.27 22.75H4.23c-2.01 0-2.98-.98-2.98-2.98v-4.04c0-2.01.98-2.98 2.98-2.98h4.04c2.01 0 2.98.98 2.98 2.98v4.04c0 2-.98 2.98-2.98 2.98Zm-4.04-8.5c-1.18 0-1.48.3-1.48 1.48v4.04c0 1.18.3 1.48 1.48 1.48h4.04c1.18 0 1.48-.3 1.48-1.48v-4.04c0-1.18-.3-1.48-1.48-1.48H4.23Z" fill="#292D32"/></svg>