<svg width="24" height="24" fill="none" xmlns="http://www.w3.org/2000/svg"><path d="M18.65 8.95c-1.99 0-3.6-1.62-3.6-3.6 0-.81.27-1.58.77-2.22.02-.03.05-.05.07-.08a3.54 3.54 0 0 1 2.76-1.3c1.98 0 3.6 1.62 3.6 3.6 0 1.11-.5 2.14-1.38 2.83-.64.5-1.41.77-2.22.77Zm-1.7-4.83a2.1 2.1 0 0 0 1.7 3.33c.47 0 .92-.16 1.29-.45.51-.4.81-1 .81-1.65a2.1 2.1 0 0 0-2.1-2.1c-.65 0-1.25.29-1.64.8-.02.03-.04.05-.06.07ZM5.35 8.95c-.81 0-1.58-.27-2.22-.77a3.572 3.572 0 0 1-1.38-2.83c0-1.98 1.62-3.6 3.6-3.6 1.11 0 2.14.5 2.83 1.38.5.64.77 1.41.77 2.22 0 1.98-1.62 3.6-3.6 3.6Zm0-5.7a2.1 2.1 0 0 0-2.1 2.1c0 .65.29 1.25.81 1.65.37.29.82.45 1.29.45a2.1 2.1 0 0 0 2.1-2.1c0-.47-.16-.92-.45-1.29-.4-.52-1-.81-1.65-.81ZM18.65 22.25a3.54 3.54 0 0 1-2.76-1.3c-.03-.02-.05-.05-.07-.08-.5-.64-.77-1.41-.77-2.22 0-1.99 1.62-3.6 3.6-3.6.81 0 1.58.27 2.22.77.03.02.05.05.08.07.83.68 1.3 1.68 1.3 2.76 0 1.98-1.62 3.6-3.6 3.6Zm-1.7-2.37c.02.02.04.04.06.07.39.51.99.8 1.64.8a2.1 2.1 0 0 0 2.1-2.1c0-.65-.29-1.25-.8-1.64-.03-.02-.05-.04-.07-.06a2.1 2.1 0 0 0-2.93 2.93ZM5.35 22.25a3.61 3.61 0 0 1-3.6-3.6c0-1.08.47-2.08 1.3-2.76.02-.03.05-.05.08-.07.64-.5 1.41-.77 2.22-.77 1.99 0 3.6 1.62 3.6 3.6 0 .81-.27 1.58-.77 2.22-.69.88-1.72 1.38-2.83 1.38Zm-1.23-5.3c-.02.02-.04.04-.07.06-.51.39-.8.99-.8 1.64 0 1.16.94 2.1 2.1 2.1.65 0 1.25-.29 1.65-.81.29-.37.45-.82.45-1.29a2.1 2.1 0 0 0-3.33-1.7Z" fill="#292D32"/><path d="M12 22.25c-1.66 0-3.31-.41-4.76-1.18-.2-.1-.33-.29-.38-.51a.73.73 0 0 1 .14-.62c.29-.37.45-.82.45-1.29a2.1 2.1 0 0 0-2.1-2.1c-.47 0-.92.16-1.29.45-.17.14-.4.19-.62.14a.76.76 0 0 1-.51-.38c-.78-1.47-1.18-3.07-1.18-4.76 0-1.66.41-3.31 1.18-4.76.1-.2.29-.33.51-.38.22-.05.44.01.62.14.37.29.82.45 1.29.45a2.1 2.1 0 0 0 2.1-2.1c0-.47-.16-.92-.45-1.29-.14-.17-.19-.4-.14-.62.05-.22.18-.4.38-.51 1.45-.77 3.1-1.18 4.76-1.18 1.69 0 3.29.4 4.76 1.18.2.1.33.29.38.51.05.22-.01.44-.14.62-.29.37-.45.82-.45 1.29 0 1.16.94 2.1 2.1 2.1.47 0 .92-.16 1.29-.45.17-.14.4-.19.62-.14.22.05.4.18.51.38.77 1.45 1.18 3.1 1.18 4.76 0 1.69-.4 3.29-1.18 4.76-.1.2-.29.33-.51.38a.765.765 0 0 1-.62-.14c-.37-.29-.82-.45-1.29-.45a2.1 2.1 0 0 0-2.1 2.1c0 .47.16.92.45 1.29.14.17.19.4.14.62a.76.76 0 0 1-.38.51c-1.47.78-3.07 1.18-4.76 1.18Zm-3.35-2.17c2.12.89 4.6.88 6.69 0-.2-.45-.3-.93-.3-1.43 0-1.99 1.62-3.6 3.6-3.6.5 0 .98.1 1.43.3a8.71 8.71 0 0 0 0-6.7c-.45.2-.93.3-1.43.3-1.99 0-3.6-1.62-3.6-3.6 0-.5.1-.98.3-1.43-2.09-.88-4.58-.88-6.69 0 .2.45.3.93.3 1.43 0 1.99-1.62 3.6-3.6 3.6-.5 0-.98-.1-1.43-.3A8.71 8.71 0 0 0 3.25 12c0 1.17.22 2.29.67 3.35.45-.2.93-.3 1.43-.3 1.99 0 3.6 1.62 3.6 3.6 0 .5-.1.98-.3 1.43Z" fill="#292D32"/></svg>