<svg width="24" height="24" fill="none" xmlns="http://www.w3.org/2000/svg"><path d="M10 22.75H9c-5.43 0-7.75-2.32-7.75-7.75V9c0-5.43 2.32-7.75 7.75-7.75h6c5.43 0 7.75 2.32 7.75 7.75v2c0 .41-.34.75-.75.75s-.75-.34-.75-.75V9c0-4.61-1.64-6.25-6.25-6.25H9C4.39 2.75 2.75 4.39 2.75 9v6c0 4.61 1.64 6.25 6.25 6.25h1c.41 0 .75.34.75.75s-.34.75-.75.75Z" fill="#292D32"/><path d="M22.001 9.25H2.031c-.41 0-.75-.34-.75-.75s.34-.75.75-.75h19.97c.41 0 .75.34.75.75s-.34.75-.75.75ZM12.001 16.25h-9.97c-.41 0-.75-.34-.75-.75s.34-.75.75-.75h9.97c.41 0 .75.34.75.75s-.34.75-.75.75Z" fill="#292D32"/><path d="M8.51 22.74c-.41 0-.75-.34-.75-.75V2.02c0-.41.34-.75.75-.75s.75.34.75.75v19.97c0 .41-.33.75-.75.75ZM15.51 12.74c-.41 0-.75-.34-.75-.75V2.02c0-.41.34-.75.75-.75s.75.34.75.75v9.97c0 .41-.33.75-.75.75ZM20.4 17.95c-.41 0-.75-.34-.75-.75v-.8c0-1.12-.25-1.65-1.65-1.65s-1.65.53-1.65 1.65v.8c0 .41-.34.75-.75.75s-.75-.34-.75-.75v-.8c0-2.09 1.06-3.15 3.15-3.15s3.15 1.06 3.15 3.15v.8c0 .41-.34.75-.75.75Z" fill="#292D32"/><path d="M20 22.75h-4c-2 0-2.75-.75-2.75-2.75v-.8c0-2 .75-2.75 2.75-2.75h4c2 0 2.75.75 2.75 2.75v.8c0 2-.75 2.75-2.75 2.75Zm-4-4.8c-1.19 0-1.25.06-1.25 1.25v.8c0 1.18.07 1.25 1.25 1.25h4c1.18 0 1.25-.07 1.25-1.25v-.8c0-1.19-.06-1.25-1.25-1.25h-4Z" fill="#292D32"/></svg>