<svg width="24" height="24" fill="none" xmlns="http://www.w3.org/2000/svg"><path d="M10 22.75H9c-5.43 0-7.75-2.32-7.75-7.75V9c0-5.43 2.32-7.75 7.75-7.75h6c5.43 0 7.75 2.32 7.75 7.75v2c0 .41-.34.75-.75.75s-.75-.34-.75-.75V9c0-4.61-1.64-6.25-6.25-6.25H9C4.39 2.75 2.75 4.39 2.75 9v6c0 4.61 1.64 6.25 6.25 6.25h1c.41 0 .75.34.75.75s-.34.75-.75.75Z" fill="#292D32"/><path d="M22.001 9.25H2.031c-.41 0-.75-.34-.75-.75s.34-.75.75-.75h19.97c.41 0 .75.34.75.75s-.34.75-.75.75ZM12.001 16.25h-9.97c-.41 0-.75-.34-.75-.75s.34-.75.75-.75h9.97c.41 0 .75.34.75.75s-.34.75-.75.75Z" fill="#292D32"/><path d="M8.51 22.74c-.41 0-.75-.34-.75-.75V2.02c0-.41.34-.75.75-.75s.75.34.75.75v19.97c0 .41-.33.75-.75.75ZM15.51 12.74c-.41 0-.75-.34-.75-.75V2.02c0-.41.34-.75.75-.75s.75.34.75.75v9.97c0 .41-.33.75-.75.75ZM15.95 22.75c-.54 0-1.07-.2-1.49-.61l-1.59-1.6c-.81-.81-.81-2.14 0-2.97l1.91-1.9c.29-.29.77-.29 1.06 0l3.5 3.5a.749.749 0 0 1 0 1.06l-1.9 1.9c-.42.41-.95.62-1.49.62Zm-.65-5.48-1.37 1.37a.61.61 0 0 0 0 .85l1.58 1.59c.23.23.62.23.85 0l1.38-1.37-2.44-2.44Z" fill="#292D32"/><path d="M18.8 20.45a.75.75 0 0 1-.53-.22l-3.5-3.5a.754.754 0 0 1 0-1.06l2.81-2.82c.82-.82 2.16-.82 2.98 0l1.58 1.59c.39.39.61.92.61 1.49s-.22 1.09-.61 1.49l-2.8 2.81c-.15.15-.34.22-.54.22Zm-2.43-4.24 2.44 2.44 2.27-2.28c.11-.11.17-.26.17-.43 0-.16-.06-.32-.17-.43l-1.58-1.59a.61.61 0 0 0-.85 0l-2.28 2.29Z" fill="#292D32"/></svg>