<svg width="24" height="24" fill="none" xmlns="http://www.w3.org/2000/svg"><path d="M21 9.75c-.41 0-.75-.34-.75-.75V3.75H15c-.41 0-.75-.34-.75-.75s.34-.75.75-.75h6c.41 0 .75.34.75.75v6c0 .41-.34.75-.75.75ZM9 21.75H3c-.41 0-.75-.34-.75-.75v-6c0-.41.34-.75.75-.75s.75.34.75.75v5.25H9c.41 0 .75.34.75.75s-.34.75-.75.75Z" fill="#292D32"/><path d="M13.5 11.251c-.19 0-.38-.07-.53-.22a.754.754 0 0 1 0-1.06l7.5-7.5c.29-.29.77-.29 1.06 0 .29.29.29.77 0 1.06l-7.5 7.5c-.15.15-.34.22-.53.22ZM3 21.751c-.19 0-.38-.07-.53-.22a.754.754 0 0 1 0-1.06l7.5-7.5c.29-.29.77-.29 1.06 0 .29.29.29.77 0 1.06l-7.5 7.5c-.15.15-.34.22-.53.22Z" fill="#292D32"/></svg>