<svg width="24" height="24" fill="none" xmlns="http://www.w3.org/2000/svg"><path d="M15 22.75h-1c-.41 0-.75-.34-.75-.75s.34-.75.75-.75h1c4.61 0 6.25-1.64 6.25-6.25V9c0-4.61-1.64-6.25-6.25-6.25H9C4.39 2.75 2.75 4.39 2.75 9v.98c0 .41-.34.75-.75.75s-.75-.34-.75-.75V9c0-5.43 2.32-7.75 7.75-7.75h6c5.43 0 7.75 2.32 7.75 7.75v6c0 5.43-2.32 7.75-7.75 7.75Z" fill="#292D32"/><path d="M13 11.749c-.19 0-.38-.07-.53-.22a.754.754 0 0 1 0-1.06l3.74-3.75H14a.749.749 0 1 1 0-1.5h4.01c.3 0 .58.18.69.46.12.28.05.6-.16.82l-5.01 5.03c-.15.15-.34.22-.53.22Z" fill="#292D32"/><path d="M18.01 10.739c-.41 0-.75-.34-.75-.75v-4.02c0-.41.34-.75.75-.75s.75.34.75.75v4.01c0 .42-.34.76-.75.76ZM7.85 22.75h-2.7c-2.66 0-3.9-1.24-3.9-3.9v-2.7c0-2.66 1.24-3.9 3.9-3.9h2.7c2.66 0 3.9 1.24 3.9 3.9v2.7c0 2.66-1.24 3.9-3.9 3.9Zm-2.7-9c-1.84 0-2.4.56-2.4 2.4v2.7c0 1.84.56 2.4 2.4 2.4h2.7c1.84 0 2.4-.56 2.4-2.4v-2.7c0-1.84-.56-2.4-2.4-2.4h-2.7Z" fill="#292D32"/></svg>