<svg width="24" height="24" fill="none" xmlns="http://www.w3.org/2000/svg"><path d="M11.75 22.75h-4.5c-4.15 0-6-1.85-6-6v-4.5c0-4.15 1.85-6 6-6h4.5c4.15 0 6 1.85 6 6v4.5c0 4.15-1.85 6-6 6Zm-4.5-15c-3.32 0-4.5 1.18-4.5 4.5v4.5c0 3.32 1.18 4.5 4.5 4.5h4.5c3.32 0 4.5-1.18 4.5-4.5v-4.5c0-3.32-1.18-4.5-4.5-4.5h-4.5ZM22 9.75c-.41 0-.75-.34-.75-.75 0-2.96-2.06-5.44-4.83-6.09l.27.45c.21.36.1.82-.26 1.03-.36.21-.82.1-1.03-.26l-1.05-1.75a.745.745 0 0 1-.01-.75c.14-.23.39-.38.66-.38 4.27 0 7.75 3.48 7.75 7.75 0 .41-.34.75-.75.75Z" fill="#292D32"/></svg>