<svg width="24" height="24" fill="none" xmlns="http://www.w3.org/2000/svg"><path d="M8.27 22.75H4.23c-2.01 0-2.98-.93-2.98-2.85V4.1c0-1.92.98-2.85 2.98-2.85h4.04c2.01 0 2.98.93 2.98 2.85v15.8c0 1.92-.98 2.85-2.98 2.85Zm-4.04-20c-1.27 0-1.48.34-1.48 1.35v15.8c0 1.01.21 1.35 1.48 1.35h4.04c1.27 0 1.48-.34 1.48-1.35V4.1c0-1.01-.21-1.35-1.48-1.35H4.23ZM19.77 22.75h-4.04c-2.01 0-2.98-.93-2.98-2.85V4.1c0-1.92.98-2.85 2.98-2.85h4.04c2.01 0 2.98.93 2.98 2.85v15.8c0 1.92-.98 2.85-2.98 2.85Zm-4.04-20c-1.27 0-1.48.34-1.48 1.35v15.8c0 1.01.21 1.35 1.48 1.35h4.04c1.27 0 1.48-.34 1.48-1.35V4.1c0-1.01-.21-1.35-1.48-1.35h-4.04Z" fill="#292D32"/></svg>