<svg width="24" height="24" fill="none" xmlns="http://www.w3.org/2000/svg"><path d="M14 22.25h-4c-3.3 0-5.29-.66-5.66-4.01-.06-.45-.09-.99-.09-1.74v-9c0-.75.03-1.3.1-1.77C4.71 2.41 6.7 1.75 10 1.75h4c3.3 0 5.29.66 5.66 4.01.06.45.09.99.09 1.74v9c0 .75-.03 1.3-.1 1.77-.36 3.32-2.35 3.98-5.65 3.98Zm-4-19c-3.31 0-3.94.67-4.17 2.67-.05.42-.08.9-.08 1.58v9c0 .68.03 1.16.08 1.55.22 2.03.86 2.7 4.17 2.7h4c3.31 0 3.94-.67 4.17-2.67.06-.42.08-.9.08-1.58v-9c0-.68-.03-1.16-.08-1.55-.22-2.03-.86-2.7-4.17-2.7h-4ZM2 20.25c-.41 0-.75-.34-.75-.75v-15c0-.41.34-.75.75-.75s.75.34.75.75v15c0 .41-.34.75-.75.75ZM22 19.75c-.41 0-.75-.34-.75-.75V4c0-.41.34-.75.75-.75s.75.34.75.75v15c0 .41-.34.75-.75.75Z" fill="#292D32"/></svg>