<svg width="24" height="24" fill="none" xmlns="http://www.w3.org/2000/svg"><path d="M16.5 19.75h-9c-.75 0-1.3-.03-1.77-.1-3.32-.36-3.98-2.35-3.98-5.65v-4c0-3.3.66-5.29 4.01-5.66.44-.06.99-.09 1.74-.09h9c.75 0 1.3.03 1.77.1 3.33.37 3.98 2.35 3.98 5.65v4c0 3.3-.66 5.29-4.01 5.66-.44.06-.99.09-1.74.09Zm-9-14c-.68 0-1.16.03-1.55.08-2.03.23-2.7.86-2.7 4.17v4c0 3.31.67 3.94 2.67 4.17.42.06.9.08 1.58.08h9c.68 0 1.16-.03 1.55-.08 2.03-.22 2.7-.86 2.7-4.17v-4c0-3.31-.67-3.94-2.67-4.17-.42-.06-.9-.08-1.58-.08h-9ZM19.5 2.75h-15c-.41 0-.75-.34-.75-.75s.34-.75.75-.75h15c.41 0 .75.34.75.75s-.34.75-.75.75ZM20 22.75H5c-.41 0-.75-.34-.75-.75s.34-.75.75-.75h15c.41 0 .75.34.75.75s-.34.75-.75.75Z" fill="#292D32"/></svg>