<svg width="24" height="24" fill="none" xmlns="http://www.w3.org/2000/svg"><path d="M4.47 12.171c-.19 0-.38-.07-.53-.22l-1.21-1.21-1.21 1.21c-.29.29-.77.29-1.06 0a.754.754 0 0 1 0-1.06l1.74-1.74c.29-.29.77-.29 1.06 0L5 10.891c.29.29.29.77 0 1.06-.14.15-.34.22-.53.22ZM21.26 15.07c-.19 0-.38-.07-.53-.22l-1.74-1.74a.754.754 0 0 1 0-1.06c.29-.29.77-.29 1.06 0l1.21 1.21 1.21-1.21c.29-.29.77-.29 1.06 0 .29.29.29.77 0 1.06l-1.74 1.74c-.14.14-.34.22-.53.22Z" fill="#292D32"/><path d="M21.26 15.07c-.41 0-.75-.34-.75-.75V12c0-4.69-3.82-8.51-8.51-8.51-2.59 0-5.01 1.16-6.64 3.19-.26.32-.73.37-1.05.12a.748.748 0 0 1-.12-1.05A9.945 9.945 0 0 1 12 2c5.52 0 10.01 4.49 10.01 10.01v2.32c0 .4-.33.74-.75.74ZM12 22.01C6.48 22.01 1.99 17.52 1.99 12V9.68c0-.41.34-.75.75-.75s.75.34.75.75V12c0 4.69 3.82 8.51 8.51 8.51 2.59 0 5.01-1.16 6.64-3.19a.748.748 0 0 1 1.17.93A9.955 9.955 0 0 1 12 22.01Z" fill="#292D32"/><path d="M13.38 12.75H9c-.41 0-.75-.34-.75-.75V8.5c0-.41.34-.75.75-.75h4.38c1.33 0 2.5 1.17 2.5 2.5 0 1.38-1.13 2.5-2.5 2.5Zm-3.63-1.5h3.62c.55 0 1-.45 1-1 0-.45-.45-1-1-1H9.75v2Z" fill="#292D32"/><path d="M14 16.25H9c-.41 0-.75-.34-.75-.75V12c0-.41.34-.75.75-.75h5c1.52 0 2.75 1.12 2.75 2.5s-1.23 2.5-2.75 2.5Zm-4.25-1.5H14c.69 0 1.25-.45 1.25-1s-.56-1-1.25-1H9.75v2Z" fill="#292D32"/><path d="M11.8 18c-.41 0-.75-.34-.75-.75V15.5c0-.41.34-.75.75-.75s.75.34.75.75v1.75c0 .41-.34.75-.75.75ZM11.8 9.25c-.41 0-.75-.34-.75-.75V6.75c0-.41.34-.75.75-.75s.75.34.75.75V8.5c0 .41-.34.75-.75.75Z" fill="#292D32"/></svg>