<svg width="24" height="24" fill="none" xmlns="http://www.w3.org/2000/svg"><path d="M13 9.25H2c-.41 0-.75-.34-.75-.75s.34-.75.75-.75h11c.41 0 .75.34.75.75s-.34.75-.75.75ZM8 17.25H6c-.41 0-.75-.34-.75-.75s.34-.75.75-.75h2c.41 0 .75.34.75.75s-.34.75-.75.75ZM14.5 17.25h-4c-.41 0-.75-.34-.75-.75s.34-.75.75-.75h4c.41 0 .75.34.75.75s-.34.75-.75.75Z" fill="#292D32"/><path d="M17.56 21.25H6.44c-3.98 0-5.19-1.2-5.19-5.14V7.89c0-3.94 1.21-5.14 5.19-5.14h6.84c.41 0 .75.34.75.75s-.34.75-.75.75H6.44c-3.14 0-3.69.54-3.69 3.64v8.22c0 3.1.55 3.64 3.69 3.64h11.12c3.14 0 3.69-.54 3.69-3.64v-4.78c0-.41.34-.75.75-.75s.75.34.75.75v4.78c0 3.94-1.21 5.14-5.19 5.14Z" fill="#292D32"/><path d="M20.12 6.5H17c-.41 0-.75-.34-.75-.75v-2.5c0-.41.34-.75.75-.75h3.13c1.07 0 2 .93 2 2-.01 1.1-.9 2-2.01 2ZM17.75 5h2.38c.28 0 .5-.22.5-.5 0-.22-.24-.5-.5-.5h-2.38v1Z" fill="#292D32"/><path d="M20.57 9H17c-.41 0-.75-.34-.75-.75v-2.5c0-.41.34-.75.75-.75h3.57c1.2 0 2.18.9 2.18 2s-.98 2-2.18 2Zm-2.82-1.5h2.82c.37 0 .68-.23.68-.5s-.31-.5-.68-.5h-2.82v1Z" fill="#292D32"/><path d="M18.76 10.25c-.41 0-.75-.34-.75-.75V8.25c0-.41.34-.75.75-.75s.75.34.75.75V9.5c0 .42-.33.75-.75.75ZM18.76 4c-.41 0-.75-.34-.75-.75V2c0-.41.34-.75.75-.75s.75.34.75.75v1.25c0 .41-.33.75-.75.75Z" fill="#292D32"/><path d="M18.19 4H16c-.41 0-.75-.34-.75-.75s.34-.75.75-.75h2.19c.41 0 .75.34.75.75s-.34.75-.75.75ZM18.19 9H16c-.41 0-.75-.34-.75-.75s.34-.75.75-.75h2.19c.41 0 .75.34.75.75s-.34.75-.75.75Z" fill="#292D32"/></svg>