<svg width="24" height="24" fill="none" xmlns="http://www.w3.org/2000/svg"><path d="M16 23.719a.745.745 0 0 1-.64-1.13l1.05-1.75c.21-.36.67-.47 1.03-.26.36.21.47.67.26 1.03l-.27.45c2.76-.65 4.83-3.13 4.83-6.09 0-.41.34-.75.75-.75s.75.34.75.75c-.01 4.27-3.49 7.75-7.76 7.75ZM1 8.719c-.41 0-.75-.34-.75-.75C.25 3.699 3.73.219 8 .219a.745.745 0 0 1 .64 1.13l-1.05 1.75c-.21.36-.67.47-1.03.26a.749.749 0 0 1-.26-1.03l.27-.45c-2.76.65-4.83 3.13-4.83 6.09a.74.74 0 0 1-.74.75ZM9.431 16.078h-2.81c-.41 0-.75-.34-.75-.75v-2.25c0-.41.34-.75.75-.75h2.81c1 0 1.88.88 1.88 1.88 0 1.02-.85 1.87-1.88 1.87Zm-2.06-1.5h2.06c.21 0 .38-.17.38-.38 0-.15-.17-.38-.38-.38h-2.06v.76Z" fill="#292D32"/><path d="M9.83 18.328H6.61c-.41 0-.75-.34-.75-.75v-2.25c0-.41.34-.75.75-.75h3.22c1.12 0 2.04.84 2.04 1.88s-.91 1.87-2.04 1.87Zm-2.46-1.5h2.47c.32 0 .54-.2.54-.38s-.22-.38-.54-.38H7.37v.76Z" fill="#292D32"/><path d="M8.42 19.45c-.41 0-.75-.34-.75-.75v-1.13c0-.41.34-.75.75-.75s.75.34.75.75v1.13c0 .42-.34.75-.75.75ZM8.42 13.821c-.41 0-.75-.34-.75-.75v-1.13c0-.41.34-.75.75-.75s.75.34.75.75v1.13c0 .42-.34.75-.75.75Z" fill="#292D32"/><path d="M8.67 22.25c-3.82 0-6.92-3.11-6.92-6.92s3.11-6.92 6.92-6.92c.18 0 .34.01.52.02 3.39.26 6.13 3 6.38 6.37.01.22.02.37.02.53.01 3.81-3.1 6.92-6.92 6.92Zm0-12.35c-2.99 0-5.42 2.43-5.42 5.42 0 2.99 2.43 5.42 5.42 5.42 2.99 0 5.43-2.43 5.43-5.42 0-.13-.01-.26-.02-.39-.2-2.68-2.35-4.82-4.99-5.02-.13 0-.27-.01-.42-.01Z" fill="#292D32"/><path d="M15.33 15.602h-.49c-.39 0-.72-.3-.75-.69a5.44 5.44 0 0 0-4.99-4.99.752.752 0 0 1-.69-.75v-.49c0-3.82 3.11-6.92 6.93-6.92s6.92 3.11 6.92 6.92-3.12 6.92-6.93 6.92ZM9.9 8.512c2.82.51 5.08 2.76 5.59 5.59a5.432 5.432 0 0 0 5.26-5.42c0-2.99-2.43-5.42-5.42-5.42a5.419 5.419 0 0 0-5.43 5.25Z" fill="#292D32"/></svg>