<svg width="24" height="24" fill="none" xmlns="http://www.w3.org/2000/svg"><path d="M15.5 15.75c-.18 0-.38-.01-.57-.02a.751.751 0 0 1-.7-.69c-.22-2.79-2.49-5.05-5.27-5.27a.751.751 0 0 1-.69-.7c-.01-.19-.02-.38-.02-.57 0-4 3.25-7.25 7.25-7.25s7.25 3.25 7.25 7.25-3.25 7.25-7.25 7.25ZM9.75 8.36c2.98.52 5.37 2.91 5.89 5.89a5.755 5.755 0 0 0 5.61-5.75c0-3.17-2.58-5.75-5.75-5.75-3.12 0-5.67 2.5-5.75 5.61Z" fill="#292D32"/><path d="M8.5 22.75c-4 0-7.25-3.25-7.25-7.25a7.255 7.255 0 0 1 7.82-7.23c3.53.28 6.39 3.14 6.66 6.65.01.2.02.39.02.58 0 4-3.25 7.25-7.25 7.25Zm0-13c-3.17 0-5.75 2.58-5.75 5.75s2.58 5.75 5.75 5.75a5.757 5.757 0 0 0 5.73-6.22c-.22-2.77-2.48-5.04-5.27-5.26-.14-.01-.3-.02-.46-.02ZM3 7.34a1.737 1.737 0 0 1-1.75-1.75V3c0-.96.79-1.75 1.75-1.75h2.59a1.752 1.752 0 0 1 1.24 2.99L4.24 6.83c-.34.33-.78.51-1.24.51Zm0-4.59c-.14 0-.25.11-.25.25v2.59c0 .15.1.21.15.23.06.02.17.05.27-.05l2.59-2.59c.1-.1.08-.21.05-.27-.03-.06-.09-.15-.23-.15H3v-.01ZM20.999 22.749h-2.59a1.752 1.752 0 0 1-1.24-2.99l2.59-2.59c.5-.5 1.25-.65 1.91-.38.66.27 1.08.91 1.08 1.62v2.59c0 .96-.79 1.75-1.75 1.75Zm-.01-4.59a.24.24 0 0 0-.17.08l-2.59 2.59c-.1.1-.08.21-.05.27.03.06.09.15.23.15h2.59c.14 0 .25-.11.25-.25v-2.59c0-.15-.1-.21-.15-.23a.36.36 0 0 0-.11-.02Z" fill="#292D32"/></svg>