<svg width="24" height="24" fill="none" xmlns="http://www.w3.org/2000/svg"><path d="M17.45 22.75c-1.13 0-2.32-.27-3.55-.79-1.2-.51-2.41-1.21-3.59-2.06l-.44-.33a.749.749 0 1 1 .91-1.19l.42.31c1.08.79 2.19 1.43 3.29 1.89 1.71.73 3.31.9 4.63.35.51-.21.96-.53 1.37-.99.23-.25.41-.52.56-.84.12-.25.18-.51.18-.77 0-.16-.03-.32-.11-.5-.02-.05-.09-.17-.28-.3l-3.32-2.36c-.2-.14-.38-.24-.55-.31-.26-.1-.43-.11-.65.03-.2.1-.38.25-.58.45l-.76.75c-.39.38-.99.47-1.45.3-.02-.01-.12-.05-.14-.06-.01-.01-.12-.05-.13-.06-.22-.11-.46-.27-.74-.47a.751.751 0 1 1 .88-1.22c.21.15.4.27.56.36l-.01.06.73-.73c.31-.31.61-.54.9-.69.55-.34 1.25-.4 1.95-.11.26.11.54.26.84.47l3.32 2.36c.36.25.64.57.8.95.15.38.22.73.22 1.08 0 .48-.11.96-.32 1.41-.21.45-.47.84-.8 1.2-.57.63-1.19 1.08-1.91 1.37-.69.29-1.44.44-2.23.44Zm-3.5-7.74-.16.68.27-.7c-.04-.01-.09 0-.11.02ZM7.47 17.24c-.19 0-.39-.07-.53-.22a28.11 28.11 0 0 1-2.86-3.36c-.86-1.2-1.55-2.39-2.04-3.56-.53-1.23-.79-2.43-.79-3.56 0-.78.14-1.52.41-2.21.29-.72.73-1.37 1.34-1.94.77-.75 1.65-1.14 2.59-1.14.39 0 .79.09 1.13.25.39.18.72.45.96.81L10 5.58c.21.29.37.57.48.85.13.3.2.6.2.89 0 .38-.11.75-.32 1.1a4 4 0 0 1-.67.85l-.68.71c.01.03.02.05.03.07.12.21.36.57.82 1.11.48.56.95 1.06 1.41 1.54.29.3.29.77-.01 1.06-.3.29-.77.29-1.06-.01-.49-.5-.97-1.03-1.48-1.62-.47-.55-.81-1.02-1.02-1.41-.02-.04-.04-.08-.05-.12l-.07-.17a1.75 1.75 0 0 1-.08-.49c0-.36.13-.68.38-.93l.75-.78c.2-.2.35-.39.45-.56.08-.13.11-.24.11-.34 0-.08-.03-.2-.08-.32-.08-.19-.19-.36-.33-.56L6.46 3.17a.922.922 0 0 0-.37-.31c-.15-.07-.32-.11-.5-.11-.55 0-1.06.24-1.55.72-.45.43-.78.9-.98 1.41-.21.52-.31 1.07-.31 1.66 0 .93.22 1.94.66 2.98.45 1.06 1.08 2.16 1.88 3.26.8 1.1 1.71 2.17 2.71 3.18.29.29.29.77 0 1.06-.15.15-.34.22-.53.22Z" fill="#292D32"/><path d="M2 22.751c-.19 0-.38-.07-.53-.22a.754.754 0 0 1 0-1.06l20-20c.29-.29.77-.29 1.06 0 .29.29.29.77 0 1.06l-20 20c-.15.15-.34.22-.53.22Z" fill="#292D32"/></svg>