<svg width="24" height="24" fill="none" xmlns="http://www.w3.org/2000/svg"><path d="M14.46 19.831c-.23 0-.46-.05-.67-.16a.71.71 0 0 1-.14-.1l-1.67-1.42-1.64 1.42c-.05.04-.1.07-.15.1-.39.19-.83.21-1.22.04-.4-.17-.7-.5-.84-.91l-.32-.96c-.17-.5-.02-1.13.35-1.51l1.67-1.64-.01-1.45-3.01 1.29c-.5.21-1.02.19-1.42-.08-.39-.25-.62-.72-.62-1.26v-.93c0-.78.54-1.61 1.26-1.92l3.79-1.63v-1.91c0-.98.65-2.04 1.52-2.46.43-.21.92-.21 1.35 0 .87.45 1.52 1.51 1.52 2.46v1.91l3.79 1.63c.72.3 1.26 1.13 1.26 1.92v.93c0 .54-.23 1.01-.64 1.27-.41.26-.92.29-1.42.08l-3-1.29v1.47l1.63 1.63c.37.37.52 1.01.35 1.51l-.32.95c-.14.41-.44.74-.84.9-.18.08-.37.12-.56.12ZM12 16.671c.34 0 .67.11.94.32l1.55 1.32.27-.93-1.63-1.62c-.26-.25-.43-.67-.43-1.04v-1.85c0-.45.19-.84.53-1.07.34-.23.78-.26 1.2-.08l3.32 1.42.01-.88c0-.19-.18-.47-.35-.54l-3.95-1.7c-.43-.18-.75-.66-.75-1.15v-2.07c0-.39-.34-.94-.69-1.12-.36.18-.7.72-.7 1.12v2.07c0 .47-.31.96-.75 1.15l-3.94 1.7c-.17.07-.36.36-.36.54v.88l3.31-1.41c.41-.18.84-.16 1.19.07s.55.62.55 1.08v1.85c0 .36-.17.78-.43 1.04l-1.68 1.65.32.88 1.51-1.28c.28-.23.62-.35.96-.35Zm2.05-8.03.01.01c0-.01-.01-.01-.01-.01Z" fill="#292D32"/><path d="M15 22.75H9c-5.43 0-7.75-2.32-7.75-7.75V9c0-5.43 2.32-7.75 7.75-7.75h6c5.43 0 7.75 2.32 7.75 7.75v6c0 5.43-2.32 7.75-7.75 7.75Zm-6-20C4.39 2.75 2.75 4.39 2.75 9v6c0 4.61 1.64 6.25 6.25 6.25h6c4.61 0 6.25-1.64 6.25-6.25V9c0-4.61-1.64-6.25-6.25-6.25H9Z" fill="#292D32"/></svg>