<svg width="24" height="24" fill="none" xmlns="http://www.w3.org/2000/svg"><path d="M8.582 22.55c-.22 0-.45-.04-.66-.13-.47-.2-.83-.59-.99-1.08l-.44-1.32c-.2-.6-.02-1.35.42-1.8l2.27-2.28c.03-.03.07-.14.07-.19v-2.47l-4.56 1.97c-.61.26-1.23.23-1.7-.08s-.75-.87-.75-1.52v-1.29c0-.98.7-2.03 1.59-2.38l5.41-2.34V4.8c0-1.21.85-2.6 1.93-3.16a1.8 1.8 0 0 1 1.63 0c1.09.56 1.94 1.94 1.94 3.15v2.84l5.44 2.34c.89.38 1.57 1.4 1.57 2.39v1.29c0 .66-.27 1.21-.75 1.52-.48.31-1.09.34-1.7.09l-4.56-1.97v2.47c0 .04.04.14.07.17l2.28 2.29c.44.44.62 1.21.42 1.8l-.44 1.32c-.17.49-.53.88-1.01 1.07-.47.19-.99.17-1.44-.05-.05-.03-.1-.06-.15-.1l-2.33-1.96c-.08-.07-.24-.06-.31 0l-2.33 1.96a.42.42 0 0 1-.14.09c-.24.14-.51.2-.78.2Zm.98-10.91c.23 0 .45.06.64.19.35.23.55.62.55 1.08v2.85c0 .43-.21.94-.51 1.24l-2.27 2.28c-.04.05-.08.2-.06.26l.44 1.33c.03.1.1.14.14.16.03.01.08.03.14.01l2.24-1.89c.63-.54 1.62-.54 2.25 0l2.23 1.88c.07.01.12 0 .15-.01.04-.02.12-.06.15-.16l.44-1.32a.376.376 0 0 0-.06-.26L13.762 17c-.3-.28-.52-.8-.52-1.24v-2.85c0-.45.19-.84.53-1.07.34-.23.78-.26 1.2-.08l4.92 2.12c.15.06.25.06.28.04.03-.02.07-.11.07-.27v-1.29c0-.38-.32-.87-.66-1.01l-5.58-2.41c-.44-.19-.75-.67-.75-1.15v-3c0-.66-.52-1.51-1.12-1.81a.319.319 0 0 0-.27 0c-.58.3-1.11 1.17-1.11 1.82v3c0 .47-.31.96-.75 1.15l-5.58 2.41c-.35.14-.67.63-.67 1v1.29c0 .16.04.25.07.27.03.02.13.02.28-.04l4.91-2.12c.18-.08.37-.12.55-.12Z" fill="#292D32"/></svg>