<svg width="24" height="24" fill="none" xmlns="http://www.w3.org/2000/svg"><path d="M17.5 22.75h-14c-.41 0-.75-.34-.75-.75V5c0-2.24 1.51-3.75 3.75-3.75h8c2.24 0 3.75 1.51 3.75 3.75v17c0 .41-.34.75-.75.75Zm-13.25-1.5h12.5V5c0-1.41-.84-2.25-2.25-2.25h-8c-1.41 0-2.25.84-2.25 2.25v16.25Z" fill="#292D32"/><path d="M19 22.75H2c-.41 0-.75-.34-.75-.75s.34-.75.75-.75h17c.41 0 .75.34.75.75s-.34.75-.75.75ZM12.612 10.748h-4.23c-1.63 0-2.64-1.01-2.64-2.64v-1.23c0-1.63 1.01-2.64 2.64-2.64h4.23c1.63 0 2.64 1.01 2.64 2.64v1.23c0 1.63-1.01 2.64-2.64 2.64Zm-4.22-5c-.81 0-1.14.33-1.14 1.14v1.23c0 .81.33 1.14 1.14 1.14h4.23c.81 0 1.14-.33 1.14-1.14v-1.23c0-.81-.33-1.14-1.14-1.14h-4.23ZM9.5 13.75h-3c-.41 0-.75-.34-.75-.75s.34-.75.75-.75h3c.41 0 .75.34.75.75s-.34.75-.75.75ZM17.5 16.758a.749.749 0 1 1 0-1.5l3.75-.01v-4.79l-1.59-.79a.763.763 0 0 1-.34-1.01c.19-.37.64-.52 1.01-.34l2 1c.25.13.41.39.41.67v6c0 .41-.33.75-.75.75l-4.49.02Z" fill="#292D32"/></svg>