<svg width="24" height="24" fill="none" xmlns="http://www.w3.org/2000/svg"><path d="M22 11V9c0-5-2-7-7-7H9C4 2 2 4 2 9v6c0 5 2 7 7 7h1M5.03 8.5H22M2.03 15.5H12M8.51 21.992V2.012M15.51 11.992v-9.98" stroke="#292D32" stroke-width="1.5" stroke-linecap="round" stroke-linejoin="round"/><path d="m18.73 14.671-4.15 4.15c-.16.16-.31.47-.35.69l-.23 1.59c-.08.57.32.98.89.89l1.59-.23c.22-.03.53-.19.69-.35l4.15-4.15c.71-.71 1.05-1.55 0-2.6-1.04-1.04-1.87-.71-2.59.01Z" stroke="#292D32" stroke-width="1.5" stroke-miterlimit="10" stroke-linecap="round" stroke-linejoin="round"/><path d="M18.14 15.262a3.761 3.761 0 0 0 2.6 2.6" stroke="#292D32" stroke-width="1.5" stroke-miterlimit="10" stroke-linecap="round" stroke-linejoin="round"/></svg>