<svg width="24" height="24" fill="none" xmlns="http://www.w3.org/2000/svg"><path d="M17 18H7c-.62 0-1.17-.02-1.66-.09C2.71 17.62 2 16.38 2 13v-2c0-3.38.71-4.62 3.34-4.91C5.83 6.02 6.38 6 7 6h10c.62 0 1.17.02 1.66.09C21.29 6.38 22 7.62 22 11v2c0 3.38-.71 4.62-3.34 4.91-.49.07-1.04.09-1.66.09Z" stroke="#292D32" stroke-width="1.5" stroke-linecap="round" stroke-linejoin="round"/><path d="M15.33 2c2.67 0 3.34.67 3.34 3.33v.34c0 .15 0 .28-.01.42C18.17 6.02 17.62 6 17 6H7c-.62 0-1.17.02-1.66.09-.01-.14-.01-.27-.01-.42v-.34C5.33 2.67 6 2 8.67 2h2.2M15.33 22H8.67c-2.67 0-3.34-.67-3.34-3.33v-.34c0-.15 0-.28.01-.42.49.07 1.04.09 1.66.09h10c.62 0 1.17-.02 1.66-.09.01.14.01.27.01.42v.34c0 2.66-.67 3.33-3.34 3.33Z" stroke="#292D32" stroke-width="1.5" stroke-linecap="round" stroke-linejoin="round"/></svg>