<svg width="24" height="24" fill="none" xmlns="http://www.w3.org/2000/svg"><path d="M22 7.43v6c0 1.5-.5 2.75-1.38 3.63-.87.87-2.12 1.37-3.62 1.37v2.13c0 .8-.89 1.28-1.55.84L11 18.43H8.88c.08-.3.12-.61.12-.93 0-1.02-.39-1.96-1.03-2.67A3.944 3.944 0 0 0 5 13.5c-1.12 0-2.14.46-2.87 1.21-.09-.4-.13-.83-.13-1.28v-6c0-3 2-5 5-5h10c3 0 5 2 5 5Z" stroke="#292D32" stroke-width="1.5" stroke-miterlimit="10" stroke-linecap="round" stroke-linejoin="round"/><path d="M9 17.5c0 .75-.21 1.46-.58 2.06-.21.36-.48.68-.79.94-.7.63-1.62 1-2.63 1a3.97 3.97 0 0 1-3.42-1.94A3.92 3.92 0 0 1 1 17.5c0-1.26.58-2.39 1.5-3.12A3.999 3.999 0 0 1 9 17.5Z" stroke="#292D32" stroke-width="1.5" stroke-miterlimit="10" stroke-linecap="round" stroke-linejoin="round"/><path d="m3.44 17.5.99.99 2.13-1.97" stroke="#292D32" stroke-width="1.5" stroke-linecap="round" stroke-linejoin="round"/><path d="M8.5 10.5h7" stroke="#292D32" stroke-width="1.5" stroke-miterlimit="10" stroke-linecap="round" stroke-linejoin="round"/></svg>