<svg width="24" height="24" fill="none" xmlns="http://www.w3.org/2000/svg"><path d="m9.2 14.78 2.58 2.26c.12.11.31.11.43 0l2.58-2.26c.67-.59.76-1.59.2-2.29s-1.58-.83-2.29-.29l-.7.54-.71-.53c-.72-.54-1.73-.41-2.29.29-.56.69-.47 1.7.2 2.28Z" stroke="#292D32" stroke-width="1.5" stroke-linecap="round" stroke-linejoin="round"/><path d="M2 13.02V7c0-4 1-5 5-5h1.5c1.5 0 1.83.44 2.4 1.2l1.5 2c.38.5.6.8 1.6.8h3c4 0 5 1 5 5M22 14.988v2.01c0 4-1 5-5 5H7c-4 0-5-1-5-5" stroke="#292D32" stroke-width="1.5" stroke-miterlimit="10" stroke-linecap="round" stroke-linejoin="round"/></svg>