<svg width="24" height="24" fill="none" xmlns="http://www.w3.org/2000/svg"><path d="m21.37 18.02-.1 1.28c-.15 1.53-.27 2.7-2.98 2.7H5.71C3 22 2.88 20.83 2.73 19.3l-.4-5c-.08-.83.18-1.6.65-2.19l.02-.02C3.55 11.42 4.38 11 5.31 11h13.38c.93 0 1.75.42 2.29 1.07.01.01.02.02.02.03.49.59.76 1.36.67 2.2" stroke="#292D32" stroke-width="1.5" stroke-miterlimit="10" stroke-linecap="round" stroke-linejoin="round"/><path d="M3.5 11.431v-5.15c0-3.4.85-4.25 4.25-4.25h1.27c1.27 0 1.56.38 2.04 1.02l1.27 1.7c.32.42.51.68 1.36.68h2.55c3.4 0 4.25.85 4.25 4.25v1.79M9.43 17h5.14" stroke="#292D32" stroke-width="1.5" stroke-miterlimit="10" stroke-linecap="round" stroke-linejoin="round"/></svg>