<svg width="24" height="24" fill="none" xmlns="http://www.w3.org/2000/svg"><path d="m19.512 5.85-5.94-3.43c-.97-.56-2.17-.56-3.15 0l-5.93 3.43a3.15 3.15 0 0 0-1.57 2.73v6.84c0 1.12.6 2.16 1.57 2.73l5.94 3.43c.97.56 2.17.56 3.15 0l5.94-3.43a3.15 3.15 0 0 0 1.57-2.73V8.58a3.192 3.192 0 0 0-1.58-2.73Zm-7.51 1.49c1.29 0 2.33 1.04 2.33 2.33S13.292 12 12.002 12s-2.33-1.04-2.33-2.33c0-1.28 1.04-2.33 2.33-2.33Zm2.68 9.32h-5.36c-.81 0-1.28-.9-.83-1.57.68-1.01 2-1.69 3.51-1.69 1.51 0 2.83.68 3.51 1.69.45.66-.03 1.57-.83 1.57Z" fill="#292D32"/></svg>