<svg width="24" height="24" fill="none" xmlns="http://www.w3.org/2000/svg"><path d="M19.79 14.93a7.575 7.575 0 0 1-7.6 1.87l-4.71 4.7c-.34.35-1.01.56-1.49.49l-2.18-.3c-.72-.1-1.39-.78-1.5-1.5l-.3-2.18c-.07-.48.16-1.15.49-1.49l4.7-4.7c-.8-2.6-.18-5.55 1.88-7.6 2.95-2.95 7.74-2.95 10.7 0 2.96 2.95 2.96 7.76.01 10.71ZM6.89 17.49l2.3 2.3" stroke="#292D32" stroke-width="1.5" stroke-miterlimit="10" stroke-linecap="round" stroke-linejoin="round"/><path d="M14.5 11a1.5 1.5 0 1 0 0-3 1.5 1.5 0 0 0 0 3Z" stroke="#292D32" stroke-width="1.5" stroke-linecap="round" stroke-linejoin="round"/></svg>