<svg width="24" height="24" fill="none" xmlns="http://www.w3.org/2000/svg"><path opacity=".4" d="M18.14 21.619c-.88.26-1.92.38-3.14.38H9c-1.22 0-2.26-.12-3.14-.38.22-2.6 2.89-4.65 6.14-4.65 3.25 0 5.92 2.05 6.14 4.65Z" stroke="#292D32" stroke-width="1.5" stroke-linecap="round" stroke-linejoin="round"/><path d="M22 9v6c0 3.78-1.14 5.85-3.86 6.62-.88.26-1.92.38-3.14.38H9c-1.22 0-2.26-.12-3.14-.38C3.14 20.85 2 18.78 2 15V9c0-5 2-7 7-7h6c5 0 7 2 7 7Z" stroke="#292D32" stroke-width="1.5" stroke-linecap="round" stroke-linejoin="round"/><path opacity=".4" d="M15.582 10.58c0 1.98-1.6 3.59-3.58 3.59s-3.58-1.61-3.58-3.59c0-1.98 1.6-3.58 3.58-3.58s3.58 1.6 3.58 3.58Z" stroke="#292D32" stroke-width="1.5" stroke-linecap="round" stroke-linejoin="round"/></svg>