<svg width="24" height="24" fill="none" xmlns="http://www.w3.org/2000/svg"><path d="M18 18.862h-.76c-.8 0-1.56.31-2.12.87l-1.71 1.69c-.78.77-2.05.77-2.83 0l-1.71-1.69c-.56-.56-1.33-.87-2.12-.87H6c-1.66 0-3-1.33-3-2.97V4.982c0-1.64 1.34-2.97 3-2.97h12c1.66 0 3 1.33 3 2.97v10.91c0 1.63-1.34 2.97-3 2.97Z" stroke="#292D32" stroke-width="1.5" stroke-miterlimit="10" stroke-linecap="round" stroke-linejoin="round"/><path opacity=".4" d="M12.002 10a2.33 2.33 0 1 0 0-4.66 2.33 2.33 0 0 0 0 4.66ZM16 15.658c0-1.8-1.79-3.26-4-3.26s-4 1.46-4 3.26" stroke="#292D32" stroke-width="1.5" stroke-linecap="round" stroke-linejoin="round"/></svg>