<svg width="24" height="24" fill="none" xmlns="http://www.w3.org/2000/svg"><path opacity=".4" d="M21.988 10.838c-.02-.48-.1-.95-.25-1.4a5.347 5.347 0 0 0-5.09-3.72h-2.79c-.58 0-.62-.06-.93-.47l-1.4-1.86c-.65-.87-1.16-1.4-2.79-1.4h-2.33c-2.44 0-4.42 1.98-4.42 4.42v10.23c0 2.95 2.4 5.35 5.35 5.35h9.3c2.95 0 5.35-2.4 5.35-5.35v-5.58a.81.81 0 0 0 0-.22Z" fill="#292D32"/><path d="M15.579 19.699c-2.11.15-2.11 3.21 0 3.36h5.01c.61 0 1.19-.22 1.64-.63 1.48-1.29.69-3.89-1.26-4.13-.7-4.22-6.81-2.62-5.36 1.4" fill="#292D32"/></svg>