<svg width="24" height="24" fill="none" xmlns="http://www.w3.org/2000/svg"><path opacity=".4" d="M21.74 9.44H2V6.42C2 3.98 3.98 2 6.42 2h2.33c1.63 0 2.14.53 2.79 1.4l1.4 1.86c.31.41.35.47.93.47h2.79c2.37-.01 4.39 1.55 5.08 3.71Z" fill="#292D32"/><path d="M21.99 10.841c-.02-.49-.1-.95-.25-1.4H2v7.21c0 2.95 2.4 5.35 5.35 5.35h9.3c2.95 0 5.35-2.4 5.35-5.35v-5.58c0-.07 0-.16-.01-.23Zm-7.49 5.41h-1.69v1.75c0 .41-.34.75-.75.75s-.75-.34-.75-.75v-1.75H9.5c-.41 0-.75-.34-.75-.75s.34-.75.75-.75h1.81v-1.75c0-.41.34-.75.75-.75s.75.34.75.75v1.75h1.69c.41 0 .75.34.75.75s-.34.75-.75.75Z" fill="#292D32"/></svg>