<svg width="24" height="24" fill="none" xmlns="http://www.w3.org/2000/svg"><path opacity=".4" d="M21.869 9.44H2.129V6.42c0-2.44 1.98-4.42 4.42-4.42h2.33c1.63 0 2.14.53 2.79 1.4l1.4 1.86c.31.41.35.47.93.47h2.79c2.37-.01 4.39 1.55 5.08 3.71Z" fill="#292D32"/><path d="M21.99 10.841c-.02-.48-.1-.95-.25-1.4H2v7.21c0 2.95 2.4 5.35 5.35 5.35h9.3c2.95 0 5.35-2.4 5.35-5.35v-5.58c0-.07 0-.16-.01-.23Zm-7.65 6.94c-.15.14-.34.22-.53.22s-.38-.07-.53-.22l-1.24-1.24-1.28 1.28c-.15.15-.34.22-.53.22s-.38-.07-.53-.22a.754.754 0 0 1 0-1.06l1.28-1.28-1.24-1.24a.754.754 0 0 1 0-1.06c.29-.29.77-.29 1.06 0l1.24 1.24 1.2-1.2c.29-.29.77-.29 1.06 0 .29.29.29.77 0 1.06l-1.2 1.2 1.24 1.24c.29.29.29.77 0 1.06Z" fill="#292D32"/></svg>