<svg width="24" height="24" fill="none" xmlns="http://www.w3.org/2000/svg"><path d="M16.19 2H7.81C4.17 2 2 4.17 2 7.81v8.37C2 19.83 4.17 22 7.81 22h8.37c3.64 0 5.81-2.17 5.81-5.81V7.81C22 4.17 19.83 2 16.19 2Zm1.07 7.96-2.31 2.98c-.29.37-.7.61-1.17.66-.47.06-.93-.07-1.3-.36l-1.83-1.44a.22.22 0 0 0-.19-.05c-.04 0-.11.02-.17.1l-2.38 3.09c-.15.19-.37.29-.59.29-.16 0-.32-.05-.46-.16a.749.749 0 0 1-.14-1.05l2.38-3.09c.29-.37.7-.61 1.17-.67.46-.06.93.07 1.3.36l1.83 1.44c.07.06.14.06.19.05.04 0 .11-.02.17-.1l2.31-2.98a.74.74 0 0 1 1.05-.13c.33.27.39.74.14 1.06Z" fill="#292D32"/></svg>