<svg width="24" height="24" fill="none" xmlns="http://www.w3.org/2000/svg"><path d="M22 22.75H5c-2.07 0-3.75-1.68-3.75-3.75V2c0-.41.34-.75.75-.75s.75.34.75.75v17c0 1.24 1.01 2.25 2.25 2.25h17c.41 0 .75.34.75.75s-.34.75-.75.75Z" fill="#292D32"/><path d="M5 17.75c-.17 0-.35-.06-.49-.18a.756.756 0 0 1-.08-1.06l4.59-5.36c.5-.58 1.22-.93 1.98-.96.76-.02 1.51.26 2.05.8l.95.95c.25.25.57.37.93.37.35-.01.67-.17.9-.44l4.59-5.36c.27-.31.74-.35 1.06-.08.31.27.35.74.08 1.06l-4.59 5.36c-.5.58-1.22.93-1.98.96a2.78 2.78 0 0 1-2.05-.8l-.94-.95c-.25-.25-.58-.38-.93-.37-.35.01-.67.17-.9.44l-4.59 5.36a.8.8 0 0 1-.58.26Z" fill="#292D32"/></svg>