<svg width="24" height="24" fill="none" xmlns="http://www.w3.org/2000/svg"><path d="m20.04 6.822-5.76-4.03c-1.57-1.1-3.98-1.04-5.49.13l-5.01 3.91c-1 .78-1.79 2.38-1.79 3.64v6.9c0 2.55 2.07 4.63 4.62 4.63h10.78c2.55 0 4.62-2.07 4.62-4.62v-6.78c0-1.35-.87-3.01-1.97-3.78Zm-3.16 9.37c0 .09-.02.18-.05.27-.07.17-.21.31-.38.38-.09.04-.18.05-.27.05h-1.86c-.39 0-.7-.31-.7-.7 0-.39.31-.7.7-.7h.18l-2.11-2.11-1.02 1.52c-.12.17-.3.29-.51.31a.676.676 0 0 1-.56-.2l-2.98-2.98a.706.706 0 0 1 0-.99c.27-.28.71-.27.99 0l2.38 2.38 1.02-1.52c.12-.17.3-.29.51-.31.22-.02.41.05.56.2l2.72 2.72v-.18c0-.39.31-.7.7-.7.39 0 .7.31.7.7v1.86h-.02Z" fill="#292D32"/></svg>