<svg width="24" height="24" fill="none" xmlns="http://www.w3.org/2000/svg"><path d="m20.04 6.822-5.76-4.03c-1.57-1.1-3.98-1.04-5.49.13l-5.01 3.91c-1 .78-1.79 2.38-1.79 3.64v6.9c0 2.55 2.07 4.63 4.62 4.63h10.78c2.55 0 4.62-2.07 4.62-4.62v-6.78c0-1.35-.87-3.01-1.97-3.78Zm-3.16 6.58c0 .39-.31.7-.7.7-.39 0-.7-.31-.7-.7v-.18l-2.72 2.72c-.15.15-.35.22-.56.2a.692.692 0 0 1-.5-.31l-1.02-1.52-2.38 2.38c-.14.14-.31.2-.49.2s-.36-.07-.49-.2a.706.706 0 0 1 0-.99l2.98-2.98c.15-.15.35-.22.56-.2.21.02.4.13.51.31l1.02 1.52 2.11-2.11h-.18c-.39 0-.7-.31-.7-.7 0-.39.31-.7.7-.7h1.86c.09 0 .18.02.27.05.17.07.31.21.38.38.04.09.05.18.05.27v1.86Z" fill="#292D32"/></svg>