<svg xmlns="http://www.w3.org/2000/svg" width="24" height="24" fill="none" viewBox="0 0 24 24">
  <path fill="#292D32" d="M16.19 2H7.81C4.17 2 2 4.17 2 7.81v8.37C2 19.83 4.17 22 7.81 22h8.37c3.64 0 5.81-2.17 5.81-5.81V7.81C22 4.17 19.83 2 16.19 2zm1.66 12.1c-.04.09-.09.17-.16.24l-3.04 3.04c-.15.15-.34.22-.53.22s-.38-.07-.53-.22a.754.754 0 010-1.06l1.76-1.76h-8.5c-.41 0-.75-.34-.75-.75s.34-.75.75-.75h10.31c.1 0 .19.02.29.06.18.08.33.22.41.41.06.18.06.39-.01.57zm-.7-3.17H6.85c-.1 0-.19-.02-.29-.06a.782.782 0 01-.41-.41.707.707 0 010-.57c.04-.09.09-.17.16-.24l3.04-3.04c.29-.29.77-.29 1.06 0 .29.29.29.77 0 1.06L8.66 9.43h8.5c.41 0 .75.34.75.75s-.34.75-.76.75z"/>
</svg>
