<svg xmlns="http://www.w3.org/2000/svg" width="24" height="24" fill="none" viewBox="0 0 24 24">
  <path fill="#292D32" d="M16.19 2H7.81C4.17 2 2 4.17 2 7.81v8.37C2 19.83 4.17 22 7.81 22h8.37c3.64 0 5.81-2.17 5.81-5.81V7.81C22 4.17 19.83 2 16.19 2zm-5.26 15.15c0 .1-.02.19-.06.29-.08.18-.22.33-.41.41a.717.717 0 01-.58 0 .776.776 0 01-.24-.16L6.6 14.65a.754.754 0 010-1.06c.29-.29.77-.29 1.06 0l1.76 1.76v-8.5c0-.41.34-.75.75-.75s.75.34.75.75v10.3h.01zm6.46-6.73c-.15.15-.34.22-.53.22s-.38-.07-.53-.22l-1.76-1.76v8.5c0 .41-.34.75-.75.75s-.75-.34-.75-.75V6.85c0-.1.02-.19.06-.29.08-.18.22-.33.41-.41.18-.08.39-.08.57 0 .09.04.17.09.24.16l3.04 3.04c.29.3.29.77 0 1.07z"/>
</svg>
