<svg xmlns="http://www.w3.org/2000/svg" width="24" height="24" fill="none" viewBox="0 0 24 24">
  <path fill="#292D32" d="M21.75 6.73c0-.2-.08-.39-.22-.53l-3.72-3.72a.754.754 0 00-1.06 0c-.29.29-.29.77 0 1.06l2.45 2.45H3c-.41 0-.75.34-.75.75s.34.74.75.74h16.19l-2.44 2.44c-.29.29-.29.77 0 1.06.15.15.34.22.53.22s.38-.07.53-.22l3.71-3.71c.07-.07.13-.16.17-.26 0-.01 0-.02.01-.03.03-.08.05-.16.05-.25zM21 16.518H4.81l2.44-2.44c.29-.29.29-.77 0-1.06a.754.754 0 00-1.06 0l-3.71 3.71c-.07.07-.13.16-.17.26 0 .01 0 .02-.01.03-.03.08-.05.17-.05.26 0 .2.08.39.22.53l3.72 3.72c.15.15.34.22.53.22s.38-.07.53-.22c.29-.29.29-.77 0-1.06l-2.45-2.45H21c.41 0 .75-.34.75-.75s-.34-.75-.75-.75z"/>
</svg>
