<svg xmlns="http://www.w3.org/2000/svg" width="24" height="24" fill="none" viewBox="0 0 24 24">
  <path fill="#292D32" d="M12 2C6.48 2 2 6.48 2 12s4.48 10 10 10 10-4.48 10-10S17.52 2 12 2zm-1.07 15.15c0 .1-.02.19-.06.29-.08.18-.22.33-.41.41a.717.717 0 01-.58 0 .776.776 0 01-.24-.16L6.6 14.65a.754.754 0 010-1.06c.29-.29.77-.29 1.06 0l1.76 1.76v-8.5c0-.41.34-.75.75-.75s.75.34.75.75v10.3h.01zm6.46-6.73c-.15.15-.34.22-.53.22s-.38-.07-.53-.22l-1.76-1.76v8.5c0 .41-.34.75-.75.75s-.75-.34-.75-.75V6.85c0-.1.02-.19.06-.29.08-.18.22-.33.41-.41.18-.08.39-.08.57 0 .09.04.17.09.24.16l3.04 3.04c.29.3.29.77 0 1.07z"/>
</svg>
