<svg xmlns="http://www.w3.org/2000/svg" width="24" height="24" fill="none" viewBox="0 0 24 24">
  <path fill="#292D32" d="M16.19 2H7.81C4.17 2 2 4.17 2 7.81v8.37C2 19.83 4.17 22 7.81 22h8.37c3.64 0 5.81-2.17 5.81-5.81V7.81C22 4.17 19.83 2 16.19 2zm1.34 8.22l-1.57 1.57c-.15.15-.34.22-.53.22s-.38-.07-.53-.22a.754.754 0 010-1.06l.26-.26h-5.08c-1.28 0-2.33 1.04-2.33 2.33s1.04 2.33 2.33 2.33H15c.41 0 .75.34.75.75s-.34.75-.75.75h-4.92c-2.11 0-3.83-1.72-3.83-3.83 0-2.11 1.72-3.83 3.83-3.83h5.15l-.33-.32a.754.754 0 010-1.06c.29-.29.77-.29 1.06 0l1.57 1.57c.29.3.29.77 0 1.06z"/>
</svg>
