<svg xmlns="http://www.w3.org/2000/svg" width="24" height="24" fill="none" viewBox="0 0 24 24">
  <path fill="#292D32" d="M16.19 2H7.81C4.17 2 2 4.17 2 7.81v8.37C2 19.83 4.17 22 7.81 22h8.37c3.64 0 5.81-2.17 5.81-5.81V7.81C22 4.17 19.83 2 16.19 2zM12 18.58c-3.17 0-5.75-2.58-5.75-5.75 0-3.11 2.48-5.64 5.56-5.75l-.37-.43a.756.756 0 01.07-1.06c.31-.27.79-.24 1.06.07l1.66 1.9c.02.02.03.04.05.06.04.06.08.13.1.2l.03.12c.02.09.01.19-.01.28-.02.08-.05.16-.09.24-.01.02-.03.04-.04.06-.04.06-.1.11-.16.15 0 0-.01 0-.01.01l-1.94 1.42a.76.76 0 01-1.05-.16c-.24-.33-.17-.8.16-1.05l.41-.3c-2.2.16-3.94 2-3.94 4.24a4.26 4.26 0 004.25 4.25 4.26 4.26 0 004.25-4.25 4.3 4.3 0 00-.71-2.36.746.746 0 01.21-1.04c.35-.23.81-.14 1.04.21.63.95.97 2.05.97 3.19 0 3.17-2.58 5.75-5.75 5.75z"/>
</svg>
