<svg xmlns="http://www.w3.org/2000/svg" width="24" height="24" fill="none" viewBox="0 0 24 24">
  <path fill="#292D32" d="M7.878 12.07c0-.41.34-.75.75-.75h5.48V2.86a.869.869 0 00-.87-.86c-5.89 0-10 4.11-10 10s4.11 10 10 10c.47 0 .86-.38.86-.86v-8.33h-5.47a.734.734 0 01-.75-.74z"/>
  <path fill="#292D32" d="M20.542 11.54l-2.84-2.85a.754.754 0 00-1.06 0c-.29.29-.29.77 0 1.06l1.56 1.56h-4.1v1.5h4.09l-1.56 1.56c-.29.29-.29.77 0 1.06.15.15.34.22.53.22s.38-.07.53-.22l2.84-2.85c.3-.28.3-.75.01-1.04z"/>
</svg>
