<svg xmlns="http://www.w3.org/2000/svg" width="24" height="24" fill="none" viewBox="0 0 24 24">
  <path fill="#292D32" d="M16.19 2H7.81C4.17 2 2 4.17 2 7.81v8.37C2 19.83 4.17 22 7.81 22h8.37c3.64 0 5.81-2.17 5.81-5.81V7.81C22 4.17 19.83 2 16.19 2zM12 18.01c-3.17 0-5.75-2.58-5.75-5.75 0-1.14.33-2.25.97-3.19a.746.746 0 111.24.83 4.3 4.3 0 00-.71 2.36A4.26 4.26 0 0012 16.51a4.26 4.26 0 004.25-4.25A4.26 4.26 0 0012 8.01c-.19 0-.37.02-.56.04l.56.41c.33.24.41.71.16 1.05-.15.2-.38.31-.61.31-.15 0-.31-.05-.44-.14L9.17 8.25l-.02-.02c-.01-.01-.02-.01-.03-.02-.03-.02-.04-.06-.07-.09-.03-.04-.06-.07-.09-.12-.02-.04-.03-.09-.05-.13-.01-.05-.03-.09-.03-.14 0-.05 0-.09.01-.14 0-.05 0-.09.02-.14 0-.05.03-.09.05-.14.02-.03.02-.07.05-.11.01 0 .02-.01.03-.02.01-.01.01-.02.02-.03l1.67-1.91c.27-.31.75-.35 1.06-.07.31.27.34.75.07 1.06l-.28.32c.14-.01.28-.03.43-.03 3.17 0 5.75 2.58 5.75 5.75s-2.59 5.74-5.76 5.74z"/>
</svg>
