<svg xmlns="http://www.w3.org/2000/svg" width="24" height="24" fill="none" viewBox="0 0 24 24">
  <path fill="#292D32" d="M16.19 2H7.81C4.17 2 2 4.17 2 7.81v8.37C2 19.83 4.17 22 7.81 22h8.37c3.64 0 5.81-2.17 5.81-5.81V7.81C22 4.17 19.83 2 16.19 2zM12 18.01c-3.17 0-5.75-2.58-5.75-5.75S8.83 6.51 12 6.51c.14 0 .29.02.43.03l-.28-.32a.756.756 0 01.07-1.06c.31-.27.79-.24 1.06.07l1.67 1.91c.01.01.01.02.02.03.01.01.02.01.02.02.02.03.03.07.05.11.02.05.05.09.06.14.01.05.01.09.02.14 0 .05.01.09.01.14 0 .05-.02.09-.04.14-.02.05-.03.1-.05.14-.02.04-.06.08-.09.12-.03.03-.04.07-.07.09-.01.01-.02.01-.03.02-.01.01-.01.02-.02.02l-1.94 1.42a.72.72 0 01-.44.14c-.23 0-.46-.11-.61-.31-.24-.33-.17-.8.16-1.05l.56-.41c-.19-.01-.37-.03-.56-.03a4.26 4.26 0 00-4.25 4.25A4.26 4.26 0 0012 16.51a4.26 4.26 0 004.25-4.25c0-.85-.25-1.66-.71-2.36a.746.746 0 01.21-1.04c.34-.23.81-.14 1.04.21.63.95.97 2.05.97 3.19A5.766 5.766 0 0112 18.01z"/>
</svg>
