<svg xmlns="http://www.w3.org/2000/svg" width="24" height="24" fill="none" viewBox="0 0 24 24">
  <path fill="#292D32" d="M16.19 2H7.81C4.17 2 2 4.17 2 7.81v8.37C2 19.83 4.17 22 7.81 22h8.37c3.64 0 5.81-2.17 5.81-5.81V7.81C22 4.17 19.83 2 16.19 2zM12 18.25c-1.79 0-3.19-.89-4.14-1.77v.71c0 .41-.34.75-.75.75s-.75-.34-.75-.75v-2.75c0-.41.34-.75.75-.75h2.48c.41 0 .75.34.75.75s-.34.75-.75.75h-.9c.74.74 1.89 1.56 3.31 1.56 2.62 0 4.75-2.13 4.75-4.75 0-.41.34-.75.75-.75s.75.34.75.75c0 3.45-2.8 6.25-6.25 6.25zm6.25-8.71v.08a.75.75 0 01-.3.54c-.07.05-.15.09-.24.12-.07.02-.14.03-.21.03h-2.43c-.41 0-.75-.34-.75-.75s.34-.75.75-.75h.83c-.8-.74-2.09-1.56-3.88-1.56-2.62 0-4.75 2.13-4.75 4.75 0 .41-.34.75-.75.75s-.77-.34-.77-.75c0-3.45 2.8-6.25 6.25-6.25 2.15 0 3.73.93 4.75 1.82v-.76c0-.41.34-.75.75-.75s.75.34.75.75v2.73z"/>
</svg>
