<svg xmlns="http://www.w3.org/2000/svg" width="24" height="24" fill="none" viewBox="0 0 24 24">
  <path fill="#292D32" d="M12 2C6.48 2 2 6.48 2 12s4.48 10 10 10 10-4.48 10-10S17.52 2 12 2zm5.19 13.94c-.04.09-.09.17-.16.24l-1.69 1.69c-.15.15-.34.22-.53.22s-.38-.07-.53-.22a.754.754 0 010-1.06l.41-.41H9.1c-1.3 0-2.35-1.06-2.35-2.35v-1.77c0-.41.34-.75.75-.75s.75.34.75.75v1.77c0 .47.38.85.85.85h5.59l-.41-.41a.754.754 0 010-1.06c.29-.29.77-.29 1.06 0l1.69 1.69c.07.07.12.15.16.24.08.19.08.4 0 .58zm.06-4.22c0 .41-.34.75-.75.75s-.75-.34-.75-.75V9.95a.85.85 0 00-.85-.85H9.31l.41.4c.29.29.29.77 0 1.06-.15.15-.34.22-.53.22s-.38-.07-.53-.22L6.97 8.87a.776.776 0 01-.16-.24.707.707 0 010-.57c.04-.09.09-.18.16-.25l1.69-1.69c.29-.29.77-.29 1.06 0 .29.29.29.77 0 1.06l-.41.41h5.59c1.3 0 2.35 1.06 2.35 2.35v1.78z"/>
</svg>
