<svg xmlns="http://www.w3.org/2000/svg" width="24" height="24" fill="none" viewBox="0 0 24 24">
  <path fill="#292D32" d="M16.19 2H7.81C4.17 2 2 4.17 2 7.81v8.37C2 19.83 4.17 22 7.81 22h8.37c3.64 0 5.81-2.17 5.81-5.81V7.81C22 4.17 19.83 2 16.19 2zM8.47 8.98l3-3c.07-.07.15-.12.24-.16.18-.08.39-.08.57 0 .09.04.17.09.24.16l3 3c.29.29.29.77 0 1.06-.15.15-.34.22-.53.22s-.38-.07-.53-.22l-1.72-1.72v6.19c0 .41-.34.75-.75.75s-.75-.34-.75-.75V8.32l-1.72 1.72c-.29.29-.77.29-1.06 0a.755.755 0 01.01-1.06zm9.77 8.24c-2.01.67-4.12 1.01-6.24 1.01s-4.23-.34-6.24-1.01a.753.753 0 01-.47-.95c.13-.39.56-.61.95-.47 3.72 1.24 7.81 1.24 11.53 0 .39-.13.82.08.95.47.12.4-.09.82-.48.95z"/>
</svg>
