<svg xmlns="http://www.w3.org/2000/svg" width="24" height="24" fill="none" viewBox="0 0 24 24">
  <path fill="#292D32" d="M16.19 2H7.81C4.17 2 2 4.17 2 7.81v8.37C2 19.83 4.17 22 7.81 22h8.37c3.64 0 5.81-2.17 5.81-5.81V7.81C22 4.17 19.83 2 16.19 2zM8.64 12.81l4.38-4.38h-2.43c-.41 0-.75-.34-.75-.75s.34-.75.75-.75h4.24c.1 0 .19.02.29.06.18.08.33.22.41.41.04.09.06.19.06.29v4.24c0 .41-.34.75-.75.75s-.75-.34-.75-.75V9.5L9.7 13.87c-.15.15-.34.22-.53.22s-.38-.07-.53-.22a.754.754 0 010-1.06zm9.6 4.41c-2.01.67-4.12 1.01-6.24 1.01s-4.23-.34-6.24-1.01a.753.753 0 01-.47-.95c.13-.39.55-.61.95-.47 3.72 1.24 7.81 1.24 11.53 0 .39-.13.82.08.95.47.12.4-.09.82-.48.95z"/>
</svg>
