<svg width="24" height="24" fill="none" xmlns="http://www.w3.org/2000/svg"><path d="M17 2c3 0 5 2 5 5v2M2 9V7c0-3 2-5 5-5h5.77M21.999 15v2c0 3-2 5-5 5h-5.53M2 15v2c0 3 2 5 5 5" stroke="#292D32" stroke-width="1.5" stroke-miterlimit="10" stroke-linecap="round" stroke-linejoin="round"/><path d="m6.7 9.262 5.3 3.07 5.26-3.05M12 17.77v-5.45" stroke="#292D32" stroke-width="1.5" stroke-linecap="round" stroke-linejoin="round"/><path d="m10.758 6.289-3.2 1.78c-.72.4-1.32 1.41-1.32 2.24v3.39c0 .83.59 1.84 1.32 2.24l3.2 1.78c.68.38 1.8.38 2.49 0l3.2-1.78c.72-.4 1.32-1.41 1.32-2.24v-3.39c0-.83-.59-1.84-1.32-2.24l-3.2-1.78c-.69-.39-1.81-.39-2.49 0Z" stroke="#292D32" stroke-width="1.5" stroke-linecap="round" stroke-linejoin="round"/></svg>