<svg width="24" height="24" fill="none" xmlns="http://www.w3.org/2000/svg"><path d="m3.172 7.441 8.83 5.11 8.77-5.08M12 21.613v-9.07" stroke="#292D32" stroke-width="1.5" stroke-linecap="round" stroke-linejoin="round"/><path d="M2.39 14.83V9.17c0-1.38.99-3.06 2.2-3.73l5.34-2.96c1.14-.64 3-.64 4.14 0l5.34 2.96c1.21.67 2.2 2.35 2.2 3.73v5.66c0 .05 0 .09-.01.14-.7-.61-1.6-.97-2.6-.97-.94 0-1.81.33-2.5.88A3.97 3.97 0 0 0 15 18c0 .75.21 1.46.58 2.06.09.16.2.31.32.45l-1.83 1.01c-1.14.64-3 .64-4.14 0l-5.34-2.96" stroke="#292D32" stroke-width="1.5" stroke-linecap="round" stroke-linejoin="round"/><path d="M23 18c0 .75-.21 1.46-.58 2.06-.21.36-.48.68-.79.94-.7.63-1.62 1-2.63 1a3.97 3.97 0 0 1-3.42-1.94A3.92 3.92 0 0 1 15 18c0-1.26.58-2.39 1.5-3.12A3.999 3.999 0 0 1 23 18ZM20.07 19.04l-2.12-2.11M20.05 16.96l-2.12 2.11" stroke="#292D32" stroke-width="1.5" stroke-miterlimit="10" stroke-linecap="round" stroke-linejoin="round"/></svg>