<svg width="24" height="24" fill="none" xmlns="http://www.w3.org/2000/svg"><path d="m3.172 7.438 8.83 5.11 8.77-5.08M12 21.61v-9.07" stroke="#292D32" stroke-width="1.5" stroke-linecap="round" stroke-linejoin="round"/><path d="M2.39 9.169c0-1.38.99-3.06 2.2-3.73l5.34-2.97c1.14-.63 3.01-.63 4.15 0l5.34 2.97c1.21.67 2.2 2.35 2.2 3.73v5.65c0 1.38-.99 3.06-2.2 3.73l-5.34 2.97c-1.14.63-3.01.63-4.15 0l-5.34-2.97c-1.21-.67-2.2-2.35-2.2-3.73v-.82" stroke="#292D32" stroke-width="1.5" stroke-linecap="round" stroke-linejoin="round"/><path d="M17.002 13.242v-3.66l-6.07-3.51-1.05-.6-2.37-1.37" stroke="#292D32" stroke-width="1.5" stroke-linecap="round" stroke-linejoin="round"/></svg>