<svg width="24" height="24" fill="none" xmlns="http://www.w3.org/2000/svg"><path d="M15 2v10c0 1.1-.9 2-2 2H2V7.62c.73.87 1.85 1.41 3.09 1.38 1.01-.02 1.92-.41 2.6-1.06.31-.26.57-.59.77-.95.36-.61.56-1.33.54-2.08-.03-1.17-.55-2.2-1.36-2.91H15Z" stroke="#292D32" stroke-width="1.5" stroke-linecap="round" stroke-linejoin="round"/><path d="M20.29 9H19c-.55 0-1 .45-1 1v3c0 .55.45 1 1 1h3v3c0 1.66-1.34 3-3 3h-1c0-1.1-.9-2-2-2s-2 .9-2 2h-4c0-1.1-.9-2-2-2s-2 .9-2 2H5c-1.06 0-1.99-.55-2.52-1.37" stroke="#292D32" stroke-width="1.5" stroke-linecap="round" stroke-linejoin="round"/><path d="M2 14h11c1.1 0 2-.9 2-2V5h1.84c.36 0 .71.1 1.01.27M8 22a2 2 0 1 0 0-4 2 2 0 0 0 0 4ZM16 22a2 2 0 1 0 0-4 2 2 0 0 0 0 4ZM22 12v2h-3c-.55 0-1-.45-1-1v-3c0-.55.45-1 1-1h1.29L22 12Z" stroke="#292D32" stroke-width="1.5" stroke-linecap="round" stroke-linejoin="round"/><path d="M9 5c0 1.2-.53 2.27-1.36 3A4 4 0 0 1 5 9C2.79 9 1 7.21 1 5c0-1.26.58-2.39 1.5-3.12A3.999 3.999 0 0 1 9 5Z" stroke="#292D32" stroke-width="1.5" stroke-miterlimit="10" stroke-linecap="round" stroke-linejoin="round"/><path d="M5.25 3.75v1.5L4 6" stroke="#292D32" stroke-width="1.5" stroke-miterlimit="10" stroke-linecap="round" stroke-linejoin="round"/></svg>