<svg width="24" height="24" fill="none" xmlns="http://www.w3.org/2000/svg"><path d="M15 22.75H9c-5.43 0-7.75-2.32-7.75-7.75V9c0-5.43 2.32-7.75 7.75-7.75h6c5.43 0 7.75 2.32 7.75 7.75v6c0 5.43-2.32 7.75-7.75 7.75Zm-6-20C4.39 2.75 2.75 4.39 2.75 9v6c0 4.61 1.64 6.25 6.25 6.25h6c4.61 0 6.25-1.64 6.25-6.25V9c0-4.61-1.64-6.25-6.25-6.25H9Z" fill="#292D32"/><path d="M9.62 18.049c-1.58 0-2.87-1.29-2.87-2.87s1.29-2.87 2.87-2.87 2.87 1.29 2.87 2.87-1.29 2.87-2.87 2.87Zm0-4.23c-.75 0-1.37.61-1.37 1.37 0 .75.61 1.37 1.37 1.37.75 0 1.37-.61 1.37-1.37 0-.76-.62-1.37-1.37-1.37Z" fill="#292D32"/><path d="M11.742 15.93c-.41 0-.75-.34-.75-.75V7.77c0-.41.34-.75.75-.75s.75.34.75.75v7.41c0 .42-.34.75-.75.75Z" fill="#292D32"/><path d="M15.522 11.432c-.21 0-.43-.04-.65-.11l-2.34-.78c-.88-.29-1.54-1.21-1.54-2.14v-.62c0-.63.26-1.18.72-1.51.46-.33 1.06-.41 1.66-.21l2.34.78c.88.29 1.54 1.21 1.54 2.14v.62c0 .63-.26 1.18-.72 1.51-.29.21-.64.32-1.01.32Zm-2.81-3.98c-.05 0-.1.01-.13.03-.06.04-.1.15-.1.29v.62c0 .28.26.63.52.72l2.34.78c.13.04.25.04.31 0s.1-.15.1-.29v-.62c0-.28-.26-.63-.52-.72l-2.34-.78a.615.615 0 0 0-.18-.03Z" fill="#292D32"/></svg>