<svg width="24" height="24" fill="none" xmlns="http://www.w3.org/2000/svg"><path d="M20.05 18.359c-.46 0-.93-.12-1.35-.37l-6.34-3.66c-.29-.17-.52-.37-.69-.59a.733.733 0 0 1-.17-.47v-2.56c0-.17.06-.34.17-.47.18-.22.41-.42.69-.58l6.35-3.67c.84-.49 1.85-.49 2.7 0 .85.49 1.35 1.36 1.35 2.34v7.32c0 .98-.5 1.85-1.35 2.34-.43.25-.9.37-1.36.37Zm-7.06-5.4c.04.03.08.06.12.08l6.33 3.65c.38.22.83.22 1.2 0 .38-.22.6-.61.6-1.04v-7.32c0-.43-.22-.82-.6-1.04-.38-.22-.82-.22-1.2 0l-6.34 3.66c-.04.02-.08.05-.11.08v1.93Z" fill="#292D32"/><path d="M10.29 18.359c-.46 0-.93-.12-1.35-.37l-6.34-3.66a2.684 2.684 0 0 1-1.35-2.34c0-.98.5-1.85 1.35-2.34l6.34-3.66c.84-.49 1.85-.49 2.7 0 .85.49 1.35 1.36 1.35 2.34v7.32c0 .98-.5 1.85-1.35 2.34-.42.25-.89.37-1.35.37Zm0-11.22c-.21 0-.41.05-.6.16l-6.34 3.66c-.38.22-.6.61-.6 1.04 0 .43.22.82.6 1.04l6.34 3.66c.38.22.83.22 1.2 0 .38-.22.6-.6.6-1.04v-7.32c0-.43-.22-.82-.6-1.04-.19-.11-.39-.16-.6-.16Z" fill="#292D32"/></svg>