<svg width="24" height="24" fill="none" xmlns="http://www.w3.org/2000/svg"><path d="M12.38 16.92h-2.29c-.41 0-.75-.34-.75-.75s.34-.75.75-.75h2.29a.781.781 0 0 0 0-1.56h-2.29c-.24 0-.47-.12-.61-.31a.746.746 0 0 1-.1-.68l.76-2.29c.1-.31.39-.51.71-.51h3.06c.41 0 .75.34.75.75s-.34.75-.75.75h-2.52l-.26.79h1.25a2.279 2.279 0 1 1 0 4.56ZM10.022 5.218a.7.7 0 0 1-.47-.17.757.757 0 0 1-.12-1.05l1.98-2.47c.26-.32.73-.37 1.05-.12.32.26.37.73.12 1.05l-1.98 2.47a.72.72 0 0 1-.58.29Z" fill="#292D32"/><path d="M12 22.749c-5.31 0-9.64-4.32-9.64-9.64 0-2.07.67-4.06 1.95-5.76a.75.75 0 0 1 1.2.9c-1.08 1.44-1.65 3.12-1.65 4.86 0 4.49 3.65 8.14 8.14 8.14s8.14-3.65 8.14-8.14-3.65-8.14-8.14-8.14c-.58 0-1.17.07-1.81.22-.4.09-.81-.16-.9-.56-.09-.4.16-.81.56-.9a9.7 9.7 0 0 1 2.15-.26c5.31 0 9.64 4.32 9.64 9.64s-4.33 9.64-9.64 9.64Z" fill="#292D32"/></svg>