<svg width="24" height="24" fill="none" xmlns="http://www.w3.org/2000/svg"><path d="M9.541 16.67c-.41 0-.75-.34-.75-.75v-3.39l-.19.21c-.28.31-.75.33-1.06.06a.756.756 0 0 1-.06-1.06l1.5-1.67c.21-.23.54-.31.83-.2.29.11.48.39.48.7v5.35c0 .42-.33.75-.75.75ZM10.022 5.218a.7.7 0 0 1-.47-.17.757.757 0 0 1-.12-1.05l1.98-2.47c.26-.32.73-.37 1.05-.12.32.25.37.73.12 1.05l-1.98 2.47a.72.72 0 0 1-.58.29Z" fill="#292D32"/><path d="M12 22.749c-5.31 0-9.64-4.32-9.64-9.64 0-2.07.67-4.06 1.95-5.76a.75.75 0 0 1 1.2.9c-1.08 1.44-1.65 3.12-1.65 4.86 0 4.49 3.65 8.14 8.14 8.14s8.14-3.65 8.14-8.14-3.65-8.14-8.14-8.14c-.58 0-1.17.07-1.81.22-.4.09-.81-.16-.9-.56-.09-.4.16-.81.56-.9a9.7 9.7 0 0 1 2.15-.26c5.31 0 9.64 4.32 9.64 9.64s-4.33 9.64-9.64 9.64Z" fill="#292D32"/><path d="M14 16.67c-1.52 0-2.75-1.23-2.75-2.75v-1.35c0-1.52 1.23-2.75 2.75-2.75s2.75 1.23 2.75 2.75v1.35c0 1.52-1.23 2.75-2.75 2.75Zm0-5.34c-.69 0-1.25.56-1.25 1.25v1.35a1.25 1.25 0 0 0 2.5 0v-1.35c0-.69-.56-1.25-1.25-1.25Z" fill="#292D32"/></svg>