<svg width="24" height="24" fill="none" xmlns="http://www.w3.org/2000/svg"><path d="M9 10.75H6c-.41 0-.75-.34-.75-.75s.34-.75.75-.75h3c.41 0 .75.34.75.75s-.34.75-.75.75ZM17.242 22.748H6.762c-.41 0-.75-.34-.75-.75s.34-.75.75-.75h10.48c2.02 0 3.11-1.03 3.24-3.05l.52-8.26a2.94 2.94 0 0 0-.59-1.98.75.75 0 0 1 1.2-.9c.64.86.96 1.91.89 2.98l-.52 8.26c-.18 2.83-1.91 4.45-4.74 4.45Z" fill="#292D32"/><path d="M3.442 21.21c-.24 0-.48-.12-.63-.34-.46-.7-.73-1.57-.79-2.58l-.52-8.25a4.44 4.44 0 0 1 1.21-3.36c.85-.91 2.05-1.43 3.29-1.43.32 0 .63-.19.78-.49l.72-1.43c.59-1.17 2.07-2.08 3.36-2.08h2.29c1.29 0 2.76.91 3.35 2.07l.72 1.46c.15.28.45.47.78.47.41 0 .75.34.75.75s-.34.75-.75.75c-.89 0-1.7-.5-2.12-1.29L15.152 4c-.33-.66-1.27-1.24-2.01-1.24h-2.29c-.74 0-1.68.58-2.02 1.25l-.71 1.43c-.42.81-1.23 1.31-2.12 1.31-.84 0-1.62.34-2.2.95-.57.61-.86 1.41-.8 2.24l.52 8.26c.04.73.23 1.37.55 1.84a.753.753 0 0 1-.63 1.17ZM12.002 18.748c-.89 0-1.76-.3-2.46-.85a.75.75 0 0 1 .92-1.18 2.5 2.5 0 0 0 4.04-1.97c0-.48-.13-.94-.38-1.33a.758.758 0 0 1 .23-1.04c.35-.22.81-.12 1.04.23.4.63.62 1.37.62 2.13a4.016 4.016 0 0 1-4.01 4.01Z" fill="#292D32"/><path d="M2.001 22.751c-.19 0-.38-.07-.53-.22a.754.754 0 0 1 0-1.06l20-20c.29-.29.77-.29 1.06 0 .29.29.29.77 0 1.06l-20 20c-.15.15-.34.22-.53.22Z" fill="#292D32"/></svg>