<svg width="24" height="24" fill="none" xmlns="http://www.w3.org/2000/svg"><path d="M15 22.75H9c-5.43 0-7.75-2.32-7.75-7.75V9c0-5.43 2.32-7.75 7.75-7.75h6c5.43 0 7.75 2.32 7.75 7.75v6c0 5.43-2.32 7.75-7.75 7.75Zm-6-20C4.39 2.75 2.75 4.39 2.75 9v6c0 4.61 1.64 6.25 6.25 6.25h6c4.61 0 6.25-1.64 6.25-6.25V9c0-4.61-1.64-6.25-6.25-6.25H9Z" fill="#292D32"/><path d="M8.42 11.65c-1.47 0-2.67-1.2-2.67-2.67S6.95 6.3 8.42 6.3s2.67 1.2 2.67 2.68c0 1.48-1.19 2.67-2.67 2.67Zm0-3.85c-.65 0-1.17.53-1.17 1.18 0 .65.53 1.17 1.17 1.17.64 0 1.17-.53 1.17-1.17 0-.64-.52-1.18-1.17-1.18ZM8.42 17.702c-1.47 0-2.67-1.2-2.67-2.68a2.67 2.67 0 1 1 5.34 0c0 1.47-1.19 2.68-2.67 2.68Zm0-3.85c-.65 0-1.17.53-1.17 1.17 0 .64.53 1.18 1.17 1.18.64 0 1.17-.53 1.17-1.18 0-.65-.52-1.17-1.17-1.17Z" fill="#292D32"/><path d="M10.16 14.94a.75.75 0 0 1-.45-1.35l7.34-5.49a.75.75 0 0 1 .9 1.2l-7.34 5.49a.76.76 0 0 1-.45.15Z" fill="#292D32"/><path d="M17.5 16.03a.76.76 0 0 1-.45-.15l-7.34-5.49a.75.75 0 0 1 .9-1.2l7.34 5.49a.75.75 0 0 1-.45 1.35Z" fill="#292D32"/></svg>