<svg width="24" height="24" fill="none" xmlns="http://www.w3.org/2000/svg"><path d="M3.95 18.359c-.46 0-.93-.12-1.35-.37a2.663 2.663 0 0 1-1.35-2.34v-7.32c0-.98.5-1.85 1.35-2.34.85-.49 1.86-.49 2.7 0l6.34 3.66c.29.17.52.37.7.59.11.13.17.3.17.47v2.56c0 .17-.06.34-.17.47-.18.22-.41.42-.68.58l-6.36 3.68c-.42.24-.88.36-1.35.36Zm0-11.22c-.21 0-.41.05-.6.16-.38.22-.6.61-.6 1.04v7.32c0 .43.22.82.6 1.04.38.22.82.22 1.2 0l6.34-3.66c.04-.02.08-.05.11-.08v-1.93a.834.834 0 0 0-.12-.08l-6.33-3.65c-.19-.11-.39-.16-.6-.16Z" fill="#292D32"/><path d="M13.708 18.359c-.46 0-.93-.12-1.35-.37a2.663 2.663 0 0 1-1.35-2.34v-7.32c0-.98.5-1.85 1.35-2.34.85-.49 1.86-.49 2.7 0l6.34 3.66c.84.49 1.35 1.36 1.35 2.34 0 .98-.5 1.85-1.35 2.34l-6.34 3.66c-.42.25-.89.37-1.35.37Zm0-11.22c-.21 0-.41.05-.6.16-.38.22-.6.6-.6 1.04v7.32c0 .43.22.82.6 1.04.38.22.83.22 1.2 0l6.34-3.66c.38-.22.6-.61.6-1.04 0-.43-.22-.82-.6-1.04l-6.34-3.66c-.19-.11-.39-.16-.6-.16Z" fill="#292D32"/></svg>