<svg width="24" height="24" fill="none" xmlns="http://www.w3.org/2000/svg"><path d="M14.431 16.92h-2.29c-.41 0-.75-.34-.75-.75s.34-.75.75-.75h2.29a.781.781 0 0 0 0-1.56h-2.29c-.24 0-.47-.12-.61-.31a.746.746 0 0 1-.1-.68l.76-2.29c.1-.31.39-.51.71-.51h3.06c.41 0 .75.34.75.75s-.34.75-.75.75h-2.52l-.26.79h1.25a2.279 2.279 0 1 1 0 4.56ZM9.541 16.92c-.41 0-.75-.34-.75-.75v-3.39l-.19.22c-.28.31-.75.33-1.06.06a.756.756 0 0 1-.06-1.06l1.5-1.67c.21-.23.54-.31.83-.2.29.11.48.39.48.7v5.35c0 .41-.33.74-.75.74ZM13.98 5.22c-.22 0-.44-.1-.58-.28l-1.98-2.47c-.26-.32-.21-.8.12-1.05a.74.74 0 0 1 1.05.12l1.98 2.47c.26.32.21.8-.12 1.05-.14.1-.31.16-.47.16Z" fill="#292D32"/><path d="M12 22.749c-5.31 0-9.64-4.32-9.64-9.64s4.32-9.64 9.64-9.64c.69 0 1.39.08 2.15.26.4.09.66.5.56.9-.09.4-.5.66-.9.56-.64-.15-1.24-.22-1.81-.22-4.49 0-8.14 3.65-8.14 8.14s3.65 8.14 8.14 8.14 8.14-3.65 8.14-8.14c0-1.74-.57-3.42-1.65-4.86a.75.75 0 0 1 1.2-.9c1.28 1.7 1.95 3.69 1.95 5.76 0 5.32-4.33 9.64-9.64 9.64Z" fill="#292D32"/></svg>