<svg width="24" height="24" fill="none" xmlns="http://www.w3.org/2000/svg"><path d="M9 10.75c-1.52 0-2.75-1.23-2.75-2.75S7.48 5.25 9 5.25 11.75 6.48 11.75 8 10.52 10.75 9 10.75Zm0-4a1.25 1.25 0 1 0 0 2.5 1.25 1.25 0 0 0 0-2.5Z" fill="#292D32"/><path d="M15 22.75H9c-5.43 0-7.75-2.32-7.75-7.75V9c0-5.43 2.32-7.75 7.75-7.75h4c.41 0 .75.34.75.75s-.34.75-.75.75H9C4.39 2.75 2.75 4.39 2.75 9v6c0 4.61 1.64 6.25 6.25 6.25h6c4.61 0 6.25-1.64 6.25-6.25v-5c0-.41.34-.75.75-.75s.75.34.75.75v5c0 5.43-2.32 7.75-7.75 7.75Z" fill="#292D32"/><path d="M17.461 7.198c-.19 0-.38-.07-.53-.22l-1.46-1.46a.754.754 0 0 1 0-1.06c.29-.29.77-.29 1.06 0l.93.93 3.37-3.37c.29-.29.77-.29 1.06 0 .29.29.29.77 0 1.06l-3.9 3.9c-.14.15-.34.22-.53.22ZM2.669 19.699a.746.746 0 0 1-.41-1.37l4.93-3.31c1.08-.73 2.57-.64 3.55.19l.33.29c.5.43 1.35.43 1.84 0l4.16-3.57c1.06-.91 2.73-.91 3.8 0l1.63 1.4c.31.27.35.74.08 1.06-.27.31-.74.35-1.06.08l-1.63-1.4c-.5-.43-1.35-.43-1.85 0l-4.16 3.57c-1.06.91-2.73.91-3.8 0l-.33-.29c-.46-.39-1.22-.43-1.73-.08l-4.93 3.31c-.13.08-.28.12-.42.12Z" fill="#292D32"/></svg>