<svg width="24" height="24" fill="none" xmlns="http://www.w3.org/2000/svg"><path d="M3.38 20.85c-.21 0-.43-.09-.57-.27-1.07-1.25-1.56-3.03-1.56-5.58V9c0-5.43 2.32-7.75 7.75-7.75h6c2.39 0 4.14.45 5.38 1.38a.75.75 0 0 1-.9 1.2c-.97-.73-2.43-1.08-4.48-1.08H9C4.39 2.75 2.75 4.39 2.75 9v6c0 2.15.39 3.66 1.2 4.62.27.32.23.79-.09 1.06-.14.11-.31.17-.48.17ZM14.999 22.75h-6c-.79 0-1.5-.05-2.15-.14a.747.747 0 0 1-.63-.85c.06-.41.45-.69.85-.63.57.08 1.22.13 1.93.13h6c4.61 0 6.25-1.64 6.25-6.25V9c0-.33-.01-.66-.03-.96a.752.752 0 1 1 1.5-.1c.02.34.03.69.03 1.06v6c0 5.43-2.32 7.75-7.75 7.75Z" fill="#292D32"/><path d="M8 10.75c-1.52 0-2.75-1.23-2.75-2.75S6.48 5.25 8 5.25 10.75 6.48 10.75 8 9.52 10.75 8 10.75Zm0-4a1.25 1.25 0 1 0 0 2.5 1.25 1.25 0 0 0 0-2.5ZM2.001 22.751c-.19 0-.38-.07-.53-.22a.754.754 0 0 1 0-1.06l20-20c.29-.29.77-.29 1.06 0 .29.29.29.77 0 1.06l-20 20c-.15.15-.34.22-.53.22ZM11.979 17.43c-.39 0-.78-.15-1.07-.44a.754.754 0 0 1 0-1.06c.29-.29.77-.29 1.06 0 .01.01.02.01.03 0l5.03-5.04c1.04-1.04 2.85-1.04 3.88 0l1.63 1.63c.29.29.29.77 0 1.06-.29.29-.77.29-1.06 0l-1.63-1.63c-.47-.47-1.29-.47-1.76 0l-5.03 5.04c-.3.29-.69.44-1.08.44Z" fill="#292D32"/></svg>