<svg width="24" height="24" fill="none" xmlns="http://www.w3.org/2000/svg"><path d="M9 10.75c-1.52 0-2.75-1.23-2.75-2.75S7.48 5.25 9 5.25 11.75 6.48 11.75 8 10.52 10.75 9 10.75Zm0-4a1.25 1.25 0 1 0 0 2.5 1.25 1.25 0 0 0 0-2.5Z" fill="#292D32"/><path d="M15 22.75H9c-5.43 0-7.75-2.32-7.75-7.75V9c0-5.43 2.32-7.75 7.75-7.75h3c.41 0 .75.34.75.75s-.34.75-.75.75H9C4.39 2.75 2.75 4.39 2.75 9v6c0 4.61 1.64 6.25 6.25 6.25h6c4.61 0 6.25-1.64 6.25-6.25v-4c0-.41.34-.75.75-.75s.75.34.75.75v4c0 5.43-2.32 7.75-7.75 7.75Z" fill="#292D32"/><path d="M18.942 8.358c-.87 0-2.91-1.07-3.54-3.02-.43-1.35.07-3.12 1.63-3.62.66-.21 1.35-.12 1.9.22.54-.34 1.25-.44 1.92-.22 1.56.5 2.06 2.27 1.63 3.62-.63 1.99-2.77 3.02-3.54 3.02Zm-2.11-3.48c.43 1.33 1.87 1.95 2.13 1.98.29-.03 1.7-.73 2.09-1.98.21-.67 0-1.52-.66-1.74-.28-.09-.65-.04-.82.22-.14.21-.37.34-.61.34-.23 0-.48-.11-.62-.31-.21-.29-.58-.33-.84-.25-.67.22-.88 1.07-.67 1.74ZM2.669 19.699a.746.746 0 0 1-.41-1.37l4.93-3.31c1.08-.73 2.57-.64 3.55.19l.33.29c.5.43 1.35.43 1.84 0l4.16-3.57c1.06-.91 2.73-.91 3.8 0l1.63 1.4c.31.27.35.74.08 1.06-.27.31-.74.35-1.06.08l-1.63-1.4c-.5-.43-1.35-.43-1.85 0l-4.16 3.57c-1.06.91-2.73.91-3.8 0l-.33-.29c-.46-.39-1.22-.43-1.73-.08l-4.93 3.31c-.13.08-.28.12-.42.12Z" fill="#292D32"/></svg>