<svg width="24" height="24" fill="none" xmlns="http://www.w3.org/2000/svg"><path d="M9 10.75c-1.52 0-2.75-1.23-2.75-2.75S7.48 5.25 9 5.25 11.75 6.48 11.75 8 10.52 10.75 9 10.75Zm0-4a1.25 1.25 0 1 0 0 2.5 1.25 1.25 0 0 0 0-2.5Z" fill="#292D32"/><path d="M15 22.75H9c-5.43 0-7.75-2.32-7.75-7.75V9c0-5.43 2.32-7.75 7.75-7.75h4c.41 0 .75.34.75.75s-.34.75-.75.75H9C4.39 2.75 2.75 4.39 2.75 9v6c0 4.61 1.64 6.25 6.25 6.25h6c4.61 0 6.25-1.64 6.25-6.25v-5c0-.41.34-.75.75-.75s.75.34.75.75v5c0 5.43-2.32 7.75-7.75 7.75Z" fill="#292D32"/><path d="M18 8.752c-.41 0-.75-.34-.75-.75v-6c0-.3.18-.58.46-.69.28-.11.6-.05.82.16l2 2c.29.29.29.77 0 1.06-.29.29-.77.29-1.06 0l-.72-.72v4.19c0 .41-.34.75-.75.75Z" fill="#292D32"/><path d="M16.001 4.751c-.19 0-.38-.07-.53-.22a.754.754 0 0 1 0-1.06l2-2c.29-.29.77-.29 1.06 0 .29.29.29.77 0 1.06l-2 2c-.15.15-.34.22-.53.22ZM2.67 19.699a.751.751 0 0 1-.42-1.37l4.93-3.31c1.08-.72 2.57-.64 3.55.19l.33.29c.5.43 1.35.43 1.84 0l4.16-3.57c1.06-.91 2.73-.91 3.8 0l1.63 1.4c.31.27.35.74.08 1.06-.27.31-.75.35-1.06.08l-1.63-1.4c-.5-.43-1.34-.43-1.84 0l-4.16 3.57c-1.06.91-2.73.91-3.8 0l-.33-.29c-.46-.39-1.22-.43-1.73-.08l-4.92 3.31c-.14.08-.29.12-.43.12Z" fill="#292D32"/></svg>