<svg width="24" height="24" fill="none" xmlns="http://www.w3.org/2000/svg"><path d="M18.36 22.75H5.59c-1.52 0-2.91-.77-3.71-2.07a4.35 4.35 0 0 1-.19-4.25l1.72-3.45c.56-1.12 1.46-1.82 2.47-1.93 1.01-.11 2.04.39 2.82 1.36l.22.28c.44.54.95.83 1.45.78.5-.04.96-.4 1.3-1.01l1.89-3.41c.78-1.41 1.82-2.14 2.95-2.09 1.12.06 2.08.9 2.72 2.38l3.13 7.31a4.35 4.35 0 0 1-.37 4.12 4.284 4.284 0 0 1-3.63 1.98Zm-12.2-10.2c-.04 0-.08 0-.12.01-.5.05-.96.45-1.29 1.1l-1.72 3.45c-.45.89-.4 1.94.12 2.79.52.85 1.44 1.36 2.44 1.36h12.76c.98 0 1.85-.47 2.39-1.29.54-.82.63-1.8.24-2.7l-3.13-7.31c-.38-.9-.91-1.45-1.42-1.47-.47-.03-1.08.47-1.56 1.32l-1.89 3.41c-.58 1.04-1.49 1.69-2.48 1.78-.99.08-2-.4-2.75-1.34l-.22-.28c-.42-.55-.9-.83-1.37-.83ZM6.969 8.75c-2.06 0-3.75-1.68-3.75-3.75 0-2.07 1.68-3.75 3.75-3.75 2.07 0 3.75 1.68 3.75 3.75 0 2.07-1.68 3.75-3.75 3.75Zm0-6c-1.24 0-2.25 1.01-2.25 2.25s1.01 2.25 2.25 2.25S9.219 6.24 9.219 5s-1.01-2.25-2.25-2.25Z" fill="#292D32"/></svg>