<svg width="24" height="24" fill="none" xmlns="http://www.w3.org/2000/svg"><path d="M21 7.75c-.41 0-.75-.34-.75-.75V3.75H17c-.41 0-.75-.34-.75-.75s.34-.75.75-.75h4c.41 0 .75.34.75.75v4c0 .41-.34.75-.75.75Z" fill="#292D32"/><path d="M15.001 9.751c-.19 0-.38-.07-.53-.22a.755.755 0 0 1 0-1.06l6-6c.29-.29.77-.29 1.06 0 .29.29.29.77 0 1.06l-6 6c-.15.15-.34.22-.53.22ZM7 21.75H3c-.41 0-.75-.34-.75-.75v-4c0-.41.34-.75.75-.75s.75.34.75.75v3.25H7c.41 0 .75.34.75.75s-.34.75-.75.75Z" fill="#292D32"/><path d="M3.001 21.751c-.19 0-.38-.07-.53-.22a.755.755 0 0 1 0-1.06l6-6c.29-.29.77-.29 1.06 0 .29.29.29.77 0 1.06l-6 6c-.15.15-.34.22-.53.22ZM2.2 14.75c-.35 0-.66-.25-.73-.6-.14-.7-.22-1.43-.22-2.15C1.25 6.07 6.07 1.25 12 1.25c.73 0 1.46.07 2.17.22.41.08.67.48.59.88-.08.41-.49.66-.88.59-.61-.12-1.24-.19-1.87-.19-5.1 0-9.25 4.15-9.25 9.25 0 .62.06 1.25.19 1.85.08.41-.18.8-.59.88-.06.02-.11.02-.16.02ZM12.001 22.748c-.73 0-1.46-.07-2.17-.22a.75.75 0 0 1-.59-.88c.08-.41.49-.66.88-.59.61.12 1.24.19 1.87.19 5.1 0 9.25-4.15 9.25-9.25 0-.62-.06-1.24-.18-1.85a.75.75 0 1 1 1.47-.29c.14.7.21 1.42.21 2.14.01 5.93-4.81 10.75-10.74 10.75Z" fill="#292D32"/></svg>