<svg width="24" height="24" fill="none" xmlns="http://www.w3.org/2000/svg"><path d="M12 19.75c-3.72 0-6.75-3.03-6.75-6.75V8c0-3.72 3.03-6.75 6.75-6.75S18.75 4.28 18.75 8v5c0 3.72-3.03 6.75-6.75 6.75Zm0-17C9.11 2.75 6.75 5.1 6.75 8v5c0 2.9 2.36 5.25 5.25 5.25s5.25-2.35 5.25-5.25V8c0-2.9-2.36-5.25-5.25-5.25Z" fill="#292D32"/><path d="M12 22.75c-5.38 0-9.75-4.37-9.75-9.75v-2c0-.41.34-.75.75-.75s.75.34.75.75v2c0 4.55 3.7 8.25 8.25 8.25s8.25-3.7 8.25-8.25v-2c0-.41.34-.75.75-.75s.75.34.75.75v2c0 5.38-4.37 9.75-9.75 9.75ZM14.612 8.229c-.08 0-.17-.01-.26-.04a7.373 7.373 0 0 0-4.99 0 .742.742 0 0 1-.95-.45.75.75 0 0 1 .45-.96c1.94-.7 4.07-.7 6.01 0 .39.14.59.57.45.96-.11.31-.4.49-.71.49Z" fill="#292D32"/><path d="M13.702 11.23c-.06 0-.13-.01-.2-.03-1.07-.29-2.2-.29-3.27 0a.75.75 0 1 1-.39-1.45c1.33-.36 2.73-.36 4.06 0a.754.754 0 0 1-.2 1.48Z" fill="#292D32"/></svg>