<svg width="24" height="24" fill="none" xmlns="http://www.w3.org/2000/svg"><path d="M8 11.75c-.41 0-.75-.34-.75-.75V6c0-2.62 2.13-4.75 4.75-4.75S16.75 3.38 16.75 6v.3c0 .41-.34.75-.75.75s-.75-.34-.75-.75V6c0-1.79-1.46-3.25-3.25-3.25S8.75 4.21 8.75 6v5c0 .41-.34.75-.75.75ZM11.999 16.25c-1.34 0-2.62-.57-3.52-1.56a.755.755 0 0 1 .05-1.06c.31-.28.78-.25 1.06.05.61.68 1.49 1.07 2.41 1.07 1.79 0 3.25-1.46 3.25-3.25V11c0-.41.34-.75.75-.75s.75.34.75.75v.5c0 2.62-2.13 4.75-4.75 4.75Z" fill="#292D32"/><path d="M12 19.748a8.4 8.4 0 0 1-5.73-2.25.755.755 0 0 1-.04-1.06c.29-.31.77-.32 1.07-.04a6.887 6.887 0 0 0 4.7 1.85c3.8 0 6.9-3.1 6.9-6.9v-1.7c0-.41.34-.75.75-.75s.75.34.75.75v1.7c0 4.63-3.77 8.4-8.4 8.4ZM4.952 15.078c-.29 0-.57-.17-.69-.46a8.308 8.308 0 0 1-.66-3.27v-1.7c0-.41.34-.75.75-.75s.75.34.75.75v1.7c0 .93.18 1.83.54 2.68a.75.75 0 0 1-.4.98c-.09.05-.19.07-.29.07Z" fill="#292D32"/><path d="M3.92 19.741c-.19 0-.38-.07-.53-.22a.754.754 0 0 1 0-1.06l16.15-16.15c.29-.29.77-.29 1.06 0 .29.29.29.77 0 1.06L4.46 19.521c-.15.15-.34.22-.54.22ZM11 6.75c-.41 0-.75-.34-.75-.75V3c0-.41.34-.75.75-.75s.75.34.75.75v3c0 .41-.34.75-.75.75ZM12 22.75c-.41 0-.75-.34-.75-.75v-3c0-.41.34-.75.75-.75s.75.34.75.75v3c0 .41-.34.75-.75.75Z" fill="#292D32"/></svg>