<svg width="24" height="24" fill="none" xmlns="http://www.w3.org/2000/svg"><path d="M7.39 17.59c-.21 0-.43-.09-.58-.27A6.74 6.74 0 0 1 5.25 13V8c0-3.72 3.03-6.75 6.75-6.75 3.1 0 5.79 2.1 6.55 5.1.1.4-.14.81-.54.91-.39.1-.81-.14-.91-.54A5.261 5.261 0 0 0 12 2.75C9.11 2.75 6.75 5.1 6.75 8v5c0 1.23.43 2.42 1.21 3.36a.75.75 0 0 1-.57 1.23ZM12.002 19.75c-.81 0-1.6-.14-2.34-.42a.74.74 0 0 1-.44-.96.74.74 0 0 1 .96-.44c.58.22 1.2.33 1.82.33 2.89 0 5.25-2.35 5.25-5.25V9.98c0-.41.34-.75.75-.75s.75.34.75.75V13c0 3.72-3.03 6.75-6.75 6.75Z" fill="#292D32"/><path d="M12.001 22.748c-2.48 0-4.84-.93-6.65-2.62a.755.755 0 0 1-.04-1.06c.28-.3.76-.32 1.06-.04a8.203 8.203 0 0 0 5.62 2.21c4.55 0 8.25-3.7 8.25-8.25v-2c0-.41.34-.75.75-.75s.75.34.75.75v2c.01 5.39-4.36 9.76-9.74 9.76Z" fill="#292D32"/><path d="M2.501 22.74c-.19 0-.38-.07-.53-.22a.754.754 0 0 1 0-1.06l19-19c.29-.29.77-.29 1.06 0 .29.29.29.77 0 1.06l-19 19c-.15.15-.34.22-.53.22ZM11.55 6.252c-.41 0-.75-.34-.75-.75v-3.24c0-.41.34-.75.75-.75s.75.34.75.75v3.24c0 .42-.34.75-.75.75ZM8.5 8.25c-.41 0-.75-.34-.75-.75v-4c0-.41.34-.75.75-.75s.75.34.75.75v4c0 .41-.34.75-.75.75Z" fill="#292D32"/></svg>