<svg width="24" height="24" fill="none" xmlns="http://www.w3.org/2000/svg"><path d="M7.969 22.75c-2.62 0-4.75-2.13-4.75-4.75s2.13-4.75 4.75-4.75 4.75 2.13 4.75 4.75-2.13 4.75-4.75 4.75Zm0-8c-1.79 0-3.25 1.46-3.25 3.25s1.46 3.25 3.25 3.25 3.25-1.46 3.25-3.25a3.25 3.25 0 0 0-3.25-3.25Z" fill="#292D32"/><path d="M11.969 18.75c-.41 0-.75-.34-.75-.75V4c0-.41.34-.75.75-.75s.75.34.75.75v14c0 .41-.33.75-.75.75Z" fill="#292D32"/><path d="M19.13 10.231c-.33 0-.68-.06-1.02-.17l-4.42-1.47c-1.38-.46-2.46-1.96-2.46-3.41v-1.18c0-.97.4-1.81 1.08-2.31.69-.5 1.61-.6 2.53-.3l4.42 1.47c1.38.46 2.46 1.96 2.46 3.41v1.17c0 .97-.4 1.81-1.08 2.31-.43.33-.96.48-1.51.48Zm-5.31-7.51c-.24 0-.46.06-.63.19-.3.21-.46.6-.46 1.09v1.17c0 .8.67 1.73 1.43 1.99l4.42 1.47c.46.16.89.12 1.18-.09.3-.21.46-.6.46-1.09v-1.17c0-.8-.67-1.73-1.43-1.99l-4.42-1.47c-.19-.07-.38-.1-.55-.1Z" fill="#292D32"/></svg>