<svg width="24" height="24" fill="none" xmlns="http://www.w3.org/2000/svg"><path d="M22 3.75H2c-.41 0-.75-.34-.75-.75s.34-.75.75-.75h20c.41 0 .75.34.75.75s-.34.75-.75.75ZM11 9.75H2c-.41 0-.75-.34-.75-.75s.34-.75.75-.75h9c.41 0 .75.34.75.75s-.34.75-.75.75ZM8 15.75H2c-.41 0-.75-.34-.75-.75s.34-.75.75-.75h6c.41 0 .75.34.75.75s-.34.75-.75.75ZM6 21.75H2c-.41 0-.75-.34-.75-.75s.34-.75.75-.75h4c.41 0 .75.34.75.75s-.34.75-.75.75ZM11.84 22.75c-1.61 0-2.93-1.31-2.93-2.93 0-1.61 1.31-2.93 2.93-2.93s2.93 1.31 2.93 2.93-1.31 2.93-2.93 2.93Zm0-4.35a1.43 1.43 0 1 0 0 2.86 1.43 1.43 0 0 0 0-2.86Z" fill="#292D32"/><path d="M14.02 20.571c-.41 0-.75-.34-.75-.75v-8.77c0-1.21.72-2.16 1.89-2.47l4.35-1.19c.95-.26 1.77-.16 2.35.29.58.45.88 1.18.88 2.19v8.51c0 .41-.34.75-.75.75s-.75-.34-.75-.75v-8.51c0-.5-.1-.85-.29-.99-.19-.15-.58-.16-1.05-.03l-4.35 1.19c-.29.08-.78.32-.78 1.03v8.77c0 .4-.34.73-.75.73Z" fill="#292D32"/><path d="M19.82 21.301c-1.61 0-2.93-1.31-2.93-2.93 0-1.61 1.31-2.93 2.93-2.93s2.93 1.31 2.93 2.93-1.31 2.93-2.93 2.93Zm0-4.35a1.43 1.43 0 1 0 0 2.86 1.43 1.43 0 0 0 0-2.86ZM14.02 14.349a.747.747 0 0 1-.19-1.47l7.98-2.18a.75.75 0 1 1 .39 1.45l-7.98 2.18c-.07.01-.14.02-.2.02Z" fill="#292D32"/></svg>