<svg width="24" height="24" fill="none" xmlns="http://www.w3.org/2000/svg"><path d="M15 22.75H9c-5.43 0-7.75-2.32-7.75-7.75V9c0-5.43 2.32-7.75 7.75-7.75h6c5.43 0 7.75 2.32 7.75 7.75v6c0 5.43-2.32 7.75-7.75 7.75Zm-6-20C4.39 2.75 2.75 4.39 2.75 9v6c0 4.61 1.64 6.25 6.25 6.25h6c4.61 0 6.25-1.64 6.25-6.25V9c0-4.61-1.64-6.25-6.25-6.25H9Z" fill="#292D32"/><path d="M8.422 17.859c-1.28 0-2.32-1.04-2.32-2.32 0-1.28 1.04-2.32 2.32-2.32 1.28 0 2.32 1.04 2.32 2.32 0 1.28-1.04 2.32-2.32 2.32Zm0-3.14c-.45 0-.82.37-.82.82 0 .45.37.82.82.82.45 0 .82-.37.82-.82 0-.45-.37-.82-.82-.82Z" fill="#292D32"/><path d="M9.992 16.29c-.41 0-.75-.34-.75-.75V9.21c0-.96.6-1.74 1.52-1.99l3.14-.86c.95-.26 1.55-.01 1.88.24.48.37.72.95.72 1.74v6.14c0 .41-.34.75-.75.75s-.75-.34-.75-.75V8.34c0-.33-.07-.51-.13-.55-.05-.04-.23-.08-.58.01l-3.14.86c-.28.08-.41.25-.41.54v6.33c0 .42-.34.76-.75.76Z" fill="#292D32"/><path d="M14.18 16.812c-1.28 0-2.32-1.04-2.32-2.32 0-1.28 1.04-2.32 2.32-2.32 1.28 0 2.32 1.04 2.32 2.32 0 1.28-1.04 2.32-2.32 2.32Zm0-3.14c-.45 0-.82.37-.82.82 0 .45.37.82.82.82.45 0 .82-.37.82-.82 0-.45-.37-.82-.82-.82ZM9.989 11.79a.747.747 0 0 1-.19-1.47l5.76-1.57a.75.75 0 1 1 .39 1.45l-5.76 1.57c-.07.01-.14.02-.2.02Z" fill="#292D32"/></svg>