<svg width="24" height="24" fill="none" xmlns="http://www.w3.org/2000/svg"><path d="M6.28 22.752a3.88 3.88 0 0 1-3.87-3.87 3.88 3.88 0 0 1 3.87-3.87 3.88 3.88 0 0 1 3.87 3.87 3.88 3.88 0 0 1-3.87 3.87Zm0-6.24c-1.31 0-2.37 1.06-2.37 2.37s1.06 2.37 2.37 2.37 2.37-1.06 2.37-2.37-1.06-2.37-2.37-2.37Z" fill="#292D32"/><path d="M9.398 19.629c-.41 0-.75-.34-.75-.75V6.299c0-1.58.95-2.82 2.47-3.23l6.24-1.7c1.27-.35 2.34-.22 3.09.36.76.58 1.14 1.55 1.14 2.88v12.2c0 .41-.34.75-.75.75s-.75-.34-.75-.75V4.599c0-.58-.1-1.34-.55-1.68-.49-.38-1.33-.23-1.79-.1l-6.24 1.7c-.87.24-1.36.89-1.36 1.79v12.58c0 .4-.34.74-.75.74Z" fill="#292D32"/><path d="M17.722 20.67a3.88 3.88 0 0 1-3.87-3.87 3.88 3.88 0 0 1 3.87-3.87 3.88 3.88 0 0 1 3.87 3.87 3.88 3.88 0 0 1-3.87 3.87Zm0-6.24c-1.31 0-2.37 1.06-2.37 2.37s1.06 2.37 2.37 2.37 2.37-1.06 2.37-2.37-1.06-2.37-2.37-2.37ZM9.4 10.271a.755.755 0 0 1-.2-1.48l11.44-3.12a.75.75 0 1 1 .39 1.45L9.6 10.241c-.07.02-.14.03-.2.03Z" fill="#292D32"/></svg>