<svg width="24" height="24" fill="none" xmlns="http://www.w3.org/2000/svg"><path d="M17 22.75H7c-3.65 0-5.75-2.1-5.75-5.75v-5c0-3.65 2.1-5.75 5.75-5.75h10c3.65 0 5.75 2.1 5.75 5.75v5c0 3.65-2.1 5.75-5.75 5.75Zm-10-15c-2.86 0-4.25 1.39-4.25 4.25v5c0 2.86 1.39 4.25 4.25 4.25h10c2.86 0 4.25-1.39 4.25-4.25v-5c0-2.86-1.39-4.25-4.25-4.25H7ZM18 5.25H6c-.41 0-.75-.34-.75-.75s.34-.75.75-.75h12c.41 0 .75.34.75.75s-.34.75-.75.75ZM15 2.75H9c-.41 0-.75-.34-.75-.75s.34-.75.75-.75h6c.41 0 .75.34.75.75s-.34.75-.75.75Z" fill="#292D32"/><path d="M8.89 19.861a2.121 2.121 0 0 1 0-4.24 2.121 2.121 0 0 1 0 4.24Zm0-2.74c-.34 0-.62.28-.62.62 0 .34.28.62.62.62.34 0 .62-.28.62-.62 0-.34-.28-.62-.62-.62Z" fill="#292D32"/><path d="M10.258 18.49c-.41 0-.75-.34-.75-.75v-5.51c0-.88.55-1.59 1.39-1.82l2.74-.75c.87-.24 1.42-.01 1.72.23.3.23.66.7.66 1.59v5.35c0 .41-.34.75-.75.75s-.75-.34-.75-.75v-5.35c0-.28-.06-.39-.08-.4-.02-.01-.14-.05-.42.03l-2.73.75c-.25.07-.29.24-.29.38v5.51c.01.4-.33.74-.74.74Z" fill="#292D32"/><path d="M13.91 18.95a2.121 2.121 0 0 1 0-4.24 2.121 2.121 0 0 1 0 4.24Zm0-2.74c-.34 0-.62.28-.62.62 0 .34.28.62.62.62.34 0 .62-.28.62-.62 0-.34-.28-.62-.62-.62ZM10.258 14.582a.747.747 0 0 1-.19-1.47l5.01-1.37a.75.75 0 1 1 .39 1.45l-5.01 1.37c-.07.01-.13.02-.2.02Z" fill="#292D32"/></svg>