<svg width="24" height="24" fill="none" xmlns="http://www.w3.org/2000/svg"><path d="M11.969 22.75c-5.92 0-10.75-4.82-10.75-10.75s4.83-10.75 10.75-10.75S22.719 6.07 22.719 12s-4.82 10.75-10.75 10.75Zm0-20c-5.1 0-9.25 4.15-9.25 9.25s4.15 9.25 9.25 9.25 9.25-4.15 9.25-9.25-4.15-9.25-9.25-9.25Z" fill="#292D32"/><path d="M10.01 15.95h-1.3c-.92 0-1.46-.53-1.46-1.42V9.47c0-.89.55-1.42 1.46-1.42H10c.92 0 1.46.53 1.46 1.42v5.06c.01.89-.54 1.42-1.45 1.42Zm-1.26-1.5h1.22v-4.9H8.76l-.01 4.9ZM15.29 15.95H14c-.92 0-1.46-.53-1.46-1.42V9.47c0-.89.55-1.42 1.46-1.42h1.29c.92 0 1.46.53 1.46 1.42v5.06c0 .89-.55 1.42-1.46 1.42Zm-1.26-1.5h1.22v-4.9h-1.21l-.01 4.9Z" fill="#292D32"/></svg>