<svg width="24" height="24" fill="none" xmlns="http://www.w3.org/2000/svg"><path d="M11.969 22.75c-5.92 0-10.75-4.82-10.75-10.75s4.83-10.75 10.75-10.75S22.719 6.07 22.719 12s-4.82 10.75-10.75 10.75Zm0-20c-5.1 0-9.25 4.15-9.25 9.25s4.15 9.25 9.25 9.25 9.25-4.15 9.25-9.25-4.15-9.25-9.25-9.25Z" fill="#292D32"/><path d="M10.558 16.991c-.44 0-.86-.11-1.23-.32-.86-.5-1.34-1.48-1.34-2.76v-3.35c0-1.28.47-2.26 1.33-2.76.86-.5 1.95-.42 3.06.22l2.9 1.67c1.11.64 1.72 1.54 1.72 2.54 0 .99-.61 1.9-1.72 2.54l-2.9 1.67c-.62.37-1.25.55-1.82.55Zm0-8.02c-.18 0-.35.04-.48.12-.38.22-.59.75-.59 1.47v3.35c0 .71.21 1.25.59 1.46.37.22.94.13 1.56-.22l2.9-1.67c.62-.36.97-.81.97-1.24 0-.43-.36-.88-.97-1.24l-2.9-1.67c-.4-.24-.77-.36-1.08-.36Z" fill="#292D32"/></svg>