<svg width="24" height="24" fill="none" xmlns="http://www.w3.org/2000/svg"><path d="M7.87 21.28c-.79 0-1.54-.19-2.2-.57-1.56-.9-2.42-2.73-2.42-5.14V8.44c0-2.42.86-4.24 2.42-5.14 1.56-.9 3.57-.73 5.67.48l6.17 3.56c2.09 1.21 3.25 2.87 3.25 4.67 0 1.8-1.15 3.46-3.25 4.67l-6.17 3.56c-1.21.69-2.39 1.04-3.47 1.04Zm0-17.06c-.54 0-1.02.12-1.45.37-1.08.62-1.67 1.99-1.67 3.85v7.12c0 1.86.59 3.22 1.67 3.85 1.08.63 2.56.45 4.17-.48l6.17-3.56c1.61-.93 2.5-2.12 2.5-3.37s-.89-2.44-2.5-3.37l-6.17-3.56c-.98-.56-1.9-.85-2.72-.85Z" fill="#292D32"/></svg>