<svg width="24" height="24" fill="none" xmlns="http://www.w3.org/2000/svg"><path d="M5.562 18.74h-.02l-2.55-.01c-.41 0-.75-.34-.75-.75s.34-.75.75-.75l2.55.01h.01c.65 0 1.26-.32 1.62-.87l6.39-9.58c.64-.96 1.71-1.54 2.87-1.54h.02l4.55.02c.41 0 .75.34.75.75s-.34.75-.75.75l-4.55-.02h-.01c-.65 0-1.26.32-1.62.87l-6.39 9.58a3.42 3.42 0 0 1-2.87 1.54ZM19.001 20.732c-.19 0-.38-.07-.53-.22a.754.754 0 0 1 0-1.06l2-2c.29-.29.77-.29 1.06 0 .29.29.29.77 0 1.06l-2 2c-.15.15-.34.22-.53.22ZM8.89 9.382c-.23 0-.46-.11-.61-.31l-1.08-1.5a1.99 1.99 0 0 0-1.59-.81L3 6.772c-.46-.01-.75-.33-.75-.75 0-.41.33-.75.75-.75l2.61-.01h.02c1.11 0 2.15.54 2.8 1.43l1.08 1.5c.24.34.17.8-.17 1.05-.14.09-.29.14-.45.14Z" fill="#292D32"/><path d="M16.32 18.751c-1.06 0-2.08-.5-2.73-1.34l-1.22-1.57c-.25-.33-.19-.8.13-1.05.33-.25.8-.19 1.05.13l1.22 1.57c.37.48.96.72 1.55.76l4.67-.02a.749.749 0 1 1 0 1.5l-4.67.02c.01 0 0 0 0 0ZM21.001 6.771c-.19 0-.38-.07-.53-.22l-2-2a.754.754 0 0 1 0-1.06c.29-.29.77-.29 1.06 0l2 2c.29.29.29.77 0 1.06-.15.15-.34.22-.53.22Z" fill="#292D32"/></svg>