<svg width="24" height="24" fill="none" xmlns="http://www.w3.org/2000/svg"><path d="M15 22.75H9c-5.43 0-7.75-2.32-7.75-7.75V9c0-5.43 2.32-7.75 7.75-7.75h6c5.43 0 7.75 2.32 7.75 7.75v6c0 .24 0 .49-.02.72-.03.3-.24.56-.53.65a.744.744 0 0 1-.8-.25 3.716 3.716 0 0 0-2.9-1.37c-.85 0-1.68.29-2.34.82-.9.71-1.41 1.77-1.41 2.93 0 .67.19 1.34.54 1.93.22.37.51.7.84.96.24.19.34.51.25.8-.09.29-.34.5-.65.53-.23.03-.48.03-.73.03Zm-6-20C4.39 2.75 2.75 4.39 2.75 9v6c0 4.61 1.64 6.25 6.25 6.25h5.03c-.01-.01-.02-.03-.03-.04-.5-.82-.76-1.76-.76-2.71 0-1.62.72-3.11 1.98-4.1 1.68-1.36 4.23-1.48 6.02-.38V9c0-4.61-1.64-6.25-6.25-6.25H9Z" fill="#292D32"/><path d="M21.48 7.86H2.52c-.41 0-.75-.34-.75-.75s.34-.75.75-.75h18.96a.749.749 0 1 1 0 1.5Z" fill="#292D32"/><path d="M8.52 7.72c-.41 0-.75-.34-.75-.75V2.11c0-.41.34-.75.75-.75s.75.34.75.75v4.86c0 .41-.34.75-.75.75ZM15.48 7.27c-.41 0-.75-.34-.75-.75V2.11c0-.41.34-.75.75-.75s.75.34.75.75v4.41c0 .42-.33.75-.75.75ZM18.5 23.75c-1.18 0-2.32-.4-3.24-1.13-.02-.02-.05-.03-.07-.05-.47-.38-.87-.83-1.18-1.36-.5-.82-.76-1.76-.76-2.71 0-1.62.72-3.11 1.98-4.1.92-.74 2.08-1.15 3.27-1.15 1.59 0 3.07.7 4.06 1.93.76.92 1.19 2.1 1.19 3.32 0 .95-.26 1.88-.76 2.71-.29.48-.64.89-1.04 1.24a5.19 5.19 0 0 1-3.45 1.3Zm-2.43-2.4c.03.02.05.04.08.06.66.55 1.49.85 2.35.85.92 0 1.77-.32 2.46-.93.29-.25.54-.55.75-.88a3.8 3.8 0 0 0 .54-1.93c0-.87-.3-1.71-.85-2.37a3.709 3.709 0 0 0-2.9-1.38c-.85 0-1.68.29-2.34.82-.9.71-1.41 1.77-1.41 2.93 0 .67.19 1.34.54 1.93.21.33.47.64.78.9Z" fill="#292D32"/><path d="M17.85 20.359c-.19 0-.38-.07-.53-.22l-1.11-1.11a.754.754 0 0 1 0-1.06c.29-.29.77-.29 1.06 0l.6.6 1.87-1.73c.3-.28.78-.26 1.06.04s.26.78-.04 1.06l-2.4 2.22c-.14.13-.32.2-.51.2Z" fill="#292D32"/></svg>