<svg width="24" height="24" fill="none" xmlns="http://www.w3.org/2000/svg"><path d="M15 22.75H9c-5.43 0-7.75-2.32-7.75-7.75V9c0-5.43 2.32-7.75 7.75-7.75h6c5.43 0 7.75 2.32 7.75 7.75v6c0 5.43-2.32 7.75-7.75 7.75Zm-6-20C4.39 2.75 2.75 4.39 2.75 9v6c0 4.61 1.64 6.25 6.25 6.25h6c4.61 0 6.25-1.64 6.25-6.25V9c0-4.61-1.64-6.25-6.25-6.25H9Z" fill="#292D32"/><path d="M10.76 16.368c-.42 0-.81-.1-1.16-.3-.8-.46-1.26-1.4-1.26-2.59v-2.96c0-1.18.46-2.13 1.26-2.59.8-.46 1.84-.39 2.87.21l2.57 1.48c1.02.59 1.61 1.46 1.61 2.38 0 .92-.59 1.79-1.61 2.38l-2.57 1.48c-.58.34-1.17.51-1.71.51Zm.01-7.24c-.16 0-.3.03-.41.1-.32.19-.51.66-.51 1.29v2.96c0 .63.18 1.1.51 1.29.32.19.82.11 1.37-.21l2.57-1.48c.55-.32.86-.71.86-1.08 0-.37-.31-.77-.86-1.08l-2.57-1.48c-.36-.21-.69-.31-.96-.31Z" fill="#292D32"/></svg>