<svg width="24" height="24" fill="none" xmlns="http://www.w3.org/2000/svg"><path d="M4.3 19.92c-.17 0-.34-.06-.48-.17-1.01-.83-1.57-2.16-1.57-3.75V8c0-3.42 1.33-4.75 4.75-4.75h6c2.04 0 4.18.38 4.64 3.23.07.41-.21.79-.62.86a.747.747 0 0 1-.86-.62c-.21-1.3-.76-1.97-3.16-1.97H7c-2.58 0-3.25.67-3.25 3.25v8c0 .65.13 1.86 1.02 2.59.32.26.37.74.1 1.06-.14.18-.36.27-.57.27ZM13 20.75H8c-.41 0-.75-.34-.75-.75s.34-.75.75-.75h5c2.58 0 3.25-.67 3.25-3.25v-5c0-.41.34-.75.75-.75s.75.34.75.75v5c0 3.42-1.33 4.75-4.75 4.75Z" fill="#292D32"/><path d="M20.798 18.04c-.43 0-.96-.14-1.59-.58l-2.64-1.85a.743.743 0 0 1-.18-1.04c.24-.34.7-.42 1.04-.18l2.64 1.85c.44.31.76.34.89.27s.29-.34.29-.88V7c0-.41.34-.75.75-.75s.75.34.75.75v8.62c0 1.43-.69 2-1.1 2.21-.19.1-.48.21-.85.21ZM2.02 22.939c-.19 0-.38-.07-.53-.22a.754.754 0 0 1 0-1.06l20-20c.29-.29.77-.29 1.06 0 .29.29.29.77 0 1.06l-20 20c-.14.15-.34.22-.53.22Z" fill="#292D32"/></svg>