<svg width="24" height="24" fill="none" xmlns="http://www.w3.org/2000/svg"><path d="M12.88 20.86H6.81C3.26 20.86 2 18.37 2 16.05v-8.1c0-3.46 1.35-4.81 4.81-4.81h6.07c3.46 0 4.81 1.35 4.81 4.81v8.1c0 3.46-1.35 4.81-4.81 4.81ZM6.81 4.66c-2.61 0-3.29.68-3.29 3.29v8.1c0 1.23.43 3.29 3.29 3.29h6.07c2.61 0 3.29-.68 3.29-3.29v-8.1c0-2.61-.68-3.29-3.29-3.29H6.81Z" fill="#292D32"/><path d="M20.78 18.108c-.43 0-.98-.14-1.61-.58l-2.67-1.87a.754.754 0 0 1-.32-.62v-6.08c0-.25.12-.48.32-.62l2.67-1.87c1.19-.83 2.06-.59 2.47-.38.41.22 1.11.79 1.11 2.24v7.33c0 1.45-.7 2.03-1.11 2.24-.19.11-.49.21-.86.21Zm-3.09-3.47 2.35 1.64c.45.31.77.34.9.27.14-.07.29-.35.29-.89v-7.32c0-.55-.16-.82-.29-.89-.13-.07-.45-.04-.9.27l-2.35 1.64v5.28ZM11.5 11.75c-1.24 0-2.25-1.01-2.25-2.25s1.01-2.25 2.25-2.25 2.25 1.01 2.25 2.25-1.01 2.25-2.25 2.25Zm0-3c-.41 0-.75.34-.75.75s.34.75.75.75.75-.34.75-.75-.34-.75-.75-.75Z" fill="#292D32"/></svg>