<svg width="24" height="24" fill="none" xmlns="http://www.w3.org/2000/svg"><path d="M15 22.75H9c-5.43 0-7.75-2.32-7.75-7.75V9c0-5.43 2.32-7.75 7.75-7.75h6c5.43 0 7.75 2.32 7.75 7.75v6c0 5.43-2.32 7.75-7.75 7.75Zm-6-20C4.39 2.75 2.75 4.39 2.75 9v6c0 4.61 1.64 6.25 6.25 6.25h6c4.61 0 6.25-1.64 6.25-6.25V9c0-4.61-1.64-6.25-6.25-6.25H9Z" fill="#292D32"/><path d="M6.89 22.23c-.41 0-.75-.34-.75-.75V2.52a.749.749 0 1 1 1.5 0v18.96c0 .42-.34.75-.75.75ZM16.89 22.23c-.41 0-.75-.34-.75-.75V2.52c0-.41.34-.75.75-.75s.75.34.75.75v18.96c0 .42-.34.75-.75.75Z" fill="#292D32"/><path d="M6.89 7.719H2.54c-.41 0-.75-.34-.75-.75s.34-.75.75-.75h4.35c.41 0 .75.34.75.75s-.34.75-.75.75ZM6.891 12.75h-4.86c-.41 0-.75-.34-.75-.75s.34-.75.75-.75h4.86c.41 0 .75.34.75.75s-.34.75-.75.75ZM6.89 17.719H2.48c-.41 0-.75-.34-.75-.75s.34-.75.75-.75h4.41c.41 0 .75.34.75.75s-.34.75-.75.75ZM21.89 7.719h-4.35c-.41 0-.75-.34-.75-.75s.34-.75.75-.75h4.35c.41 0 .75.34.75.75s-.34.75-.75.75ZM21.891 12.75h-4.86c-.41 0-.75-.34-.75-.75s.34-.75.75-.75h4.86c.41 0 .75.34.75.75s-.34.75-.75.75Z" fill="#292D32"/><path d="M16.969 12.75h-11c-.41 0-.75-.34-.75-.75s.34-.75.75-.75h11a.749.749 0 1 1 0 1.5ZM21.89 17.719h-4.41c-.41 0-.75-.34-.75-.75s.34-.75.75-.75h4.41c.41 0 .75.34.75.75s-.34.75-.75.75Z" fill="#292D32"/></svg>