<svg width="24" height="24" fill="none" xmlns="http://www.w3.org/2000/svg"><path d="M12 22.751c-.67 0-1.35-.17-1.95-.52l-5.94-3.43c-1.2-.7-1.95-1.99-1.95-3.38v-6.84c0-1.39.75-2.68 1.95-3.38l5.94-3.43c1.2-.7 2.69-.7 3.9 0l5.94 3.43c1.2.7 1.95 1.99 1.95 3.38v6.84c0 1.39-.75 2.68-1.95 3.38l-5.94 3.43c-.6.35-1.28.52-1.95.52Zm0-20c-.41 0-.83.11-1.2.32l-5.94 3.43c-.74.43-1.2 1.22-1.2 2.08v6.84c0 .85.46 1.65 1.2 2.08l5.94 3.43c.74.43 1.66.43 2.4 0l5.94-3.43c.74-.43 1.2-1.22 1.2-2.08v-6.84c0-.85-.46-1.65-1.2-2.08l-5.94-3.43c-.37-.21-.79-.32-1.2-.32Z" fill="#292D32"/><path d="M11.092 15.67c-.36 0-.7-.09-1.01-.26-.69-.4-1.09-1.21-1.09-2.22v-2.4c0-1.01.4-1.82 1.09-2.22.69-.4 1.59-.34 2.46.17l2.08 1.2c.87.5 1.38 1.25 1.38 2.05 0 .8-.5 1.54-1.38 2.05l-2.08 1.2c-.48.29-.98.43-1.45.43Zm.01-5.85c-.1 0-.19.02-.26.06-.21.12-.34.46-.34.92v2.4c0 .45.13.79.34.92.21.12.57.06.96-.17l2.08-1.2c.39-.23.62-.51.62-.75s-.23-.52-.62-.75l-2.08-1.2c-.26-.15-.51-.23-.7-.23Z" fill="#292D32"/></svg>