<svg width="24" height="24" fill="none" xmlns="http://www.w3.org/2000/svg"><path d="M6 14.892c-.41 0-.75-.34-.75-.75v-4.29c0-.41.34-.75.75-.75s.75.34.75.75v4.29c0 .42-.34.75-.75.75ZM9 16.32c-.41 0-.75-.34-.75-.75V8.43c0-.41.34-.75.75-.75s.75.34.75.75v7.14c0 .42-.34.75-.75.75ZM12 17.75c-.41 0-.75-.34-.75-.75V7c0-.41.34-.75.75-.75s.75.34.75.75v10c0 .41-.34.75-.75.75ZM15 16.32c-.41 0-.75-.34-.75-.75V8.43c0-.41.34-.75.75-.75s.75.34.75.75v7.14c0 .42-.34.75-.75.75ZM18 14.892c-.41 0-.75-.34-.75-.75v-4.29c0-.41.34-.75.75-.75s.75.34.75.75v4.29c0 .42-.34.75-.75.75Z" fill="#292D32"/><path d="M12 22.75C6.07 22.75 1.25 17.93 1.25 12S6.07 1.25 12 1.25 22.75 6.07 22.75 12 17.93 22.75 12 22.75Zm0-20C6.9 2.75 2.75 6.9 2.75 12S6.9 21.25 12 21.25s9.25-4.15 9.25-9.25S17.1 2.75 12 2.75Z" fill="#292D32"/></svg>