<svg width="24" height="24" fill="none" xmlns="http://www.w3.org/2000/svg"><path d="M6 14.892c-.41 0-.75-.34-.75-.75v-4.29c0-.41.34-.75.75-.75s.75.34.75.75v4.29c0 .42-.34.75-.75.75ZM9 16.32c-.41 0-.75-.34-.75-.75V8.43c0-.41.34-.75.75-.75s.75.34.75.75v7.14c0 .42-.34.75-.75.75ZM12 17.75c-.41 0-.75-.34-.75-.75V7c0-.41.34-.75.75-.75s.75.34.75.75v10c0 .41-.34.75-.75.75ZM15 16.32c-.41 0-.75-.34-.75-.75V8.43c0-.41.34-.75.75-.75s.75.34.75.75v7.14c0 .42-.34.75-.75.75ZM18 14.892c-.41 0-.75-.34-.75-.75v-4.29c0-.41.34-.75.75-.75s.75.34.75.75v4.29c0 .42-.34.75-.75.75Z" fill="#292D32"/><path d="M15 22.75H9c-5.43 0-7.75-2.32-7.75-7.75V9c0-5.43 2.32-7.75 7.75-7.75h6c5.43 0 7.75 2.32 7.75 7.75v6c0 5.43-2.32 7.75-7.75 7.75Zm-6-20C4.39 2.75 2.75 4.39 2.75 9v6c0 4.61 1.64 6.25 6.25 6.25h6c4.61 0 6.25-1.64 6.25-6.25V9c0-4.61-1.64-6.25-6.25-6.25H9Z" fill="#292D32"/></svg>