<svg width="24" height="24" fill="none" xmlns="http://www.w3.org/2000/svg"><path d="M7 17.75H5c-2.42 0-3.75-1.33-3.75-3.75v-4c0-2.42 1.33-3.75 3.75-3.75h1.43c.23 0 .46-.07.66-.19l2.92-1.83c1.46-.91 2.88-1.08 4-.46 1.12.62 1.73 1.91 1.73 3.64v.96c0 .41-.34.75-.75.75s-.75-.34-.75-.75v-.96c0-1.14-.35-1.99-.96-2.32-.61-.34-1.51-.19-2.48.42L7.88 7.33c-.43.28-.94.42-1.45.42H5c-1.58 0-2.25.67-2.25 2.25v4c0 1.58.67 2.25 2.25 2.25h2c.41 0 .75.34.75.75s-.34.75-.75.75ZM12.552 20.59c-.79 0-1.66-.28-2.53-.83a.747.747 0 1 1 .79-1.27c.97.6 1.87.76 2.48.42.61-.34.96-1.19.96-2.32v-3.64c0-.41.34-.75.75-.75s.75.34.75.75v3.64c0 1.72-.62 3.02-1.73 3.64-.45.24-.95.36-1.47.36ZM18 16.75a.75.75 0 0 1-.6-1.2 5.926 5.926 0 0 0 .72-5.84.75.75 0 0 1 .4-.98c.38-.16.82.02.98.4 1.02 2.42.67 5.23-.9 7.33-.15.19-.37.29-.6.29Z" fill="#292D32"/><path d="M19.828 19.25a.75.75 0 0 1-.6-1.2c2.14-2.85 2.61-6.67 1.23-9.96a.75.75 0 0 1 .4-.98c.39-.16.82.02.98.4 1.59 3.78 1.05 8.16-1.41 11.44-.14.2-.37.3-.6.3ZM2.001 22.751c-.19 0-.38-.07-.53-.22a.754.754 0 0 1 0-1.06l20-20c.29-.29.77-.29 1.06 0 .29.29.29.77 0 1.06l-20 20c-.15.15-.34.22-.53.22Z" fill="#292D32"/></svg>