<svg width="24" height="24" fill="none" xmlns="http://www.w3.org/2000/svg"><path d="M12.76 20.748c-.81 0-1.68-.28-2.58-.84l-2.98-1.86c-.21-.13-.44-.2-.68-.2H5.06c-2.46 0-3.81-1.35-3.81-3.81v-4.08c0-2.46 1.35-3.81 3.81-3.81h1.46c.24 0 .48-.07.68-.2l2.98-1.86c1.49-.93 2.93-1.1 4.07-.46 1.14.63 1.76 1.94 1.76 3.7v9.36c0 1.75-.63 3.07-1.76 3.7-.45.24-.95.36-1.49.36Zm-7.7-13.1c-1.62 0-2.31.69-2.31 2.31v4.08c0 1.62.69 2.31 2.31 2.31h1.46c.52 0 1.03.15 1.48.42l2.98 1.86c.99.62 1.92.77 2.55.43.63-.35.99-1.22.99-2.38v-9.36c0-1.17-.36-2.04-.99-2.38-.63-.35-1.56-.19-2.55.43L8 7.218a2.8 2.8 0 0 1-1.48.43H5.06ZM22 12.75h-4c-.41 0-.75-.34-.75-.75s.34-.75.75-.75h4c.41 0 .75.34.75.75s-.34.75-.75.75Z" fill="#292D32"/></svg>