<svg width="24" height="24" fill="none" xmlns="http://www.w3.org/2000/svg"><path d="M16.05 20.589c-.79 0-1.66-.28-2.53-.83l-2.92-1.83c-.2-.12-.43-.19-.66-.19H8.5c-2.42 0-3.75-1.33-3.75-3.75v-4c0-2.42 1.33-3.75 3.75-3.75h1.43c.23 0 .46-.07.66-.19l2.92-1.83c1.46-.91 2.88-1.08 4-.46 1.12.62 1.73 1.91 1.73 3.64v9.17c0 1.72-.62 3.02-1.73 3.64-.44.26-.94.38-1.46.38ZM8.5 7.749c-1.58 0-2.25.67-2.25 2.25v4c0 1.58.67 2.25 2.25 2.25h1.43c.52 0 1.02.14 1.46.42l2.92 1.83c.97.6 1.87.76 2.48.42.61-.34.96-1.19.96-2.32v-9.19c0-1.14-.35-1.99-.96-2.32-.61-.34-1.51-.19-2.48.42l-2.92 1.83c-.44.27-.94.42-1.46.42H8.5v-.01Z" fill="#292D32"/></svg>