<svg width="24" height="24" fill="none" xmlns="http://www.w3.org/2000/svg"><path d="M12.55 20.589c-.79 0-1.66-.28-2.53-.83l-2.92-1.83c-.2-.12-.43-.19-.66-.19H5c-2.42 0-3.75-1.33-3.75-3.75v-4c0-2.42 1.33-3.75 3.75-3.75h1.43c.23 0 .46-.07.66-.19l2.92-1.83c1.46-.91 2.88-1.08 4-.46 1.12.62 1.73 1.91 1.73 3.64v9.17c0 1.72-.62 3.02-1.73 3.64-.44.26-.94.38-1.46.38ZM5 7.749c-1.58 0-2.25.67-2.25 2.25v4c0 1.58.67 2.25 2.25 2.25h1.43c.52 0 1.02.14 1.46.42l2.92 1.83c.96.6 1.87.76 2.48.42.61-.34.96-1.19.96-2.32v-9.19c0-1.14-.35-1.99-.96-2.32-.61-.34-1.52-.19-2.48.42l-2.93 1.82c-.43.28-.94.42-1.45.42H5ZM18 16.75a.75.75 0 0 1-.6-1.2 5.94 5.94 0 0 0 0-7.1.75.75 0 0 1 1.2-.9c1.96 2.62 1.96 6.28 0 8.9-.15.2-.37.3-.6.3Z" fill="#292D32"/><path d="M19.828 19.25a.75.75 0 0 1-.6-1.2c2.67-3.56 2.67-8.54 0-12.1a.75.75 0 0 1 1.2-.9c3.07 4.09 3.07 9.81 0 13.9-.14.2-.37.3-.6.3Z" fill="#292D32"/></svg>