<svg width="24" height="24" fill="none" xmlns="http://www.w3.org/2000/svg"><path opacity=".4" d="m12.199 11.798-1.41 1.41c-.78.78-.78 2.05 0 2.83.78.78 2.05.78 2.83 0l2.22-2.22a4.008 4.008 0 0 0 0-5.66 4.008 4.008 0 0 0-5.66 0l-2.42 2.42a3.428 3.428 0 0 0 0 4.85" stroke="#292D32" stroke-width="1.5" stroke-linecap="round" stroke-linejoin="round"/><path d="M12 22c5.523 0 10-4.477 10-10S17.523 2 12 2 2 6.477 2 12s4.477 10 10 10Z" stroke="#292D32" stroke-width="1.5" stroke-linecap="round" stroke-linejoin="round"/></svg>