<svg width="24" height="24" fill="none" xmlns="http://www.w3.org/2000/svg"><path opacity=".4" d="M7.939 14.51c-.62-.23-1.17-.68-1.52-1.32-.8-1.46-.31-3.36 1.11-4.24l2.34-1.45c1.41-.88 3.23-.4 4.03 1.05.8 1.46.31 3.36-1.11 4.24l-.31.22" stroke="#292D32" stroke-width="1.5" stroke-linecap="round" stroke-linejoin="round"/><path opacity=".4" d="M16.11 9.45c.62.23 1.17.68 1.52 1.32.8 1.46.31 3.36-1.11 4.24l-2.34 1.45c-1.41.88-3.23.4-4.03-1.05-.8-1.46-.31-3.36 1.11-4.24l.31-.22" stroke="#292D32" stroke-width="1.5" stroke-linecap="round" stroke-linejoin="round"/><path d="M12 22c5.523 0 10-4.477 10-10S17.523 2 12 2 2 6.477 2 12s4.477 10 10 10Z" stroke="#292D32" stroke-width="1.5" stroke-linecap="round" stroke-linejoin="round"/></svg>