<svg width="24" height="24" fill="none" xmlns="http://www.w3.org/2000/svg"><g opacity=".4" stroke="#292D32" stroke-width="1.5" stroke-linecap="round" stroke-linejoin="round"><path d="M17.003 11.839h-2.68c-.71 0-1.19-.54-1.19-1.19v-1.49c0-.65.48-1.19 1.19-1.19h1.49c.65 0 1.19.54 1.19 1.19v2.68ZM17 11.84c0 2.79-.52 3.26-2.09 4.19M10.862 11.839h-2.68c-.71 0-1.19-.54-1.19-1.19v-1.49c0-.65.48-1.19 1.19-1.19h1.49c.65 0 1.19.54 1.19 1.19v2.68ZM10.863 11.84c0 2.79-.52 3.26-2.09 4.19"/></g><path d="M12 22c5.523 0 10-4.477 10-10S17.523 2 12 2 2 6.477 2 12s4.477 10 10 10Z" stroke="#292D32" stroke-width="1.5" stroke-linecap="round" stroke-linejoin="round"/></svg>