<svg width="24" height="24" fill="none" xmlns="http://www.w3.org/2000/svg"><path d="M22.001 11.65h-5.8c-1.53 0-2.58-1.16-2.58-2.58V5.85c0-1.42 1.05-2.58 2.58-2.58h3.22c1.42 0 2.58 1.16 2.58 2.58v5.8ZM22.003 11.648c0 6.05-1.13 7.05-4.53 9.07" stroke="#292D32" stroke-width="1.5" stroke-linecap="round" stroke-linejoin="round"/><g opacity=".4" stroke="#292D32" stroke-width="1.5" stroke-linecap="round" stroke-linejoin="round"><path d="M10.372 11.65h-5.8c-1.53 0-2.58-1.16-2.58-2.58V5.85c0-1.42 1.05-2.58 2.58-2.58h3.23c1.42 0 2.58 1.16 2.58 2.58v5.8"/><path d="M10.374 11.648c0 6.05-1.13 7.05-4.53 9.07"/></g></svg>