<svg width="24" height="24" fill="none" xmlns="http://www.w3.org/2000/svg"><g opacity=".4" stroke="#292D32" stroke-width="1.5" stroke-linecap="round" stroke-linejoin="round"><path d="M7 12.16h2.68c.71 0 1.19.54 1.19 1.19v1.49c0 .65-.48 1.19-1.19 1.19H8.19A1.2 1.2 0 0 1 7 14.84v-2.68ZM7 12.159c0-2.79.52-3.26 2.09-4.19M13.14 12.16h2.68c.71 0 1.19.54 1.19 1.19v1.49c0 .65-.48 1.19-1.19 1.19h-1.49a1.2 1.2 0 0 1-1.19-1.19v-2.68ZM13.14 12.159c0-2.79.52-3.26 2.09-4.19"/></g><path d="M12 22c5.523 0 10-4.477 10-10S17.523 2 12 2 2 6.477 2 12s4.477 10 10 10Z" stroke="#292D32" stroke-width="1.5" stroke-linecap="round" stroke-linejoin="round"/></svg>