<svg width="24" height="24" fill="none" xmlns="http://www.w3.org/2000/svg"><g opacity=".4" stroke="#292D32" stroke-width="1.5" stroke-linecap="round" stroke-linejoin="round"><path d="M2 12.352h5.8c1.53 0 2.58 1.16 2.58 2.58v3.22c0 1.42-1.05 2.58-2.58 2.58H4.58c-1.42 0-2.58-1.16-2.58-2.58v-5.8M2 12.351c0-6.05 1.13-7.05 4.53-9.07"/></g><path d="M13.629 12.352h5.8c1.53 0 2.58 1.16 2.58 2.58v3.22c0 1.42-1.05 2.58-2.58 2.58h-3.22c-1.42 0-2.58-1.16-2.58-2.58v-5.8M13.629 12.351c0-6.05 1.13-7.05 4.53-9.07" stroke="#292D32" stroke-width="1.5" stroke-linecap="round" stroke-linejoin="round"/></svg>