<svg width="24" height="24" fill="none" xmlns="http://www.w3.org/2000/svg"><path d="M1.98 12.998h3.79a2 2 0 0 1 1.79 1.11l.89 1.79c.55 1.1 1.55 1.1 1.79 1.1h3.53a2 2 0 0 0 1.79-1.11l.89-1.79a2 2 0 0 1 1.79-1.11h3.74M19 2c-1.66 0-3 1.34-3 3s1.34 3 3 3 3-1.34 3-3c0-.34-.06-.68-.16-.98" stroke="#292D32" stroke-width="1.5" stroke-linecap="round" stroke-linejoin="round"/><path d="M2.691 19c.96 2.1 2.96 3 6.31 3h6c5 0 7-2 7-7v-5M14 2H9C4 2 2 4 2 9v6" stroke="#292D32" stroke-width="1.5" stroke-linecap="round" stroke-linejoin="round"/></svg>