<svg width="24" height="24" fill="none" xmlns="http://www.w3.org/2000/svg"><path d="M12 9V2l-2 2M12 2l2 2M1.98 13h4.41c.38 0 .72.21.89.55l1.17 2.34A2 2 0 0 0 10.24 17h3.53a2 2 0 0 0 1.79-1.11l1.17-2.34a1 1 0 0 1 .89-.55h4.36" stroke="#292D32" stroke-width="1.5" stroke-linecap="round" stroke-linejoin="round"/><path d="M2.691 18.999c.96 2.1 2.96 3 6.31 3h6c5 0 7-2 7-7v-3c0-4.27-1.46-6.35-5-6.87M7 5.129c-3.54.52-5 2.6-5 6.87v3" stroke="#292D32" stroke-width="1.5" stroke-linecap="round" stroke-linejoin="round"/></svg>