<svg width="24" height="24" fill="none" xmlns="http://www.w3.org/2000/svg"><path d="M12 8V2l-2 2M12 2l2 2" stroke="#292D32" stroke-width="1.5" stroke-linecap="round" stroke-linejoin="round"/><path d="M12 22h4c4 0 5-2.24 5-5v-1c0-2.21 0-4-4-4-1 0-1.28.21-1.8.6l-1.02 1.08a2.999 2.999 0 0 1-4.37 0L8.8 12.6C8.28 12.21 8 12 7 12c-4 0-4 1.79-4 4v1c0 2.76 0 5 5 5M5 12v-2c0-2.01 0-3.67 3-3.96M19 12v-2c0-2.01 0-3.67-3-3.96" stroke="#292D32" stroke-width="1.5" stroke-miterlimit="10" stroke-linecap="round" stroke-linejoin="round"/></svg>