<svg width="24" height="24" fill="none" xmlns="http://www.w3.org/2000/svg"><path d="M2.69 19.01C3.65 21.1 5.65 22 9 22h6c5 0 7-2 7-7V9c0-5-2-7-7-7H9C4 2 2 4 2 9v6" stroke="#292D32" stroke-width="1.5" stroke-linecap="round" stroke-linejoin="round"/><path d="M2 12.998h3.76a2 2 0 0 1 1.79 1.11l.89 1.79c.56 1.1 1.56 1.1 1.8 1.1h3.53a2 2 0 0 0 1.79-1.11l.89-1.79a2 2 0 0 1 1.79-1.11h3.74M13.66 10h.84M9.5 10h1.58M10.34 7h3.33" stroke="#292D32" stroke-width="1.5" stroke-linecap="round" stroke-linejoin="round"/></svg>