<svg width="24" height="24" fill="none" xmlns="http://www.w3.org/2000/svg"><path d="M2 10.79c0-2.93 1.35-4.52 4.04-4.75.24-.03.49-.04.75-.04h6.4c3.19 0 4.79 1.6 4.79 4.79v4c0 .26-.01.51-.04.75-.23 2.7-1.82 4.04-4.75 4.04h-.4c-.25 0-.49.12-.64.32l-1.2 1.6c-.53.71-1.39.71-1.92 0l-1.2-1.6a.924.924 0 0 0-.64-.32h-.4C3.6 19.58 2 18.79 2 14.79" stroke="#292D32" stroke-width="1.5" stroke-miterlimit="10" stroke-linecap="round" stroke-linejoin="round"/><path d="M21.98 6.79c0-3.19-1.6-4.79-4.79-4.79h-6.4C7.86 2 6.27 3.35 6.04 6.04c.24-.03.49-.04.75-.04h6.4c3.19 0 4.79 1.6 4.79 4.79v4c0 .26-.01.51-.04.75 2.69-.23 4.04-1.81 4.04-4.75" stroke="#292D32" stroke-width="1.5" stroke-miterlimit="10" stroke-linecap="round" stroke-linejoin="round"/><path d="M13.495 13.25h.01M9.995 13.25h.01M6.495 13.25h.01" stroke="#292D32" stroke-width="2" stroke-linecap="round" stroke-linejoin="round"/></svg>