<svg width="24" height="24" fill="none" xmlns="http://www.w3.org/2000/svg"><path d="M13.17 2c-4.88 0-8.83 3.69-8.83 8.24 0 .26.01.51.04.76.89-.58 1.96-.91 3.12-.91 3.04 0 5.5 2.3 5.5 5.14 0 1.19-.44 2.29-1.18 3.16.44.06.89.09 1.35.09l4.19 2.49c.71.43 1.6-.15 1.5-.98l-.39-3.16c2.14-1.5 3.53-3.89 3.53-6.59 0-3.07-1.8-5.75-4.48-7.17" stroke="#292D32" stroke-width="1.5" stroke-linecap="round" stroke-linejoin="round"/><path d="M4.38 11c.89-.58 1.96-.91 3.12-.91 3.04 0 5.5 2.3 5.5 5.14 0 1.19-.44 2.29-1.18 3.16-.99 1.2-2.56 1.97-4.32 1.97l-2.61 1.55c-.44.27-1-.1-.94-.61l.25-1.97C2.86 18.4 2 16.91 2 15.23c0-.3.03-.59.08-.87" stroke="#292D32" stroke-width="1.5" stroke-linecap="round" stroke-linejoin="round"/></svg>