<svg width="24" height="24" fill="none" xmlns="http://www.w3.org/2000/svg"><path fill-rule="evenodd" clip-rule="evenodd" d="M7.578 2.912A6.246 6.246 0 0 0 2.75 9a.75.75 0 0 1-1.5 0A7.745 7.745 0 0 1 9 1.25a.75.75 0 0 1 .643 1.136l-1.05 1.75a.75.75 0 0 1-1.286-.772l.271-.452ZM22 14.25a.75.75 0 0 1 .75.75A7.745 7.745 0 0 1 15 22.75a.75.75 0 0 1-.643-1.136l1.05-1.75a.75.75 0 1 1 1.286.772l-.271.452A6.246 6.246 0 0 0 21.25 15a.75.75 0 0 1 .75-.75Z" fill="#292D32"/><path d="m16.398 8.21-3.76-2.03c-.4-.21-.87-.21-1.27 0l-3.76 2.03a.87.87 0 0 0-.44.77c0 .33.17.62.44.77l3.76 2.03c.2.11.42.16.64.16.22 0 .44-.05.64-.16l3.76-2.03a.87.87 0 0 0 .44-.77.9.9 0 0 0-.45-.77Z" fill="#292D32"/><path opacity=".4" d="m10.738 12.472-3.5-1.75a.867.867 0 0 0-1.25.77v3.31c0 .57.32 1.09.83 1.34l3.5 1.75c.12.06.25.09.39.09.16 0 .31-.04.45-.13.26-.16.41-.43.41-.73v-3.31c0-.57-.31-1.08-.83-1.34ZM17.588 10.762a.867.867 0 0 0-.84-.04l-3.5 1.75a1.5 1.5 0 0 0-.83 1.34v3.31c0 .3.15.57.41.73.14.09.29.13.45.13.13 0 .26-.03.39-.09l3.5-1.75c.51-.26.83-.77.83-1.34v-3.31c0-.3-.15-.57-.41-.73Z" fill="#292D32"/></svg>