<svg width="24" height="24" fill="none" xmlns="http://www.w3.org/2000/svg"><path opacity=".4" d="M21.04 7.19 12 12.42 2.96 7.19c.4-.74.98-1.39 1.63-1.75l5.34-2.96c1.14-.64 3-.64 4.14 0l5.34 2.96c.65.36 1.23 1.01 1.63 1.75Z" fill="#292D32"/><path opacity=".6" d="M12 12.421v9.58c-.75 0-1.5-.16-2.07-.48l-5.34-2.96c-1.21-.67-2.2-2.35-2.2-3.73v-5.66c0-.64.22-1.34.57-1.98l9.04 5.23Z" fill="#292D32"/><path d="M21.61 9.171v5.66c0 1.38-.99 3.06-2.2 3.73l-5.34 2.96c-.57.32-1.32.48-2.07.48v-9.58l9.04-5.23c.35.64.57 1.34.57 1.98Z" fill="#292D32"/></svg>