<svg width="24" height="24" fill="none" xmlns="http://www.w3.org/2000/svg"><path opacity=".4" d="M20.098 6.94c0 .54-.29 1.03-.75 1.28l-1.74.94-1.48.79-3.07 1.66c-.33.18-.69.27-1.06.27-.37 0-.73-.09-1.06-.27l-6.29-3.39c-.46-.25-.75-.74-.75-1.28s.29-1.03.75-1.28l1.97-1.06 1.57-.85 2.75-1.48c.66-.36 1.46-.36 2.12 0l6.29 3.39c.46.25.75.74.75 1.28ZM9.899 12.788l-5.85-2.93c-.45-.23-.97-.2-1.4.06-.43.26-.68.72-.68 1.22v5.53c0 .96.53 1.82 1.39 2.25l5.85 2.92c.2.1.42.15.64.15.26 0 .52-.07.75-.22.43-.26.68-.72.68-1.22v-5.53c.01-.94-.52-1.8-1.38-2.23ZM22.03 11.15v5.53c0 .95-.529 1.81-1.389 2.24l-5.85 2.93a1.433 1.433 0 0 1-1.4-.07c-.42-.26-.68-.72-.68-1.22v-5.52c0-.96.53-1.82 1.39-2.25l2.15-1.07 1.5-.75 2.2-1.1c.45-.23.97-.21 1.4.06.42.26.68.72.68 1.22Z" fill="#292D32"/><path d="m22.598 21.639-.76-.76c.4-.6.63-1.32.63-2.09a3.82 3.82 0 1 0-3.82 3.82c.77 0 1.49-.23 2.09-.63l.76.76c.15.15.35.23.55.23a.78.78 0 0 0 .55-1.33Z" fill="#292D32"/></svg>