<svg width="24" height="24" fill="none" xmlns="http://www.w3.org/2000/svg"><path d="M22 15.7c0-.01-.01-.02-.02-.03-.04-.06-.09-.12-.14-.17-.01-.01-.02-.03-.03-.04-.81-.9-2-1.46-3.31-1.46-1.26 0-2.41.52-3.23 1.36a4.5 4.5 0 0 0-.62 5.46c.22.37.5.71.82.99.02.01.03.02.04.03.05.05.1.09.16.14h.01c.01.01.02.02.03.02.75.63 1.72 1 2.79 1 1.64 0 3.07-.88 3.85-2.18.23-.39.41-.82.52-1.27.09-.34.13-.69.13-1.05 0-1.06-.37-2.04-1-2.8Zm-1.82 3.53h-.93v.97c0 .41-.34.75-.75.75s-.75-.34-.75-.75v-.97h-.93c-.41 0-.75-.34-.75-.75s.34-.75.75-.75h.93v-.89c0-.41.34-.75.75-.75s.75.34.75.75v.89h.93a.749.749 0 1 1 0 1.5Z" fill="#292D32"/><path opacity=".4" d="m19.348 5.66-6.29-3.39c-.66-.36-1.46-.36-2.13 0l-6.29 3.39c-.46.25-.74.74-.74 1.28s.28 1.03.74 1.28l6.29 3.39c.33.18.7.27 1.06.27.36 0 .73-.09 1.06-.27l6.29-3.39c.46-.25.74-.74.74-1.28.02-.54-.27-1.03-.73-1.28ZM9.899 12.788l-5.85-2.93c-.45-.23-.97-.2-1.4.06-.43.26-.68.72-.68 1.22v5.53c0 .96.53 1.82 1.39 2.25l5.85 2.92c.2.1.42.15.64.15.26 0 .52-.07.75-.22.43-.26.68-.72.68-1.22v-5.53c.01-.94-.52-1.8-1.38-2.23ZM22.03 11.15v4.59c-.01-.01-.02-.03-.03-.04 0-.01-.01-.02-.02-.03-.04-.06-.09-.12-.14-.17-.01-.01-.02-.03-.03-.04-.81-.9-2-1.46-3.31-1.46-1.26 0-2.41.52-3.23 1.36a4.5 4.5 0 0 0-.01 6.25l-.47.24a1.432 1.432 0 0 1-1.4-.07c-.42-.26-.68-.72-.68-1.22v-5.52c0-.96.53-1.82 1.39-2.25l5.85-2.92c.45-.23.97-.21 1.4.06.42.26.68.72.68 1.22Z" fill="#292D32"/></svg>