<svg width="24" height="24" fill="none" xmlns="http://www.w3.org/2000/svg"><path opacity=".4" d="m19.348 5.66-6.29-3.39c-.66-.36-1.46-.36-2.13 0l-6.29 3.39c-.46.25-.74.74-.74 1.28s.28 1.03.74 1.28l6.29 3.39c.33.18.7.27 1.06.27.37 0 .73-.09 1.06-.27l6.29-3.39c.46-.25.74-.74.74-1.28.01-.54-.27-1.03-.73-1.28ZM9.899 12.788l-5.85-2.93c-.45-.23-.97-.2-1.4.06-.43.26-.68.72-.68 1.22v5.53c0 .96.53 1.82 1.39 2.25l5.85 2.92c.2.1.42.15.64.15.26 0 .52-.07.75-.22.43-.26.68-.72.68-1.22v-5.53c.01-.94-.52-1.8-1.38-2.23ZM22.03 11.15v4.59c-.01-.01-.02-.03-.03-.04 0-.01-.009-.02-.019-.03-.04-.06-.09-.12-.14-.17-.01-.01-.02-.03-.03-.04-.81-.9-2-1.46-3.31-1.46-1.26 0-2.41.52-3.23 1.36a4.5 4.5 0 0 0-.01 6.25l-.47.24a1.433 1.433 0 0 1-1.4-.07c-.42-.26-.68-.72-.68-1.22v-5.52c0-.96.53-1.82 1.39-2.25l5.85-2.92c.45-.23.97-.21 1.4.06.42.26.68.72.68 1.22Z" fill="#292D32"/><path d="M21.98 15.65A4.46 4.46 0 0 0 18.5 14c-1.06 0-2.04.37-2.81.99A4.448 4.448 0 0 0 14 18.5c0 1.41.64 2.66 1.65 3.48.77.64 1.77 1.02 2.85 1.02 1.14 0 2.17-.43 2.97-1.12A4.52 4.52 0 0 0 23 18.5c0-1.08-.38-2.08-1.02-2.85Zm-2.45 3.13c0 .26-.14.51-.36.64l-1.41.84c-.12.07-.25.11-.39.11-.25 0-.5-.13-.64-.36-.21-.36-.1-.82.26-1.03l1.04-.62V17.1c0-.41.34-.75.75-.75s.75.34.75.75v1.68Z" fill="#292D32"/></svg>