<svg width="24" height="24" fill="none" xmlns="http://www.w3.org/2000/svg"><path d="M5 1c-.94 0-1.81.33-2.5.88A3.97 3.97 0 0 0 1 5c0 2.21 1.79 4 4 4a4 4 0 0 0 2.64-1C8.47 7.27 9 6.2 9 5c0-2.21-1.79-4-4-4Zm1 4.25c0 .26-.14.51-.36.64l-1.25.75c-.12.07-.25.11-.38.11-.25 0-.5-.13-.64-.36-.21-.36-.1-.82.26-1.03l.89-.53V3.75c0-.41.34-.75.75-.75s.75.34.75.75v1.5H6Z" fill="#292D32"/><path opacity=".4" d="M15 3v9c0 1.1-.9 2-2 2H2V7.62c.73.87 1.85 1.41 3.09 1.38 1.01-.02 1.92-.41 2.6-1.06.31-.26.57-.59.77-.95.36-.61.56-1.33.54-2.08-.03-1.17-.55-2.2-1.36-2.91H14c.55 0 1 .45 1 1Z" fill="#292D32"/><path d="M22 14v3c0 1.66-1.34 3-3 3h-1c0-1.1-.9-2-2-2s-2 .9-2 2h-4c0-1.1-.9-2-2-2s-2 .9-2 2H5c-1.66 0-3-1.34-3-3v-3h11c1.1 0 2-.9 2-2V5h1.84c.72 0 1.38.39 1.74 1.01L20.29 9H19c-.55 0-1 .45-1 1v3c0 .55.45 1 1 1h3Z" fill="#292D32"/><path opacity=".4" d="M8 22a2 2 0 1 0 0-4 2 2 0 0 0 0 4ZM16 22a2 2 0 1 0 0-4 2 2 0 0 0 0 4ZM22 12.53V14h-3c-.55 0-1-.45-1-1v-3c0-.55.45-1 1-1h1.29l1.45 2.54c.17.3.26.64.26.99Z" fill="#292D32"/></svg>