<svg width="24" height="24" fill="none" xmlns="http://www.w3.org/2000/svg"><path opacity=".4" d="M15 3v9c0 1.1-.9 2-2 2H2V7.62c.73.87 1.85 1.41 3.09 1.38 1.01-.02 1.92-.41 2.6-1.06.31-.26.57-.59.77-.95.36-.61.56-1.33.54-2.08-.03-1.17-.55-2.2-1.36-2.91H14c.55 0 1 .45 1 1Z" fill="#292D32"/><path d="M22 14v3c0 1.66-1.34 3-3 3h-1c0-1.1-.9-2-2-2s-2 .9-2 2h-4c0-1.1-.9-2-2-2s-2 .9-2 2H5c-1.66 0-3-1.34-3-3v-3h11c1.1 0 2-.9 2-2V5h1.84c.72 0 1.38.39 1.74 1.01L20.29 9H19c-.55 0-1 .45-1 1v3c0 .55.45 1 1 1h3Z" fill="#292D32"/><path opacity=".4" d="M8 22a2 2 0 1 0 0-4 2 2 0 0 0 0 4ZM16 22a2 2 0 1 0 0-4 2 2 0 0 0 0 4ZM22 12.53V14h-3c-.55 0-1-.45-1-1v-3c0-.55.45-1 1-1h1.29l1.45 2.54c.17.3.26.64.26.99Z" fill="#292D32"/><path d="M7.641 2a3.979 3.979 0 0 0-2.73-1c-.94.02-1.8.37-2.48.93-.9.75-1.46 1.9-1.43 3.16.02.75.24 1.45.63 2.04.11.17.23.34.37.49.73.87 1.85 1.41 3.09 1.38 1.01-.02 1.92-.41 2.6-1.06.31-.26.57-.59.77-.95.36-.61.56-1.33.54-2.08-.03-1.17-.55-2.2-1.36-2.91Zm-.58 2.52-2.09 2.02a.75.75 0 0 1-1.04 0l-1.01-.96a.746.746 0 0 1-.02-1.06c.29-.3.76-.31 1.06-.02l.49.47 1.57-1.52c.3-.29.77-.28 1.06.02.29.29.28.76-.02 1.05Z" fill="#292D32"/></svg>