<svg width="24" height="24" fill="none" xmlns="http://www.w3.org/2000/svg"><path d="m9.028 21.692 2.33-1.96c.35-.3.93-.3 1.28 0l2.33 1.96c.54.27 1.2 0 1.4-.58l.44-1.33c.11-.32 0-.79-.24-1.03l-2.27-2.28c-.17-.16-.3-.48-.3-.71v-2.85c0-.42.31-.62.7-.46l4.91 2.12c.77.33 1.4-.08 1.4-.92v-1.29c0-.67-.5-1.44-1.12-1.7l-5.59-2.41a.554.554 0 0 1-.3-.46v-3c0-.94-.69-2.05-1.53-2.48-.3-.15-.65-.15-.95 0-.84.43-1.53 1.55-1.53 2.49v3c0 .18-.14.39-.3.46l-5.58 2.41c-.62.25-1.12 1.02-1.12 1.69v1.29c0 .84.63 1.25 1.4.92l4.91-2.12c.38-.17.7.04.7.46v2.85c0 .23-.13.55-.29.71l-2.27 2.28c-.24.24-.35.7-.24 1.03l.44 1.33c.18.58.84.86 1.39.58Z" stroke="#292D32" stroke-width="1.5" stroke-linecap="round" stroke-linejoin="round"/></svg>