<svg width="24" height="24" fill="none" xmlns="http://www.w3.org/2000/svg"><path d="M15.51 2.828H8.49c-2.49 0-3.04 1.24-3.36 2.76L4 10.998h16l-1.13-5.41c-.32-1.52-.87-2.76-3.36-2.76ZM21.989 19.82c.11 1.17-.83 2.18-2.03 2.18h-1.88c-1.08 0-1.23-.46-1.42-1.03l-.2-.6c-.28-.82-.46-1.37-1.9-1.37h-5.12c-1.44 0-1.65.62-1.9 1.37l-.2.6c-.19.57-.34 1.03-1.42 1.03h-1.88c-1.2 0-2.14-1.01-2.03-2.18l.56-6.09c.14-1.5.43-2.73 3.05-2.73h12.76c2.62 0 2.91 1.23 3.05 2.73l.56 6.09ZM4 8H3M21 8h-1" stroke="#292D32" stroke-width="1.5" stroke-linecap="round" stroke-linejoin="round"/><g opacity=".4" stroke="#292D32" stroke-width="1.5" stroke-linecap="round" stroke-linejoin="round"><path d="M12 3v2M10.5 5h3"/></g><path opacity=".4" d="M6 15h3M15 15h3" stroke="#292D32" stroke-width="1.5" stroke-linecap="round" stroke-linejoin="round"/></svg>