<svg width="24" height="24" fill="none" xmlns="http://www.w3.org/2000/svg"><path opacity=".4" d="M16.19 2H7.81C4.17 2 2 4.17 2 7.81v8.37C2 19.83 4.17 22 7.81 22h8.37c3.64 0 5.81-2.17 5.81-5.81V7.81C22 4.17 19.83 2 16.19 2Z" fill="#292D32"/><path d="m9.86 18.998 1.68-1.42c.25-.21.67-.21.93 0l1.67 1.42c.39.2.87 0 1.01-.42l.32-.96c.08-.23 0-.57-.17-.74l-1.64-1.65a.827.827 0 0 1-.21-.51v-1.85c0-.42.31-.62.7-.46l3.35 1.44c.55.24 1.01-.06 1.01-.66v-.93c0-.48-.36-1.04-.81-1.23l-3.94-1.7a.534.534 0 0 1-.3-.46v-2.07c0-.68-.5-1.48-1.1-1.79a.763.763 0 0 0-.69 0c-.61.3-1.1 1.11-1.1 1.79v2.07c0 .18-.14.39-.3.46l-3.94 1.7c-.44.19-.81.75-.81 1.23v.93c0 .6.45.9 1.01.66l3.35-1.44c.38-.17.7.04.7.46v1.85c0 .17-.1.4-.21.51l-1.67 1.64c-.17.17-.25.51-.17.74l.32.96c.14.43.61.63 1.01.43Z" fill="#292D32"/></svg>