<svg width="24" height="24" fill="none" xmlns="http://www.w3.org/2000/svg"><path opacity=".4" d="M16.9 22H7.1C5.4 22 4 20.61 4 18.9V5.1C4 3.4 5.39 2 7.1 2h9.8C18.6 2 20 3.39 20 5.1v13.8c0 1.71-1.39 3.1-3.1 3.1Z" fill="#292D32"/><path d="M20 8H4v5h16V8ZM8 18.748c-.08 0-.16-.01-.24-.02-.08-.02-.16-.04-.24-.08a1.39 1.39 0 0 1-.21-.11c-.07-.05-.14-.1-.19-.16-.24-.23-.37-.55-.37-.88 0-.33.13-.65.37-.88.05-.06.12-.11.19-.16.06-.04.14-.08.21-.11.08-.04.16-.06.24-.08.4-.08.83.06 1.12.35.24.23.37.55.37.88 0 .33-.13.65-.37.88-.23.24-.55.37-.88.37ZM16 18.749c-.08 0-.16-.01-.24-.02-.08-.02-.16-.04-.24-.08a1.39 1.39 0 0 1-.21-.11c-.07-.05-.14-.1-.19-.16-.24-.23-.37-.55-.37-.88 0-.33.13-.65.37-.88.05-.06.12-.11.19-.16.06-.04.14-.08.21-.11.08-.04.16-.06.24-.08.16-.03.32-.03.49 0 .07.02.15.04.23.08.07.03.15.07.21.11.07.05.14.1.19.16.24.23.37.55.37.88 0 .33-.13.65-.37.88-.05.06-.12.11-.19.16-.06.04-.14.08-.21.11-.08.04-.16.06-.23.08-.09.01-.17.02-.25.02ZM14.5 5.75h-5c-.41 0-.75-.34-.75-.75s.34-.75.75-.75h5c.41 0 .75.34.75.75s-.34.75-.75.75Z" fill="#292D32"/></svg>