<svg width="24" height="24" fill="none" xmlns="http://www.w3.org/2000/svg"><path opacity=".4" d="M22.182 13.66c-.15-1.65-.59-3.41-3.8-3.41H5.621c-3.21 0-3.64 1.76-3.8 3.41l-.56 6.09c-.07.76.18 1.52.7 2.09.53.58 1.28.91 2.08.91h1.88c1.62 0 1.93-.93 2.13-1.54l.2-.6c.23-.69.29-.86 1.19-.86h5.12c.9 0 .93.1 1.19.86l.2.6c.2.61.51 1.54 2.13 1.54h1.88c.79 0 1.55-.33 2.08-.91.52-.57.77-1.33.7-2.09l-.56-6.09Z" fill="#292D32"/><path d="M21 7.248h-1.02l-.38-1.81c-.36-1.75-1.11-3.36-4.09-3.36H8.49c-2.98 0-3.73 1.61-4.09 3.36l-.38 1.81H3c-.41 0-.75.34-.75.75s.34.75.75.75h.71l-.42 2c.54-.31 1.29-.5 2.33-.5h12.76c1.04 0 1.79.19 2.33.5l-.42-2H21c.41 0 .75-.34.75-.75s-.34-.75-.75-.75ZM9 15.75H6c-.41 0-.75-.34-.75-.75s.34-.75.75-.75h3c.41 0 .75.34.75.75s-.34.75-.75.75ZM18 15.75h-3c-.41 0-.75-.34-.75-.75s.34-.75.75-.75h3c.41 0 .75.34.75.75s-.34.75-.75.75Z" fill="#292D32"/></svg>