<svg width="24" height="24" fill="none" xmlns="http://www.w3.org/2000/svg"><path d="M12 18.75c-.41 0-.75-.34-.75-.75v-1c0-.41.34-.75.75-.75s.75.34.75.75v1c0 .41-.34.75-.75.75ZM12 22.75c-.41 0-.75-.34-.75-.75v-1c0-.41.34-.75.75-.75s.75.34.75.75v1c0 .41-.34.75-.75.75ZM1.998 22.748c-.06 0-.12-.01-.18-.02-.4-.1-.65-.51-.55-.91l1-4a.75.75 0 1 1 1.46.36l-1 4c-.09.34-.39.57-.73.57ZM21.999 22.749c-.34 0-.64-.23-.73-.57l-1-4c-.1-.4.14-.81.55-.91.4-.1.81.14.91.55l1 4a.748.748 0 0 1-.73.93Z" fill="#292D32"/><path opacity=".4" d="M19.26 9.52c-.11-1.18-.42-2.43-2.71-2.43h-9.1c-2.29 0-2.6 1.26-2.71 2.43l-.4 4.34c-.05.54.13 1.08.5 1.49.38.41.92.65 1.48.65h1.34c1.15 0 1.37-.66 1.52-1.1l.14-.43c.16-.49.2-.61.85-.61h3.65c.64 0 .66.07.85.61l.14.43c.15.44.37 1.1 1.52 1.1h1.34c.56 0 1.1-.24 1.48-.65.37-.4.55-.95.5-1.49l-.39-4.34Z" fill="#292D32"/><path d="M18.42 4.94h-.72l-.27-1.29c-.26-1.25-.79-2.4-2.92-2.4H9.5c-2.13 0-2.66 1.15-2.92 2.4l-.27 1.29h-.72c-.3 0-.54.24-.54.54 0 .3.24.54.54.54h.51l-.3 1.43c.39-.22.92-.36 1.66-.36h9.1c.74 0 1.28.14 1.66.36l-.3-1.43h.51c.3 0 .54-.24.54-.54a.553.553 0 0 0-.55-.54ZM9.86 11.01H7.72c-.3 0-.54-.24-.54-.54 0-.3.24-.54.54-.54h2.14c.3 0 .54.24.54.54a.55.55 0 0 1-.54.54ZM16.282 11.01h-2.14c-.3 0-.54-.24-.54-.54 0-.3.24-.54.54-.54h2.14c.3 0 .54.24.54.54 0 .3-.24.54-.54.54Z" fill="#292D32"/></svg>