<svg width="24" height="24" fill="none" xmlns="http://www.w3.org/2000/svg"><path d="M16.9 22H7.1C5.4 22 4 20.61 4 18.9V5.1C4 3.4 5.39 2 7.1 2h9.8C18.6 2 20 3.39 20 5.1v13.8c0 1.71-1.39 3.1-3.1 3.1Z" stroke="#292D32" stroke-width="1.5" stroke-linecap="round" stroke-linejoin="round"/><path d="M18.5 13h-13c-.83 0-1.5-.67-1.5-1.5v-2C4 8.67 4.67 8 5.5 8h13c.83 0 1.5.67 1.5 1.5v2c0 .83-.67 1.5-1.5 1.5Z" stroke="#292D32" stroke-width="1.5" stroke-linecap="round" stroke-linejoin="round"/><path d="M8.495 17.7h.008M15.495 17.7h.009" stroke="#292D32" stroke-width="2.5" stroke-linecap="round" stroke-linejoin="round"/><path d="M9.5 5h5" stroke="#292D32" stroke-width="1.5" stroke-linecap="round" stroke-linejoin="round"/></svg>