<svg width="24" height="24" fill="none" xmlns="http://www.w3.org/2000/svg"><path opacity=".4" d="m2 13.1 2.5-1.5c1.54-.92 3.46-.92 5 0s3.46.92 5 0 3.46-.92 5 0l2.5 1.5" stroke="#292D32" stroke-width="1.5" stroke-miterlimit="10" stroke-linecap="round" stroke-linejoin="round"/><path d="m2 3.898 2.5 1.5c1.54.92 3.46.92 5 0s3.46-.92 5 0 3.46.92 5 0l2.5-1.5M2 20.1l2.5-1.5c1.54-.92 3.46-.92 5 0s3.46.92 5 0 3.46-.92 5 0l2.5 1.5" stroke="#292D32" stroke-width="1.5" stroke-miterlimit="10" stroke-linecap="round" stroke-linejoin="round"/></svg>