<svg width="24" height="24" fill="none" xmlns="http://www.w3.org/2000/svg"><path d="M12 22.75C6.07 22.75 1.25 17.93 1.25 12S6.07 1.25 12 1.25 22.75 6.07 22.75 12 17.93 22.75 12 22.75Zm0-20C6.9 2.75 2.75 6.9 2.75 12S6.9 21.25 12 21.25s9.25-4.15 9.25-9.25S17.1 2.75 12 2.75Z" fill="#000"/><path d="M14.57 10.889H9.43a.752.752 0 0 1-.64-1.14l2.57-4.29c.27-.45 1.02-.45 1.29 0l2.57 4.29c.14.23.14.52.01.76a.76.76 0 0 1-.66.38Zm-3.82-1.5h2.49l-1.25-2.08-1.24 2.08ZM11.14 16.89H6a.745.745 0 0 1-.64-1.13l2.57-4.29c.27-.45 1.02-.45 1.29 0l2.57 4.29a.745.745 0 0 1-.65 1.13Zm-3.82-1.5h2.49l-1.25-2.08-1.24 2.08ZM18 16.89h-5.14a.745.745 0 0 1-.64-1.13l2.57-4.29c.27-.45 1.02-.45 1.29 0l2.57 4.29a.745.745 0 0 1-.65 1.13Zm-3.82-1.5h2.49l-1.25-2.08-1.24 2.08Z" fill="#000"/></svg>