<svg width="24" height="24" fill="none" xmlns="http://www.w3.org/2000/svg"><path d="M16 10.751c-.19 0-.38-.07-.53-.22L12 7.061l-3.47 3.47c-.29.29-.77.29-1.06 0l-2-2a.754.754 0 0 1 0-1.06l6-6c.29-.29.77-.29 1.06 0l6 6c.29.29.29.77 0 1.06l-2 2c-.15.15-.34.22-.53.22Zm-4-5.5c.19 0 .38.07.53.22L16 8.941l.94-.94L12 3.061l-4.94 4.94.94.94 3.47-3.47c.15-.15.34-.22.53-.22ZM12 22.751c-.19 0-.38-.07-.53-.22l-6-6a.754.754 0 0 1 0-1.06l2-2c.29-.29.77-.29 1.06 0l3.47 3.47 3.47-3.47c.29-.29.77-.29 1.06 0l2 2c.29.29.29.77 0 1.06l-6 6c-.15.15-.34.22-.53.22Zm-4.94-6.75 4.94 4.94 4.94-4.94-.94-.94-3.47 3.47c-.29.29-.77.29-1.06 0L8 15.061l-.94.94ZM19.75 15.001c-.19 0-.38-.07-.53-.22l-2.25-2.25a.754.754 0 0 1 0-1.06l2.25-2.25c.29-.29.77-.29 1.06 0l2.25 2.25c.29.29.29.77 0 1.06l-2.25 2.25c-.15.15-.34.22-.53.22Zm-1.19-3 1.19 1.19 1.19-1.19-1.19-1.19-1.19 1.19ZM4.25 15.001c-.19 0-.38-.07-.53-.22l-2.25-2.25a.754.754 0 0 1 0-1.06l2.25-2.25c.29-.29.77-.29 1.06 0l2.25 2.25c.29.29.29.77 0 1.06l-2.25 2.25c-.15.15-.34.22-.53.22Zm-1.19-3 1.19 1.19 1.19-1.19-1.19-1.19-1.19 1.19Z" fill="#000"/><path d="M12 15.23c-.19 0-.38-.07-.53-.22l-2.48-2.48a.754.754 0 0 1 0-1.06l2.48-2.48c.29-.29.77-.29 1.06 0l2.48 2.48c.29.29.29.77 0 1.06l-2.48 2.48c-.15.14-.34.22-.53.22ZM10.58 12 12 13.42 13.42 12 12 10.58 10.58 12Z" fill="#000"/></svg>