<svg width="24" height="24" fill="none" xmlns="http://www.w3.org/2000/svg"><path d="M8.34 10.829c-.32 0-.64-.12-.88-.37l-1.73-1.73a1.25 1.25 0 0 1 0-1.77l5.15-5.15a1.25 1.25 0 0 1 1.77 0l1.73 1.73c.49.49.49 1.28 0 1.77l-5.15 5.15c-.25.25-.57.37-.89.37Zm-1.38-2.98 1.38 1.38 4.79-4.79-1.38-1.38-4.79 4.79ZM8.34 18.64c-.32 0-.64-.12-.88-.37l-1.73-1.73a1.25 1.25 0 0 1 0-1.77l9.05-9.05a1.25 1.25 0 0 1 1.77 0l1.73 1.73c.49.49.49 1.28 0 1.77l-9.05 9.05c-.25.25-.57.37-.89.37Zm-1.38-2.98 1.38 1.38 8.7-8.7-1.38-1.38-8.7 8.7ZM12.24 22.541c-.32 0-.64-.12-.88-.37l-1.73-1.73a1.25 1.25 0 0 1 0-1.77l9.05-9.05a1.25 1.25 0 0 1 1.77 0l1.73 1.73c.49.49.49 1.28 0 1.77l-9.05 9.05c-.25.25-.57.37-.89.37Zm-1.37-2.98 1.38 1.38 8.7-8.7-1.38-1.38-8.7 8.7ZM4.44 14.739c-.32 0-.64-.12-.88-.36l-1.73-1.73a1.25 1.25 0 0 1 0-1.77l1.73-1.73a1.25 1.25 0 0 1 1.77 0l1.73 1.73c.49.49.49 1.28 0 1.77l-1.73 1.73c-.25.24-.57.36-.89.36Zm-1.38-2.98 1.38 1.38 1.38-1.38-1.38-1.38-1.38 1.38Z" fill="#000"/></svg>