<svg width="24" height="24" fill="none" xmlns="http://www.w3.org/2000/svg"><path d="M15 18.75H9c-2.42 0-3.75-1.33-3.75-3.75V9c0-2.42 1.33-3.75 3.75-3.75h4c2.42 0 3.75 1.33 3.75 3.75v1c0 .14.11.25.25.25.96 0 1.75.79 1.75 1.75v3c0 2.42-1.33 3.75-3.75 3.75Zm-6-12c-1.58 0-2.25.67-2.25 2.25v6c0 1.58.67 2.25 2.25 2.25h6c1.58 0 2.25-.67 2.25-2.25v-3c0-.14-.11-.25-.25-.25-.96 0-1.75-.79-1.75-1.75V9c0-1.58-.67-2.25-2.25-2.25H9Z" fill="#000"/><path d="M12 10.75h-2c-.41 0-.75-.34-.75-.75s.34-.75.75-.75h2c.41 0 .75.34.75.75s-.34.75-.75.75ZM14 14.75h-4c-.41 0-.75-.34-.75-.75s.34-.75.75-.75h4c.41 0 .75.34.75.75s-.34.75-.75.75Z" fill="#000"/><path d="M15 22.75H9c-5.43 0-7.75-2.32-7.75-7.75V9c0-5.43 2.32-7.75 7.75-7.75h6c5.43 0 7.75 2.32 7.75 7.75v6c0 5.43-2.32 7.75-7.75 7.75Zm-6-20C4.39 2.75 2.75 4.39 2.75 9v6c0 4.61 1.64 6.25 6.25 6.25h6c4.61 0 6.25-1.64 6.25-6.25V9c0-4.61-1.64-6.25-6.25-6.25H9Z" fill="#000"/></svg>