<svg width="24" height="24" fill="none" xmlns="http://www.w3.org/2000/svg"><path d="M17 21.75H7c-2.07 0-3.75-1.68-3.75-3.75v-.84c0-.69-.11-1.37-.33-2.03A2.021 2.021 0 0 0 1 13.75c-.41 0-.75-.34-.75-.75v-2c0-.41.34-.75.75-.75.87 0 1.65-.56 1.92-1.38.22-.66.33-1.34.33-2.03V6c0-2.07 1.68-3.75 3.75-3.75h10c2.07 0 3.75 1.68 3.75 3.75v.84c0 .69.11 1.37.33 2.03.28.83 1.05 1.38 1.92 1.38.41 0 .75.34.75.75v2c0 .41-.34.75-.75.75-.87 0-1.65.56-1.92 1.38-.22.66-.33 1.34-.33 2.03V18c0 2.07-1.68 3.75-3.75 3.75ZM1.75 12.33a3.51 3.51 0 0 1 2.59 2.33c.27.81.41 1.65.41 2.5V18c0 1.24 1.01 2.25 2.25 2.25h10c1.24 0 2.25-1.01 2.25-2.25v-.84c0-.85.14-1.69.41-2.5.4-1.2 1.4-2.07 2.59-2.33v-.66a3.51 3.51 0 0 1-2.59-2.33 7.89 7.89 0 0 1-.41-2.5V6c0-1.24-1.01-2.25-2.25-2.25H7C5.76 3.75 4.75 4.76 4.75 6v.84c0 .85-.14 1.69-.41 2.5-.4 1.2-1.4 2.07-2.59 2.33v.66Z" fill="#000"/><path d="M12.67 16.92H9.75c-.41 0-.75-.34-.75-.75V7.84c0-.41.34-.75.75-.75h2.92c1.56 0 2.83 1.27 2.83 2.83 0 .82-.35 1.57-.92 2.08.56.52.92 1.26.92 2.08 0 1.57-1.27 2.84-2.83 2.84Zm-2.17-1.5h2.17a1.33 1.33 0 1 0 0-2.66H10.5v2.66Zm0-4.17h2.17a1.33 1.33 0 1 0 0-2.66H10.5v2.66Z" fill="#000"/></svg>