<svg width="24" height="24" fill="none" xmlns="http://www.w3.org/2000/svg"><path d="M13.75 10.5c-.83 0-1.5-.67-1.5-1.5s.67-1.5 1.5-1.5 1.5.67 1.5 1.5-.67 1.5-1.5 1.5Zm0-2c-.28 0-.5.22-.5.5s.22.5.5.5.5-.22.5-.5-.22-.5-.5-.5ZM10.25 10.5c-.83 0-1.5-.67-1.5-1.5s.67-1.5 1.5-1.5 1.5.67 1.5 1.5-.67 1.5-1.5 1.5Zm0-2c-.28 0-.5.22-.5.5s.22.5.5.5.5-.22.5-.5-.22-.5-.5-.5ZM15.5 13.5c-.83 0-1.5-.67-1.5-1.5s.67-1.5 1.5-1.5 1.5.67 1.5 1.5-.67 1.5-1.5 1.5Zm0-2c-.28 0-.5.22-.5.5s.22.5.5.5.5-.22.5-.5-.22-.5-.5-.5ZM17.15 10.25a1.25 1.25 0 1 1 .001-2.5 1.25 1.25 0 0 1 0 2.5Zm0-1.5c-.14 0-.25.11-.25.25 0 .28.5.28.5 0 0-.14-.11-.25-.25-.25ZM17.15 16.25a1.25 1.25 0 1 1 .001-2.5 1.25 1.25 0 0 1 0 2.5Zm0-1.5c-.14 0-.25.11-.25.25 0 .28.5.28.5 0 0-.14-.11-.25-.25-.25ZM19.75 13.25a1.25 1.25 0 1 1 0-2.5 1.25 1.25 0 0 1 0 2.5Zm0-1.5c-.14 0-.25.11-.25.25 0 .28.5.28.5 0 0-.14-.11-.25-.25-.25ZM6.8 10.25a1.25 1.25 0 1 1 .002-2.5 1.25 1.25 0 0 1-.001 2.5Zm0-1.5c-.14 0-.25.11-.25.25 0 .28.5.28.5 0 0-.14-.11-.25-.25-.25ZM6.8 16.25a1.25 1.25 0 1 1 .002-2.5 1.25 1.25 0 0 1-.001 2.5Zm0-1.5c-.14 0-.25.11-.25.25 0 .28.5.28.5 0 0-.14-.11-.25-.25-.25ZM4.2 13.25a1.25 1.25 0 1 1 0-2.5 1.25 1.25 0 0 1 0 2.5Zm0-1.5c-.14 0-.25.11-.25.25 0 .28.5.28.5 0 0-.14-.11-.25-.25-.25ZM15.9 6.45a1.25 1.25 0 1 1 .001-2.502 1.25 1.25 0 0 1 0 2.501Zm0-1.5c-.14 0-.25.11-.25.25 0 .28.5.28.5 0 0-.14-.11-.25-.25-.25ZM8.1 6.45a1.25 1.25 0 1 1 0-2.502 1.25 1.25 0 0 1 0 2.501Zm0-1.5c-.14 0-.25.11-.25.25 0 .28.5.28.5 0 0-.14-.11-.25-.25-.25ZM12.05 7.25a1.25 1.25 0 1 1 .002-2.5 1.25 1.25 0 0 1-.001 2.5Zm0-1.5c-.14 0-.25.11-.25.25 0 .28.5.28.5 0 0-.14-.11-.25-.25-.25ZM15.9 20.25a1.25 1.25 0 1 1 .001-2.5 1.25 1.25 0 0 1 0 2.5Zm0-1.5c-.14 0-.25.11-.25.25 0 .28.5.28.5 0 0-.14-.11-.25-.25-.25ZM8.1 20.25a1.25 1.25 0 1 1 0-2.5 1.25 1.25 0 0 1 0 2.5Zm0-1.5c-.14 0-.25.11-.25.25 0 .28.5.28.5 0 0-.14-.11-.25-.25-.25ZM12.05 19.45a1.25 1.25 0 1 1 .002-2.502 1.25 1.25 0 0 1-.001 2.501Zm0-1.5c-.14 0-.25.11-.25.25 0 .28.5.28.5 0 0-.14-.11-.25-.25-.25ZM8.5 13.5c-.83 0-1.5-.67-1.5-1.5s.67-1.5 1.5-1.5 1.5.67 1.5 1.5-.67 1.5-1.5 1.5Zm0-2c-.28 0-.5.22-.5.5s.22.5.5.5.5-.22.5-.5-.22-.5-.5-.5ZM10.25 16.5c-.83 0-1.5-.67-1.5-1.5s.67-1.5 1.5-1.5 1.5.67 1.5 1.5-.67 1.5-1.5 1.5Zm0-2c-.28 0-.5.22-.5.5s.22.5.5.5.5-.22.5-.5-.22-.5-.5-.5ZM13.75 16.5c-.83 0-1.5-.67-1.5-1.5s.67-1.5 1.5-1.5 1.5.67 1.5 1.5-.67 1.5-1.5 1.5Zm0-2c-.28 0-.5.22-.5.5s.22.5.5.5.5-.22.5-.5-.22-.5-.5-.5ZM12 3.45c-.56 0-1.01-.45-1.01-1s.45-1 1-1 1 .45 1 1-.43 1-.99 1ZM17.25 3.602c-.42 0-.76-.34-.76-.75s.34-.75.75-.75.76.34.76.75-.33.75-.75.75ZM6.75 3.602a.749.749 0 1 1 0-1.5h.01c.41 0 .75.34.75.75s-.34.75-.76.75ZM12 22.5c-.56 0-1.01-.45-1.01-1s.45-1 1-1 1 .45 1 1-.43 1-.99 1ZM17.25 21.852c-.42 0-.76-.34-.76-.75s.34-.75.75-.75.76.34.76.75-.33.75-.75.75ZM6.75 21.852a.749.749 0 1 1 0-1.5h.01c.41 0 .75.34.75.75s-.34.75-.76.75ZM1.55 13c-.55 0-1-.44-1-1 0-.55.45-1 1-1s1 .45 1 1-.45 1-1 1ZM3.75 17.748c-.41 0-.75-.33-.75-.75v-.01c0-.41.34-.75.75-.75s.75.34.75.75-.34.76-.75.76ZM3.75 7.762c-.41 0-.75-.34-.75-.75s.34-.75.75-.75.75.33.75.74v.01c0 .41-.34.75-.75.75ZM22.5 13c-.55 0-1-.44-1-1 0-.55.45-1 1-1s1 .45 1 1-.45 1-1 1ZM20.3 17.748c-.41 0-.75-.33-.75-.75v-.01c0-.41.34-.75.75-.75s.75.34.75.75-.34.76-.75.76ZM20.3 7.762c-.41 0-.75-.34-.75-.75s.34-.75.75-.75.75.33.75.75v.01c0 .4-.34.74-.75.74Z" fill="#000"/></svg>