<svg width="24" height="24" fill="none" xmlns="http://www.w3.org/2000/svg"><path d="M12 22.43c-.48 0-.95-.11-1.34-.32l-7-3.89c-.81-.45-1.41-1.48-1.41-2.4V8.18c0-.92.61-1.96 1.42-2.4l7-3.89c.76-.42 1.91-.42 2.67 0l7 3.89c.81.45 1.41 1.48 1.41 2.4v7.65c0 .92-.61 1.96-1.42 2.4l-7 3.89c-.37.21-.85.31-1.33.31Zm0-19.36c-.23 0-.45.04-.61.13l-7 3.89c-.33.18-.64.71-.64 1.09v7.65c0 .38.31.91.64 1.09l7 3.89c.31.17.91.17 1.21 0l7-3.89c.33-.18.64-.71.64-1.09V8.18c0-.38-.31-.91-.64-1.09l-7-3.89c-.15-.09-.37-.13-.6-.13Z" fill="#000"/></svg>