<svg width="24" height="24" fill="none" xmlns="http://www.w3.org/2000/svg"><path d="M12 16.75c-1.1 0-2-.9-2-2v-1.6a3.112 3.112 0 0 1 .09-4.87c.78-.6 1.78-.8 2.75-.54 1.06.28 1.92 1.14 2.19 2.2.31 1.21-.1 2.45-1.03 3.21v1.6c0 1.1-.9 2-2 2Zm0-7.62a1.626 1.626 0 0 0-1.62 1.62c0 .57.29 1.08.77 1.38l.36.22v2.4c0 .28.22.5.5.5s.5-.22.5-.5v-2.4l.36-.22c.62-.38.9-1.1.72-1.82a1.62 1.62 0 0 0-1.12-1.12c-.17-.04-.32-.06-.47-.06Z" fill="#000"/><path d="M12 22.75C6.07 22.75 1.25 17.93 1.25 12S6.07 1.25 12 1.25c4.74 0 8.86 3.04 10.27 7.55.12.4-.1.82-.49.94-.4.12-.82-.1-.94-.49a9.205 9.205 0 0 0-8.83-6.5c-5.1 0-9.25 4.15-9.25 9.25s4.15 9.25 9.25 9.25a9.2 9.2 0 0 0 8.82-6.47c.12-.4.54-.61.94-.49.4.12.61.55.49.94-1.42 4.5-5.54 7.52-10.26 7.52Z" fill="#000"/></svg>