<svg width="24" height="24" fill="none" xmlns="http://www.w3.org/2000/svg"><path d="M12 22.75C6.07 22.75 1.25 17.93 1.25 12S6.07 1.25 12 1.25 22.75 6.07 22.75 12 17.93 22.75 12 22.75Zm0-20C6.9 2.75 2.75 6.9 2.75 12S6.9 21.25 12 21.25s9.25-4.15 9.25-9.25S17.1 2.75 12 2.75Z" fill="#000"/><path d="M12 17.75H8c-.41 0-.75-.34-.75-.75V7c0-.41.34-.75.75-.75h4c3.17 0 5.75 2.58 5.75 5.75s-2.58 5.75-5.75 5.75Zm-3.25-1.5H12A4.26 4.26 0 0 0 16.25 12 4.26 4.26 0 0 0 12 7.75H8.75v8.5Z" fill="#000"/><path d="M18.52 10.75H6.48c-.41 0-.75-.34-.75-.75s.34-.75.75-.75h12.04c.41 0 .75.34.75.75s-.34.75-.75.75ZM18.52 14.75H6.48c-.41 0-.75-.34-.75-.75s.34-.75.75-.75h12.04c.41 0 .75.34.75.75s-.34.75-.75.75Z" fill="#000"/></svg>