<svg width="24" height="24" fill="none" xmlns="http://www.w3.org/2000/svg"><path d="M12 18.902c-1.14 0-2.07-.93-2.07-2.07v-9.66c0-1.14.93-2.07 2.07-2.07 1.14 0 2.07.93 2.07 2.07v9.66c0 1.14-.93 2.07-2.07 2.07Zm0-12.3a.57.57 0 0 0-.57.57v9.66c0 .31.25.57.57.57.32 0 .57-.25.57-.57v-9.66c0-.31-.26-.57-.57-.57Z" fill="#000"/><path d="M16.18 16.48c-.35 0-.71-.09-1.03-.28l-8.37-4.83c-.48-.28-.82-.72-.96-1.26-.14-.53-.07-1.09.21-1.57.57-.99 1.84-1.33 2.82-.76l8.37 4.83c.99.57 1.33 1.84.76 2.82-.39.68-1.09 1.05-1.8 1.05ZM7.82 9.02c-.05 0-.1.01-.15.02-.15.04-.27.13-.35.26-.07.13-.09.28-.06.43.04.15.13.27.26.35l8.37 4.83c.27.15.62.06.78-.21.16-.27.06-.62-.21-.78L8.09 9.09a.495.495 0 0 0-.27-.07Z" fill="#000"/><path d="M7.82 16.48a2.063 2.063 0 0 1-1.03-3.85l8.37-4.83c.99-.57 2.25-.23 2.82.76.28.48.35 1.03.21 1.57-.14.53-.48.98-.96 1.26l-8.37 4.83c-.33.17-.69.26-1.04.26Zm-.5-1.78c.15.27.51.36.78.21l8.37-4.83a.577.577 0 0 0 .2-.78.577.577 0 0 0-.78-.2l-8.37 4.83c-.26.15-.35.5-.2.77Z" fill="#000"/><path d="M12 22.75C6.07 22.75 1.25 17.93 1.25 12S6.07 1.25 12 1.25 22.75 6.07 22.75 12 17.93 22.75 12 22.75Zm0-20C6.9 2.75 2.75 6.9 2.75 12S6.9 21.25 12 21.25s9.25-4.15 9.25-9.25S17.1 2.75 12 2.75Z" fill="#000"/></svg>