<svg width="24" height="24" fill="none" xmlns="http://www.w3.org/2000/svg"><path d="M6.44 9.75c-.15 0-.29-.04-.42-.13l-4.44-3a.76.76 0 0 1-.33-.61c0-.25.11-.48.31-.62l5.56-4c.26-.18.6-.19.86-.01l4.44 3c.2.14.33.37.33.61 0 .25-.11.48-.31.62l-5.56 4c-.13.09-.28.14-.44.14ZM3.31 5.98l3.12 2.11 4.26-3.07-3.12-2.11-4.26 3.07Z" fill="#000"/><path d="M17.56 9.75c-.15 0-.31-.05-.44-.14l-5.56-4a.732.732 0 0 1-.31-.62c0-.25.13-.47.33-.61l4.44-3c.26-.17.6-.17.86.01l5.56 4c.2.14.32.38.31.62 0 .25-.13.47-.33.61l-4.44 3a.74.74 0 0 1-.42.13Zm-4.25-4.73 4.26 3.07 3.12-2.11-4.26-3.07-3.12 2.11ZM7.56 17.75c-.15 0-.31-.05-.44-.14l-5.56-4a.732.732 0 0 1-.31-.62c0-.25.13-.47.33-.61l4.44-3c.26-.17.6-.17.86.01l5.56 4c.2.14.32.38.31.62 0 .25-.13.47-.33.61l-4.44 3a.74.74 0 0 1-.42.13Zm-4.25-4.73 4.26 3.07 3.12-2.11-4.26-3.07-3.12 2.11Z" fill="#000"/><path d="M16.44 17.75c-.15 0-.29-.04-.42-.13l-4.44-3a.76.76 0 0 1-.33-.61c0-.25.11-.48.31-.62l5.56-4c.25-.18.6-.19.86-.01l4.44 3c.2.14.33.37.33.61 0 .25-.11.48-.31.62l-5.56 4c-.13.09-.28.14-.44.14Zm-3.13-3.77 3.12 2.11 4.26-3.07-3.12-2.11-4.26 3.07Z" fill="#000"/><path d="M12 22.65c-.25 0-.5-.05-.73-.16l-6.58-3.04a.745.745 0 0 1-.44-.68V15.5c0-.41.34-.75.75-.75s.75.34.75.75v2.79l6.15 2.84c.07.03.14.03.21 0l6.15-2.84V15.5c0-.41.34-.75.75-.75s.75.34.75.75v3.27c0 .29-.17.56-.44.68l-6.58 3.04c-.24.11-.49.16-.74.16Z" fill="#000"/></svg>