<svg width="24" height="24" fill="none" xmlns="http://www.w3.org/2000/svg"><path d="M12 8.91c-.49 0-.97-.18-1.34-.55L7.99 5.69a1.89 1.89 0 0 1-.41-2.07c.29-.71.98-1.17 1.75-1.17h5.35c.77 0 1.46.46 1.75 1.17.29.71.13 1.52-.41 2.07l-2.67 2.67c-.38.36-.86.55-1.35.55ZM9.05 4.62l2.67 2.67c.15.15.4.15.56 0l2.67-2.67a.36.36 0 0 0 .08-.43c-.04-.07-.13-.24-.36-.24H9.32c-.24 0-.33.17-.36.24-.03.07-.08.26.09.43ZM14.67 21.56H9.32c-.77 0-1.46-.46-1.75-1.17-.29-.71-.13-1.52.41-2.07l2.67-2.67c.72-.72 1.96-.72 2.68 0L16 18.32c.54.54.71 1.36.41 2.07a1.86 1.86 0 0 1-1.74 1.17Zm-5.62-2.18a.36.36 0 0 0-.08.43c.04.07.13.24.36.24h5.35c.24 0 .33-.17.36-.24.03-.07.08-.26-.08-.43l-2.67-2.67a.405.405 0 0 0-.56 0l-2.68 2.67ZM5.23 17.25c-.06 0-.13 0-.2-.01-.54-.06-1.01-.35-1.3-.81l-2.21-3.48c-.37-.58-.37-1.32 0-1.9l2.21-3.48a1.76 1.76 0 0 1 2.74-.3l3.48 3.48c.33.33.52.78.52 1.25s-.18.92-.52 1.25l-3.47 3.48c-.33.33-.78.52-1.25.52Zm-2.44-5.39c-.06.09-.06.2 0 .29L5 15.63c.06.09.15.12.2.12.05 0 .14 0 .22-.08l3.48-3.48a.268.268 0 0 0 0-.38L5.42 8.33c-.08-.08-.17-.08-.22-.08-.05.01-.14.03-.2.12l-2.21 3.49ZM18.77 17.25c-.47 0-.91-.18-1.25-.52l-3.48-3.48c-.33-.33-.52-.78-.52-1.25s.18-.92.52-1.25l3.47-3.48a1.76 1.76 0 0 1 2.74.3l2.21 3.48c.37.58.37 1.32 0 1.9l-2.21 3.48c-.29.46-.76.75-1.3.81-.05 0-.12.01-.18.01Zm0-8.99c-.05 0-.12.01-.19.08l-3.48 3.48c-.07.07-.08.15-.08.19 0 .04.01.12.08.19l3.48 3.48c.08.08.17.08.22.08.05-.01.14-.03.2-.12l2.21-3.48c.06-.09.06-.2 0-.29L19 8.39a.258.258 0 0 0-.2-.12c-.01-.01-.02-.01-.03-.01Z" fill="#000"/></svg>