<svg width="24" height="24" fill="none" xmlns="http://www.w3.org/2000/svg"><path d="M12 22.75C6.07 22.75 1.25 17.93 1.25 12S6.07 1.25 12 1.25 22.75 6.07 22.75 12 17.93 22.75 12 22.75Zm0-20C6.9 2.75 2.75 6.9 2.75 12S6.9 21.25 12 21.25s9.25-4.15 9.25-9.25S17.1 2.75 12 2.75Z" fill="#000"/><path d="M16.5 16.75h-9c-.41 0-.75-.34-.75-.75s.34-.75.75-.75h8.25v-6.5H7.5c-.41 0-.75-.34-.75-.75s.34-.75.75-.75h9c.41 0 .75.34.75.75v8c0 .41-.34.75-.75.75Z" fill="#000"/><path d="M12.5 12.75h-5c-.41 0-.75-.34-.75-.75s.34-.75.75-.75h4.25V8c0-.41.34-.75.75-.75s.75.34.75.75v4c0 .41-.34.75-.75.75Z" fill="#000"/></svg>