<svg width="24" height="24" fill="none" xmlns="http://www.w3.org/2000/svg"><path d="M12 22.75C6.07 22.75 1.25 17.93 1.25 12S6.07 1.25 12 1.25 22.75 6.07 22.75 12 17.93 22.75 12 22.75Zm0-20C6.9 2.75 2.75 6.9 2.75 12S6.9 21.25 12 21.25s9.25-4.15 9.25-9.25S17.1 2.75 12 2.75Z" fill="#000"/><path d="M15.75 16.75h-5C8.68 16.75 7 15.07 7 13v-2c0-2.07 1.68-3.75 3.75-3.75h5c.41 0 .75.34.75.75s-.34.75-.75.75h-5C9.51 8.75 8.5 9.76 8.5 11v2c0 1.24 1.01 2.25 2.25 2.25h5c.41 0 .75.34.75.75s-.34.75-.75.75Z" fill="#000"/><path d="M15.75 12.75h-8c-.41 0-.75-.34-.75-.75s.34-.75.75-.75h8c.41 0 .75.34.75.75s-.34.75-.75.75Z" fill="#000"/></svg>