<svg width="24" height="24" fill="none" xmlns="http://www.w3.org/2000/svg"><path d="M12 22.5c-.4 0-.8-.09-1.12-.27l-5.32-3.04c-.8-.46-1.27-1.49-1.09-2.4l1.71-8.57c.07-.33.26-.74.48-1l3.6-4.32c.89-1.07 2.57-1.07 3.46 0l3.6 4.32c.22.26.41.67.48 1l1.71 8.57c.18.91-.29 1.94-1.09 2.39l-5.32 3.04c-.3.19-.7.28-1.1.28Zm0-18.94c-.21 0-.41.11-.58.3l-3.6 4.32c-.05.06-.14.25-.16.33l-1.71 8.57c-.05.27.13.66.36.8l5.32 3.04c.18.1.57.1.74 0l5.32-3.04c.24-.14.42-.53.36-.8l-1.71-8.57c-.02-.08-.11-.27-.16-.33l-3.6-4.32c-.17-.19-.37-.3-.58-.3Z" fill="#000"/><path d="M12 21.76c-.54 0-1-.33-1.18-.83L6.47 8.75a.75.75 0 1 1 1.41-.51L12 19.77l4.11-11.5a.75.75 0 1 1 1.41.51l-4.34 12.16c-.18.5-.64.82-1.18.82Z" fill="#000"/></svg>