<svg width="24" height="24" fill="none" xmlns="http://www.w3.org/2000/svg"><path d="M17.28 9.892c-.16 0-.33-.03-.49-.1l-4.77-2.12-4.82 2.12c-.5.22-1.09.08-1.43-.36a1.16 1.16 0 0 1 .03-1.47l5-6.11c.61-.75 1.79-.75 2.41 0l5 6.11c.35.43.36 1.03.03 1.47-.25.29-.6.46-.96.46ZM12 6.162c.21 0 .43.04.63.13l3.58 1.59-4.17-5.09-4.23 5.08 3.56-1.58c.2-.09.41-.13.63-.13ZM12 22.75c-.46 0-.9-.21-1.2-.59l-5-6.11a1.187 1.187 0 0 1 1.4-1.84l4.78 2.12 4.82-2.12a1.187 1.187 0 0 1 1.4 1.84l-5 6.11c-.3.38-.74.59-1.2.59Zm-4.21-6.63 4.16 5.09 4.23-5.08-3.55 1.58c-.4.18-.86.18-1.26 0l-3.58-1.59Z" fill="#000"/><path d="M12 15.371a.73.73 0 0 1-.33-.08l-5.25-2.62a.77.77 0 0 1-.42-.67c0-.28.16-.54.42-.67l5.25-2.62c.21-.11.46-.11.67 0l5.25 2.62c.25.13.42.39.42.67s-.16.54-.42.67l-5.25 2.62c-.11.06-.22.08-.34.08Zm-3.57-3.37 3.57 1.78 3.57-1.78-3.57-1.78-3.57 1.78Z" fill="#000"/></svg>