<svg width="24" height="24" fill="none" xmlns="http://www.w3.org/2000/svg"><path d="M12.75 9.422H8.67c-2.25 0-4.08-1.83-4.08-4.08s1.83-4.08 4.08-4.08h4.08v8.16Zm-4.08-6.67c-1.42 0-2.58 1.16-2.58 2.58 0 1.42 1.16 2.58 2.58 2.58h2.58v-5.17H8.67v.01Z" fill="#000"/><path d="M12.75 16.082H8.67c-2.25 0-4.08-1.83-4.08-4.08s1.83-4.08 4.08-4.08h4.08v8.16Zm-4.08-6.66c-1.42 0-2.58 1.16-2.58 2.58 0 1.42 1.16 2.58 2.58 2.58h2.58v-5.17H8.67v.01Z" fill="#000"/><path d="M8.67 22.75c-2.25 0-4.08-1.83-4.08-4.08s1.83-4.08 4.08-4.08h4.08v4.08c0 2.25-1.83 4.08-4.08 4.08Zm0-6.67c-1.42 0-2.58 1.16-2.58 2.58 0 1.42 1.16 2.58 2.58 2.58 1.42 0 2.58-1.16 2.58-2.58v-2.58H8.67ZM15.33 9.42h-4.08V1.25h4.08c2.25 0 4.08 1.83 4.08 4.08.01 2.25-1.83 4.09-4.08 4.09Zm-2.58-1.5h2.58c1.42 0 2.58-1.16 2.58-2.58 0-1.42-1.16-2.58-2.58-2.58h-2.58v5.16Z" fill="#000"/><path d="M15.33 16.082c-2.25 0-4.08-1.83-4.08-4.08s1.83-4.08 4.08-4.08 4.08 1.83 4.08 4.08-1.83 4.08-4.08 4.08Zm0-6.66c-1.42 0-2.58 1.16-2.58 2.58 0 1.42 1.16 2.58 2.58 2.58a2.58 2.58 0 1 0 0-5.16Z" fill="#000"/></svg>