<svg width="24" height="24" fill="none" xmlns="http://www.w3.org/2000/svg"><path d="M21 7.75H9c-.96 0-1.75-.79-1.75-1.75V3c0-.96.79-1.75 1.75-1.75h12c.96 0 1.75.79 1.75 1.75v3c0 .96-.79 1.75-1.75 1.75Zm-12-5c-.14 0-.25.11-.25.25v3c0 .14.11.25.25.25h12c.14 0 .25-.11.25-.25V3c0-.14-.11-.25-.25-.25H9ZM12 22.75H7c-.41 0-.75-.34-.75-.75v-5c0-.41.34-.75.75-.75h5c.41 0 .75.34.75.75v5c0 .41-.34.75-.75.75Zm-4.25-1.5h3.5v-3.5h-3.5v3.5ZM7 15.25H2c-.41 0-.75-.34-.75-.75v-5c0-.41.34-.75.75-.75h5c.41 0 .75.34.75.75v5c0 .41-.34.75-.75.75Zm-4.25-1.5h3.5v-3.5h-3.5v3.5ZM18 15.11H9.5c-.41 0-.75-.34-.75-.75V9.64c0-.41.34-.75.75-.75H18c.41 0 .75.34.75.75v4.72c0 .42-.34.75-.75.75Zm-7.75-1.5h7v-3.22h-7v3.22Z" fill="#000"/></svg>