<svg width="24" height="24" fill="none" xmlns="http://www.w3.org/2000/svg"><path d="M16.89 15.959c-.19 0-.39-.08-.53-.22l-3.19-3.19a.754.754 0 0 1 0-1.06l3.22-3.22a.76.76 0 0 1 .87-.14l4.49 2.25c.62.3 1.01.92 1.01 1.62 0 .7-.39 1.32-1.01 1.62l-4.51 2.26a.93.93 0 0 1-.35.08Zm-2.13-3.94 2.27 2.27 4.03-2.02h.01c.15-.07.17-.2.17-.27s-.02-.2-.17-.27l-4.01-2.01-2.3 2.3Z" fill="#000"/><path d="M3.07 22.749c-.33 0-.67-.09-.96-.28-.54-.33-.86-.91-.86-1.55V3.06c0-.63.32-1.21.86-1.55.54-.33 1.2-.37 1.77-.08l13.37 6.69c.22.11.37.31.4.55.03.24-.04.48-.21.65l-12.8 12.8c-.06.06-.12.1-.2.14l-.58.29c-.24.14-.52.2-.79.2Zm0-20a.38.38 0 0 0-.17.05.3.3 0 0 0-.15.27v17.86c0 .16.09.24.15.27.06.04.17.08.32.01l.46-.23L15.65 9.01 3.21 2.79a.273.273 0 0 0-.14-.04Z" fill="#000"/><path d="M4.12 22.35c-.23 0-.46-.11-.61-.31-.22-.3-.18-.71.08-.97l9.58-9.58a.75.75 0 0 1 1.06 0l3.19 3.19c.17.17.25.41.21.65a.76.76 0 0 1-.4.55L4.47 22.27a.89.89 0 0 1-.35.08Zm9.58-9.27-5.77 5.77L15.62 15l-1.92-1.92Z" fill="#000"/><path d="M13.7 12.771c-.19 0-.38-.07-.53-.22l-9.61-9.61a.754.754 0 0 1 0-1.06c.29-.29.77-.29 1.06 0l9.61 9.61c.29.29.29.77 0 1.06-.14.15-.34.22-.53.22ZM16.9 15.98c-.18 0-.37-.07-.51-.22l-.03-.03a.746.746 0 0 1 .01-1.06c.3-.29.77-.29 1.06.01.29.29.3.79.01 1.08-.16.15-.35.22-.54.22Z" fill="#000"/></svg>