<svg width="24" height="24" fill="none" xmlns="http://www.w3.org/2000/svg"><path d="M13.25 12.72V5.74a4.49 4.49 0 0 1 4.49-4.49h.52a4.49 4.49 0 0 1 4.49 4.49c0 1.99-.98 3.8-2.63 4.83-1.75 1.1-3.78 1.79-6.03 2.05l-.84.1Zm4.49-9.97c-1.65 0-2.99 1.34-2.99 2.99v5.27c1.7-.29 3.23-.87 4.57-1.71 1.19-.75 1.93-2.11 1.93-3.56 0-1.65-1.34-2.99-2.99-2.99h-.52Z" fill="#000"/><path d="M18.26 22.75h-.52a4.49 4.49 0 0 1-4.49-4.49v-7.05l.66-.08c5.16-.6 7.47-3.56 7.49-3.59l1.35-1.77v12.48c0 2.49-2.01 4.5-4.49 4.5Zm-3.51-10.22v5.73c0 1.65 1.34 2.99 2.99 2.99h.52c1.65 0 2.99-1.34 2.99-2.99V9.78c-1.24.99-3.36 2.26-6.5 2.75ZM6.26 22.751h-.52a4.49 4.49 0 0 1-4.49-4.49c0-1.99.98-3.8 2.63-4.83 1.75-1.1 3.78-1.79 6.03-2.05l.84-.1v6.98a4.49 4.49 0 0 1-4.49 4.49Zm2.99-9.76c-1.7.29-3.23.87-4.57 1.71-1.19.75-1.93 2.11-1.93 3.56 0 1.65 1.34 2.99 2.99 2.99h.52c1.65 0 2.99-1.34 2.99-2.99v-5.27Z" fill="#000"/><path d="M1.25 18.22V5.74a4.49 4.49 0 0 1 4.49-4.49h.52a4.49 4.49 0 0 1 4.49 4.49v7.05l-.66.08c-5.16.6-7.47 3.56-7.49 3.59l-1.35 1.76ZM5.74 2.75c-1.65 0-2.99 1.34-2.99 2.99v8.48c1.24-.99 3.36-2.27 6.5-2.76V5.73c0-1.65-1.34-2.99-2.99-2.99h-.52v.01Z" fill="#000"/><path d="m10.07 12.85-.14-1.49c1.48-.14 2.78-.06 3.98-.22l.19 1.49c-1.23.15-2.52.07-4.03.22Z" fill="#000"/></svg>