<svg width="24" height="24" fill="none" xmlns="http://www.w3.org/2000/svg"><path d="M17.43 21.41H6.56L1.13 12l5.43-9.41h10.87L22.86 12l-5.43 9.41Zm-10-1.5h9.13L21.13 12l-4.57-7.91H7.43L2.87 12l4.56 7.91Z" fill="#000"/><path d="M11.31 21.41H6.6l-2.36-4.08 2.36-4.08h4.71l2.36 4.08-2.36 4.08Zm-3.85-1.5h2.98l1.49-2.58-1.49-2.58H7.46l-1.49 2.58 1.49 2.58Z" fill="#000"/><path d="M14.78 21.41H6.6l-4.09-7.08L6.6 7.25h8.18l4.09 7.08-4.09 7.08Zm-7.31-1.5h6.44l3.22-5.58-3.22-5.58H7.47l-3.22 5.58 3.22 5.58Z" fill="#000"/></svg>