<svg width="24" height="24" fill="none" xmlns="http://www.w3.org/2000/svg"><path d="M12 22.71c-.16 0-.32-.02-.48-.07L5.44 20.9c-.69-.2-1.18-.78-1.26-1.49L2.38 3.19a1.751 1.751 0 0 1 1.74-1.94h15.77c.5 0 .97.21 1.3.58.33.37.49.87.44 1.36l-1.8 16.22c-.08.71-.57 1.29-1.26 1.49l-6.08 1.74c-.17.05-.33.07-.49.07ZM4.12 2.75c-.1 0-.16.05-.19.08a.24.24 0 0 0-.06.19l1.8 16.22c.01.1.08.19.18.21l6.08 1.74c.04.01.09.01.14 0l6.08-1.74c.1-.03.17-.11.18-.21l1.8-16.22c.01-.1-.04-.16-.06-.19a.26.26 0 0 0-.19-.08H4.12Z" fill="#000"/><path d="M11.75 18c-.07 0-.14-.01-.21-.03l-3.5-1a.75.75 0 0 1-.54-.72v-2c0-.41.34-.75.75-.75s.75.34.75.75v1.43l2.75.79 2.8-.8.37-3.67H8.25c-.38 0-.7-.29-.75-.67L7 6.83c-.02-.21.04-.42.19-.58A.75.75 0 0 1 7.75 6h8.5c.41 0 .75.34.75.75s-.34.75-.75.75H8.59l.33 3h6.83c.21 0 .41.09.56.25.14.16.21.37.19.58l-.5 5c-.03.31-.24.56-.54.65l-3.5 1c-.07.01-.14.02-.21.02Z" fill="#000"/></svg>