<svg width="24" height="24" fill="none" xmlns="http://www.w3.org/2000/svg"><path d="M12 22.71c-.16 0-.32-.02-.48-.07L5.44 20.9c-.69-.2-1.18-.78-1.26-1.49L2.38 3.19a1.751 1.751 0 0 1 1.74-1.94h15.77c.5 0 .97.21 1.3.58.33.37.49.87.44 1.36l-1.8 16.22c-.08.71-.57 1.29-1.26 1.49l-6.08 1.74c-.17.05-.33.07-.49.07ZM4.12 2.75c-.1 0-.16.05-.19.08a.24.24 0 0 0-.06.19l1.8 16.22c.01.1.08.19.18.21l6.08 1.74c.04.01.09.01.14 0l6.08-1.74c.1-.03.17-.11.18-.21l1.8-16.22c.01-.1-.03-.16-.06-.19a.26.26 0 0 0-.19-.08H4.12Z" fill="#000"/><path d="M12 17.75c-.07 0-.14-.01-.21-.03l-3.5-1a.73.73 0 0 1-.52-.54l-.5-2c-.1-.4.14-.81.55-.91.4-.1.81.14.91.55l.4 1.58 2.88.82 2.81-.8.85-7.67-8.16-.02c-.41 0-.75-.34-.75-.75s.34-.75.75-.75l9 .02c.21 0 .42.09.56.25.14.16.21.37.19.58l-1 9c-.03.3-.25.55-.54.64l-3.5 1c-.08.02-.15.03-.22.03Z" fill="#000"/><path d="M16.06 11.75H8c-.41 0-.75-.34-.75-.75s.34-.75.75-.75h8.06c.41 0 .75.34.75.75s-.34.75-.75.75Z" fill="#000"/></svg>