<svg width="24" height="24" fill="none" xmlns="http://www.w3.org/2000/svg"><path d="M14.76 22.721c-.17 0-.33-.04-.46-.12-.45-.29-2.69-1.84-3.1-4.2-.22-1.31.15-2.61 1.11-3.85 2.79-3.61 3.1-4.66 3.11-4.7.04-.28.23-.48.5-.57.27-.09.55 0 .76.2 2.28 2.21 3.32 4.49 3.08 6.78-.38 3.59-3.86 5.94-4.55 6.37-.12.05-.29.09-.45.09Zm1.62-11.41c-.46.81-1.3 2.11-2.88 4.14-.71.91-.97 1.79-.82 2.68.24 1.39 1.46 2.48 2.09 2.95.99-.69 3.23-2.51 3.49-5.02.17-1.54-.46-3.13-1.88-4.75Z" fill="#000"/><path d="M10.28 22.73c-.26 0-.52-.07-.71-.12-2.21-.63-4.21-2.65-4.99-5.02-.8-2.43-.31-4.97 1.39-7.16 3.1-4.06 4.13-7.33 4.37-8.23.11-.43.43-.76.87-.89.45-.12.94.01 1.28.35.03.02.05.05.07.08.94 1.26 1.95 3.51 1.95 6.05 0 1.74-1.22 3.32-2.4 4.84-1.25 1.62-2.54 3.29-2.4 5.1.13 1.34.71 2.36 1.1 3.04.33.57.64 1.11.25 1.62-.21.26-.49.34-.78.34Zm-.53-.76h.01-.01Zm1.9-18.91c-.46 1.51-1.66 4.57-4.49 8.29-1.77 2.29-1.6 4.41-1.15 5.78.53 1.61 1.73 3.01 3.13 3.71-.38-.74-.8-1.74-.92-2.98-.18-2.4 1.35-4.39 2.71-6.15 1.07-1.39 2.08-2.7 2.08-3.93 0-1.9-.68-3.64-1.36-4.72Zm.14-.49s0 .01 0 0c0 .01 0 0 0 0Z" fill="#000"/></svg>