<svg width="24" height="24" fill="none" xmlns="http://www.w3.org/2000/svg"><path d="M12.82 16.72a.75.75 0 0 1-.71-.51l-2.03-6.1-2.74 6.17c-.17.38-.61.55-.99.38-.38-.17-.55-.61-.38-.99L9.5 7.74c.13-.28.4-.47.72-.44.31.01.58.22.68.51l2.64 7.93c.13.39-.08.82-.47.95-.09.01-.17.03-.25.03Z" fill="#000"/><path d="M11.94 12.57H7.53v1.5h4.41v-1.5ZM16.35 16.72c-.41 0-.75-.34-.75-.75v-5.29c0-.41.34-.75.75-.75s.75.34.75.75v5.29c0 .41-.34.75-.75.75ZM16.35 9.031a1.015 1.015 0 0 1-.93-.61c-.05-.13-.07-.25-.07-.39 0-.13.02-.26.07-.38.06-.12.13-.23.22-.32.09-.1.2-.17.32-.22.37-.15.82-.06 1.09.22a.995.995 0 0 1 .3.7c0 .14-.03.27-.08.39s-.12.23-.22.32c-.09.09-.2.17-.32.22-.12.05-.25.07-.38.07Z" fill="#000"/><path d="M15 22.75H9c-5.43 0-7.75-2.32-7.75-7.75V9c0-5.43 2.32-7.75 7.75-7.75h6c5.43 0 7.75 2.32 7.75 7.75v6c0 5.43-2.32 7.75-7.75 7.75Zm-6-20C4.39 2.75 2.75 4.39 2.75 9v6c0 4.61 1.64 6.25 6.25 6.25h6c4.61 0 6.25-1.64 6.25-6.25V9c0-4.61-1.64-6.25-6.25-6.25H9Z" fill="#000"/></svg>