<svg width="24" height="24" fill="none" xmlns="http://www.w3.org/2000/svg"><path d="M12 22.43c-.48 0-.96-.13-1.39-.38l-6.5-3.82c-.84-.49-1.36-1.4-1.36-2.37V8.15c0-.97.52-1.88 1.36-2.37l6.5-3.82c.86-.51 1.93-.51 2.79 0l6.5 3.82c.84.49 1.36 1.4 1.36 2.37v7.71c0 .97-.52 1.88-1.36 2.37l-6.5 3.82c-.44.25-.92.38-1.4.38Zm-.63-19.19-6.5 3.82c-.38.22-.62.64-.62 1.08v7.71c0 .44.24.85.62 1.08l6.5 3.82c.39.23.88.23 1.27 0l6.5-3.82c.38-.22.62-.64.62-1.08V8.14c0-.44-.24-.85-.62-1.08l-6.5-3.82c-.4-.23-.88-.23-1.27 0Z" fill="#000"/><path d="M12 18.751c-.13 0-.27-.04-.39-.11l-5-3a.749.749 0 0 1-.26-1.03c.21-.36.67-.47 1.03-.26l4.61 2.77 3.54-2.13-8.93-5.36a.751.751 0 0 1 0-1.28l5-3c.24-.14.54-.14.77 0l5 3c.36.21.47.67.26 1.03-.21.35-.67.47-1.03.26l-4.61-2.77-3.54 2.13 8.93 5.36a.751.751 0 0 1 0 1.28l-5 3a.73.73 0 0 1-.38.11Z" fill="#000"/><path d="M9.5 12.751c-.19 0-.38-.07-.53-.22a.754.754 0 0 1 0-1.06l2-2c.29-.29.77-.29 1.06 0 .29.29.29.77 0 1.06l-2 2c-.15.15-.34.22-.53.22ZM12.5 14.751c-.19 0-.38-.07-.53-.22a.754.754 0 0 1 0-1.06l2-2c.29-.29.77-.29 1.06 0 .29.29.29.77 0 1.06l-2 2c-.15.15-.34.22-.53.22Z" fill="#000"/></svg>