<svg width="24" height="24" fill="none" xmlns="http://www.w3.org/2000/svg"><path d="M12 22.71c-.16 0-.32-.02-.48-.07L5.44 20.9c-.69-.2-1.18-.78-1.26-1.49L2.38 3.19a1.751 1.751 0 0 1 1.74-1.94h15.77c.5 0 .97.21 1.3.58.33.37.49.87.44 1.36l-1.8 16.22c-.08.71-.57 1.29-1.26 1.49l-6.08 1.74c-.17.05-.33.07-.49.07ZM4.12 2.75c-.1 0-.16.05-.19.08a.24.24 0 0 0-.06.19l1.8 16.22c.01.1.08.19.18.21l6.08 1.74c.05.01.09.01.14 0l6.08-1.74c.1-.03.17-.11.18-.21l1.8-16.22c.01-.1-.04-.16-.06-.19a.26.26 0 0 0-.19-.08H4.12Z" fill="#000"/><path d="M10.62 16.742c-.07 0-.14-.01-.21-.03l-3.12-.9a.746.746 0 0 1-.51-.93c.11-.4.53-.62.93-.51l2.16.62v-7.98c0-.41.34-.75.75-.75s.75.34.75.75v8.97c0 .24-.11.46-.3.6-.13.1-.29.16-.45.16ZM12.9 16.75c-.34 0-.64-.23-.73-.57-.1-.4.14-.81.55-.91l3.03-.76v-1.7l-2.29.33a.736.736 0 0 1-.6-.18.765.765 0 0 1-.26-.57V7.44c0-.37.27-.69.64-.74l3.15-.45c.41-.06.79.23.85.64.06.41-.23.79-.64.85l-2.51.36v3.43l2.29-.33c.22-.03.43.03.6.18.16.14.26.35.26.57v3.15c0 .34-.23.64-.57.73l-3.6.9a.88.88 0 0 1-.17.02Z" fill="#000"/></svg>