<svg width="24" height="24" fill="none" xmlns="http://www.w3.org/2000/svg"><path d="M12 22.61c-.29 0-.58-.07-.85-.22l-1.48-.71a.75.75 0 1 1 .65-1.35l1.51.73c.11.06.21.06.28.02l8-4.44c.08-.04.13-.13.13-.22V7.6a.26.26 0 0 0-.13-.22l-8-4.44a.255.255 0 0 0-.24 0l-8 4.44c-.08.04-.13.13-.13.22v8.82c0 .09.05.17.13.22l2.51 1.39c.39.22.85.21 1.24-.02.39-.23.62-.63.62-1.08L8.25 9c0-.41.34-.75.75-.75s.75.34.75.75l-.01 7.93c0 .98-.51 1.87-1.36 2.37-.85.5-1.87.51-2.73.03l-2.51-1.39c-.56-.31-.9-.9-.9-1.53V7.59c0-.63.34-1.22.9-1.53l8-4.44c.53-.3 1.17-.3 1.7 0l8 4.44c.56.31.9.9.9 1.53v8.82c0 .63-.34 1.22-.9 1.53l-8 4.44c-.26.15-.55.23-.84.23Z" fill="#000"/><path d="M15.25 16.75H13.5a2.5 2.5 0 0 1-2.5-2.5c0-.41.34-.75.75-.75s.75.34.75.75c0 .55.45 1 1 1h1.75c.55 0 1-.45 1-1s-.45-1-1-1H13.5a2.5 2.5 0 0 1 0-5h1.75a2.5 2.5 0 0 1 2.5 2.5c0 .41-.34.75-.75.75s-.75-.34-.75-.75c0-.55-.45-1-1-1H13.5c-.55 0-1 .45-1 1s.45 1 1 1h1.75a2.5 2.5 0 0 1 0 5Z" fill="#000"/></svg>