<svg width="24" height="24" fill="none" xmlns="http://www.w3.org/2000/svg"><path d="M12 22.29c-.56 0-1.12-.17-1.6-.51l-5-3.57a2.749 2.749 0 0 1-1.15-2.24V7.16c0-.98.53-1.9 1.39-2.39l5-2.86c.84-.48 1.89-.48 2.73 0l5 2.86c.85.49 1.39 1.4 1.39 2.39v8.81c0 .89-.43 1.72-1.15 2.24l-5 3.57c-.49.34-1.05.51-1.61.51Zm-.62-19.07-5 2.86c-.39.22-.63.64-.63 1.08v8.81c0 .4.2.78.52 1.02l5 3.57c.44.31 1.02.31 1.45 0l5-3.57c.33-.23.52-.61.52-1.02V7.16c0-.45-.24-.86-.63-1.08l-5-2.86c-.37-.22-.85-.22-1.23 0Z" fill="#000"/><path d="M11.85 21.982c-.35 0-.66-.25-.73-.6l-1.85-9.23a.808.808 0 0 1 0-.31l2-9c.09-.4.48-.66.9-.57.4.09.66.49.57.89l-1.97 8.85 1.82 9.08c.08.41-.18.8-.59.88-.06.01-.11.01-.15.01Z" fill="#000"/><path d="M18.16 17.662c-.13 0-.26-.03-.39-.11l-8.16-4.91a.741.741 0 0 1-.36-.66c0-.27.15-.51.39-.64l8.54-4.74c.36-.2.82-.07 1.02.29.2.36.07.82-.29 1.02l-7.41 4.11 7.05 4.24c.35.21.47.67.26 1.03-.15.24-.39.37-.65.37Z" fill="#000"/></svg>