<svg width="24" height="24" fill="none" xmlns="http://www.w3.org/2000/svg"><path d="M12 22.748c-4.7 0-8.82-3.01-10.24-7.48a.764.764 0 0 1 .11-.67c.14-.19.36-.31.6-.31l3.79-.03v-5.26c0-.32.2-.6.49-.71.3-.11.63-.02.83.23l4.42 5.31 4.42-5.31c.2-.24.54-.33.83-.23.3.11.49.39.49.71v5.25h3.79c.24 0 .46.11.6.31.14.19.18.44.11.67-1.4 4.5-5.53 7.52-10.24 7.52Zm-8.45-6.97a9.222 9.222 0 0 0 8.45 5.47 9.21 9.21 0 0 0 8.46-5.5H17c-.41 0-.75-.34-.75-.75v-3.93l-3.67 4.41c-.29.34-.87.34-1.15 0l-3.67-4.41v3.93c0 .41-.33.75-.74.75l-3.47.03Z" fill="#000"/><path d="M2.47 15.79a.75.75 0 0 1-.72-.53c-.33-1.07-.5-2.17-.5-3.26C1.25 6.07 6.07 1.25 12 1.25S22.75 6.07 22.75 12c0 1.1-.17 2.19-.49 3.23-.1.31-.39.52-.72.52H17c-.41 0-.75-.34-.75-.75v-3.93l-3.67 4.41c-.29.34-.87.34-1.15 0l-3.67-4.41V15c0 .41-.33.75-.74.75l-4.55.04ZM12 2.75C6.9 2.75 2.75 6.9 2.75 12c0 .76.1 1.53.29 2.29l3.21-.03V9c0-.32.2-.6.49-.71.3-.11.63-.02.83.23L12 13.83l4.42-5.31c.2-.24.54-.33.83-.23.3.11.49.39.49.71v5.25h3.22c.18-.73.28-1.49.28-2.25.01-5.1-4.14-9.25-9.24-9.25Z" fill="#000"/></svg>