<svg width="24" height="24" fill="none" xmlns="http://www.w3.org/2000/svg"><path d="M9.5 14c-.17 0-.35-.06-.49-.18a.746.746 0 0 1-.23-.79l2.5-8c.09-.3.36-.51.67-.52.32-.02.6.16.73.44l2.5 5.5c.17.37.01.8-.35.98l-5 2.5c-.1.04-.22.07-.33.07Zm2.63-6.65-1.39 4.44 2.78-1.39-1.39-3.05Z" fill="#000"/><path d="M13.5 15.5c-.08 0-.16-.01-.24-.04l-7.5-2.5a.753.753 0 0 1-.51-.66c-.02-.3.14-.59.41-.72l4-2c.37-.18.82-.03 1.01.34.19.37.04.82-.34 1.01l-2.38 1.19 5.47 1.82 2.72-1.51-2.29-.76a.754.754 0 0 1-.48-.95c.13-.39.55-.61.95-.48l3.92 1.29a.753.753 0 0 1 .13 1.37l-4.5 2.5a.71.71 0 0 1-.37.1Z" fill="#000"/><path d="M12 19c-.28 0-.53-.15-.66-.4l-2.5-4.68c-.2-.37-.06-.82.31-1.02.37-.2.82-.06 1.02.31l1.68 3.14.45-1.35c.13-.39.56-.6.95-.47.39.13.6.56.47.95l-1 3c-.09.28-.35.48-.65.51-.03.01-.05.01-.07.01Z" fill="#000"/><path d="M12 22.75C6.07 22.75 1.25 17.93 1.25 12S6.07 1.25 12 1.25 22.75 6.07 22.75 12 17.93 22.75 12 22.75Zm0-20C6.9 2.75 2.75 6.9 2.75 12S6.9 21.25 12 21.25s9.25-4.15 9.25-9.25S17.1 2.75 12 2.75Z" fill="#000"/></svg>