<svg width="24" height="24" fill="none" xmlns="http://www.w3.org/2000/svg"><path d="m12.03 22.85-.37-.18C11.56 22.62 1.24 17.32 1.24 5v-.42l.36-.22c.1-.06 10.51-6.16 20.77 0l.36.22V5c0 .47-.12 11.5-10.36 17.64l-.34.21ZM2.75 5.44c.21 9.84 7.52 14.69 9.23 15.69 8.08-5.08 9.12-13.71 9.25-15.71C12.92.7 4.59 4.49 2.75 5.44Z" fill="#000"/><path d="M7.1 13.21c-.34 0-.68-.04-1.03-.12-2.08-.49-3.65-2.44-4.69-5.8-.12-.4.1-.82.5-.94s.82.1.94.5c.87 2.81 2.08 4.42 3.6 4.78 1.81.42 3.87-1.05 4.78-1.9-.82-6.29 4.66-7.52 4.72-7.53l.6-.12c.4-.08.8.19.88.59.08.4-.19.8-.59.88l-.59.11c-.16.04-4.34 1.01-3.48 6.2.04.23-.03.47-.2.64-.11.14-2.59 2.71-5.44 2.71Z" fill="#000"/><path d="M16.35 19.258c-.11 0-.22-.02-.32-.07a.75.75 0 0 1-.35-1c.01-.02.86-1.86.11-3.83-.58-1.52-1.95-2.75-4.08-3.67a.737.737 0 0 1-.39-.98c.17-.38.6-.56.99-.39 2.53 1.08 4.17 2.61 4.9 4.54.97 2.58-.12 4.89-.17 4.99-.14.25-.41.41-.69.41Z" fill="#000"/></svg>