<svg width="24" height="24" fill="none" xmlns="http://www.w3.org/2000/svg"><path d="M17 21.75c-.13 0-.27-.04-.39-.11l-10-6a.742.742 0 0 1-.36-.64V9a.752.752 0 0 1 1.14-.64l8.86 5.32V9.43l-4.64-2.78a.751.751 0 0 1 0-1.28l5-3c.24-.14.53-.14.77 0l5 3c.23.14.36.38.36.64v12c0 .26-.14.51-.36.64l-5 3c-.11.06-.25.1-.38.1Zm-9.25-7.17L17 20.13l4.25-2.55V6.43L17 3.88l-3.54 2.13 3.93 2.36c.23.14.36.38.36.64v6c0 .27-.15.52-.38.65s-.52.13-.76-.01l-8.86-5.32v4.25Z" fill="#000"/><path d="M7 21.749c-.13 0-.27-.04-.39-.11l-5-3a.742.742 0 0 1-.36-.64v-12c0-.26.14-.51.36-.64l5-3c.24-.14.53-.14.77 0l5 3c.36.21.47.67.26 1.03-.21.36-.67.47-1.03.26L7 3.879l-4.25 2.55v11.15l4.23 2.54 4.31-2.87c.34-.23.81-.14 1.04.21.23.35.14.81-.21 1.04l-4.7 3.13c-.13.08-.27.12-.42.12Z" fill="#000"/></svg>