<svg width="24" height="24" fill="none" xmlns="http://www.w3.org/2000/svg"><path d="M12 4.75c-.1 0-.2-.01-.29-.03-.1-.02-.19-.05-.28-.08-.09-.04-.18-.09-.26-.14a1.498 1.498 0 0 1 0-2.5c.08-.05.17-.1.26-.13.09-.04.18-.07.28-.09A1.499 1.499 0 1 1 12 4.75ZM12 9.25c-.1 0-.2-.01-.29-.03-.1-.02-.19-.05-.28-.08-.09-.04-.18-.09-.26-.14-.08-.06-.16-.12-.23-.19a1.499 1.499 0 0 1 .23-2.31c.08-.05.17-.1.26-.13a1.417 1.417 0 0 1 1.14 0c.09.03.18.08.26.13a1.499 1.499 0 0 1 .23 2.31c-.07.07-.15.13-.23.19-.08.05-.17.1-.26.14-.09.03-.18.06-.28.08-.09.02-.19.03-.29.03ZM12 13.25c-.1 0-.2-.01-.29-.03-.1-.02-.19-.05-.28-.08-.09-.04-.18-.09-.26-.14-.08-.06-.16-.12-.23-.19a1.454 1.454 0 0 1-.41-.77 1.499 1.499 0 0 1 .41-1.35c.07-.07.15-.13.23-.19.08-.05.17-.1.26-.14.09-.03.18-.06.28-.08a1.499 1.499 0 0 1 1.76 1.76c-.02.1-.05.19-.09.28a1.264 1.264 0 0 1-.32.49c-.07.07-.15.13-.23.19-.08.05-.17.1-.26.14-.09.03-.18.06-.28.08-.09.02-.19.03-.29.03ZM12 16.751c-.26 0-.52-.11-.71-.29-.18-.19-.29-.45-.29-.71 0-.26.11-.52.29-.71.23-.23.58-.33.9-.27.07.01.13.03.19.06.06.02.12.05.17.09.06.04.11.08.16.12.18.19.29.45.29.71 0 .26-.11.52-.29.71-.05.04-.1.08-.16.12-.05.04-.11.07-.17.09-.06.03-.12.05-.19.06-.06.01-.13.02-.19.02ZM12 20a.776.776 0 0 1-.53-.22.633.633 0 0 1-.16-.24.75.75 0 1 1 .69.46ZM12 22.07a.47.47 0 0 1-.35-.15.47.47 0 0 1-.15-.35.501.501 0 0 1 1 0c0 .13-.05.26-.15.35a.47.47 0 0 1-.35.15ZM3.5 9.25a1.499 1.499 0 0 1-1.06-2.56c.55-.56 1.56-.56 2.12 0A1.499 1.499 0 0 1 4.33 9c-.08.05-.17.1-.26.13a1.357 1.357 0 0 1-.57.12ZM20.5 9.25c-.39 0-.78-.16-1.06-.44S19 8.14 19 7.75c0-.1.01-.2.03-.29.02-.1.05-.19.08-.28.04-.09.09-.18.14-.26.06-.08.12-.16.19-.23s.15-.13.23-.19c.08-.05.17-.1.26-.13a1.417 1.417 0 0 1 1.14 0c.09.03.18.08.26.13.08.06.16.12.23.19s.13.15.19.23c.05.08.1.17.13.26a1.357 1.357 0 0 1 .12.57A1.499 1.499 0 0 1 21.33 9c-.08.05-.17.1-.26.14-.09.03-.18.06-.28.08-.1.02-.19.03-.29.03ZM20.5 12.749c-.06 0-.13-.01-.19-.02a.603.603 0 0 1-.19-.06.757.757 0 0 1-.18-.09c-.05-.03-.1-.08-.15-.12-.04-.05-.09-.1-.12-.15a.757.757 0 0 1-.09-.18.636.636 0 0 1-.06-.18c-.01-.07-.02-.13-.02-.2 0-.26.11-.52.29-.71l.15-.12c.06-.04.12-.07.18-.09.06-.03.12-.05.19-.06.12-.03.25-.03.38 0 .07.01.13.03.19.06.06.02.12.05.17.09.06.04.11.08.16.12.18.19.29.45.29.71 0 .07-.01.13-.02.2-.01.06-.03.12-.06.18-.02.06-.05.12-.09.18l-.12.15c-.05.04-.1.09-.16.12-.05.04-.11.07-.17.09-.06.03-.12.05-.19.06-.06.01-.13.02-.19.02ZM3.5 12.749c-.26 0-.52-.11-.71-.29-.18-.19-.29-.45-.29-.71 0-.26.11-.52.29-.71.28-.28.72-.37 1.09-.21.13.05.23.12.33.21.18.19.29.45.29.71 0 .26-.11.52-.29.71-.19.18-.45.29-.71.29ZM20.5 15.498a.75.75 0 1 1 0-1.498.75.75 0 0 1 0 1.498ZM3.5 15.502a.75.75 0 0 1-.69-1.04c.03-.09.09-.17.16-.24.27-.28.78-.28 1.06 0a.776.776 0 0 1 .22.53.776.776 0 0 1-.22.53.75.75 0 0 1-.53.22ZM20.5 18c-.07 0-.13-.01-.19-.04a.355.355 0 0 1-.16-.11.47.47 0 0 1-.15-.35.501.501 0 0 1 1 0c0 .13-.05.26-.15.35a.47.47 0 0 1-.35.15ZM3.5 18c-.13 0-.26-.05-.35-.15A.47.47 0 0 1 3 17.5a.501.501 0 0 1 1 0c0 .13-.05.26-.15.35-.09.1-.22.15-.35.15ZM7.75 7a1.357 1.357 0 0 1-.57-.12c-.1-.03-.18-.08-.26-.13a1.516 1.516 0 0 1-.67-1.25c0-.39.16-.78.44-1.06.56-.56 1.56-.56 2.12 0a1.499 1.499 0 0 1-.23 2.31c-.08.05-.17.1-.26.13a1.357 1.357 0 0 1-.57.12ZM16.25 7a1.358 1.358 0 0 1-.57-.12c-.09-.03-.18-.08-.26-.13a2.11 2.11 0 0 1-.23-.19c-.07-.07-.13-.15-.19-.23-.05-.08-.1-.17-.14-.26-.03-.09-.06-.18-.08-.28-.02-.09-.03-.19-.03-.29a1.516 1.516 0 0 1 .67-1.25c.08-.05.17-.1.26-.13a1.417 1.417 0 0 1 1.14 0c.09.03.18.08.26.13a1.516 1.516 0 0 1 .67 1.25c0 .1-.01.2-.03.29-.02.1-.05.19-.08.28-.04.09-.09.18-.14.26-.06.08-.12.16-.19.23s-.15.13-.23.19c-.08.05-.17.1-.26.13a1.358 1.358 0 0 1-.57.12ZM7.75 11.25c-.1 0-.2-.01-.29-.03-.1-.02-.19-.05-.28-.08a1.454 1.454 0 0 1-.49-.33 1.499 1.499 0 0 1 0-2.12c.56-.56 1.56-.56 2.12 0a1.499 1.499 0 0 1-1.06 2.56ZM16.25 11.25a1.358 1.358 0 0 1-.57-.12c-.09-.03-.18-.08-.26-.13-.08-.06-.16-.12-.23-.19s-.13-.15-.19-.23c-.05-.08-.1-.17-.14-.26-.03-.09-.06-.18-.08-.28-.02-.09-.03-.19-.03-.29 0-.39.16-.78.44-1.06.07-.07.15-.13.23-.19.08-.05.17-.1.26-.13a1.417 1.417 0 0 1 1.14 0c.09.03.18.08.26.13a1.516 1.516 0 0 1 .67 1.25c0 .1-.01.2-.03.29-.02.1-.05.19-.08.28-.04.09-.09.18-.14.26-.06.08-.12.16-.19.23s-.15.13-.23.19c-.08.05-.17.1-.26.13a1.358 1.358 0 0 1-.57.12ZM7.75 14.75c-.13 0-.26-.03-.38-.08a.933.933 0 0 1-.33-.21c-.09-.1-.16-.21-.21-.33a.995.995 0 0 1-.08-.38c0-.26.11-.52.29-.71.37-.37 1.05-.37 1.42 0 .18.19.29.45.29.71 0 .13-.03.26-.08.38s-.12.23-.21.33c-.19.18-.45.29-.71.29ZM16.25 14.75c-.26 0-.52-.11-.71-.29-.18-.19-.29-.45-.29-.71 0-.26.11-.52.29-.71.37-.37 1.04-.37 1.42 0 .18.19.29.45.29.71 0 .07-.01.13-.02.2-.01.06-.03.12-.06.18-.02.06-.05.12-.09.17-.04.06-.08.11-.12.16-.19.18-.45.29-.71.29ZM7.75 17.75a.75.75 0 1 1 0-1.499.75.75 0 0 1 0 1.499ZM16.25 17.75a.776.776 0 0 1-.53-.22.633.633 0 0 1-.16-.24.717.717 0 0 1 0-.58c.04-.09.09-.17.16-.24.07-.07.15-.12.24-.16a.73.73 0 0 1 .58 0c.09.04.17.09.24.16A.776.776 0 0 1 17 17a.776.776 0 0 1-.22.53.75.75 0 0 1-.53.22ZM7.75 20c-.13 0-.26-.05-.35-.15a.47.47 0 0 1-.15-.35.501.501 0 0 1 1 0c0 .13-.05.26-.15.35-.09.1-.22.15-.35.15ZM16.25 20c-.07 0-.13-.01-.19-.04a.355.355 0 0 1-.16-.11.355.355 0 0 1-.11-.16.406.406 0 0 1-.04-.19.501.501 0 0 1 1 0c0 .07-.01.13-.04.19-.02.06-.06.12-.11.16a.47.47 0 0 1-.35.15Z" fill="#000"/></svg>