<svg width="24" height="24" fill="none" xmlns="http://www.w3.org/2000/svg"><path d="M17 17.75c-3.17 0-5.75-2.58-5.75-5.75S13.83 6.25 17 6.25s5.75 2.58 5.75 5.75-2.58 5.75-5.75 5.75Zm0-10A4.26 4.26 0 0 0 12.75 12 4.26 4.26 0 0 0 17 16.25 4.26 4.26 0 0 0 21.25 12 4.26 4.26 0 0 0 17 7.75Z" fill="#000"/><path d="M12 22.75c-3.17 0-5.75-2.58-5.75-5.75s2.58-5.75 5.75-5.75 5.75 2.58 5.75 5.75-2.58 5.75-5.75 5.75Zm0-10A4.26 4.26 0 0 0 7.75 17 4.26 4.26 0 0 0 12 21.25 4.26 4.26 0 0 0 16.25 17 4.26 4.26 0 0 0 12 12.75Z" fill="#000"/><path d="M12 12.75c-3.17 0-5.75-2.58-5.75-5.75S8.83 1.25 12 1.25 17.75 3.83 17.75 7s-2.58 5.75-5.75 5.75Zm0-10A4.26 4.26 0 0 0 7.75 7 4.26 4.26 0 0 0 12 11.25 4.26 4.26 0 0 0 16.25 7 4.26 4.26 0 0 0 12 2.75Z" fill="#000"/><path d="M7 17.75c-3.17 0-5.75-2.58-5.75-5.75S3.83 6.25 7 6.25s5.75 2.58 5.75 5.75-2.58 5.75-5.75 5.75Zm0-10A4.26 4.26 0 0 0 2.75 12 4.26 4.26 0 0 0 7 16.25 4.26 4.26 0 0 0 11.25 12 4.26 4.26 0 0 0 7 7.75Z" fill="#000"/></svg>