<svg width="24" height="24" fill="none" xmlns="http://www.w3.org/2000/svg"><path d="M11.7 22.75h-.29c-5.48-.15-9.93-4.87-9.93-10.51V5.21c0-.51.3-.96.77-1.15.47-.19 1-.09 1.36.27l14.83 14.83a.754.754 0 0 1-.04 1.1 10.214 10.214 0 0 1-6.7 2.49ZM2.98 5.81v6.43c0 4.84 3.8 8.88 8.47 9.01 1.93.04 3.8-.52 5.33-1.63L2.98 5.81ZM21.27 19.901c-.32 0-.64-.13-.88-.37l-14.7-14.7a.754.754 0 0 1 .04-1.1c1.91-1.67 4.38-2.56 6.94-2.48 5.43.15 9.85 4.83 9.85 10.43v6.96c0 .51-.3.96-.77 1.15-.15.07-.31.11-.48.11ZM7.35 4.371l13.68 13.68v-6.36c0-4.79-3.77-8.8-8.4-8.93-1.91-.04-3.76.51-5.28 1.61Z" fill="#000"/></svg>