<svg width="24" height="24" fill="none" xmlns="http://www.w3.org/2000/svg"><path d="M15 22.75H9c-5.43 0-7.75-2.32-7.75-7.75V9c0-5.43 2.32-7.75 7.75-7.75h6c5.43 0 7.75 2.32 7.75 7.75v6c0 5.43-2.32 7.75-7.75 7.75Zm-6-20C4.39 2.75 2.75 4.39 2.75 9v6c0 4.61 1.64 6.25 6.25 6.25h6c4.61 0 6.25-1.64 6.25-6.25V9c0-4.61-1.64-6.25-6.25-6.25H9Z" fill="#000"/><path d="M7.5 16.75c-.41 0-.75-.34-.75-.75V8c0-.41.34-.75.75-.75h2c1.52 0 2.75 1.23 2.75 2.75s-1.23 2.75-2.75 2.75H8.25V16c0 .41-.34.75-.75.75Zm.75-5.5H9.5a1.25 1.25 0 0 0 0-2.5H8.25v2.5ZM15.25 16.75H14c-.41 0-.75-.34-.75-.75s.34-.75.75-.75h1.25c.28 0 .5-.22.5-.5s-.22-.5-.5-.5c-1.1 0-2-.9-2-2s.9-2 2-2h1.25c.41 0 .75.34.75.75s-.34.75-.75.75h-1.25c-.28 0-.5.22-.5.5s.22.5.5.5c1.1 0 2 .9 2 2s-.9 2-2 2Z" fill="#000"/></svg>