<svg width="24" height="24" fill="none" xmlns="http://www.w3.org/2000/svg"><path d="M8 21.75h-.05a.753.753 0 0 1-.7-.75c0-.57.07-1.1.22-1.59L9.26 6.89c.06-.41.44-.69.85-.64.41.06.7.44.64.85l-1.42 9.91c1.24-.75 2.59-.76 2.67-.76 3.72 0 6.75-3.03 6.75-6.75S15.72 2.75 12 2.75 5.25 5.78 5.25 9.5c0 1.1.27 2.19.78 3.15.19.37.05.82-.31 1.01-.37.19-.82.05-1.01-.31a8.307 8.307 0 0 1-.95-3.85c0-4.55 3.7-8.25 8.25-8.25s8.25 3.7 8.25 8.25-3.7 8.25-8.25 8.25c-.09 0-2.21.04-2.97 1.75-.03.08-.07.16-.09.24l-.19 1.36a.78.78 0 0 1-.76.65ZM14 21.999c-.26 0-.52-.11-.71-.29-.18-.19-.29-.45-.29-.71 0-.13.03-.26.08-.38.05-.13.12-.23.21-.33.28-.28.72-.37 1.09-.21.13.05.23.12.33.21.09.1.16.2.21.33.05.12.08.25.08.38 0 .26-.11.52-.29.71-.1.09-.2.16-.33.21-.12.05-.25.08-.38.08Z" fill="#000"/></svg>