<svg width="24" height="24" fill="none" xmlns="http://www.w3.org/2000/svg"><path d="M7.5 15.448c-.13 0-.26-.03-.38-.1l-4.5-2.6a.752.752 0 0 1-.38-.65v-5.2c0-.27.14-.52.38-.65l4.5-2.6a.77.77 0 0 1 .75 0l4.5 2.6c.23.13.38.38.38.65v1.57c0 .41-.34.75-.75.75s-.75-.34-.75-.75v-1.14L7.5 5.158l-3.75 2.17v4.33l3.75 2.17 4.12-2.38a.746.746 0 0 1 .75 1.29l-4.5 2.6c-.11.07-.24.11-.37.11Z" fill="#000"/><path d="M16.5 20.641c-.13 0-.26-.03-.38-.1l-4.5-2.6a.752.752 0 0 1-.38-.65v-1.65c0-.41.34-.75.75-.75s.75.34.75.75v1.22l3.75 2.17 3.75-2.17v-4.33l-3.75-2.17-4.12 2.38a.746.746 0 0 1-.75-1.29l4.5-2.6a.77.77 0 0 1 .75 0l4.5 2.6c.23.13.38.38.38.65v5.2c0 .27-.14.52-.38.65l-4.5 2.6c-.11.06-.24.09-.37.09Z" fill="#000"/></svg>