<svg width="24" height="24" fill="none" xmlns="http://www.w3.org/2000/svg"><path d="M12 22.75a.74.74 0 0 1-.36-.09l-9-5a.745.745 0 0 1-.39-.66V7c0-.27.15-.52.39-.66l9-5c.23-.13.5-.13.73 0l9 5c.24.13.39.38.39.66v5c0 .25-.12.48-.32.62l-3.01 2.09 2.95 1.64c.24.13.39.38.39.66v5c0 .27-.15.52-.39.66a.74.74 0 0 1-.76-.02l-3.64-2.28-4.62 2.31c-.13.04-.24.07-.36.07Zm-8.25-6.19 8.27 4.59 4.65-2.32c.23-.12.51-.1.73.03l2.85 1.78v-3.21l-3.61-2.01a.738.738 0 0 1-.38-.62c-.01-.26.11-.51.32-.65l3.68-2.55V7.43l-8.25-4.58-8.25 4.58v9.13h-.01Z" fill="#000"/><path d="M12 18.311a.74.74 0 0 1-.36-.09l-5-2.78a.745.745 0 0 1-.39-.66v-5.56c0-.27.15-.52.39-.66l5-2.78c.23-.13.5-.13.73 0l5 2.78c.24.13.39.38.39.66v5.56c0 .27-.15.52-.39.66l-5 2.78c-.12.05-.24.09-.37.09Zm-4.25-3.97 4.25 2.36 4.25-2.36v-4.67L12 7.301l-4.25 2.36v4.68Z" fill="#000"/><path d="M7 9.982c-.12 0-.25-.03-.36-.09l-4-2.23a.75.75 0 0 1 .73-1.31l4 2.23c.36.2.49.66.29 1.02-.15.24-.4.38-.66.38ZM3 17.75a.753.753 0 0 1-.37-1.41l4-2.23a.75.75 0 0 1 .73 1.31l-4 2.23c-.11.07-.24.1-.36.1ZM17 9.98a.753.753 0 0 1-.37-1.41l4-2.23a.75.75 0 0 1 .73 1.31l-4 2.23c-.11.07-.23.1-.36.1ZM12 6.75c-.41 0-.75-.34-.75-.75V2c0-.41.34-.75.75-.75s.75.34.75.75v4c0 .41-.34.75-.75.75ZM12 22.75c-.41 0-.75-.34-.75-.75v-4c0-.41.34-.75.75-.75s.75.34.75.75v4c0 .41-.34.75-.75.75ZM17.75 15h-1.5v5h1.5v-5Z" fill="#000"/></svg>