<svg width="24" height="24" fill="none" xmlns="http://www.w3.org/2000/svg"><path d="M8 11.75H5c-.41 0-.75-.34-.75-.75V9c0-2.62 2.13-4.75 4.75-4.75h2c.41 0 .75.34.75.75v3c0 .41-.34.75-.75.75H9c-.14 0-.25.11-.25.25v2c0 .41-.34.75-.75.75Zm-2.25-1.5h1.5V9c0-.96.79-1.75 1.75-1.75h1.25v-1.5H9C7.21 5.75 5.75 7.21 5.75 9v1.25ZM15 19.75h-2c-.41 0-.75-.34-.75-.75v-3c0-.41.34-.75.75-.75h2c.14 0 .25-.11.25-.25v-2c0-.41.34-.75.75-.75h3c.41 0 .75.34.75.75v2c0 2.62-2.13 4.75-4.75 4.75Zm-1.25-1.5H15c1.79 0 3.25-1.46 3.25-3.25v-1.25h-1.5V15c0 .96-.79 1.75-1.75 1.75h-1.25v1.5Z" fill="#000"/><path d="M15 22.75H9c-5.43 0-7.75-2.32-7.75-7.75V9c0-5.43 2.32-7.75 7.75-7.75h6c5.43 0 7.75 2.32 7.75 7.75v6c0 5.43-2.32 7.75-7.75 7.75Zm-6-20C4.39 2.75 2.75 4.39 2.75 9v6c0 4.61 1.64 6.25 6.25 6.25h6c4.61 0 6.25-1.64 6.25-6.25V9c0-4.61-1.64-6.25-6.25-6.25H9Z" fill="#000"/></svg>