<svg width="24" height="24" fill="none" xmlns="http://www.w3.org/2000/svg"><path d="M12 22.75C6.07 22.75 1.25 17.93 1.25 12c0-1.49.3-2.92.89-4.28a.76.76 0 0 1 .99-.39c.38.17.55.61.39.99-.5 1.16-.76 2.4-.76 3.68 0 5.1 4.15 9.25 9.25 9.25s9.25-4.15 9.25-9.25-4.15-9.25-9.25-9.25c-1.29 0-2.55.26-3.72.78a.75.75 0 0 1-.61-1.37c1.37-.6 2.82-.91 4.33-.91 5.93 0 10.75 4.82 10.75 10.75S17.93 22.75 12 22.75Z" fill="#000"/><path d="M16 17h-4.25c-2.76 0-5-2.24-5-5s2.24-5 5-5 5 2.24 5 5v4.25c0 .41-.34.75-.75.75Zm-4.25-8.5c-1.93 0-3.5 1.57-3.5 3.5s1.57 3.5 3.5 3.5h3.5V12c0-1.93-1.57-3.5-3.5-3.5ZM5 7.25C3.76 7.25 2.75 6.24 2.75 5S3.76 2.75 5 2.75 7.25 3.76 7.25 5 6.24 7.25 5 7.25Zm0-3c-.41 0-.75.34-.75.75s.34.75.75.75.75-.34.75-.75-.34-.75-.75-.75Z" fill="#000"/></svg>