<svg width="24" height="24" fill="none" xmlns="http://www.w3.org/2000/svg"><path d="M14.54 11.372c-1.44 0-2.61-1.17-2.61-2.61v-4.64c0-1.44 1.17-2.61 2.61-2.61s2.61 1.17 2.61 2.61v4.64c0 1.44-1.17 2.61-2.61 2.61Zm0-8.36c-.61 0-1.11.5-1.11 1.11v4.64c0 .61.5 1.11 1.11 1.11.61 0 1.11-.5 1.11-1.11v-4.64c0-.61-.5-1.11-1.11-1.11ZM20.18 11.37h-1.57c-.41 0-.75-.34-.75-.75V9.05c0-1.28 1.04-2.32 2.32-2.32 1.28 0 2.32 1.04 2.32 2.32 0 1.28-1.04 2.32-2.32 2.32Zm-.81-1.5h.82c.45 0 .82-.37.82-.82 0-.45-.37-.82-.82-.82-.45 0-.82.37-.82.82v.82ZM8.5 11.83H3.86c-1.44 0-2.61-1.17-2.61-2.61s1.17-2.61 2.61-2.61H8.5c1.44 0 2.61 1.17 2.61 2.61s-1.17 2.61-2.61 2.61ZM3.86 8.12c-.61 0-1.11.5-1.11 1.11 0 .61.5 1.11 1.11 1.11H8.5c.61 0 1.11-.5 1.11-1.11 0-.61-.5-1.11-1.11-1.11H3.86ZM10.36 5.878H8.79c-1.28 0-2.32-1.04-2.32-2.32 0-1.28 1.04-2.32 2.32-2.32 1.28 0 2.32 1.04 2.32 2.32v1.57c0 .42-.34.75-.75.75Zm-1.57-3.13c-.45 0-.82.37-.82.82 0 .45.37.82.82.82h.82v-.82c0-.45-.37-.82-.82-.82ZM9.43 22.52c-1.44 0-2.61-1.17-2.61-2.61v-4.64c0-1.44 1.17-2.61 2.61-2.61s2.61 1.17 2.61 2.61v4.64c0 1.44-1.17 2.61-2.61 2.61Zm0-8.36c-.61 0-1.11.5-1.11 1.11v4.64c0 .61.5 1.11 1.11 1.11.61 0 1.11-.5 1.11-1.11v-4.64c0-.62-.5-1.11-1.11-1.11ZM3.79 17.288c-1.28 0-2.32-1.04-2.32-2.32 0-1.28 1.04-2.32 2.32-2.32h1.57c.41 0 .75.34.75.75v1.57c0 1.28-1.04 2.32-2.32 2.32Zm0-3.13c-.45 0-.82.37-.82.82 0 .45.37.82.82.82.45 0 .82-.37.82-.82v-.82h-.82ZM20.11 17.411h-4.64c-1.44 0-2.61-1.17-2.61-2.61s1.17-2.61 2.61-2.61h4.64c1.44 0 2.61 1.17 2.61 2.61s-1.17 2.61-2.61 2.61Zm-4.64-3.72c-.61 0-1.11.5-1.11 1.11 0 .61.5 1.11 1.11 1.11h4.64c.61 0 1.11-.5 1.11-1.11 0-.61-.5-1.11-1.11-1.11h-4.64ZM15.18 22.73c-1.28 0-2.32-1.04-2.32-2.32v-1.57c0-.41.34-.75.75-.75h1.57c1.28 0 2.32 1.04 2.32 2.32 0 1.28-1.05 2.32-2.32 2.32Zm-.82-3.14v.82c0 .45.37.82.82.82.45 0 .82-.37.82-.82 0-.45-.37-.82-.82-.82h-.82Z" fill="#000"/></svg>