<svg width="24" height="24" fill="none" xmlns="http://www.w3.org/2000/svg"><path d="M12 18.18c-1.02 0-1.63-.38-2.03-.63-.19-.12-.33-.2-.47-.25-.33-.11-.64-.12-.91-.14-.31-.01-.62-.02-.89-.2a1 1 0 0 1-.41-.64c-.02-.01-.04-.01-.06-.02-.26-.07-.55-.15-.9-.34-.52-.29-.58-.68-.58-.89.01-.2.09-.58.59-.81 1.21-.58 1.63-1.39 1.76-1.74-.11-.07-.24-.15-.36-.23l-.31-.2c-.82-.57-.68-1.25-.58-1.51.16-.44.57-.71 1.08-.71.1 0 .19.01.28.03.02 0 .03.01.05.01 0-.31 0-.58.02-.82.1-1.07.48-1.64.85-2.06.32-.36 1.23-1.21 2.85-1.21 1.11 0 2.15.43 2.84 1.18.4.47.77 1.03.86 2.08.02.28.03.56.03.82h.02c.04-.02.17-.04.3-.04.51 0 .92.28 1.08.73.1.25.24.92-.58 1.5-.06.04-.17.12-.31.2-.13.08-.25.16-.35.23.14.36.57 1.16 1.77 1.75.48.26.58.59.58.83 0 .25-.1.6-.58.86-.35.19-.65.28-.9.35-.02 0-.04.01-.07.02-.05.21-.14.45-.39.62-.29.19-.59.2-.89.21a3.4 3.4 0 0 0-.94.14c-.12.04-.26.13-.43.23-.42.28-1.01.65-2.02.65Zm-3.31-2.51c.34.02.78.05 1.28.21.3.1.54.24.8.4.33.21.64.4 1.23.4.58 0 .89-.19 1.24-.41.25-.15.49-.29.78-.39.54-.17.99-.2 1.3-.21.06-.19.19-.39.43-.55.08-.05.15-.09.24-.13-1.42-1.08-1.62-2.35-1.63-2.42v-.04c-.03-.19-.06-.59.32-.96a.763.763 0 0 1-.26-.19c-.12-.12-.25-.34-.22-.69.02-.42.06-.98.02-1.48-.06-.67-.26-.95-.49-1.22-.22-.24-.76-.68-1.71-.68-1.03 0-1.58.53-1.72.69-.22.25-.42.54-.48 1.2-.03.37-.03.85.01 1.4.01.05.01.11.01.14.02.29-.11.51-.23.63a.83.83 0 0 1-.26.19c.39.37.35.78.32.97v.04c-.01.06-.21 1.33-1.62 2.41.08.04.17.08.25.14.21.16.33.37.39.55Zm8.62-.36-.35-.66s-.01 0-.01.01l.36.65-.36-.65.36.65Z" fill="#000"/><path d="M12 22.75C6.07 22.75 1.25 17.93 1.25 12S6.07 1.25 12 1.25 22.75 6.07 22.75 12 17.93 22.75 12 22.75Zm0-20C6.9 2.75 2.75 6.9 2.75 12S6.9 21.25 12 21.25s9.25-4.15 9.25-9.25S17.1 2.75 12 2.75Z" fill="#000"/></svg>