<svg width="24" height="24" fill="none" xmlns="http://www.w3.org/2000/svg"><path d="M4.04 14.94c-.33 0-.63-.22-.72-.55C3.11 13.61 3 12.81 3 12c0-4.96 4.04-9 9-9 1.69 0 3.33.47 4.75 1.36a.747.747 0 1 1-.79 1.27 7.503 7.503 0 0 0-11.19 8.36c.11.4-.13.81-.53.92-.06.02-.13.03-.2.03ZM12 20.999c-1.7 0-3.35-.48-4.78-1.37a.747.747 0 1 1 .79-1.27c1.19.75 2.57 1.14 3.98 1.14 4.14 0 7.5-3.36 7.5-7.5 0-.73-.11-1.46-.31-2.15a.748.748 0 0 1 1.43-.43c.25.83.38 1.7.38 2.58.01 4.96-4.03 9-8.99 9Z" fill="#000"/><path d="M2 16.75a.76.76 0 0 1-.66-.39c-.2-.36-.07-.82.3-1.02l20-11c.36-.2.82-.07 1.02.3.2.36.07.82-.3 1.02l-20 11c-.11.06-.24.09-.36.09ZM2 20.25a.76.76 0 0 1-.66-.39c-.2-.36-.07-.82.3-1.02l20-11c.36-.2.82-.07 1.02.3.2.36.07.82-.3 1.02l-20 11c-.11.06-.24.09-.36.09Z" fill="#000"/></svg>