<svg width="24" height="24" fill="none" xmlns="http://www.w3.org/2000/svg"><path d="M15.25 16.001c-.19 0-.38-.07-.53-.22L12 13.061l-2.72 2.72c-.29.29-.77.29-1.06 0l-3.25-3.25a.754.754 0 0 1 0-1.06l3.25-3.25c.29-.29.77-.29 1.06 0l2.72 2.72 2.72-2.72c.29-.29.77-.29 1.06 0l3.25 3.25c.29.29.29.77 0 1.06l-3.25 3.25c-.15.15-.34.22-.53.22Zm-2.19-4 2.19 2.19 2.19-2.19-2.19-2.19-2.19 2.19Zm-6.5 0 2.19 2.19 2.19-2.19-2.19-2.19-2.19 2.19Z" fill="#000"/><path d="M12 22.75C6.07 22.75 1.25 17.93 1.25 12S6.07 1.25 12 1.25 22.75 6.07 22.75 12 17.93 22.75 12 22.75Zm0-20C6.9 2.75 2.75 6.9 2.75 12S6.9 21.25 12 21.25s9.25-4.15 9.25-9.25S17.1 2.75 12 2.75Z" fill="#000"/></svg>