<svg width="24" height="24" fill="none" xmlns="http://www.w3.org/2000/svg"><path d="M12 21.4c-.94 0-1.88-.32-2.59-.97l-6.93-6.29c-1.21-1.1-1.59-3.11-.86-4.57l2.4-4.82c.6-1.2 2.11-2.14 3.45-2.14h9.06c1.34 0 2.85.94 3.45 2.14l2.4 4.82c.73 1.46.35 3.47-.86 4.57l-6.93 6.29c-.71.64-1.65.97-2.59.97ZM7.47 4.1c-.78 0-1.76.61-2.11 1.31l-2.4 4.82c-.42.85-.18 2.15.53 2.79l6.93 6.29c.86.78 2.31.78 3.16 0l6.93-6.29c.7-.64.95-1.94.53-2.79l-2.4-4.82c-.35-.69-1.33-1.3-2.11-1.3H7.47V4.1Z" fill="#000"/><path d="M12 15.25c-.41 0-.75-.34-.75-.75v-6c0-.41.34-.75.75-.75s.75.34.75.75v6c0 .41-.34.75-.75.75Z" fill="#000"/><path d="M16 9.25H8c-.41 0-.75-.34-.75-.75s.34-.75.75-.75h8c.41 0 .75.34.75.75s-.34.75-.75.75Z" fill="#000"/></svg>