<svg width="24" height="24" fill="none" xmlns="http://www.w3.org/2000/svg"><path d="M15.15 18.75h-6.3c-1.43 0-2.6-1.17-2.6-2.6v-8.3c0-1.43 1.17-2.6 2.6-2.6h6.3c1.43 0 2.6 1.17 2.6 2.6v8.3c0 1.43-1.17 2.6-2.6 2.6Zm-6.3-12c-.61 0-1.1.49-1.1 1.1v8.3c0 .61.49 1.1 1.1 1.1h6.3c.61 0 1.1-.49 1.1-1.1v-8.3c0-.61-.49-1.1-1.1-1.1h-6.3Z" fill="#000"/><path d="M12 11.25c-.41 0-.75-.34-.75-.75v-2c0-.41.34-.75.75-.75s.75.34.75.75v2c0 .41-.34.75-.75.75Z" fill="#000"/><path d="M14 11.25h-4c-.41 0-.75-.34-.75-.75s.34-.75.75-.75h4c.41 0 .75.34.75.75s-.34.75-.75.75ZM12 16.25c-.41 0-.75-.34-.75-.75v-2c0-.41.34-.75.75-.75s.75.34.75.75v2c0 .41-.34.75-.75.75Z" fill="#000"/><path d="M14 14.25h-4c-.41 0-.75-.34-.75-.75s.34-.75.75-.75h4c.41 0 .75.34.75.75s-.34.75-.75.75Z" fill="#000"/><path d="M15 22.75H9c-5.43 0-7.75-2.32-7.75-7.75V9c0-5.43 2.32-7.75 7.75-7.75h6c5.43 0 7.75 2.32 7.75 7.75v6c0 5.43-2.32 7.75-7.75 7.75Zm-6-20C4.39 2.75 2.75 4.39 2.75 9v6c0 4.61 1.64 6.25 6.25 6.25h6c4.61 0 6.25-1.64 6.25-6.25V9c0-4.61-1.64-6.25-6.25-6.25H9Z" fill="#000"/></svg>