<svg width="24" height="24" fill="none" xmlns="http://www.w3.org/2000/svg"><path d="M5.64 22.749c-.58 0-1.12-.28-1.48-.79-.51-.72-.45-1.65.15-2.29l7.33-7.96-3.55-3.59c-.43-.43-.61-1.05-.49-1.65.12-.6.53-1.09 1.09-1.33l8.94-3.75c.79-.33 1.66-.09 2.18.59.51.69.49 1.59-.05 2.26l-6.07 7.41 3.58 3.63c.43.43.61 1.05.49 1.65-.12.6-.53 1.09-1.09 1.33l-10.3 4.34c-.24.1-.48.15-.73.15Zm7.05-9.96-7.27 7.9c-.16.17-.08.33-.03.42.06.08.19.21.4.11l10.3-4.34c.14-.06.18-.18.2-.24.01-.06.02-.19-.09-.3l-3.51-3.55Zm-3.53-5.72 3.47 3.51 5.96-7.28c.14-.17.07-.33.01-.41-.06-.08-.18-.2-.4-.11l-8.94 3.75a.36.36 0 0 0-.2.24c-.02.06 0 .19.1.3Z" fill="#000"/></svg>