<svg width="24" height="24" fill="none" xmlns="http://www.w3.org/2000/svg"><path d="M15 22.75H9c-5.43 0-7.75-2.32-7.75-7.75V9c0-5.43 2.32-7.75 7.75-7.75h6c5.43 0 7.75 2.32 7.75 7.75v6c0 5.43-2.32 7.75-7.75 7.75Zm-6-20C4.39 2.75 2.75 4.39 2.75 9v6c0 4.61 1.64 6.25 6.25 6.25h6c4.61 0 6.25-1.64 6.25-6.25V9c0-4.61-1.64-6.25-6.25-6.25H9Z" fill="#000"/><path d="M9.55 18.471H7.1c-1.09 0-1.97-.89-1.97-1.98v-8.98c0-1.09.89-1.98 1.97-1.98h2.45c1.09 0 1.98.89 1.98 1.98v8.98c0 1.09-.89 1.98-1.98 1.98ZM7.1 7.031c-.26 0-.47.22-.47.48v8.98c0 .26.22.48.47.48h2.45c.26 0 .48-.22.48-.48v-8.98c0-.26-.22-.48-.48-.48H7.1ZM17.14 14.381H14.2c-.96 0-1.73-.78-1.73-1.73v-5.39c0-.96.78-1.73 1.73-1.73h2.94c.96 0 1.73.78 1.73 1.73v5.39c.01.96-.77 1.73-1.73 1.73Zm-2.93-7.35c-.13 0-.23.11-.23.23v5.39c0 .13.11.23.23.23h2.94c.13 0 .23-.11.23-.23v-5.39c0-.13-.11-.23-.23-.23h-2.94Z" fill="#000"/></svg>