<svg width="24" height="24" fill="none" xmlns="http://www.w3.org/2000/svg"><path d="M10.23 21.88c-.07 0-.14 0-.21-.02-.59-.08-1.09-.52-1.36-1.2L1.94 3.86c-.27-.67-.21-1.32.15-1.79.37-.47.98-.69 1.7-.59l12.97 1.73c.35.05.76.25 1.01.5l3.13 3.13c.61.62.68 1.63.14 2.32L11.66 21.1c-.4.51-.91.78-1.43.78ZM3.46 2.96c-.12 0-.18.03-.19.04 0 .01-.02.12.06.31l6.72 16.8c.08.2.17.27.18.27.01 0 .11-.04.24-.21l9.38-11.94c.07-.08.06-.26-.02-.33L16.7 4.77a.523.523 0 0 0-.15-.07L3.6 2.97c-.05-.01-.1-.01-.14-.01Z" fill="#000"/><path d="M10 21.749h-.07a.75.75 0 0 1-.68-.81l.97-10.62-7.71-6.85a.747.747 0 0 1-.06-1.06c.28-.31.75-.34 1.06-.06l7.99 7.1c.18.16.27.39.25.63l-1 11c-.04.38-.37.67-.75.67Z" fill="#000"/><path d="M11 10.751c-.27 0-.53-.15-.66-.4-.16-.29-.1-.65.13-.88l6-6c.29-.29.77-.29 1.06 0 .29.29.29.77 0 1.06l-4.25 4.25 6.61-1.32c.41-.08.8.18.88.59.08.41-.18.8-.59.88l-9.04 1.81c-.04.01-.09.01-.14.01Z" fill="#000"/></svg>