<svg width="24" height="24" fill="none" xmlns="http://www.w3.org/2000/svg"><path d="M9.5 22.75h-3c-.41 0-.75-.34-.75-.75v-2.25H2.5c-.41 0-.75-.34-.75-.75V5c0-.15.04-.29.13-.42l2-3c.14-.21.37-.33.62-.33h17c.41 0 .75.34.75.75v12c0 .2-.08.39-.22.53l-5 5a.75.75 0 0 1-.53.22h-4.6l-1.78 2.67c-.14.2-.37.33-.62.33Zm-2.25-1.5H9.1l1.78-2.67c.14-.21.37-.33.62-.33h4.69l4.56-4.56V2.75H4.9L3.25 5.23v13.02H6.5c.41 0 .75.34.75.75v2.25Z" fill="#000"/><path d="M11 13.75H9c-.41 0-.75-.34-.75-.75V7c0-.41.34-.75.75-.75h2c.41 0 .75.34.75.75v6c0 .41-.34.75-.75.75Zm-1.25-1.5h.5v-4.5h-.5v4.5ZM16 13.75h-2c-.41 0-.75-.34-.75-.75V7c0-.41.34-.75.75-.75h2c.41 0 .75.34.75.75v6c0 .41-.34.75-.75.75Zm-1.25-1.5h.5v-4.5h-.5v4.5Z" fill="#000"/></svg>