<svg width="24" height="24" fill="none" xmlns="http://www.w3.org/2000/svg"><path d="M16.95 17.698c-.19 0-.38-.07-.53-.22a.754.754 0 0 1 0-1.06 6.21 6.21 0 0 0 1.83-4.42c0-1.67-.65-3.24-1.83-4.42a.755.755 0 0 1 0-1.06c.29-.29.77-.29 1.06 0a7.709 7.709 0 0 1 2.27 5.48c0 2.07-.81 4.02-2.27 5.48-.15.15-.34.22-.53.22ZM7.05 17.698c-.19 0-.38-.07-.53-.22a7.709 7.709 0 0 1-2.27-5.48c0-2.07.81-4.02 2.27-5.48.29-.29.77-.29 1.06 0 .29.29.29.77 0 1.06a6.21 6.21 0 0 0-1.83 4.42c0 1.67.65 3.24 1.83 4.42.29.29.29.77 0 1.06-.15.15-.34.22-.53.22ZM12.98 16.02h-1.76c-1.27 0-2.31-1.07-2.31-2.38 0-.41.34-.75.75-.75s.75.34.75.75c0 .49.36.88.81.88h1.76c.33 0 .61-.3.61-.67 0-.47-.11-.53-.43-.64l-2.81-.98c-.96-.34-1.43-1.01-1.43-2.06 0-1.2.94-2.17 2.11-2.17h1.76c1.27 0 2.31 1.07 2.31 2.38 0 .41-.34.75-.75.75s-.75-.34-.75-.75c0-.49-.36-.88-.81-.88h-1.76c-.33 0-.61.3-.61.67 0 .47.11.53.43.64l2.81.98c.96.34 1.43 1.01 1.43 2.06-.01 1.19-.95 2.17-2.11 2.17Z" fill="#000"/><path d="M12 16.95c-.41 0-.75-.34-.75-.75V7.8c0-.41.34-.75.75-.75s.75.34.75.75v8.4c0 .41-.34.75-.75.75Z" fill="#000"/><path d="M12 22.75C6.07 22.75 1.25 17.93 1.25 12S6.07 1.25 12 1.25 22.75 6.07 22.75 12 17.93 22.75 12 22.75Zm0-20C6.9 2.75 2.75 6.9 2.75 12S6.9 21.25 12 21.25s9.25-4.15 9.25-9.25S17.1 2.75 12 2.75Z" fill="#000"/></svg>