<svg width="24" height="24" fill="none" xmlns="http://www.w3.org/2000/svg"><path d="M22 3.781H2c-.41 0-.75-.34-.75-.75s.34-.75.75-.75h20c.41 0 .75.34.75.75s-.34.75-.75.75ZM12 21.72c-.64 0-1.22-.32-1.57-.85L2.47 8.48c-.37-.57-.39-1.3-.07-1.9.33-.6.95-.97 1.63-.97h15.93c.68 0 1.31.37 1.63.97.33.6.3 1.33-.07 1.9l-7.96 12.39c-.34.53-.92.85-1.56.85ZM4.04 7.11c-.19 0-.29.13-.32.19-.03.06-.09.21.01.37l7.96 12.39c.09.14.23.17.3.17.07 0 .21-.02.3-.17l7.96-12.39c.1-.16.04-.31.01-.37a.344.344 0 0 0-.32-.19H4.04Z" fill="#000"/></svg>