<svg width="24" height="24" fill="none" xmlns="http://www.w3.org/2000/svg"><path d="M12 12.6c-.24 0-.46-.11-.6-.3L8.9 8.97a.752.752 0 0 1-.07-.79c.13-.26.39-.41.67-.41h5c.28 0 .54.16.67.41.13.25.1.56-.07.79l-2.5 3.33c-.14.19-.36.3-.6.3Zm-1-3.33 1 1.33 1-1.33h-2Z" fill="#000"/><path d="M12 22.75C6.07 22.75 1.25 17.93 1.25 12S6.07 1.25 12 1.25 22.75 6.07 22.75 12 17.93 22.75 12 22.75Zm0-20C6.9 2.75 2.75 6.9 2.75 12S6.9 21.25 12 21.25s9.25-4.15 9.25-9.25S17.1 2.75 12 2.75Z" fill="#000"/><path d="M12 17.748c-.24 0-.47-.12-.61-.31l-5-7a.76.76 0 0 1 .17-1.05.76.76 0 0 1 1.05.17l4.39 6.15 4.39-6.15c.24-.34.71-.42 1.05-.17.34.24.42.71.17 1.05l-5 7c-.14.19-.37.31-.61.31Z" fill="#000"/></svg>