<svg width="24" height="24" fill="none" xmlns="http://www.w3.org/2000/svg"><path d="M16.5 9.6c-.13 0-.26-.03-.39-.11L12 7.02 7.89 9.49a.751.751 0 1 1-.77-1.29l4.5-2.7c.24-.14.53-.14.77 0l4.5 2.7c.36.21.47.67.26 1.03a.77.77 0 0 1-.65.37Z" fill="#000"/><path d="M16.5 15.9c-.13 0-.27-.04-.39-.11L12 13.32l-4.11 2.47c-.23.14-.52.14-.76.01a.752.752 0 0 1-.38-.65V9c0-.41.34-.75.75-.75s.75.34.75.75v4.83l3.36-2.02c.24-.14.53-.14.77 0l3.36 2.02V9c0-.41.34-.75.75-.75s.75.34.75.75v6.15c0 .27-.15.52-.38.65-.11.07-.23.1-.36.1Z" fill="#000"/><path d="M12 18.448c-.15 0-.29-.04-.42-.13l-2.25-1.5a.755.755 0 0 1-.21-1.04c.23-.35.7-.44 1.04-.21l1.83 1.22 1.83-1.22c.34-.23.81-.14 1.04.21.23.34.14.81-.21 1.04l-2.25 1.5a.62.62 0 0 1-.4.13Z" fill="#000"/><path d="M12 22.75C6.07 22.75 1.25 17.93 1.25 12S6.07 1.25 12 1.25 22.75 6.07 22.75 12 17.93 22.75 12 22.75Zm0-20C6.9 2.75 2.75 6.9 2.75 12S6.9 21.25 12 21.25s9.25-4.15 9.25-9.25S17.1 2.75 12 2.75Z" fill="#000"/></svg>