<svg width="24" height="24" fill="none" xmlns="http://www.w3.org/2000/svg"><path d="M22 11.75H12c-.41 0-.75-.34-.75-.75V4c0-.36.25-.67.6-.74l10-2c.22-.04.45.01.62.16.17.14.27.36.27.58v9a.74.74 0 0 1-.74.75Zm-9.25-1.5h8.5V2.92l-8.5 1.7v5.63ZM22 22.75c-.05 0-.1 0-.15-.01l-10-2a.75.75 0 0 1-.6-.74v-7c0-.41.34-.75.75-.75h10c.41 0 .75.34.75.75v9c0 .22-.1.44-.27.58-.14.11-.31.17-.48.17Zm-9.25-3.37 8.5 1.7v-7.33h-8.5v5.63ZM10 11.748H2c-.41 0-.75-.34-.75-.75v-5c0-.35.25-.66.59-.73l8-1.7c.22-.05.45.01.63.15.18.14.28.36.28.58v6.7c0 .41-.34.75-.75.75Zm-7.25-1.5h6.5v-5.02l-6.5 1.38v3.64ZM10 20.45c-.05 0-.1-.01-.16-.02l-8-1.7a.74.74 0 0 1-.59-.73v-5c0-.41.34-.75.75-.75h8c.41 0 .75.34.75.75v6.7c0 .23-.1.44-.28.58-.13.11-.3.17-.47.17Zm-7.25-3.06 6.5 1.38v-5.02h-6.5v3.64Z" fill="#000"/></svg>