<svg width="24" height="24" fill="none" xmlns="http://www.w3.org/2000/svg"><path d="M17 19.748a.74.74 0 0 1-.64-.37l-1.85-3.1a.764.764 0 0 1-.01-.76l3.34-5.83-2.49-4.33a.77.77 0 0 1 0-.75c.13-.23.38-.37.65-.37h3.5c.27 0 .52.14.65.38l2.7 4.7c.13.23.13.51 0 .74l-5.2 9.3c-.13.23-.38.38-.64.38 0 .01-.01.01-.01.01Zm-.98-3.86.96 1.61 4.36-7.8-2.27-3.96H17.3l2.05 3.58c.13.23.13.52 0 .75l-3.33 5.82Z" fill="#000"/><path d="M10 19.748a.74.74 0 0 1-.64-.37l-1.85-3.1a.764.764 0 0 1-.01-.76l3.34-5.83-2.49-4.33a.77.77 0 0 1 0-.75c.13-.23.38-.37.65-.37h3.5c.27 0 .52.14.65.38l2.7 4.7c.13.23.13.51 0 .74l-5.2 9.3c-.13.23-.38.38-.64.38 0 .01-.01.01-.01.01Zm-.98-3.86.96 1.61 4.36-7.8-2.27-3.96H10.3l2.05 3.58c.13.23.13.52 0 .75l-3.33 5.82Z" fill="#000"/><path d="M6.3 13.45c-.27 0-.51-.14-.65-.37l-4.5-7.7a.722.722 0 0 1 0-.75c.13-.23.38-.38.65-.38h3.5c.27 0 .52.15.65.38l2.7 4.8c.13.23.13.52-.01.75l-1.7 2.9c-.13.23-.37.37-.64.37Zm-3.19-7.7 3.19 5.47.83-1.42-2.27-4.04H3.11v-.01Z" fill="#000"/></svg>