<svg width="24" height="24" fill="none" xmlns="http://www.w3.org/2000/svg"><path d="M12 11.488c-1.32 0-2.56-.51-3.49-1.45l-5.73-5.73a1.798 1.798 0 0 1 1.27-3.07h1.41c1.04 0 2.02.41 2.75 1.14l3.58 3.58c.15.15.27.15.42 0l3.58-3.58a3.85 3.85 0 0 1 2.75-1.14h1.41a1.798 1.798 0 0 1 1.27 3.07l-5.73 5.73c-.93.94-2.17 1.45-3.49 1.45Zm-7.95-8.74c-.17 0-.25.12-.28.18-.03.06-.06.2.06.32l5.73 5.73c1.3 1.3 3.57 1.3 4.87 0l5.73-5.73c.12-.12.09-.26.06-.32a.295.295 0 0 0-.28-.18h-1.41c-.64 0-1.24.25-1.69.7l-3.58 3.58c-.7.7-1.84.7-2.54 0l-3.58-3.58c-.45-.45-1.05-.7-1.69-.7h-1.4ZM19.95 22.719h-1.41c-1.04 0-2.02-.41-2.75-1.14l-3.58-3.58c-.15-.15-.27-.15-.42 0l-3.58 3.58a3.85 3.85 0 0 1-2.75 1.14H4.05a1.798 1.798 0 0 1-1.27-3.07l5.73-5.73a4.91 4.91 0 0 1 3.49-1.45c1.32 0 2.56.51 3.49 1.45l5.73 5.73a1.798 1.798 0 0 1-1.27 3.07Zm-7.95-6.3c.46 0 .92.18 1.27.53l3.58 3.58c.45.45 1.05.7 1.69.7h1.41c.17 0 .25-.12.28-.18.03-.06.06-.2-.06-.32l-5.73-5.73c-1.3-1.3-3.57-1.3-4.87 0l-5.73 5.73c-.12.12-.09.26-.06.32s.1.18.28.18h1.41c.64 0 1.24-.25 1.69-.7l3.58-3.58c.34-.36.8-.53 1.26-.53Z" fill="#000"/></svg>