<svg width="24" height="24" fill="none" xmlns="http://www.w3.org/2000/svg"><path d="M17 20.75H7c-3.44 0-5.75-2.31-5.75-5.75V9c0-3.44 2.31-5.75 5.75-5.75h10c3.44 0 5.75 2.31 5.75 5.75v6c0 3.44-2.31 5.75-5.75 5.75Zm-10-16C4.42 4.75 2.75 6.42 2.75 9v6c0 2.58 1.67 4.25 4.25 4.25h10c2.58 0 4.25-1.67 4.25-4.25V9c0-2.58-1.67-4.25-4.25-4.25H7Z" fill="#000"/><path d="M10.59 15.53c-.29 0-.57-.07-.82-.21-.58-.33-.92-1-.92-1.83v-2.96c0-.83.33-1.5.92-1.83.58-.33 1.33-.27 2.04.16l2.47 1.48c.68.41 1.07 1.02 1.07 1.67 0 .65-.39 1.26-1.07 1.67l-2.47 1.48c-.41.24-.83.37-1.22.37Zm0-5.56a.2.2 0 0 0-.09.02c-.07.04-.15.22-.15.53v2.96c0 .3.08.48.15.53.08.04.27.02.53-.14l2.47-1.48c.25-.15.34-.3.34-.39 0-.09-.09-.23-.34-.39l-2.47-1.48c-.18-.11-.34-.16-.44-.16Z" fill="#000"/></svg>