<svg width="24" height="24" fill="none" xmlns="http://www.w3.org/2000/svg"><path d="M8 16.5c-.13 0-.26-.03-.37-.1l-2.5-1.44a.752.752 0 0 1-.38-.65v-2.85c0-.27.14-.52.38-.65l2.5-1.44a.77.77 0 0 1 .75 0l2.5 1.44c.23.13.38.38.38.65v2.85c0 .27-.14.52-.38.65l-2.5 1.44c-.12.07-.25.1-.38.1Zm-1.75-2.62L8 14.89l1.75-1.01v-1.99L8 10.88l-1.75 1.01v1.99ZM16 16.5c-.13 0-.26-.03-.37-.1l-2.5-1.44a.752.752 0 0 1-.38-.65v-2.85c0-.27.14-.52.38-.65l2.5-1.44a.77.77 0 0 1 .75 0l2.5 1.44c.23.13.38.38.38.65v2.85c0 .27-.14.52-.38.65l-2.5 1.44c-.12.07-.25.1-.38.1Zm-1.75-2.62L16 14.89l1.75-1.01v-1.99L16 10.88l-1.75 1.01v1.99Z" fill="#000"/><path d="M12 14.8c-.13 0-.26-.03-.37-.1l-1.5-.86a.752.752 0 0 1-.38-.65v-1.3l-.87-.5a.752.752 0 0 1-.38-.65V9.32c0-.27.14-.52.38-.65l2.75-1.58a.77.77 0 0 1 .75 0l2.75 1.58c.23.13.38.38.38.65v1.42c0 .27-.14.52-.38.65l-.87.5v1.3c0 .27-.14.52-.38.65l-1.5.86c-.12.07-.25.1-.38.1Zm-.75-2.04.75.43.75-.43v-1.3c0-.27.14-.52.38-.65l.87-.5v-.55l-2-1.15-2 1.15v.55l.87.5c.23.13.38.38.38.65v1.3Z" fill="#000"/><path d="M12 22.75C6.07 22.75 1.25 17.93 1.25 12S6.07 1.25 12 1.25 22.75 6.07 22.75 12 17.93 22.75 12 22.75Zm0-20C6.9 2.75 2.75 6.9 2.75 12S6.9 21.25 12 21.25s9.25-4.15 9.25-9.25S17.1 2.75 12 2.75Z" fill="#000"/></svg>