<svg width="24" height="24" fill="none" xmlns="http://www.w3.org/2000/svg"><path d="M16.75 3.56V2c0-.41-.34-.75-.75-.75s-.75.34-.75.75v1.5h-6.5V2c0-.41-.34-.75-.75-.75s-.75.34-.75.75v1.56c-2.7.25-4.01 1.86-4.21 4.25-.02.29.22.53.5.53h16.92c.29 0 .53-.25.5-.53-.2-2.39-1.51-4-4.21-4.25Z" fill="#292D32"/><path opacity=".4" d="M20 9.84c.55 0 1 .45 1 1V17c0 3-1.5 5-5 5H8c-3.5 0-5-2-5-5v-6.16c0-.55.45-1 1-1h16Z" fill="#292D32"/><path d="m14.84 14.99-.5.51h-.01l-3.03 3.03c-.13.13-.4.27-.59.29l-1.35.2c-.49.07-.83-.28-.76-.76l.19-1.36c.03-.19.16-.45.29-.59l3.04-3.03.5-.51c.33-.33.7-.57 1.1-.57.34 0 .71.16 1.12.57.9.9.61 1.61 0 2.22Z" fill="#292D32"/></svg>