<svg width="24" height="24" fill="none" xmlns="http://www.w3.org/2000/svg"><path opacity=".4" d="m10.96 2.11-5.5 2.06c-1.05.4-1.91 1.64-1.91 2.77v8.1c0 .81.53 1.88 1.18 2.36l5.5 4.11c.97.73 2.56.73 3.53 0l5.5-4.11c.65-.49 1.18-1.55 1.18-2.36v-8.1c0-1.12-.86-2.37-1.91-2.76l-5.5-2.06c-.56-.22-1.5-.22-2.07-.01Z" fill="#292D32"/><path d="M12 16.25c-2.62 0-4.75-2.13-4.75-4.75S9.38 6.75 12 6.75s4.75 2.13 4.75 4.75-2.13 4.75-4.75 4.75Zm0-8c-1.79 0-3.25 1.46-3.25 3.25s1.46 3.25 3.25 3.25 3.25-1.46 3.25-3.25S13.79 8.25 12 8.25Z" fill="#292D32"/><path d="M11 13.252c-.25 0-.5-.13-.64-.36-.21-.36-.1-.82.26-1.03l.76-.46c.08-.05.12-.13.12-.21v-.93c0-.41.34-.75.75-.75s.75.33.75.74v.93c0 .61-.33 1.19-.85 1.5l-.77.46c-.11.08-.25.11-.38.11Z" fill="#292D32"/></svg>