<svg width="24" height="24" fill="none" xmlns="http://www.w3.org/2000/svg"><path d="M19.96 8.958c-.67-.74-1.68-1.17-3.08-1.32v-.76c0-1.37-.58-2.69-1.6-3.61a4.847 4.847 0 0 0-3.76-1.25c-2.39.23-4.4 2.54-4.4 5.04v.58c-1.4.15-2.41.58-3.08 1.32-.97 1.08-.94 2.52-.83 3.52l.7 5.57c.21 1.95 1 3.95 5.3 3.95h5.58c4.3 0 5.09-2 5.3-3.94l.7-5.59c.11-.99.14-2.43-.83-3.51Zm-8.3-5.55a3.482 3.482 0 0 1 3.83 3.47v.7H8.51v-.52c0-1.78 1.47-3.49 3.15-3.65Zm.34 15.17c-2.09 0-3.79-1.7-3.79-3.79s1.7-3.79 3.79-3.79 3.79 1.7 3.79 3.79-1.7 3.79-3.79 3.79Z" fill="#292D32"/><path d="M11 16.578c-.25 0-.5-.13-.64-.36-.21-.35-.1-.82.26-1.03l.89-.53v-1.08c0-.41.34-.75.75-.75s.74.33.74.75v1.5c0 .26-.14.51-.36.64l-1.25.75c-.12.07-.26.11-.39.11Z" fill="#292D32"/></svg>