<svg width="24" height="24" fill="none" xmlns="http://www.w3.org/2000/svg"><path d="M19.24 5.579h-.4l-3.38-3.38a.706.706 0 0 0-.99 0c-.27.27-.27.71 0 .99l2.39 2.39H7.14l2.39-2.39c.27-.27.27-.71 0-.99a.706.706 0 0 0-.99 0l-3.37 3.38h-.4c-.9 0-2.77 0-2.77 2.56 0 .97.2 1.61.62 2.03.24.25.53.38.84.45.29.07.6.08.9.08h15.28c.31 0 .6-.02.88-.08.84-.2 1.48-.8 1.48-2.48 0-2.56-1.87-2.56-2.76-2.56ZM19.05 12H4.87c-.62 0-1.09.55-.99 1.16l.84 5.14C5 20.02 5.75 22 9.08 22h5.61c3.37 0 3.97-1.69 4.33-3.58l1.01-5.23a.997.997 0 0 0-.98-1.19ZM12 19.5a4.26 4.26 0 0 1-4.25-4.25c0-.41.34-.75.75-.75s.75.34.75.75C9.25 16.77 10.48 18 12 18s2.75-1.23 2.75-2.75c0-.41.34-.75.75-.75s.75.34.75.75A4.26 4.26 0 0 1 12 19.5Z" fill="#292D32"/></svg>