<svg width="24" height="24" fill="none" xmlns="http://www.w3.org/2000/svg"><path d="M19.24 5.579h-.4l-3.38-3.38a.706.706 0 0 0-.99 0c-.27.27-.27.71 0 .99l2.39 2.39H7.14l2.39-2.39c.27-.27.27-.71 0-.99a.706.706 0 0 0-.99 0l-3.37 3.38h-.4c-.9 0-2.77 0-2.77 2.56 0 .97.2 1.61.62 2.03.24.25.53.38.84.45.29.07.6.08.9.08h15.28c.31 0 .6-.02.88-.08.84-.2 1.48-.8 1.48-2.48 0-2.56-1.87-2.56-2.76-2.56ZM19.05 12H4.87c-.62 0-1.09.55-.99 1.16l.84 5.14C5 20.02 5.75 22 9.08 22h5.61c3.37 0 3.97-1.69 4.33-3.58l1.01-5.23a.997.997 0 0 0-.98-1.19Zm-8.44 6.45a.696.696 0 1 1-1.39 0v-3.3c0-.38.31-.7.7-.7a.7.7 0 0 1 .69.7v3.3Zm4.28 0c0 .39-.31.7-.7.7-.38 0-.7-.31-.7-.7v-3.3c0-.38.32-.7.7-.7.39 0 .7.32.7.7v3.3Z" fill="#292D32"/></svg>