<svg width="24" height="24" fill="none" xmlns="http://www.w3.org/2000/svg"><path d="M17 3.5H7c-3 0-5 1.5-5 5v7c0 3.5 2 5 5 5h10c3 0 5-1.5 5-5v-7c0-3.5-2-5-5-5ZM6.75 16c0 .41-.34.75-.75.75s-.75-.34-.75-.75V8c0-.41.34-.75.75-.75s.75.34.75.75v8Zm3 0c0 .41-.34.75-.75.75s-.75-.34-.75-.75v-1c0-.41.34-.75.75-.75s.75.34.75.75v1Zm0-4c0 .41-.34.75-.75.75s-.75-.34-.75-.75V8c0-.41.34-.75.75-.75s.75.34.75.75v4Zm3 4c0 .41-.34.75-.75.75s-.75-.34-.75-.75V8c0-.41.34-.75.75-.75s.75.34.75.75v8Zm3 0c0 .41-.34.75-.75.75s-.75-.34-.75-.75v-4c0-.41.34-.75.75-.75s.75.34.75.75v4Zm0-7c0 .41-.34.75-.75.75s-.75-.34-.75-.75V8c0-.41.34-.75.75-.75s.75.34.75.75v1Zm3 7c0 .41-.34.75-.75.75s-.75-.34-.75-.75V8c0-.41.34-.75.75-.75s.75.34.75.75v8Z" fill="#292D32"/></svg>