<svg width="24" height="24" fill="none" xmlns="http://www.w3.org/2000/svg"><path d="m22.36 8.27-.29-2.77c-.42-3.02-1.79-4.25-4.72-4.25H6.59c-2.94 0-4.3 1.23-4.73 4.28l-.27 2.75c-.1 1.07.19 2.11.82 2.92.76.99 1.93 1.55 3.23 1.55 1.26 0 2.47-.63 3.23-1.64A3.754 3.754 0 0 0 12 12.75c1.29 0 2.42-.6 3.11-1.6.77.99 1.96 1.6 3.2 1.6 1.33 0 2.53-.59 3.28-1.63.6-.8.87-1.81.77-2.85ZM11.35 16.66a2.495 2.495 0 0 0-2.23 2.49v2.74c0 .27.22.49.49.49h4.77c.27 0 .49-.22.49-.49V19.5c.01-2.09-1.22-3.08-3.52-2.84Z" fill="#292D32"/><path d="M21.37 14.398v2.98c0 2.76-2.24 5-5 5a.49.49 0 0 1-.49-.49v-2.39c0-1.28-.39-2.28-1.15-2.96-.67-.61-1.58-.91-2.71-.91-.25 0-.5.01-.77.04a3.485 3.485 0 0 0-3.13 3.48v2.74c0 .27-.22.49-.49.49-2.76 0-5-2.24-5-5v-2.96a1 1 0 0 1 1.34-.94c.27.09.54.16.82.2.12.02.25.04.37.04.16.02.32.03.48.03 1.16 0 2.3-.43 3.2-1.17.86.74 1.98 1.17 3.16 1.17 1.19 0 2.29-.41 3.15-1.15.9.73 2.02 1.15 3.16 1.15.18 0 .36-.01.53-.03a4.818 4.818 0 0 0 1.21-.26.997.997 0 0 1 1.32.94Z" fill="#292D32"/></svg>