<svg width="24" height="24" fill="none" xmlns="http://www.w3.org/2000/svg"><path d="M16.25 22.5a1.75 1.75 0 1 0 0-3.5 1.75 1.75 0 0 0 0 3.5ZM8.25 22.5a1.75 1.75 0 1 0 0-3.5 1.75 1.75 0 0 0 0 3.5ZM4.84 3.94l-.2 2.45c-.04.47.33.86.8.86h15.31c.42 0 .77-.32.8-.74.13-1.77-1.22-3.21-2.99-3.21H6.27c-.1-.44-.3-.86-.61-1.21-.5-.53-1.2-.84-1.92-.84H2c-.41 0-.75.34-.75.75s.34.75.75.75h1.74c.31 0 .6.13.81.35.21.23.31.53.29.84ZM20.51 8.75H5.17c-.42 0-.76.32-.8.73l-.36 4.35A2.922 2.922 0 0 0 6.92 17h11.12c1.5 0 2.82-1.23 2.93-2.73l.33-4.67a.782.782 0 0 0-.79-.85Z" fill="#292D32"/></svg>