<svg width="24" height="24" fill="none" xmlns="http://www.w3.org/2000/svg"><path d="M7.8 22.148c-2.65 0-4.81-2.15-4.81-4.81v-2.84a.96.96 0 0 1 1.29-.9c.26.09.52.15.79.19.12.02.24.04.36.04.15.02.31.03.46.03 1.11 0 2.21-.41 3.08-1.12.83.71 1.9 1.12 3.04 1.12 1.14 0 2.2-.39 3.03-1.11.86.7 1.94 1.11 3.04 1.11.17 0 .35-.01.51-.03.12-.01.22-.02.33-.04.3-.04.57-.12.84-.21a.96.96 0 0 1 1.27.9v2.86c0 2.65-2.15 4.81-4.81 4.81H7.8Z" fill="#292D32"/><path d="m21.98 8.592-.28-2.66c-.4-2.9-1.72-4.08-4.54-4.08H6.82c-2.82 0-4.13 1.18-4.54 4.11l-.26 2.64c-.1 1.03.18 2.03.79 2.81.73.95 1.85 1.49 3.1 1.49 1.21 0 2.37-.61 3.1-1.58.65.97 1.77 1.58 3.01 1.58 1.24 0 2.33-.58 2.99-1.54.74.95 1.88 1.54 3.08 1.54 1.28 0 2.43-.57 3.15-1.57.58-.77.84-1.74.74-2.74Zm-8.48-.86h-.75v.78a.749.749 0 1 1-1.5 0v-.78h-.75a.749.749 0 1 1 0-1.5h.75v-.71c0-.41.34-.75.75-.75s.75.34.75.75v.71h.75a.749.749 0 1 1 0 1.5Z" fill="#292D32"/></svg>