<svg width="24" height="24" fill="none" xmlns="http://www.w3.org/2000/svg"><path d="M18.022 18.96c1.72-1.16 1.72-1.16 1.72-2.98v-4.97c0-1.82 0-1.82-1.72-2.98l-4.73-2.73c-.71-.41-1.87-.41-2.58 0l-4.73 2.74c-1.72 1.16-1.72 1.16-1.72 2.98v4.97c0 1.82 0 1.82 1.72 2.98l4.73 2.73c.71.41 1.87.41 2.58 0l1.52-.88" stroke="#292D32" stroke-width="1.5" stroke-linecap="round" stroke-linejoin="round"/><path d="M17.5 7.63V5c0-2-1-3-3-3h-5c-2 0-3 1-3 3v2.56M12.28 16.422a.863.863 0 0 0-.55 0l-.98.39c-.6.24-1.06-.1-1.02-.74l.06-1.05c.01-.16-.07-.4-.17-.52l-.67-.81c-.41-.5-.24-1.04.39-1.2l1.02-.26c.16-.04.36-.19.44-.32l.57-.89c.35-.55.92-.55 1.27 0l.57.89c.09.14.29.28.44.32l1.02.26c.63.16.8.7.39 1.2l-.67.81c-.1.13-.18.36-.17.52" stroke="#292D32" stroke-width="1.5" stroke-linecap="round" stroke-linejoin="round"/></svg>