<svg width="24" height="24" fill="none" xmlns="http://www.w3.org/2000/svg"><path d="M6 5.17 4.03 6.46c-1.93 1.26-1.93 4.08 0 5.34l6.02 3.93c1.08.71 2.86.71 3.94 0l5.99-3.93c1.92-1.26 1.92-4.07 0-5.33l-5.99-3.93c-1.08-.71-2.86-.71-3.94 0" stroke="#292D32" stroke-width="1.5" stroke-linecap="round" stroke-linejoin="round"/><path d="m5.631 13.078-.01 4.69c0 1.27.98 2.63 2.18 3.03l3.19 1.06c.55.18 1.46.18 2.02 0l3.19-1.06c1.2-.4 2.18-1.76 2.18-3.03v-4.64M21.398 15V9" stroke="#292D32" stroke-width="1.5" stroke-linecap="round" stroke-linejoin="round"/></svg>