<svg width="24" height="24" fill="none" xmlns="http://www.w3.org/2000/svg"><path d="M13 22.75H9c-5.43 0-7.75-2.32-7.75-7.75V9c0-5.43 2.32-7.75 7.75-7.75h6c5.43 0 7.75 2.32 7.75 7.75v4c0 .41-.34.75-.75.75s-.75-.34-.75-.75V9c0-4.61-1.64-6.25-6.25-6.25H9C4.39 2.75 2.75 4.39 2.75 9v6c0 4.61 1.64 6.25 6.25 6.25h4c.41 0 .75.34.75.75s-.34.75-.75.75Z" fill="#292D32"/><path d="M13 22.75H9c-5.43 0-7.75-2.32-7.75-7.75V9c0-5.43 2.32-7.75 7.75-7.75h6c5.43 0 7.75 2.32 7.75 7.75v4c0 .41-.34.75-.75.75s-.75-.34-.75-.75V9c0-4.61-1.64-6.25-6.25-6.25H9C4.39 2.75 2.75 4.39 2.75 9v6c0 4.61 1.64 6.25 6.25 6.25h4c.41 0 .75.34.75.75s-.34.75-.75.75Z" fill="#292D32"/><path d="M7 14.69c-.41 0-.75-.34-.75-.75v-3.21c0-.41.34-.75.75-.75s.75.34.75.75v3.21c0 .42-.34.75-.75.75ZM17 14.69c-.41 0-.75-.34-.75-.75v-3.21c0-.41.34-.75.75-.75s.75.34.75.75v3.21c0 .42-.34.75-.75.75Z" fill="#292D32"/><path d="M13 22.75H9c-5.43 0-7.75-2.32-7.75-7.75V9c0-5.43 2.32-7.75 7.75-7.75h6c5.43 0 7.75 2.32 7.75 7.75v4c0 .41-.34.75-.75.75s-.75-.34-.75-.75V9c0-4.61-1.64-6.25-6.25-6.25H9C4.39 2.75 2.75 4.39 2.75 9v6c0 4.61 1.64 6.25 6.25 6.25h4c.41 0 .75.34.75.75s-.34.75-.75.75Z" fill="#292D32"/><path d="M17.58 21.75a.75.75 0 0 1-.53-.22l-1.58-1.57a.745.745 0 0 1 0-1.06c.29-.29.77-.3 1.06 0l1.01 1 2.9-3.39c.27-.32.74-.35 1.06-.08.31.27.35.74.08 1.06l-3.42 4c-.14.16-.33.25-.54.26h-.04ZM12 14.25c-.41 0-.75-.34-.75-.75v-3c0-.41.34-.75.75-.75s.75.34.75.75v3c0 .41-.34.75-.75.75Z" fill="#292D32"/></svg>