<svg width="24" height="24" fill="none" xmlns="http://www.w3.org/2000/svg"><path d="M21 22.75H3c-.41 0-.75-.34-.75-.75s.34-.75.75-.75h18c.41 0 .75.34.75.75s-.34.75-.75.75ZM5.6 19.749H4c-.96 0-1.75-.79-1.75-1.75v-8.62c0-.96.79-1.75 1.75-1.75h1.6c.96 0 1.75.79 1.75 1.75v8.62c0 .96-.79 1.75-1.75 1.75ZM4 9.119c-.14 0-.25.11-.25.25v8.63c0 .14.11.25.25.25h1.6c.14 0 .25-.11.25-.25v-8.62c0-.14-.11-.25-.25-.25H4v-.01ZM12.8 19.751h-1.6c-.96 0-1.75-.79-1.75-1.75V6.191c0-.96.79-1.75 1.75-1.75h1.6c.96 0 1.75.79 1.75 1.75v11.81c0 .96-.79 1.75-1.75 1.75Zm-1.6-13.81c-.14 0-.25.11-.25.25v11.81c0 .14.11.25.25.25h1.6c.14 0 .25-.11.25-.25V6.191c0-.14-.11-.25-.25-.25h-1.6ZM20 19.75h-1.6c-.96 0-1.75-.79-1.75-1.75V3c0-.96.79-1.75 1.75-1.75H20c.96 0 1.75.79 1.75 1.75v15c0 .96-.79 1.75-1.75 1.75Zm-1.6-17c-.14 0-.25.11-.25.25v15c0 .14.11.25.25.25H20c.14 0 .25-.11.25-.25V3c0-.14-.11-.25-.25-.25h-1.6Z" fill="#292D32"/></svg>