<svg width="24" height="24" fill="none" xmlns="http://www.w3.org/2000/svg"><path d="M22 22.75H2c-.41 0-.75-.34-.75-.75s.34-.75.75-.75h20c.41 0 .75.34.75.75s-.34.75-.75.75Z" fill="#292D32"/><path d="M14.25 22.75h-4.5c-.41 0-.75-.34-.75-.75V4c0-1.72.95-2.75 2.55-2.75h.9C14.05 1.25 15 2.28 15 4v18c0 .41-.34.75-.75.75Zm-3.75-1.5h3V4c0-1.15-.54-1.25-1.05-1.25h-.9c-.51 0-1.05.1-1.05 1.25v17.25ZM7 22.75H3c-.41 0-.75-.34-.75-.75V10c0-1.72.88-2.75 2.35-2.75h.8c1.47 0 2.35 1.03 2.35 2.75v12c0 .41-.34.75-.75.75Zm-3.25-1.5h2.5V10c0-1.25-.55-1.25-.85-1.25h-.8c-.3 0-.85 0-.85 1.25v11.25ZM21 22.75h-4c-.41 0-.75-.34-.75-.75v-7c0-1.72.88-2.75 2.35-2.75h.8c1.47 0 2.35 1.03 2.35 2.75v7c0 .41-.34.75-.75.75Zm-3.25-1.5h2.5V15c0-1.25-.55-1.25-.85-1.25h-.8c-.3 0-.85 0-.85 1.25v6.25Z" fill="#292D32"/></svg>