<svg width="24" height="24" fill="none" xmlns="http://www.w3.org/2000/svg"><path d="M15 22.75H9c-5.43 0-7.75-2.32-7.75-7.75V9c0-5.43 2.32-7.75 7.75-7.75h6c5.43 0 7.75 2.32 7.75 7.75v6c0 5.43-2.32 7.75-7.75 7.75Zm-6-20C4.39 2.75 2.75 4.39 2.75 9v6c0 4.61 1.64 6.25 6.25 6.25h6c4.61 0 6.25-1.64 6.25-6.25V9c0-4.61-1.64-6.25-6.25-6.25H9Z" fill="#292D32"/><path d="M14 17.75h-4c-2.07 0-3.75-1.68-3.75-3.75v-4c0-2.07 1.68-3.75 3.75-3.75h4c2.07 0 3.75 1.68 3.75 3.75v4c0 2.07-1.68 3.75-3.75 3.75Zm-4-10c-1.24 0-2.25 1.01-2.25 2.25v4c0 1.24 1.01 2.25 2.25 2.25h4c1.24 0 2.25-1.01 2.25-2.25v-4c0-1.24-1.01-2.25-2.25-2.25h-4Z" fill="#292D32"/><path d="M12 17.75c-.41 0-.75-.34-.75-.75V7c0-.41.34-.75.75-.75s.75.34.75.75v10c0 .41-.34.75-.75.75Z" fill="#292D32"/><path d="M17 12.75H7c-.41 0-.75-.34-.75-.75s.34-.75.75-.75h10c.41 0 .75.34.75.75s-.34.75-.75.75Z" fill="#292D32"/></svg>