<svg width="24" height="24" fill="none" xmlns="http://www.w3.org/2000/svg"><path d="M14.97 22.75h-6c-5.43 0-7.75-2.32-7.75-7.75V9c0-5.43 2.32-7.75 7.75-7.75h6c5.43 0 7.75 2.32 7.75 7.75v6c0 5.43-2.31 7.75-7.75 7.75Zm-6-20C4.36 2.75 2.72 4.39 2.72 9v6c0 4.61 1.64 6.25 6.25 6.25h6c4.61 0 6.25-1.64 6.25-6.25V9c0-4.61-1.64-6.25-6.25-6.25h-6Z" fill="#292D32"/><path d="M11.45 18.06c-.24 0-.82-.09-1.16-.96l-1.14-2.88c-.16-.41-.73-.79-1.16-.79l-6 .02a.749.749 0 1 1 0-1.5l6-.02H8c1.05 0 2.17.76 2.56 1.74l.91 2.3 2.06-5.22c.31-.78.86-.89 1.09-.91.23-.01.79.04 1.18.78l1.04 1.97c.18.34.72.67 1.11.67h4.06c.41 0 .75.34.75.75s-.34.75-.75.75h-4.06c-.95 0-1.99-.63-2.43-1.47l-.78-1.48-2.1 5.29c-.37.86-.96.96-1.19.96Z" fill="#292D32"/></svg>