<svg width="24" height="24" fill="none" xmlns="http://www.w3.org/2000/svg"><path d="M17.79 22.738H6.21c-2.74 0-4.96-2.23-4.96-4.97v-7.41c0-1.36.84-3.07 1.92-3.91l5.39-4.2c1.62-1.26 4.21-1.32 5.89-.14l6.18 4.33c1.19.83 2.12 2.61 2.12 4.06v7.28c0 2.73-2.22 4.96-4.96 4.96ZM9.48 3.428l-5.39 4.2c-.71.56-1.34 1.83-1.34 2.73v7.41a3.47 3.47 0 0 0 3.46 3.47h11.58c1.91 0 3.46-1.55 3.46-3.46v-7.28c0-.96-.69-2.29-1.48-2.83l-6.18-4.33c-1.14-.8-3.02-.76-4.11.09Z" fill="#292D32"/><path d="M7.5 17.251c-.19 0-.38-.07-.53-.22a.754.754 0 0 1 0-1.06l3.2-3.2a.741.741 0 0 1 1.15.11l1.09 1.64 3.55-3.55c.29-.29.77-.29 1.06 0 .29.29.29.77 0 1.06l-4.2 4.2a.741.741 0 0 1-1.15-.11l-1.09-1.64-2.55 2.55c-.15.15-.34.22-.53.22Z" fill="#292D32"/><path d="M16.5 14.25c-.41 0-.75-.34-.75-.75v-1.25H14.5c-.41 0-.75-.34-.75-.75s.34-.75.75-.75h2c.41 0 .75.34.75.75v2c0 .41-.34.75-.75.75Z" fill="#292D32"/></svg>