<svg width="24" height="24" fill="none" xmlns="http://www.w3.org/2000/svg"><path d="M6.88 18.898c-.41 0-.75-.34-.75-.75v-2.07c0-.41.34-.75.75-.75s.75.34.75.75v2.07c0 .42-.34.75-.75.75ZM12 18.9c-.41 0-.75-.34-.75-.75V14c0-.41.34-.75.75-.75s.75.34.75.75v4.15c0 .42-.34.75-.75.75ZM17.12 18.9c-.41 0-.75-.34-.75-.75v-6.22c0-.41.34-.75.75-.75s.75.34.75.75v6.22c0 .42-.33.75-.75.75ZM6.88 13.181c-.34 0-.64-.23-.73-.57-.1-.4.14-.81.55-.91 3.68-.92 6.92-2.93 9.39-5.8l.46-.54c.27-.31.74-.35 1.06-.08.31.27.35.74.08 1.06l-.46.54a19.513 19.513 0 0 1-10.17 6.28c-.06.02-.12.02-.18.02Z" fill="#292D32"/><path d="M17.12 9.522c-.41 0-.75-.34-.75-.75v-2.17h-2.18c-.41 0-.75-.34-.75-.75s.34-.75.75-.75h2.93c.41 0 .75.34.75.75v2.93c0 .41-.33.74-.75.74Z" fill="#292D32"/><path d="M15 22.75H9c-5.43 0-7.75-2.32-7.75-7.75V9c0-5.43 2.32-7.75 7.75-7.75h6c5.43 0 7.75 2.32 7.75 7.75v6c0 5.43-2.32 7.75-7.75 7.75Zm-6-20C4.39 2.75 2.75 4.39 2.75 9v6c0 4.61 1.64 6.25 6.25 6.25h6c4.61 0 6.25-1.64 6.25-6.25V9c0-4.61-1.64-6.25-6.25-6.25H9Z" fill="#292D32"/></svg>