<svg width="24" height="24" fill="none" xmlns="http://www.w3.org/2000/svg"><path d="M7.5 15.251c-.19 0-.38-.07-.53-.22a.754.754 0 0 1 0-1.06l3.2-3.2a.741.741 0 0 1 1.15.11l1.09 1.64 3.55-3.55c.29-.29.77-.29 1.06 0 .29.29.29.77 0 1.06l-4.2 4.2a.741.741 0 0 1-1.15-.11l-1.09-1.64-2.55 2.55c-.15.15-.34.22-.53.22Z" fill="#292D32"/><path d="M16.5 12.25c-.41 0-.75-.34-.75-.75v-1.25H14.5c-.41 0-.75-.34-.75-.75s.34-.75.75-.75h2c.41 0 .75.34.75.75v2c0 .41-.34.75-.75.75Z" fill="#292D32"/><path d="M15 22.75H9c-5.43 0-7.75-2.32-7.75-7.75V9c0-5.43 2.32-7.75 7.75-7.75h6c5.43 0 7.75 2.32 7.75 7.75v6c0 5.43-2.32 7.75-7.75 7.75Zm-6-20C4.39 2.75 2.75 4.39 2.75 9v6c0 4.61 1.64 6.25 6.25 6.25h6c4.61 0 6.25-1.64 6.25-6.25V9c0-4.61-1.64-6.25-6.25-6.25H9Z" fill="#292D32"/></svg>