<svg width="24" height="24" fill="none" xmlns="http://www.w3.org/2000/svg"><path d="M11 1.988c-4.97 0-9.01 4.04-9.01 9.01s4.04 9.01 9.01 9.01 9.01-4.04 9.01-9.01-4.04-9.01-9.01-9.01Zm0 11.26H8c-.41 0-.75-.34-.75-.75s.34-.75.75-.75h3c.41 0 .75.34.75.75s-.34.75-.75.75Zm3-3H8c-.41 0-.75-.34-.75-.75s.34-.75.75-.75h6c.41 0 .75.34.75.75s-.34.75-.75.75ZM21.99 18.95c-.33-.61-1.03-.95-1.97-.95-.71 0-1.32.29-1.68.79-.36.5-.44 1.17-.22 1.84.43 1.3 1.18 1.59 1.59 1.64.06.01.12.01.19.01.44 0 1.12-.19 1.78-1.18.53-.77.63-1.54.31-2.15Z" fill="#292D32"/></svg>