<svg width="24" height="24" fill="none" xmlns="http://www.w3.org/2000/svg"><path d="M18 2H6C4.34 2 3 3.33 3 4.97v10.91c0 1.64 1.34 2.97 3 2.97h.76c.8 0 1.56.31 2.12.87l1.71 1.69c.78.77 2.05.77 2.83 0l1.71-1.69c.56-.56 1.33-.87 2.12-.87H18c1.66 0 3-1.33 3-2.97V4.97C21 3.33 19.66 2 18 2Zm-7.62 11.01c.41 0 .75.34.75.75s-.34.75-.75.75H7.7c-.44 0-.85-.21-1.11-.57-.25-.34-.31-.76-.19-1.16.35-1.07 1.21-1.65 1.97-2.17.8-.54 1.25-.88 1.25-1.46 0-.52-.42-.94-.94-.94s-.93.43-.93.95c0 .41-.34.75-.75.75s-.75-.34-.75-.75c0-1.34 1.09-2.44 2.44-2.44 1.35 0 2.44 1.09 2.44 2.44 0 1.41-1.06 2.13-1.91 2.71-.53.36-1.03.7-1.28 1.15h2.44v-.01Zm6.62.07h-.21v.69c0 .41-.34.75-.75.75s-.75-.34-.75-.75v-.69h-1.97c-.49 0-.94-.26-1.19-.68-.25-.43-.25-.96 0-1.38.68-1.17 1.47-2.5 2.19-3.66.32-.51.93-.74 1.5-.58.57.17.97.69.96 1.29v3.52H17c.41 0 .75.34.75.75s-.34.74-.75.74Z" fill="#292D32"/><path d="M15.29 11.58V8.64c-.59.96-1.2 1.99-1.75 2.93h1.75v.01Z" fill="#292D32"/></svg>