<svg width="24" height="24" fill="none" xmlns="http://www.w3.org/2000/svg"><path d="M20.68 13.908v-.01c-.88-.93-2.11-1.5-3.48-1.5-2.65 0-4.8 2.15-4.8 4.8 0 1.23.47 2.35 1.23 3.2.88.98 2.15 1.6 3.57 1.6 2.65 0 4.8-2.15 4.8-4.8 0-1.27-.5-2.43-1.32-3.29Zm-1.69 4.1h-1.04v1.09c0 .41-.34.75-.75.75s-.75-.34-.75-.75v-1.09h-1.04c-.42 0-.75-.33-.75-.75 0-.41.32-.74.74-.75h1.05v-1c0-.02 0-.04.01-.06.02-.38.35-.69.74-.69.4 0 .73.32.75.72v1.03h1.04c.42 0 .75.34.75.75 0 .42-.33.75-.75.75Z" fill="#292D32"/><path d="M22 8.73c0 1.19-.19 2.29-.52 3.31-.06.21-.31.27-.49.14a6.346 6.346 0 0 0-3.79-1.24c-3.47 0-6.3 2.83-6.3 6.3 0 1.08.28 2.14.81 3.08.16.28-.03.64-.33.53-2.41-.82-7.28-3.81-8.86-8.81C2.19 11.02 2 9.92 2 8.73c0-3.09 2.49-5.59 5.56-5.59 1.81 0 3.43.88 4.44 2.23a5.549 5.549 0 0 1 4.44-2.23c3.07 0 5.56 2.5 5.56 5.59Z" fill="#292D32"/></svg>