<svg width="24" height="24" fill="none" xmlns="http://www.w3.org/2000/svg"><path d="m21.56 10.739-1.36-1.58c-.26-.3-.47-.86-.47-1.26v-1.7c0-1.06-.87-1.93-1.93-1.93h-1.7c-.39 0-.96-.21-1.26-.47l-1.58-1.36c-.69-.59-1.82-.59-2.52 0l-1.57 1.37c-.3.25-.87.46-1.26.46H6.18c-1.06 0-1.93.87-1.93 1.93v1.71c0 .39-.21.95-.46 1.25l-1.35 1.59c-.58.69-.58 1.81 0 2.5l1.35 1.59c.25.3.46.86.46 1.25v1.71c0 1.06.87 1.93 1.93 1.93h1.73c.39 0 .96.21 1.26.47l1.58 1.36c.69.59 1.82.59 2.52 0l1.58-1.36c.3-.26.86-.47 1.26-.47h1.7c1.06 0 1.93-.87 1.93-1.93v-1.7c0-.39.21-.96.47-1.26l1.36-1.58c.58-.69.58-1.83-.01-2.52Zm-4.88 1.26-1.17 3.56c-.15.59-.78 1.07-1.42 1.07h-1.85c-.32 0-.77-.11-.97-.31l-1.47-1.15c-.03.64-.32.91-1.03.91h-.48c-.74 0-1.04-.29-1.04-.99v-4.78c0-.7.3-.99 1.04-.99h.49c.74 0 1.04.29 1.04.99v.36l1.94-2.88c.2-.31.71-.53 1.14-.36.47.16.77.68.67 1.14l-.24 1.56c-.02.14.01.27.1.37.08.09.2.15.33.15h1.95c.38 0 .7.15.89.42.17.26.2.59.08.93Z" fill="#292D32"/></svg>