<svg width="24" height="24" fill="none" xmlns="http://www.w3.org/2000/svg"><path d="M18.8 9.91c-1.13 0-2.14.55-2.77 1.39a3.466 3.466 0 0 0-2.77-1.39c-1.91 0-3.46 1.56-3.46 3.48 0 .74.12 1.43.32 2.06.98 3.11 4.02 4.98 5.52 5.49.21.07.56.07.77 0 1.5-.51 4.54-2.37 5.52-5.49.21-.64.32-1.32.32-2.06a3.457 3.457 0 0 0-3.45-3.48Z" fill="#292D32"/><path d="M20.75 8.342c0 .23-.23.38-.45.32a4.81 4.81 0 0 0-3.95.74c-.22.16-.52.16-.73 0a4.65 4.65 0 0 0-2.76-.9c-2.58 0-4.68 2.11-4.68 4.71 0 2.82 1.35 4.93 2.71 6.34.07.07.01.19-.08.15C8.08 18.772 2 14.912 2 8.342c0-2.9 2.33-5.24 5.21-5.24 1.71 0 3.22.82 4.17 2.09a5.218 5.218 0 0 1 4.17-2.09c2.87 0 5.2 2.34 5.2 5.24Z" fill="#292D32"/></svg>