<svg width="24" height="24" fill="none" xmlns="http://www.w3.org/2000/svg"><path d="m13.3 8.11 1.32 2.64c.18.36.66.72 1.06.78l2.39.4c1.53.26 1.89 1.36.79 2.46L17 16.26c-.31.31-.49.92-.39 1.36l.53 2.31c.42 1.82-.55 2.53-2.16 1.58l-2.24-1.33c-.41-.24-1.07-.24-1.48 0L9.01 21.5c-1.61.95-2.58.24-2.16-1.58l.53-2.31c.1-.43-.08-1.04-.39-1.36L5.14 14.4c-1.1-1.1-.74-2.21.79-2.46l2.39-.4c.4-.07.88-.42 1.06-.78l1.32-2.64c.71-1.44 1.89-1.44 2.6-.01ZM6 9.75c-.41 0-.75-.34-.75-.75V2c0-.41.34-.75.75-.75s.75.34.75.75v7c0 .41-.34.75-.75.75ZM18 9.75c-.41 0-.75-.34-.75-.75V2c0-.41.34-.75.75-.75s.75.34.75.75v7c0 .41-.34.75-.75.75ZM12 4.75c-.41 0-.75-.34-.75-.75V2c0-.41.34-.75.75-.75s.75.34.75.75v2c0 .41-.34.75-.75.75Z" fill="#292D32"/></svg>