<svg width="24" height="24" fill="none" xmlns="http://www.w3.org/2000/svg"><path d="m15.39 5.211 1.41 2.82c.19.39.7.76 1.13.84l2.55.42c1.63.27 2.01 1.45.84 2.63l-1.99 1.99c-.33.33-.52.98-.41 1.45l.57 2.46c.45 1.94-.59 2.7-2.3 1.68l-2.39-1.42c-.43-.26-1.15-.26-1.58 0l-2.39 1.42c-1.71 1.01-2.75.26-2.3-1.68l.57-2.46c.09-.48-.1-1.13-.43-1.46l-1.99-1.99c-1.17-1.17-.79-2.35.84-2.63l2.55-.42c.43-.07.94-.45 1.13-.84l1.41-2.82c.77-1.52 2.01-1.52 2.78.01ZM8 5.75H2c-.41 0-.75-.34-.75-.75s.34-.75.75-.75h6c.41 0 .75.34.75.75s-.34.75-.75.75ZM5 19.75H2c-.41 0-.75-.34-.75-.75s.34-.75.75-.75h3c.41 0 .75.34.75.75s-.34.75-.75.75ZM3 12.75H2c-.41 0-.75-.34-.75-.75s.34-.75.75-.75h1c.41 0 .75.34.75.75s-.34.75-.75.75Z" fill="#292D32"/></svg>