<svg width="24" height="24" fill="none" xmlns="http://www.w3.org/2000/svg"><path d="M12 22c5.523 0 10-4.477 10-10S17.523 2 12 2 2 6.477 2 12s4.477 10 10 10Z" stroke="#292D32" stroke-width="1.5" stroke-linecap="round" stroke-linejoin="round"/><path opacity=".4" d="M12.33 17.45c-.18.06-.49.06-.67 0-1.56-.53-5.06-2.76-5.06-6.54 0-1.67 1.34-3.02 3-3.02.98 0 1.85.47 2.4 1.21.54-.73 1.42-1.21 2.4-1.21 1.66 0 3 1.35 3 3.02 0 3.78-3.5 6.01-5.07 6.54Z" stroke="#292D32" stroke-width="1.5" stroke-linecap="round" stroke-linejoin="round"/></svg>