<svg width="24" height="24" fill="none" xmlns="http://www.w3.org/2000/svg"><path opacity=".4" d="M21.49 12.002c.32-1.02.51-2.12.51-3.31 0-3.09-2.49-5.59-5.56-5.59-1.82 0-3.43.88-4.44 2.24a5.53 5.53 0 0 0-4.44-2.24c-3.07 0-5.56 2.5-5.56 5.59 0 7 6.48 11.13 9.38 12.13.17.06.39.09.62.09" stroke="#292D32" stroke-width="1.5" stroke-linecap="round" stroke-linejoin="round"/><path d="m19.21 15.741-3.54 3.54c-.14.14-.27.4-.3.59l-.19 1.35c-.07.49.27.83.76.76l1.35-.19c.19-.03.46-.16.59-.3l3.54-3.54c.61-.61.9-1.32 0-2.22-.89-.89-1.6-.6-2.21.01Z" stroke="#292D32" stroke-width="1.5" stroke-miterlimit="10" stroke-linecap="round" stroke-linejoin="round"/><path d="M18.7 16.25c.3 1.08 1.14 1.92 2.22 2.22" stroke="#292D32" stroke-width="1.5" stroke-miterlimit="10" stroke-linecap="round" stroke-linejoin="round"/></svg>