<svg width="24" height="24" fill="none" xmlns="http://www.w3.org/2000/svg"><path d="M10.75 2.45c.69-.59 1.82-.59 2.52 0l1.58 1.36c.3.26.86.47 1.26.47h1.7c1.06 0 1.93.87 1.93 1.93v1.7c0 .39.21.96.47 1.26l1.36 1.58c.59.69.59 1.82 0 2.52l-1.36 1.58c-.26.3-.47.86-.47 1.26v1.7c0 1.06-.87 1.93-1.93 1.93h-1.7c-.39 0-.96.21-1.26.47l-1.58 1.36c-.69.59-1.82.59-2.52 0l-1.58-1.36c-.3-.26-.86-.47-1.26-.47H6.18c-1.06 0-1.93-.87-1.93-1.93V16.1c0-.39-.21-.95-.46-1.25l-1.35-1.59c-.58-.69-.58-1.81 0-2.5l1.35-1.59c.25-.3.46-.86.46-1.25V6.21c0-1.06.87-1.93 1.93-1.93h1.73c.39 0 .96-.21 1.26-.47l1.58-1.36Z" stroke="#292D32" stroke-width="1.5" stroke-linecap="round" stroke-linejoin="round"/><g opacity=".4" stroke="#292D32" stroke-width="1.5"><path d="m9.891 14.818 1.45 1.12c.19.19.61.28.89.28h1.77c.56 0 1.17-.42 1.31-.98l1.12-3.42c.23-.65-.19-1.22-.89-1.22h-1.87c-.28 0-.51-.23-.47-.56l.23-1.5c.09-.42-.19-.89-.61-1.03-.37-.14-.84.05-1.03.33l-1.92 2.85" stroke-miterlimit="10"/><path d="M7.5 14.818v-4.58c0-.66.28-.89.94-.89h.47c.65 0 .94.23.94.89v4.58c0 .65-.28.89-.94.89h-.47c-.66 0-.94-.23-.94-.89Z" stroke-linecap="round" stroke-linejoin="round"/></g></svg>