<svg width="24" height="24" fill="none" xmlns="http://www.w3.org/2000/svg"><path d="m13.3 8.112 1.32 2.64c.18.36.66.72 1.06.78l2.39.4c1.53.26 1.89 1.36.79 2.46L17 16.252c-.31.31-.49.92-.39 1.36l.53 2.31c.42 1.82-.55 2.53-2.16 1.58l-2.24-1.33c-.41-.24-1.07-.24-1.48 0l-2.24 1.33c-1.61.95-2.58.24-2.16-1.58l.53-2.31c.1-.43-.08-1.04-.39-1.36l-1.86-1.86c-1.1-1.1-.74-2.21.79-2.46l2.39-.4c.4-.07.88-.42 1.06-.78l1.32-2.64c.71-1.43 1.89-1.43 2.6 0Z" stroke="#292D32" stroke-width="1.5" stroke-linecap="round" stroke-linejoin="round"/><path opacity=".4" d="M6 9V2M18 9V2M12 4V2" stroke="#292D32" stroke-width="1.5" stroke-linecap="round" stroke-linejoin="round"/></svg>