<svg width="24" height="24" fill="none" xmlns="http://www.w3.org/2000/svg"><path d="M12.14 15.82c-.41 0-.75-.34-.75-.75v-1.96c0-2.93 2.38-5.31 5.32-5.31h1.96c.41 0 .75.34.75.75s-.34.75-.75.75h-1.96c-2.1 0-3.82 1.71-3.82 3.81v1.96c0 .42-.34.75-.75.75Z" fill="#292D32"/><path d="M12.141 17.999c-.41 0-.75-.34-.75-.75v-4.13c0-2.1-1.71-3.81-3.81-3.81h-1.96c-.41 0-.75-.34-.75-.75s.34-.75.75-.75h1.96c2.93 0 5.31 2.38 5.31 5.31v4.13c0 .41-.34.75-.75.75Z" fill="#292D32"/><path d="M7.141 11.101c-.19 0-.38-.07-.53-.22l-1.8-1.8a.754.754 0 0 1 0-1.06l1.8-1.8c.29-.29.77-.29 1.06 0 .29.29.29.77 0 1.06l-1.27 1.27 1.27 1.27c.29.29.29.77 0 1.06-.15.15-.34.22-.53.22ZM16.86 11.101c-.19 0-.38-.07-.53-.22a.754.754 0 0 1 0-1.06l1.27-1.27-1.27-1.27a.754.754 0 0 1 0-1.06c.29-.29.77-.29 1.06 0l1.8 1.8c.29.29.29.77 0 1.06l-1.8 1.8c-.14.15-.34.22-.53.22Z" fill="#292D32"/><path d="M15 22.75H9c-5.43 0-7.75-2.32-7.75-7.75V9c0-5.43 2.32-7.75 7.75-7.75h6c5.43 0 7.75 2.32 7.75 7.75v6c0 5.43-2.32 7.75-7.75 7.75Zm-6-20C4.39 2.75 2.75 4.39 2.75 9v6c0 4.61 1.64 6.25 6.25 6.25h6c4.61 0 6.25-1.64 6.25-6.25V9c0-4.61-1.64-6.25-6.25-6.25H9Z" fill="#292D32"/></svg>