<svg width="24" height="24" fill="none" xmlns="http://www.w3.org/2000/svg"><path d="M6.189 22.062c-1 0-1.97-.39-2.74-1.14-1.25-1.22-1.55-3.02-.77-4.58l1.62-3.24c.34-.68.34-1.5 0-2.19l-1.62-3.25c-.78-1.56-.48-3.36.77-4.58 1.25-1.22 3.05-1.49 4.6-.67l11.59 6.1a3.93 3.93 0 0 1 2.11 3.49c0 1.47-.81 2.81-2.11 3.49l-11.59 6.1c-.6.32-1.23.47-1.86.47Zm.01-18.62c-.69 0-1.29.32-1.7.72-.62.6-1.06 1.67-.48 2.84l1.62 3.24c.55 1.11.55 2.42 0 3.53l-1.62 3.24c-.59 1.17-.14 2.24.48 2.84.62.6 1.69 1.03 2.85.42l11.59-6.1c.82-.43 1.31-1.24 1.31-2.16 0-.92-.49-1.73-1.31-2.16l-11.59-6.12c-.4-.21-.79-.29-1.15-.29Z" fill="#292D32"/></svg>