<svg width="24" height="24" fill="none" xmlns="http://www.w3.org/2000/svg"><path d="M10.419 13.75c-.13 0-.26-.03-.38-.1a3.875 3.875 0 0 1-1.91-3.33 3.867 3.867 0 0 1 7.21-1.95.752.752 0 1 1-1.3.76c-.42-.74-1.2-1.19-2.04-1.19-1.3 0-2.37 1.06-2.37 2.37 0 .84.45 1.62 1.17 2.04.36.21.48.67.27 1.03-.14.23-.39.37-.65.37Z" fill="#292D32"/><path d="M5.99 18.558c-.23 0-.46-.11-.61-.31-2.4-3.29-3.24-6.63-2.49-9.93.78-3.43 3.3-5.97 6.74-6.8 3.6-.87 7.38.3 9.61 2.97.27.32.22.79-.09 1.06a.75.75 0 0 1-1.06-.1c-1.87-2.24-5.05-3.21-8.11-2.48-2.92.7-4.97 2.77-5.63 5.67-.65 2.86.1 5.79 2.24 8.71.24.33.17.8-.16 1.05-.13.11-.29.16-.44.16ZM11.998 22.758a5.97 5.97 0 0 1-4.13-1.67.746.746 0 0 1-.02-1.06c.29-.3.76-.31 1.06-.02a4.426 4.426 0 0 0 6.17 0c2.67-2.57 5.63-6.63 4.57-11.34a.753.753 0 0 1 1.47-.33c1.22 5.39-2.04 9.91-4.99 12.75a5.97 5.97 0 0 1-4.13 1.67Z" fill="#292D32"/><path d="M2.001 22.751c-.19 0-.38-.07-.53-.22a.754.754 0 0 1 0-1.06l20-20c.29-.29.77-.29 1.06 0 .29.29.29.77 0 1.06l-20 20c-.15.15-.34.22-.53.22Z" fill="#292D32"/></svg>