<svg width="24" height="24" fill="none" xmlns="http://www.w3.org/2000/svg"><path d="M14.75 11.75h-5.5c-.41 0-.75-.34-.75-.75s.34-.75.75-.75h5.5c.41 0 .75.34.75.75s-.34.75-.75.75Z" fill="#292D32"/><path d="M12 14.5c-.41 0-.75-.34-.75-.75v-5.5c0-.41.34-.75.75-.75s.75.34.75.75v5.5c0 .41-.34.75-.75.75Z" fill="#292D32"/><path d="M12.002 22.76a5.97 5.97 0 0 1-4.13-1.67c-2.95-2.84-6.21-7.37-4.98-12.76 1.11-4.89 5.38-7.08 9.11-7.08h.01c3.73 0 8 2.19 9.11 7.09 1.22 5.39-2.04 9.91-4.99 12.75a5.97 5.97 0 0 1-4.13 1.67Zm0-20.01c-2.91 0-6.65 1.55-7.64 5.91-1.08 4.71 1.88 8.77 4.56 11.34a4.425 4.425 0 0 0 6.17 0c2.67-2.57 5.63-6.63 4.57-11.34-1-4.36-4.75-5.91-7.66-5.91Z" fill="#292D32"/></svg>