<svg width="24" height="24" fill="none" xmlns="http://www.w3.org/2000/svg"><path d="M15.65 21.408c-.43 0-.86-.09-1.21-.26l-5.25-2.63c-.3-.15-.89-.14-1.18.03l-2.36 1.35c-1.02.58-2.07.66-2.86.19-.8-.46-1.25-1.4-1.25-2.58v-9.72c0-.91.6-1.94 1.39-2.39l4.33-2.48c.73-.42 1.84-.45 2.59-.07l5.25 2.63c.3.15.88.13 1.18-.03l2.35-1.34c1.02-.58 2.07-.66 2.86-.19.8.46 1.25 1.4 1.25 2.58v9.73c0 .91-.6 1.94-1.39 2.39l-4.33 2.48c-.38.2-.88.31-1.37.31Zm-7.01-4.49c.43 0 .86.09 1.21.26l5.25 2.63c.3.15.88.13 1.18-.03l4.33-2.48c.32-.18.63-.72.63-1.08v-9.73c0-.63-.18-1.1-.51-1.28-.32-.18-.82-.11-1.36.2l-2.35 1.34c-.73.42-1.84.45-2.59.07l-5.25-2.63c-.3-.15-.88-.13-1.18.03l-4.33 2.48c-.32.18-.63.72-.63 1.09v9.73c0 .63.18 1.1.5 1.28.32.19.82.11 1.37-.2l2.35-1.34c.39-.23.89-.34 1.38-.34Z" fill="#292D32"/><path d="M8.559 17.75c-.41 0-.75-.34-.75-.75V4c0-.41.34-.75.75-.75s.75.34.75.75v13c0 .41-.34.75-.75.75ZM15.73 20.751c-.41 0-.75-.34-.75-.75V6.621c0-.41.34-.75.75-.75s.75.34.75.75v13.38c0 .41-.34.75-.75.75Z" fill="#292D32"/></svg>