<svg width="24" height="24" fill="none" xmlns="http://www.w3.org/2000/svg"><path d="M12 22.748c-5.93 0-10.75-4.82-10.75-10.75 0-1.88.49-3.73 1.43-5.36.21-.36.66-.48 1.02-.28l8.67 4.98c.36.21.48.66.28 1.02-.21.36-.66.48-1.02.28l-8-4.59a9.218 9.218 0 0 0-.88 3.94c0 5.1 4.15 9.25 9.25 9.25s9.25-4.15 9.25-9.25-4.15-9.25-9.25-9.25c-2.02 0-3.94.64-5.55 1.85a.75.75 0 0 1-.9-1.2c1.87-1.4 4.1-2.15 6.45-2.15 5.93 0 10.75 4.82 10.75 10.75S17.93 22.748 12 22.748Z" fill="#292D32"/><path d="M12 18.75c-3.72 0-6.75-3.03-6.75-6.75 0-1.2.32-2.39.93-3.42a.752.752 0 1 1 1.3.76 5.255 5.255 0 0 0 4.53 7.91c2.89 0 5.25-2.35 5.25-5.25a5.256 5.256 0 0 0-7.49-4.75c-.38.17-.82.01-1-.36a.745.745 0 0 1 .36-1c.9-.42 1.87-.64 2.87-.64 3.72 0 6.75 3.03 6.75 6.75s-3.03 6.75-6.75 6.75Z" fill="#292D32"/></svg>