<svg width="24" height="24" fill="none" xmlns="http://www.w3.org/2000/svg"><path d="M5.512 6.5c-.55 0-1-.45-1-1s.44-1 1-1h.01c.55 0 1 .45 1 1s-.45 1-1.01 1ZM18.512 19.5c-.55 0-1-.45-1-1s.44-1 1-1h.01c.55 0 1 .45 1 1s-.45 1-1.01 1Z" fill="#292D32"/><path d="M5.469 9.75a4.26 4.26 0 0 1-4.25-4.25 4.26 4.26 0 0 1 4.25-4.25 4.26 4.26 0 0 1 4.25 4.25c0 2.34-1.9 4.25-4.25 4.25Zm0-7c-1.52 0-2.75 1.23-2.75 2.75s1.23 2.75 2.75 2.75 2.75-1.23 2.75-2.75-1.23-2.75-2.75-2.75ZM19.969 22.75h-3c-1.52 0-2.75-1.23-2.75-2.75v-3c0-1.52 1.23-2.75 2.75-2.75h3c1.52 0 2.75 1.23 2.75 2.75v3c0 1.52-1.23 2.75-2.75 2.75Zm-3-7c-.69 0-1.25.56-1.25 1.25v3c0 .69.56 1.25 1.25 1.25h3c.69 0 1.25-.56 1.25-1.25v-3c0-.69-.56-1.25-1.25-1.25h-3ZM12.001 19.75h-2.68c-1.16 0-2.17-.7-2.57-1.78-.41-1.08-.11-2.27.76-3.04l7.99-6.99c.48-.42.49-.99.35-1.38-.15-.39-.53-.81-1.17-.81h-2.68c-.41 0-.75-.34-.75-.75s.34-.75.75-.75h2.68c1.16 0 2.17.7 2.57 1.78.41 1.08.11 2.27-.76 3.04l-7.99 6.99c-.48.42-.49.99-.35 1.38.15.39.53.81 1.17.81h2.68c.41 0 .75.34.75.75s-.34.75-.75.75Z" fill="#292D32"/></svg>