<svg width="24" height="24" fill="none" xmlns="http://www.w3.org/2000/svg"><path d="M13.5 9h-3c-1.65 0-3 1.35-3 3v3c0 1.65 1.35 3 3 3h3c1.65 0 3-1.35 3-3v-3M12 9v9M7.5 13.5h9" stroke="#292D32" stroke-width="1.5" stroke-linecap="round" stroke-linejoin="round"/><path d="M22 10.498c0-1.21-.81-2.76-1.8-3.45l-6.18-4.33c-1.4-.98-3.65-.93-5 .12l-5.39 4.2c-.9.7-1.63 2.19-1.63 3.32v7.41c0 2.32 1.89 4.22 4.21 4.22h11.58c2.32 0 4.21-1.9 4.21-4.21v-3.1" stroke="#292D32" stroke-width="1.5" stroke-linecap="round" stroke-linejoin="round"/></svg>