<svg width="24" height="24" fill="none" xmlns="http://www.w3.org/2000/svg"><path d="M16.45 14.4V8.5c0-.55-.45-1-1-1h-2.9" stroke="#292D32" stroke-width="1.5" stroke-linecap="round" stroke-linejoin="round"/><path d="m14.05 6-1.8 1.5 1.8 1.5M7.55 10.2v4.2M7.7 9.9a1.95 1.95 0 1 0 0-3.9 1.95 1.95 0 0 0 0 3.9ZM7.55 18a1.8 1.8 0 1 0 0-3.6 1.8 1.8 0 0 0 0 3.6ZM16.45 18a1.8 1.8 0 1 0 0-3.6 1.8 1.8 0 0 0 0 3.6Z" stroke="#292D32" stroke-width="1.5" stroke-linecap="round" stroke-linejoin="round"/><path d="M9 22h6c5 0 7-2 7-7V9c0-5-2-7-7-7H9C4 2 2 4 2 9v6c0 5 2 7 7 7Z" stroke="#292D32" stroke-width="1.5" stroke-linecap="round" stroke-linejoin="round"/></svg>