<svg width="24" height="24" fill="none" xmlns="http://www.w3.org/2000/svg"><path d="M16 8.989v11.36c0 1.45-1.04 2.06-2.31 1.36l-3.93-2.19c-.42-.23-1.1-.23-1.52 0l-3.93 2.19c-1.27.7-2.31.09-2.31-1.36V8.989c0-1.71 1.4-3.11 3.11-3.11h7.78c1.71 0 3.11 1.4 3.11 3.11Z" stroke="#292D32" stroke-width="1.5" stroke-linecap="round" stroke-linejoin="round"/><g opacity=".4" stroke="#292D32" stroke-width="1.5" stroke-linecap="round" stroke-linejoin="round"><path d="m7.59 13.41 2.82-2.82M10.41 13.41l-2.82-2.82"/></g><path d="M22 5.11v11.36c0 1.45-1.04 2.06-2.31 1.36L16 15.77V8.99c0-1.71-1.4-3.11-3.11-3.11H8v-.77C8 3.4 9.4 2 11.11 2h7.78C20.6 2 22 3.4 22 5.11Z" stroke="#292D32" stroke-width="1.5" stroke-linecap="round" stroke-linejoin="round"/></svg>