<svg width="24" height="24" fill="none" xmlns="http://www.w3.org/2000/svg"><path d="M14.5 9.25H2c-.41 0-.75-.34-.75-.75s.34-.75.75-.75h12.5c.41 0 .75.34.75.75s-.34.75-.75.75ZM8 17.25H6c-.41 0-.75-.34-.75-.75s.34-.75.75-.75h2c.41 0 .75.34.75.75s-.34.75-.75.75ZM14.5 17.25h-4c-.41 0-.75-.34-.75-.75s.34-.75.75-.75h4c.41 0 .75.34.75.75s-.34.75-.75.75Z" fill="#292D32"/><path d="M17.56 21.25H6.44c-3.98 0-5.19-1.2-5.19-5.14V7.89c0-3.94 1.21-5.14 5.19-5.14h8.06c.41 0 .75.34.75.75s-.34.75-.75.75H6.44c-3.14 0-3.69.54-3.69 3.64v8.21c0 3.1.55 3.64 3.69 3.64h11.11c3.14 0 3.69-.54 3.69-3.64v-2.08c0-.41.34-.75.75-.75s.75.34.75.75v2.08c.01 3.95-1.2 5.15-5.18 5.15Z" fill="#292D32"/><path d="M20 10.252c-.41 0-.75-.34-.75-.75v-6c0-.3.18-.58.46-.69.28-.11.6-.05.82.16l2 2c.29.29.29.77 0 1.06-.29.29-.77.29-1.06 0l-.72-.72v4.19c0 .41-.34.75-.75.75Z" fill="#292D32"/><path d="M18.001 6.251c-.19 0-.38-.07-.53-.22a.754.754 0 0 1 0-1.06l2-2c.29-.29.77-.29 1.06 0 .29.29.29.77 0 1.06l-2 2c-.15.15-.34.22-.53.22Z" fill="#292D32"/></svg>