<svg width="24" height="24" fill="none" xmlns="http://www.w3.org/2000/svg"><path d="M22 10.75H2c-.41 0-.75-.34-.75-.75s.34-.75.75-.75h20c.41 0 .75.34.75.75s-.34.75-.75.75Z" fill="#292D32"/><path d="M11.552 21.252h-5.11c-3.98 0-5.2-1.2-5.2-5.14v-8.22c0-3.15.67-4.9 4.24-5.11.3-.01.62-.02.96-.02h11.11c3.98 0 5.2 1.2 5.2 5.14v4.41c0 .41-.34.75-.75.75s-.75-.34-.75-.75v-4.41c0-3.09-.55-3.64-3.7-3.64H6.442c-.32 0-.61.01-.89.02-2.17.13-2.81.62-2.81 3.62v8.22c0 3.09.55 3.64 3.7 3.64h5.11c.41 0 .75.34.75.75s-.33.74-.75.74Z" fill="#292D32"/><path d="M10 16.75H6c-.41 0-.75-.34-.75-.75s.34-.75.75-.75h4c.41 0 .75.34.75.75s-.34.75-.75.75ZM18 22.75c-1.66 0-3.22-.88-4.06-2.31-.45-.72-.69-1.57-.69-2.44 0-2.62 2.13-4.75 4.75-4.75s4.75 2.13 4.75 4.75c0 .87-.24 1.72-.69 2.45-.84 1.42-2.4 2.3-4.06 2.3Zm0-8c-1.79 0-3.25 1.46-3.25 3.25 0 .59.16 1.17.47 1.67.58.98 1.65 1.58 2.78 1.58A3.256 3.256 0 0 0 21.25 18c0-1.79-1.46-3.25-3.25-3.25Z" fill="#292D32"/><path d="M17.429 19.741c-.19 0-.38-.07-.53-.22l-.99-.99a.754.754 0 0 1 0-1.06c.29-.29.77-.29 1.06 0l.48.48 1.6-1.48c.3-.28.78-.26 1.06.04s.26.78-.04 1.06l-2.13 1.97c-.15.13-.33.2-.51.2Z" fill="#292D32"/></svg>