<svg width="24" height="24" fill="none" xmlns="http://www.w3.org/2000/svg"><path d="M11.5 9.25H2c-.41 0-.75-.34-.75-.75s.34-.75.75-.75h9.5c.41 0 .75.34.75.75s-.34.75-.75.75ZM8 17.25H6c-.41 0-.75-.34-.75-.75s.34-.75.75-.75h2c.41 0 .75.34.75.75s-.34.75-.75.75ZM14.5 17.25h-4c-.41 0-.75-.34-.75-.75s.34-.75.75-.75h4c.41 0 .75.34.75.75s-.34.75-.75.75Z" fill="#292D32"/><path d="M17.56 21.25H6.44c-3.98 0-5.19-1.2-5.19-5.14V7.89c0-3.94 1.21-5.14 5.19-5.14h8.06c.41 0 .75.34.75.75s-.34.75-.75.75H6.44c-3.14 0-3.69.54-3.69 3.64v8.21c0 3.1.55 3.64 3.69 3.64h11.11c3.14 0 3.69-.54 3.69-3.64v-4.08c0-.41.34-.75.75-.75s.75.34.75.75v4.08c.01 3.95-1.2 5.15-5.18 5.15Z" fill="#292D32"/><path d="M15.521 11.438c-.39 0-.76-.14-1.02-.41-.32-.32-.46-.78-.39-1.26l.2-1.42c.05-.36.27-.79.52-1.04l3.71-3.71c1.47-1.47 2.75-.63 3.39 0 .63.63 1.47 1.91 0 3.39l-3.71 3.71c-.26.26-.69.47-1.04.52l-1.42.2c-.08.01-.16.02-.24.02Zm4.71-7.16c-.2 0-.38.14-.63.38l-3.7 3.71a.75.75 0 0 0-.1.2l-.2 1.35 1.36-.19a.75.75 0 0 0 .2-.1l3.71-3.71c.47-.47.54-.73 0-1.26-.26-.26-.45-.38-.64-.38Z" fill="#292D32"/><path d="M20.868 7.742c-.07 0-.14-.01-.2-.03a4.121 4.121 0 0 1-2.84-2.84.76.76 0 0 1 .52-.93c.4-.11.81.12.93.52.25.87.94 1.56 1.81 1.81.4.11.63.53.52.92a.79.79 0 0 1-.74.55Z" fill="#292D32"/></svg>