<svg width="24" height="24" fill="none" xmlns="http://www.w3.org/2000/svg"><path d="M10.84 13.54h-1.5c-1.15 0-2.08-.96-2.08-2.15 0-.41.34-.75.75-.75s.75.34.75.75c0 .36.26.65.58.65h1.5c.23 0 .41-.21.41-.47 0-.35-.06-.37-.29-.45l-2.41-.84c-.87-.3-1.3-.91-1.3-1.86 0-1.08.86-1.97 1.91-1.97h1.5c1.15 0 2.08.96 2.08 2.15 0 .41-.34.75-.75.75s-.75-.34-.75-.75c0-.36-.26-.65-.58-.65h-1.5c-.23 0-.41.21-.41.47 0 .35.06.37.29.45l2.41.84c.87.31 1.29.92 1.29 1.86.01 1.09-.85 1.97-1.9 1.97Z" fill="#292D32"/><path d="M10 14.342c-.41 0-.75-.34-.75-.75v-.74c0-.41.34-.75.75-.75s.75.34.75.75v.74c0 .42-.34.75-.75.75ZM10 7.94c-.41 0-.75-.34-.75-.75v-.78c0-.41.34-.75.75-.75s.75.34.75.75v.78c0 .41-.34.75-.75.75Z" fill="#292D32"/><path d="M9.99 18.718c-4.82 0-8.74-3.92-8.74-8.74s3.92-8.74 8.74-8.74 8.74 3.92 8.74 8.74-3.93 8.74-8.74 8.74Zm0-15.97c-3.99 0-7.24 3.25-7.24 7.24s3.25 7.23 7.24 7.23 7.24-3.25 7.24-7.24-3.25-7.23-7.24-7.23Z" fill="#292D32"/><path d="M17.021 22.718a5.7 5.7 0 0 1-4.66-2.42.753.753 0 1 1 1.23-.87 4.197 4.197 0 0 0 7.63-2.42c0-1.35-.66-2.63-1.76-3.42a.751.751 0 1 1 .88-1.22 5.72 5.72 0 0 1 2.38 4.64 5.7 5.7 0 0 1-5.7 5.71Z" fill="#292D32"/></svg>