<svg width="24" height="24" fill="none" xmlns="http://www.w3.org/2000/svg"><path d="M13.4 17.418h-2.51c-1.64 0-2.97-1.38-2.97-3.08 0-.41.34-.75.75-.75s.75.34.75.75c0 .87.66 1.58 1.47 1.58h2.51c.65 0 1.19-.58 1.19-1.28 0-.87-.31-1.04-.82-1.22l-4.03-1.42c-.78-.27-1.83-.85-1.83-2.64 0-1.54 1.21-2.78 2.69-2.78h2.51c1.64 0 2.97 1.38 2.97 3.08 0 .41-.34.75-.75.75s-.75-.34-.75-.75c0-.87-.66-1.58-1.47-1.58H10.6c-.65 0-1.19.58-1.19 1.28 0 .87.31 1.04.82 1.22l4.03 1.42c.78.27 1.83.85 1.83 2.64-.01 1.53-1.21 2.78-2.69 2.78Z" fill="#292D32"/><path d="M12 18.75c-.41 0-.75-.34-.75-.75V6c0-.41.34-.75.75-.75s.75.34.75.75v12c0 .41-.34.75-.75.75Z" fill="#292D32"/><path d="M12 22.75C6.07 22.75 1.25 17.93 1.25 12S6.07 1.25 12 1.25 22.75 6.07 22.75 12 17.93 22.75 12 22.75Zm0-20C6.9 2.75 2.75 6.9 2.75 12S6.9 21.25 12 21.25s9.25-4.15 9.25-9.25S17.1 2.75 12 2.75Z" fill="#292D32"/></svg>