<svg width="24" height="24" fill="none" xmlns="http://www.w3.org/2000/svg"><path d="M17.74 22.75H6.26c-2.49 0-4.51-2.02-4.51-4.51v-6.73C1.75 9.02 3.77 7 6.26 7h11.48c2.49 0 4.51 2.02 4.51 4.51v1.44c0 .41-.34.75-.75.75h-2.02c-.35 0-.67.13-.9.37l-.01.01c-.28.27-.41.64-.38 1.02.06.66.69 1.19 1.41 1.19h1.9c.41 0 .75.34.75.75v1.19c0 2.5-2.02 4.52-4.51 4.52ZM6.26 8.5c-1.66 0-3.01 1.35-3.01 3.01v6.73c0 1.66 1.35 3.01 3.01 3.01h11.48c1.66 0 3.01-1.35 3.01-3.01v-.44H19.6c-1.51 0-2.79-1.12-2.91-2.56-.08-.82.22-1.63.82-2.22.52-.53 1.22-.82 1.97-.82h1.27v-.69c0-1.66-1.35-3.01-3.01-3.01H6.26Z" fill="#292D32"/><path d="M2.5 13.16c-.41 0-.75-.34-.75-.75V7.84c0-1.49.94-2.84 2.33-3.37l7.94-3c.82-.31 1.73-.2 2.44.3.72.5 1.14 1.31 1.14 2.18v3.8c0 .41-.34.75-.75.75s-.75-.34-.75-.75v-3.8c0-.38-.18-.73-.5-.95-.32-.22-.7-.27-1.06-.13l-7.94 3c-.81.31-1.36 1.1-1.36 1.97v4.57c.01.42-.33.75-.74.75ZM19.599 17.8c-1.51 0-2.79-1.12-2.91-2.56-.08-.83.22-1.64.82-2.23.51-.52 1.21-.81 1.96-.81h2.08c.99.03 1.75.81 1.75 1.77v2.06c0 .96-.76 1.74-1.72 1.77h-1.98Zm1.93-4.1h-2.05c-.35 0-.67.13-.9.37-.29.28-.43.66-.39 1.04.06.66.69 1.19 1.41 1.19h1.96c.13 0 .25-.12.25-.27v-2.06c0-.15-.12-.26-.28-.27Z" fill="#292D32"/><path d="M14 12.75H7c-.41 0-.75-.34-.75-.75s.34-.75.75-.75h7c.41 0 .75.34.75.75s-.34.75-.75.75Z" fill="#292D32"/></svg>