<svg width="24" height="24" fill="none" xmlns="http://www.w3.org/2000/svg"><path d="M17.74 22.748H7.64c-.31 0-.59-.19-.7-.49-.11-.3-.03-.62.21-.83.7-.62 1.11-1.51 1.11-2.44 0-1.79-1.46-3.25-3.25-3.25-.74 0-1.44.25-2.03.72a.744.744 0 0 1-1.21-.59v-4.37c0-2.49 2.02-4.51 4.51-4.51h11.48c2.49 0 4.51 2.02 4.51 4.51v1.44c0 .41-.34.75-.75.75H19.5c-.35 0-.67.13-.9.37l-.01.01c-.28.27-.41.64-.38 1.02.06.66.69 1.19 1.41 1.19h1.9c.41 0 .75.34.75.75v1.19c-.02 2.51-2.04 4.53-4.53 4.53Zm-8.56-1.5h8.56c1.66 0 3.01-1.35 3.01-3.01v-.44H19.6c-1.51 0-2.79-1.12-2.91-2.56-.08-.82.22-1.63.82-2.22.52-.53 1.22-.82 1.97-.82h1.27v-.69c0-1.66-1.35-3.01-3.01-3.01H6.26c-1.66 0-3.01 1.35-3.01 3.01v3.08a4.78 4.78 0 0 1 1.75-.34c2.62 0 4.75 2.13 4.75 4.75 0 .79-.2 1.57-.57 2.25Z" fill="#292D32"/><path d="M2.5 12.26c-.41 0-.75-.34-.75-.75V7.84c0-1.49.93-2.85 2.32-3.37l7.94-3c.82-.3 1.74-.19 2.45.31.71.5 1.14 1.31 1.14 2.17v3.8c0 .41-.34.75-.75.75s-.75-.34-.75-.75v-3.8c0-.38-.18-.72-.49-.94-.32-.22-.71-.27-1.07-.14l-7.94 3c-.82.31-1.35 1.08-1.35 1.97v3.67c0 .41-.34.75-.75.75ZM19.599 17.8c-1.51 0-2.79-1.12-2.91-2.56-.08-.83.22-1.64.82-2.23.51-.52 1.21-.81 1.96-.81h2.08c.99.03 1.75.81 1.75 1.77v2.06c0 .96-.76 1.74-1.72 1.77h-1.98Zm1.93-4.1h-2.05c-.35 0-.67.13-.9.37-.29.28-.43.66-.39 1.04.06.66.69 1.19 1.41 1.19h1.96c.13 0 .25-.12.25-.27v-2.06c0-.15-.12-.26-.28-.27ZM14 12.75H7c-.41 0-.75-.34-.75-.75s.34-.75.75-.75h7c.41 0 .75.34.75.75s-.34.75-.75.75ZM5 23.75C2.38 23.75.25 21.62.25 19c0-1.46.65-2.81 1.78-3.71.84-.67 1.9-1.04 2.97-1.04 2.62 0 4.75 2.13 4.75 4.75A4.758 4.758 0 0 1 5 23.75Zm0-8c-.74 0-1.44.25-2.03.72-.77.61-1.22 1.54-1.22 2.53 0 1.79 1.46 3.25 3.25 3.25.78 0 1.54-.29 2.15-.81.7-.62 1.1-1.5 1.1-2.44 0-1.79-1.46-3.25-3.25-3.25Z" fill="#292D32"/><path d="M4 20.75c-.25 0-.5-.13-.64-.36-.21-.36-.1-.82.26-1.03l.89-.53v-1.08c0-.41.34-.75.75-.75s.75.34.75.75v1.5c0 .26-.14.51-.36.64l-1.25.75c-.13.08-.27.11-.4.11Z" fill="#292D32"/></svg>