<svg width="24" height="24" fill="none" xmlns="http://www.w3.org/2000/svg"><path d="M21.7 6.39h-7.27c-.41 0-.75-.34-.75-.75s.34-.75.75-.75h7.27c.41 0 .75.34.75.75s-.34.75-.75.75ZM9.58 6.39H2.3c-.41 0-.75-.34-.75-.75s.34-.75.75-.75h7.27c.41 0 .75.34.75.75s-.33.75-.74.75ZM21.7 16.078h-7.27c-.41 0-.75-.34-.75-.75s.34-.75.75-.75h7.27c.41 0 .75.34.75.75s-.34.75-.75.75ZM21.7 22.14h-7.27c-.41 0-.75-.34-.75-.75s.34-.75.75-.75h7.27c.41 0 .75.34.75.75s-.34.75-.75.75Z" fill="#292D32"/><path d="M18.09 10.02c-.41 0-.75-.34-.75-.75V2c0-.41.34-.75.75-.75s.75.34.75.75v7.27c0 .42-.33.75-.75.75ZM2.298 22.752c-.19 0-.38-.07-.53-.22a.754.754 0 0 1 0-1.06l7.27-7.27c.29-.29.77-.29 1.06 0 .29.29.29.77 0 1.06l-7.27 7.27a.71.71 0 0 1-.53.22Z" fill="#292D32"/><path d="M9.58 22.752c-.19 0-.38-.07-.53-.22l-7.27-7.27a.754.754 0 0 1 0-1.06c.29-.29.77-.29 1.06 0l7.27 7.27c.29.29.29.77 0 1.06-.15.15-.34.22-.53.22Z" fill="#292D32"/></svg>