<svg width="24" height="24" fill="none" xmlns="http://www.w3.org/2000/svg"><path d="M15 22.75H9c-5.43 0-7.75-2.32-7.75-7.75V9c0-5.43 2.32-7.75 7.75-7.75h6c5.43 0 7.75 2.32 7.75 7.75v6c0 5.43-2.32 7.75-7.75 7.75Zm-6-20C4.39 2.75 2.75 4.39 2.75 9v6c0 4.61 1.64 6.25 6.25 6.25h6c4.61 0 6.25-1.64 6.25-6.25V9c0-4.61-1.64-6.25-6.25-6.25H9Z" fill="#292D32"/><path d="M18 15.25c-.41 0-.75-.34-.75-.75 0-.69-.56-1.25-1.25-1.25H8c-.69 0-1.25.56-1.25 1.25 0 .41-.34.75-.75.75s-.75-.34-.75-.75V7.75C5.25 6.23 6.48 5 8 5h8c1.52 0 2.75 1.23 2.75 2.75v6.75c0 .41-.34.75-.75.75Zm-10-3.5h8c.45 0 .88.11 1.25.3v-4.3c0-.69-.56-1.25-1.25-1.25H8c-.69 0-1.25.56-1.25 1.25v4.3c.37-.19.8-.3 1.25-.3Z" fill="#292D32"/><path d="M19 16.5h-1c-.41 0-.75-.34-.75-.75s.34-.75.75-.75h1c.41 0 .75.34.75.75s-.34.75-.75.75ZM6 16.5H5c-.41 0-.75-.34-.75-.75S4.59 15 5 15h1c.41 0 .75.34.75.75s-.34.75-.75.75ZM18 14.75c-.41 0-.75-.34-.75-.75v-3c0-.69-.56-1.25-1.25-1.25H8c-.69 0-1.25.56-1.25 1.25v3c0 .41-.34.75-.75.75s-.75-.34-.75-.75v-3c0-1.52 1.23-2.75 2.75-2.75h8c1.52 0 2.75 1.23 2.75 2.75v3c0 .41-.34.75-.75.75Z" fill="#292D32"/><path d="M12 19c-1.53 0-2.82-1.07-3.16-2.5H6c-.41 0-.75-.34-.75-.75V14.5c0-1.52 1.23-2.75 2.75-2.75h8c1.52 0 2.75 1.23 2.75 2.75v1.25c0 .41-.34.75-.75.75h-2.84A3.258 3.258 0 0 1 12 19Zm-5.25-4H9.5c.41 0 .75.34.75.75 0 .96.79 1.75 1.75 1.75s1.75-.79 1.75-1.75c0-.41.34-.75.75-.75h2.75v-.5c0-.69-.56-1.25-1.25-1.25H8c-.69 0-1.25.56-1.25 1.25v.5Z" fill="#292D32"/></svg>