<svg width="24" height="24" fill="none" xmlns="http://www.w3.org/2000/svg"><path d="M12 15.25c-1.79 0-3.25-1.46-3.25-3.25S10.21 8.75 12 8.75s3.25 1.46 3.25 3.25-1.46 3.25-3.25 3.25Zm0-5c-.96 0-1.75.79-1.75 1.75s.79 1.75 1.75 1.75 1.75-.79 1.75-1.75-.79-1.75-1.75-1.75ZM18.5 15.25c-.41 0-.75-.34-.75-.75v-5c0-.41.34-.75.75-.75s.75.34.75.75v5c0 .41-.34.75-.75.75ZM5 22.75C2.38 22.75.25 20.62.25 18S2.38 13.25 5 13.25 9.75 15.38 9.75 18 7.62 22.75 5 22.75Zm0-8c-1.79 0-3.25 1.46-3.25 3.25S3.21 21.25 5 21.25 8.25 19.79 8.25 18 6.79 14.75 5 14.75Z" fill="#292D32"/><path d="M4 19.752c-.25 0-.5-.13-.64-.36-.21-.35-.1-.82.26-1.03l.76-.46c.07-.04.12-.13.12-.21v-.93c0-.41.34-.75.75-.75s.75.34.75.75v.93c0 .61-.33 1.19-.85 1.5l-.76.46c-.12.07-.26.1-.39.1Z" fill="#292D32"/><path d="M17 20.75H8.5c-.41 0-.75-.34-.75-.75s.34-.75.75-.75H17c2.86 0 4.25-1.39 4.25-4.25V9c0-2.86-1.39-4.25-4.25-4.25H7C4.14 4.75 2.75 6.14 2.75 9v6.2c0 .41-.34.75-.75.75s-.75-.34-.75-.75V9c0-3.65 2.1-5.75 5.75-5.75h10c3.65 0 5.75 2.1 5.75 5.75v6c0 3.65-2.1 5.75-5.75 5.75Z" fill="#292D32"/></svg>