<svg width="24" height="24" fill="none" xmlns="http://www.w3.org/2000/svg"><path d="M17 20.75h-5c-.41 0-.75-.34-.75-.75s.34-.75.75-.75h5c2.86 0 4.25-1.39 4.25-4.25V9c0-2.86-1.39-4.25-4.25-4.25H7C4.14 4.75 2.75 6.14 2.75 9v2c0 .41-.34.75-.75.75s-.75-.34-.75-.75V9c0-3.65 2.1-5.75 5.75-5.75h10c3.65 0 5.75 2.1 5.75 5.75v6c0 3.65-2.1 5.75-5.75 5.75Z" fill="#292D32"/><path d="M12 15.25c-1.79 0-3.25-1.46-3.25-3.25S10.21 8.75 12 8.75s3.25 1.46 3.25 3.25-1.46 3.25-3.25 3.25Zm0-5c-.96 0-1.75.79-1.75 1.75s.79 1.75 1.75 1.75 1.75-.79 1.75-1.75-.79-1.75-1.75-1.75ZM18.5 15.25c-.41 0-.75-.34-.75-.75v-5c0-.41.34-.75.75-.75s.75.34.75.75v5c0 .41-.34.75-.75.75ZM8.5 18.69c-.41 0-.75-.34-.75-.75v-1.28c0-.22-.18-.41-.41-.41H2c-.41 0-.75-.34-.75-.75s.34-.75.75-.75h5.34c1.05 0 1.91.86 1.91 1.91v1.28c0 .41-.34.75-.75.75Z" fill="#292D32"/><path d="M3.221 17.469c-.19 0-.38-.07-.53-.22l-1.22-1.22a.755.755 0 0 1 0-1.06l1.22-1.22c.29-.29.77-.29 1.06 0 .29.29.29.77 0 1.06l-.69.69.69.69c.29.29.29.77 0 1.06-.15.15-.34.22-.53.22ZM8.5 21.53H3.16c-1.05 0-1.91-.86-1.91-1.91v-1.28c0-.41.34-.75.75-.75s.75.34.75.75v1.28c0 .22.18.41.41.41H8.5c.41 0 .75.34.75.75s-.34.75-.75.75Z" fill="#292D32"/><path d="M7.279 22.75c-.19 0-.38-.07-.53-.22a.755.755 0 0 1 0-1.06l.69-.69-.69-.69a.754.754 0 0 1 0-1.06c.29-.29.77-.29 1.06 0l1.22 1.22c.29.29.29.77 0 1.06l-1.22 1.22c-.14.15-.34.22-.53.22Z" fill="#292D32"/></svg>