<svg width="24" height="24" fill="none" xmlns="http://www.w3.org/2000/svg"><path d="M13.05 16.248h-1.88c-1.33 0-2.42-1.12-2.42-2.5 0-.41.34-.75.75-.75s.75.34.75.75c0 .55.41 1 .92 1h1.88c.39 0 .7-.35.7-.78 0-.54-.15-.62-.49-.74l-3.01-1.05c-.64-.23-1.5-.69-1.5-2.16 0-1.25.99-2.28 2.2-2.28h1.88c1.33 0 2.42 1.12 2.42 2.5 0 .41-.34.75-.75.75s-.75-.34-.75-.75c0-.55-.41-1-.92-1h-1.88c-.39 0-.7.35-.7.78 0 .54.15.62.49.74l3.01 1.05c.64.23 1.5.69 1.5 2.16 0 1.26-.99 2.28-2.2 2.28Z" fill="#292D32"/><path d="M12 17.25c-.41 0-.75-.34-.75-.75v-9c0-.41.34-.75.75-.75s.75.34.75.75v9c0 .41-.34.75-.75.75Z" fill="#292D32"/><path d="M12 22.75C6.07 22.75 1.25 17.93 1.25 12S6.07 1.25 12 1.25c.41 0 .75.34.75.75s-.34.75-.75.75C6.9 2.75 2.75 6.9 2.75 12S6.9 21.25 12 21.25s9.25-4.15 9.25-9.25c0-.41.34-.75.75-.75s.75.34.75.75c0 5.93-4.82 10.75-10.75 10.75ZM22 6.75c-.41 0-.75-.34-.75-.75V2.75H18c-.41 0-.75-.34-.75-.75s.34-.75.75-.75h4c.41 0 .75.34.75.75v4c0 .41-.34.75-.75.75Z" fill="#292D32"/><path d="M17.001 7.751c-.19 0-.38-.07-.53-.22a.754.754 0 0 1 0-1.06l5-5c.29-.29.77-.29 1.06 0 .29.29.29.77 0 1.06l-5 5c-.15.15-.34.22-.53.22Z" fill="#292D32"/></svg>