<svg width="24" height="24" fill="none" xmlns="http://www.w3.org/2000/svg"><path d="M17 20.75H8.5c-.41 0-.75-.34-.75-.75s.34-.75.75-.75H17c2.86 0 4.25-1.39 4.25-4.25V9c0-2.86-1.39-4.25-4.25-4.25H7C4.14 4.75 2.75 6.14 2.75 9v6.2c0 .41-.34.75-.75.75s-.75-.34-.75-.75V9c0-3.65 2.1-5.75 5.75-5.75h10c3.65 0 5.75 2.1 5.75 5.75v6c0 3.65-2.1 5.75-5.75 5.75Z" fill="#292D32"/><path d="M12 15.25c-1.79 0-3.25-1.46-3.25-3.25S10.21 8.75 12 8.75s3.25 1.46 3.25 3.25-1.46 3.25-3.25 3.25Zm0-5c-.96 0-1.75.79-1.75 1.75s.79 1.75 1.75 1.75 1.75-.79 1.75-1.75-.79-1.75-1.75-1.75ZM18.5 15.25c-.41 0-.75-.34-.75-.75v-5c0-.41.34-.75.75-.75s.75.34.75.75v5c0 .41-.34.75-.75.75ZM5 22.75c-1.66 0-3.22-.88-4.06-2.31C.49 19.72.25 18.87.25 18c0-2.62 2.13-4.75 4.75-4.75S9.75 15.38 9.75 18c0 .87-.24 1.72-.69 2.45-.84 1.42-2.4 2.3-4.06 2.3Zm0-8c-1.79 0-3.25 1.46-3.25 3.25 0 .59.16 1.17.47 1.67.58.98 1.65 1.58 2.78 1.58A3.256 3.256 0 0 0 8.25 18c0-1.79-1.46-3.25-3.25-3.25Z" fill="#292D32"/><path d="M2.251 21.501c-.19 0-.38-.07-.53-.22a.755.755 0 0 1 0-1.06l5.5-5.5c.29-.29.77-.29 1.06 0 .29.29.29.77 0 1.06l-5.5 5.5c-.15.15-.34.22-.53.22Z" fill="#292D32"/></svg>