<svg width="24" height="24" fill="none" xmlns="http://www.w3.org/2000/svg"><path d="M15 22.75H9c-5.43 0-7.75-2.32-7.75-7.75V9c0-5.43 2.32-7.75 7.75-7.75h6c5.43 0 7.75 2.32 7.75 7.75v6c0 5.43-2.32 7.75-7.75 7.75Zm-6-20C4.39 2.75 2.75 4.39 2.75 9v6c0 4.61 1.64 6.25 6.25 6.25h6c4.61 0 6.25-1.64 6.25-6.25V9c0-4.61-1.64-6.25-6.25-6.25H9Z" fill="#292D32"/><path d="M8.568 16.02c-.19 0-.38-.07-.53-.22a.754.754 0 0 1 0-1.06l6.55-6.55c.29-.29.77-.29 1.06 0 .29.29.29.77 0 1.06l-6.55 6.55c-.15.15-.34.22-.53.22ZM8.98 11.108c-1.09 0-1.98-.89-1.98-1.98 0-1.09.89-1.98 1.98-1.98 1.09 0 1.98.89 1.98 1.98 0 1.09-.89 1.98-1.98 1.98Zm0-2.45a.48.48 0 0 0-.48.48c0 .27.21.48.48.48s.48-.21.48-.48a.48.48 0 0 0-.48-.48ZM15.519 16.839c-1.09 0-1.98-.89-1.98-1.98 0-1.09.89-1.98 1.98-1.98 1.09 0 1.98.89 1.98 1.98 0 1.09-.89 1.98-1.98 1.98Zm0-2.45a.48.48 0 0 0-.48.48c0 .27.21.48.48.48s.48-.21.48-.48-.21-.48-.48-.48Z" fill="#292D32"/></svg>