<svg width="24" height="24" fill="none" xmlns="http://www.w3.org/2000/svg"><path d="M8.568 16.02c-.19 0-.38-.07-.53-.22a.754.754 0 0 1 0-1.06l6.55-6.55c.29-.29.77-.29 1.06 0 .29.29.29.77 0 1.06l-6.55 6.55c-.15.15-.34.22-.53.22ZM8.98 11.108c-1.09 0-1.98-.89-1.98-1.98 0-1.09.89-1.98 1.98-1.98 1.09 0 1.98.89 1.98 1.98 0 1.09-.89 1.98-1.98 1.98Zm0-2.45a.48.48 0 0 0-.48.48c0 .27.21.48.48.48s.48-.21.48-.48a.48.48 0 0 0-.48-.48ZM15.519 16.839c-1.09 0-1.98-.89-1.98-1.98 0-1.09.89-1.98 1.98-1.98 1.09 0 1.98.89 1.98 1.98 0 1.09-.89 1.98-1.98 1.98Zm0-2.45a.48.48 0 0 0-.48.48c0 .27.21.48.48.48s.48-.21.48-.48-.21-.48-.48-.48Z" fill="#292D32"/><path d="M12 22.75C6.07 22.75 1.25 17.93 1.25 12S6.07 1.25 12 1.25 22.75 6.07 22.75 12 17.93 22.75 12 22.75Zm0-20C6.9 2.75 2.75 6.9 2.75 12S6.9 21.25 12 21.25s9.25-4.15 9.25-9.25S17.1 2.75 12 2.75Z" fill="#292D32"/></svg>