<svg width="24" height="24" fill="none" xmlns="http://www.w3.org/2000/svg"><path d="M10.54 21.94c-.23 0-.45-.1-.6-.3l-1.01-1.35c-.21-.28-.49-.44-.79-.46-.3-.02-.6.12-.84.37-1.45 1.55-2.55 1.42-3.08 1.22-.54-.21-1.45-.9-1.45-3.12V7.04c0-4.44 1.28-5.79 5.47-5.79h7.55c4.19 0 5.47 1.35 5.47 5.79v4.26c0 .41-.34.75-.75.75s-.75-.34-.75-.75V7.04c0-3.61-.63-4.29-3.97-4.29H8.24c-3.34 0-3.97.68-3.97 4.29V18.3c0 1.05.26 1.63.5 1.72.18.07.67-.03 1.43-.84.55-.58 1.27-.89 2.02-.85.74.04 1.44.43 1.91 1.06l1.02 1.35a.75.75 0 0 1-.61 1.2Z" fill="#292D32"/><path d="M18.2 22.15c-2.18 0-3.95-1.77-3.95-3.95s1.77-3.95 3.95-3.95 3.95 1.77 3.95 3.95-1.77 3.95-3.95 3.95Zm0-6.4c-1.35 0-2.45 1.1-2.45 2.45s1.1 2.45 2.45 2.45 2.45-1.1 2.45-2.45-1.1-2.45-2.45-2.45Z" fill="#292D32"/><path d="M22.001 22.751c-.19 0-.38-.07-.53-.22l-1-1a.754.754 0 0 1 0-1.06c.29-.29.77-.29 1.06 0l1 1c.29.29.29.77 0 1.06-.15.15-.34.22-.53.22ZM16 7.75H8c-.41 0-.75-.34-.75-.75s.34-.75.75-.75h8c.41 0 .75.34.75.75s-.34.75-.75.75ZM15 11.75H9c-.41 0-.75-.34-.75-.75s.34-.75.75-.75h6c.41 0 .75.34.75.75s-.34.75-.75.75Z" fill="#292D32"/></svg>