<svg width="24" height="24" fill="none" xmlns="http://www.w3.org/2000/svg"><path d="M19.42 11.75H16c-.41 0-.75-.34-.75-.75V4.01c0-.74.29-1.43.81-1.95s1.21-.81 1.95-.81h.01c1.25.01 2.43.5 3.33 1.39.9.91 1.39 2.11 1.39 3.36v2.42c.01 1.99-1.33 3.33-3.32 3.33Zm-2.67-1.5h2.67c1.16 0 1.83-.67 1.83-1.83V6c0-.86-.34-1.68-.95-2.3-.61-.6-1.43-.94-2.28-.95h-.01c-.33 0-.65.13-.89.37s-.37.55-.37.89v6.24Z" fill="#292D32"/><path d="M9 23.33c-.47 0-.91-.18-1.24-.52L6.1 21.14a.246.246 0 0 0-.33-.02L4.05 22.4c-.53.4-1.23.47-1.83.17-.6-.3-.97-.9-.97-1.57V6c0-3.02 1.73-4.75 4.75-4.75h12c.41 0 .75.34.75.75s-.34.75-.75.75c-.69 0-1.25.56-1.25 1.25v17c0 .67-.37 1.27-.97 1.57-.6.3-1.3.24-1.83-.16l-1.71-1.28a.243.243 0 0 0-.32.02l-1.68 1.68c-.33.32-.77.5-1.24.5Zm-3.09-3.76c.46 0 .91.17 1.25.52l1.66 1.67c.06.06.14.07.18.07.04 0 .12-.01.18-.07l1.68-1.68c.62-.62 1.6-.68 2.29-.15l1.7 1.27c.11.08.21.05.26.02.05-.03.14-.09.14-.22V4c0-.45.11-.88.3-1.25H6C3.78 2.75 2.75 3.78 2.75 6v15c0 .14.09.2.14.23.06.03.16.05.26-.03l1.71-1.28c.31-.23.68-.35 1.05-.35Z" fill="#292D32"/><path d="M12 13.762H9c-.41 0-.75-.34-.75-.75s.34-.75.75-.75h3c.41 0 .75.34.75.75s-.34.75-.75.75ZM12 9.762H9c-.41 0-.75-.34-.75-.75s.34-.75.75-.75h3c.41 0 .75.34.75.75s-.34.75-.75.75ZM5.969 10.012c-.55 0-1-.45-1-1s.45-1 1-1 1 .45 1 1-.45 1-1 1ZM5.969 14.012c-.55 0-1-.45-1-1s.45-1 1-1 1 .45 1 1-.45 1-1 1Z" fill="#292D32"/></svg>