<svg width="24" height="24" fill="none" xmlns="http://www.w3.org/2000/svg"><path d="M10.54 21.94c-.23 0-.45-.1-.6-.3l-1.01-1.35c-.21-.28-.49-.44-.79-.46-.31-.02-.6.12-.84.37-1.45 1.55-2.55 1.42-3.08 1.22-.54-.21-1.45-.9-1.45-3.12V7.04c0-4.44 1.28-5.79 5.47-5.79h7.55c4.19 0 5.47 1.35 5.47 5.79v4.26c0 .41-.34.75-.75.75s-.75-.34-.75-.75V7.04c0-3.61-.63-4.29-3.97-4.29H8.24c-3.34 0-3.97.68-3.97 4.29V18.3c0 1.05.26 1.63.5 1.72.18.07.67-.03 1.43-.84.55-.58 1.27-.89 2.02-.85.74.04 1.44.43 1.91 1.06l1.02 1.35a.75.75 0 0 1-.61 1.2Z" fill="#292D32"/><path d="M16 7.75H8c-.41 0-.75-.34-.75-.75s.34-.75.75-.75h8c.41 0 .75.34.75.75s-.34.75-.75.75ZM15 11.75H9c-.41 0-.75-.34-.75-.75s.34-.75.75-.75h6c.41 0 .75.34.75.75s-.34.75-.75.75ZM14.82 21.782c-.38 0-.74-.14-1-.4-.31-.31-.45-.76-.38-1.23l.19-1.35c.05-.35.26-.77.51-1.02l3.54-3.54c.48-.48.95-.73 1.46-.78.62-.06 1.24.2 1.82.78.58.58.84 1.19.78 1.82-.05.5-.31.98-.78 1.46l-3.54 3.54c-.25.25-.67.46-1.02.51l-1.35.19c-.08.01-.15.02-.23.02Zm4.49-6.83h-.03c-.14.01-.33.14-.54.35l-3.54 3.54a.38.38 0 0 0-.08.17l-.18 1.25 1.25-.18c.04-.01.14-.06.17-.09l3.54-3.54c.21-.22.34-.4.35-.54.02-.2-.18-.44-.35-.61-.16-.16-.39-.35-.59-.35Z" fill="#292D32"/><path d="M19.92 18.25c-.07 0-.14-.01-.2-.03a3.977 3.977 0 0 1-2.74-2.74.76.76 0 0 1 .52-.93c.4-.11.81.12.92.52.23.82.88 1.47 1.7 1.7a.755.755 0 0 1-.2 1.48Z" fill="#292D32"/></svg>