<svg width="24" height="24" fill="none" xmlns="http://www.w3.org/2000/svg"><path d="M19.42 11.75H16c-.41 0-.75-.34-.75-.75V4.01c0-.74.29-1.43.81-1.95s1.21-.81 1.95-.81h.01c1.25.01 2.43.5 3.33 1.39.9.91 1.39 2.11 1.39 3.36v2.42c.01 1.99-1.33 3.33-3.32 3.33Zm-2.67-1.5h2.67c1.16 0 1.83-.67 1.83-1.83V6c0-.86-.34-1.68-.95-2.3-.61-.6-1.43-.94-2.28-.95h-.01c-.33 0-.65.13-.89.37s-.37.55-.37.89v6.24Z" fill="#292D32"/><path d="M8.998 23.33c-.47 0-.91-.18-1.24-.52l-1.66-1.67a.246.246 0 0 0-.33-.02l-1.71 1.28c-.53.4-1.23.47-1.83.17-.6-.3-.97-.9-.97-1.57V6c0-3.02 1.73-4.75 4.75-4.75h12c.41 0 .75.34.75.75s-.34.75-.75.75c-.69 0-1.25.56-1.25 1.25v17c0 .67-.37 1.27-.97 1.57-.6.3-1.3.24-1.83-.16l-1.71-1.28a.243.243 0 0 0-.32.02l-1.68 1.68c-.34.32-.78.5-1.25.5Zm-3.09-3.76c.46 0 .91.17 1.25.52l1.66 1.67c.06.06.14.07.18.07.04 0 .12-.01.18-.07l1.68-1.68c.62-.62 1.6-.68 2.29-.15l1.7 1.27c.11.08.21.05.26.02.05-.03.14-.09.14-.22V4c0-.45.11-.88.3-1.25h-9.55c-2.22 0-3.25 1.03-3.25 3.25v15c0 .14.09.2.14.23.06.03.16.05.26-.03l1.71-1.28c.31-.23.68-.35 1.05-.35Z" fill="#292D32"/><path d="M11.43 14.078c-.56 0-1-.45-1-1s.45-1 1-1 1 .45 1 1-.45 1-1 1ZM6.57 10.031c-.56 0-1-.45-1-1s.45-1 1-1 1 .45 1 1-.45 1-1 1ZM6.27 14.48c-.19 0-.38-.07-.53-.22a.754.754 0 0 1 0-1.06l5.46-5.46c.29-.29.77-.29 1.06 0 .29.29.29.77 0 1.06L6.8 14.26c-.14.14-.34.22-.53.22Z" fill="#292D32"/></svg>