<svg width="24" height="24" fill="none" xmlns="http://www.w3.org/2000/svg"><path d="M10.558 22.709c-1.08 0-2.17-.31-3.01-.94l-4.28-3.2c-1.13-.84-2.01-2.61-2.01-4.03v-7.41c0-1.53 1.12-3.16 2.56-3.7l4.98-1.87c.99-.37 2.54-.37 3.53 0l4.97 1.87c1.17.44 2.16 1.61 2.48 2.91a.754.754 0 0 1-.73.93l-7.91.01c-1.27.08-1.58.29-1.58 2.14v5.43c0 1.91.25 2.15 2.19 2.15h5.92c.31 0 .59.19.7.48.11.29.03.62-.2.83-.11.09-.2.18-.31.26l-4.28 3.21c-.86.62-1.94.93-3.02.93Zm0-19.92c-.45 0-.91.06-1.24.19l-4.98 1.87c-.84.32-1.59 1.39-1.59 2.3v7.41c0 .94.66 2.26 1.41 2.82l4.28 3.2c1.15.85 3.08.85 4.23 0l2.77-2.07h-3.7c-2.76 0-3.69-.92-3.69-3.65v-5.43c0-2.13.51-3.48 3.04-3.64l.65-.01h6.15c-.3-.43-.7-.77-1.12-.93l-4.97-1.87c-.34-.13-.79-.19-1.24-.19Z" fill="#292D32"/><path d="M22 11.969H8.8c-.41 0-.75-.34-.75-.75s.34-.75.75-.75H22c.41 0 .75.34.75.75s-.34.75-.75.75Z" fill="#292D32"/><path d="M19.06 18.5h-7.32c-2.76 0-3.69-.92-3.69-3.65V9.42c0-2.13.51-3.48 3.04-3.64l.65-.01h7.32c2.76 0 3.69.92 3.69 3.65v5.55c-.02 2.64-.95 3.53-3.69 3.53ZM11.74 7.27l-.61.01c-1.27.08-1.58.29-1.58 2.14v5.43c0 1.91.25 2.15 2.19 2.15h7.32c1.91 0 2.17-.25 2.19-2.03V9.43c0-1.91-.25-2.15-2.19-2.15h-7.32v-.01Z" fill="#292D32"/><path d="M12.649 16.012h-1.34c-.41 0-.75-.34-.75-.75s.34-.75.75-.75h1.34a.749.749 0 1 1 0 1.5ZM18.02 16.012h-3.27c-.41 0-.75-.34-.75-.75s.34-.75.75-.75h3.27a.749.749 0 1 1 0 1.5Z" fill="#292D32"/></svg>