<svg width="24" height="24" fill="none" xmlns="http://www.w3.org/2000/svg"><path d="M15 22.75H9c-5.43 0-7.75-2.32-7.75-7.75V9c0-5.43 2.32-7.75 7.75-7.75h6c5.43 0 7.75 2.32 7.75 7.75v6c0 5.43-2.32 7.75-7.75 7.75Zm-6-20C4.39 2.75 2.75 4.39 2.75 9v6c0 4.61 1.64 6.25 6.25 6.25h6c4.61 0 6.25-1.64 6.25-6.25V9c0-4.61-1.64-6.25-6.25-6.25H9Z" fill="#292D32"/><path d="M12.001 16.559c-1.1 0-2-.9-2-2v-1.6c-.59-.49-.99-1.18-1.09-1.95-.02-.12-.04-.29-.04-.45 0-.97.44-1.87 1.22-2.47.78-.6 1.78-.79 2.74-.54 1.05.28 1.92 1.14 2.19 2.19.11.41.14.84.07 1.27a3.1 3.1 0 0 1-1.09 1.94v1.6c0 1.11-.9 2.01-2 2.01Zm-.01-7.62c-.36 0-.7.11-.99.34-.4.31-.63.78-.63 1.28 0 .07 0 .15.02.21.07.5.34.91.76 1.17l.35.22v2.4c0 .28.22.5.5.5s.5-.22.5-.5v-2.4l.35-.22c.41-.26.69-.67.75-1.14v-.02c.04-.22.03-.44-.03-.65-.14-.55-.59-.99-1.13-1.13-.15-.04-.3-.06-.45-.06Z" fill="#292D32"/><path d="M22.002 10.16h-7.65v1.5h7.65v-1.5ZM9.65 10.16H2v1.5h7.65v-1.5Z" fill="#292D32"/></svg>