<svg width="24" height="24" fill="none" xmlns="http://www.w3.org/2000/svg"><path d="M17 20.75H7c-4.41 0-5.75-1.34-5.75-5.75v-.5c0-.41.34-.75.75-.75.96 0 1.75-.79 1.75-1.75S2.96 10.25 2 10.25c-.41 0-.75-.34-.75-.75V9c0-4.41 1.34-5.75 5.75-5.75h10c4.41 0 5.75 1.34 5.75 5.75v1c0 .41-.34.75-.75.75-.96 0-1.75.79-1.75 1.75s.79 1.75 1.75 1.75c.41 0 .75.34.75.75 0 4.41-1.34 5.75-5.75 5.75ZM2.75 15.16c.02 3.44.73 4.09 4.25 4.09h10c3.34 0 4.15-.59 4.24-3.59a3.25 3.25 0 0 1-2.49-3.16c0-1.53 1.07-2.82 2.5-3.16V9c0-3.57-.68-4.25-4.25-4.25H7c-3.52 0-4.23.65-4.25 4.09 1.43.34 2.5 1.63 2.5 3.16 0 1.53-1.07 2.82-2.5 3.16Z" fill="#292D32"/><path d="M14.998 15.879c-.56 0-1.01-.45-1.01-1s.45-1 1-1 1 .45 1 1-.43 1-.99 1ZM8.998 10.879c-.56 0-1.01-.45-1.01-1s.45-1 1-1 1 .45 1 1-.43 1-.99 1ZM8.63 16.43c-.19 0-.38-.07-.53-.22a.754.754 0 0 1 0-1.06l6.73-6.73c.29-.29.77-.29 1.06 0 .29.29.29.77 0 1.06l-6.73 6.73c-.14.15-.34.22-.53.22Z" fill="#292D32"/></svg>