<svg width="24" height="24" fill="none" xmlns="http://www.w3.org/2000/svg"><path d="M17 22.75H7.63c-.32 0-.6-.2-.71-.49a.748.748 0 0 1 .22-.83c.24-.2.46-.46.62-.74.32-.51.48-1.09.48-1.68 0-1.79-1.46-3.25-3.25-3.25-.93 0-1.82.4-2.44 1.11-.21.23-.54.32-.83.21a.757.757 0 0 1-.49-.7V12c0-3.08 1.9-5.31 4.85-5.68.27-.04.58-.07.9-.07h10c.24 0 .55.01.87.06 2.95.34 4.88 2.58 4.88 5.69v5c.02 3.44-2.29 5.75-5.73 5.75Zm-7.82-1.5H17c2.58 0 4.25-1.67 4.25-4.25v-5c0-2.34-1.37-3.95-3.59-4.21-.24-.04-.45-.04-.66-.04H7c-.24 0-.47.02-.7.05-2.2.28-3.55 1.88-3.55 4.2v2.82c.68-.37 1.46-.57 2.25-.57 2.62 0 4.75 2.13 4.75 4.75 0 .79-.2 1.57-.57 2.25Z" fill="#292D32"/><path d="M6.192 7.811c-.24 0-.46-.11-.61-.31a.735.735 0 0 1-.06-.78c.17-.34.41-.67.72-.97l3.25-3.26a4.28 4.28 0 0 1 6.02 0l1.75 1.78c.74.73 1.19 1.71 1.24 2.75a.752.752 0 0 1-.87.78c-.2-.03-.41-.04-.63-.04h-10c-.24 0-.47.02-.7.05h-.11Zm1.67-1.56h8.96c-.13-.34-.34-.65-.62-.93l-1.76-1.78c-1.07-1.06-2.82-1.06-3.9 0l-2.68 2.71ZM22 17.25h-3c-1.52 0-2.75-1.23-2.75-2.75s1.23-2.75 2.75-2.75h3c.41 0 .75.34.75.75s-.34.75-.75.75h-3a1.25 1.25 0 0 0 0 2.5h3c.41 0 .75.34.75.75s-.34.75-.75.75ZM5 23.75c-1.66 0-3.22-.88-4.06-2.31C.49 20.72.25 19.87.25 19c0-1.15.42-2.26 1.19-3.13.9-1.03 2.2-1.62 3.56-1.62 2.62 0 4.75 2.13 4.75 4.75 0 .87-.24 1.72-.69 2.45-.25.42-.57.8-.95 1.12-.83.76-1.94 1.18-3.11 1.18Zm0-8c-.93 0-1.82.4-2.44 1.11-.52.6-.81 1.36-.81 2.14 0 .59.16 1.17.47 1.67.58.98 1.65 1.58 2.78 1.58.79 0 1.55-.29 2.13-.81.26-.22.48-.48.64-.76.32-.51.48-1.09.48-1.68 0-1.79-1.46-3.25-3.25-3.25Z" fill="#292D32"/><path d="M6.068 20.791c-.19 0-.38-.07-.53-.22l-2.11-2.11a.754.754 0 0 1 0-1.06c.29-.29.77-.29 1.06 0l2.11 2.11c.29.29.29.77 0 1.06-.15.15-.34.22-.53.22Z" fill="#292D32"/><path d="M3.931 20.819c-.19 0-.38-.07-.53-.22a.754.754 0 0 1 0-1.06l2.11-2.11c.29-.29.77-.29 1.06 0 .29.29.29.77 0 1.06l-2.11 2.11c-.15.15-.34.22-.53.22Z" fill="#292D32"/></svg>