<svg width="24" height="24" fill="none" xmlns="http://www.w3.org/2000/svg"><path d="M14.5 16.75h-5c-.41 0-.75-.34-.75-.75s.34-.75.75-.75h5c.41 0 .75.34.75.75s-.34.75-.75.75ZM5.202 10.46c-.19 0-.38-.08-.53-.22a.753.753 0 0 1-.16-.82l1.86-4.44c.04-.09.06-.15.09-.2 1.48-3.41 3.37-4.24 6.71-2.96.19.07.34.22.42.41.08.19.08.4 0 .59l-2.93 6.8c-.12.27-.39.45-.69.45h-2.85c-.57 0-1.11.11-1.63.33-.09.04-.19.06-.29.06Zm5.41-7.71c-1.24 0-2 .81-2.79 2.65-.01.03-.03.06-.04.09L6.472 8.6c.22-.02.43-.03.65-.03h2.35l2.41-5.6c-.47-.15-.89-.22-1.27-.22Z" fill="#292D32"/><path d="M18.288 10.269c-.07 0-.15-.01-.22-.03-.37-.11-.78-.17-1.2-.17h-6.9c-.25 0-.49-.13-.63-.34a.776.776 0 0 1-.06-.71l2.9-6.73c.15-.36.58-.6.96-.48.12.04.23.09.35.14l2.36.99c1.38.57 2.3 1.17 2.9 1.89.12.14.22.29.31.44.11.17.21.38.28.59.03.07.08.2.11.34.28.94.14 2.11-.46 3.61-.12.28-.4.46-.7.46Zm-7.18-1.7h5.77c.32 0 .63.03.94.08.28-.87.34-1.54.18-2.08-.02-.09-.04-.13-.05-.17-.06-.16-.1-.25-.15-.33-.07-.11-.12-.2-.2-.29-.43-.52-1.19-1-2.32-1.46l-1.98-.83-2.19 5.08Z" fill="#292D32"/><path d="M15.9 22.75H8.1c-.28 0-.54-.02-.8-.05-3.51-.24-5.51-2.24-5.75-5.79-.03-.22-.05-.49-.05-.76V14.2c0-2.25 1.34-4.28 3.41-5.18.7-.3 1.45-.45 2.22-.45h9.76c.57 0 1.12.08 1.63.24 2.35.71 4 2.93 4 5.39v1.95c0 .22-.01.43-.02.63-.22 3.91-2.5 5.97-6.6 5.97ZM7.12 10.07c-.57 0-1.11.11-1.63.33-1.52.66-2.5 2.15-2.5 3.8v1.95c0 .21.02.42.04.62.19 2.85 1.59 4.25 4.4 4.44.25.03.45.05.66.05h7.8c3.3 0 4.92-1.45 5.08-4.55.01-.18.02-.36.02-.56V14.2c0-1.81-1.21-3.43-2.93-3.96-.37-.11-.78-.17-1.2-.17H7.12Z" fill="#292D32"/><path d="M2.238 14.952c-.41 0-.75-.34-.75-.75v-2.93c0-3.15 2.23-5.87 5.31-6.47.27-.05.55.05.73.26.17.21.22.51.11.76l-1.75 4.18a.8.8 0 0 1-.39.4c-1.52.66-2.5 2.15-2.5 3.8-.01.41-.34.75-.76.75Zm3.36-8.13a5.106 5.106 0 0 0-2.5 3.45c.44-.45.95-.83 1.53-1.11l.97-2.34ZM21.761 14.95c-.41 0-.75-.34-.75-.75 0-1.81-1.21-3.43-2.93-3.96a.744.744 0 0 1-.48-.99c.47-1.17.59-2.02.4-2.68-.02-.09-.04-.13-.05-.17a.752.752 0 0 1 .17-.85c.23-.22.58-.27.86-.12a6.569 6.569 0 0 1 3.53 5.84v2.93c0 .41-.34.75-.75.75Zm-2.51-5.86c.63.29 1.19.7 1.66 1.19-.19-.98-.66-1.87-1.35-2.57-.05.42-.15.88-.31 1.38Z" fill="#292D32"/></svg>