<svg width="24" height="24" fill="none" xmlns="http://www.w3.org/2000/svg"><path d="M17 22.75h-5c-.41 0-.75-.34-.75-.75s.34-.75.75-.75h5c2.58 0 4.25-1.67 4.25-4.25v-5c0-2.29-1.42-4-3.54-4.25H7c-.28 0-.38 0-.56.06-.05.02-.1.03-.15.03C4.08 8.1 2.75 9.65 2.75 12v1c0 .41-.34.75-.75.75s-.75-.34-.75-.75v-1c0-3.06 1.88-5.27 4.79-5.64.38-.11.66-.11.96-.11h10.8c3 .35 4.95 2.66 4.95 5.75v5c0 3.44-2.31 5.75-5.75 5.75Z" fill="#292D32"/><path d="M6.202 7.85a.75.75 0 0 1-.71-.989c.16-.47.45-.76.78-1.09l3.19-3.29c1.65-1.65 4.43-1.65 6.07-.01l1.8 1.8c.66.66 1.08 1.57 1.21 2.64a.75.75 0 0 1-.18.59.75.75 0 0 1-.56.25h-10.8c-.28 0-.38 0-.56.06-.08.03-.16.04-.24.04Zm1.69-1.599h8.96c-.12-.32-.31-.64-.58-.92l-1.8-1.8c-1.07-1.07-2.87-1.07-3.94 0l-2.64 2.72ZM22 17.25h-3c-1.52 0-2.75-1.23-2.75-2.75s1.23-2.75 2.75-2.75h3c.41 0 .75.34.75.75s-.34.75-.75.75h-3a1.25 1.25 0 0 0 0 2.5h3c.41 0 .75.34.75.75s-.34.75-.75.75ZM5.802 22.15c-2.18 0-3.95-1.77-3.95-3.95s1.77-3.95 3.95-3.95 3.95 1.77 3.95 3.95-1.77 3.95-3.95 3.95Zm0-6.4c-1.35 0-2.45 1.1-2.45 2.45s1.1 2.45 2.45 2.45 2.45-1.1 2.45-2.45-1.1-2.45-2.45-2.45Z" fill="#292D32"/><path d="M2.001 22.751c-.19 0-.38-.07-.53-.22a.755.755 0 0 1 0-1.06l1-1c.29-.29.77-.29 1.06 0 .29.29.29.77 0 1.06l-1 1c-.15.15-.34.22-.53.22Z" fill="#292D32"/></svg>