<svg width="24" height="24" fill="none" xmlns="http://www.w3.org/2000/svg"><path d="M13 9.75H7c-.41 0-.75-.34-.75-.75s.34-.75.75-.75h6c.41 0 .75.34.75.75s-.34.75-.75.75ZM19.04 14.8c-1.51 0-2.79-1.12-2.91-2.56-.08-.83.22-1.64.82-2.23.5-.52 1.21-.81 1.96-.81H21c.99.03 1.75.81 1.75 1.77v2.06c0 .96-.76 1.74-1.72 1.77h-1.99Zm1.93-4.1h-2.05c-.35 0-.67.13-.9.37-.29.28-.43.66-.39 1.04.05.66.69 1.19 1.41 1.19H21c.13 0 .25-.12.25-.27v-2.06c0-.15-.12-.26-.28-.27Z" fill="#292D32"/><path d="M16 21.25H7c-3.44 0-5.75-2.31-5.75-5.75v-7c0-3.08 1.9-5.31 4.85-5.68.27-.04.58-.07.9-.07h9c.24 0 .55.01.87.06 2.95.34 4.88 2.58 4.88 5.69v1.45c0 .41-.34.75-.75.75h-2.08c-.35 0-.67.13-.9.37l-.01.01c-.28.27-.41.64-.38 1.02.05.66.69 1.19 1.41 1.19H21c.41 0 .75.34.75.75v1.45c0 3.45-2.31 5.76-5.75 5.76Zm-9-17c-.24 0-.47.02-.7.05-2.2.28-3.55 1.88-3.55 4.2v7c0 2.58 1.67 4.25 4.25 4.25h9c2.58 0 4.25-1.67 4.25-4.25v-.7h-1.21c-1.51 0-2.79-1.12-2.91-2.56-.08-.82.22-1.64.82-2.22.52-.53 1.22-.82 1.97-.82h1.33v-.7c0-2.34-1.37-3.95-3.59-4.21-.24-.04-.45-.04-.66-.04H7Z" fill="#292D32"/></svg>