<svg width="24" height="24" fill="none" xmlns="http://www.w3.org/2000/svg"><path d="M7.17 22.752c-2.38 0-4.33-1.73-4.33-3.86v-2.04c0-.41.34-.75.75-.75s.75.34.75.75c0 1.25 1.21 2.19 2.83 2.19s2.83-.94 2.83-2.19c0-.41.34-.75.75-.75s.75.34.75.75v2.04c0 2.13-1.94 3.86-4.33 3.86Zm-2.57-2.88c.44.82 1.43 1.38 2.57 1.38s2.13-.57 2.57-1.38c-.71.43-1.59.68-2.57.68-.98 0-1.86-.25-2.57-.68Z" fill="#292D32"/><path d="M7.17 17.801c-1.64 0-3.11-.75-3.84-1.94-.32-.52-.49-1.13-.49-1.75 0-1.05.46-2.03 1.3-2.76 1.62-1.42 4.41-1.42 6.04-.01.84.74 1.31 1.72 1.31 2.77 0 .62-.17 1.23-.49 1.75-.72 1.19-2.19 1.94-3.83 1.94Zm0-6.05c-.78 0-1.5.26-2.04.73-.51.44-.79 1.02-.79 1.63 0 .35.09.67.27.97.46.76 1.44 1.23 2.56 1.23s2.1-.47 2.55-1.22c.18-.29.27-.62.27-.97 0-.61-.28-1.19-.79-1.64-.53-.47-1.25-.73-2.03-.73Z" fill="#292D32"/><path d="M7.17 20.55c-2.47 0-4.33-1.59-4.33-3.69v-2.75c0-2.13 1.94-3.86 4.33-3.86 1.13 0 2.21.39 3.02 1.09.84.74 1.31 1.72 1.31 2.77v2.75c0 2.1-1.86 3.69-4.33 3.69Zm0-8.8c-1.56 0-2.83 1.06-2.83 2.36v2.75c0 1.25 1.21 2.19 2.83 2.19S10 18.11 10 16.86v-2.75c0-.61-.28-1.19-.79-1.64-.54-.46-1.26-.72-2.04-.72ZM19.04 14.8c-1.51 0-2.79-1.12-2.91-2.56-.08-.83.22-1.64.82-2.23.5-.52 1.21-.81 1.96-.81H21c.99.03 1.75.81 1.75 1.77v2.06c0 .96-.76 1.74-1.72 1.77h-1.99Zm1.93-4.1h-2.05c-.35 0-.67.13-.9.37-.29.28-.43.66-.39 1.04.05.66.69 1.19 1.41 1.19H21c.13 0 .25-.12.25-.27v-2.06c0-.15-.12-.26-.28-.27Z" fill="#292D32"/><path d="M16.002 21.25h-2.5c-.41 0-.75-.34-.75-.75s.34-.75.75-.75h2.5c2.58 0 4.25-1.67 4.25-4.25v-.7h-1.21c-1.51 0-2.79-1.12-2.91-2.56-.08-.83.22-1.64.82-2.23.5-.52 1.21-.81 1.96-.81h1.33v-.7c0-2.34-1.37-3.95-3.59-4.21-.24-.04-.45-.04-.66-.04h-9c-.24 0-.47.02-.7.05-2.2.28-3.55 1.88-3.55 4.2v2c0 .41-.34.75-.75.75s-.75-.34-.75-.75v-2c0-3.08 1.9-5.31 4.85-5.68.27-.04.58-.07.9-.07h9c.24 0 .55.01.87.06 2.95.34 4.88 2.58 4.88 5.69v1.45c0 .41-.34.75-.75.75h-2.08c-.35 0-.67.13-.9.37-.29.28-.43.66-.39 1.04.05.66.69 1.19 1.41 1.19h1.97c.41 0 .75.34.75.75v1.45c0 3.44-2.31 5.75-5.75 5.75Z" fill="#292D32"/></svg>