<svg width="24" height="24" fill="none" xmlns="http://www.w3.org/2000/svg"><path opacity=".4" d="M12 14a2 2 0 1 0 0-4 2 2 0 0 0 0 4Z" stroke="#292D32" stroke-width="1.5" stroke-linecap="round" stroke-linejoin="round"/><path d="M20 18c1.26-1.67 2-3.75 2-6s-.74-4.33-2-6M4 6c-1.26 1.67-2 3.75-2 6s.74 4.33 2 6" stroke="#292D32" stroke-width="1.5" stroke-linecap="round" stroke-linejoin="round"/><path opacity=".4" d="M16.8 15.598c.75-1 1.2-2.25 1.2-3.6s-.45-2.6-1.2-3.6M7.2 8.398c-.75 1-1.2 2.25-1.2 3.6s.45 2.6 1.2 3.6" stroke="#292D32" stroke-width="1.5" stroke-linecap="round" stroke-linejoin="round"/></svg>