<svg width="24" height="24" fill="none" xmlns="http://www.w3.org/2000/svg"><path d="M10.49 2.229 5.5 4.099c-1.15.43-2.09 1.79-2.09 3.02v7.43c0 1.18.78 2.73 1.73 3.44l4.3 3.21c1.41 1.06 3.73 1.06 5.14 0l4.3-3.21c.95-.71 1.73-2.26 1.73-3.44v-7.43c0-1.23-.94-2.59-2.09-3.02l-4.99-1.87c-.85-.31-2.21-.31-3.04 0Z" stroke="#292D32" stroke-width="1.5" stroke-linecap="round" stroke-linejoin="round"/><path opacity=".4" d="M12 10.918h-.13c-.94-.03-1.69-.81-1.69-1.76 0-.97.79-1.76 1.76-1.76s1.76.79 1.76 1.76c-.01.96-.76 1.73-1.7 1.76ZM10.01 13.72c-.96.64-.96 1.69 0 2.33 1.09.73 2.88.73 3.97 0 .96-.64.96-1.69 0-2.33-1.08-.73-2.87-.73-3.97 0Z" stroke="#292D32" stroke-width="1.5" stroke-linecap="round" stroke-linejoin="round"/></svg>