<svg width="24" height="24" fill="none" xmlns="http://www.w3.org/2000/svg"><path d="M20.91 11.12c0 4.89-3.55 9.47-8.4 10.81-.33.09-.69.09-1.02 0-4.85-1.34-8.4-5.92-8.4-10.81V6.73c0-.82.62-1.75 1.39-2.06l5.57-2.28c1.25-.51 2.66-.51 3.91 0l5.57 2.28c.76.31 1.39 1.24 1.39 2.06l-.01 4.39Z" stroke="#292D32" stroke-width="1.5" stroke-linecap="round" stroke-linejoin="round"/><g opacity=".4" stroke="#292D32" stroke-width="1.5" stroke-miterlimit="10" stroke-linecap="round" stroke-linejoin="round"><path d="M12 12.5a2 2 0 1 0 0-4 2 2 0 0 0 0 4ZM12 12.5v3"/></g></svg>