<svg width="24" height="24" fill="none" xmlns="http://www.w3.org/2000/svg"><path d="M10.25 22.25c-4.69 0-8.5-3.81-8.5-8.5 0-4.69 3.81-8.5 8.5-8.5 4.69 0 8.5 3.81 8.5 8.5 0 4.69-3.81 8.5-8.5 8.5Zm0-15.5c-3.86 0-7 3.14-7 7s3.14 7 7 7 7-3.14 7-7-3.14-7-7-7Z" fill="#292D32"/><path d="M16 8.751c-.19 0-.38-.07-.53-.22a.754.754 0 0 1 0-1.06l5.5-5.5c.29-.29.77-.29 1.06 0 .29.29.29.77 0 1.06l-5.5 5.5c-.15.15-.34.22-.53.22Z" fill="#292D32"/><path d="M21.5 9.75c-.41 0-.75-.34-.75-.75V3.25H15c-.41 0-.75-.34-.75-.75s.34-.75.75-.75h6.5c.41 0 .75.34.75.75V9c0 .41-.34.75-.75.75Z" fill="#292D32"/></svg>