<svg width="24" height="24" fill="none" xmlns="http://www.w3.org/2000/svg"><path d="M21 12.75c-.41 0-.75-.34-.75-.75V3.75H12c-.41 0-.75-.34-.75-.75s.34-.75.75-.75h9c.41 0 .75.34.75.75v9c0 .41-.34.75-.75.75Z" fill="#292D32"/><path d="M3 21.751c-.19 0-.38-.07-.53-.22a.755.755 0 0 1 0-1.06l18-18c.29-.29.77-.29 1.06 0 .29.29.29.77 0 1.06l-18 18c-.15.15-.34.22-.53.22Z" fill="#292D32"/><path d="M17.4 18.15c-.19 0-.38-.071-.53-.221l-10.8-10.8a.754.754 0 0 1 0-1.06c.29-.29.77-.29 1.06 0l10.799 10.8c.29.29.29.77 0 1.06-.15.15-.34.22-.53.22Z" fill="#292D32"/></svg>