<svg width="24" height="24" fill="none" xmlns="http://www.w3.org/2000/svg"><path d="M22 19v3H2v-3c0-.55.45-1 1-1h18c.55 0 1 .45 1 1Z" fill="#292D32" stroke="#292D32" stroke-width="1.5" stroke-miterlimit="10" stroke-linecap="round" stroke-linejoin="round"/><path opacity=".6" d="M8 11H4v7h4v-7Z" fill="#292D32"/><path opacity=".4" d="M12 11H8v7h4v-7Z" fill="#292D32"/><path opacity=".6" d="M16 11h-4v7h4v-7Z" fill="#292D32"/><path opacity=".4" d="M20 11h-4v7h4v-7Z" fill="#292D32"/><path d="M23 22.75H1c-.41 0-.75-.34-.75-.75s.34-.75.75-.75h22c.41 0 .75.34.75.75s-.34.75-.75.75ZM21.37 5.75l-9-3.6c-.2-.08-.54-.08-.74 0l-9 3.6c-.35.14-.63.55-.63.93V10c0 .55.45 1 1 1h18c.55 0 1-.45 1-1V6.68c0-.38-.28-.79-.63-.93ZM12 8.5c-.83 0-1.5-.67-1.5-1.5s.67-1.5 1.5-1.5 1.5.67 1.5 1.5-.67 1.5-1.5 1.5Z" fill="#292D32"/></svg>