<svg width="24" height="24" fill="none" xmlns="http://www.w3.org/2000/svg"><path opacity=".4" d="M2.1 22.002V6.032c0-2.01 1-3.02 2.99-3.02h6.23c1.99 0 2.98 1.01 2.98 3.02v15.97" fill="#292D32"/><path d="M10.75 9H5.8c-.41 0-.75-.34-.75-.75s.34-.75.75-.75h4.95c.41 0 .75.34.75.75s-.34.75-.75.75ZM10.75 12.75H5.8c-.41 0-.75-.34-.75-.75s.34-.75.75-.75h4.95c.41 0 .75.34.75.75s-.34.75-.75.75ZM8.25 22.75c-.41 0-.75-.34-.75-.75v-3.75c0-.41.34-.75.75-.75s.75.34.75.75V22c0 .41-.34.75-.75.75Z" fill="#292D32"/><path d="M23 21.251h-2.27v-3c.95-.31 1.64-1.2 1.64-2.25v-2c0-1.31-1.07-2.38-2.38-2.38-1.31 0-2.38 1.07-2.38 2.38v2c0 1.04.68 1.92 1.61 2.24v3.01H1c-.41 0-.75.34-.75.75s.34.75.75.75h18.93c.02 0 .03.01.05.01.02 0 .03-.01.05-.01H23c.41 0 .75-.34.75-.75s-.34-.75-.75-.75Z" fill="#292D32"/></svg>