<svg width="24" height="24" fill="none" xmlns="http://www.w3.org/2000/svg"><path opacity=".6" d="M10.11 4c-.08.3-.11.63-.11 1v3H5V6c0-1.1.9-2 2-2h3.11Z" fill="#292D32"/><path d="M10 19V8H5c-2 0-3 1-3 3v8c0 2 1 3 3 3h8c-2 0-3-1-3-3Zm-3.25-2c0 .41-.34.75-.75.75s-.75-.34-.75-.75v-4c0-.41.34-.75.75-.75s.75.34.75.75v4Z" fill="#292D32"/><path opacity=".4" d="M14 22h-1c-2 0-3-1-3-3V5c0-2 1-3 3-3h6c2 0 3 1 3 3v14c0 2-1 3-3 3h-1" fill="#292D32"/><path d="M18 18v4h-4v-4c0-.55.45-1 1-1h2c.55 0 1 .45 1 1ZM14 13.75c-.41 0-.75-.34-.75-.75V8c0-.41.34-.75.75-.75s.75.34.75.75v5c0 .41-.34.75-.75.75ZM18 13.75c-.41 0-.75-.34-.75-.75V8c0-.41.34-.75.75-.75s.75.34.75.75v5c0 .41-.34.75-.75.75Z" fill="#292D32"/></svg>