<svg width="24" height="24" fill="none" xmlns="http://www.w3.org/2000/svg"><path d="M10.6 4.15V6H9.12C7.51 6 6.7 6.81 6.7 8.42V18H4.15C2.72 18 2 17.28 2 15.85V4.15C2 2.72 2.72 2 4.15 2h4.3c1.43 0 2.15.72 2.15 2.15Z" fill="#292D32"/><path opacity=".4" d="M17.37 8.42v11.16c0 1.61-.8 2.42-2.41 2.42H9.12c-1.61 0-2.42-.81-2.42-2.42V8.42C6.7 6.81 7.51 6 9.12 6h5.84c1.61 0 2.41.81 2.41 2.42Z" fill="#292D32"/><path d="M22 4.15v11.7c0 1.43-.72 2.15-2.15 2.15h-2.48V8.42c0-1.61-.8-2.42-2.41-2.42H13.4V4.15c0-1.43.72-2.15 2.15-2.15h4.3C21.28 2 22 2.72 22 4.15ZM14 11.75h-4c-.41 0-.75-.34-.75-.75s.34-.75.75-.75h4c.41 0 .75.34.75.75s-.34.75-.75.75ZM14 14.75h-4c-.41 0-.75-.34-.75-.75s.34-.75.75-.75h4c.41 0 .75.34.75.75s-.34.75-.75.75ZM12.75 19v3h-1.5v-3c0-.41.34-.75.75-.75s.75.34.75.75Z" fill="#292D32"/></svg>