<svg width="24" height="24" fill="none" xmlns="http://www.w3.org/2000/svg"><path opacity=".4" d="M15.01 14.75v7.24l-12 .02v-7.26L3 13.25V7.07c0-.67.34-1.29.89-1.66l4-2.67c.67-.45 1.55-.45 2.22 0l4 2.67c.56.37.89.99.89 1.66v6.18l.01 1.5Z" fill="#292D32"/><path d="M22 21.251h-1.27v-3c.95-.31 1.64-1.2 1.64-2.25v-2c0-1.31-1.07-2.38-2.38-2.38-1.31 0-2.38 1.07-2.38 2.38v2c0 1.04.68 1.92 1.61 2.24v3.01H2c-.41 0-.75.34-.75.75s.34.75.75.75h17.93c.02 0 .03.01.05.01.02 0 .03-.01.05-.01H22c.41 0 .75-.34.75-.75s-.34-.75-.75-.75Z" fill="#292D32"/><path d="M15.01 14.75h-12L3 13.25h12l.01 1.5ZM9 22.75c-.41 0-.75-.34-.75-.75v-3.75c0-.41.34-.75.75-.75s.75.34.75.75V22c0 .41-.34.75-.75.75ZM9 10.75a1.75 1.75 0 1 0 0-3.5 1.75 1.75 0 0 0 0 3.5Z" fill="#292D32"/></svg>