<svg width="24" height="24" fill="none" xmlns="http://www.w3.org/2000/svg"><path d="M22 21.25H2c-.41 0-.75.34-.75.75s.34.75.75.75h20c.41 0 .75-.34.75-.75s-.34-.75-.75-.75Z" fill="#292D32"/><path opacity=".4" d="M17 2H7C4 2 3 3.79 3 6v16h18V6c0-2.21-1-4-4-4Z" fill="#292D32"/><path d="M10 17.25H7c-.41 0-.75-.34-.75-.75s.34-.75.75-.75h3c.41 0 .75.34.75.75s-.34.75-.75.75ZM17 17.25h-3c-.41 0-.75-.34-.75-.75s.34-.75.75-.75h3c.41 0 .75.34.75.75s-.34.75-.75.75ZM10 12.75H7c-.41 0-.75-.34-.75-.75s.34-.75.75-.75h3c.41 0 .75.34.75.75s-.34.75-.75.75ZM17 12.75h-3c-.41 0-.75-.34-.75-.75s.34-.75.75-.75h3c.41 0 .75.34.75.75s-.34.75-.75.75ZM10 8.25H7c-.41 0-.75-.34-.75-.75s.34-.75.75-.75h3c.41 0 .75.34.75.75s-.34.75-.75.75ZM17 8.25h-3c-.41 0-.75-.34-.75-.75s.34-.75.75-.75h3c.41 0 .75.34.75.75s-.34.75-.75.75Z" fill="#292D32"/></svg>