<svg width="24" height="24" fill="none" xmlns="http://www.w3.org/2000/svg"><path opacity=".4" d="M17.42 1.381a.76.76 0 0 0-.7-.08c-1.43.57-3.01.57-4.44 0a.76.76 0 0 0-.7.08c-.21.14-.33.37-.33.62v6c0 .41.34.75.75.75s.75-.34.75-.75v-1.98c.58.14 1.16.22 1.75.22.94 0 1.88-.18 2.78-.54.28-.11.47-.39.47-.7v-3c0-.25-.12-.48-.33-.62Z" fill="#292D32"/><path d="M22 21.25h-1.25V11c0-2.42-1.33-3.75-3.75-3.75H7c-2.42 0-3.75 1.33-3.75 3.75v10.25H2c-.41 0-.75.34-.75.75s.34.75.75.75h20c.41 0 .75-.34.75-.75s-.34-.75-.75-.75Zm-2.75-8.5v8.5h-2.51v-8.5h2.51Zm-8.01 8.5h-2.5v-8.5h2.5v8.5Zm1.5-8.5h2.5v8.5h-2.5v-8.5Zm-7.99 0h2.49v8.5H4.75v-8.5Z" fill="#292D32"/></svg>