<svg width="24" height="24" fill="none" xmlns="http://www.w3.org/2000/svg"><path d="M22.75 22c0 .41-.34.75-.75.75H2a.749.749 0 1 1 0-1.5h20c.41 0 .75.33.75.75Z" fill="#292D32"/><path opacity=".4" d="M21 9.979v11.27H2.95L3 9.969c0-.61.28-1.19.77-1.57l7-5.44c.72-.57 1.74-.57 2.46 0l7 5.44c.49.38.77.96.77 1.58Z" fill="#292D32"/><path d="M13.5 8.25h-3c-.41 0-.75-.34-.75-.75s.34-.75.75-.75h3c.41 0 .75.34.75.75s-.34.75-.75.75ZM15.5 11h-7c-.83 0-1.5.67-1.5 1.5V22h10v-9.5c0-.83-.67-1.5-1.5-1.5Zm-4.75 6.75c0 .41-.34.75-.75.75s-.75-.34-.75-.75v-1.5c0-.41.34-.75.75-.75s.75.34.75.75v1.5Z" fill="#292D32"/></svg>