<svg width="24" height="24" fill="none" xmlns="http://www.w3.org/2000/svg"><path d="M22 22.75H2c-.41 0-.75-.34-.75-.75s.34-.75.75-.75h20c.41 0 .75.34.75.75s-.34.75-.75.75Z" fill="#292D32"/><path opacity=".4" d="M21 9.979v12.02H2.95L3 9.969c0-.61.28-1.19.77-1.57l7-5.44c.72-.57 1.74-.57 2.46 0l1.34 1.04L19 7.439l1.23.96c.49.38.77.96.77 1.58Z" fill="#292D32"/><path d="M13 17h-2c-.83 0-1.5.67-1.5 1.5V22h5v-3.5c0-.83-.67-1.5-1.5-1.5ZM9.5 13.75h-2c-.55 0-1-.45-1-1v-1.5c0-.55.45-1 1-1h2c.55 0 1 .45 1 1v1.5c0 .55-.45 1-1 1ZM16.5 13.75h-2c-.55 0-1-.45-1-1v-1.5c0-.55.45-1 1-1h2c.55 0 1 .45 1 1v1.5c0 .55-.45 1-1 1ZM19 7.44 14.57 4h3.41c.55 0 1 .44 1 .99L19 7.44Z" fill="#292D32"/></svg>