<svg width="24" height="24" fill="none" xmlns="http://www.w3.org/2000/svg"><path d="M6.96 3.102c1.63 0 3.07.78 3.97 1.99a4.957 4.957 0 0 1 3.97-1.99c2.74 0 4.96 2.23 4.96 4.99 0 .42-.03.83-.08 1.22a3.714 3.714 0 0 0-4.46 1.18c-.68-.9-1.76-1.49-2.98-1.49-2.05 0-3.71 1.67-3.71 3.74 0 2.68 1.42 4.73 3 6.12-.05.03-.1.04-.15.06-.3.11-.8.11-1.1 0C7.79 18.032 2 14.352 2 8.092c0-1.17.4-2.25 1.07-3.1" stroke="#292D32" stroke-width="1.5" stroke-linecap="round" stroke-linejoin="round"/><path d="M22 12.74c0 4.68-4.33 7.44-6.27 8.1-.23.08-.6.08-.83 0-.83-.28-2.1-.95-3.27-1.98-1.58-1.39-3-3.44-3-6.12 0-2.07 1.66-3.74 3.71-3.74 1.22 0 2.3.59 2.98 1.49a3.714 3.714 0 0 1 4.46-1.18" stroke="#292D32" stroke-width="1.5" stroke-linecap="round" stroke-linejoin="round"/></svg>