<svg width="24" height="24" fill="none" xmlns="http://www.w3.org/2000/svg"><path d="M4.27 6.42c-.59-1.9.47-2.95 2.36-2.33l2.95.97c.5.16 1.25.05 1.67-.26l3.08-2.22c1.67-1.2 3-.5 2.96 1.55l-.07 3.79c-.01.52.32 1.21.74 1.52l2.48 1.88c1.59 1.2 1.33 2.67-.57 3.27l-3.23 1.01c-.54.17-1.11.76-1.25 1.31l-.77 2.94c-.61 2.32-2.13 2.55-3.39.51l-1.76-2.85c-.32-.52-1.08-.91-1.68-.88l-3.34.17c-2.39.12-3.07-1.26-1.51-3.08l1.98-2.3c.19-.22.32-.52.39-.84M21.91 21.999l-3.03-3.03" stroke="#292D32" stroke-width="1.5" stroke-linecap="round" stroke-linejoin="round"/></svg>