<svg width="24" height="24" fill="none" xmlns="http://www.w3.org/2000/svg"><path d="M7.5 4.5h-.25V2c0-.41-.34-.75-.75-.75s-.75.34-.75.75v2.5H5.5C3.91 4.5 3 5.41 3 7v6c0 1.59.91 2.5 2.5 2.5h.25V22c0 .41.34.75.75.75s.75-.34.75-.75v-6.5h.25c1.59 0 2.5-.91 2.5-2.5V7c0-1.59-.91-2.5-2.5-2.5ZM18.5 8.5h-.25V2c0-.41-.34-.75-.75-.75s-.75.34-.75.75v6.5h-.25c-1.59 0-2.5.91-2.5 2.5v6c0 1.59.91 2.5 2.5 2.5h.25V22c0 .41.34.75.75.75s.75-.34.75-.75v-2.5h.25c1.59 0 2.5-.91 2.5-2.5v-6c0-1.59-.91-2.5-2.5-2.5Z" fill="#292D32"/></svg>