<svg width="24" height="24" fill="none" xmlns="http://www.w3.org/2000/svg"><path d="M7.24 2h-1.9C3.15 2 2 3.15 2 5.33v1.9c0 2.18 1.15 3.33 3.33 3.33h1.9c2.18 0 3.33-1.15 3.33-3.33v-1.9C10.57 3.15 9.42 2 7.24 2ZM18.67 2h-1.9c-2.18 0-3.33 1.15-3.33 3.33v1.9c0 2.18 1.15 3.33 3.33 3.33h1.9c2.18 0 3.33-1.15 3.33-3.33v-1.9C22 3.15 20.85 2 18.67 2ZM18.67 13.43h-1.9c-2.18 0-3.33 1.15-3.33 3.33v1.9c0 2.18 1.15 3.33 3.33 3.33h1.9c2.18 0 3.33-1.15 3.33-3.33v-1.9c0-2.18-1.15-3.33-3.33-3.33ZM7.24 13.43h-1.9C3.15 13.43 2 14.58 2 16.76v1.9C2 20.85 3.15 22 5.33 22h1.9c2.18 0 3.33-1.15 3.33-3.33v-1.9c.01-2.19-1.14-3.34-3.32-3.34Z" fill="#292D32"/></svg>