<svg width="24" height="24" fill="none" xmlns="http://www.w3.org/2000/svg"><path d="M21.3 7.58h-5.58c-.39 0-.7-.31-.7-.7 0-.39.31-.7.7-.7h5.58c.39 0 .7.31.7.7 0 .39-.31.7-.7.7ZM6.42 7.58H2.7c-.39 0-.7-.31-.7-.7 0-.39.31-.7.7-.7h3.72c.39 0 .7.31.7.7 0 .39-.32.7-.7.7Z" fill="#292D32"/><path d="M10.14 10.83a3.95 3.95 0 1 0 0-7.9 3.95 3.95 0 0 0 0 7.9ZM21.3 17.81h-3.72c-.39 0-.7-.31-.7-.7 0-.39.31-.7.7-.7h3.72c.39 0 .7.31.7.7 0 .39-.31.7-.7.7ZM8.28 17.81H2.7c-.39 0-.7-.31-.7-.7 0-.39.31-.7.7-.7h5.58c.39 0 .7.31.7.7 0 .39-.32.7-.7.7Z" fill="#292D32"/><path d="M13.86 21.072a3.95 3.95 0 1 0 0-7.9 3.95 3.95 0 0 0 0 7.9Z" fill="#292D32"/></svg>