<svg width="24" height="24" fill="none" xmlns="http://www.w3.org/2000/svg"><path d="M12.499 22h-8.42c-1.16 0-2.11-.93-2.11-2.07V5.09c0-2.62 1.95-3.81 4.34-2.64l4.44 2.18c.96.47 1.75 1.72 1.75 2.78V22ZM21.97 15.062v3.78c0 2.16-1 3.16-3.16 3.16H12.5v-11.58l.47.1 4.5 1.01 2.03.45c1.32.29 2.4.97 2.46 2.89.01.06.01.12.01.19Z" stroke="#292D32" stroke-width="1.5" stroke-linecap="round" stroke-linejoin="round"/><path opacity=".4" d="M5.5 9h3.47M5.5 13h3.47" stroke="#292D32" stroke-width="1.5" stroke-linecap="round" stroke-linejoin="round"/><path d="M17.469 11.53v3.22c0 1.24-1.01 2.25-2.25 2.25s-2.25-1.01-2.25-2.25v-4.23l4.5 1.01ZM21.959 14.871a2.249 2.249 0 0 1-2.24 2.13c-1.24 0-2.25-1.01-2.25-2.25v-3.22l2.03.45c1.32.29 2.4.97 2.46 2.89Z" stroke="#292D32" stroke-width="1.5" stroke-linecap="round" stroke-linejoin="round"/></svg>