<svg width="24" height="24" fill="none" xmlns="http://www.w3.org/2000/svg"><path opacity=".4" d="M6.7 18H4.15C2.72 18 2 17.28 2 15.85V4.15C2 2.72 2.72 2 4.15 2h4.3c1.43 0 2.15.72 2.15 2.15V6" stroke="#292D32" stroke-width="1.5" stroke-miterlimit="10" stroke-linecap="round" stroke-linejoin="round"/><path d="M17.37 8.42v11.16c0 1.61-.8 2.42-2.41 2.42H9.12c-1.61 0-2.42-.81-2.42-2.42V8.42C6.7 6.81 7.51 6 9.12 6h5.84c1.61 0 2.41.81 2.41 2.42Z" stroke="#292D32" stroke-width="1.5" stroke-miterlimit="10" stroke-linecap="round" stroke-linejoin="round"/><path opacity=".4" d="M13.4 6V4.15c0-1.43.72-2.15 2.15-2.15h4.3C21.28 2 22 2.72 22 4.15v11.7c0 1.43-.72 2.15-2.15 2.15h-2.48M10 11h4M10 14h4" stroke="#292D32" stroke-width="1.5" stroke-miterlimit="10" stroke-linecap="round" stroke-linejoin="round"/><path d="M12 22v-3" stroke="#292D32" stroke-width="1.5" stroke-miterlimit="10" stroke-linecap="round" stroke-linejoin="round"/></svg>