<svg width="24" height="24" fill="none" xmlns="http://www.w3.org/2000/svg"><path d="M1 22h22" stroke="#292D32" stroke-width="1.5" stroke-miterlimit="10" stroke-linecap="round" stroke-linejoin="round"/><path opacity=".4" d="M19.78 22.01v-4.46" stroke="#292D32" stroke-width="1.5" stroke-miterlimit="10" stroke-linecap="round" stroke-linejoin="round"/><path d="M19.8 10.89c-1.22 0-2.2.98-2.2 2.2v2.27c0 1.22.98 2.2 2.2 2.2 1.22 0 2.2-.98 2.2-2.2v-2.27c0-1.22-.98-2.2-2.2-2.2ZM2.1 22.002V6.032c0-2.01 1-3.02 2.99-3.02h6.23c1.99 0 2.98 1.01 2.98 3.02v15.97" stroke="#292D32" stroke-width="1.5" stroke-miterlimit="10" stroke-linecap="round" stroke-linejoin="round"/><path opacity=".4" d="M5.8 8.25h4.95M5.8 12h4.95M8.25 22v-3.75" stroke="#292D32" stroke-width="1.5" stroke-miterlimit="10" stroke-linecap="round" stroke-linejoin="round"/></svg>