<svg width="24" height="24" fill="none" xmlns="http://www.w3.org/2000/svg"><path d="M17 22.75H7c-4.41 0-5.75-1.34-5.75-5.75V7c0-4.41 1.34-5.75 5.75-5.75h1.5c1.75 0 2.3.57 3 1.5l1.5 2c.33.44.38.5 1 .5h3c4.41 0 5.75 1.34 5.75 5.75v6c0 4.41-1.34 5.75-5.75 5.75Zm-10-20c-3.58 0-4.25.68-4.25 4.25v10c0 3.57.67 4.25 4.25 4.25h10c3.58 0 4.25-.68 4.25-4.25v-6c0-3.57-.67-4.25-4.25-4.25h-3c-1.28 0-1.7-.44-2.2-1.1l-1.5-2c-.52-.69-.68-.9-1.8-.9H7Z" fill="#292D32"/><path d="M20 7.13c-.41 0-.75-.34-.75-.75V5c0-1.58-.67-2.25-2.25-2.25H8c-.41 0-.75-.34-.75-.75s.34-.75.75-.75h9c2.42 0 3.75 1.33 3.75 3.75v1.38c0 .41-.34.75-.75.75Z" fill="#292D32"/></svg>