<svg width="24" height="24" fill="none" xmlns="http://www.w3.org/2000/svg"><path d="M18.289 22.75H5.709c-3.4 0-3.58-1.87-3.73-3.38l-.4-5.01c-.09-.97.19-1.94.81-2.72a3.74 3.74 0 0 1 2.92-1.39h13.38c1.11 0 2.16.49 2.87 1.34l.17.23c.54.74.78 1.64.69 2.55l-.4 4.99c-.15 1.52-.33 3.39-3.73 3.39Zm-12.98-11c-.67 0-1.31.3-1.73.82l-.07.07c-.32.41-.49.99-.43 1.59l.4 5.01c.14 1.46.2 2.01 2.23 2.01h12.58c2.04 0 2.09-.55 2.23-2.02l.4-5.01a2.18 2.18 0 0 0-.5-1.64l-.1-.12c-.45-.47-1.02-.71-1.64-.71H5.309Z" fill="#292D32"/><path d="M20.5 12.221c-.41 0-.75-.34-.75-.75v-1.79c0-2.98-.52-3.5-3.5-3.5H13.7c-1.13 0-1.52-.4-1.95-.97l-1.29-1.71c-.44-.58-.54-.72-1.44-.72H7.75c-2.98 0-3.5.52-3.5 3.5v5.15c0 .41-.34.75-.75.75s-.75-.34-.75-.75v-5.15c0-3.83 1.17-5 5-5h1.28c1.54 0 2.02.5 2.64 1.32l1.28 1.7c.27.36.29.38.76.38h2.55c3.83 0 5 1.17 5 5v1.79a.77.77 0 0 1-.76.75ZM14.57 17.75H9.43c-.41 0-.75-.34-.75-.75s.34-.75.75-.75h5.14a.749.749 0 1 1 0 1.5Z" fill="#292D32"/></svg>