<svg width="24" height="24" fill="none" xmlns="http://www.w3.org/2000/svg"><path d="M13.81 16.479c-.19 0-.38-.07-.53-.22l-3.54-3.54a.754.754 0 0 1 0-1.06c.29-.29.77-.29 1.06 0l3.54 3.54c.29.29.29.77 0 1.06-.15.14-.34.22-.53.22Z" fill="#292D32"/><path d="M10.232 16.522c-.19 0-.38-.07-.53-.22a.754.754 0 0 1 0-1.06l3.54-3.54c.29-.29.77-.29 1.06 0 .29.29.29.77 0 1.06l-3.54 3.54c-.14.14-.34.22-.53.22Z" fill="#292D32"/><path d="M17 22.75H7c-4.41 0-5.75-1.34-5.75-5.75V7c0-4.41 1.34-5.75 5.75-5.75h1.5c1.75 0 2.3.57 3 1.5l1.5 2c.33.44.38.5 1 .5h3c4.41 0 5.75 1.34 5.75 5.75v6c0 4.41-1.34 5.75-5.75 5.75Zm-10-20c-3.57 0-4.25.68-4.25 4.25v10c0 3.57.68 4.25 4.25 4.25h10c3.57 0 4.25-.68 4.25-4.25v-6c0-3.57-.68-4.25-4.25-4.25h-3c-1.28 0-1.7-.44-2.2-1.1l-1.5-2c-.52-.69-.67-.9-1.8-.9H7Z" fill="#292D32"/></svg>