<svg width="24" height="24" fill="none" xmlns="http://www.w3.org/2000/svg"><path d="M9 22.75H7c-4.41 0-5.75-1.34-5.75-5.75V7c0-4.41 1.34-5.75 5.75-5.75h1.5c1.75 0 2.3.57 3 1.5l1.5 2c.33.44.38.5 1 .5h3c4.41 0 5.75 1.34 5.75 5.75v2c0 .41-.34.75-.75.75s-.75-.34-.75-.75v-2c0-3.57-.67-4.25-4.25-4.25h-3c-1.28 0-1.7-.44-2.2-1.1l-1.5-2c-.52-.69-.68-.9-1.8-.9H7c-3.58 0-4.25.68-4.25 4.25v10c0 3.57.67 4.25 4.25 4.25h2c.41 0 .75.34.75.75s-.34.75-.75.75Z" fill="#292D32"/><path d="M19.342 22.811h-5.59c-1.67-.12-2.51-1.4-2.51-2.62 0-.98.55-2.01 1.61-2.43-.22-1.25.1-2.41.93-3.28 1.02-1.07 2.66-1.5 4.08-1.07 1.24.38 2.13 1.36 2.5 2.72 1.05.32 1.88 1.15 2.22 2.28.4 1.31.03 2.65-.96 3.51-.6.57-1.42.89-2.28.89Zm-5.55-3.74c-.76.07-1.04.64-1.04 1.12 0 .48.28 1.06 1.06 1.12h5.51c.48.04.96-.18 1.32-.5.65-.57.69-1.38.52-1.96-.17-.58-.67-1.23-1.51-1.34a.753.753 0 0 1-.65-.62c-.22-1.35-.98-1.85-1.57-2.04-.88-.27-1.92.01-2.55.67-.43.45-.85 1.26-.38 2.55a.75.75 0 0 1-.45.96c-.09.03-.18.04-.26.04Z" fill="#292D32"/></svg>