<svg width="24" height="24" fill="none" xmlns="http://www.w3.org/2000/svg"><path d="M11.998 17.881c-.25 0-.51-.09-.71-.27l-2.58-2.26c-.97-.85-1.1-2.31-.29-3.32a2.4 2.4 0 0 1 3.33-.42l.25.19.26-.2a2.4 2.4 0 0 1 3.33.42c.81 1.01.68 2.47-.29 3.32l-2.58 2.26c-.21.19-.47.28-.72.28Zm-2.31-3.66 2.31 2.02 2.31-2.02c.37-.32.42-.87.11-1.25a.903.903 0 0 0-1.26-.16l-.71.53c-.27.2-.63.2-.9 0l-.71-.53a.904.904 0 0 0-1.26.16c-.3.38-.25.93.11 1.25Z" fill="#292D32"/><path d="M17 22.75H7c-4.41 0-5.75-1.34-5.75-5.75V7c0-4.41 1.34-5.75 5.75-5.75h1.5c1.75 0 2.3.57 3 1.5l1.5 2c.33.44.38.5 1 .5h3c4.41 0 5.75 1.34 5.75 5.75v6c0 4.41-1.34 5.75-5.75 5.75Zm-10-20c-3.58 0-4.25.68-4.25 4.25v10c0 3.57.67 4.25 4.25 4.25h10c3.58 0 4.25-.68 4.25-4.25v-6c0-3.57-.67-4.25-4.25-4.25h-3c-1.28 0-1.7-.44-2.2-1.1l-1.5-2c-.52-.69-.68-.9-1.8-.9H7Z" fill="#292D32"/></svg>