<svg width="24" height="24" fill="none" xmlns="http://www.w3.org/2000/svg"><path d="M21.49 12c.32-1.02.51-2.12.51-3.31 0-3.09-2.49-5.59-5.56-5.59-1.82 0-3.43.88-4.44 2.24A5.53 5.53 0 0 0 7.56 3.1C4.49 3.1 2 5.6 2 8.69c0 7 6.48 11.13 9.38 12.13.17.06.39.09.62.09" stroke="#292D32" stroke-width="1.5" stroke-linecap="round" stroke-linejoin="round"/><path d="M17.74 21a3.2 3.2 0 1 0 0-6.4 3.2 3.2 0 0 0 0 6.4ZM21.54 21.6l-1-1" stroke="#292D32" stroke-width="1.5" stroke-linecap="round" stroke-linejoin="round"/></svg>