<svg width="24" height="24" fill="none" xmlns="http://www.w3.org/2000/svg"><path d="M18 18.86h-.76c-.8 0-1.56.31-2.12.87l-1.71 1.69c-.78.77-2.05.77-2.83 0l-1.71-1.69c-.56-.56-1.33-.87-2.12-.87H6c-1.66 0-3-1.33-3-2.97V4.98c0-1.64 1.34-2.97 3-2.97h12c1.66 0 3 1.33 3 2.97v10.91c0 1.63-1.34 2.97-3 2.97Z" stroke="#292D32" stroke-width="1.5" stroke-miterlimit="10" stroke-linecap="round" stroke-linejoin="round"/><path d="M12.28 14.96c-.15.05-.4.05-.56 0-1.3-.45-4.22-2.3-4.22-5.45C7.5 8.12 8.62 7 10 7c.82 0 1.54.39 2 1 .46-.61 1.18-1 2-1 1.38 0 2.5 1.12 2.5 2.51-.01 3.15-2.92 5-4.22 5.45Z" stroke="#292D32" stroke-width="1.5" stroke-linecap="round" stroke-linejoin="round"/></svg>