<svg width="24" height="24" fill="none" xmlns="http://www.w3.org/2000/svg"><path opacity=".4" d="M10 16c0-1.66 0-3 3-3h4c3 0 3-1 3-3V8c0-2 0-3-3-3h-1" stroke="#292D32" stroke-width="1.5" stroke-linecap="round" stroke-linejoin="round"/><path d="M12 2H8a9.475 9.475 0 0 0 0 6h4c.65-1.95.65-4.05 0-6Z" stroke="#292D32" stroke-width="1.5" stroke-linecap="round" stroke-linejoin="round"/><path d="M8 2H7C5 2 4 3 4 5s1 3 3 3h1C7 6 7 4 8 2ZM13 2h-1c1 2 1 4 0 6h1c2 0 3-1 3-3s-1-3-3-3ZM9.5 22h1c1.5 0 1.5-1 1.5-1.5v-3c0-.5 0-1.5-1.5-1.5h-1C8 16 8 17 8 17.5v3C8 21 8 22 9.5 22Z" stroke="#292D32" stroke-width="1.5" stroke-linecap="round" stroke-linejoin="round"/></svg>