<svg width="24" height="24" fill="none" xmlns="http://www.w3.org/2000/svg"><g opacity=".4" stroke="#292D32" stroke-width="1.5" stroke-linecap="round" stroke-linejoin="round"><path d="m9.41 15.95-2.39-2.39c-.8-.8-.8-1.6 0-2.39l3.99-3.99 4.39 4.39c.22.22.22.58 0 .8l-3.59 3.59c-.8.79-1.6.79-2.4-.01ZM10.21 6.379l.801.8M6.46 12.328l9.03-.39" stroke-miterlimit="10"/><path d="M16.471 14.168s-1.1 1.2-1.1 1.93c0 .61.5 1.1 1.1 1.1.61 0 1.1-.5 1.1-1.1.01-.74-1.1-1.93-1.1-1.93Z"/></g><path d="M12 22c5.523 0 10-4.477 10-10S17.523 2 12 2 2 6.477 2 12s4.477 10 10 10Z" stroke="#292D32" stroke-width="1.5" stroke-linecap="round" stroke-linejoin="round"/></svg>