<svg width="24" height="24" fill="none" xmlns="http://www.w3.org/2000/svg"><path d="M14 16c0 1.77-.77 3.37-2 4.46A5.93 5.93 0 0 1 8 22c-3.31 0-6-2.69-6-6 0-2.76 1.88-5.1 4.42-5.79a6.019 6.019 0 0 0 4 3.58c.5.14 1.03.21 1.58.21s1.08-.07 1.58-.21c.27.68.42 1.43.42 2.21Z" stroke="#292D32" stroke-width="1.5" stroke-linecap="round" stroke-linejoin="round"/><path d="M18 8a5.993 5.993 0 0 1-4.42 5.79c-.5.14-1.03.21-1.58.21s-1.08-.07-1.58-.21A5.993 5.993 0 0 1 6 8c0-3.31 2.69-6 6-6s6 2.69 6 6Z" stroke="#292D32" stroke-width="1.5" stroke-linecap="round" stroke-linejoin="round"/><path opacity=".4" d="M22 16c0 3.31-2.69 6-6 6a5.93 5.93 0 0 1-4-1.54c1.23-1.09 2-2.69 2-4.46 0-.78-.15-1.53-.42-2.21 1.83-.5 3.31-1.84 4-3.58C20.12 10.9 22 13.24 22 16Z" stroke="#292D32" stroke-width="1.5" stroke-linecap="round" stroke-linejoin="round"/></svg>