<svg width="24" height="24" fill="none" xmlns="http://www.w3.org/2000/svg"><g opacity=".4" stroke="#292D32" stroke-width="1.5" stroke-linecap="round" stroke-linejoin="round"><path d="M13.2 14.4c0 1.06-.46 2.02-1.2 2.68-.64.58-1.48.92-2.4.92a3.598 3.598 0 0 1-.95-7.07A3.61 3.61 0 0 0 12 13.21c.33 0 .65-.04.95-.13.16.4.25.85.25 1.32Z"/><path d="M15.6 9.6c0 .47-.09.92-.25 1.33A3.61 3.61 0 0 1 12 13.21c-.33 0-.65-.04-.95-.13A3.587 3.587 0 0 1 8.4 9.6C8.4 7.61 10.01 6 12 6s3.6 1.61 3.6 3.6Z"/><path d="M18 14.402a3.598 3.598 0 0 1-6 2.68 3.55 3.55 0 0 0 1.2-2.68c0-.47-.09-.92-.25-1.33 1.1-.3 1.99-1.1 2.4-2.15a3.62 3.62 0 0 1 2.65 3.48Z"/></g><path d="M9 22h6c5 0 7-2 7-7V9c0-5-2-7-7-7H9C4 2 2 4 2 9v6c0 5 2 7 7 7Z" stroke="#292D32" stroke-width="1.5" stroke-linecap="round" stroke-linejoin="round"/></svg>