<svg width="24" height="24" fill="none" xmlns="http://www.w3.org/2000/svg"><path d="M4.93 19.07A9.969 9.969 0 0 1 2 12C2 6.48 6.48 2 12 2c2.76 0 5.26 1.12 7.07 2.93" stroke="#292D32" stroke-width="1.5" stroke-linecap="round" stroke-linejoin="round"/><path d="M19.07 4.93A9.969 9.969 0 0 1 22 12c0 5.52-4.48 10-10 10-2.76 0-5.26-1.12-7.07-2.93" stroke="#292D32" stroke-width="1.5" stroke-linecap="round" stroke-linejoin="round"/><g opacity=".4" stroke="#292D32" stroke-width="1.5" stroke-linecap="round" stroke-linejoin="round"><path d="M19.07 4.93 4.93 19.07M7.76 16.238l5.65 5.66M11.29 12.71l6.58 6.57M14.83 9.168l6.29 6.3"/></g></svg>