<svg width="24" height="24" fill="none" xmlns="http://www.w3.org/2000/svg"><path d="M21.97 12.001c0 2.94-1.28 5.6-3.32 7.41a9.836 9.836 0 0 1-6.65 2.56c-5.5 0-9.97-4.47-9.97-9.97 0-5.5 4.47-9.97 9.97-9.97 2.56 0 4.89.96 6.65 2.56a9.89 9.89 0 0 1 3.32 7.41Z" stroke="#292D32" stroke-width="1.5" stroke-linecap="round" stroke-linejoin="round"/><path opacity=".4" d="M11.97 16.388c-.02 1.65-1.25 2.05-2.4 1.59a6.439 6.439 0 0 1-4.04-5.98c0-2.71 1.67-5.03 4.04-5.99 1.15-.46 2.38-.05 2.4 1.59v8.79Z" stroke="#292D32" stroke-width="1.5" stroke-linecap="round" stroke-linejoin="round"/></svg>