<svg width="24" height="24" fill="none" xmlns="http://www.w3.org/2000/svg"><g opacity=".4" stroke="#292D32" stroke-width="1.5" stroke-linecap="round" stroke-linejoin="round"><path d="M10.75 22.5h2.52c.96 0 1.58-.68 1.4-1.51l-.41-1.81h-4.5l-.41 1.81c-.18.78.5 1.51 1.4 1.51ZM14.26 19.17l1.73-1.54c.97-.86 1.01-1.46.24-2.43l-3.05-3.87c-.64-.81-1.69-.81-2.33 0L7.8 15.2c-.77.97-.77 1.6.24 2.43l1.73 1.54M12.01 11.121v2.53"/></g><path d="m11.15 5.19-.78-.78c-.47-.47-.47-1.23 0-1.7l.78-.78c.47-.47 1.23-.47 1.7 0l.78.78c.47.47.47 1.23 0 1.7l-.78.78c-.47.47-1.23.47-1.7 0ZM19.45 9.809h1.1c.66 0 1.2.54 1.2 1.2v1.1c0 .66-.54 1.2-1.2 1.2h-1.1c-.66 0-1.2-.54-1.2-1.2v-1.1c0-.66.54-1.2 1.2-1.2ZM4.55 9.809h-1.1c-.66 0-1.2.54-1.2 1.2v1.1c0 .66.54 1.2 1.2 1.2h1.1c.66 0 1.2-.54 1.2-1.2v-1.1c0-.66-.54-1.2-1.2-1.2ZM18.54 10.1l-5.3-5.3M5.46 10.1l5.3-5.3" stroke="#292D32" stroke-width="1.5" stroke-linecap="round" stroke-linejoin="round"/></svg>