<svg width="24" height="24" fill="none" xmlns="http://www.w3.org/2000/svg"><path d="M12 19a4 4 0 1 0 0-8 4 4 0 0 0 0 8Z" stroke="#292D32" stroke-width="1.5" stroke-miterlimit="10" stroke-linecap="round" stroke-linejoin="round"/><path d="m10.44 15 .65.65c.19.19.5.2.69.01l1.78-1.64" stroke="#292D32" stroke-width="1.5" stroke-linecap="round" stroke-linejoin="round"/><path d="m3.81 16.56.23 1.87C4.26 20.39 4.98 22 9 22h6c4.02 0 4.74-1.61 4.95-3.57l.75-6C20.97 9.99 20.27 8 16 8H8c-4.27 0-4.97 1.99-4.7 4.43M7.5 7.67V6.7c0-2.25 1.81-4.46 4.06-4.67a4.5 4.5 0 0 1 4.94 4.48v1.38" stroke="#292D32" stroke-width="1.5" stroke-miterlimit="10" stroke-linecap="round" stroke-linejoin="round"/></svg>