<svg width="24" height="24" fill="none" xmlns="http://www.w3.org/2000/svg"><path d="m9.62 16 1.5 1.5 3.25-3" stroke="#292D32" stroke-width="1.5" stroke-linecap="round" stroke-linejoin="round"/><path d="M8.81 2 5.19 5.63M15.19 2l3.62 3.63" stroke="#292D32" stroke-width="1.5" stroke-miterlimit="10" stroke-linecap="round" stroke-linejoin="round"/><path d="M2 7.852c0-1.85.99-2 2.22-2h15.56c1.23 0 2.22.15 2.22 2 0 2.15-.99 2-2.22 2H4.22c-1.23 0-2.22.15-2.22-2Z" stroke="#292D32" stroke-width="1.5"/><path d="M4.91 18.64C5.23 20.58 6 22 8.86 22h6.03c3.11 0 3.57-1.36 3.93-3.24L20.5 10M3.5 10l.69 4.25" stroke="#292D32" stroke-width="1.5" stroke-linecap="round"/></svg>