<svg width="24" height="24" fill="none" xmlns="http://www.w3.org/2000/svg"><path d="M9.231 19.161h1v2.33c0 .34.43.51.65.25l2.45-2.79c.3-.34.17-.62-.28-.62h-1v-2.33c0-.34-.43-.51-.65-.25l-2.45 2.79c-.3.34-.17.62.28.62ZM11.998 3.98c-3.99-.34-8.34 3.11-6.38 8.58M16.61 20c1.34.01 2.63-.49 3.62-1.39 3.27-2.86 1.52-8.6-2.79-9.14-.24-1.45-.77-2.59-1.48-3.45M7.28 12.97c-.53-.27-1.12-.41-1.71-.4-4.66.33-4.65 7.11 0 7.44" stroke="#292D32" stroke-width="1.5" stroke-miterlimit="10" stroke-linecap="round" stroke-linejoin="round"/><path d="M15.82 9.89c.52-.26 1.08-.4 1.66-.41" stroke="#292D32" stroke-width="1.5" stroke-miterlimit="10" stroke-linecap="round" stroke-linejoin="round"/></svg>