<svg width="24" height="24" fill="none" xmlns="http://www.w3.org/2000/svg"><path d="M9 10a2 2 0 1 0 0-4 2 2 0 0 0 0 4Z" stroke="#292D32" stroke-width="1.5" stroke-linecap="round" stroke-linejoin="round"/><path d="M13 2H9C4 2 2 4 2 9v6c0 5 2 7 7 7h6c5 0 7-2 7-7v-5" stroke="#292D32" stroke-width="1.5" stroke-linecap="round" stroke-linejoin="round"/><path d="m19.14 2.59-3.63 3.63c-.14.14-.28.41-.3.61l-.2 1.39c-.07.5.28.85.78.78l1.39-.2c.19-.03.47-.16.61-.3l3.63-3.63c.63-.63.92-1.35 0-2.27-.93-.94-1.65-.64-2.28-.01Z" stroke="#292D32" stroke-width="1.5" stroke-miterlimit="10" stroke-linecap="round" stroke-linejoin="round"/><path d="M18.62 3.11c.31 1.1 1.17 1.96 2.27 2.27" stroke="#292D32" stroke-width="1.5" stroke-miterlimit="10" stroke-linecap="round" stroke-linejoin="round"/><path d="m2.67 18.95 4.93-3.31c.79-.53 1.93-.47 2.64.14l.33.29c.78.67 2.04.67 2.82 0l4.16-3.57c.78-.67 2.04-.67 2.82 0L22 13.9" stroke="#292D32" stroke-width="1.5" stroke-linecap="round" stroke-linejoin="round"/></svg>