<svg width="24" height="24" fill="none" xmlns="http://www.w3.org/2000/svg"><path d="M22 10V9c0-5-2-7-7-7H9C4 2 2 4 2 9v6c0 5 2 7 7 7h2M15.27 22a1.44 1.44 0 1 0 0-2.88 1.44 1.44 0 0 0 0 2.88Z" stroke="#292D32" stroke-width="1.5" stroke-linecap="round" stroke-linejoin="round"/><path d="M22 19.6v-5.64c0-1.2-.75-1.37-1.52-1.16l-2.89.79c-.52.14-.89.56-.89 1.16v5.82" stroke="#292D32" stroke-width="1.5" stroke-linecap="round" stroke-linejoin="round"/><path d="M20.56 21.04a1.44 1.44 0 1 0 0-2.88 1.44 1.44 0 0 0 0 2.88ZM16.71 16.43 22 14.99" stroke="#292D32" stroke-width="1.5" stroke-linecap="round" stroke-linejoin="round"/></svg>