<svg width="24" height="24" fill="none" xmlns="http://www.w3.org/2000/svg"><path d="M2 3h20M2 9h9M2 15h6M2 21h4" stroke="#292D32" stroke-width="1.5" stroke-miterlimit="10" stroke-linecap="round" stroke-linejoin="round"/><path d="M11.84 22a2.18 2.18 0 1 0 0-4.36 2.18 2.18 0 0 0 0 4.36Z" stroke="#292D32" stroke-width="1.5" stroke-linecap="round" stroke-linejoin="round"/><path d="M22 18.37V9.86c0-1.81-1.14-2.06-2.29-1.75L15.36 9.3c-.79.22-1.34.84-1.34 1.75v8.77" stroke="#292D32" stroke-width="1.5" stroke-linecap="round" stroke-linejoin="round"/><path d="M19.82 20.55a2.18 2.18 0 1 0 0-4.36 2.18 2.18 0 0 0 0 4.36ZM14.02 13.6 22 11.42" stroke="#292D32" stroke-width="1.5" stroke-linecap="round" stroke-linejoin="round"/></svg>