<svg width="24" height="24" fill="none" xmlns="http://www.w3.org/2000/svg"><path d="M21.08 8.58v6.84c0 1.12-.6 2.16-1.57 2.73l-5.94 3.43c-.97.56-2.17.56-3.15 0l-5.94-3.43a3.15 3.15 0 0 1-1.57-2.73V8.58c0-1.12.6-2.16 1.57-2.73l5.94-3.43c.97-.56 2.17-.56 3.15 0l5.94 3.43c.97.57 1.57 1.6 1.57 2.73Z" stroke="#292D32" stroke-width="1.5" stroke-linecap="round" stroke-linejoin="round"/><path d="M9.75 12v-1.2c0-1.54 1.09-2.17 2.42-1.4l1.04.6 1.04.6c1.33.77 1.33 2.03 0 2.8l-1.04.6-1.04.6c-1.33.77-2.42.14-2.42-1.4V12Z" stroke="#292D32" stroke-width="1.5" stroke-miterlimit="10" stroke-linecap="round" stroke-linejoin="round"/></svg>