<svg width="24" height="24" fill="none" xmlns="http://www.w3.org/2000/svg"><path d="M13 22.75H5c-2.42 0-3.75-1.33-3.75-3.75v-8c0-2.42 1.33-3.75 3.75-3.75h5c.41 0 .75.34.75.75v11c0 1.58.67 2.25 2.25 2.25.41 0 .75.34.75.75s-.34.75-.75.75Zm-8-14c-1.58 0-2.25.67-2.25 2.25v8c0 1.58.67 2.25 2.25 2.25h4.8c-.36-.59-.55-1.34-.55-2.25V8.75H5Z" fill="#292D32"/><path d="M10 8.75H5c-.41 0-.75-.34-.75-.75V6c0-1.52 1.23-2.75 2.75-2.75h3.11c.23 0 .45.11.59.29.14.19.19.43.13.65-.06.22-.08.47-.08.81v3c0 .41-.34.75-.75.75Zm-4.25-1.5h3.5v-2.5H7c-.69 0-1.25.56-1.25 1.25v1.25ZM14 13.75c-.41 0-.75-.34-.75-.75V8c0-.41.34-.75.75-.75s.75.34.75.75v5c0 .41-.34.75-.75.75ZM18 13.75c-.41 0-.75-.34-.75-.75V8c0-.41.34-.75.75-.75s.75.34.75.75v5c0 .41-.34.75-.75.75ZM18 22.75h-4c-.41 0-.75-.34-.75-.75v-4c0-.96.79-1.75 1.75-1.75h2c.96 0 1.75.79 1.75 1.75v4c0 .41-.34.75-.75.75Zm-3.25-1.5h2.5V18c0-.14-.11-.25-.25-.25h-2c-.14 0-.25.11-.25.25v3.25ZM6 17.75c-.41 0-.75-.34-.75-.75v-4c0-.41.34-.75.75-.75s.75.34.75.75v4c0 .41-.34.75-.75.75Z" fill="#292D32"/><path d="M19 22.75h-6c-2.42 0-3.75-1.33-3.75-3.75V5c0-2.42 1.33-3.75 3.75-3.75h6c2.42 0 3.75 1.33 3.75 3.75v14c0 2.42-1.33 3.75-3.75 3.75Zm-6-20c-1.58 0-2.25.67-2.25 2.25v14c0 1.58.67 2.25 2.25 2.25h6c1.58 0 2.25-.67 2.25-2.25V5c0-1.58-.67-2.25-2.25-2.25h-6Z" fill="#292D32"/></svg>