<svg width="24" height="24" fill="none" xmlns="http://www.w3.org/2000/svg"><path d="M6.7 18.75H4.15c-1.84 0-2.9-1.06-2.9-2.9V4.15c0-1.84 1.06-2.9 2.9-2.9h4.3c1.84 0 2.9 1.06 2.9 2.9V6c0 .41-.34.75-.75.75s-.75-.34-.75-.75V4.15c0-1.02-.38-1.4-1.4-1.4h-4.3c-1.02 0-1.4.38-1.4 1.4v11.7c0 1.02.38 1.4 1.4 1.4H6.7c.41 0 .75.34.75.75s-.34.75-.75.75Z" fill="#292D32"/><path d="M14.96 22.75H9.12c-2.01 0-3.17-1.16-3.17-3.17V8.42c0-2.01 1.16-3.17 3.17-3.17h5.84c2.01 0 3.16 1.16 3.16 3.17v11.16c0 2.01-1.15 3.17-3.16 3.17Zm-5.84-16c-1.2 0-1.67.47-1.67 1.67v11.16c0 1.2.47 1.67 1.67 1.67h5.84c1.19 0 1.66-.47 1.66-1.67V8.42c0-1.2-.47-1.67-1.66-1.67H9.12Z" fill="#292D32"/><path d="M19.85 18.75h-2.48c-.41 0-.75-.34-.75-.75s.34-.75.75-.75h2.48c1.02 0 1.4-.38 1.4-1.4V4.15c0-1.02-.38-1.4-1.4-1.4h-4.3c-1.02 0-1.4.38-1.4 1.4V6c0 .41-.34.75-.75.75s-.75-.34-.75-.75V4.15c0-1.84 1.06-2.9 2.9-2.9h4.3c1.84 0 2.9 1.06 2.9 2.9v11.7c0 1.84-1.06 2.9-2.9 2.9Z" fill="#292D32"/><path d="M14 11.75h-4c-.41 0-.75-.34-.75-.75s.34-.75.75-.75h4c.41 0 .75.34.75.75s-.34.75-.75.75ZM14 14.75h-4c-.41 0-.75-.34-.75-.75s.34-.75.75-.75h4c.41 0 .75.34.75.75s-.34.75-.75.75ZM12 22.75c-.41 0-.75-.34-.75-.75v-3c0-.41.34-.75.75-.75s.75.34.75.75v3c0 .41-.34.75-.75.75Z" fill="#292D32"/></svg>