<svg width="24" height="24" fill="none" xmlns="http://www.w3.org/2000/svg"><path d="M22 22.75H2c-.41 0-.75-.34-.75-.75s.34-.75.75-.75h20c.41 0 .75.34.75.75s-.34.75-.75.75Z" fill="#292D32"/><path d="M3.01 22.761a.75.75 0 0 1-.75-.75l-.01-14.94c0-.91.46-1.77 1.22-2.28l4-2.67c.93-.62 2.13-.62 3.05 0l4 2.67c.77.51 1.22 1.36 1.22 2.28l.01 14.92c0 .41-.33.75-.75.75l-11.99.02ZM9 3.151c-.24 0-.48.07-.69.21l-4 2.67c-.35.23-.56.62-.56 1.04l.01 14.19 10.5-.02-.01-14.17c0-.42-.21-.81-.55-1.03l-4-2.67c-.21-.15-.46-.22-.7-.22ZM19.98 22.76c-.41 0-.75-.34-.75-.75V18c0-.41.34-.75.75-.75s.75.34.75.75v4.01c0 .41-.33.75-.75.75Z" fill="#292D32"/><path d="M20 18.75c-1.52 0-2.75-1.23-2.75-2.75v-2c0-1.52 1.23-2.75 2.75-2.75s2.75 1.23 2.75 2.75v2c0 1.52-1.23 2.75-2.75 2.75Zm0-6c-.69 0-1.25.56-1.25 1.25v2a1.25 1.25 0 0 0 2.5 0v-2c0-.69-.56-1.25-1.25-1.25ZM15 14.75H3c-.41 0-.75-.34-.75-.75s.34-.75.75-.75h12c.41 0 .75.34.75.75s-.34.75-.75.75ZM9 22.75c-.41 0-.75-.34-.75-.75v-3.75c0-.41.34-.75.75-.75s.75.34.75.75V22c0 .41-.34.75-.75.75ZM9 11.25c-1.24 0-2.25-1.01-2.25-2.25S7.76 6.75 9 6.75 11.25 7.76 11.25 9 10.24 11.25 9 11.25Zm0-3c-.41 0-.75.34-.75.75s.34.75.75.75.75-.34.75-.75-.34-.75-.75-.75Z" fill="#292D32"/></svg>