<svg width="24" height="24" fill="none" xmlns="http://www.w3.org/2000/svg"><path d="M23 22.75H1c-.41 0-.75-.34-.75-.75s.34-.75.75-.75h22c.41 0 .75.34.75.75s-.34.75-.75.75Z" fill="#292D32"/><path d="M19.781 22.76c-.41 0-.75-.34-.75-.75v-4.46c0-.41.34-.75.75-.75s.75.34.75.75v4.46c0 .41-.33.75-.75.75Z" fill="#292D32"/><path d="M19.8 18.299c-1.63 0-2.95-1.32-2.95-2.95v-2.27a2.949 2.949 0 1 1 5.9 0v2.27c0 1.63-1.32 2.95-2.95 2.95Zm0-6.66c-.8 0-1.45.65-1.45 1.45v2.27a1.451 1.451 0 0 0 2.9 0v-2.27c0-.8-.65-1.45-1.45-1.45ZM14.3 22.752c-.41 0-.75-.34-.75-.75V6.032c0-1.59-.67-2.27-2.23-2.27H5.09c-1.57 0-2.25.68-2.25 2.27v15.97c0 .41-.34.75-.75.75s-.75-.34-.75-.75V6.032c0-2.43 1.33-3.77 3.75-3.77h6.23c2.41 0 3.73 1.34 3.73 3.77v15.97c0 .41-.34.75-.75.75Z" fill="#292D32"/><path d="M10.75 9H5.8c-.41 0-.75-.34-.75-.75s.34-.75.75-.75h4.95c.41 0 .75.34.75.75s-.34.75-.75.75ZM10.75 12.75H5.8c-.41 0-.75-.34-.75-.75s.34-.75.75-.75h4.95c.41 0 .75.34.75.75s-.34.75-.75.75ZM8.25 22.75c-.41 0-.75-.34-.75-.75v-3.75c0-.41.34-.75.75-.75s.75.34.75.75V22c0 .41-.34.75-.75.75Z" fill="#292D32"/></svg>