<svg width="24" height="24" fill="none" xmlns="http://www.w3.org/2000/svg"><path d="M22 22.75H2c-.41 0-.75-.34-.75-.75s.34-.75.75-.75h20c.41 0 .75.34.75.75s-.34.75-.75.75ZM14.5 6.23c-.94 0-1.88-.18-2.78-.54a.753.753 0 0 1-.47-.7v-3c0-.25.12-.48.33-.62a.76.76 0 0 1 .7-.08c1.43.57 3.01.57 4.44 0a.76.76 0 0 1 .7.08c.21.14.33.37.33.62v3c0 .31-.19.58-.47.7-.9.36-1.84.54-2.78.54Zm-1.75-1.76c1.14.35 2.36.35 3.5 0V3.02c-1.15.28-2.35.28-3.5 0v1.45Z" fill="#292D32"/><path d="M12 8.75c-.41 0-.75-.34-.75-.75V5c0-.41.34-.75.75-.75s.75.34.75.75v3c0 .41-.34.75-.75.75Z" fill="#292D32"/><path d="M20 22.75H4c-.41 0-.75-.34-.75-.75V11c0-2.42 1.33-3.75 3.75-3.75h10c2.42 0 3.75 1.33 3.75 3.75v11c0 .41-.34.75-.75.75Zm-15.25-1.5h14.5V11c0-1.58-.67-2.25-2.25-2.25H7c-1.58 0-2.25.67-2.25 2.25v10.25Z" fill="#292D32"/><path d="M19.42 12.75H4.58c-.41 0-.75-.34-.75-.75s.34-.75.75-.75h14.84c.41 0 .75.34.75.75s-.34.75-.75.75Z" fill="#292D32"/><path d="M8.74 12h-1.5v10h1.5V12ZM12.74 12h-1.5v10h1.5V12ZM16.74 12h-1.5v10h1.5V12Z" fill="#292D32"/></svg>