<svg width="24" height="24" fill="none" xmlns="http://www.w3.org/2000/svg"><path d="M22 22.75H2c-.41 0-.75-.34-.75-.75s.34-.75.75-.75h20c.41 0 .75.34.75.75s-.34.75-.75.75Z" fill="#292D32"/><path d="M3.7 21.999H2.2l.05-12.03c0-.85.39-1.64 1.06-2.16l7-5.45c.99-.77 2.38-.77 3.38 0l7 5.44c.66.52 1.06 1.33 1.06 2.17v12.03h-1.5V9.979c0-.38-.18-.75-.48-.99l-7-5.44a1.26 1.26 0 0 0-1.54 0l-7 5.45c-.3.23-.48.6-.48.98l-.05 12.02Z" fill="#292D32"/><path d="M14.5 22.75h-5c-.41 0-.75-.34-.75-.75v-3.5c0-1.24 1.01-2.25 2.25-2.25h2c1.24 0 2.25 1.01 2.25 2.25V22c0 .41-.34.75-.75.75Zm-4.25-1.5h3.5V18.5c0-.41-.34-.75-.75-.75h-2c-.41 0-.75.34-.75.75v2.75ZM9.5 14.5h-2c-.96 0-1.75-.79-1.75-1.75v-1.5c0-.96.79-1.75 1.75-1.75h2c.96 0 1.75.79 1.75 1.75v1.5c0 .96-.79 1.75-1.75 1.75Zm-2-3.5c-.14 0-.25.11-.25.25v1.5c0 .14.11.25.25.25h2c.14 0 .25-.11.25-.25v-1.5c0-.14-.11-.25-.25-.25h-2ZM16.5 14.5h-2c-.96 0-1.75-.79-1.75-1.75v-1.5c0-.96.79-1.75 1.75-1.75h2c.96 0 1.75.79 1.75 1.75v1.5c0 .96-.79 1.75-1.75 1.75Zm-2-3.5c-.14 0-.25.11-.25.25v1.5c0 .14.11.25.25.25h2c.14 0 .25-.11.25-.25v-1.5c0-.14-.11-.25-.25-.25h-2ZM19 7.75c-.41 0-.75-.33-.75-.74l-.02-2.26h-3.65c-.41 0-.75-.34-.75-.75s.34-.75.75-.75h4.4c.41 0 .75.33.75.74l.03 3c-.01.42-.34.76-.76.76 0 0 .01 0 0 0Z" fill="#292D32"/></svg>