<svg width="24" height="24" fill="none" xmlns="http://www.w3.org/2000/svg"><path d="M22 22.75H2c-.41 0-.75-.34-.75-.75s.34-.75.75-.75h20c.41 0 .75.34.75.75s-.34.75-.75.75Z" fill="#292D32"/><path d="M3.7 21.999H2.2l.05-12.03c0-.85.39-1.64 1.06-2.16l7-5.45c.99-.77 2.38-.77 3.38 0l7 5.44c.66.52 1.06 1.33 1.06 2.17v12.03h-1.5V9.979c0-.38-.18-.75-.48-.99l-7-5.44a1.26 1.26 0 0 0-1.54 0l-7 5.45c-.3.23-.48.6-.48.98l-.05 12.02Z" fill="#292D32"/><path d="M17 22.75H7c-.41 0-.75-.34-.75-.75v-9.5c0-1.24 1.01-2.25 2.25-2.25h7c1.24 0 2.25 1.01 2.25 2.25V22c0 .41-.34.75-.75.75Zm-9.25-1.5h8.5V12.5c0-.41-.34-.75-.75-.75h-7c-.41 0-.75.34-.75.75v8.75Z" fill="#292D32"/><path d="M10 18.5c-.41 0-.75-.34-.75-.75v-1.5c0-.41.34-.75.75-.75s.75.34.75.75v1.5c0 .41-.34.75-.75.75ZM13.5 8.25h-3c-.41 0-.75-.34-.75-.75s.34-.75.75-.75h3c.41 0 .75.34.75.75s-.34.75-.75.75Z" fill="#292D32"/></svg>