<svg width="24" height="24" fill="none" xmlns="http://www.w3.org/2000/svg"><path d="M21 9c-2.92-.97-5.96-1.46-9-1.46M3 9c1.59-.53 3.21-.91 4.85-1.16" stroke="#292D32" stroke-width="1.5" stroke-linecap="round" stroke-linejoin="round"/><path d="M22 12c0-5.52-4.48-10-10-10S2 6.48 2 12s4.48 10 10 10" stroke="#292D32" stroke-width="1.5" stroke-linecap="round" stroke-linejoin="round"/><path d="M8.002 3h1a28.424 28.424 0 0 0 0 18h-1M15 3c.97 2.92 1.46 5.96 1.46 9" stroke="#292D32" stroke-width="1.5" stroke-linecap="round" stroke-linejoin="round"/><path d="M3 16v-1c2.92.97 5.96 1.46 9 1.46M19.502 14.7c-.37-.11-.79-.18-1.25-.18a3.74 3.74 0 0 0 0 7.48c2.06 0 3.74-1.68 3.74-3.74a3.7 3.7 0 0 0-.63-2.08M20.043 14.801l-1.25-1.43M20.042 14.8l-1.46 1.06" stroke="#292D32" stroke-width="1.5" stroke-linecap="round" stroke-linejoin="round"/></svg>