<svg width="24" height="24" fill="none" xmlns="http://www.w3.org/2000/svg"><path d="M12 12 3.33 7.02C2.49 8.49 2 10.19 2 12c0 5.52 4.48 10 10 10s10-4.48 10-10c0-2.049-.62-3.96-1.68-5.54M6 4a9.991 9.991 0 0 1 11.13-.58" stroke="#292D32" stroke-width="1.5" stroke-miterlimit="10" stroke-linecap="round" stroke-linejoin="round"/><path d="M6.83 8.96A5.92 5.92 0 0 0 6 12c0 3.31 2.69 6 6 6s6-2.69 6-6-2.69-6-6-6c-.91 0-1.78.2-2.55.57" stroke="#292D32" stroke-width="1.5" stroke-miterlimit="10" stroke-linecap="round" stroke-linejoin="round"/></svg>