<svg width="24" height="24" fill="none" xmlns="http://www.w3.org/2000/svg"><path d="m6.7 9.262 5.3 3.07 5.26-3.05M12 17.77v-5.45" stroke="#292D32" stroke-width="1.5" stroke-linecap="round" stroke-linejoin="round"/><path d="m10.758 6.29-3.2 1.78c-.72.4-1.32 1.41-1.32 2.24v3.39c0 .83.59 1.84 1.32 2.24l3.2 1.78c.68.38 1.8.38 2.49 0l3.2-1.78c.72-.4 1.32-1.41 1.32-2.24v-3.4c0-.83-.59-1.84-1.32-2.24l-3.2-1.78c-.69-.38-1.81-.38-2.49.01Z" stroke="#292D32" stroke-width="1.5" stroke-linecap="round" stroke-linejoin="round"/><path opacity=".4" d="M22 15c0 3.87-3.13 7-7 7l1.05-1.75M2 9c0-3.87 3.13-7 7-7L7.95 3.75" stroke="#292D32" stroke-width="1.5" stroke-linecap="round" stroke-linejoin="round"/></svg>