<svg width="24" height="24" fill="none" xmlns="http://www.w3.org/2000/svg"><path d="M23.001 17.911c.02.75-.18 1.46-.54 2.07-.2.36-.47.69-.77.96-.69.64-1.6 1.03-2.61 1.06-1.46.03-2.75-.72-3.46-1.87-.38-.59-.61-1.3-.62-2.05a3.97 3.97 0 0 1 1.43-3.15c.68-.56 1.54-.91 2.48-.93a4 4 0 0 1 4.09 3.91Z" stroke="#292D32" stroke-width="1.5" stroke-miterlimit="10" stroke-linecap="round" stroke-linejoin="round"/><path d="m17.441 18.033 1.01.96 2.09-2.02" stroke="#292D32" stroke-width="1.5" stroke-linecap="round" stroke-linejoin="round"/><g opacity=".4" stroke="#292D32" stroke-width="1.5" stroke-linecap="round" stroke-linejoin="round"><path d="m3.172 7.441 8.83 5.11 8.77-5.08M12 21.61v-9.07"/><path d="M21.61 9.17v5.66c0 .05 0 .09-.01.14-.7-.61-1.6-.97-2.6-.97-.94 0-1.81.33-2.5.88A3.97 3.97 0 0 0 15 18c0 .75.21 1.46.58 2.06.09.16.2.31.32.45l-1.83 1.01c-1.14.64-3 .64-4.14 0l-5.34-2.96c-1.21-.67-2.2-2.35-2.2-3.73V9.17c0-1.38.99-3.06 2.2-3.73l5.34-2.96c1.14-.64 3-.64 4.14 0l5.34 2.96c1.21.67 2.2 2.35 2.2 3.73Z"/></g></svg>