<svg width="24" height="24" fill="none" xmlns="http://www.w3.org/2000/svg"><path d="m3.172 7.441 8.83 5.11 8.77-5.08M12 21.613v-9.07" stroke="#292D32" stroke-width="1.5" stroke-linecap="round" stroke-linejoin="round"/><path d="M21.61 12.83V9.17c0-1.38-.99-3.06-2.2-3.73l-5.34-2.96c-1.14-.64-3-.64-4.14 0L4.59 5.44c-1.21.67-2.2 2.35-2.2 3.73v5.66c0 1.38.99 3.06 2.2 3.73l5.34 2.96c.57.32 1.32.48 2.07.48.75 0 1.5-.16 2.07-.48" stroke="#292D32" stroke-width="1.5" stroke-linecap="round" stroke-linejoin="round"/><g opacity=".4" stroke="#292D32" stroke-width="1.5" stroke-linecap="round" stroke-linejoin="round"><path d="M19.2 21.4a3.2 3.2 0 1 0 0-6.4 3.2 3.2 0 0 0 0 6.4ZM23 22l-1-1"/></g></svg>