<svg width="24" height="24" fill="none" xmlns="http://www.w3.org/2000/svg"><path opacity=".4" d="M22 15c0 3.87-3.13 7-7 7l1.05-1.75M2 9c0-3.87 3.13-7 7-7L7.95 3.75" stroke="#292D32" stroke-width="1.5" stroke-linecap="round" stroke-linejoin="round"/><path d="m13.703 4.45 3.98 2.3 3.94-2.29M17.684 10.818v-4.08" stroke="#292D32" stroke-width="1.5" stroke-linecap="round" stroke-linejoin="round"/><path d="m16.742 2.21-2.4 1.33c-.54.3-.99 1.06-.99 1.68v2.54c0 .62.44 1.38.99 1.68l2.4 1.33c.51.29 1.35.29 1.87 0l2.4-1.33c.54-.3.99-1.06.99-1.68V5.22c0-.62-.44-1.38-.99-1.68l-2.4-1.33c-.51-.28-1.35-.28-1.87 0ZM2.352 15.45l3.97 2.3 3.95-2.29M6.32 21.818v-4.08" stroke="#292D32" stroke-width="1.5" stroke-linecap="round" stroke-linejoin="round"/><path d="m5.39 13.21-2.4 1.33c-.54.3-.99 1.06-.99 1.68v2.54c0 .62.44 1.38.99 1.68l2.4 1.33c.51.29 1.35.29 1.87 0l2.4-1.33c.54-.3.99-1.06.99-1.68v-2.54c0-.62-.44-1.38-.99-1.68l-2.4-1.33c-.52-.28-1.36-.28-1.87 0Z" stroke="#292D32" stroke-width="1.5" stroke-linecap="round" stroke-linejoin="round"/></svg>