<svg width="24" height="24" fill="none" xmlns="http://www.w3.org/2000/svg"><path d="M11.02 20.25H7.5c-.75 0-1.3-.03-1.77-.1-3.33-.37-3.98-2.35-3.98-5.65v-5c0-3.3.66-5.29 4.01-5.66.44-.06.99-.09 1.74-.09h3.46c.41 0 .75.34.75.75s-.34.75-.75.75H7.5c-.68 0-1.16.03-1.55.08-2.03.22-2.7.86-2.7 4.17v5c0 3.31.67 3.94 2.67 4.17.42.06.9.08 1.58.08h3.52c.41 0 .75.34.75.75s-.34.75-.75.75ZM16.5 20.25h-1.48c-.41 0-.75-.34-.75-.75s.34-.75.75-.75h1.48c.68 0 1.16-.03 1.55-.08 2.03-.22 2.7-.86 2.7-4.17v-5c0-3.31-.67-3.94-2.67-4.17-.42-.06-.9-.08-1.58-.08h-1.48c-.41 0-.75-.34-.75-.75s.34-.75.75-.75h1.48c.75 0 1.3.03 1.77.1 3.33.37 3.98 2.35 3.98 5.65v5c0 3.3-.66 5.29-4.01 5.66-.44.06-.99.09-1.74.09Z" fill="#292D32"/><path d="M15 22.75c-.41 0-.75-.34-.75-.75V2c0-.41.34-.75.75-.75s.75.34.75.75v20c0 .41-.34.75-.75.75ZM8 16.25c-.41 0-.75-.34-.75-.75v-7c0-.41.34-.75.75-.75s.75.34.75.75v7c0 .41-.34.75-.75.75Z" fill="#292D32"/></svg>