<svg width="24" height="24" fill="none" xmlns="http://www.w3.org/2000/svg"><path d="M12.002 16.332c-2.39 0-4.33-1.94-4.33-4.33s1.94-4.33 4.33-4.33 4.33 1.94 4.33 4.33-1.94 4.33-4.33 4.33Zm0-7.16c-1.56 0-2.83 1.27-2.83 2.83s1.27 2.83 2.83 2.83 2.83-1.27 2.83-2.83-1.27-2.83-2.83-2.83Z" fill="#292D32"/><path d="M11.998 21.02c-3.76 0-7.31-2.2-9.75-6.02-1.06-1.65-1.06-4.34 0-6 2.45-3.82 6-6.02 9.75-6.02s7.3 2.2 9.74 6.02c1.06 1.65 1.06 4.34 0 6-2.44 3.82-5.99 6.02-9.74 6.02Zm0-16.54c-3.23 0-6.32 1.94-8.48 5.33-.75 1.17-.75 3.21 0 4.38 2.16 3.39 5.25 5.33 8.48 5.33 3.23 0 6.32-1.94 8.48-5.33.75-1.17.75-3.21 0-4.38-2.16-3.39-5.25-5.33-8.48-5.33Z" fill="#292D32"/></svg>