<svg width="24" height="24" fill="none" xmlns="http://www.w3.org/2000/svg"><path d="M12.002 15.63c-1.32 0-2.4-1.08-2.4-2.4v-2.47c0-1.32 1.08-2.4 2.4-2.4 1.32 0 2.4 1.08 2.4 2.4v2.47a2.4 2.4 0 0 1-2.4 2.4Zm0-5.76c-.49 0-.9.4-.9.9v2.47c0 .5.4.9.9.9s.9-.4.9-.9v-2.47c0-.5-.41-.9-.9-.9Z" fill="#292D32"/><path d="M12 18.82c-3.17 0-5.75-2.58-5.75-5.75v-2.14c0-3.17 2.58-5.75 5.75-5.75 2.96 0 5.42 2.22 5.72 5.16a.75.75 0 0 1-.67.82.744.744 0 0 1-.82-.67A4.236 4.236 0 0 0 12 6.68a4.26 4.26 0 0 0-4.25 4.25v2.14A4.26 4.26 0 0 0 12 17.32c2.2 0 4.06-1.72 4.24-3.91a.752.752 0 1 1 1.5.12c-.24 2.97-2.76 5.29-5.74 5.29ZM22 9.75c-.41 0-.75-.34-.75-.75V7c0-2.58-1.67-4.25-4.25-4.25h-2c-.41 0-.75-.34-.75-.75s.34-.75.75-.75h2c3.44 0 5.75 2.31 5.75 5.75v2c0 .41-.34.75-.75.75ZM2 9.75c-.41 0-.75-.34-.75-.75V7c0-3.44 2.31-5.75 5.75-5.75h2c.41 0 .75.34.75.75s-.34.75-.75.75H7C4.42 2.75 2.75 4.42 2.75 7v2c0 .41-.34.75-.75.75ZM17 22.75h-2c-.41 0-.75-.34-.75-.75s.34-.75.75-.75h2c2.58 0 4.25-1.67 4.25-4.25v-2c0-.41.34-.75.75-.75s.75.34.75.75v2c0 3.44-2.31 5.75-5.75 5.75ZM9 22.75H7c-3.44 0-5.75-2.31-5.75-5.75v-2c0-.41.34-.75.75-.75s.75.34.75.75v2c0 2.58 1.67 4.25 4.25 4.25h2c.41 0 .75.34.75.75s-.34.75-.75.75Z" fill="#292D32"/></svg>