<svg width="24" height="24" fill="none" xmlns="http://www.w3.org/2000/svg"><path d="M12 19.248a3.22 3.22 0 0 1-2.58-1.27.749.749 0 1 1 1.19-.91c.33.44.84.68 1.39.68.96 0 1.75-.79 1.75-1.75 0-.39-.12-.76-.36-1.06a.749.749 0 1 1 1.19-.91c.44.57.67 1.25.67 1.97 0 1.79-1.46 3.25-3.25 3.25Z" fill="#292D32"/><path d="M17 22.75H7c-.37 0-.72-.01-1.05-.03a.757.757 0 0 1-.71-.79c.02-.41.37-.71.79-.71.3.02.62.02.96.02h10c3.57 0 4.25-.68 4.25-4.25v-2c0-3.51-.74-4.08-3.29-4.23-.3-.02-.62-.02-.96-.02H7c-3.57 0-4.25.68-4.25 4.25v2c0 1.74.2 2.77.66 3.33.26.32.21.8-.12 1.05-.32.26-.79.21-1.05-.12-.7-.85-.99-2.09-.99-4.25v-2c0-4.41 1.34-5.75 5.75-5.75h10c.37 0 .72.01 1.04.03 3.96.22 4.71 2.18 4.71 5.72v2c0 4.41-1.34 5.75-5.75 5.75Z" fill="#292D32"/><path d="M6 10.75c-.41 0-.75-.34-.75-.75V8c0-2.9.7-6.75 6.75-6.75 4.07 0 6.18 1.33 6.64 4.19.07.41-.21.79-.62.86a.747.747 0 0 1-.86-.62c-.25-1.52-1.04-2.93-5.16-2.93-4.36 0-5.25 2.1-5.25 5.25v2c0 .41-.34.75-.75.75Z" fill="#292D32"/><path d="M2.001 22.751c-.19 0-.38-.07-.53-.22a.754.754 0 0 1 0-1.06l20-20c.29-.29.77-.29 1.06 0 .29.29.29.77 0 1.06l-20 20c-.15.15-.34.22-.53.22Z" fill="#292D32"/></svg>