<svg width="24" height="24" fill="none" xmlns="http://www.w3.org/2000/svg"><path d="M2 9.75c-.41 0-.75-.34-.75-.75V6.5c0-2.9 2.36-5.25 5.25-5.25H9c.41 0 .75.34.75.75s-.34.75-.75.75H6.5c-2.07 0-3.75 1.68-3.75 3.75V9c0 .41-.34.75-.75.75ZM22 9.75c-.41 0-.75-.34-.75-.75V6.5c0-2.07-1.68-3.75-3.75-3.75H15c-.41 0-.75-.34-.75-.75s.34-.75.75-.75h2.5c2.89 0 5.25 2.35 5.25 5.25V9c0 .41-.34.75-.75.75ZM17.5 22.75H16c-.41 0-.75-.34-.75-.75s.34-.75.75-.75h1.5c2.07 0 3.75-1.68 3.75-3.75V16c0-.41.34-.75.75-.75s.75.34.75.75v1.5c0 2.9-2.36 5.25-5.25 5.25ZM9 22.75H6.5c-2.89 0-5.25-2.35-5.25-5.25V15c0-.41.34-.75.75-.75s.75.34.75.75v2.5c0 2.07 1.68 3.75 3.75 3.75H9c.41 0 .75.34.75.75s-.34.75-.75.75Z" fill="#292D32"/><path d="M8.5 11.75c-1.79 0-3.25-1.46-3.25-3.25S6.71 5.25 8.5 5.25s3.25 1.46 3.25 3.25-1.46 3.25-3.25 3.25Zm0-5c-.96 0-1.75.79-1.75 1.75s.79 1.75 1.75 1.75 1.75-.79 1.75-1.75-.79-1.75-1.75-1.75ZM7.5 18.75c-1.24 0-2.25-1.01-2.25-2.25s1.01-2.25 2.25-2.25 2.25 1.01 2.25 2.25-1.01 2.25-2.25 2.25Zm0-3c-.41 0-.75.34-.75.75s.34.75.75.75.75-.34.75-.75-.34-.75-.75-.75ZM16.5 9.75c-1.24 0-2.25-1.01-2.25-2.25s1.01-2.25 2.25-2.25 2.25 1.01 2.25 2.25-1.01 2.25-2.25 2.25Zm0-3c-.41 0-.75.34-.75.75s.34.75.75.75.75-.34.75-.75-.34-.75-.75-.75ZM15.5 18.75c-1.79 0-3.25-1.46-3.25-3.25s1.46-3.25 3.25-3.25 3.25 1.46 3.25 3.25-1.46 3.25-3.25 3.25Zm0-5c-.96 0-1.75.79-1.75 1.75s.79 1.75 1.75 1.75 1.75-.79 1.75-1.75-.79-1.75-1.75-1.75Z" fill="#292D32"/></svg>