<svg width="24" height="24" fill="none" xmlns="http://www.w3.org/2000/svg"><path d="M2 9.75c-.41 0-.75-.34-.75-.75V6.5c0-2.9 2.36-5.25 5.25-5.25H9c.41 0 .75.34.75.75s-.34.75-.75.75H6.5c-2.07 0-3.75 1.68-3.75 3.75V9c0 .41-.34.75-.75.75ZM22 9.75c-.41 0-.75-.34-.75-.75V6.5c0-2.07-1.68-3.75-3.75-3.75H15c-.41 0-.75-.34-.75-.75s.34-.75.75-.75h2.5c2.89 0 5.25 2.35 5.25 5.25V9c0 .41-.34.75-.75.75ZM17.5 22.75H16c-.41 0-.75-.34-.75-.75s.34-.75.75-.75h1.5c2.07 0 3.75-1.68 3.75-3.75V16c0-.41.34-.75.75-.75s.75.34.75.75v1.5c0 2.9-2.36 5.25-5.25 5.25ZM9 22.75H6.5c-2.89 0-5.25-2.35-5.25-5.25V15c0-.41.34-.75.75-.75s.75.34.75.75v2.5c0 2.07 1.68 3.75 3.75 3.75H9c.41 0 .75.34.75.75s-.34.75-.75.75ZM14 18.25h-4c-2.42 0-3.75-1.33-3.75-3.75v-5c0-2.42 1.33-3.75 3.75-3.75h4c2.42 0 3.75 1.33 3.75 3.75v5c0 2.42-1.33 3.75-3.75 3.75Zm-4-11c-1.58 0-2.25.67-2.25 2.25v5c0 1.58.67 2.25 2.25 2.25h4c1.58 0 2.25-.67 2.25-2.25v-5c0-1.58-.67-2.25-2.25-2.25h-4Z" fill="#292D32"/><path d="M19 12.75H5c-.41 0-.75-.34-.75-.75s.34-.75.75-.75h14c.41 0 .75.34.75.75s-.34.75-.75.75Z" fill="#292D32"/></svg>