<svg width="24" height="24" fill="none" xmlns="http://www.w3.org/2000/svg"><path d="M12 22.76c-1.09 0-2.17-.32-3.02-.95l-4.3-3.21c-1.14-.85-2.03-2.62-2.03-4.04V7.13c0-1.54 1.13-3.18 2.58-3.72l4.99-1.87c.99-.37 2.55-.37 3.54 0l5 1.87c1.45.54 2.58 2.18 2.58 3.72v7.43c0 1.42-.89 3.19-2.03 4.04l-4.3 3.21c-.84.63-1.92.95-3.01.95ZM10.75 2.94 5.76 4.81c-.86.32-1.61 1.4-1.61 2.32v7.43c0 .95.67 2.28 1.42 2.84l4.3 3.21c1.15.86 3.1.86 4.25 0l4.3-3.21c.76-.57 1.42-1.9 1.42-2.84V7.13c0-.91-.75-1.99-1.61-2.32l-4.99-1.87c-.66-.25-1.82-.25-2.49 0Z" fill="#292D32"/><path d="M12 11.67h-.07c-1.45-.04-2.51-1.15-2.51-2.5 0-1.38 1.13-2.51 2.51-2.51s2.51 1.13 2.51 2.51a2.514 2.514 0 0 1-2.42 2.51c-.01-.01-.01-.01-.02-.01Zm-.07-3.51c-.56 0-1.01.45-1.01 1.01 0 .55.43.99.97 1.01H12a1 1 0 0 0 .94-1.01 1 1 0 0 0-1.01-1.01ZM12 17.35c-.86 0-1.73-.23-2.4-.68-.67-.44-1.05-1.089-1.05-1.779s.38-1.34 1.05-1.79c1.35-.9 3.46-.89 4.8 0 .67.44 1.05 1.09 1.05 1.78s-.38 1.34-1.05 1.79c-.67.45-1.54.68-2.4.68Zm-1.57-3.01c-.25.16-.39.36-.38.54 0 .18.14.38.38.54.84.56 2.3.56 3.14 0 .25-.16.39-.36.39-.54 0-.18-.14-.38-.38-.54-.84-.55-2.31-.55-3.15 0Z" fill="#292D32"/></svg>