<svg width="24" height="24" fill="none" xmlns="http://www.w3.org/2000/svg"><path d="M11.998 22.751c-1.13 0-2.21-.33-3.02-.94l-4.3-3.21c-1.14-.85-2.03-2.62-2.03-4.04v-7.44c0-1.54 1.13-3.18 2.58-3.72l4.99-1.87c.99-.37 2.55-.37 3.54 0l5 1.87c1.45.54 2.58 2.18 2.58 3.72v3.43c0 .41-.34.75-.75.75s-.75-.34-.75-.75v-3.43c0-.91-.75-1.99-1.61-2.32l-4.99-1.87c-.66-.25-1.83-.25-2.49 0l-4.99 1.88c-.86.32-1.61 1.4-1.61 2.32v7.43c0 .95.67 2.28 1.42 2.84l4.3 3.21c.55.41 1.32.64 2.12.64.41 0 .75.34.75.75s-.33.75-.74.75Z" fill="#292D32"/><path d="M16 20.75c-2.62 0-4.75-2.13-4.75-4.75s2.13-4.75 4.75-4.75 4.75 2.13 4.75 4.75-2.13 4.75-4.75 4.75Zm0-7.99c-1.79 0-3.25 1.46-3.25 3.25s1.46 3.25 3.25 3.25 3.25-1.46 3.25-3.25-1.46-3.25-3.25-3.25ZM21 22c-.07 0-.13-.01-.2-.02a.636.636 0 0 1-.18-.06.757.757 0 0 1-.18-.09l-.15-.12c-.18-.19-.29-.45-.29-.71 0-.13.03-.26.08-.38s.12-.23.21-.33c.37-.37 1.05-.37 1.42 0 .09.1.16.21.21.33.05.12.08.25.08.38 0 .26-.11.52-.29.71-.19.18-.45.29-.71.29Z" fill="#292D32"/></svg>