<svg width="24" height="24" fill="none" xmlns="http://www.w3.org/2000/svg"><path d="M11.998 22.761c-1.09 0-2.17-.32-3.02-.95l-4.3-3.21c-1.14-.85-2.03-2.63-2.03-4.04v-7.44c0-1.54 1.13-3.18 2.58-3.72l4.99-1.87c.99-.37 2.55-.37 3.54 0l4.99 1.87c1.45.54 2.58 2.18 2.58 3.72v7.43c0 1.42-.89 3.19-2.03 4.04l-4.3 3.21c-.83.64-1.91.96-3 .96Zm-1.25-19.82-4.99 1.87c-.85.32-1.6 1.4-1.6 2.32v7.43c0 .95.67 2.28 1.42 2.84l4.3 3.21c1.15.86 3.09.86 4.25 0l4.3-3.21c.76-.57 1.42-1.89 1.42-2.84v-7.44c0-.91-.75-1.99-1.6-2.32l-4.99-1.87c-.68-.24-1.84-.24-2.51.01Z" fill="#292D32"/><path d="M10.658 14.231c-.19 0-.38-.07-.53-.22l-1.61-1.61a.754.754 0 0 1 0-1.06c.29-.29.77-.29 1.06 0l1.08 1.08 3.77-3.77c.29-.29.77-.29 1.06 0 .29.29.29.77 0 1.06l-4.3 4.3c-.15.15-.34.22-.53.22Z" fill="#292D32"/></svg>