<svg width="24" height="24" fill="none" xmlns="http://www.w3.org/2000/svg"><path d="M12 22.761c-1.09 0-2.17-.32-3.02-.95l-1.59-1.19a.75.75 0 0 1 .9-1.2l1.59 1.19c1.15.86 3.1.86 4.25 0l4.3-3.21c.76-.57 1.42-1.9 1.42-2.84v-7.44c0-.41.34-.75.75-.75s.75.34.75.75v7.43c0 1.42-.89 3.19-2.03 4.04l-4.3 3.21c-.85.64-1.93.96-3.02.96ZM5.328 18.901a.76.76 0 0 1-.45-.15l-.2-.15c-1.14-.85-2.03-2.63-2.03-4.04v-7.44c0-1.54 1.13-3.18 2.58-3.72l4.99-1.87c.99-.37 2.55-.37 3.54 0l5 1.87c.21.08.41.18.61.3a.747.747 0 1 1-.79 1.27c-.11-.07-.22-.13-.34-.17l-5-1.87c-.66-.25-1.83-.25-2.49 0l-4.99 1.88c-.86.32-1.61 1.4-1.61 2.32v7.43c0 .95.67 2.28 1.42 2.84l.2.15c.33.25.4.72.15 1.05a.72.72 0 0 1-.59.3Z" fill="#292D32"/><path d="M2.001 22.751c-.19 0-.38-.07-.53-.22a.754.754 0 0 1 0-1.06l20-20c.29-.29.77-.29 1.06 0 .29.29.29.77 0 1.06l-20 20c-.15.15-.34.22-.53.22Z" fill="#292D32"/></svg>