<svg width="24" height="24" fill="none" xmlns="http://www.w3.org/2000/svg"><path opacity=".4" d="M20.612 10.83a5.237 5.237 0 0 0-2.91-1.78c-.26-1.16-.71-2.16-1.37-2.99-.02-.03-.04-.06-.06-.08-2.2-2.66-5.8-2.65-8.23-1.27-2.08 1.19-3.85 3.7-2.92 7.28-2.13.52-3.11 2.38-3.11 4.06 0 1.88 1.23 3.99 3.97 4.19H16.362c1.42 0 2.78-.53 3.83-1.49 2.51-2.22 2.18-5.84.42-7.92Z" fill="#292D32"/><path d="M21.76 8.742c0 .9-.32 1.76-.9 2.42-.07-.11-.16-.22-.25-.33a5.204 5.204 0 0 0-2.91-1.78c-.25-1.16-.71-2.15-1.37-2.98-.01-.03-.04-.06-.06-.08-.1-.12-.21-.23-.31-.34.61-.42 1.31-.64 2.07-.64a3.73 3.73 0 0 1 3.73 3.73Z" fill="#292D32"/></svg>