<svg width="24" height="24" fill="none" xmlns="http://www.w3.org/2000/svg"><path d="M13.47 14.39h-2.94c-1.27 0-2.03.76-2.03 2.03v2.94c0 1.27.76 2.03 2.03 2.03h2.94c1.27 0 2.03-.76 2.03-2.03v-2.94c0-1.27-.76-2.03-2.03-2.03Zm.94 3.93c-.1.1-.25.17-.41.18h-1.41l.01 1.39c-.01.17-.07.31-.19.43-.1.1-.25.17-.41.17-.33 0-.6-.27-.6-.6v-1.4l-1.4.01a.61.61 0 0 1-.6-.61c0-.33.27-.6.6-.6l1.4.01v-1.4c0-.33.27-.61.6-.61.33 0 .6.28.6.61l-.01 1.39H14c.33 0 .6.27.6.6a.68.68 0 0 1-.19.43Z" fill="#292D32"/><path opacity=".4" d="M21.74 11.74c-.61-2-2.13-3.44-4.04-3.87-.56-2.5-2.1-4.29-4.28-4.97-2.38-.73-5.14-.02-6.87 1.79-1.53 1.59-2.03 3.78-1.44 6.11C2.98 11.32 2 13.18 2 14.86c0 1.88 1.23 3.99 3.97 4.18H8.5v-2.63c0-1.27.76-2.03 2.03-2.03h2.94c1.27 0 2.03.76 2.03 2.03v2.63H16.35c1.42 0 2.78-.53 3.82-1.48 1.63-1.42 2.23-3.65 1.57-5.82Z" fill="#292D32"/></svg>