<svg width="24" height="24" fill="none" xmlns="http://www.w3.org/2000/svg"><path d="M13.47 14.39h-2.94c-1.27 0-2.03.76-2.03 2.03v2.94c0 1.27.76 2.03 2.03 2.03h2.94c1.27 0 2.03-.76 2.03-2.03v-2.94c0-1.27-.76-2.03-2.03-2.03Zm.5 4.55c.25.25.25.66 0 .91a.667.667 0 0 1-.91 0L12 18.79l-1.05 1.06a.667.667 0 0 1-.91 0 .646.646 0 0 1 0-.91l1.06-1.06-1.06-1.05a.646.646 0 0 1 0-.91c.25-.25.66-.25.91 0L12 16.98l1.06-1.06c.25-.25.66-.25.91 0s.25.66 0 .91l-1.06 1.05 1.06 1.06Z" fill="#292D32"/><path opacity=".4" d="M21.74 11.74c-.61-2-2.13-3.44-4.04-3.87-.56-2.5-2.1-4.29-4.28-4.97-2.38-.73-5.14-.02-6.87 1.79-1.53 1.59-2.03 3.78-1.44 6.11C2.98 11.32 2 13.18 2 14.86c0 1.88 1.23 3.99 3.97 4.18H8.5v-2.63c0-1.27.76-2.03 2.03-2.03h2.94c1.27 0 2.03.76 2.03 2.03v2.63H16.35c1.42 0 2.78-.53 3.82-1.48 1.63-1.42 2.23-3.65 1.57-5.82Z" fill="#292D32"/></svg>