<svg width="24" height="24" fill="none" xmlns="http://www.w3.org/2000/svg"><path opacity=".4" d="M21.74 11.74c-.61-2-2.13-3.44-4.04-3.87-.56-2.5-2.1-4.29-4.28-4.97-2.38-.73-5.14-.02-6.87 1.79-1.53 1.59-2.03 3.78-1.44 6.11C2.98 11.32 2 13.18 2 14.86c0 1.88 1.23 3.99 3.97 4.18H8.5v-2.63c0-1.27.76-2.03 2.03-2.03h2.94c1.27 0 2.03.76 2.03 2.03v2.63H16.35c1.42 0 2.78-.53 3.82-1.48 1.63-1.42 2.23-3.65 1.57-5.82Z" fill="#292D32"/><path d="M13.47 14.39h-2.94c-1.27 0-2.03.76-2.03 2.03v2.94c0 1.27.76 2.03 2.03 2.03h2.94c1.27 0 2.03-.76 2.03-2.03v-2.94c0-1.27-.76-2.03-2.03-2.03Zm.24 4.07H10.3c-.36 0-.65-.29-.65-.65 0-.35.29-.64.65-.64h3.42c.35 0 .64.29.64.64-.01.37-.3.65-.65.65Z" fill="#292D32"/></svg>