<svg width="24" height="24" fill="none" xmlns="http://www.w3.org/2000/svg"><path opacity=".4" d="M21.74 11.74c-.61-2-2.13-3.44-4.04-3.87-.56-2.5-2.1-4.29-4.28-4.97-2.38-.73-5.14-.02-6.87 1.79-1.53 1.59-2.03 3.78-1.44 6.11C2.98 11.32 2 13.18 2 14.86c0 1.88 1.23 3.99 3.97 4.18H8.5v-2.63c0-1.27.76-2.03 2.03-2.03h2.94c1.27 0 2.03.76 2.03 2.03v2.63H16.35c1.42 0 2.78-.53 3.82-1.48 1.63-1.42 2.23-3.65 1.57-5.82Z" fill="#292D32"/><path d="M13.47 14.39h-2.94c-1.27 0-2.03.76-2.03 2.03v2.94c0 1.27.76 2.03 2.03 2.03h2.94c1.27 0 2.03-.76 2.03-2.03v-2.94c0-1.27-.76-2.03-2.03-2.03Zm-1.76 4.45-1.24 1.23c-.09.09-.21.14-.32.14-.13 0-.24-.05-.33-.14a.459.459 0 0 1 0-.65l1.23-1.24a.47.47 0 0 1 .66 0c.18.18.18.48 0 .66Zm0-2.48-1.24 1.24c-.09.09-.21.14-.32.14a.47.47 0 0 1-.33-.8l1.23-1.23a.47.47 0 0 1 .66 0c.18.18.18.47 0 .65Zm2.47 2.48-1.23 1.23c-.1.09-.21.14-.33.14a.47.47 0 0 1-.33-.14.459.459 0 0 1 0-.65l1.24-1.24c.18-.18.47-.18.65 0 .18.18.18.48 0 .66Zm0-2.48-1.23 1.24c-.1.09-.21.14-.33.14a.47.47 0 0 1-.33-.8l1.24-1.23a.459.459 0 1 1 .65.65Z" fill="#292D32"/></svg>