<svg width="24" height="24" fill="none" xmlns="http://www.w3.org/2000/svg"><path d="M8.999 19c0 .84.13 1.66.37 2.42-3.84-1.33-6.74-4.86-7.04-8.99-.3-4.39 2.23-8.49 6.32-10.21 1.06-.44 1.6-.12 1.83.11.22.22.53.75.09 1.76a8.192 8.192 0 0 0-.67 3.28c.01 2.04.81 3.93 2.11 5.38A7.985 7.985 0 0 0 8.999 19Z" fill="#292D32"/><path opacity=".4" d="M21.21 17.72a10.501 10.501 0 0 1-8.47 4.27c-.16 0-.32-.01-.48-.02-1-.04-1.97-.23-2.89-.55C9.13 20.66 9 19.84 9 19c0-2.53 1.18-4.79 3.01-6.25a8.41 8.41 0 0 0 5.91 2.82c.63.03 1.26-.02 1.88-.13 1.12-.2 1.57.22 1.73.49.17.27.35.86-.32 1.79Z" fill="#292D32"/></svg>