<svg width="24" height="24" fill="none" xmlns="http://www.w3.org/2000/svg"><path d="M22 13.85a.67.67 0 0 1-.38-.11l-2.5-1.5c-1.3-.78-2.92-.78-4.23 0a5.587 5.587 0 0 1-5.77 0c-1.3-.78-2.92-.78-4.23 0l-2.5 1.5a.751.751 0 1 1-.77-1.29l2.5-1.5a5.587 5.587 0 0 1 5.77 0c1.3.78 2.92.78 4.23 0a5.587 5.587 0 0 1 5.77 0l2.5 1.5c.36.21.47.67.26 1.03a.77.77 0 0 1-.65.37Z" fill="#292D32" opacity=".4"/><path d="M6.998 6.848c-1 0-2-.27-2.89-.8l-2.5-1.5a.749.749 0 0 1-.26-1.03c.21-.36.67-.47 1.03-.26l2.5 1.5c1.3.78 2.92.78 4.23 0a5.587 5.587 0 0 1 5.77 0c1.3.78 2.92.78 4.23 0l2.5-1.5a.751.751 0 1 1 .77 1.29l-2.5 1.5a5.587 5.587 0 0 1-5.77 0c-1.3-.78-2.92-.78-4.23 0-.88.53-1.88.8-2.88.8ZM22 20.85a.67.67 0 0 1-.38-.11l-2.5-1.5c-1.3-.78-2.92-.78-4.23 0a5.587 5.587 0 0 1-5.77 0c-1.3-.78-2.92-.78-4.23 0l-2.5 1.5a.751.751 0 1 1-.77-1.29l2.5-1.5a5.587 5.587 0 0 1 5.77 0c1.3.78 2.92.78 4.23 0a5.587 5.587 0 0 1 5.77 0l2.5 1.5c.36.21.47.67.26 1.03a.77.77 0 0 1-.65.37Z" fill="#292D32"/></svg>