<svg width="24" height="24" fill="none" xmlns="http://www.w3.org/2000/svg"><path d="M16.75 3.56V2c0-.41-.34-.75-.75-.75s-.75.34-.75.75v1.5h-6.5V2c0-.41-.34-.75-.75-.75s-.75.34-.75.75v1.56c-2.7.25-4.01 1.86-4.21 4.25-.02.29.22.53.5.53h16.92c.29 0 .53-.25.5-.53-.2-2.39-1.51-4-4.21-4.25ZM20 9.84H4c-.55 0-1 .45-1 1V17c0 3 1.5 5 5 5h8c3.5 0 5-2 5-5v-6.16c0-.55-.45-1-1-1Zm-4.34 9.69c-.15.15-.34.22-.53.22s-.38-.07-.53-.22l-.74-.74c-.58.38-1.28.61-2.03.61-2.04 0-3.7-1.66-3.7-3.7s1.66-3.7 3.7-3.7 3.7 1.66 3.7 3.7c0 .75-.23 1.45-.61 2.03l.74.74c.29.29.29.77 0 1.06Z" fill="#292D32"/></svg>