<svg width="24" height="24" fill="none" xmlns="http://www.w3.org/2000/svg"><path d="M16.75 3.56V2c0-.41-.34-.75-.75-.75s-.75.34-.75.75v1.5h-6.5V2c0-.41-.34-.75-.75-.75s-.75.34-.75.75v1.56c-2.7.25-4.01 1.86-4.21 4.25-.02.29.22.53.5.53h16.92c.29 0 .53-.25.5-.53-.2-2.39-1.51-4-4.21-4.25ZM20 9.84H4c-.55 0-1 .45-1 1V17c0 3 1.5 5 5 5h4.93c.69 0 1.17-.67.95-1.32-.2-.58-.37-1.22-.37-1.68 0-3.03 2.47-5.5 5.5-5.5.29 0 .58.02.86.07.6.09 1.14-.38 1.14-.98v-1.74A1.02 1.02 0 0 0 20 9.84ZM9.21 17.71c-.1.09-.21.16-.33.21-.12.05-.25.08-.38.08s-.26-.03-.38-.08-.23-.12-.33-.21c-.18-.19-.29-.45-.29-.71 0-.06.01-.13.02-.19.01-.07.03-.13.06-.19.02-.06.05-.12.09-.18.03-.05.08-.1.12-.15.1-.09.21-.16.33-.21a1 1 0 0 1 .76 0c.12.05.23.12.33.21.04.05.09.1.12.15.04.06.07.12.09.18.03.06.05.12.06.19.01.06.02.13.02.19 0 .26-.11.52-.29.71Zm0-3.5c-.1.09-.21.16-.33.21-.12.05-.25.08-.38.08s-.26-.03-.38-.08c-.13-.05-.23-.12-.33-.21-.18-.19-.29-.45-.29-.71 0-.26.11-.52.29-.71.1-.09.21-.16.33-.21a1 1 0 0 1 .76 0c.12.05.23.12.33.21.04.05.09.1.12.15.04.06.07.12.09.18.03.06.05.12.06.18.01.07.02.14.02.2 0 .26-.11.52-.29.71Zm3.5 0c-.19.18-.44.29-.71.29-.13 0-.26-.03-.38-.08-.13-.05-.23-.12-.33-.21-.18-.19-.29-.45-.29-.71 0-.06.01-.13.02-.2.01-.06.03-.12.06-.18.02-.06.05-.12.09-.18l.12-.15c.37-.37 1.04-.37 1.42 0l.12.15c.04.06.07.12.09.18.03.06.05.12.06.18.01.07.02.14.02.2 0 .26-.11.52-.29.71Z" fill="#292D32"/><path d="M21.83 16.17a4.008 4.008 0 0 0-5.66 0 4.008 4.008 0 0 0 0 5.66 4.008 4.008 0 0 0 5.66 0 4.008 4.008 0 0 0 0-5.66Zm-.76 3.39c-.13.14-.32.22-.53.22h-.74v.78c0 .21-.08.39-.22.53s-.32.22-.53.22c-.41 0-.75-.34-.75-.75v-.78h-.75a.749.749 0 1 1 0-1.5h.75v-.71a.749.749 0 1 1 1.5 0v.71h.74c.42 0 .75.34.75.75 0 .21-.08.4-.22.53Z" fill="#292D32"/></svg>