<svg width="24" height="24" fill="none" xmlns="http://www.w3.org/2000/svg"><path d="M12 8.25c-1.79 0-3.25 1.46-3.25 3.25s1.46 3.25 3.25 3.25 3.25-1.46 3.25-3.25S13.79 8.25 12 8.25Zm1 2.93c0 .61-.33 1.19-.85 1.5l-.77.46c-.12.07-.25.11-.39.11-.25 0-.5-.13-.64-.36-.21-.36-.1-.82.26-1.03l.76-.46c.08-.05.12-.13.12-.21v-.93a.755.755 0 0 1 1.51-.01v.93Z" fill="#292D32"/><path d="m18.54 4.17-5.5-2.06c-.57-.21-1.5-.21-2.07 0l-5.5 2.06c-1.06.4-1.92 1.64-1.92 2.77v8.1c0 .81.53 1.88 1.18 2.36l5.5 4.11c.97.73 2.56.73 3.53 0l5.5-4.11c.65-.49 1.18-1.55 1.18-2.36v-8.1c.01-1.13-.85-2.37-1.9-2.77ZM12 16.25c-2.62 0-4.75-2.13-4.75-4.75S9.38 6.75 12 6.75s4.75 2.13 4.75 4.75-2.13 4.75-4.75 4.75Z" fill="#292D32"/></svg>