<svg xmlns="http://www.w3.org/2000/svg" width="24" height="24" fill="none" viewBox="0 0 24 24">
  <path stroke="#292D32" stroke-linecap="round" stroke-linejoin="round" stroke-width="1.5" d="M10.97 2h-2c-5 0-7 2-7 7v6c0 5 2 7 7 7h6c5 0 7-2 7-7v-2"/>
  <path stroke="#292D32" stroke-linecap="round" stroke-linejoin="round" stroke-width="1.5" d="M21.88 3.56c-1.23 3.07-4.32 7.25-6.9 9.32l-1.58 1.26c-.2.15-.4.27-.63.36 0-.15-.01-.3-.03-.46-.09-.67-.39-1.3-.93-1.83-.55-.55-1.21-.86-1.89-.95-.16-.01-.32-.02-.48-.01.09-.25.22-.48.39-.67L11.09 9c2.07-2.58 6.26-5.69 9.32-6.92.47-.18.93-.04 1.22.25.3.3.44.76.25 1.23z"/>
  <path stroke="#292D32" stroke-linecap="round" stroke-linejoin="round" stroke-width="1.5" d="M12.78 14.49c0 .88-.34 1.72-.97 2.36-.49.49-1.15.83-1.94.93l-1.97.21a1.7 1.7 0 01-1.87-1.88l.21-1.97c.19-1.75 1.65-2.87 3.21-2.9.16-.01.32 0 .48.01.68.09 1.34.4 1.89.95.54.54.84 1.16.93 1.83.02.16.03.32.03.46zM15.82 11.98c0-2.09-1.69-3.79-3.79-3.79"/>
</svg>
