<svg xmlns="http://www.w3.org/2000/svg" width="24" height="24" fill="none" viewBox="0 0 24 24">
  <path stroke="#292D32" stroke-linecap="round" stroke-linejoin="round" stroke-miterlimit="10" stroke-width="1.5" d="M9.41 15.95l-2.39-2.39c-.8-.8-.8-1.6 0-2.39l3.99-3.99 4.39 4.39c.22.22.22.58 0 .8l-3.59 3.59c-.8.79-1.6.79-2.4-.01zM10.21 6.38l.8.8M6.46 12.33l9.03-.39"/>
  <path stroke="#292D32" stroke-linecap="round" stroke-linejoin="round" stroke-width="1.5" d="M16.47 14.17s-1.1 1.2-1.1 1.93c0 .61.5 1.1 1.1 1.1.61 0 1.1-.5 1.1-1.1.01-.74-1.1-1.93-1.1-1.93z"/>
  <path stroke="#292D32" stroke-linecap="round" stroke-linejoin="round" stroke-width="1.5" d="M12 22c5.523 0 10-4.477 10-10S17.523 2 12 2 2 6.477 2 12s4.477 10 10 10z"/>
</svg>
