<svg xmlns="http://www.w3.org/2000/svg" width="24" height="24" fill="none" viewBox="0 0 24 24">
  <path stroke="#292D32" stroke-linecap="round" stroke-linejoin="round" stroke-miterlimit="10" stroke-width="1.5" d="M7.01 18L3 13.99c-1.34-1.34-1.34-2.67 0-4.01L9.68 3.3l7.35 7.35c.37.37.37.97 0 1.34l-6.02 6.02c-1.32 1.32-2.66 1.32-4-.01zM8.35 1.95l1.34 1.34M2.07 11.92l15.12-.66M3 22h13"/>
  <path stroke="#292D32" stroke-linecap="round" stroke-linejoin="round" stroke-width="1.5" d="M18.85 15S17 17.01 17 18.24c0 1.02.83 1.85 1.85 1.85s1.85-.83 1.85-1.85c0-1.23-1.85-3.24-1.85-3.24z"/>
</svg>
