<svg xmlns="http://www.w3.org/2000/svg" width="24" height="24" fill="none" viewBox="0 0 24 24">
  <path stroke="#292D32" stroke-linecap="round" stroke-linejoin="round" stroke-miterlimit="10" stroke-width="1.5" d="M8.94 16.93L6.11 14.1c-.94-.94-.94-1.89 0-2.83l4.72-4.72 5.19 5.19c.26.26.26.68 0 .94l-4.25 4.25c-.94.94-1.89.94-2.83 0zM9.88 5.6l.95.94M5.44 12.64l10.69-.47"/>
  <path stroke="#292D32" stroke-linecap="round" stroke-linejoin="round" stroke-width="1.5" d="M17.3 14.81s-1.31 1.42-1.31 2.29c0 .72.59 1.31 1.31 1.31.72 0 1.31-.59 1.31-1.31-.01-.87-1.31-2.29-1.31-2.29z"/>
  <path stroke="#292D32" stroke-linecap="round" stroke-linejoin="round" stroke-width="1.5" d="M22 15V9c0-5-2-7-7-7H9C4 2 2 4 2 9v6c0 5 2 7 7 7h6c5 0 7-2 7-7z"/>
</svg>
