<svg xmlns="http://www.w3.org/2000/svg" width="24" height="24" fill="none" viewBox="0 0 24 24">
  <path stroke="#292D32" stroke-linecap="round" stroke-linejoin="round" stroke-width="1.5" d="M22 15V9c0-5-2-7-7-7H9C4 2 2 4 2 9v6c0 5 2 7 7 7h6c5 0 7-2 7-7z"/>
  <path stroke="#292D32" stroke-linecap="round" stroke-linejoin="round" stroke-width="1.5" d="M17 16.75h-3.1l1.62-1.79c.8-.89 1.24-2.02 1.24-3.18 0-1.2-.5-2.35-1.39-3.2-.89-.85-2.1-1.33-3.37-1.33-1.26 0-2.47.48-3.37 1.33-.89.85-1.39 2-1.39 3.2 0 1.17.44 2.3 1.24 3.18l1.62 1.79H7"/>
</svg>
