<svg xmlns="http://www.w3.org/2000/svg" width="24" height="24" fill="none" viewBox="0 0 24 24">
  <path stroke="#292D32" stroke-linecap="round" stroke-linejoin="round" stroke-width="1.5" d="M12 22c5.523 0 10-4.477 10-10S17.523 2 12 2 2 6.477 2 12s4.477 10 10 10z"/>
  <path stroke="#292D32" stroke-linecap="round" stroke-linejoin="round" stroke-width="1.5" d="M17 16.5h-3.1l1.62-1.79c.8-.89 1.24-2.02 1.24-3.18 0-1.2-.5-2.35-1.39-3.2C14.48 7.48 13.27 7 12 7c-1.26 0-2.47.48-3.37 1.33-.89.85-1.39 2-1.39 3.2 0 1.17.44 2.3 1.24 3.18l1.62 1.79H7"/>
</svg>
