<svg xmlns="http://www.w3.org/2000/svg" width="24" height="24" fill="none" viewBox="0 0 24 24">
  <path stroke="#292D32" stroke-linecap="round" stroke-linejoin="round" stroke-width="1.5" d="M16.97 12.25v4.5c0 3.75-1.5 5.25-5.25 5.25h-4.5c-3.75 0-5.25-1.5-5.25-5.25v-4.5C1.97 8.5 3.47 7 7.22 7h4.5c3.75 0 5.25 1.5 5.25 5.25z"/>
  <path stroke="#292D32" stroke-linecap="round" stroke-linejoin="round" stroke-width="1.5" d="M21.97 7.5c0 2.87-2.19 5.22-5 5.47v-.72c0-3.75-1.5-5.25-5.25-5.25H11c.25-2.81 2.6-5 5.47-5 2.79 0 5.09 2.07 5.44 4.77.04.23.06.48.06.73z"/>
</svg>
