<svg width="24" height="24" fill="none" xmlns="http://www.w3.org/2000/svg"><path d="M13.47 14.39h-2.94c-1.27 0-2.03.76-2.03 2.03v2.94c0 1.27.76 2.03 2.03 2.03h2.94c1.27 0 2.03-.76 2.03-2.03v-2.94c0-1.27-.76-2.03-2.03-2.03Zm.94 3.93c-.1.1-.25.17-.41.18h-1.41l.01 1.39c-.01.17-.07.31-.19.43-.1.1-.25.17-.41.17-.33 0-.6-.27-.6-.6v-1.4l-1.4.01a.61.61 0 0 1-.6-.61c0-.33.27-.6.6-.6l1.4.01v-1.4c0-.33.27-.61.6-.61.33 0 .6.28.6.61l-.01 1.39H14c.33 0 .6.27.6.6a.68.68 0 0 1-.19.43Z" fill="#292D32"/><path d="M20.17 17.57c-.53.49-1.14.86-1.8 1.11-.66.25-1.37-.23-1.37-.94v-1.32a3.53 3.53 0 0 0-3.53-3.53h-2.94A3.53 3.53 0 0 0 7 16.42V18c0 .55-.45 1-1 1h-.45C3.1 18.63 2 16.64 2 14.86c0-1.68.98-3.54 3.11-4.06-.59-2.33-.09-4.52 1.43-6.11 1.73-1.81 4.49-2.53 6.87-1.79 2.19.67 3.73 2.47 4.28 4.97 1.91.43 3.44 1.87 4.05 3.87.66 2.17.06 4.4-1.57 5.83Z" fill="#292D32"/></svg>