<svg width="24" height="24" fill="none" xmlns="http://www.w3.org/2000/svg"><path d="M21.272 8.762c0 1.02-.47 1.94-1.23 2.54a3.2 3.2 0 0 1-2.03.72c-1.79 0-3.25-1.46-3.25-3.25 0-.89.36-1.7.96-2.29v-.01c.59-.59 1.4-.96 2.29-.96 1.8 0 3.26 1.46 3.26 3.25Z" fill="#292D32"/><path d="M20.182 18.729c-1.05.96-2.4 1.49-3.83 1.49H5.972c-2.74-.2-3.96-2.31-3.96-4.19 0-1.68.97-3.54 3.1-4.06-.93-3.58.85-6.08 2.93-7.27 2.06-1.17 4.96-1.36 7.14.25-.19.14-.36.29-.53.46l-.43.45v.06c-.62.81-.96 1.8-.96 2.84 0 2.62 2.14 4.75 4.76 4.75 1.08 0 2.13-.37 2.95-1.04.15-.12.3-.25.43-.39.99 2.08.85 4.84-1.22 6.65Z" fill="#292D32"/></svg>