<svg width="24" height="24" fill="none" xmlns="http://www.w3.org/2000/svg"><path d="M20.17 17.57c-.53.49-1.14.86-1.8 1.11-.66.25-1.37-.23-1.37-.94v-1.32a3.53 3.53 0 0 0-3.53-3.53h-2.94A3.53 3.53 0 0 0 7 16.42V18c0 .55-.45 1-1 1h-.45C3.1 18.63 2 16.64 2 14.86c0-1.68.98-3.54 3.11-4.06-.59-2.33-.09-4.52 1.43-6.11 1.73-1.81 4.49-2.53 6.87-1.79 2.19.67 3.73 2.47 4.28 4.97 1.91.43 3.44 1.87 4.05 3.87.66 2.17.06 4.4-1.57 5.83Z" fill="#292D32"/><path d="M13.47 14.39h-2.94c-1.27 0-2.03.76-2.03 2.03v2.94c0 1.27.76 2.03 2.03 2.03h2.94c1.27 0 2.03-.76 2.03-2.03v-2.94c0-1.27-.76-2.03-2.03-2.03Zm.5 4.55c.25.25.25.66 0 .91a.667.667 0 0 1-.91 0L12 18.79l-1.05 1.06a.667.667 0 0 1-.91 0 .646.646 0 0 1 0-.91l1.06-1.06-1.06-1.05a.646.646 0 0 1 0-.91c.25-.25.66-.25.91 0L12 16.98l1.06-1.06c.25-.25.66-.25.91 0s.25.66 0 .91l-1.06 1.05 1.06 1.06Z" fill="#292D32"/></svg>