<svg width="24" height="24" fill="none" xmlns="http://www.w3.org/2000/svg"><path d="M18.48 12.25a.5.5 0 0 0 .5-.52A6.998 6.998 0 0 0 12 5.25c-3.69 0-6.71 2.85-6.98 6.48a.5.5 0 0 0 .5.52h12.96ZM22 13h-.08c-.55 0-1-.45-1-1s.45-1 1-1 1.04.45 1.04 1-.41 1-.96 1ZM2.08 13H2c-.55 0-1-.45-1-1s.45-1 1-1 1.04.45 1.04 1-.41 1-.96 1Zm16.93-7.01c-.26 0-.51-.1-.71-.29a.996.996 0 0 1 0-1.41l.13-.13a.996.996 0 1 1 1.41 1.41l-.13.13c-.19.19-.44.29-.7.29Zm-14.02 0c-.26 0-.51-.1-.71-.29l-.13-.14a.996.996 0 1 1 1.41-1.41l.13.13c.39.39.39 1.02 0 1.41-.19.2-.45.3-.7.3ZM12 3.04c-.55 0-1-.41-1-.96V2c0-.55.45-1 1-1s1 .45 1 1-.45 1.04-1 1.04ZM20 15.75H4c-.41 0-.75-.34-.75-.75s.34-.75.75-.75h16c.41 0 .75.34.75.75s-.34.75-.75.75ZM18 18.75H6c-.41 0-.75-.34-.75-.75s.34-.75.75-.75h12c.41 0 .75.34.75.75s-.34.75-.75.75ZM15 21.75H9c-.41 0-.75-.34-.75-.75s.34-.75.75-.75h6c.41 0 .75.34.75.75s-.34.75-.75.75Z" fill="#292D32"/></svg>