<svg width="24" height="24" fill="none" xmlns="http://www.w3.org/2000/svg"><path d="M3.41 11.02v3.54c0 1.18.78 2.73 1.73 3.44l4.3 3.21c.7.53 1.63.79 2.56.79M20.59 10.549v-3.43c0-1.23-.94-2.59-2.09-3.02l-4.99-1.87c-.83-.31-2.19-.31-3.02 0L5.5 4.109c-1.15.43-2.09 1.79-2.09 3.01M20 16.002c0 2.21-1.79 4-4 4s-4-1.79-4-4c0-.73.19-1.41.53-1.99.69-1.2 1.98-2 3.46-2 .61 0 1.18.14 1.7.38" stroke="#292D32" stroke-width="1.5" stroke-linecap="round" stroke-linejoin="round"/><path d="M20.995 21h.01" stroke="#292D32" stroke-width="2" stroke-linecap="round" stroke-linejoin="round"/></svg>