<svg width="24" height="24" fill="none" xmlns="http://www.w3.org/2000/svg"><path d="M12.001 9.749c-.41 0-.75-.34-.75-.75v-5.19l-.72.72c-.29.29-.77.29-1.06 0a.754.754 0 0 1 0-1.06l2-2c.21-.21.54-.28.82-.16.28.11.46.39.46.69v7c0 .41-.34.75-.75.75Z" fill="#292D32"/><path d="M14.001 4.751c-.19 0-.38-.07-.53-.22l-2-2a.754.754 0 0 1 0-1.06c.29-.29.77-.29 1.06 0l2 2c.29.29.29.77 0 1.06-.15.15-.34.22-.53.22ZM13.76 17.75h-3.53a2.73 2.73 0 0 1-2.46-1.52L6.6 13.89a.24.24 0 0 0-.22-.14h-4.4c-.41 0-.75-.34-.75-.75s.34-.75.75-.75h4.41c.67 0 1.27.37 1.57.97l1.17 2.34c.21.43.64.69 1.12.69h3.53c.48 0 .91-.26 1.12-.69l1.17-2.34c.3-.6.9-.97 1.57-.97H22c.41 0 .75.34.75.75s-.34.75-.75.75h-4.36c-.1 0-.18.05-.22.14l-1.17 2.34c-.5.94-1.44 1.52-2.49 1.52Z" fill="#292D32"/><path d="M15 22.75H9c-5.43 0-7.75-2.32-7.75-7.75v-3c0-4.69 1.74-7.04 5.64-7.61.42-.06.79.22.85.63.06.41-.22.79-.63.85-3.14.46-4.36 2.18-4.36 6.13v3c0 4.61 1.64 6.25 6.25 6.25h6c4.61 0 6.25-1.64 6.25-6.25v-3c0-3.95-1.22-5.67-4.36-6.13a.747.747 0 0 1-.63-.85c.06-.41.44-.69.85-.63 3.9.57 5.64 2.92 5.64 7.61v3c0 5.43-2.32 7.75-7.75 7.75Z" fill="#292D32"/></svg>