<svg width="24" height="24" fill="none" xmlns="http://www.w3.org/2000/svg"><path d="M16 22.75H8c-5.75 0-5.75-3.05-5.75-5.75v-1c0-2.23 0-4.75 4.75-4.75 1.19 0 1.63.29 2.25.75.03.03.07.05.1.09l1.02 1.08c.86.91 2.42.91 3.28 0l1.02-1.08c.03-.03.06-.06.1-.09.62-.47 1.06-.75 2.25-.75 4.75 0 4.75 2.52 4.75 4.75v1c-.02 3.82-1.95 5.75-5.77 5.75Zm-9-10c-3.25 0-3.25 1.02-3.25 3.25v1c0 2.74 0 4.25 4.25 4.25h8c2.98 0 4.25-1.27 4.25-4.25v-1c0-2.23 0-3.25-3.25-3.25-.72 0-.87.09-1.3.41l-.97 1.03A3.73 3.73 0 0 1 12 15.37a3.73 3.73 0 0 1-2.73-1.18l-.97-1.03c-.43-.32-.58-.41-1.3-.41Z" fill="#292D32"/><path d="M19 12.75c-.41 0-.75-.34-.75-.75V6c0-2.23 0-3.25-3.25-3.25H9C5.75 2.75 5.75 3.77 5.75 6v6c0 .41-.34.75-.75.75s-.75-.34-.75-.75V6c0-2.23 0-4.75 4.75-4.75h6c4.75 0 4.75 2.52 4.75 4.75v6c0 .41-.34.75-.75.75Z" fill="#292D32"/></svg>