<svg width="24" height="24" fill="none" xmlns="http://www.w3.org/2000/svg"><path d="M12 8.75c-.1 0-.19-.02-.29-.06a.74.74 0 0 1-.46-.69V2c0-.41.34-.75.75-.75s.75.34.75.75v4.19l.72-.72c.29-.29.77-.29 1.06 0 .29.29.29.77 0 1.06l-2 2c-.14.14-.34.22-.53.22Z" fill="#292D32"/><path d="M12.001 8.751c-.19 0-.38-.07-.53-.22l-2-2a.754.754 0 0 1 0-1.06c.29-.29.77-.29 1.06 0l2 2c.29.29.29.77 0 1.06-.15.15-.34.22-.53.22ZM16 22.75H8c-5.75 0-5.75-3.05-5.75-5.75v-1c0-2.23 0-4.75 4.75-4.75 1.19 0 1.63.29 2.25.75.03.03.07.05.1.09l1.02 1.08c.86.91 2.42.91 3.28 0l1.02-1.08c.03-.03.06-.06.1-.09.62-.47 1.06-.75 2.25-.75 4.75 0 4.75 2.52 4.75 4.75v1c-.02 3.82-1.95 5.75-5.77 5.75Zm-9-10c-3.25 0-3.25 1.02-3.25 3.25v1c0 2.74 0 4.25 4.25 4.25h8c2.98 0 4.25-1.27 4.25-4.25v-1c0-2.23 0-3.25-3.25-3.25-.72 0-.87.09-1.3.41l-.97 1.03A3.73 3.73 0 0 1 12 15.37a3.73 3.73 0 0 1-2.73-1.18l-.97-1.03c-.43-.32-.58-.41-1.3-.41Z" fill="#292D32"/><path d="M5 12.75c-.41 0-.75-.34-.75-.75V8c0-1.94 0-4.35 3.68-4.7.41-.04.78.26.82.68.04.41-.26.78-.68.82-2.32.21-2.32 1.15-2.32 3.2v4c0 .41-.34.75-.75.75ZM19.001 12.748c-.41 0-.75-.34-.75-.75v-4c0-2.05 0-2.99-2.32-3.21a.75.75 0 0 1-.67-.82c.04-.41.4-.72.82-.67 3.68.35 3.68 2.76 3.68 4.7v4a.77.77 0 0 1-.76.75Z" fill="#292D32"/></svg>