<svg width="24" height="24" fill="none" xmlns="http://www.w3.org/2000/svg"><path d="M15 22.75H9c-5.43 0-7.75-2.32-7.75-7.75V9c0-5.43 2.32-7.75 7.75-7.75h6c5.43 0 7.75 2.32 7.75 7.75v6c0 5.43-2.32 7.75-7.75 7.75Zm-6-20C4.39 2.75 2.75 4.39 2.75 9v6c0 4.61 1.64 6.25 6.25 6.25h6c4.61 0 6.25-1.64 6.25-6.25V9c0-4.61-1.64-6.25-6.25-6.25H9Z" fill="#292D32"/><path d="M13.758 17.75h-3.53c-1.1 0-1.97-.54-2.46-1.52l-.89-1.79c-.21-.43-.64-.69-1.12-.69h-3.77c-.41 0-.75-.34-.75-.75s.35-.75.76-.75h3.76c1.05 0 1.99.58 2.46 1.52l.89 1.79c.23.46.6.69 1.12.69h3.53c.48 0 .91-.26 1.12-.69l.89-1.79a2.73 2.73 0 0 1 2.46-1.52h3.74c.41 0 .75.34.75.75s-.34.75-.75.75h-3.74c-.48 0-.91.26-1.12.69l-.89 1.79a2.73 2.73 0 0 1-2.46 1.52ZM13.668 7.75h-3.33c-.42 0-.76-.34-.76-.75s.34-.75.75-.75h3.33c.41 0 .75.34.75.75s-.33.75-.74.75ZM14.5 10.75h-5c-.41 0-.75-.34-.75-.75s.34-.75.75-.75h5c.41 0 .75.34.75.75s-.34.75-.75.75Z" fill="#292D32"/></svg>