<svg width="24" height="24" fill="none" xmlns="http://www.w3.org/2000/svg"><path d="M15.5 11.25h-7c-.41 0-.75-.34-.75-.75s.34-.75.75-.75h7c.41 0 .75.34.75.75s-.34.75-.75.75Z" fill="#292D32"/><path d="M16 22.321c-.34 0-.68-.1-.97-.29l-4.26-2.84H7c-3.44 0-5.75-2.31-5.75-5.75v-6c0-3.44 2.31-5.75 5.75-5.75h10c3.44 0 5.75 2.31 5.75 5.75v6c0 3.18-1.98 5.4-5 5.71v1.42c0 .65-.35 1.24-.92 1.54-.26.14-.55.21-.83.21ZM7 3.181c-2.58 0-4.25 1.67-4.25 4.25v6c0 2.58 1.67 4.25 4.25 4.25h4c.15 0 .29.04.42.13l4.45 2.96c.11.07.21.04.26.01.05-.03.13-.09.13-.22v-2.13c0-.41.34-.75.75-.75 2.58 0 4.25-1.67 4.25-4.25v-6c0-2.58-1.67-4.25-4.25-4.25H7Z" fill="#292D32"/></svg>