<svg width="24" height="24" fill="none" xmlns="http://www.w3.org/2000/svg"><path d="M15.998 22.321c-.34 0-.67-.1-.96-.29l-4.26-2.84h-1.89c-.23 0-.45-.11-.59-.29a.763.763 0 0 1-.13-.65 3 3 0 0 0 .09-.74c0-.8-.3-1.57-.84-2.17a3.2 3.2 0 0 0-2.41-1.08c-.89 0-1.71.35-2.33.98-.19.2-.48.27-.74.2a.77.77 0 0 1-.53-.56c-.1-.44-.15-.92-.15-1.44v-6c0-3.44 2.31-5.75 5.75-5.75h10c3.44 0 5.75 2.31 5.75 5.75v6c0 1.67-.55 3.11-1.6 4.16-.88.88-2.05 1.41-3.4 1.55v1.42c0 .65-.36 1.24-.93 1.55-.27.13-.55.2-.83.2Zm-6.25-4.64h1.25c.15 0 .29.04.42.13l4.45 2.97c.11.07.2.04.25.01.05-.03.14-.09.14-.23v-2.13c0-.41.34-.75.75-.75 1.27 0 2.34-.4 3.09-1.15.76-.76 1.16-1.83 1.16-3.1v-6c0-2.58-1.67-4.25-4.25-4.25h-10c-2.58 0-4.25 1.67-4.25 4.25v5.88a4.69 4.69 0 0 1 2.25-.56c1.36 0 2.65.58 3.53 1.58a4.74 4.74 0 0 1 1.22 3.17c-.01.06-.01.12-.01.18Z" fill="#292D32"/><path d="M5 22.25c-1.66 0-3.22-.88-4.06-2.31-.45-.72-.69-1.57-.69-2.44 0-1.46.65-2.81 1.78-3.71.84-.67 1.9-1.04 2.97-1.04 2.62 0 4.75 2.13 4.75 4.75 0 .87-.24 1.72-.69 2.45-.25.42-.57.8-.95 1.12-.83.76-1.94 1.18-3.11 1.18Zm0-8c-.74 0-1.44.25-2.03.72a3.224 3.224 0 0 0-.75 4.2c.58.98 1.65 1.58 2.78 1.58.79 0 1.55-.29 2.13-.81.26-.22.48-.48.64-.76.32-.51.48-1.09.48-1.68 0-1.79-1.46-3.25-3.25-3.25Z" fill="#292D32"/><path d="M4.429 19.241c-.19 0-.38-.07-.53-.22l-.99-.99a.755.755 0 0 1 0-1.06c.29-.29.77-.29 1.06 0l.48.48 1.6-1.48c.3-.28.78-.26 1.06.04s.26.78-.04 1.06l-2.13 1.97c-.15.13-.33.2-.51.2ZM15.5 11.25h-7c-.41 0-.75-.34-.75-.75s.34-.75.75-.75h7c.41 0 .75.34.75.75s-.34.75-.75.75Z" fill="#292D32"/></svg>