<svg width="24" height="24" fill="none" xmlns="http://www.w3.org/2000/svg"><path d="M12 22.81c-.69 0-1.34-.35-1.8-.96l-1.5-2a.472.472 0 0 0-.2-.1H8c-4.17 0-6.75-1.13-6.75-6.75V8c0-4.42 2.33-6.75 6.75-6.75h8c4.42 0 6.75 2.33 6.75 6.75v5c0 4.42-2.33 6.75-6.75 6.75h-.5c-.08 0-.15.04-.2.1l-1.5 2c-.46.61-1.11.96-1.8.96ZM8 2.75C4.42 2.75 2.75 4.42 2.75 8v5c0 4.52 1.55 5.25 5.25 5.25h.5c.51 0 1.09.29 1.4.7l1.5 2c.35.46.85.46 1.2 0l1.5-2c.33-.44.85-.7 1.4-.7h.5c3.58 0 5.25-1.67 5.25-5.25V8c0-3.58-1.67-5.25-5.25-5.25H8Z" fill="#292D32"/><path d="M12 12c-.56 0-1-.45-1-1s.45-1 1-1 1 .45 1 1-.44 1-1 1ZM16 12c-.56 0-1-.45-1-1s.45-1 1-1 1 .45 1 1-.44 1-1 1ZM8 12c-.56 0-1-.45-1-1s.45-1 1-1 1 .45 1 1-.44 1-1 1Z" fill="#292D32"/></svg>