<svg width="24" height="24" fill="none" xmlns="http://www.w3.org/2000/svg"><path d="M16 22.75H3c-.96 0-1.75-.79-1.75-1.75V8c0-4.42 2.33-6.75 6.75-6.75h8c4.42 0 6.75 2.33 6.75 6.75v8c0 4.42-2.33 6.75-6.75 6.75Zm-8-20C4.42 2.75 2.75 4.42 2.75 8v13c0 .14.11.25.25.25h13c3.58 0 5.25-1.67 5.25-5.25V8c0-3.58-1.67-5.25-5.25-5.25H8Z" fill="#292D32"/><path d="M7.95 17.75c-.47 0-.9-.17-1.22-.48-.38-.38-.55-.92-.46-1.5l.28-1.98c.06-.43.33-.98.64-1.29l5.19-5.19c1.78-1.78 3.33-.98 4.31 0 .77.77 1.12 1.58 1.04 2.39-.06.66-.41 1.28-1.04 1.92l-5.19 5.19c-.31.31-.85.58-1.29.65l-1.98.28c-.09 0-.19.01-.28.01Zm6.58-10c-.37 0-.7.24-1.08.61l-5.19 5.19c-.08.08-.2.33-.22.44l-.28 1.98c-.01.1 0 .19.04.23.04.04.13.05.23.04l1.98-.28c.12-.02.36-.14.44-.22l5.19-5.19c.38-.38.58-.71.61-1.01.03-.34-.17-.74-.61-1.18-.44-.42-.79-.61-1.11-.61Z" fill="#292D32"/><path d="M15.42 12.582c-.07 0-.14-.01-.2-.03a5.48 5.48 0 0 1-3.77-3.77.76.76 0 0 1 .52-.93c.4-.11.81.12.92.52a3.987 3.987 0 0 0 2.73 2.73.755.755 0 0 1-.2 1.48Z" fill="#292D32"/></svg>