<svg width="24" height="24" fill="none" xmlns="http://www.w3.org/2000/svg"><path d="M11.999 19.352c-.52 0-1.01-.26-1.36-.72l-.91-1.21h-.25c-2.71 0-4.51-.77-4.51-4.51v-3.14c0-2.68 1.37-4.27 3.86-4.48.19-.02.42-.03.65-.03h5.03c2.91 0 4.51 1.6 4.51 4.51v3.14c0 .24-.01.46-.04.68-.21 2.46-1.8 3.83-4.48 3.83h-.25l-.91 1.21c-.33.46-.82.72-1.34.72Zm-2.51-12.6c-.17 0-.34.01-.5.03-1.75.15-2.52 1.07-2.52 2.99v3.14c0 2.58.75 3.01 3.01 3.01h.31c.4 0 .85.22 1.1.54l.95 1.27c.06.08.12.12.15.12s.09-.04.15-.12l.94-1.26c.26-.35.67-.55 1.1-.55h.31c1.92 0 2.84-.77 2.99-2.49.02-.19.03-.35.03-.53v-3.14c0-2.08-.93-3.01-3.01-3.01h-5.01Z" fill="#292D32"/><path d="M15 22.75H9c-5.43 0-7.75-2.32-7.75-7.75V9c0-5.43 2.32-7.75 7.75-7.75h6c5.43 0 7.75 2.32 7.75 7.75v6c0 5.43-2.32 7.75-7.75 7.75Zm-6-20C4.39 2.75 2.75 4.39 2.75 9v6c0 4.61 1.64 6.25 6.25 6.25h6c4.61 0 6.25-1.64 6.25-6.25V9c0-4.61-1.64-6.25-6.25-6.25H9Z" fill="#292D32"/></svg>