<svg width="24" height="24" fill="none" xmlns="http://www.w3.org/2000/svg"><path d="M9.99 22.78c-.6 0-1.17-.3-1.56-.83l-1.2-1.6c0 .01-.05-.02-.07-.02h-.37c-3.42 0-5.54-.93-5.54-5.54v-4c0-4.21 2.57-5.31 4.73-5.5.24-.03.52-.04.81-.04h6.4c3.62 0 5.54 1.92 5.54 5.54v4c0 .29-.01.57-.05.84-.18 2.13-1.28 4.7-5.49 4.7h-.4l-1.24 1.62c-.39.53-.96.83-1.56.83ZM6.79 6.75c-.23 0-.45.01-.66.03-2.32.2-3.38 1.47-3.38 4.01v4c0 3.43 1.06 4.04 4.04 4.04h.4c.45 0 .96.25 1.24.61l1.2 1.61c.22.3.5.3.72 0l1.2-1.6c.29-.39.75-.62 1.24-.62h.4c2.54 0 3.81-1.07 4-3.35.03-.24.04-.46.04-.69v-4c0-2.79-1.25-4.04-4.04-4.04h-6.4Z" fill="#292D32"/><path d="M9.992 14.191c-.56 0-1-.45-1-1s.45-1 1-1 1 .45 1 1-.44 1-1 1ZM13.191 14.191c-.56 0-1-.45-1-1s.45-1 1-1 1 .45 1 1-.45 1-1 1ZM6.8 14.191c-.56 0-1-.45-1-1s.45-1 1-1 1 .45 1 1-.45 1-1 1Z" fill="#292D32"/><path d="M17.94 16.29c-.2 0-.4-.08-.54-.23a.727.727 0 0 1-.2-.61c.03-.21.04-.43.04-.66v-4c0-2.79-1.25-4.04-4.04-4.04H6.8c-.23 0-.45.01-.66.03a.76.76 0 0 1-.61-.2.762.762 0 0 1-.23-.6c.18-2.16 1.29-4.73 5.5-4.73h6.4c3.62 0 5.54 1.92 5.54 5.54v4c0 4.21-2.57 5.31-4.73 5.5h-.07ZM6.92 5.25h6.27c3.62 0 5.54 1.92 5.54 5.54v3.87c1.7-.42 2.5-1.67 2.5-3.87v-4c0-2.79-1.25-4.04-4.04-4.04h-6.4c-2.2 0-3.44.8-3.87 2.5Z" fill="#292D32"/></svg>