<svg width="24" height="24" fill="none" xmlns="http://www.w3.org/2000/svg"><path d="M12 21.25H7c-3.65 0-5.75-2.1-5.75-5.75v-7c0-3.65 2.1-5.75 5.75-5.75h10c3.65 0 5.75 2.1 5.75 5.75v3c0 .41-.34.75-.75.75s-.75-.34-.75-.75v-3c0-2.86-1.39-4.25-4.25-4.25H7c-2.86 0-4.25 1.39-4.25 4.25v7c0 2.86 1.39 4.25 4.25 4.25h5c.41 0 .75.34.75.75s-.34.75-.75.75Z" fill="#292D32"/><path d="M11.999 12.868c-.84 0-1.69-.26-2.34-.79l-3.13-2.5a.748.748 0 0 1-.12-1.05c.26-.32.73-.37 1.05-.12l3.13 2.5c.76.61 2.05.61 2.81 0l3.13-2.5c.32-.26.79-.21 1.05.12.26.32.21.8-.12 1.05l-3.13 2.5c-.64.53-1.49.79-2.33.79ZM18.2 22.15c-2.18 0-3.95-1.77-3.95-3.95s1.77-3.95 3.95-3.95 3.95 1.77 3.95 3.95-1.77 3.95-3.95 3.95Zm0-6.4c-1.35 0-2.45 1.1-2.45 2.45s1.1 2.45 2.45 2.45 2.45-1.1 2.45-2.45-1.1-2.45-2.45-2.45Z" fill="#292D32"/><path d="M22.001 22.751c-.19 0-.38-.07-.53-.22l-1-1a.754.754 0 0 1 0-1.06c.29-.29.77-.29 1.06 0l1 1c.29.29.29.77 0 1.06-.15.15-.34.22-.53.22Z" fill="#292D32"/></svg>