<svg width="24" height="24" fill="none" xmlns="http://www.w3.org/2000/svg"><path d="M2 2h1.74c1.08 0 1.93.93 1.84 2l-.83 9.96a2.796 2.796 0 0 0 2.79 3.03h10.65c1.44 0 2.7-1.18 2.81-2.61l.54-7.5c.12-1.66-1.14-3.01-2.81-3.01H5.82" stroke="#292D32" stroke-width="1.5" stroke-miterlimit="10" stroke-linecap="round" stroke-linejoin="round"/><path opacity=".4" d="M16.25 22a1.25 1.25 0 1 0 0-2.5 1.25 1.25 0 0 0 0 2.5ZM8.25 22a1.25 1.25 0 1 0 0-2.5 1.25 1.25 0 0 0 0 2.5ZM9 8h12" stroke="#292D32" stroke-width="1.5" stroke-miterlimit="10" stroke-linecap="round" stroke-linejoin="round"/></svg>