<svg width="24" height="24" fill="none" xmlns="http://www.w3.org/2000/svg"><path opacity=".4" d="M21.01 11.219v4.49c0 4.49-1.79 6.29-6.29 6.29H9.33c-.58 0-1.11-.03-1.6-.1M3.04 15.519v-4.3" stroke="#292D32" stroke-width="1.5" stroke-linecap="round" stroke-linejoin="round"/><path d="M12.03 12c1.83 0 3.18-1.49 3-3.32L14.36 2H9.69l-.67 6.68C8.84 10.51 10.2 12 12.03 12Z" stroke="#292D32" stroke-width="1.5" stroke-linecap="round" stroke-linejoin="round"/><path d="M18.33 12c2.02 0 3.5-1.64 3.3-3.65l-.28-2.75C20.99 3 19.99 2 17.37 2h-3.05l.7 7.01c.18 1.65 1.66 2.99 3.31 2.99ZM5.67 12c1.65 0 3.14-1.34 3.3-2.99l.22-2.21.48-4.8H6.62C4 2 3 3 2.64 5.6l-.28 2.75C2.16 10.36 3.65 12 5.67 12Z" stroke="#292D32" stroke-width="1.5" stroke-linecap="round" stroke-linejoin="round"/><path d="M9 19c0 .75-.21 1.46-.58 2.06-.19.32-.42.61-.69.84-.03.04-.06.07-.1.1-.7.63-1.62 1-2.63 1-1.22 0-2.31-.55-3.03-1.41-.02-.03-.05-.05-.07-.08-.12-.14-.23-.29-.32-.45C1.21 20.46 1 19.75 1 19c0-1.26.58-2.39 1.5-3.12.17-.14.35-.26.54-.36C3.62 15.19 4.29 15 5 15c1 0 1.9.36 2.6.97.12.09.23.2.33.31C8.59 17 9 17.95 9 19Z" stroke="#292D32" stroke-width="1.5" stroke-miterlimit="10" stroke-linecap="round" stroke-linejoin="round"/><path opacity=".4" d="M6.49 18.98H3.51" stroke="#292D32" stroke-width="1.5" stroke-miterlimit="10" stroke-linecap="round" stroke-linejoin="round"/></svg>