<svg width="24" height="24" fill="none" xmlns="http://www.w3.org/2000/svg"><path d="M21.69 2.708a.783.783 0 0 0-.41-.41.717.717 0 0 0-.29-.06h-9c-.41 0-.75.34-.75.75s.34.75.75.75h7.19L2.46 20.458c-.29.29-.29.77 0 1.06.15.15.34.22.53.22s.38-.07.53-.22l16.72-16.72v7.2c0 .41.34.75.75.75s.75-.34.75-.75v-9c.01-.1-.01-.19-.05-.29Z" fill="#292D32"/><path opacity=".4" d="M17.4 18.15c-.19 0-.38-.071-.53-.221l-10.8-10.8a.754.754 0 0 1 0-1.06c.29-.29.77-.29 1.06 0l10.799 10.8c.29.29.29.77 0 1.06-.15.15-.34.22-.53.22Z" fill="#292D32"/></svg>