<svg width="24" height="24" fill="none" xmlns="http://www.w3.org/2000/svg"><path d="M21.25 5.15v2.7c0 1.84-.56 2.4-2.4 2.4h-2.7c-1.84 0-2.4-.56-2.4-2.4v-2.7c0-1.84.56-2.4 2.4-2.4h2.7c1.84 0 2.4.56 2.4 2.4ZM10.25 16.15v2.7c0 1.84-.56 2.4-2.4 2.4h-2.7c-1.84 0-2.4-.56-2.4-2.4v-2.7c0-1.84.56-2.4 2.4-2.4h2.7c1.84 0 2.4.56 2.4 2.4Z" fill="#292D32"/><path d="M16.15 11.751a.48.48 0 0 1 .48.48v1.39c0 2.28-.73 3.01-3.01 3.01h-1.39a.48.48 0 0 1-.48-.48c0-2.66-1.24-3.9-3.9-3.9a.48.48 0 0 1-.48-.48v-1.39c0-2.28.73-3.01 3.01-3.01h1.39a.48.48 0 0 1 .48.48c0 2.66 1.24 3.9 3.9 3.9Z" fill="#292D32"/></svg>