<svg width="24" height="24" fill="none" xmlns="http://www.w3.org/2000/svg"><path d="M19.14 7.72C19.43 8.47 20.15 9 21 9c1.1 0 2-.9 2-2s-.9-2-2-2c-.85 0-1.57.53-1.86 1.28-.05-.01-.09-.03-.14-.03h-4V5.5c0-.82-.68-1.5-1.5-1.5h-3C9.68 4 9 4.68 9 5.5v.75H5c-.05 0-.09.02-.14.03A1.992 1.992 0 0 0 3 5c-1.1 0-2 .9-2 2s.9 2 2 2c.85 0 1.57-.53 1.86-1.28.05.01.09.03.14.03h2.57c-2.05 1.52-3.32 4.04-3.32 6.75 0 .17.01.33.03.5H4c-.83 0-1.5.67-1.5 1.5v2c0 .83.67 1.5 1.5 1.5h2c.22 0 .42-.05.61-.14.52-.22.89-.75.89-1.36v-2c0-.83-.67-1.5-1.5-1.5h-.23c0-.03.01-.06.01-.09-.02-.14-.02-.27-.02-.41 0-2.47 1.27-4.73 3.26-5.9.04.77.69 1.4 1.48 1.4h3c.79 0 1.44-.63 1.49-1.4 1.99 1.17 3.26 3.44 3.26 5.9 0 .14-.01.27-.02.41 0 .03.01.06.01.09H18c-.83 0-1.5.67-1.5 1.5v2c0 .61.37 1.14.89 1.36.19.09.39.14.61.14h2c.83 0 1.5-.67 1.5-1.5v-2c0-.83-.67-1.5-1.5-1.5h-.28c.02-.17.03-.33.03-.5 0-2.71-1.27-5.23-3.32-6.75H19c.05 0 .09-.02.14-.03Z" fill="#292D32"/></svg>