<svg width="24" height="24" fill="none" xmlns="http://www.w3.org/2000/svg"><path d="m13.47 7.412 2.46-1.21c.3-.15.38-.54.15-.78-.89-.98-1.79-1.8-2.51-2.42a.495.495 0 0 0-.82.38v3.58c0 .37.39.61.72.45ZM12.75 19.738v1.65c0 .3.27.55.57.5a8.124 8.124 0 0 0 6.09-4.74c.19-.42-.27-.84-.69-.64l-5.69 2.79c-.17.08-.28.25-.28.44ZM11.25 3.362a.5.5 0 0 0-.82-.39c-2.36 1.98-6.55 6.15-6.53 10.93 0 4.02 2.94 7.35 6.78 7.99.3.05.57-.2.57-.5V3.362ZM13.44 12.471l5.29-2.22c.27-.12.4-.43.27-.69-.37-.73-.8-1.44-1.27-2.1-.14-.2-.4-.26-.62-.16l-4.09 1.99a.5.5 0 0 0-.28.45v2.27c.01.35.37.6.7.46ZM19.83 14.31c.16-.08.26-.23.26-.4 0-.64-.08-1.27-.22-1.89-.07-.3-.4-.46-.68-.34l-6.14 2.62c-.18.08-.3.26-.3.46v2.2c0 .37.39.61.72.45l5.9-2.87.46-.23Z" fill="#292D32"/></svg>