<svg width="24" height="24" fill="none" xmlns="http://www.w3.org/2000/svg"><path d="M16.19 2H7.81C4.17 2 2 4.17 2 7.81v8.37C2 19.83 4.17 22 7.81 22h8.37c3.64 0 5.81-2.17 5.81-5.81V7.81C22 4.17 19.83 2 16.19 2Zm-5.7 14.72c-.34.34-.79.57-1.34.64l-1.35.15c-.74.08-1.37-.55-1.29-1.3l.15-1.36c.13-1.21 1.14-1.98 2.21-2 .1-.01.22 0 .33.01.47.06.92.28 1.3.65.37.37.58.81.64 1.26.01.11.02.22.02.32 0 .62-.23 1.19-.67 1.63Zm6.95-9.17c-.72 1.8-2.37 4.16-3.94 5.7a3.3 3.3 0 0 0-2.8-2.74c1.54-1.58 3.92-3.25 5.73-3.98.32-.12.64-.03.84.17.2.22.3.53.17.85Z" fill="#292D32"/></svg>