<svg width="24" height="24" fill="none" xmlns="http://www.w3.org/2000/svg"><path d="M17.04 10.64 9.69 3.29l-.87-.87a.754.754 0 0 0-1.06 0c-.29.29-.29.77 0 1.06l.87.87L3 9.98c-.64.64-.98 1.29-1 1.94-.02.69.32 1.38 1 2.07L7.01 18c1.34 1.33 2.68 1.33 4.01 0l6.02-6.02c.2-.2.29-.47.27-.73a.949.949 0 0 0-.27-.61ZM16 22.75H3c-.41 0-.75-.34-.75-.75s.34-.75.75-.75h13c.41 0 .75.34.75.75s-.34.75-.75.75ZM19.35 14.78a.7.7 0 0 0-1 0c-.31.34-1.85 2.07-1.85 3.39 0 1.3 1.05 2.35 2.35 2.35s2.35-1.05 2.35-2.35c0-1.31-1.54-3.05-1.85-3.39Z" fill="#292D32"/></svg>