<svg width="24" height="24" fill="none" xmlns="http://www.w3.org/2000/svg"><path d="M14 16c0 1.77-.77 3.37-2 4.46A5.93 5.93 0 0 1 8 22c-3.31 0-6-2.69-6-6a5.991 5.991 0 0 1 2.555-4.904c.249-.174.584-.055.718.217a7.494 7.494 0 0 0 4.747 3.916c.63.18 1.29.27 1.98.27.487 0 .954-.046 1.407-.131.289-.054.576.13.588.424.004.07.005.139.005.207Z" fill="#292D32"/><path d="M18 8a5.993 5.993 0 0 1-4.42 5.79c-.5.14-1.03.21-1.58.21s-1.08-.07-1.58-.21A5.993 5.993 0 0 1 6 8c0-3.31 2.69-6 6-6s6 2.69 6 6ZM22 16a6.005 6.005 0 0 1-8.119 5.613c-.319-.121-.378-.529-.156-.788A7.406 7.406 0 0 0 15.5 16c0-.34-.03-.68-.08-1a.444.444 0 0 1 .228-.456 7.448 7.448 0 0 0 3.079-3.229c.134-.272.47-.392.718-.217A5.992 5.992 0 0 1 22 15.999Z" fill="#292D32"/></svg>