<svg width="24" height="24" fill="none" xmlns="http://www.w3.org/2000/svg"><path d="M7.5 12c0-.663.149-1.292.411-1.862.204-.442.169-.978-.175-1.322L5.16 6.24c-.41-.41-1.086-.388-1.417.088A9.904 9.904 0 0 0 1.971 12c0 2.104.65 4.058 1.762 5.67.33.477 1.008.5 1.419.09l2.583-2.576c.344-.344.38-.881.176-1.323-.263-.57-.41-1.199-.41-1.861ZM12 7.5c.664 0 1.294.148 1.864.41.441.204.978.17 1.321-.174l2.55-2.55c.409-.409.388-1.083-.086-1.415A9.883 9.883 0 0 0 11.97 2c-2.104 0-4.051.65-5.66 1.762-.478.33-.501 1.008-.09 1.42l2.56 2.567c.346.346.888.38 1.332.172A4.437 4.437 0 0 1 12 7.5ZM19.89 5.904a.48.48 0 0 0-.72-.036l-3.219 3.21a.54.54 0 0 0-.07.656 4.456 4.456 0 0 1 0 4.529.54.54 0 0 0 .07.655l3.219 3.22a.48.48 0 0 0 .72-.036 9.944 9.944 0 0 0 2.08-6.104 9.913 9.913 0 0 0-2.08-6.094ZM12 16.498a4.455 4.455 0 0 1-2.265-.619.54.54 0 0 0-.656.07l-3.25 3.249a.48.48 0 0 0 .037.72 9.944 9.944 0 0 0 6.103 2.08 9.872 9.872 0 0 0 6.108-2.089.48.48 0 0 0 .034-.719l-3.225-3.224a.54.54 0 0 0-.65-.071 4.459 4.459 0 0 1-2.237.603Z" fill="#292D32"/></svg>