<svg width="24" height="24" fill="none" xmlns="http://www.w3.org/2000/svg"><path d="m16.24 9.52 4.71 4.71c.28.28.77.13.85-.26.13-.64.2-1.3.2-1.97 0-2.29-.78-4.4-2.07-6.08-.18-.24-.54-.25-.75-.04l-2.94 2.94c-.19.19-.19.51 0 .7ZM14.48 10.58l-1.77 1.77c-.2.2-.2.51 0 .71l5.82 5.82c.2.2.52.2.71 0 .62-.65 1.15-1.38 1.58-2.17.1-.19.06-.44-.09-.59l-5.54-5.54a.513.513 0 0 0-.71 0ZM10.94 14.12l-1.76 1.76c-.2.2-.2.51 0 .71l4.92 4.93a.5.5 0 0 0 .49.13c.93-.25 1.81-.63 2.61-1.13.27-.17.31-.55.08-.78l-5.63-5.63a.523.523 0 0 0-.71.01ZM18.08 4.07a9.942 9.942 0 0 0-7.31-2c-4.51.54-8.16 4.2-8.7 8.7-.33 2.76.47 5.32 2 7.31.18.24.54.25.75.04l13.3-13.3c.21-.21.2-.57-.04-.75ZM7.4 17.67l-1.52 1.52c-.21.21-.2.57.04.75a9.872 9.872 0 0 0 5.39 2.05c.43.03.64-.48.33-.79l-3.53-3.53c-.19-.2-.51-.2-.71 0Z" fill="#292D32"/></svg>