<svg width="24" height="24" fill="none" xmlns="http://www.w3.org/2000/svg"><path d="M14.15 22H9.83c-1.54 0-2.68-1.25-2.38-2.58l.52-2.32c.1-.46.51-.78.98-.78h6.09c.47 0 .87.32.98.78l.52 2.31c.32 1.43-.75 2.59-2.39 2.59ZM18.82 13.69l-1.07.94c-.37.32-.84.5-1.32.5H7.59c-.49 0-.97-.18-1.33-.51l-1.05-.94c-1.72-1.41-1.73-2.49-.41-4.15l5.23-6.61a2.95 2.95 0 0 1 .112-.142c.441-.52 1.128-.073 1.128.61V6.86c-.01.43.33.77.75.76.42.01.75-.33.76-.76V3.387c0-.682.676-1.12 1.129-.609.037.043.074.087.11.132l5.21 6.62c1.3 1.66 1.25 2.69-.41 4.16Z" fill="#292D32"/></svg>