<svg width="24" height="24" fill="none" xmlns="http://www.w3.org/2000/svg"><path d="M15 22.748a.752.752 0 0 1-.64-1.14l1.05-1.75a.751.751 0 1 1 1.29.77l-.27.45c2.76-.65 4.83-3.13 4.83-6.09 0-.41.34-.75.75-.75s.75.34.75.75c-.01 4.28-3.49 7.76-7.76 7.76ZM2 9.75c-.41 0-.75-.34-.75-.75 0-4.27 3.48-7.75 7.75-7.75a.752.752 0 0 1 .64 1.14L8.59 4.14c-.21.35-.67.47-1.03.25a.746.746 0 0 1-.25-1.03l.27-.45A6.261 6.261 0 0 0 2.75 9c0 .41-.34.75-.75.75ZM14.8 12.63v2.94c0 2.45-.98 3.43-3.43 3.43H8.43C5.98 19 5 18.02 5 15.57v-2.94c0-2.45.98-3.43 3.43-3.43h2.94c2.45 0 3.43.98 3.43 3.43Z" fill="#292D32"/><path d="M15.57 5h-2.94c-2.41 0-3.39.96-3.42 3.32h2.16c2.94 0 4.3 1.37 4.3 4.3v2.16c2.37-.03 3.32-1.01 3.32-3.42V8.43C19 5.98 18.02 5 15.57 5Z" fill="#292D32"/></svg>