<svg width="24" height="24" fill="none" xmlns="http://www.w3.org/2000/svg"><path d="M18.47 2h-4c-1.492 0-2.726 1.286-2.96 2.752-.043.273.185.498.46.498h4.5c.41 0 .75.34.75.75s-.34.75-.75.75h-4.5a.5.5 0 0 0-.5.5v1.5a.5.5 0 0 0 .5.5h2.31c.41 0 .75.34.75.75s-.34.75-.75.75h-2.31a.5.5 0 0 0-.5.5v1.455a.5.5 0 0 0 .496.5l4.505.045c.42 0 .75.34.75.76-.01.41-.34.74-.75.74h-.01l-4.485-.045a.5.5 0 0 0-.505.5v1.545a.5.5 0 0 0 .5.5h3.4a.749.749 0 1 1 0 1.5h-3.4c-.276 0-.504.225-.46.498.233 1.466 1.467 2.752 2.96 2.752h4c1.65 0 3-1.34 3-3V5c0-1.66-1.35-3-3-3ZM8.44 4.95v.8a.5.5 0 0 1-.5.5H3.03a.5.5 0 0 1-.5-.5v-.8C2.53 3.33 3.86 2 5.49 2c1.62 0 2.95 1.33 2.95 2.95ZM2.53 17.91c0 .45.19 1.14.43 1.52l.81 1.36c.95 1.58 2.49 1.58 3.43 0l.82-1.36c.23-.38.42-1.07.42-1.52V8.25a.5.5 0 0 0-.5-.5H3.03a.5.5 0 0 0-.5.5v9.66Z" fill="#292D32"/></svg>