<svg width="24" height="24" fill="none" xmlns="http://www.w3.org/2000/svg"><path d="M15.26 21.998c-.06 0-.13-.01-.19-.03-2.01-.57-4.12-.57-6.13 0-.37.1-.76-.11-.86-.48a.69.69 0 0 1 .48-.86c2.26-.64 4.64-.64 6.9 0 .37.11.59.49.48.86-.1.31-.38.51-.68.51ZM4.18 19.082c-.19 0-.38-.07-.53-.22a.754.754 0 0 1 0-1.06L19.5 1.952c.29-.29.77-.29 1.06 0 .29.29.29.77 0 1.06L4.71 18.862c-.15.15-.34.22-.53.22Z" fill="#292D32"/><path opacity=".4" d="M16.63 3.42 5.49 14.56c-.96-1.36-1.52-2.96-1.52-4.51 0-2.45 1.09-4.74 3-6.28s4.41-2.11 6.86-1.57c1.01.22 1.96.64 2.8 1.22ZM16.17 16.919v.7c.01.26.03.76-.36 1.16-.28.28-.69.43-1.23.43H9.45c-.41 0-.93-.05-1.28-.4-.33-.35-.32-.78-.31-1.06v-.83c-.45-.3-.87-.64-1.25-1.02l11.34-11.34c.5.53.93 1.14 1.26 1.8 2.02 4.06.07 8.47-3.04 10.56Z" fill="#292D32"/></svg>