<svg width="24" height="24" fill="none" xmlns="http://www.w3.org/2000/svg"><path d="M19 8a3 3 0 1 0 0-6 3 3 0 0 0 0 6Z" fill="#292D32"/><path opacity=".4" d="M19 9.5c-2.48 0-4.5-2.02-4.5-4.5 0-.72.19-1.39.49-2H7.52C4.07 3 2 5.06 2 8.52v7.95C2 19.94 4.07 22 7.52 22h7.95c3.46 0 5.52-2.06 5.52-5.52V9.01c-.6.3-1.27.49-1.99.49Z" fill="#292D32"/><path d="M11.75 14h-5c-.41 0-.75-.34-.75-.75s.34-.75.75-.75h5c.41 0 .75.34.75.75s-.34.75-.75.75ZM15.75 18h-9c-.41 0-.75-.34-.75-.75s.34-.75.75-.75h9c.41 0 .75.34.75.75s-.34.75-.75.75Z" fill="#292D32"/></svg>