<svg width="24" height="24" fill="none" xmlns="http://www.w3.org/2000/svg"><path d="M21.3 12.23h-3.48c-.98 0-1.85.54-2.29 1.42l-.84 1.66c-.2.4-.6.65-1.04.65h-3.28c-.31 0-.75-.07-1.04-.65l-.84-1.65a2.567 2.567 0 0 0-2.29-1.42H2.7c-.39 0-.7.31-.7.7v3.26C2 19.83 4.18 22 7.82 22h8.38c3.43 0 5.54-1.88 5.8-5.22v-3.85c0-.38-.31-.7-.7-.7Z" fill="#292D32"/><path d="M22 7.81v3.04a2.06 2.06 0 0 0-.7-.12h-3.48c-1.55 0-2.94.86-3.63 2.24l-.75 1.48h-2.86l-.75-1.47a4.026 4.026 0 0 0-3.63-2.25H2.7c-.24 0-.48.04-.7.12V7.81C2 4.17 4.17 2 7.81 2h8.38C19.83 2 22 4.17 22 7.81Z" fill="#292D32"/></svg>