<svg width="24" height="24" fill="none" xmlns="http://www.w3.org/2000/svg"><path d="M21.3 12.23h-3.48c-.98 0-1.85.54-2.29 1.42l-.84 1.66c-.2.4-.6.65-1.04.65h-3.28c-.31 0-.75-.07-1.04-.65l-.84-1.65a2.567 2.567 0 0 0-2.29-1.42H2.7c-.39 0-.7.31-.7.7v3.26C2 19.83 4.18 22 7.82 22h8.38c3.43 0 5.54-1.88 5.8-5.22v-3.85c0-.38-.31-.7-.7-.7ZM12.75 2c0-.41-.34-.75-.75-.75s-.75.34-.75.75v2h1.5V2Z" fill="#292D32"/><path d="M22 9.81v1.04a2.06 2.06 0 0 0-.7-.12h-3.48c-1.55 0-2.94.86-3.63 2.24l-.75 1.48h-2.86l-.75-1.47a4.026 4.026 0 0 0-3.63-2.25H2.7c-.24 0-.48.04-.7.12V9.81C2 6.17 4.17 4 7.81 4h3.44v3.19l-.72-.72a.754.754 0 0 0-1.06 0c-.29.29-.29.77 0 1.06l2 2c.01.01.02.01.02.02a.753.753 0 0 0 .51.2c.1 0 .19-.02.28-.06.09-.03.18-.09.25-.16l2-2c.29-.29.29-.77 0-1.06a.754.754 0 0 0-1.06 0l-.72.72V4h3.44C19.83 4 22 6.17 22 9.81Z" fill="#292D32"/></svg>