<svg width="24" height="24" fill="none" xmlns="http://www.w3.org/2000/svg"><path d="M20.97 1h-2.94C16.76 1 16 1.76 16 3.03v2.94C16 7.24 16.76 8 18.03 8h2.94C22.24 8 23 7.24 23 5.97V3.03C23 1.76 22.24 1 20.97 1Zm.64 3.68c-.37 1.18-1.66 1.82-2.11 1.82-.45 0-1.73-.62-2.11-1.82-.06-.18-.09-.38-.09-.57 0-.65.33-1.32 1.02-1.54.41-.13.85-.06 1.16.2.32-.25.76-.33 1.18-.2.92.29 1.21 1.32.95 2.11Z" fill="#292D32"/><path d="M18.03 9.5a3.53 3.53 0 0 1-3.53-3.53V3c0-.55-.45-1-1-1H7C4.24 2 2 4.23 2 6.98v6.97c0 2.76 2.24 5 5 5h1.5c.28 0 .64.18.8.4l1.5 1.99c.66.88 1.74.88 2.4 0l1.5-1.99c.19-.25.49-.4.8-.4h1.51c2.76 0 4.99-2.23 4.99-4.99V10.5c0-.55-.45-1-1-1h-2.97ZM8 12c-.56 0-1-.45-1-1s.44-1 1-1c.55 0 1 .45 1 1s-.44 1-1 1Zm4 0c-.56 0-1-.45-1-1s.44-1 1-1c.55 0 1 .45 1 1s-.44 1-1 1Z" fill="#292D32"/></svg>