<svg width="24" height="24" fill="none" xmlns="http://www.w3.org/2000/svg"><path d="M17 3H7C4 3 2 4.5 2 8v7.96c0 2.29 1.85 4.14 4.14 4.14h6.26c.58 0 1.08-.49 1.02-1.07-.14-1.53.36-3.18 1.72-4.51.56-.55 1.25-.97 2-1.21 1.25-.4 2.46-.35 3.53.02a1 1 0 0 0 1.33-.94V8c0-3.5-2-5-5-5Zm.47 5.59-3.13 2.5c-.66.53-1.5.79-2.34.79-.84 0-1.69-.26-2.34-.79l-3.13-2.5a.768.768 0 0 1-.12-1.06c.26-.32.73-.38 1.05-.12l3.13 2.5c.76.61 2.05.61 2.81 0l3.13-2.5c.32-.26.8-.21 1.05.12.26.33.21.8-.11 1.06Z" fill="#292D32"/><path d="m22.65 21.449-.75-.75a3.756 3.756 0 0 0-3.14-5.82c-2.08 0-3.76 1.68-3.76 3.75 0 2.07 1.68 3.76 3.76 3.76.76 0 1.47-.23 2.06-.62l.75.75c.15.15.34.22.54.22s.39-.07.54-.22c.3-.29.3-.77 0-1.07Z" fill="#292D32"/></svg>