<svg width="24" height="24" fill="none" xmlns="http://www.w3.org/2000/svg"><path d="M6 13c-2.76 0-5 2.23-5 5s2.24 5 5 5 5-2.24 5-5-2.23-5-5-5Zm-2.04 2.96H6a.68.68 0 0 1 0 1.36H3.96a.68.68 0 0 1 0-1.36Zm4.08 4.08H3.96a.68.68 0 0 1-.68-.68c0-.37.31-.68.68-.68h4.09c.38 0 .68.31.68.68 0 .37-.31.68-.69.68Z" fill="#292D32"/><path d="M17 3H7C4 3 2 4.5 2 8v3.14c0 .73.75 1.19 1.42.9a6.51 6.51 0 0 1 3.66-.45c2.62.43 4.76 2.5 5.29 5.1.15.76.17 1.5.07 2.21-.08.59.4 1.11.99 1.11H17c3 0 5-1.5 5-5V8c0-3.5-2-5-5-5Zm.47 5.59-3.13 2.5c-.66.53-1.5.79-2.34.79-.84 0-1.69-.26-2.34-.79l-3.13-2.5a.77.77 0 0 1-.12-1.06c.26-.32.73-.38 1.05-.12l3.13 2.5c.76.61 2.05.61 2.81 0l3.13-2.5c.32-.26.8-.21 1.05.12.26.32.21.8-.11 1.06Z" fill="#292D32"/></svg>