<svg width="24" height="24" fill="none" xmlns="http://www.w3.org/2000/svg"><path opacity=".4" d="M21 7v10c0 3-1.5 5-5 5H8c-3.5 0-5-2-5-5V7c0-3 1.5-5 5-5h8c3.5 0 5 2 5 5Z" fill="#292D32"/><path d="M15.5 2v7.86c0 .44-.52.66-.84.37l-2.32-2.14a.496.496 0 0 0-.68 0l-2.32 2.14a.5.5 0 0 1-.84-.37V2h7ZM17.5 14.75h-4.25c-.41 0-.75-.34-.75-.75s.34-.75.75-.75h4.25c.41 0 .75.34.75.75s-.34.75-.75.75ZM17.5 18.75H9c-.41 0-.75-.34-.75-.75s.34-.75.75-.75h8.5c.41 0 .75.34.75.75s-.34.75-.75.75Z" fill="#292D32"/></svg>