<svg width="24" height="24" fill="none" xmlns="http://www.w3.org/2000/svg"><path opacity=".4" d="M16.24 3.648H7.76c-2.47 0-4.47 2.01-4.47 4.47v9.41c0 2.46 2.01 4.47 4.47 4.47h8.47c2.47 0 4.47-2.01 4.47-4.47v-9.41c.01-2.47-2-4.47-4.46-4.47Z" fill="#292D32"/><path d="M14.35 2h-4.7c-1.04 0-1.89.84-1.89 1.88v.94c0 1.04.84 1.88 1.88 1.88h4.71c1.04 0 1.88-.84 1.88-1.88v-.94C16.24 2.84 15.39 2 14.35 2ZM15.53 16.47l-4.72-4.72H12c.41 0 .75-.34.75-.75s-.34-.75-.75-.75H9c-.41 0-.75.34-.75.75v3c0 .41.34.75.75.75s.75-.34.75-.75v-1.19l4.72 4.72c.15.15.34.22.53.22s.38-.07.53-.22c.29-.29.29-.77 0-1.06Z" fill="#292D32"/></svg>