<svg width="24" height="24" fill="none" xmlns="http://www.w3.org/2000/svg"><path opacity=".4" d="M21 7v10c0 3-1.5 5-5 5H8c-3.5 0-5-2-5-5V7c0-3 1.5-5 5-5h8c3.5 0 5 2 5 5Z" fill="#292D32"/><path d="M18.5 9.25h-2c-1.52 0-2.75-1.23-2.75-2.75v-2c0-.41.34-.75.75-.75s.75.34.75.75v2c0 .69.56 1.25 1.25 1.25h2c.41 0 .75.34.75.75s-.34.75-.75.75ZM7.48 15.491c-.33-1.03.06-2.3 1.13-2.65.57-.18 1.27-.03 1.66.52.37-.57 1.1-.7 1.66-.52 1.08.35 1.46 1.62 1.14 2.65-.51 1.63-2.3 2.48-2.8 2.48-.49-.01-2.26-.84-2.79-2.48Z" fill="#292D32"/></svg>