<svg width="24" height="24" fill="none" xmlns="http://www.w3.org/2000/svg"><path opacity=".4" d="M20.5 10.19h-2.89c-2.37 0-4.3-1.93-4.3-4.3V3c0-.55-.45-1-1-1H8.07C4.99 2 2.5 4 2.5 7.57v8.86C2.5 20 4.99 22 8.07 22h7.86c3.08 0 5.57-2 5.57-5.57v-5.24c0-.55-.45-1-1-1Z" fill="#292D32"/><path d="M15.8 2.21c-.41-.41-1.12-.13-1.12.44v3.49c0 1.46 1.24 2.67 2.75 2.67.95.01 2.27.01 3.4.01.57 0 .87-.67.47-1.07-1.44-1.45-4.02-4.06-5.5-5.54ZM12.55 14l-.85-1.28c-.21-.33-.65-.56-1.04-.56H8.64c-.39 0-.82.23-1.04.56L6.75 14c-.33.48-.26 1.17.15 1.58l1.86 1.86c.24.23.56.36.89.36.33 0 .65-.13.89-.36l1.86-1.86c.4-.41.46-1.1.15-1.58Z" fill="#292D32"/></svg>