<svg width="24" height="24" fill="none" xmlns="http://www.w3.org/2000/svg"><path opacity=".4" d="M20.5 10.19h-2.89c-2.37 0-4.3-1.93-4.3-4.3V3c0-.55-.45-1-1-1H8.07C4.99 2 2.5 4 2.5 7.57v8.86C2.5 20 4.99 22 8.07 22h7.86c3.08 0 5.57-2 5.57-5.57v-5.24c0-.55-.45-1-1-1Z" fill="#292D32"/><path d="M15.8 2.21c-.41-.41-1.12-.13-1.12.44v3.49c0 1.46 1.24 2.67 2.75 2.67.95.01 2.27.01 3.4.01.57 0 .87-.67.47-1.07-1.44-1.45-4.02-4.06-5.5-5.54ZM13 14.251H8.81l.72-.72c.29-.29.29-.77 0-1.06a.754.754 0 0 0-1.06 0l-2 2c-.01.01-.01.02-.02.02-.06.06-.11.14-.15.22 0 .01 0 .01-.01.02-.03.08-.04.16-.05.24v.08c0 .06.02.12.04.18.01.03.02.05.03.07.04.08.08.16.15.22l2 2c.15.15.34.22.53.22s.38-.07.53-.22c.29-.29.29-.77 0-1.06l-.72-.72H13c.41 0 .75-.34.75-.75s-.34-.74-.75-.74Z" fill="#292D32"/></svg>