<svg width="24" height="24" fill="none" xmlns="http://www.w3.org/2000/svg"><path d="M3.23 1h8.13c.68 0 1.23.56 1.23 1.25v1.37c0 .5-.31 1.12-.62 1.43L9.32 7.42c-.37.31-.62.94-.62 1.43v2.68c0 .37-.25.87-.55 1.06l-.86.56c-.8.5-1.91-.06-1.91-1.06V8.78c0-.44-.25-1-.49-1.31l-2.34-2.5C2.24 4.66 2 4.1 2 3.72V2.29C2 1.56 2.55 1 3.23 1Z" fill="#292D32"/><path opacity=".4" d="M17 2h-2.4c-.28 0-.5.22-.5.5v1.12c0 .99-.53 1.96-1.05 2.49l-2.72 2.43c-.03.07-.08.17-.11.25v2.75c0 .91-.54 1.9-1.28 2.35l-.82.53c-.46.29-.97.43-1.48.43-.46 0-.92-.12-1.34-.35-.65-.36-1.1-.95-1.3-1.63v-2.66a.47.47 0 0 0-.15-.35l-1-1c-.32-.31-.85-.09-.85.35V17c0 2.76 2.24 5 5 5h10c2.76 0 5-2.24 5-5V7c0-2.76-2.24-5-5-5Z" fill="#292D32"/><path d="M18 13.75h-5c-.41 0-.75-.34-.75-.75s.34-.75.75-.75h5c.41 0 .75.34.75.75s-.34.75-.75.75ZM18 17.75h-7c-.41 0-.75-.34-.75-.75s.34-.75.75-.75h7c.41 0 .75.34.75.75s-.34.75-.75.75Z" fill="#292D32"/></svg>