<svg width="24" height="24" fill="none" xmlns="http://www.w3.org/2000/svg"><path opacity=".4" d="M20.5 10.19h-2.89c-2.37 0-4.3-1.93-4.3-4.3V3c0-.55-.45-1-1-1H8.07C4.99 2 2.5 4 2.5 7.57v8.86C2.5 20 4.99 22 8.07 22h7.86c3.08 0 5.57-2 5.57-5.57v-5.24c0-.55-.45-1-1-1Z" fill="#292D32"/><path d="M15.8 2.21c-.41-.41-1.12-.13-1.12.44v3.49c0 1.46 1.24 2.67 2.75 2.67.95.01 2.27.01 3.4.01.57 0 .87-.67.47-1.07-1.44-1.45-4.02-4.06-5.5-5.54ZM11.53 12.47l-2-2c-.01-.01-.02-.01-.02-.02a.855.855 0 0 0-.22-.15h-.02c-.08-.03-.16-.04-.24-.05h-.08c-.06 0-.13.02-.19.04-.03.01-.05.02-.07.03-.08.04-.16.08-.22.15l-2 2c-.29.29-.29.77 0 1.06.29.29.77.29 1.06 0l.72-.72V17c0 .41.34.75.75.75s.75-.34.75-.75v-4.19l.72.72c.15.15.34.22.53.22s.38-.07.53-.22c.29-.29.29-.77 0-1.06Z" fill="#292D32"/></svg>