<svg width="24" height="24" fill="none" xmlns="http://www.w3.org/2000/svg"><path d="M7 5.75c-.41 0-.75-.34-.75-.75V2c0-.41.34-.75.75-.75s.75.34.75.75v3c0 .41-.34.75-.75.75ZM15 5.75c-.41 0-.75-.34-.75-.75V2c0-.41.34-.75.75-.75s.75.34.75.75v3c0 .41-.34.75-.75.75Z" fill="#292D32"/><path opacity=".4" d="M20 8.5V17c0 3-1.5 5-5 5H7c-3.5 0-5-2-5-5V8.5c0-3 1.5-5 5-5h8c3.5 0 5 2 5 5Z" fill="#292D32"/><path d="M13 11.75H7c-.41 0-.75-.34-.75-.75s.34-.75.75-.75h6c.41 0 .75.34.75.75s-.34.75-.75.75ZM10 16.75H7c-.41 0-.75-.34-.75-.75s.34-.75.75-.75h3c.41 0 .75.34.75.75s-.34.75-.75.75ZM21 13.63a5.19 5.19 0 0 0-3.25-1.13c-1.23 0-2.38.43-3.28 1.16a5.188 5.188 0 0 0-1.97 4.09c0 .98.28 1.92.76 2.7.37.61.85 1.14 1.42 1.55.86.63 1.92 1 3.07 1 1.33 0 2.53-.49 3.45-1.31.41-.34.76-.76 1.04-1.24.48-.78.76-1.72.76-2.7 0-1.67-.78-3.16-2-4.12Zm-3.25 6.62a2.5 2.5 0 0 0-2.5-2.5 2.5 2.5 0 0 0 2.5-2.5 2.5 2.5 0 0 0 2.5 2.5 2.5 2.5 0 0 0-2.5 2.5Z" fill="#292D32"/></svg>