<svg width="24" height="24" fill="none" xmlns="http://www.w3.org/2000/svg"><path opacity=".4" d="M20 8.25V18c0 3-1.79 4-4 4H8c-2.21 0-4-1-4-4V8.25c0-3.25 1.79-4 4-4 0 .62.25 1.18.66 1.59.41.41.97.66 1.59.66h3.5C14.99 6.5 16 5.49 16 4.25c2.21 0 4 .75 4 4Z" fill="#292D32"/><path d="M16 4.25c0 1.24-1.01 2.25-2.25 2.25h-3.5c-.62 0-1.18-.25-1.59-.66C8.25 5.43 8 4.87 8 4.25 8 3.01 9.01 2 10.25 2h3.5c.62 0 1.18.25 1.59.66.41.41.66.97.66 1.59ZM12 13.75H8c-.41 0-.75-.34-.75-.75s.34-.75.75-.75h4c.41 0 .75.34.75.75s-.34.75-.75.75ZM16 17.75H8c-.41 0-.75-.34-.75-.75s.34-.75.75-.75h8c.41 0 .75.34.75.75s-.34.75-.75.75Z" fill="#292D32"/></svg>