<svg width="24" height="24" fill="none" xmlns="http://www.w3.org/2000/svg"><path d="M5.97 1H3.03C1.76 1 1 1.76 1 3.03v2.94C1 7.24 1.76 8 3.03 8h2.94C7.24 8 8 7.24 8 5.97V3.03C8 1.76 7.24 1 5.97 1Zm.5 4.56c.25.25.25.66 0 .91a.661.661 0 0 1-.91 0L4.49 5.41 3.45 6.47a.674.674 0 0 1-.92 0 .646.646 0 0 1 0-.91L3.6 4.5 2.54 3.45a.646.646 0 0 1 0-.91c.25-.25.66-.25.91 0L4.49 3.6l1.06-1.06c.25-.25.66-.25.91 0s.25.66 0 .91L5.41 4.5l1.06 1.06Z" fill="#292D32"/><path opacity=".4" d="M16.63 2H7.78c.14.29.22.63.22 1.03v2.94C8 7.24 7.24 8 5.97 8H3.03c-.19 0-.36-.02-.53-.06v9.19A4.87 4.87 0 0 0 7.37 22h7.97c.17 0 .34-.06.47-.2l5.51-5.55a.59.59 0 0 0 .18-.43V6.87A4.87 4.87 0 0 0 16.63 2Z" fill="#292D32"/><path d="M21.5 15.82c0 .15-.05.3-.18.43l-5.51 5.55c-.13.14-.3.2-.47.2-.33 0-.65-.26-.65-.64v-3.5c0-1.46 1.24-2.67 2.76-2.67.95-.01 2.27-.01 3.4-.01.39 0 .65.31.65.64ZM14.78 12.71H7.36a.749.749 0 1 1 0-1.5h7.42a.749.749 0 1 1 0 1.5ZM12 16.422H7.36a.749.749 0 1 1 0-1.5H12a.749.749 0 1 1 0 1.5Z" fill="#292D32"/></svg>