<svg width="24" height="24" fill="none" xmlns="http://www.w3.org/2000/svg"><path d="M8 5.75c-.41 0-.75-.34-.75-.75V2c0-.41.34-.75.75-.75s.75.34.75.75v3c0 .41-.34.75-.75.75ZM16 5.75c-.41 0-.75-.34-.75-.75V2c0-.41.34-.75.75-.75s.75.34.75.75v3c0 .41-.34.75-.75.75Z" fill="#292D32"/><path opacity=".4" d="M21 8.5V17c0 3-1.5 5-5 5H8c-3.5 0-5-2-5-5V8.5c0-3 1.5-5 5-5h8c3.5 0 5 2 5 5Z" fill="#292D32"/><path d="M16 11.75H8c-.41 0-.75-.34-.75-.75s.34-.75.75-.75h8c.41 0 .75.34.75.75s-.34.75-.75.75ZM12 16.75H8c-.41 0-.75-.34-.75-.75s.34-.75.75-.75h4c.41 0 .75.34.75.75s-.34.75-.75.75Z" fill="#292D32"/></svg>