<svg width="24" height="24" fill="none" xmlns="http://www.w3.org/2000/svg"><path opacity=".4" d="M12 22c5.523 0 10-4.477 10-10S17.523 2 12 2 2 6.477 2 12s4.477 10 10 10Z" fill="#292D32"/><path fill-rule="evenodd" clip-rule="evenodd" d="M12.119 6.002c.58-.277 1.148.016 1.491.302l2.058 1.718.002.002a1.32 1.32 0 0 1 .044 2.022l-2.137 1.96 2.137 1.959a1.32 1.32 0 0 1-.044 2.022l-.002.001-2.057 1.718-.002.001c-.343.285-.905.57-1.48.3-.578-.27-.72-.886-.72-1.337v-2.678l-2.312 2.121a.75.75 0 0 1-1.014-1.106l3.274-3.002-3.274-3.002a.75.75 0 1 1 1.014-1.106l2.313 2.121V7.34c0-.443.134-1.063.709-1.338Zm.79 7.427 1.66 1.522-1.66 1.386v-2.908Zm0-2.848V7.675l1.66 1.385-1.66 1.523Z" fill="#292D32"/></svg>