<svg width="24" height="24" fill="none" xmlns="http://www.w3.org/2000/svg"><path opacity=".4" d="M15 4H9C6.24 4 4 6.24 4 9v6c0 2.76 2.24 5 5 5h6c2.76 0 5-2.24 5-5V9c0-2.76-2.24-5-5-5Zm2.26 10.26c0 1.66-1.34 3-3 3H9.74c-1.66 0-3-1.34-3-3V9.74c0-1.66 1.34-3 3-3h4.51c1.66 0 3 1.34 3 3v4.52h.01Z" fill="#292D32"/><path d="M9.06 2.75V4H9c-.5 0-.98.07-1.44.21V2.75a.749.749 0 1 1 1.5 0ZM12.75 2.75V4h-1.5V2.75c0-.41.34-.75.75-.75s.75.34.75.75ZM16.45 2.75v1.46C15.99 4.07 15.5 4 15 4h-.05V2.75c0-.41.34-.75.75-.75s.75.34.75.75ZM22 8.3c0 .42-.33.75-.75.75H20V9c0-.5-.07-.99-.21-1.45h1.46c.42 0 .75.34.75.75ZM22 12c0 .41-.33.75-.75.75H20v-1.5h1.25c.42 0 .75.33.75.75ZM22 15.7c0 .41-.33.75-.75.75h-1.46c.14-.46.21-.95.21-1.45v-.05h1.25c.42 0 .75.33.75.75ZM16.45 19.79v1.46c0 .41-.34.75-.75.75s-.75-.34-.75-.75V20H15c.5 0 .99-.07 1.45-.21ZM12.76 20v1.25a.749.749 0 1 1-1.5 0V20h1.5ZM9.06 20v1.25a.749.749 0 1 1-1.5 0v-1.46c.46.14.94.21 1.44.21h.06ZM4.21 7.55C4.07 8.01 4 8.5 4 9v.05H2.75a.749.749 0 1 1 0-1.5h1.46ZM4 11.25v1.5H2.75a.749.749 0 1 1 0-1.5H4ZM4.21 16.45H2.75a.749.749 0 1 1 0-1.5H4V15c0 .5.07.99.21 1.45ZM14.26 6.738H9.74c-1.66 0-3 1.34-3 3v4.51c0 1.66 1.34 3 3 3h4.51c1.66 0 3-1.34 3-3v-4.51c.01-1.65-1.34-3-2.99-3Zm-.67 6.3-.94 1.64c-.14.24-.39.38-.65.38a.754.754 0 0 1-.65-1.12l.68-1.18h-.59c-.48 0-.87-.21-1.08-.57-.21-.36-.19-.81.04-1.22l.94-1.64c.21-.36.67-.48 1.02-.28.36.21.48.67.28 1.02l-.68 1.18h.59c.48 0 .87.21 1.08.57.22.36.2.8-.04 1.22Z" fill="#292D32"/></svg>