<svg width="24" height="24" fill="none" xmlns="http://www.w3.org/2000/svg"><path opacity=".4" d="M20 9v2.92l-.78-.45c-.64-.37-1.44-.26-1.96.24-.11.1-.2.22-.28.35l-.06.11c-.11.19-.2.24-.21.25-.02-.01-.12-.06-.23-.26l-.06-.1c-.22-.38-.57-.64-.99-.75-.43-.12-.87-.06-1.24.16l-.91.53c-.41.23-.7.61-.82 1.06-.12.46-.06.93.17 1.34.11.18.11.29.11.31-.01.01-.11.07-.33.07-.97 0-1.76.79-1.76 1.75v.94c0 .96.79 1.75 1.76 1.75.22 0 .32.06.32.07.01.01.01.13-.1.31-.07.13-.13.26-.16.4H9c-2.76 0-5-2.24-5-5V9c0-2.76 2.24-5 5-5h6c2.76 0 5 2.24 5 5Z" fill="#292D32"/><path d="M17.26 9.738v1.97c-.11.1-.2.22-.28.35l-.06.11c-.11.19-.2.24-.21.25-.02-.01-.12-.06-.23-.26l-.06-.1c-.22-.38-.57-.64-.99-.75-.43-.12-.87-.06-1.24.16l-.91.53c-.41.23-.7.61-.82 1.06-.12.46-.06.93.17 1.34.11.18.11.29.11.31-.01.01-.11.07-.33.07-.97 0-1.76.79-1.76 1.75v.73h-.91c-1.65 0-3-1.35-3-3v-4.52c0-1.65 1.35-3 3-3h4.52c1.65 0 3 1.35 3 3ZM9.06 2.75V4H9c-.5 0-.98.07-1.44.21V2.75a.749.749 0 1 1 1.5 0ZM12.75 2.75V4h-1.5V2.75c0-.41.34-.75.75-.75s.75.34.75.75ZM16.45 2.75v1.46C15.99 4.07 15.5 4 15 4h-.05V2.75c0-.41.34-.75.75-.75s.75.34.75.75ZM22 8.3c0 .42-.33.75-.75.75H20V9c0-.5-.07-.99-.21-1.45h1.46c.42 0 .75.34.75.75ZM9.06 20v1.25a.749.749 0 1 1-1.5 0v-1.46c.46.14.94.21 1.44.21h.06ZM4.21 7.55C4.07 8.01 4 8.5 4 9v.05H2.75a.749.749 0 1 1 0-1.5h1.46ZM4 11.25v1.5H2.75a.749.749 0 1 1 0-1.5H4ZM4.21 16.45H2.75a.749.749 0 1 1 0-1.5H4V15c0 .5.07.99.21 1.45Z" fill="#292D32"/><path opacity=".4" d="M20.99 15.531c-.68 0-1.07-.34-1.07-.84 0-.2.06-.43.2-.67a1 1 0 0 0-.37-1.37l-.91-.53a.885.885 0 0 0-1.21.32l-.06.1c-.48.83-1.26.83-1.74 0l-.06-.1a.873.873 0 0 0-1.2-.32l-.92.53c-.32.18-.51.52-.51.87 0 .17.05.34.14.5.14.24.21.47.21.67 0 .5-.4.84-1.08.84-.55 0-1.01.45-1.01 1v.94c0 .55.46 1 1.01 1 .68 0 1.08.34 1.08.84 0 .2-.07.43-.21.67a1 1 0 0 0 .37 1.37l.92.53c.41.25.96.1 1.2-.32l.06-.1c.48-.83 1.26-.83 1.74 0l.06.1c.25.42.79.57 1.21.32l.91-.53c.32-.18.51-.52.51-.87 0-.17-.05-.34-.14-.5-.14-.24-.2-.47-.2-.67 0-.5.39-.84 1.07-.84.56 0 1.01-.45 1.01-1v-.94c0-.55-.45-1-1.01-1Zm-4.29 3.19a1.72 1.72 0 1 1 0-3.44 1.72 1.72 0 0 1 0 3.44Z" fill="#292D32"/><path d="M18.42 17.001a1.72 1.72 0 1 1-3.44 0 1.72 1.72 0 0 1 3.44 0Z" fill="#292D32"/></svg>