<svg width="24" height="24" fill="none" xmlns="http://www.w3.org/2000/svg"><path opacity=".4" d="M22 7.81v1.7c0 .77-.82 1.23-1.5.87-1.47-.79-3.24-1.1-5.1-.71-1.2.25-2.31.81-3.22 1.58a7.38 7.38 0 0 0-2.51 4.15c-.39 1.86-.08 3.63.71 5.1.36.68-.1 1.5-.87 1.5h-1.7C4.6 22 2 19.4 2 16.19V7.81C2 4.6 4.6 2 7.81 2h8.38C19.4 2 22 4.6 22 7.81Z" fill="#292D32"/><path d="M12.18 11.25c-.52.43-.98.94-1.37 1.5H2v-1.5h10.18ZM6 9c-.41 0-.75-.34-.75-.75v-2c0-.41.34-.75.75-.75s.75.34.75.75v2c0 .41-.34.75-.75.75ZM10 9c-.41 0-.75-.34-.75-.75v-2c0-.41.34-.75.75-.75s.75.34.75.75v2c0 .41-.34.75-.75.75ZM6 18.75c-.41 0-.75-.34-.75-.75v-2c0-.41.34-.75.75-.75s.75.34.75.75v2c0 .41-.34.75-.75.75ZM18 8h-4c-.41 0-.75-.34-.75-.75s.34-.75.75-.75h4c.41 0 .75.34.75.75S18.41 8 18 8ZM17 11c-3.31 0-6 2.69-6 6s2.69 6 6 6 6-2.69 6-6-2.69-6-6-6Zm2.93 7.2c-.16.39-.39.74-.69 1.04a3.139 3.139 0 0 1-4.1.31v.14a.57.57 0 1 1-1.14 0v-1.44c0-.31.25-.57.57-.57h1.44c.31 0 .57.25.57.57 0 .29-.21.51-.49.55.76.37 1.73.25 2.34-.36a2 2 0 0 0 .44-.67c.12-.29.45-.43.74-.31.3.11.44.45.32.74Zm.07-2.44c0 .31-.25.57-.57.57h-1.44a.57.57 0 0 1-.57-.57c0-.29.21-.51.49-.55-.76-.37-1.73-.25-2.35.36-.17.17-.3.36-.4.57a.565.565 0 0 1-.75.28.567.567 0 0 1-.27-.76c.16-.33.37-.63.62-.89a3.139 3.139 0 0 1 4.1-.31v-.13c0-.31.25-.57.57-.57.32 0 .57.24.57.56v1.44Z" fill="#292D32"/></svg>