<svg width="24" height="24" fill="none" xmlns="http://www.w3.org/2000/svg"><path opacity=".4" d="M21 6v7.25a1 1 0 0 1-1 1H5a1 1 0 0 1-1-1V6c0-2.21 1.79-4 4-4h9c2.21 0 4 1.79 4 4Z" fill="#292D32"/><path d="M8 12.75H7c-.41 0-.75-.34-.75-.75s.34-.75.75-.75h1c.41 0 .75.34.75.75s-.34.75-.75.75ZM8 10.25H7c-.41 0-.75-.34-.75-.75s.34-.75.75-.75h1c.41 0 .75.34.75.75s-.34.75-.75.75ZM8 7.75H7c-.41 0-.75-.34-.75-.75s.34-.75.75-.75h1c.41 0 .75.34.75.75s-.34.75-.75.75ZM5 15.75a1 1 0 0 0-1 1V18c0 2.21 1.79 4 4 4h9c2.21 0 4-1.79 4-4v-1.25a1 1 0 0 0-1-1H5Zm12.71 3.71c-.19.18-.45.29-.71.29-.26 0-.52-.11-.71-.29-.18-.19-.29-.45-.29-.71 0-.26.11-.52.29-.71.37-.37 1.04-.37 1.42 0 .18.19.29.45.29.71 0 .26-.11.52-.29.71Z" fill="#292D32"/></svg>