<svg width="24" height="24" fill="none" xmlns="http://www.w3.org/2000/svg"><path d="m14.839 10.899 5.66-3.79c.57-.38.72-1.16.34-1.72l-1.82-2.71c-.38-.57-1.16-.72-1.72-.34l-5.66 3.79 3.2 4.77ZM14.52 10.418l-1.76 1.18-2.67 1.79-.35.23-.16-.24-2.24-3.34-.16-.24 4.78-3.2 2.56 3.82Z" fill="#292D32"/><path d="m5.64 16.019 3.95-2.64-2.24-3.34-3.95 2.64a1 1 0 0 0-.27 1.39l1.13 1.68c.3.46.92.58 1.38.27Z" fill="#292D32"/><path opacity=".4" d="M16.56 21.812a.87.87 0 0 1-.31.07c-.29 0-.56-.17-.69-.45l-3.73-8.24-3.78 8.25a.77.77 0 0 1-.69.44.87.87 0 0 1-.31-.07.766.766 0 0 1-.37-1l3.41-7.42 2.67-1.79 4.17 9.22c.17.37 0 .82-.37.99Z" fill="#292D32"/></svg>