<svg width="24" height="24" fill="none" xmlns="http://www.w3.org/2000/svg"><path d="M13.18 11.86c-.4 0-.76-.22-.93-.58L10.8 8.39l-.42.78c-.23.43-.69.7-1.18.7h-.73c-.41 0-.75-.34-.75-.75s.34-.75.75-.75h.64l.79-1.46c.19-.34.57-.57.93-.55.39 0 .74.23.92.57l1.43 2.86.34-.69c.23-.46.68-.74 1.2-.74h.81c.41 0 .75.34.75.75s-.34.75-.75.75h-.71l-.71 1.41c-.18.37-.53.59-.93.59Z" fill="#292D32"/><path opacity=".4" d="M2.75 18.65c-.41 0-.75-.34-.75-.75v-5.7c-.05-2.71.96-5.27 2.84-7.19 1.88-1.91 4.4-2.96 7.11-2.96C17.49 2.05 22 6.56 22 12.1v5.7c0 .41-.34.75-.75.75s-.75-.34-.75-.75v-5.7c0-4.71-3.83-8.55-8.55-8.55-2.31 0-4.45.89-6.04 2.51-1.6 1.63-2.45 3.8-2.41 6.12v5.71c0 .42-.33.76-.75.76Z" fill="#292D32"/><path d="M5.94 12.45h-.13c-2.1 0-3.81 1.71-3.81 3.81v1.88c0 2.1 1.71 3.81 3.81 3.81h.13c2.1 0 3.81-1.71 3.81-3.81v-1.88c0-2.1-1.71-3.81-3.81-3.81ZM18.19 12.45h-.13c-2.1 0-3.81 1.71-3.81 3.81v1.88c0 2.1 1.71 3.81 3.81 3.81h.13c2.1 0 3.81-1.71 3.81-3.81v-1.88c0-2.1-1.71-3.81-3.81-3.81Z" fill="#292D32"/></svg>