<svg width="24" height="24" fill="none" xmlns="http://www.w3.org/2000/svg"><path opacity=".4" d="M6 7c-2 0-3 1-3 3v5c0 2 1 3 3 3l2-2v-1h1l8-8H6Zm1 4.75c-.41 0-.75-.34-.75-.75s.34-.75.75-.75h2c.41 0 .75.34.75.75s-.34.75-.75.75H7Z" fill="#292D32"/><path d="m9 15-1 1v-1h1ZM17 5v2H7V5c0-1.66 1.34-3 3-3h4c1.66 0 3 1.34 3 3Z" fill="#292D32"/><path fill-rule="evenodd" clip-rule="evenodd" d="M22.53 1.47a.75.75 0 0 1 0 1.06l-20 20a.75.75 0 0 1-1.06-1.06l20-20a.75.75 0 0 1 1.06 0Z" fill="#292D32"/><path d="M9.75 11c0 .41-.34.75-.75.75H7c-.41 0-.75-.34-.75-.75s.34-.75.75-.75h2c.41 0 .75.34.75.75ZM17.75 15c0 .41-.34.75-.75.75h-5.75l1.5-1.5H17c.41 0 .75.34.75.75Z" fill="#292D32"/><path d="M16 15v4c0 1.66-1.34 3-3 3h-2c-1.66 0-3-1.34-3-3l4-4h4Z" fill="#292D32"/><path opacity=".4" d="M21 9.998v5c0 2-1 3-3 3h-2v-3h-4l7.67-7.67c.89.45 1.33 1.34 1.33 2.67Z" fill="#292D32"/></svg>