<svg width="24" height="24" fill="none" xmlns="http://www.w3.org/2000/svg"><path opacity=".4" d="m19.54 6.542-3.07-3.07a4.994 4.994 0 0 0-3.54-1.46H8c-3 0-5 2-5 5v10c0 3 2 5 5 5h8c3 0 5-2 5-5v-6.93a5 5 0 0 0-1.46-3.54Z" fill="#292D32"/><path d="M9.5 18.751c-.19 0-.38-.07-.53-.22l-2-2a.754.754 0 0 1 0-1.06l2-2c.29-.29.77-.29 1.06 0 .29.29.29.77 0 1.06l-1.47 1.47 1.47 1.47c.29.29.29.77 0 1.06-.15.15-.34.22-.53.22ZM14.5 18.751c-.19 0-.38-.07-.53-.22a.754.754 0 0 1 0-1.06l1.47-1.47-1.47-1.47a.754.754 0 0 1 0-1.06c.29-.29.77-.29 1.06 0l2 2c.29.29.29.77 0 1.06l-2 2c-.15.15-.34.22-.53.22Z" fill="#292D32"/></svg>