<svg width="24" height="24" fill="none" xmlns="http://www.w3.org/2000/svg"><path opacity=".4" d="m19.54 6.54-3.07-3.07A5.003 5.003 0 0 0 12.93 2H8C5 2 3 4 3 7v10c0 3 2 5 5 5h8c3 0 5-2 5-5v-6.93c0-1.33-.53-2.6-1.46-3.53Z" fill="#292D32"/><path d="M11.5 13.25V9.5H10c-1.65 0-3 1.35-3 3v1h4.25c.14 0 .25-.11.25-.25ZM12.75 13.5H17v-1c0-1.65-1.35-3-3-3h-1.5v3.75c0 .14.11.25.25.25ZM11.25 14.5H7v1c0 1.65 1.35 3 3 3h1.5v-3.75c0-.14-.11-.25-.25-.25ZM12.5 14.75v3.75H14c1.65 0 3-1.35 3-3v-1h-4.25c-.14 0-.25.11-.25.25Z" fill="#292D32"/></svg>