<svg width="24" height="24" fill="none" xmlns="http://www.w3.org/2000/svg"><path opacity=".4" d="M8.5 19h7c2.33 0 3.5-1.17 3.5-3.5v-7C19 6.17 17.83 5 15.5 5h-7C6.17 5 5 6.17 5 8.5v7C5 17.83 6.17 19 8.5 19Z" fill="#292D32"/><path d="M16 3.75H8c-.41 0-.75-.34-.75-.75s.34-.75.75-.75h8c.41 0 .75.34.75.75s-.34.75-.75.75ZM16 21.75H8c-.41 0-.75-.34-.75-.75s.34-.75.75-.75h8c.41 0 .75.34.75.75s-.34.75-.75.75ZM12 14.75c-.41 0-.75-.34-.75-.75v-4c0-.41.34-.75.75-.75s.75.34.75.75v4c0 .42-.34.75-.75.75ZM15 14.75c-.41 0-.75-.34-.75-.75v-2c0-.41.34-.75.75-.75s.75.34.75.75v2c0 .42-.33.75-.75.75ZM9 14.75c-.41 0-.75-.34-.75-.75v-1c0-.41.34-.75.75-.75s.75.34.75.75v1c0 .42-.34.75-.75.75Z" fill="#292D32"/></svg>