<svg width="24" height="24" fill="none" xmlns="http://www.w3.org/2000/svg"><path d="M8 5.75c-.41 0-.75-.34-.75-.75V2c0-.41.34-.75.75-.75s.75.34.75.75v3c0 .41-.34.75-.75.75ZM16 5.75c-.41 0-.75-.34-.75-.75V2c0-.41.34-.75.75-.75s.75.34.75.75v3c0 .41-.34.75-.75.75ZM8.5 14.499c-.13 0-.26-.03-.38-.08-.13-.05-.23-.12-.33-.21-.18-.19-.29-.45-.29-.71 0-.26.11-.52.29-.71.1-.09.21-.16.33-.21a1 1 0 0 1 .76 0c.12.05.23.12.33.21.04.05.09.1.12.15.04.06.07.12.09.18.03.06.05.12.06.18.01.07.02.14.02.2 0 .26-.11.52-.29.71-.1.09-.21.16-.33.21-.12.05-.25.08-.38.08ZM12 14.5c-.13 0-.26-.03-.38-.08-.13-.05-.23-.12-.33-.21-.18-.19-.29-.45-.29-.71 0-.06.01-.13.02-.2.01-.06.03-.12.06-.18.02-.06.05-.12.09-.18l.12-.15c.37-.37 1.04-.37 1.42 0l.12.15c.04.06.07.12.09.18.03.06.05.12.06.18.01.07.02.14.02.2 0 .26-.11.52-.29.71-.19.18-.44.29-.71.29ZM8.5 17.999c-.13 0-.26-.03-.38-.08s-.23-.12-.33-.21c-.18-.19-.29-.45-.29-.71 0-.06.01-.13.02-.19.01-.07.03-.13.06-.19.02-.06.05-.12.09-.18.03-.05.08-.1.12-.15.1-.09.21-.16.33-.21a1 1 0 0 1 .76 0c.12.05.23.12.33.21.04.05.09.1.12.15.04.06.07.12.09.18.03.06.05.12.06.19.01.06.02.13.02.19 0 .26-.11.52-.29.71-.1.09-.21.16-.33.21-.12.05-.25.08-.38.08ZM20.5 9.84h-17c-.41 0-.75-.34-.75-.75s.34-.75.75-.75h17c.41 0 .75.34.75.75s-.34.75-.75.75ZM15.82 22.782c-.38 0-.74-.14-1-.4-.31-.31-.45-.76-.38-1.23l.19-1.35c.05-.35.26-.77.51-1.02l3.54-3.54c.48-.48.95-.73 1.46-.78.63-.06 1.24.2 1.82.78.61.61 1.43 1.85 0 3.28l-3.54 3.54c-.25.25-.67.46-1.02.51l-1.35.19c-.08.01-.15.02-.23.02Zm4.49-6.83h-.03c-.14.01-.33.14-.54.35l-3.54 3.54a.38.38 0 0 0-.08.17l-.18 1.25 1.25-.18c.04-.01.14-.06.17-.09l3.54-3.54c.44-.44.5-.66 0-1.16-.16-.15-.39-.34-.59-.34Z" fill="#292D32"/><path d="M20.92 19.25c-.07 0-.14-.01-.2-.03a3.977 3.977 0 0 1-2.74-2.74.76.76 0 0 1 .52-.93c.4-.11.81.12.93.52.23.82.88 1.47 1.7 1.7.4.11.63.53.52.93-.1.33-.4.55-.73.55Z" fill="#292D32"/><path d="M12 22.75H8c-3.65 0-5.75-2.1-5.75-5.75V8.5c0-3.65 2.1-5.75 5.75-5.75h8c3.65 0 5.75 2.1 5.75 5.75V12c0 .41-.34.75-.75.75s-.75-.34-.75-.75V8.5c0-2.86-1.39-4.25-4.25-4.25H8c-2.86 0-4.25 1.39-4.25 4.25V17c0 2.86 1.39 4.25 4.25 4.25h4c.41 0 .75.34.75.75s-.34.75-.75.75Z" fill="#292D32"/></svg>