<svg width="24" height="24" fill="none" xmlns="http://www.w3.org/2000/svg"><path d="M8 5.75c-.41 0-.75-.34-.75-.75V2c0-.41.34-.75.75-.75s.75.34.75.75v3c0 .41-.34.75-.75.75ZM16 5.75c-.41 0-.75-.34-.75-.75V2c0-.41.34-.75.75-.75s.75.34.75.75v3c0 .41-.34.75-.75.75ZM8.5 14.5c-.26 0-.52-.11-.71-.29-.04-.05-.09-.1-.12-.15a.757.757 0 0 1-.09-.18.636.636 0 0 1-.06-.18c-.01-.07-.02-.14-.02-.2 0-.26.11-.52.29-.71.37-.37 1.04-.37 1.42 0 .18.19.29.45.29.71 0 .06-.01.13-.02.2-.01.06-.03.12-.06.18-.02.06-.05.12-.09.18l-.12.15c-.19.18-.45.29-.71.29ZM12 14.499c-.13 0-.26-.03-.38-.08a.933.933 0 0 1-.33-.21c-.04-.05-.09-.1-.12-.15a.757.757 0 0 1-.09-.18.636.636 0 0 1-.06-.18c-.01-.07-.02-.14-.02-.2 0-.26.11-.52.29-.71.09-.09.2-.16.33-.21.36-.16.81-.07 1.09.21.18.19.29.45.29.71 0 .06-.01.13-.02.2-.01.06-.03.12-.06.18-.02.06-.05.12-.09.18l-.12.15c-.19.18-.45.29-.71.29ZM8.5 18c-.27 0-.52-.11-.71-.29-.18-.19-.29-.45-.29-.71 0-.26.11-.52.29-.71.05-.04.1-.09.15-.12.06-.04.12-.07.18-.09.06-.03.12-.05.18-.06.2-.04.4-.02.58.06.13.05.23.12.33.21.18.19.29.45.29.71 0 .26-.11.52-.29.71-.1.09-.2.16-.33.21-.12.05-.25.08-.38.08ZM20.5 9.84h-17c-.41 0-.75-.34-.75-.75s.34-.75.75-.75h17c.41 0 .75.34.75.75s-.34.75-.75.75ZM18 23.75c-2.62 0-4.75-2.13-4.75-4.75s2.13-4.75 4.75-4.75 4.75 2.13 4.75 4.75-2.13 4.75-4.75 4.75Zm0-8c-1.79 0-3.25 1.46-3.25 3.25s1.46 3.25 3.25 3.25 3.25-1.46 3.25-3.25-1.46-3.25-3.25-3.25Z" fill="#292D32"/><path d="M19.07 20.861c-.19 0-.38-.07-.53-.22l-2.11-2.11a.754.754 0 0 1 0-1.06c.29-.29.77-.29 1.06 0l2.11 2.11c.29.29.29.77 0 1.06-.15.15-.34.22-.53.22Z" fill="#292D32"/><path d="M16.931 20.889c-.19 0-.38-.07-.53-.22a.755.755 0 0 1 0-1.06l2.11-2.11c.29-.29.77-.29 1.06 0 .29.29.29.77 0 1.06l-2.11 2.11c-.15.14-.34.22-.53.22Z" fill="#292D32"/><path d="M15.37 22.75H8c-3.65 0-5.75-2.1-5.75-5.75V8.5c0-3.65 2.1-5.75 5.75-5.75h8c3.65 0 5.75 2.1 5.75 5.75v7.86c0 .31-.19.59-.49.7-.29.11-.62.03-.83-.21-.62-.7-1.51-1.1-2.44-1.1-1.79 0-3.25 1.46-3.25 3.25 0 .59.16 1.17.47 1.67.17.3.39.55.63.76.24.2.33.53.22.83-.09.29-.37.49-.69.49ZM8 4.25c-2.86 0-4.25 1.39-4.25 4.25V17c0 2.86 1.39 4.25 4.25 4.25h5.82a4.7 4.7 0 0 1-.57-2.25c0-2.62 2.13-4.75 4.75-4.75.79 0 1.57.2 2.25.57V8.5c0-2.86-1.39-4.25-4.25-4.25H8Z" fill="#292D32"/></svg>