<svg width="24" height="24" fill="none" xmlns="http://www.w3.org/2000/svg"><path d="M8 5.75c-.41 0-.75-.34-.75-.75V2c0-.41.34-.75.75-.75s.75.34.75.75v3c0 .41-.34.75-.75.75ZM16 5.75c-.41 0-.75-.34-.75-.75V2c0-.41.34-.75.75-.75s.75.34.75.75v3c0 .41-.34.75-.75.75ZM20.5 9.84h-17c-.41 0-.75-.34-.75-.75s.34-.75.75-.75h17c.41 0 .75.34.75.75s-.34.75-.75.75Z" fill="#292D32"/><path d="M16 22.75H8c-3.65 0-5.75-2.1-5.75-5.75V8.5c0-3.65 2.1-5.75 5.75-5.75h8c3.65 0 5.75 2.1 5.75 5.75V17c0 3.65-2.1 5.75-5.75 5.75ZM8 4.25c-2.86 0-4.25 1.39-4.25 4.25V17c0 2.86 1.39 4.25 4.25 4.25h8c2.86 0 4.25-1.39 4.25-4.25V8.5c0-2.86-1.39-4.25-4.25-4.25H8Z" fill="#292D32"/><path d="M8.5 14.5c-.13 0-.26-.03-.38-.08s-.23-.12-.33-.21c-.09-.1-.16-.21-.21-.33a.995.995 0 0 1-.08-.38c0-.26.11-.52.29-.71.1-.09.21-.16.33-.21.18-.08.38-.1.58-.06.06.01.12.03.18.06.06.02.12.05.18.09l.15.12c.04.05.09.1.12.15.04.06.07.12.09.18.03.06.05.12.06.18.01.07.02.13.02.2 0 .26-.11.52-.29.71-.19.18-.45.29-.71.29ZM12 14.499c-.26 0-.52-.11-.71-.29l-.12-.15a.757.757 0 0 1-.09-.18.636.636 0 0 1-.06-.18c-.01-.07-.02-.13-.02-.2 0-.13.03-.26.08-.38s.12-.23.21-.33c.28-.28.73-.37 1.09-.21.13.05.23.12.33.21.18.19.29.45.29.71 0 .07-.01.13-.02.2-.01.06-.03.12-.06.18-.02.06-.05.12-.09.18l-.12.15c-.1.09-.2.16-.33.21-.12.05-.25.08-.38.08ZM8.5 17.999c-.13 0-.26-.03-.38-.08s-.23-.12-.33-.21c-.09-.1-.16-.2-.21-.33a.995.995 0 0 1-.08-.38c0-.26.11-.52.29-.71.1-.09.21-.16.33-.21.37-.16.81-.07 1.09.21.04.05.09.1.12.15.04.06.07.12.09.18.03.06.05.12.06.19.01.06.02.13.02.19 0 .26-.11.52-.29.71-.19.18-.45.29-.71.29Z" fill="#292D32"/></svg>