<svg width="24" height="24" fill="none" xmlns="http://www.w3.org/2000/svg"><path d="M8 5.75c-.41 0-.75-.34-.75-.75V2c0-.41.34-.75.75-.75s.75.34.75.75v3c0 .41-.34.75-.75.75ZM16 5.75c-.41 0-.75-.34-.75-.75V2c0-.41.34-.75.75-.75s.75.34.75.75v3c0 .41-.34.75-.75.75ZM8.5 14.498c-.13 0-.26-.02-.38-.08-.12-.05-.23-.12-.33-.21-.18-.19-.29-.45-.29-.71 0-.13.03-.26.08-.38s.12-.23.21-.33c.1-.09.21-.16.33-.21.36-.15.81-.07 1.09.21.09.1.16.21.21.33.05.12.08.25.08.38 0 .26-.11.52-.29.71-.19.18-.45.29-.71.29ZM12 14.499c-.26 0-.52-.11-.71-.29-.09-.1-.16-.21-.21-.33a.995.995 0 0 1-.08-.38c0-.26.11-.52.29-.71.28-.28.72-.37 1.09-.21.12.05.23.12.33.21.18.19.29.45.29.71 0 .13-.02.26-.08.38-.05.12-.12.23-.21.33-.1.09-.21.16-.33.21-.12.06-.25.08-.38.08ZM8.5 17.999c-.13 0-.26-.03-.38-.08s-.23-.12-.33-.21c-.18-.19-.29-.44-.29-.71 0-.13.03-.26.08-.38.05-.13.12-.23.21-.33.1-.09.21-.16.33-.21.36-.16.81-.07 1.09.21.09.1.16.2.21.33.05.12.08.25.08.38 0 .27-.11.52-.29.71-.19.18-.45.29-.71.29ZM20.5 9.84h-17c-.41 0-.75-.34-.75-.75s.34-.75.75-.75h17c.41 0 .75.34.75.75s-.34.75-.75.75ZM18 23.75c-2.62 0-4.75-2.13-4.75-4.75s2.13-4.75 4.75-4.75 4.75 2.13 4.75 4.75-2.13 4.75-4.75 4.75Zm0-8c-1.79 0-3.25 1.46-3.25 3.25s1.46 3.25 3.25 3.25 3.25-1.46 3.25-3.25-1.46-3.25-3.25-3.25Z" fill="#292D32"/><path d="M19.49 19.8H16.5c-.41 0-.75-.34-.75-.75s.34-.75.75-.75h2.99a.749.749 0 1 1 0 1.5Z" fill="#292D32"/><path d="M18 21.33c-.41 0-.75-.34-.75-.75v-2.99c0-.41.34-.75.75-.75s.75.34.75.75v2.99c0 .41-.34.75-.75.75Z" fill="#292D32"/><path d="M15.37 22.75H8c-3.65 0-5.75-2.1-5.75-5.75V8.5c0-3.65 2.1-5.75 5.75-5.75h8c3.65 0 5.75 2.1 5.75 5.75v7.86c0 .31-.19.59-.49.7-.29.11-.62.03-.83-.21-.62-.7-1.51-1.1-2.44-1.1-1.79 0-3.25 1.46-3.25 3.25 0 .59.16 1.17.47 1.67.17.3.39.55.63.76.24.2.33.53.22.83-.09.29-.37.49-.69.49ZM8 4.25c-2.86 0-4.25 1.39-4.25 4.25V17c0 2.86 1.39 4.25 4.25 4.25h5.82a4.7 4.7 0 0 1-.57-2.25c0-2.62 2.13-4.75 4.75-4.75.79 0 1.57.2 2.25.57V8.5c0-2.86-1.39-4.25-4.25-4.25H8Z" fill="#292D32"/></svg>