<svg width="24" height="24" fill="none" xmlns="http://www.w3.org/2000/svg"><path d="M12 22.761c-1.09 0-2.17-.32-3.02-.95l-4.3-3.21c-1.14-.85-2.03-2.63-2.03-4.04v-7.44c0-1.54 1.13-3.18 2.58-3.72l4.99-1.87c.99-.37 2.55-.37 3.54 0l4.99 1.87c1.45.54 2.58 2.18 2.58 3.72v7.43c0 1.42-.89 3.19-2.03 4.04l-4.3 3.21c-.83.64-1.91.96-3 .96Zm-1.25-19.82-4.99 1.87c-.85.32-1.6 1.4-1.6 2.32v7.43c0 .95.67 2.28 1.42 2.84l4.3 3.21c1.15.86 3.09.86 4.25 0l4.3-3.21c.76-.57 1.42-1.89 1.42-2.84v-7.44c0-.91-.75-1.99-1.6-2.32l-4.99-1.87c-.68-.24-1.84-.24-2.51.01Z" fill="#292D32"/><path d="M12 16.25c-2.62 0-4.75-2.13-4.75-4.75S9.38 6.75 12 6.75s4.75 2.13 4.75 4.75-2.13 4.75-4.75 4.75Zm0-8c-1.79 0-3.25 1.46-3.25 3.25s1.46 3.25 3.25 3.25 3.25-1.46 3.25-3.25S13.79 8.25 12 8.25Z" fill="#292D32"/><path d="M11 13.252c-.25 0-.5-.13-.64-.36-.21-.36-.1-.82.26-1.03l.76-.46c.08-.05.12-.13.12-.21v-.93c0-.41.34-.75.75-.75s.75.33.75.74v.93c0 .61-.33 1.19-.85 1.5l-.77.46c-.11.08-.25.11-.38.11Z" fill="#292D32"/></svg>