<svg width="24" height="24" fill="none" xmlns="http://www.w3.org/2000/svg"><path d="M15.24 22.75H8.76c-1.89 0-3.27-.79-3.8-2.15-.55-1.42-.04-3.18 1.28-4.37L10.88 12 6.24 7.77C4.92 6.58 4.41 4.82 4.96 3.4c.53-1.37 1.91-2.15 3.8-2.15h6.48c1.89 0 3.27.79 3.8 2.15.55 1.42.04 3.18-1.28 4.37L13.12 12l4.65 4.23c1.31 1.19 1.83 2.95 1.28 4.37-.54 1.36-1.92 2.15-3.81 2.15ZM12 13.01l-4.75 4.32c-.84.77-1.21 1.89-.89 2.72.3.77 1.15 1.2 2.4 1.2h6.48c1.25 0 2.1-.42 2.4-1.2.32-.83-.04-1.95-.89-2.72L12 13.01ZM8.76 2.75c-1.25 0-2.1.42-2.4 1.2-.32.83.04 1.95.89 2.72L12 10.99l4.75-4.32c.84-.77 1.21-1.89.89-2.72-.3-.77-1.15-1.2-2.4-1.2H8.76Z" fill="#292D32"/></svg>