<svg width="24" height="24" fill="none" xmlns="http://www.w3.org/2000/svg"><path d="M12 22.75c-5.24 0-9.5-4.26-9.5-9.5s4.26-9.5 9.5-9.5 9.5 4.26 9.5 9.5c0 .41-.34.75-.75.75s-.75-.34-.75-.75c0-4.41-3.59-8-8-8s-8 3.59-8 8 3.59 8 8 8c.41 0 .75.34.75.75s-.34.75-.75.75Z" fill="#292D32"/><path d="M12 13.75c-.41 0-.75-.34-.75-.75V8c0-.41.34-.75.75-.75s.75.34.75.75v5c0 .41-.34.75-.75.75ZM15 2.75H9c-.41 0-.75-.34-.75-.75s.34-.75.75-.75h6c.41 0 .75.34.75.75s-.34.75-.75.75ZM19 21.75c-.41 0-.75-.34-.75-.75v-4c0-.41.34-.75.75-.75s.75.34.75.75v4c0 .41-.34.75-.75.75ZM16 21.75c-.41 0-.75-.34-.75-.75v-4c0-.41.34-.75.75-.75s.75.34.75.75v4c0 .41-.34.75-.75.75Z" fill="#292D32"/></svg>