<svg width="24" height="24" fill="none" xmlns="http://www.w3.org/2000/svg"><path d="M12 13.75c-.41 0-.75-.34-.75-.75V8c0-.41.34-.75.75-.75s.75.34.75.75v5c0 .41-.34.75-.75.75Z" fill="#292D32"/><path d="M12 22.75c-5.24 0-9.5-4.26-9.5-9.5s4.26-9.5 9.5-9.5 9.5 4.26 9.5 9.5c0 .41-.34.75-.75.75s-.75-.34-.75-.75c0-4.41-3.59-8-8-8s-8 3.59-8 8 3.59 8 8 8c.41 0 .75.34.75.75s-.34.75-.75.75ZM15 2.75H9c-.41 0-.75-.34-.75-.75s.34-.75.75-.75h6c.41 0 .75.34.75.75s-.34.75-.75.75Z" fill="#292D32"/><path d="M16.15 22.02c-.35 0-.67-.08-.96-.25-.66-.38-1.04-1.15-1.04-2.11v-2.31c0-.96.38-1.73 1.04-2.11.66-.38 1.51-.32 2.34.15l2 1.16c.83.48 1.31 1.19 1.31 1.95s-.48 1.47-1.31 1.95l-2 1.16c-.46.27-.93.41-1.38.41Zm.01-5.54a.51.51 0 0 0-.22.05c-.18.1-.29.41-.29.81v2.31c0 .4.11.71.29.81.18.1.5.05.84-.15l2-1.16c.35-.2.56-.45.56-.65s-.21-.45-.56-.65l-2-1.16c-.23-.14-.45-.21-.62-.21Z" fill="#292D32"/></svg>