<svg width="24" height="24" fill="none" xmlns="http://www.w3.org/2000/svg"><path d="M9.89 5.828v2M14.11 5.828v2M7.53 10.137h8.94M13.5 17.668h-3c-2.5 0-4-1.8-4-4v-3c0-2.2 1.5-4 4-4h3c2.5 0 4 1.8 4 4v3c0 2.2-1.5 4-4 4Z" stroke="#292D32" stroke-width="1.5" stroke-miterlimit="10" stroke-linecap="round" stroke-linejoin="round"/><path d="M4 6c-1.25 1.67-2 3.75-2 6 0 5.52 4.48 10 10 10s10-4.48 10-10S17.52 2 12 2c-1.43 0-2.8.3-4.03.85" stroke="#292D32" stroke-width="1.5" stroke-linecap="round" stroke-linejoin="round"/></svg>