<svg width="24" height="24" fill="none" xmlns="http://www.w3.org/2000/svg"><path d="M8 2v3M16 2v3M3.5 9.09h17M18 23a4 4 0 1 0 0-8 4 4 0 0 0 0 8ZM19.07 20.11 16.95 18M19.05 18.02l-2.12 2.12" stroke="#292D32" stroke-width="1.5" stroke-miterlimit="10" stroke-linecap="round" stroke-linejoin="round"/><path d="M3 13.01V8.5c0-3 1.5-5 5-5h8c3.5 0 5 2 5 5v7.86c-.73-.83-1.8-1.36-3-1.36-2.21 0-4 1.79-4 4 0 .75.21 1.46.58 2.06.21.36.48.68.79.94H8c-3.5 0-5-2-5-5" stroke="#292D32" stroke-width="1.5" stroke-miterlimit="10" stroke-linecap="round" stroke-linejoin="round"/><path d="M11.995 13.7h.009M8.295 13.7h.01M8.295 16.7h.01" stroke="#292D32" stroke-width="2" stroke-linecap="round" stroke-linejoin="round"/></svg>