<svg width="24" height="24" fill="none" xmlns="http://www.w3.org/2000/svg"><path d="M3.41 11.369v3.18c0 1.18.78 2.73 1.73 3.44l4.3 3.21c1.41 1.06 3.73 1.06 5.14 0l4.3-3.21c.95-.71 1.73-2.26 1.73-3.44v-7.43c0-1.23-.94-2.59-2.09-3.02l-4.99-1.87c-.83-.31-2.19-.31-3.02 0l-4.99 1.87c-1.15.43-2.09 1.79-2.09 3.02" stroke="#292D32" stroke-width="1.5" stroke-linecap="round" stroke-linejoin="round"/><path d="M16 11.5c0-2.21-1.79-4-4-4s-4 1.79-4 4a3.999 3.999 0 0 0 5.95 3.49" stroke="#292D32" stroke-width="1.5" stroke-miterlimit="10" stroke-linecap="round" stroke-linejoin="round"/><path d="M12.25 10.25v.93c0 .35-.18.68-.49.86l-.76.46" stroke="#292D32" stroke-width="1.5" stroke-miterlimit="10" stroke-linecap="round" stroke-linejoin="round"/></svg>