<svg width="24" height="24" fill="none" xmlns="http://www.w3.org/2000/svg"><path d="M12 8v5M8.01 5.46c1.2-.61 2.55-.96 3.99-.96 4.83 0 8.75 3.92 8.75 8.75M12 21.998c-4.83 0-8.75-3.92-8.75-8.75 0-1.98.66-3.8 1.76-5.26" stroke="#292D32" stroke-width="1.5" stroke-linecap="round" stroke-linejoin="round"/><path d="M9 2h6M14.9 18.502v-1.16c0-1.43 1.02-2.02 2.26-1.3l1 .58 1 .58c1.24.72 1.24 1.89 0 2.61l-1 .58-1 .58c-1.24.72-2.26.13-2.26-1.3v-1.17Z" stroke="#292D32" stroke-width="1.5" stroke-miterlimit="10" stroke-linecap="round" stroke-linejoin="round"/></svg>