<svg xmlns="http://www.w3.org/2000/svg" width="24" height="24" fill="none" viewBox="0 0 24 24">
  <path fill="#292D32" d="M20 9.55c-.41 0-.75-.34-.75-.75V4.75H15.2c-.41 0-.75-.34-.75-.75s.34-.75.75-.75H20c.41 0 .75.34.75.75v4.8c0 .41-.34.75-.75.75zM11.05 14.95L9.2 16.8c-.39.39-1.01.39-1.41.01-.11-.11-.22-.21-.33-.32a28.414 28.414 0 01-2.79-3.27c-.82-1.14-1.48-2.28-1.96-3.41C2.24 8.67 2 7.58 2 6.54c0-.68.12-1.33.36-1.93.24-.61.62-1.17 1.15-1.67C4.15 2.31 4.85 2 5.59 2c.28 0 .56.06.81.18.26.12.49.3.67.56l2.32 3.27c.18.25.31.48.4.7.09.21.14.42.14.61 0 .24-.07.48-.21.71-.13.23-.32.47-.56.71l-.76.79c-.11.11-.16.24-.16.4 0 .08.01.15.03.23.03.08.06.14.08.2.18.33.49.76.93 1.28.45.52.93 1.05 1.45 1.58.1.1.21.2.31.3.4.39.41 1.03.01 1.43zM21.97 18.33a2.54 2.54 0 01-.25 1.09c-.17.36-.39.7-.68 1.02-.49.54-1.03.93-1.64 1.18-.01 0-.02.01-.03.01-.59.24-1.23.37-1.92.37-1.02 0-2.11-.24-3.26-.73s-2.3-1.15-3.44-1.98c-.39-.29-.78-.58-1.15-.89l3.27-3.27c.28.21.53.37.74.48.05.02.11.05.18.08.08.03.16.04.25.04.17 0 .3-.06.41-.17l.76-.75c.25-.25.49-.44.72-.56.23-.14.46-.21.71-.21.19 0 .39.04.61.13.22.09.45.22.7.39l3.31 2.35c.26.18.44.39.55.64.1.25.16.5.16.78z"/>
</svg>
