<svg width="24" height="24" fill="none" xmlns="http://www.w3.org/2000/svg"><path d="M2 22h20M3 9V7.07c0-.67.34-1.29.89-1.66l4-2.67c.67-.45 1.55-.45 2.22 0l4 2.67c.56.37.89.99.89 1.66l.01 14.92-12 .02L3 12.92M19.98 22.01V18M20 12c-1.1 0-2 .9-2 2v2c0 1.1.9 2 2 2s2-.9 2-2v-2c0-1.1-.9-2-2-2ZM3 14h12M9 22v-3.75" stroke="#292D32" stroke-width="1.5" stroke-miterlimit="10" stroke-linecap="round" stroke-linejoin="round"/><path d="M9 10.5a1.5 1.5 0 1 0 0-3 1.5 1.5 0 0 0 0 3Z" stroke="#292D32" stroke-width="1.5" stroke-miterlimit="10" stroke-linecap="round" stroke-linejoin="round"/></svg>