<svg width="24" height="24" fill="none" xmlns="http://www.w3.org/2000/svg"><path d="M20 12.2v1.7c0 3.15-1.8 4.5-4.5 4.5h-9c-2.7 0-4.5-1.35-4.5-4.5V8.5C2 5.35 3.8 4 6.5 4h2.7c-.13.38-.2.8-.2 1.25v3.9c0 .97.32 1.79.89 2.36.57.57 1.39.89 2.36.89v1.39c0 .51.58.82 1.01.54l2.89-1.93h2.6c.45 0 .87-.07 1.25-.2Z" fill="#292D32"/><path opacity=".4" d="M22 5.25v3.9c0 1.49-.76 2.61-2 3.05-.38.13-.8.2-1.25.2h-2.6l-2.89 1.93c-.43.28-1.01-.03-1.01-.54V12.4c-.97 0-1.79-.32-2.36-.89-.57-.57-.89-1.39-.89-2.36v-3.9c0-.45.07-.87.2-1.25.44-1.24 1.56-2 3.05-2h6.5C20.7 2 22 3.3 22 5.25ZM14.598 21.248h-2.85v-2.85c0-.41-.34-.75-.75-.75s-.75.34-.75.75v2.85h-2.85c-.41 0-.75.34-.75.75s.34.75.75.75h7.2c.41 0 .75-.34.75-.75s-.34-.75-.75-.75Z" fill="#292D32"/><path d="M15.441 8a.749.749 0 1 1-.002-1.498A.749.749 0 0 1 15.441 8ZM18.25 8a.749.749 0 1 1-.002-1.498A.749.749 0 0 1 18.25 8ZM12.621 8a.749.749 0 1 1-.002-1.498A.749.749 0 0 1 12.621 8Z" fill="#292D32"/></svg>