<svg width="24" height="24" fill="none" xmlns="http://www.w3.org/2000/svg"><path opacity=".4" d="M16.19 2H7.81C4.17 2 2 4.17 2 7.81v8.37C2 19.83 4.17 22 7.81 22h8.37c3.64 0 5.81-2.17 5.81-5.81V7.81C22 4.17 19.83 2 16.19 2Z" fill="#292D32"/><path d="M21.3 12.23h-3.48c-.98 0-1.85.54-2.29 1.42l-.84 1.66c-.2.4-.6.65-1.04.65h-3.28c-.31 0-.75-.07-1.04-.65l-.84-1.65a2.567 2.567 0 0 0-2.29-1.42H2.7c-.39 0-.7.31-.7.7v3.26C2 19.83 4.18 22 7.82 22h8.38c3.43 0 5.54-1.88 5.8-5.22v-3.85c0-.38-.31-.7-.7-.7ZM13.55 7.798h-3.1c-.39 0-.7-.31-.7-.7 0-.39.31-.7.7-.7h3.1c.39 0 .7.31.7.7 0 .39-.32.7-.7.7ZM14.329 10.591h-4.66c-.39 0-.7-.31-.7-.7 0-.39.31-.7.7-.7h4.65c.39 0 .7.31.7.7 0 .39-.31.7-.69.7Z" fill="#292D32"/></svg>