<svg width="24" height="24" fill="none" xmlns="http://www.w3.org/2000/svg"><path d="M18.69 11.53c-.57-.15-1.24-.23-2.04-.23-1.11 0-1.52.27-2.09.7-.03.02-.06.05-.09.08l-.95 1.01c-.79.85-2.24.85-3.04 0l-.95-1a.382.382 0 0 0-.09-.09c-.58-.43-.99-.7-2.09-.7-.8 0-1.47.07-2.04.23-2.38.64-2.38 2.53-2.38 4.19v.93c0 2.51 0 5.35 5.35 5.35h7.44c3.55 0 5.35-1.8 5.35-5.35v-.93c0-1.66 0-3.55-2.38-4.19Z" fill="#292D32"/><path opacity=".4" d="M14.79 2H9.21C4.79 2 4.79 4.35 4.79 6.42v5.79c0 .22.1.42.27.55.17.13.4.18.61.12.45-.12 1.01-.18 1.68-.18.67 0 .81.08 1.21.38l.91.96a3.48 3.48 0 0 0 5.08 0l.91-.96c.4-.3.54-.38 1.21-.38.67 0 1.23.06 1.68.18.21.06.43.01.61-.12.17-.13.27-.34.27-.55V6.42C19.21 4.35 19.21 2 14.79 2Z" fill="#292D32"/><path d="M13.55 9.912h-3.1c-.39 0-.7-.31-.7-.7 0-.39.31-.7.7-.7h3.1c.39 0 .7.31.7.7 0 .38-.32.7-.7.7ZM14.329 7.119h-4.66c-.39 0-.7-.31-.7-.7 0-.39.31-.7.7-.7h4.65a.7.7 0 0 1 .01 1.4Z" fill="#292D32"/></svg>