<svg width="24" height="24" fill="none" xmlns="http://www.w3.org/2000/svg"><path opacity=".4" d="M14.79 4H9.21C4.79 4 4.79 6.35 4.79 8.42v3.79c0 .22.1.42.27.55.17.13.4.18.61.12.45-.12 1.01-.18 1.68-.18.67 0 .81.08 1.21.38l.91.96a3.48 3.48 0 0 0 5.08 0l.91-.96c.4-.3.54-.38 1.21-.38.67 0 1.23.06 1.68.18.21.06.43.01.61-.12.17-.13.27-.34.27-.55V8.42C19.21 6.35 19.21 4 14.79 4Z" fill="#292D32"/><path d="M14.276 6.8a.676.676 0 0 0-.95 0l-.65.65V2.67c0-.37-.31-.67-.68-.67-.37 0-.68.3-.68.67v4.77l-.64-.64a.676.676 0 0 0-.95 0c-.26.26-.26.69 0 .95l1.8 1.8c.01.01.01.01.02.01.06.05.12.1.2.13.08.03.17.05.26.05s.17-.02.26-.05c.08-.03.16-.08.22-.15l1.8-1.8c.25-.25.25-.68-.01-.94ZM18.69 11.53c-.57-.15-1.24-.23-2.04-.23-1.11 0-1.52.27-2.09.7-.03.02-.06.05-.09.08l-.95 1.01c-.8.84-2.24.85-3.04-.01l-.95-1c-.03-.03-.06-.06-.09-.08-.57-.43-.98-.7-2.09-.7-.8 0-1.47.08-2.04.23-2.38.64-2.38 2.53-2.38 4.19v.93c0 2.51 0 5.35 5.35 5.35h7.44c3.55 0 5.35-1.8 5.35-5.35v-.93c0-1.66 0-3.55-2.38-4.19Zm-4.36 6.87H9.67c-.38 0-.69-.31-.69-.7 0-.39.31-.7.69-.7h4.66c.38 0 .69.31.69.7 0 .39-.31.7-.69.7Z" fill="#292D32"/><path opacity=".4" d="M15.02 17.7c0 .39-.31.7-.69.7H9.67c-.38 0-.69-.31-.69-.7 0-.39.31-.7.69-.7h4.66c.38 0 .69.31.69.7Z" fill="#292D32"/></svg>