<svg width="24" height="24" fill="none" xmlns="http://www.w3.org/2000/svg"><path opacity=".4" d="M2 12.97V6.99C2 4.23 4.24 2 7 2h10c2.76 0 5 2.23 5 4.99v6.98c0 2.75-2.24 4.98-5 4.98h-1.5c-.31 0-.61.15-.8.4l-1.5 1.99c-.66.88-1.74.88-2.4 0l-1.5-1.99c-.16-.22-.52-.4-.8-.4H7c-2.76 0-5-2.23-5-4.98v-1Z" fill="#292D32"/><path d="M17 8.75H7c-.41 0-.75-.34-.75-.75s.34-.75.75-.75h10c.41 0 .75.34.75.75s-.34.75-.75.75ZM13 13.75H7c-.41 0-.75-.34-.75-.75s.34-.75.75-.75h6c.41 0 .75.34.75.75s-.34.75-.75.75Z" fill="#292D32"/></svg>