<svg width="24" height="24" fill="none" xmlns="http://www.w3.org/2000/svg"><path d="m22.53 21.47-.74-.74c.38-.58.61-1.28.61-2.03 0-2.04-1.66-3.7-3.7-3.7S15 16.66 15 18.7s1.66 3.7 3.7 3.7c.75 0 1.45-.23 2.03-.61l.74.74c.15.15.34.22.53.22s.38-.07.53-.22c.29-.29.29-.77 0-1.06Z" fill="#292D32"/><path opacity=".4" d="M2 12.972v-5.98c0-2.75 2.24-4.98 5-4.98h10c2.76 0 5 2.23 5 4.99v6.98c0 2.75-2.24 4.98-5 4.98h-1.5c-.31 0-.61.15-.8.4l-1.5 1.99c-.66.88-1.74.88-2.4 0l-1.5-1.99c-.17-.22-.52-.4-.8-.4H7c-2.76 0-5-2.23-5-4.98v-1.01Z" fill="#292D32"/><path d="M11.998 12c-.56 0-1.01-.45-1.01-1s.45-1 1-1 1 .45 1 1-.43 1-.99 1ZM15.998 12c-.56 0-1.01-.45-1.01-1s.45-1 1-1 1 .45 1 1-.43 1-.99 1ZM7.998 12c-.56 0-1.01-.45-1.01-1s.45-1 1-1 1 .45 1 1-.43 1-.99 1Z" fill="#292D32"/></svg>