<svg width="24" height="24" fill="none" xmlns="http://www.w3.org/2000/svg"><path opacity=".4" d="M22 7.43v6c0 1.5-.5 2.75-1.38 3.63-.87.87-2.12 1.37-3.62 1.37v2.13c0 .8-.89 1.28-1.55.84L11 18.43H8.88c.08-.3.12-.61.12-.93 0-1.02-.39-1.96-1.03-2.67A3.944 3.944 0 0 0 5 13.5c-1.12 0-2.14.46-2.87 1.21-.09-.4-.13-.83-.13-1.28v-6c0-3 2-5 5-5h10c3 0 5 2 5 5Z" fill="#292D32"/><path d="M15.5 11.25h-7c-.41 0-.75-.34-.75-.75s.34-.75.75-.75h7c.41 0 .75.34.75.75s-.34.75-.75.75ZM5 13.5c-.94 0-1.81.33-2.5.88A3.97 3.97 0 0 0 1 17.5c0 2.21 1.79 4 4 4a4 4 0 0 0 2.64-1c.83-.73 1.36-1.8 1.36-3 0-2.21-1.79-4-4-4Zm1 4.25c0 .26-.14.51-.36.64l-1.25.75c-.12.07-.25.11-.39.11-.25 0-.5-.13-.64-.36-.21-.36-.1-.82.26-1.03l.89-.53v-1.08c0-.41.34-.75.75-.75s.75.34.75.75v1.5H6Z" fill="#292D32"/></svg>