<svg width="24" height="24" fill="none" xmlns="http://www.w3.org/2000/svg"><path opacity=".4" d="m18.47 16.83.39 3.16c.1.83-.79 1.41-1.5.98l-4.19-2.49c-.46 0-.91-.03-1.35-.09A4.86 4.86 0 0 0 13 15.23c0-2.84-2.46-5.14-5.5-5.14-1.16 0-2.23.33-3.12.91-.03-.25-.04-.5-.04-.76C4.34 5.69 8.29 2 13.17 2S22 5.69 22 10.24c0 2.7-1.39 5.09-3.53 6.59Z" fill="#292D32"/><path d="M13 15.23c0 1.19-.44 2.29-1.18 3.16-.99 1.2-2.56 1.97-4.32 1.97l-2.61 1.55c-.44.27-1-.1-.94-.61l.25-1.97C2.86 18.4 2 16.91 2 15.23c0-1.76.94-3.31 2.38-4.23.89-.58 1.96-.91 3.12-.91 3.04 0 5.5 2.3 5.5 5.14Z" fill="#292D32"/></svg>