<svg width="24" height="24" fill="none" xmlns="http://www.w3.org/2000/svg"><path opacity=".4" d="M22 7.43v6c0 1.5-.5 2.75-1.38 3.63-.87.87-2.12 1.37-3.62 1.37v2.13c0 .8-.89 1.28-1.55.84L11 18.43H8.88c.08-.3.12-.61.12-.93 0-1.02-.39-1.96-1.03-2.67A3.944 3.944 0 0 0 5 13.5c-1.12 0-2.14.46-2.87 1.21-.09-.4-.13-.83-.13-1.28v-6c0-3 2-5 5-5h10c3 0 5 2 5 5Z" fill="#292D32"/><path d="M15.5 11.25h-7c-.41 0-.75-.34-.75-.75s.34-.75.75-.75h7c.41 0 .75.34.75.75s-.34.75-.75.75ZM5 13.5c-2.21 0-4 1.79-4 4 0 .75.21 1.46.58 2.06A3.97 3.97 0 0 0 5 21.5c1.46 0 2.73-.78 3.42-1.94.37-.6.58-1.31.58-2.06 0-2.21-1.79-4-4-4Zm1.97 3.67-2.13 1.97c-.14.13-.33.2-.51.2-.19 0-.38-.07-.53-.22l-.99-.99a.754.754 0 0 1 0-1.06c.29-.29.77-.29 1.06 0l.48.48 1.6-1.48c.3-.28.78-.26 1.06.04s.26.78-.04 1.06Z" fill="#292D32"/></svg>