<svg width="24" height="24" fill="none" xmlns="http://www.w3.org/2000/svg"><path opacity=".4" d="M22 7.43v6c0 1.5-.5 2.75-1.38 3.63-.87.87-2.12 1.37-3.62 1.37v2.13c0 .8-.89 1.28-1.55.84L11 18.43H8.88c.08-.3.12-.61.12-.93 0-1.02-.39-1.96-1.03-2.67A3.944 3.944 0 0 0 5 13.5c-1.12 0-2.14.46-2.87 1.21-.09-.4-.13-.83-.13-1.28v-6c0-3 2-5 5-5h10c3 0 5 2 5 5Z" fill="#292D32"/><path d="M15.5 11.25h-7c-.41 0-.75-.34-.75-.75s.34-.75.75-.75h7c.41 0 .75.34.75.75s-.34.75-.75.75ZM5.21 13.512c-1.09-.07-2.21.33-3.04 1.16a4.008 4.008 0 0 0 0 5.66c.53.53 1.18.88 1.87 1.05.38.1.78.13 1.18.11.95-.04 1.88-.42 2.61-1.15a3.98 3.98 0 0 0 1.05-3.79c-.16-.69-.52-1.34-1.05-1.87a3.952 3.952 0 0 0-2.62-1.17Zm2.03 3.97c0 .21-.08.39-.22.53s-.32.22-.53.22h-.74v.78c0 .21-.08.39-.22.53s-.32.22-.53.22c-.41 0-.75-.34-.75-.75v-.78H3.5c-.41 0-.75-.34-.75-.75s.34-.75.75-.75h.75v-.71c0-.41.34-.75.75-.75s.75.34.75.75v.71h.74c.42 0 .75.34.75.75Z" fill="#292D32"/></svg>