<svg width="24" height="24" fill="none" xmlns="http://www.w3.org/2000/svg"><path d="M18.28 9.762v3.14c0 .2-.01.4-.03.59-.18 2.12-1.43 3.18-3.73 3.18h-.31c-.2 0-.39.09-.5.25l-.94 1.26c-.42.56-1.09.56-1.51 0l-.94-1.26a.733.733 0 0 0-.5-.25h-.31c-2.51 0-3.76-.62-3.76-3.76v-3.14c0-2.3 1.06-3.55 3.18-3.73.19-.02.39-.03.59-.03h5.03c2.47-.01 3.73 1.25 3.73 3.75Z" fill="#292D32"/><path opacity=".4" d="M16.192 2h-8.37c-3.64 0-5.81 2.17-5.81 5.81v8.37c0 3.64 2.17 5.81 5.81 5.81h8.37c3.64 0 5.81-2.17 5.81-5.81V7.81c0-3.64-2.17-5.81-5.81-5.81Z" fill="#292D32"/></svg>