<svg width="24" height="24" fill="none" xmlns="http://www.w3.org/2000/svg"><path d="m19.481 2.821.28.57c.14.28.49.54.8.6l.38.06c1.14.19 1.41 1.03.59 1.86l-.35.35c-.23.24-.36.7-.29 1.02l.05.21c.31 1.38-.42 1.91-1.62 1.19l-.26-.15c-.31-.18-.81-.18-1.12 0l-.26.15c-1.21.73-1.94.19-1.62-1.19l.05-.21c.07-.32-.06-.78-.29-1.02l-.35-.35c-.82-.83-.55-1.67.59-1.86l.38-.06c.3-.05.66-.32.8-.6l.28-.57c.54-1.09 1.42-1.09 1.96 0Z" fill="#292D32"/><path opacity=".4" d="M22 9.67v5.83c0 3.5-2 5-5 5H7c-3 0-5-1.5-5-5v-7c0-3.5 2-5 5-5h7.05c-.2.22-.35.48-.44.77-.29.9 0 1.88.8 2.69l.19.19c-.41 1.81.44 2.66.83 2.94.22.16.67.41 1.31.41.47 0 1.05-.14 1.72-.54l.04-.02.04.02c1.58.95 2.65.41 3.03.13.12-.08.28-.22.43-.42Z" fill="#292D32"/><path d="M11.999 12.869c-.84 0-1.69-.26-2.34-.79l-3.13-2.5a.748.748 0 0 1 .93-1.17l3.13 2.5c.76.61 2.05.61 2.81 0 .32-.26.79-.21 1.05.12.26.32.21.8-.12 1.05-.64.53-1.49.79-2.33.79Z" fill="#292D32"/></svg>