<svg width="24" height="24" fill="none" xmlns="http://www.w3.org/2000/svg"><path opacity=".4" d="M7 3h10c3 0 5 1.5 5 5v3.14c0 .73-.75 1.19-1.42.9a6.51 6.51 0 0 0-3.66-.45c-2.62.43-4.76 2.5-5.29 5.1-.15.76-.17 1.5-.07 2.21.08.59-.4 1.11-.99 1.11H7c-3 0-5-1.5-5-5v-7C2 4.5 4 3 7 3Z" fill="#292D32"/><path d="M12 11.872c-.84 0-1.69-.26-2.34-.79l-3.13-2.5a.748.748 0 0 1 .93-1.17l3.13 2.5c.76.61 2.05.61 2.81 0l3.13-2.5c.32-.26.8-.21 1.05.12.26.32.21.8-.12 1.05l-3.13 2.5c-.64.53-1.49.79-2.33.79ZM18 13c-2.76 0-5 2.23-5 5 0 2.76 2.24 5 5 5 2.77 0 5-2.24 5-5 0-2.77-2.23-5-5-5Zm2.05 4.55-.37.36-2.17 2.18c-.1.09-.29.19-.43.21l-.98.14c-.35.05-.6-.2-.55-.55l.14-.98a.87.87 0 0 1 .21-.43l2.18-2.17.36-.37c.24-.24.51-.4.79-.4.24 0 .51.11.81.4.66.66.45 1.17.01 1.61Z" fill="#292D32"/></svg>