<svg width="24" height="24" fill="none" xmlns="http://www.w3.org/2000/svg"><path opacity=".4" d="M18.57 22H14c-2.29 0-3.43-1.14-3.43-3.43v-7.14C10.57 9.14 11.71 8 14 8h4.57C20.86 8 22 9.14 22 11.43v7.14c0 2.29-1.14 3.43-3.43 3.43Z" fill="#292D32"/><path d="M13.43 5.43v1.34c-2.62.21-4.11 1.89-4.11 4.66V16H5.43C3.14 16 2 14.86 2 12.57V5.43C2 3.14 3.14 2 5.43 2H10c2.29 0 3.43 1.14 3.43 3.43ZM18.13 14.251h-.88v-.88c0-.41-.34-.75-.75-.75s-.75.34-.75.75v.88h-.88c-.41 0-.75.34-.75.75s.34.75.75.75h.88v.88c0 .41.34.75.75.75s.75-.34.75-.75v-.88h.88c.41 0 .75-.34.75-.75s-.34-.75-.75-.75Z" fill="#292D32"/></svg>