<svg width="24" height="24" fill="none" xmlns="http://www.w3.org/2000/svg"><path d="M3 9a2 2 0 1 0 0-4 2 2 0 0 0 0 4ZM21 9a2 2 0 1 0 0-4 2 2 0 0 0 0 4ZM7.5 16.5v2c0 .61-.37 1.14-.89 1.36A1.4 1.4 0 0 1 6 20H4c-.83 0-1.5-.67-1.5-1.5v-2c0-.83.67-1.5 1.5-1.5h2c.83 0 1.5.67 1.5 1.5ZM21.5 16.5v2c0 .83-.67 1.5-1.5 1.5h-2a1.4 1.4 0 0 1-.61-.14c-.52-.22-.89-.75-.89-1.36v-2c0-.83.67-1.5 1.5-1.5h2c.83 0 1.5.67 1.5 1.5ZM15 5.5v3c0 .82-.68 1.5-1.5 1.5h-3C9.68 10 9 9.32 9 8.5v-3c0-.82.68-1.5 1.5-1.5h3c.82 0 1.5.68 1.5 1.5Z" fill="#292D32"/><g opacity=".4" fill="#292D32"><path opacity=".4" d="M9 6.25H5c-.41 0-.75.34-.75.75s.34.75.75.75h2.57c-2.05 1.52-3.32 4.04-3.32 6.75 0 .2.01.39.04.59.04.38.37.66.74.66h.09c.41-.05.71-.42.66-.83-.02-.14-.02-.27-.02-.41 0-2.6 1.41-5 3.59-6.1a.75.75 0 0 0 .33-1.01c-.01-.01-.02-.02-.02-.03.06-.11.11-.23.11-.36-.02-.42-.36-.76-.77-.76ZM16.43 7.75H19c.41 0 .75-.34.75-.75s-.34-.75-.75-.75h-4c-.41 0-.75.34-.75.75 0 .13.04.25.11.36-.01.01-.02.02-.02.03a.75.75 0 0 0 .33 1.01c2.18 1.1 3.59 3.5 3.59 6.1 0 .14-.01.27-.02.41-.05.41.25.78.66.83h.09c.38 0 .7-.28.74-.66.02-.2.04-.39.04-.59-.02-2.7-1.29-5.22-3.34-6.74Z"/></g></svg>