<svg width="24" height="24" fill="none" xmlns="http://www.w3.org/2000/svg"><path d="M12.5 17.532a.71.71 0 0 1-.53.22c-.19 0-.38-.07-.53-.22l-1.59-1.59c.59-.07 1.16-.21 1.69-.43l.96.96c.3.29.3.77 0 1.06ZM15.96 15.931c-.14.15-.34.23-.53.23s-.38-.08-.53-.22l-1.53-1.5c.39-.31.75-.67 1.06-1.07l1.52 1.5c.3.29.3.77.01 1.06ZM17.5 12.529a.71.71 0 0 1-.53.22c-.19 0-.38-.07-.53-.22l-.96-.96c.22-.53.36-1.1.43-1.69l1.59 1.59c.3.29.3.77 0 1.06Z" fill="#292D32"/><path d="M15.9 8.07A6.986 6.986 0 0 0 8.97 2c-3.87 0-7 3.13-7 7 0 3.55 2.64 6.48 6.07 6.93a6.397 6.397 0 0 0 1.81.01l-.38-.38a.754.754 0 0 1 0-1.06c.29-.3.77-.3 1.06 0l1.01 1.01c.67-.26 1.28-.62 1.83-1.07l-.9-.89a.745.745 0 0 1 0-1.06c.29-.29.76-.3 1.06-.01l.9.89c.44-.54.8-1.14 1.05-1.8l-1.01-1.01a.754.754 0 0 1 0-1.06c.29-.3.77-.3 1.06 0l.38.38a6.397 6.397 0 0 0-.01-1.81Z" fill="#292D32"/><path opacity=".4" d="M21.97 15c0 3.87-3.13 7-7 7-3.55 0-6.48-2.64-6.93-6.07a6.397 6.397 0 0 0 1.81.01l1.59 1.59c.15.15.34.22.53.22.2 0 .39-.07.53-.22.3-.29.3-.77 0-1.06l-.96-.96c.67-.26 1.28-.62 1.83-1.07l1.53 1.5c.15.14.34.22.53.22s.39-.08.53-.23c.29-.29.29-.77-.01-1.06l-1.52-1.5c.44-.54.8-1.14 1.05-1.8l.96.96c.15.15.34.22.53.22.2 0 .39-.07.53-.22.3-.29.3-.77 0-1.06l-1.59-1.59a6.397 6.397 0 0 0-.01-1.81c3.43.45 6.07 3.38 6.07 6.93Z" fill="#292D32"/></svg>