<svg width="24" height="24" fill="none" xmlns="http://www.w3.org/2000/svg"><path opacity=".4" d="M16.19 2H7.82C4.17 2 2 4.17 2 7.81v8.37c0 3.64 2.17 5.81 5.81 5.81h8.37c3.64 0 5.81-2.17 5.81-5.81V7.81C22 4.17 19.83 2 16.19 2Z" fill="#292D32"/><path opacity=".6" d="M13.2 14.4c0 1.06-.46 2.02-1.2 2.68-.64.58-1.48.92-2.4.92a3.598 3.598 0 0 1-.95-7.07A3.61 3.61 0 0 0 12 13.21c.33 0 .65-.04.95-.13.16.4.25.85.25 1.32Z" fill="#292D32"/><path d="M15.6 9.6c0 .47-.09.92-.25 1.33A3.61 3.61 0 0 1 12 13.21c-.33 0-.65-.04-.95-.13A3.587 3.587 0 0 1 8.4 9.6C8.4 7.61 10.01 6 12 6s3.6 1.61 3.6 3.6Z" fill="#292D32"/><path opacity=".4" d="M18 14.402a3.598 3.598 0 0 1-6 2.68 3.55 3.55 0 0 0 1.2-2.68c0-.47-.09-.92-.25-1.33 1.1-.3 1.99-1.1 2.4-2.15a3.62 3.62 0 0 1 2.65 3.48Z" fill="#292D32"/></svg>