<svg width="24" height="24" fill="none" xmlns="http://www.w3.org/2000/svg"><path d="m19.5 7.499-1.49 1.49-3-3 1.49-1.49c.42-.42.96-.62 1.5-.62s1.08.2 1.5.62c.83.83.83 2.17 0 3Z" fill="#292D32"/><path opacity=".4" d="M18.01 8.988 6.5 20.498c-.83.83-2.17.83-3 0-.83-.83-.83-2.17 0-3l11.51-11.51 3 3Z" fill="#292D32"/><path d="m9.95 3.5.41-1.39c.04-.13 0-.27-.09-.37-.09-.1-.25-.14-.38-.1l-1.39.41-1.39-.41c-.13-.04-.27 0-.37.09-.1.1-.13.24-.09.37l.4 1.4-.41 1.39c-.04.13 0 .27.09.37.1.1.24.13.37.09l1.4-.4 1.39.41c.04.01.07.02.11.02.1 0 .19-.04.27-.11.1-.1.13-.24.09-.37l-.41-1.4ZM5.95 9.5l.41-1.39c.04-.13 0-.27-.09-.37-.1-.1-.24-.13-.37-.09l-1.4.4-1.39-.41c-.13-.04-.27 0-.37.09-.1.1-.13.24-.09.37l.4 1.4-.41 1.39c-.04.13 0 .27.09.37.1.1.24.13.37.09l1.39-.41 1.39.41c.03.01.07.01.11.01.1 0 .19-.04.27-.11.1-.1.13-.24.09-.37l-.4-1.38ZM20.95 14.5l.41-1.39c.04-.13 0-.27-.09-.37-.1-.1-.24-.13-.37-.09l-1.39.41-1.39-.41c-.13-.04-.27 0-.37.09-.1.1-.13.24-.09.37l.41 1.39-.41 1.39c-.04.13 0 .27.09.37.1.1.24.13.37.09l1.39-.41 1.39.41c.03.01.07.01.11.01.1 0 .19-.04.27-.11.1-.1.13-.24.09-.37l-.42-1.38Z" fill="#292D32"/></svg>