<svg width="24" height="24" fill="none" xmlns="http://www.w3.org/2000/svg"><path opacity=".4" d="m20.95 14.55-2.67 2.67-1.06 1.06-2.67 2.67c-1.4 1.4-3.7 1.4-5.1 0l-2.67-2.67-1.06-1.06-2.67-2.67c-1.4-1.4-1.4-3.7 0-5.1l2.67-2.67 1.06-1.06 2.67-2.67c1.4-1.4 3.7-1.4 5.1 0l2.67 2.67 1.06 1.06 2.67 2.67c1.4 1.4 1.4 3.7 0 5.1Z" fill="#292D32"/><path d="m13.06 11.999 5.22 5.22-1.06 1.06-5.22-5.22-5.22 5.22-1.06-1.06 5.22-5.22-5.22-5.22 1.06-1.06 5.22 5.22 5.22-5.22 1.06 1.06-5.22 5.22Z" fill="#292D32"/></svg>