<svg width="24" height="24" fill="none" xmlns="http://www.w3.org/2000/svg"><path d="M14.15 22.002H9.87c-1.53 0-2.67-1.24-2.38-2.57l.7-3.08h7.64l.7 3.08c.32 1.41-.75 2.57-2.38 2.57Z" fill="#292D32"/><path opacity=".4" d="m18.77 13.74-2.94 2.61H8.19l-2.94-2.61c-1.71-1.4-1.71-2.48-.41-4.13l5.19-6.57c.36-.45.78-.76 1.23-.92a2.27 2.27 0 0 1 1.5 0c.45.16.87.47 1.23.92l5.19 6.57c1.3 1.65 1.24 2.67-.41 4.13Z" fill="#292D32"/><path d="M12.76 2.12v4.85c0 .41-.34.75-.75.75s-.75-.34-.75-.75V2.12a2.27 2.27 0 0 1 1.5 0Z" fill="#292D32"/></svg>