<svg width="24" height="24" fill="none" xmlns="http://www.w3.org/2000/svg"><path d="m21.711 11.35-3.01 1.9-6.08-6.08 1.89-3.01c.88-1.39 2.65-1.45 3.94-.16l3.41 3.41c1.22 1.23 1.14 3.12-.15 3.94Z" fill="#292D32"/><path opacity=".4" d="m16 21.29-9.36 1.1c-.65.08-1.23-.02-1.72-.26a2.59 2.59 0 0 1-1.19-1.19c-.24-.49-.33-1.06-.26-1.7l1.04-8.71c.17.09.36.17.55.23.45.16.93.24 1.44.24 1.14 0 2.17-.42 2.96-1.12a4.455 4.455 0 0 0 1.37-2.18c.06-.2.1-.41.13-.63l1.66.1 6.08 6.09.26 4.42c.25 2.48-.61 3.34-2.96 3.61Z" fill="#292D32"/><path d="m8.78 18.281-3.85 3.85c-.53-.26-.93-.66-1.19-1.19l3.85-3.85c.34-.33.87-.33 1.19 0 .33.33.33.86 0 1.19ZM6.5 2c-1.06 0-2.04.37-2.81.99A4.448 4.448 0 0 0 2 6.5c0 .84.24 1.64.65 2.32.44.73 1.08 1.33 1.86 1.71.17.09.36.17.55.23.45.16.93.24 1.44.24 1.14 0 2.17-.42 2.96-1.12a4.455 4.455 0 0 0 1.37-2.18c.06-.2.1-.41.13-.63.03-.19.04-.38.04-.57C11 4.01 8.99 2 6.5 2Zm1.73 6.21c-.15.15-.34.22-.53.22s-.38-.07-.53-.22l-.66-.66-.69.69c-.15.15-.34.22-.53.22s-.38-.07-.53-.22a.754.754 0 0 1 0-1.06l.69-.69-.66-.66a.754.754 0 0 1 0-1.06c.29-.29.77-.29 1.06 0l.66.66.63-.63c.29-.29.77-.29 1.06 0 .29.29.29.77 0 1.06l-.63.63.66.66c.3.29.3.76 0 1.06Z" fill="#292D32"/></svg>