<svg width="24" height="24" fill="none" xmlns="http://www.w3.org/2000/svg"><path d="m20.049 10.629-4.67-2.01-1.04-.44a.585.585 0 0 1-.3-.47v-3.06c0-.96-.71-2.1-1.57-2.54-.3-.15-.66-.15-.96 0-.85.44-1.56 1.59-1.56 2.55v3.06c0 .18-.14.39-.3.47l-5.7 2.45c-.63.26-1.14 1.05-1.14 1.73v1.32c0 .85.64 1.27 1.43.93l5.01-2.16c.39-.17.71.04.71.47v2.91c0 .23-.13.56-.29.72l-2.32 2.33c-.24.24-.35.71-.24 1.05l.45 1.36c.18.59.85.87 1.4.59l2.38-2c.36-.31.95-.31 1.31 0l2.38 2c.55.27 1.22 0 1.42-.59l.45-1.36c.11-.33 0-.81-.24-1.05l-2.32-2.33c-.17-.16-.3-.49-.3-.72v-2.91c0-.43.31-.63.71-.47l5.01 2.16c.79.34 1.43-.08 1.43-.93v-1.32c0-.68-.51-1.47-1.14-1.74Z" fill="#292D32"/></svg>