<svg width="24" height="24" fill="none" xmlns="http://www.w3.org/2000/svg"><path d="M21.75 7.998c0 .41-.34.75-.75.75H3c-.41 0-.75-.34-.75-.75s.34-.75.75-.75h1.02l.38-1.81c.36-1.75 1.11-3.36 4.09-3.36h7.02c2.98 0 3.73 1.61 4.09 3.36l.38 1.81H21c.41 0 .75.34.75.75ZM22.182 13.66c-.15-1.65-.59-3.41-3.8-3.41H5.621c-3.21 0-3.64 1.76-3.8 3.41l-.56 6.09c-.07.76.18 1.52.7 2.09.53.58 1.28.91 2.08.91h1.88c1.62 0 1.93-.93 2.13-1.54l.2-.6c.23-.69.29-.86 1.19-.86h5.12c.9 0 .93.1 1.19.86l.2.6c.2.61.51 1.54 2.13 1.54h1.88c.79 0 1.55-.33 2.08-.91.52-.57.77-1.33.7-2.09l-.56-6.09Zm-13.18 2.09h-3c-.41 0-.75-.34-.75-.75s.34-.75.75-.75h3c.41 0 .75.34.75.75s-.34.75-.75.75Zm9 0h-3c-.41 0-.75-.34-.75-.75s.34-.75.75-.75h3c.41 0 .75.34.75.75s-.34.75-.75.75Z" fill="#292D32"/></svg>