<svg width="24" height="24" fill="none" xmlns="http://www.w3.org/2000/svg"><path d="M12 18.75c-.41 0-.75-.34-.75-.75v-1c0-.41.34-.75.75-.75s.75.34.75.75v1c0 .41-.34.75-.75.75ZM12 22.75c-.41 0-.75-.34-.75-.75v-1c0-.41.34-.75.75-.75s.75.34.75.75v1c0 .41-.34.75-.75.75ZM1.998 22.748c-.06 0-.12-.01-.18-.02-.4-.1-.65-.51-.55-.91l1-4a.75.75 0 1 1 1.46.36l-1 4c-.09.34-.39.57-.73.57ZM21.753 22.503c-.34 0-.64-.23-.73-.57l-1-4c-.1-.4.14-.81.55-.91.4-.1.81.14.91.55l1 4c.1.4-.14.81-.55.91-.06.01-.12.02-.18.02ZM19.138 5.3c0 .3-.25.54-.54.54H5.528c-.3 0-.54-.25-.54-.54 0-.3.25-.54.54-.54h.74l.28-1.31c.26-1.28.8-2.45 2.96-2.45h5.09c2.16 0 2.71 1.17 2.97 2.44l.28 1.31h.74c.3 0 .55.25.55.55ZM19.448 9.4c-.11-1.2-.43-2.47-2.76-2.47h-9.26c-2.33 0-2.64 1.28-2.76 2.47l-.41 4.42c-.05.55.13 1.1.51 1.52.39.42.93.66 1.51.66h1.36c1.18 0 1.4-.67 1.55-1.12l.15-.44c.17-.5.21-.62.86-.62h3.72c.65 0 .67.07.86.62l.15.44c.14.45.37 1.12 1.54 1.12h1.36c.57 0 1.12-.24 1.51-.66.38-.41.56-.97.51-1.52l-.4-4.42Zm-9.57 1.52h-2.17c-.3 0-.54-.25-.54-.54 0-.29.25-.54.54-.54h2.18c.3 0 .54.25.54.54 0 .29-.25.54-.55.54Zm6.53 0h-2.18c-.3 0-.54-.25-.54-.54 0-.29.25-.54.54-.54h2.18c.3 0 .54.25.54.54 0 .29-.24.54-.54.54Z" fill="#292D32"/></svg>