<svg width="24" height="24" fill="none" xmlns="http://www.w3.org/2000/svg"><path d="m22.34 9.33-2-1c-.37-.18-.83-.04-1.01.33-.19.38-.04.83.33 1.01l1.59.79v4.79l-3.75.01V5c0-2-1.34-3-3-3h-8c-1.66 0-3 1-3 3v16.25H2c-.41 0-.75.34-.75.75s.34.75.75.75h17c.41 0 .75-.34.75-.75s-.34-.75-.75-.75h-1.5v-4.49l4.5-.01c.42 0 .75-.34.75-.75v-6a.76.76 0 0 0-.41-.67ZM6 6.89C6 5.5 6.85 5 7.89 5h5.23C14.15 5 15 5.5 15 6.89v1.23C15 9.5 14.15 10 13.11 10H7.89C6.85 10 6 9.5 6 8.11V6.89Zm.5 5.36h3c.41 0 .75.34.75.75s-.34.75-.75.75h-3c-.41 0-.75-.34-.75-.75s.34-.75.75-.75Z" fill="#292D32"/></svg>