<svg width="24" height="24" fill="none" xmlns="http://www.w3.org/2000/svg"><path opacity=".4" d="M23.53 12.048a.754.754 0 0 0-1.06 0l-.46.46v-.51c0-5.52-4.49-10.01-10.01-10.01-3.05 0-5.9 1.37-7.81 3.75-.26.32-.21.8.12 1.05.32.26.8.21 1.05-.12A8.476 8.476 0 0 1 12 3.478c4.69 0 8.51 3.82 8.51 8.51v.5l-.46-.46a.754.754 0 0 0-1.06 0c-.29.29-.29.77 0 1.06l1.74 1.74a.776.776 0 0 0 .53.22.753.753 0 0 0 .53-.22l1.74-1.74c.29-.27.29-.75 0-1.04ZM19.69 17.201a.738.738 0 0 0-1.05.12 8.476 8.476 0 0 1-6.64 3.19c-4.69 0-8.51-3.82-8.51-8.51v-.5l.46.46c.15.15.34.22.53.22s.38-.07.53-.22c.29-.29.29-.77 0-1.06l-1.74-1.74a.776.776 0 0 0-.24-.16.707.707 0 0 0-.57 0c-.09.04-.17.09-.24.16l-1.74 1.74c-.29.29-.29.77 0 1.06.29.29.77.29 1.06 0l.46-.46v.5c0 5.52 4.49 10.01 10.01 10.01 3.05 0 5.9-1.37 7.81-3.75.25-.32.2-.8-.13-1.06Z" fill="#292D32"/><path d="M15.45 11.64c.27-.4.42-.87.42-1.39 0-1.33-1.17-2.5-2.5-2.5h-.82v-1c0-.41-.34-.75-.75-.75s-.75.34-.75.75v1H9c-.41 0-.75.34-.75.75v7c0 .41.34.75.75.75h2.05v1c0 .41.34.75.75.75s.75-.34.75-.75v-1H14c1.52 0 2.75-1.12 2.75-2.5 0-.89-.52-1.67-1.3-2.11Zm-5.7-2.39h3.62c.55 0 1 .55 1 1 0 .55-.45 1-1 1H9.75v-2Zm4.25 5.5H9.75v-2H14c.69 0 1.25.45 1.25 1s-.56 1-1.25 1Z" fill="#292D32"/></svg>