<svg width="24" height="24" fill="none" xmlns="http://www.w3.org/2000/svg"><path opacity=".4" d="M22 7.538v8.92c0 2.29-1.86 4.14-4.15 4.14H6.15c-2.29 0-4.15-1.85-4.15-4.14v-8.92c0-2.29 1.86-4.14 4.15-4.14h11.7c2.29 0 4.15 1.85 4.15 4.14Z" fill="#292D32"/><path d="M9.25 12.75h-4c-.41 0-.75-.34-.75-.75s.34-.75.75-.75h4c.41 0 .75.34.75.75s-.34.75-.75.75ZM18.64 11.67c.14-.28.23-.59.23-.92 0-1.07-.93-2-2-2h-.61v-.5c0-.41-.34-.75-.75-.75s-.75.34-.75.75v.5h-2.01c-.41 0-.75.34-.75.75s.34.75.75.75H13v3.5h-.25c-.41 0-.75.34-.75.75s.34.75.75.75h2.01v.5c0 .41.34.75.75.75s.75-.34.75-.75v-.5h1.06c1.2 0 2.18-.9 2.18-2 0-.65-.34-1.21-.86-1.58Zm-3.7-1.42h1.94c.26 0 .5.28.5.5 0 .28-.22.5-.5.5H14.5v-1h.44Zm2.38 3.5H14.5v-1h2.83c.37 0 .68.23.68.5s-.32.5-.69.5Z" fill="#292D32"/></svg>