<svg width="24" height="24" fill="none" xmlns="http://www.w3.org/2000/svg"><path d="M22 10v5c0 5-2 7-7 7H9c-5 0-7-2-7-7V9c0-5 2-7 7-7h5" stroke="#292D32" stroke-width="1.5" stroke-linecap="round" stroke-linejoin="round"/><path d="M22 10h-4c-3 0-4-1-4-4V2l8 8ZM6.62 15.73c-.33-1.03.06-2.3 1.13-2.65.57-.18 1.27-.03 1.66.52.37-.57 1.1-.7 1.66-.52 1.08.35 1.46 1.62 1.14 2.65-.51 1.63-2.3 2.48-2.8 2.48-.49-.01-2.26-.84-2.79-2.48Z" stroke="#292D32" stroke-width="1.5" stroke-linecap="round" stroke-linejoin="round"/></svg>