<svg width="24" height="24" fill="none" xmlns="http://www.w3.org/2000/svg"><path d="M1.996 8.5h9.5" stroke="#292D32" stroke-width="1.5" stroke-miterlimit="10" stroke-linecap="round" stroke-linejoin="round"/><path opacity=".4" d="M5.996 16.5h2M10.496 16.5h4" stroke="#292D32" stroke-width="1.5" stroke-miterlimit="10" stroke-linecap="round" stroke-linejoin="round"/><path d="M21.996 12.03v4.08c0 3.51-.89 4.39-4.44 4.39H6.436c-3.55 0-4.44-.88-4.44-4.39V7.89c0-3.51.89-4.39 4.44-4.39h8.06" stroke="#292D32" stroke-width="1.5" stroke-linecap="round" stroke-linejoin="round"/><g opacity=".4" stroke="#292D32" stroke-width="1.5" stroke-miterlimit="10" stroke-linecap="round" stroke-linejoin="round"><path d="m19.076 4.131-3.71 3.71c-.14.14-.28.42-.31.62l-.2 1.42c-.07.51.29.87.8.8l1.42-.2c.2-.03.48-.17.62-.31l3.71-3.71c.64-.64.94-1.38 0-2.32-.95-.95-1.69-.65-2.33-.01Z"/><path d="M18.547 4.66c.32 1.13 1.2 2.01 2.32 2.32"/></g></svg>