<svg width="24" height="24" fill="none" xmlns="http://www.w3.org/2000/svg"><g opacity=".4" stroke="#292D32" stroke-width="1.5" stroke-miterlimit="10" stroke-linecap="round" stroke-linejoin="round"><path d="M10.11 11.152H7.46c-.63 0-1.14.51-1.14 1.14v5.12h3.79v-6.26 0Z"/><path d="M12.762 6.602h-1.52c-.63 0-1.14.51-1.14 1.14v9.66h3.79v-9.66c0-.63-.5-1.14-1.13-1.14ZM16.548 12.852h-2.65v4.55h3.79v-3.41c-.01-.63-.52-1.14-1.14-1.14Z"/></g><path d="M9 22h6c5 0 7-2 7-7V9c0-5-2-7-7-7H9C4 2 2 4 2 9v6c0 5 2 7 7 7Z" stroke="#292D32" stroke-width="1.5" stroke-linecap="round" stroke-linejoin="round"/></svg>