<svg width="24" height="24" fill="none" xmlns="http://www.w3.org/2000/svg"><path d="m3.989 14.659-1.52-1.52c-.62-.62-.62-1.64 0-2.26l1.52-1.52c.26-.26.47-.77.47-1.13v-2.15c0-.88.72-1.6 1.6-1.6h2.15c.36 0 .87-.21 1.13-.47l1.52-1.52c.62-.62 1.64-.62 2.26 0l1.52 1.52c.26.26.77.47 1.13.47h2.15c.88 0 1.6.72 1.6 1.6v2.15c0 .36.21.87.47 1.13l1.52 1.52c.62.62.62 1.64 0 2.26l-1.52 1.52c-.26.26-.47.77-.47 1.13v2.15c0 .88-.72 1.6-1.6 1.6h-2.15c-.36 0-.87.21-1.13.47l-1.52 1.52c-.62.62-1.64.62-2.26 0l-1.52-1.52c-.26-.26-.77-.47-1.13-.47h-2.15c-.88 0-1.6-.72-1.6-1.6v-2.15c0-.37-.21-.88-.47-1.13Z" stroke="#292D32" stroke-width="1.5" stroke-linecap="round" stroke-linejoin="round"/><path opacity=".4" d="m9 15 6-6" stroke="#292D32" stroke-width="1.5" stroke-linecap="round" stroke-linejoin="round"/><path opacity=".4" d="M14.495 14.5h.009M9.495 9.5h.008" stroke="#292D32" stroke-width="2" stroke-linecap="round" stroke-linejoin="round"/></svg>