<svg width="24" height="24" fill="none" xmlns="http://www.w3.org/2000/svg"><path d="M2.5 13.24v-1.73c0-2.07 1.69-3.76 3.76-3.76h11.48c2.07 0 3.76 1.69 3.76 3.76v1.44h-2.02c-.56 0-1.07.22-1.44.6-.42.41-.66 1-.6 1.63.09 1.08 1.08 1.87 2.16 1.87h1.9v1.19c0 2.07-1.69 3.76-3.76 3.76h-5.48" stroke="#292D32" stroke-width="1.5" stroke-linecap="round" stroke-linejoin="round"/><path opacity=".4" d="M2.5 12.411v-4.57c0-1.19.73-2.25 1.84-2.67l7.94-3a1.9 1.9 0 0 1 2.57 1.78v3.8" stroke="#292D32" stroke-width="1.5" stroke-linecap="round" stroke-linejoin="round"/><path d="M22.559 13.97v2.06c0 .55-.44 1-1 1.02h-1.96c-1.08 0-2.07-.79-2.16-1.87-.06-.63.18-1.22.6-1.63.37-.38.88-.6 1.44-.6h2.08c.56.02 1 .47 1 1.02Z" stroke="#292D32" stroke-width="1.5" stroke-linecap="round" stroke-linejoin="round"/><path opacity=".4" d="M7 12h7" stroke="#292D32" stroke-width="1.5" stroke-linecap="round" stroke-linejoin="round"/><path d="M3 16.5h5.34c.64 0 1.16.52 1.16 1.16v1.28" stroke="#292D32" stroke-width="1.5" stroke-miterlimit="10" stroke-linecap="round" stroke-linejoin="round"/><path d="M4.22 15.281 3 16.501l1.22 1.22M9.5 21.78H4.16c-.64 0-1.16-.52-1.16-1.16v-1.28" stroke="#292D32" stroke-width="1.5" stroke-miterlimit="10" stroke-linecap="round" stroke-linejoin="round"/><path d="m8.281 23.003 1.22-1.22-1.22-1.22" stroke="#292D32" stroke-width="1.5" stroke-miterlimit="10" stroke-linecap="round" stroke-linejoin="round"/></svg>