<svg width="24" height="24" fill="none" xmlns="http://www.w3.org/2000/svg"><path d="M18.04 13.55c-.42.41-.66 1-.6 1.63.09 1.08 1.08 1.87 2.16 1.87h1.9v1.19c0 2.07-1.69 3.76-3.76 3.76H7.64C8.47 21.27 9 20.2 9 19a3.999 3.999 0 0 0-6.5-3.12v-4.37c0-2.07 1.69-3.76 3.76-3.76h11.48c2.07 0 3.76 1.69 3.76 3.76v1.44h-2.02c-.56 0-1.07.22-1.44.6Z" stroke="#292D32" stroke-width="1.5" stroke-linecap="round" stroke-linejoin="round"/><path opacity=".4" d="M2.5 11.512v-3.67c0-1.19.73-2.25 1.84-2.67l7.94-3c1.24-.46 2.57.45 2.57 1.78v3.8" stroke="#292D32" stroke-width="1.5" stroke-linecap="round" stroke-linejoin="round"/><path d="M22.559 13.97v2.06c0 .55-.44 1-1 1.02h-1.96c-1.08 0-2.07-.79-2.16-1.87-.06-.63.18-1.22.6-1.63.37-.38.88-.6 1.44-.6h2.08c.56.02 1 .47 1 1.02Z" stroke="#292D32" stroke-width="1.5" stroke-linecap="round" stroke-linejoin="round"/><path opacity=".4" d="M7 12h7" stroke="#292D32" stroke-width="1.5" stroke-linecap="round" stroke-linejoin="round"/><path d="M9 19c0 1.2-.53 2.27-1.36 3A4 4 0 0 1 5 23c-2.21 0-4-1.79-4-4 0-1.26.58-2.39 1.5-3.12A3.999 3.999 0 0 1 9 19Z" stroke="#292D32" stroke-width="1.5" stroke-miterlimit="10" stroke-linecap="round" stroke-linejoin="round"/><path d="M5.25 17.75v1.5L4 20" stroke="#292D32" stroke-width="1.5" stroke-miterlimit="10" stroke-linecap="round" stroke-linejoin="round"/></svg>