<svg width="24" height="24" fill="none" xmlns="http://www.w3.org/2000/svg"><path d="M2 11V9c0-3.5 2-5 5-5h10c3 0 5 1.5 5 5v6c0 3.5-2 5-5 5h-5" stroke="#292D32" stroke-width="1.5" stroke-miterlimit="10" stroke-linecap="round" stroke-linejoin="round"/><path opacity=".4" d="M12 14.5a2.5 2.5 0 1 0 0-5 2.5 2.5 0 0 0 0 5ZM18.5 9.5v5" stroke="#292D32" stroke-width="1.5" stroke-miterlimit="10" stroke-linecap="round" stroke-linejoin="round"/><path d="M2 15.5h5.34c.64 0 1.16.52 1.16 1.16v1.28" stroke="#292D32" stroke-width="1.5" stroke-miterlimit="10" stroke-linecap="round" stroke-linejoin="round"/><path d="M3.22 14.281 2 15.501l1.22 1.22M8.5 20.78H3.16c-.64 0-1.16-.52-1.16-1.16v-1.28" stroke="#292D32" stroke-width="1.5" stroke-miterlimit="10" stroke-linecap="round" stroke-linejoin="round"/><path d="m7.281 22.003 1.22-1.22-1.22-1.22" stroke="#292D32" stroke-width="1.5" stroke-miterlimit="10" stroke-linecap="round" stroke-linejoin="round"/></svg>