<svg width="24" height="24" fill="none" xmlns="http://www.w3.org/2000/svg"><g opacity=".4" stroke="#292D32" stroke-width="1.5" stroke-linecap="round" stroke-linejoin="round"><path d="M9.5 13.748c0 .97.75 1.75 1.67 1.75h1.88c.8 0 1.45-.68 1.45-1.53 0-.91-.4-1.24-.99-1.45l-3.01-1.05c-.59-.21-.99-.53-.99-1.45 0-.84.65-1.53 1.45-1.53h1.88c.92 0 1.67.78 1.67 1.75M12 7.5v9"/></g><path d="M22 12c0 5.52-4.48 10-10 10S2 17.52 2 12 6.48 2 12 2" stroke="#292D32" stroke-width="1.5" stroke-linecap="round" stroke-linejoin="round"/><path d="M17 3v4h4M22 2l-5 5" stroke="#292D32" stroke-width="1.5" stroke-linecap="round" stroke-linejoin="round"/></svg>