<svg width="24" height="24" fill="none" xmlns="http://www.w3.org/2000/svg"><path d="M6.73 19.7c.82-.88 2.07-.81 2.79.15l1.01 1.35c.81 1.07 2.12 1.07 2.93 0l1.01-1.35c.72-.96 1.97-1.03 2.79-.15 1.78 1.9 3.23 1.27 3.23-1.39V7.04C20.5 3.01 19.56 2 15.78 2H8.22C4.44 2 3.5 3.01 3.5 7.04V18.3c0 2.67 1.46 3.29 3.23 1.4Z" stroke="#292D32" stroke-width="1.5" stroke-linecap="round" stroke-linejoin="round"/><path opacity=".4" d="M8.096 11h.01" stroke="#292D32" stroke-width="2" stroke-linecap="round" stroke-linejoin="round"/><path opacity=".4" d="M10.898 11h5.5" stroke="#292D32" stroke-width="1.5" stroke-linecap="round" stroke-linejoin="round"/><path opacity=".4" d="M8.096 7h.01" stroke="#292D32" stroke-width="2" stroke-linecap="round" stroke-linejoin="round"/><path opacity=".4" d="M10.898 7h5.5" stroke="#292D32" stroke-width="1.5" stroke-linecap="round" stroke-linejoin="round"/></svg>