<svg width="24" height="24" fill="none" xmlns="http://www.w3.org/2000/svg"><path d="m4.405 15.526 4.53 4.53a4.78 4.78 0 0 0 6.75 0l4.39-4.39a4.78 4.78 0 0 0 0-6.75l-4.54-4.52a4.75 4.75 0 0 0-3.6-1.39l-5 .24c-2 .09-3.59 1.68-3.69 3.67l-.24 5c-.06 1.35.45 2.66 1.4 3.61Z" stroke="#292D32" stroke-width="1.5" stroke-linecap="round" stroke-linejoin="round"/><path opacity=".4" d="M9.734 12.227a2.5 2.5 0 1 0 0-5 2.5 2.5 0 0 0 0 5Z" stroke="#292D32" stroke-width="1.5" stroke-linecap="round"/><path opacity=".4" d="m13.234 17.227 4-4" stroke="#292D32" stroke-width="1.5" stroke-miterlimit="10" stroke-linecap="round" stroke-linejoin="round"/></svg>