<svg width="24" height="24" fill="none" xmlns="http://www.w3.org/2000/svg"><g opacity=".4" stroke="#292D32" stroke-width="1.5" stroke-miterlimit="10" stroke-linecap="round" stroke-linejoin="round"><path d="M14.262 15.441h-5M11.762 13v5"/></g><path d="m12.66 2.518-.03.07-2.9 6.73H6.88c-.68 0-1.33.14-1.92.39l1.75-4.18.04-.1.07-.16c.02-.06.04-.12.07-.17 1.31-3.03 2.79-3.72 5.77-2.58ZM18.05 9.52c-.45-.14-.93-.2-1.41-.2H9.73l2.9-6.73.03-.07c.15.05.29.12.44.18l2.21.93c1.23.51 2.09 1.04 2.61 1.68.1.12.18.23.25.36.09.14.16.28.2.43.04.09.07.18.09.26.27.84.11 1.87-.41 3.16Z" stroke="#292D32" stroke-width="1.5" stroke-linecap="round" stroke-linejoin="round"/><path d="M21.522 14.2v1.95c0 .2-.01.4-.02.6-.19 3.49-2.14 5.25-5.84 5.25h-7.8c-.24 0-.48-.02-.71-.05-3.18-.21-4.88-1.91-5.09-5.09-.03-.23-.05-.47-.05-.71V14.2c0-2.01 1.22-3.74 2.96-4.49.6-.25 1.24-.39 1.92-.39h9.76c.49 0 .97.07 1.41.2 1.99.61 3.46 2.47 3.46 4.68Z" stroke="#292D32" stroke-width="1.5" stroke-linecap="round" stroke-linejoin="round"/><path opacity=".4" d="m6.71 5.527-1.75 4.18A4.894 4.894 0 0 0 2 14.197v-2.93c0-2.84 2.02-5.21 4.71-5.74ZM21.519 11.268v2.93c0-2.2-1.46-4.07-3.46-4.67.52-1.3.67-2.32.42-3.17-.02-.09-.05-.18-.09-.26 1.86.96 3.13 2.93 3.13 5.17Z" stroke="#292D32" stroke-width="1.5" stroke-linecap="round" stroke-linejoin="round"/></svg>