<svg width="24" height="24" fill="none" xmlns="http://www.w3.org/2000/svg"><path opacity=".4" d="M22.75 22c0 .41-.34.75-.75.75H2c-.41 0-.75-.34-.75-.75s.34-.75.75-.75h20c.41 0 .75.34.75.75Z" fill="#292D32"/><path d="M21 15v6.25H3V15a9 9 0 0 1 18 0Z" fill="#292D32"/><path opacity=".4" d="M12 3.75c-.41 0-.75-.34-.75-.75V2c0-.41.34-.75.75-.75s.75.34.75.75v1c0 .41-.34.75-.75.75ZM5.001 5.751c-.19 0-.38-.07-.53-.22l-1-1a.754.754 0 0 1 0-1.06c.29-.29.77-.29 1.06 0l1 1c.29.29.29.77 0 1.06-.15.15-.34.22-.53.22ZM19.001 5.751c-.19 0-.38-.07-.53-.22a.754.754 0 0 1 0-1.06l1-1c.29-.29.77-.29 1.06 0 .29.29.29.77 0 1.06l-1 1c-.15.15-.34.22-.53.22Z" fill="#292D32"/></svg>