<svg width="24" height="24" fill="none" xmlns="http://www.w3.org/2000/svg"><path opacity=".4" d="M21.25 9.15C18.94 5.52 15.56 3.43 12 3.43c-1.78 0-3.51.52-5.09 1.49-1.58.98-3 2.41-4.16 4.23-1 1.57-1 4.12 0 5.69 2.31 3.64 5.69 5.72 9.25 5.72 1.78 0 3.51-.52 5.09-1.49 1.58-.98 3-2.41 4.16-4.23 1-1.56 1-4.12 0-5.69ZM12 16.04c-2.24 0-4.04-1.81-4.04-4.04S9.76 7.96 12 7.96s4.04 1.81 4.04 4.04-1.8 4.04-4.04 4.04Z" fill="#292D32"/><path d="M11.998 9.14a2.855 2.855 0 0 0 0 5.71c1.57 0 2.86-1.28 2.86-2.85s-1.29-2.86-2.86-2.86Z" fill="#292D32"/></svg>