<svg width="24" height="24" fill="none" xmlns="http://www.w3.org/2000/svg"><path d="M13.63 15.72c0 .9-.73 1.63-1.63 1.63-.64 0-1.19-.37-1.45-.9l2.18-2.18c.53.26.9.81.9 1.45Z" fill="#292D32"/><path opacity=".4" d="M7.35 9.441c-4.1 0-5.35 1.25-5.35 5.35v1.86c0 2.05.31 3.39 1.14 4.21l5.96-5.96c.28-1.01 1.07-1.8 2.08-2.08l3.38-3.38H7.35Z" fill="#292D32"/><path d="m18.129 5.87-1.26 1.26c-.04-1.78-.71-3.73-4.87-3.73-4.05 0-4.88 1.95-4.88 4.88v1.17c-.51 0-.98.03-1.4.08V8.28c0-2.7.65-6.28 6.28-6.28 3.54 0 5.6 1.3 6.13 3.87Z" fill="#292D32"/><path opacity=".4" d="M22.002 14.79v1.86c0 4.1-1.25 5.35-5.35 5.35h-9.3c-.84 0-1.57-.05-2.18-.17l4.36-4.36a3.04 3.04 0 0 0 2.47 1.27c1.67 0 3.02-1.35 3.02-3.02 0-1.02-.5-1.91-1.27-2.47l3.79-3.79c3.39.19 4.46 1.54 4.46 5.33Z" fill="#292D32"/><path d="M21.769 2.229c-.3-.3-.79-.3-1.09 0l-18.45 18.46c-.3.3-.3.79 0 1.09a.758.758 0 0 0 1.08-.01l18.46-18.46c.31-.3.31-.78 0-1.08Z" fill="#292D32"/></svg>