<svg width="24" height="24" fill="none" xmlns="http://www.w3.org/2000/svg"><path d="M22 9.75c-.41 0-.75-.34-.75-.75V7c0-2.58-1.67-4.25-4.25-4.25H7C4.42 2.75 2.75 4.42 2.75 7v2c0 .41-.34.75-.75.75s-.75-.34-.75-.75V7c0-3.44 2.31-5.75 5.75-5.75h10c3.44 0 5.75 2.31 5.75 5.75v2c0 .41-.34.75-.75.75ZM17 22.75H7c-3.44 0-5.75-2.31-5.75-5.75v-2c0-.41.34-.75.75-.75s.75.34.75.75v2c0 2.58 1.67 4.25 4.25 4.25h10c2.58 0 4.25-1.67 4.25-4.25v-2c0-.41.34-.75.75-.75s.75.34.75.75v2c0 3.44-2.31 5.75-5.75 5.75ZM22 12.75H2c-.41 0-.75-.34-.75-.75s.34-.75.75-.75h20c.41 0 .75.34.75.75s-.34.75-.75.75Z" fill="#292D32"/><path opacity=".4" d="M16.5 9h-9c-.28 0-.5-.22-.5-.5v-2C7 5.68 7.67 5 8.5 5h7c.83 0 1.5.68 1.5 1.5v2c0 .28-.22.5-.5.5ZM16.5 15h-9c-.28 0-.5.22-.5.5v2c0 .82.67 1.5 1.5 1.5h7c.83 0 1.5-.68 1.5-1.5v-2c0-.28-.22-.5-.5-.5Z" fill="#292D32"/></svg>