<svg width="24" height="24" fill="none" xmlns="http://www.w3.org/2000/svg"><path opacity=".4" d="M2.77 10C2.34 10 2 9.66 2 9.23V6.92A4.93 4.93 0 0 1 6.92 2h2.31c.43 0 .77.34.77.77s-.34.77-.77.77H6.92c-1.87 0-3.38 1.52-3.38 3.38v2.31c0 .43-.35.77-.77.77ZM21.23 10a.77.77 0 0 1-.77-.77V6.92c0-1.87-1.52-3.38-3.38-3.38h-2.31a.77.77 0 0 1 0-1.54h2.31A4.93 4.93 0 0 1 22 6.92v2.31c0 .43-.34.77-.77.77Z" fill="#292D32"/><path d="M17.082 22h-1.39a.77.77 0 0 1 0-1.54h1.39c1.87 0 3.38-1.52 3.38-3.38V15.7a.77.77 0 0 1 1.54 0v1.38a4.93 4.93 0 0 1-4.92 4.92ZM9.23 22H6.92A4.93 4.93 0 0 1 2 17.08v-2.31c0-.43.34-.77.77-.77s.77.34.77.77v2.31c0 1.87 1.52 3.38 3.38 3.38h2.31a.77.77 0 0 1 0 1.54ZM18.46 11.23H5.54a.77.77 0 0 0 0 1.54H18.46a.77.77 0 0 0 0-1.54ZM6.898 13.94v.33c0 1.66 1.34 3 3 3h4.2c1.66 0 3-1.34 3-3v-.33c0-.12-.09-.21-.21-.21h-9.78c-.12 0-.21.09-.21.21Z" fill="#292D32"/><path opacity=".4" d="M6.898 10.06v-.33c0-1.66 1.34-3 3-3h4.2c1.66 0 3 1.34 3 3v.33c0 .12-.09.21-.21.21h-9.78c-.12 0-.21-.09-.21-.21Z" fill="#292D32"/></svg>