<svg width="24" height="24" fill="none" xmlns="http://www.w3.org/2000/svg"><path opacity=".4" d="m9.96 2.11-5.5 2.06c-1.05.4-1.91 1.64-1.91 2.77v8.1c0 .81.53 1.88 1.18 2.36l5.5 4.11c.97.73 2.56.73 3.53 0l5.5-4.11c.65-.49 1.18-1.55 1.18-2.36v-8.1c0-1.12-.86-2.37-1.91-2.76l-5.5-2.06c-.56-.22-1.5-.22-2.07-.01Z" fill="#292D32"/><path d="M16 11.512c-2.48 0-4.5 2.02-4.5 4.5s2.02 4.5 4.5 4.5 4.5-2.02 4.5-4.5a4.5 4.5 0 0 0-4.5-4.5ZM21 22c-.27 0-.52-.11-.71-.29-.04-.05-.09-.1-.12-.16a.556.556 0 0 1-.09-.17.636.636 0 0 1-.06-.18c-.01-.07-.02-.13-.02-.2 0-.13.03-.26.08-.38.05-.13.12-.23.21-.33.23-.23.58-.34.9-.27.07.01.13.03.19.06.06.02.12.05.17.09.06.03.11.08.16.12.09.1.16.2.21.33.05.12.08.25.08.38 0 .26-.11.52-.29.71-.05.04-.1.08-.16.12-.05.04-.11.07-.17.09-.06.03-.12.05-.19.06-.06.01-.13.02-.19.02Z" fill="#292D32"/></svg>