<svg width="24" height="24" fill="none" xmlns="http://www.w3.org/2000/svg"><path opacity=".4" d="M12.001 17.35a1.63 1.63 0 1 0 0-3.26 1.63 1.63 0 0 0 0 3.26Z" fill="#292D32"/><path d="M16.65 9.441h-9.3c-4.1 0-5.35 1.25-5.35 5.35v1.86c0 4.1 1.25 5.35 5.35 5.35h9.3c4.1 0 5.35-1.25 5.35-5.35v-1.86c0-4.1-1.25-5.35-5.35-5.35Zm-4.65 9.3c-1.67 0-3.02-1.36-3.02-3.02s1.35-3.02 3.02-3.02 3.02 1.36 3.02 3.02-1.35 3.02-3.02 3.02Z" fill="#292D32"/><path opacity=".4" d="M7.119 9.45V8.28c0-2.93.83-4.88 4.88-4.88 4.33 0 4.88 2.11 4.88 3.95 0 .39.31.7.7.7.39 0 .7-.31.7-.7 0-3.55-2.11-5.35-6.28-5.35-5.63 0-6.28 3.58-6.28 6.28v1.25c.42-.05.89-.08 1.4-.08Z" fill="#292D32"/></svg>