<svg width="24" height="24" fill="none" xmlns="http://www.w3.org/2000/svg"><path d="M21 10H3c-.55 0-1 .45-1 1v5.19c0 .2.01.4.03.6.2 3.08 2.1 4.98 5.18 5.18.2.02.4.03.6.03h8.38c.2 0 .4-.01.6-.03 3.08-.2 4.98-2.1 5.18-5.18.02-.2.03-.4.03-.6V11c0-.55-.45-1-1-1ZM8 16.15c.34.5.8.91 1.33 1.18.38.18.53.63.34 1.01-.13.26-.4.41-.67.41-.11 0-.23-.03-.33-.08-.78-.38-1.44-.97-1.91-1.68-.4-.6-.4-1.38 0-1.98.47-.71 1.13-1.3 1.91-1.68.37-.19.82-.04 1 .33.19.38.04.83-.34 1.01-.53.27-.99.68-1.33 1.18-.06.09-.06.21 0 .3Zm9.45.84c-.48.71-1.14 1.3-1.91 1.68a.742.742 0 0 1-1-.33.745.745 0 0 1 .33-1.01c.54-.27 1-.68 1.33-1.18a.24.24 0 0 0 0-.3c-.33-.5-.79-.91-1.33-1.18a.745.745 0 0 1-.33-1.01c.18-.37.63-.52 1-.33.77.38 1.43.97 1.91 1.68.4.6.4 1.38 0 1.98ZM22 7.81V8c0 .55-.45 1-1 1L3 9.01c-.55 0-1-.45-1-1v-.2c0-.2.01-.4.03-.6.2-3.08 2.1-4.98 5.18-5.18.2-.02.4-.03.6-.03h8.38c.2 0 .4.01.6.03 3.08.2 4.98 2.1 5.18 5.18.02.2.03.4.03.6Z" fill="#292D32"/></svg>