<svg width="24" height="24" fill="none" xmlns="http://www.w3.org/2000/svg"><path d="M16.19 2H7.81C4.17 2 2 4.17 2 7.81v8.37C2 19.83 4.17 22 7.81 22h8.37c3.64 0 5.81-2.17 5.81-5.81V7.81C22 4.17 19.83 2 16.19 2ZM9.94 13.27a7.077 7.077 0 0 1-2.72 2.4.742.742 0 0 1-1-.33.745.745 0 0 1 .34-1.01c.87-.43 1.61-1.09 2.14-1.89.18-.27.18-.61 0-.88-.54-.8-1.28-1.46-2.14-1.89a.74.74 0 0 1-.34-1.01c.18-.37.63-.52 1-.33 1.1.55 2.04 1.38 2.72 2.4.52.77.52 1.77 0 2.54ZM17 15.75h-4c-.41 0-.75-.34-.75-.75s.34-.75.75-.75h4c.41 0 .75.34.75.75s-.34.75-.75.75Z" fill="#292D32"/></svg>