<svg width="24" height="24" fill="none" xmlns="http://www.w3.org/2000/svg"><path d="M20 14.25a2.25 2.25 0 1 0 0-4.5 2.25 2.25 0 0 0 0 4.5ZM20 6.25a2.25 2.25 0 1 0 0-4.5 2.25 2.25 0 0 0 0 4.5ZM20 22.25a2.25 2.25 0 1 0 0-4.5 2.25 2.25 0 0 0 0 4.5ZM4 14.25a2.25 2.25 0 1 0 0-4.5 2.25 2.25 0 0 0 0 4.5Z" fill="#292D32"/><path d="M19 12.75c.41 0 .75-.34.75-.75s-.34-.75-.75-.75h-7.25V7c0-1.58.67-2.25 2.25-2.25h5c.41 0 .75-.34.75-.75s-.34-.75-.75-.75h-5c-2.42 0-3.75 1.33-3.75 3.75v4.25H5c-.41 0-.75.34-.75.75s.34.75.75.75h5.25V17c0 2.42 1.33 3.75 3.75 3.75h5c.41 0 .75-.34.75-.75s-.34-.75-.75-.75h-5c-1.58 0-2.25-.67-2.25-2.25v-4.25H19Z" fill="#292D32"/></svg>