<svg width="24" height="24" fill="none" xmlns="http://www.w3.org/2000/svg"><path d="M16 2H8C4.5 2 3 4 3 7v4.47c0 .35.34.59.66.47a6.45 6.45 0 0 1 3.64-.31c2.6.52 4.67 2.66 5.1 5.27.26 1.59-.06 3.1-.79 4.35-.2.33.04.75.43.75H16c3.5 0 5-2 5-5V7c0-3-1.5-5-5-5Zm2.5 7.25h-2c-1.52 0-2.75-1.23-2.75-2.75v-2c0-.41.34-.75.75-.75s.75.34.75.75v2c0 .69.56 1.25 1.25 1.25h2c.41 0 .75.34.75.75s-.34.75-.75.75Z" fill="#292D32"/><path d="M6 13c-2.76 0-5 2.24-5 5s2.24 5 5 5 5-2.24 5-5-2.24-5-5-5Zm-.84 6.27c.25.25.25.66 0 .92-.13.13-.29.19-.46.19-.17 0-.33-.06-.46-.19l-1.73-1.73a.658.658 0 0 1 0-.92l1.73-1.73c.25-.25.66-.25.92 0 .25.25.25.66 0 .92L3.89 18l1.27 1.27Zm4.32-.81-1.73 1.73c-.13.13-.29.19-.46.19-.17 0-.33-.06-.46-.19a.658.658 0 0 1 0-.92L8.11 18l-1.27-1.27a.658.658 0 0 1 0-.92c.25-.25.66-.25.92 0l1.73 1.73c.24.26.24.66-.01.92Z" fill="#292D32"/></svg>