<svg width="24" height="24" fill="none" xmlns="http://www.w3.org/2000/svg"><path d="M10.42 13.418h2.84l.32-2.84h-2.84l-.32 2.84Z" fill="#292D32"/><path d="M16.19 2H7.81C4.17 2 2 4.17 2 7.81v8.37C2 19.83 4.17 22 7.81 22h8.37c3.64 0 5.81-2.17 5.81-5.81V7.81C22 4.17 19.83 2 16.19 2Zm2.63 8.58h-3.77l-.32 2.85h3.37c.4 0 .73.33.73.73 0 .4-.33.73-.73.73h-3.53l-.41 3.66c-.04.37-.36.65-.73.65h-.08a.739.739 0 0 1-.65-.81l.39-3.5h-2.84l-.41 3.66c-.04.37-.36.65-.73.65h-.08a.739.739 0 0 1-.65-.81l.39-3.5H5.18c-.4 0-.73-.33-.73-.73 0-.4.33-.73.73-.73h3.77l.32-2.85H5.9c-.4 0-.73-.33-.73-.73 0-.4.33-.73.73-.73h3.53l.41-3.66c.04-.4.41-.69.81-.65.4.04.69.41.65.81l-.39 3.5h2.84l.41-3.66c.05-.4.41-.69.81-.65.4.04.69.41.65.81l-.39 3.5h3.61c.4 0 .73.33.73.73 0 .4-.35.73-.75.73Z" fill="#292D32"/></svg>