<svg width="24" height="24" fill="none" xmlns="http://www.w3.org/2000/svg"><path d="M18.75 22a3.25 3.25 0 1 0 0-6.5 3.25 3.25 0 0 0 0 6.5ZM19 8a3 3 0 1 0 0-6 3 3 0 0 0 0 6ZM5 8a3 3 0 1 0 0-6 3 3 0 0 0 0 6Z" fill="#292D32"/><path d="M4.83 8.02a6.929 6.929 0 0 0 6.54 4.65h.03l3.53-.01c1.52-.02 2.88 1.01 3.29 2.49V17c0 .42.34.76.77.76.42 0 .76-.34.76-.76V5.76a.76.76 0 0 0-.76-.76c-.42 0-.77.34-.77.76v6.62a4.941 4.941 0 0 0-3.28-1.26h-.02l-3.53.01h-.02c-2.29 0-4.34-1.45-5.09-3.62A.786.786 0 0 0 5.55 7c-.08 0-.17.02-.25.04a.77.77 0 0 0-.47.98Z" fill="#292D32"/></svg>