<svg width="24" height="24" fill="none" xmlns="http://www.w3.org/2000/svg"><path d="M16.19 2H7.81C4.17 2 2 4.17 2 7.81v8.37C2 19.83 4.17 22 7.81 22h8.37c3.64 0 5.81-2.17 5.81-5.81V7.81C22 4.17 19.83 2 16.19 2Zm.01 16.25c-1.13 0-2.05-.92-2.05-2.05 0-.66.32-1.24.81-1.62-.42-1.1-1.47-1.86-2.65-1.82l-2.06.01h-.01c-.61 0-1.19-.18-1.68-.49v2.02c.76.3 1.3 1.04 1.3 1.9 0 1.13-.92 2.05-2.05 2.05s-2.05-.92-2.05-2.05c0-.87.54-1.6 1.3-1.9V9.95a2.21 2.21 0 0 1-1.3-2c0-1.21.99-2.2 2.2-2.2 1.21 0 2.2.99 2.2 2.2 0 .98-.65 1.8-1.54 2.09.2.73.86 1.24 1.62 1.24h.01l2.06-.01h.02c1.84 0 3.49 1.17 4.09 2.91 1.03.11 1.84.97 1.84 2.03a2.066 2.066 0 0 1-2.06 2.04Z" fill="#292D32"/></svg>