<svg width="24" height="24" fill="none" xmlns="http://www.w3.org/2000/svg"><path d="M16.19 2H7.81C4.17 2 2 4.17 2 7.81v8.37C2 19.83 4.17 22 7.81 22h8.37c3.64 0 5.81-2.17 5.81-5.81V7.81C22 4.17 19.83 2 16.19 2Zm-6.06 12.5c.29.29.29.77 0 1.06-.15.15-.34.22-.53.22s-.38-.07-.53-.22l-2.49-2.49c-.59-.59-.59-1.54 0-2.13l2.49-2.49c.29-.29.77-.29 1.06 0 .29.29.29.77 0 1.06L7.64 12l2.49 2.5Zm7.29-1.44-2.49 2.49c-.15.15-.34.22-.53.22s-.38-.07-.53-.22a.754.754 0 0 1 0-1.06L16.36 12l-2.49-2.5a.754.754 0 0 1 0-1.06c.29-.29.77-.29 1.06 0l2.49 2.49c.59.59.59 1.55 0 2.13Z" fill="#292D32"/></svg>