<svg width="24" height="24" fill="none" xmlns="http://www.w3.org/2000/svg"><path d="M3.05 19.871c.29.42.66.79 1.08 1.08.95.69 2.19 1.05 3.68 1.05h8.38c3.44 0 5.57-1.94 5.78-5.22H2.02c.08 1.23.43 2.27 1.03 3.09ZM20.95 4.13c-.29-.42-.66-.79-1.08-1.08C18.92 2.36 17.68 2 16.19 2H7.81C4.17 2 2 4.17 2 7.81v7.47h20V7.81c0-1.49-.36-2.73-1.05-3.68Zm-5.86 5.43-2.56 2.56c-.29.29-.77.29-1.06 0L8.91 9.56a.742.742 0 0 1-.22-.53c0-.19.07-.39.22-.53.29-.3.77-.3 1.06 0L12 10.52l2.03-2.03c.29-.29.77-.29 1.06 0 .29.29.29.77 0 1.07Z" fill="#292D32"/></svg>