<svg width="24" height="24" fill="none" xmlns="http://www.w3.org/2000/svg"><path d="M2 7.811v8.38c0 1.49.36 2.73 1.05 3.68.29.42.66.79 1.08 1.08.82.6 1.86.95 3.09 1.03V2.031C3.94 2.241 2 4.371 2 7.811ZM20.95 4.13c-.29-.42-.66-.79-1.08-1.08C18.92 2.36 17.68 2 16.19 2H8.72v20h7.47c3.64 0 5.81-2.17 5.81-5.81V7.81c0-1.49-.36-2.73-1.05-3.68Zm-5.45 9.9c.29.29.29.77 0 1.06-.15.15-.34.22-.53.22s-.38-.07-.53-.22l-2.56-2.56a.754.754 0 0 1 0-1.06l2.56-2.56c.29-.29.77-.29 1.06 0 .29.29.29.77 0 1.06L13.48 12l2.02 2.03Z" fill="#292D32"/></svg>