<svg width="24" height="24" fill="none" xmlns="http://www.w3.org/2000/svg"><path d="M20.95 4.13c-.29-.42-.66-.79-1.08-1.08C18.92 2.36 17.68 2 16.19 2H7.81C4.37 2 2.24 3.94 2.03 7.22h19.95c-.08-1.23-.43-2.27-1.03-3.09ZM2 16.189c0 1.49.36 2.73 1.05 3.68.29.42.66.79 1.08 1.08.95.69 2.19 1.05 3.68 1.05h8.38c3.64 0 5.81-2.17 5.81-5.81v-7.47H2v7.47Zm6.91-1.75 2.56-2.56c.29-.29.77-.29 1.06 0l2.56 2.56c.15.15.22.34.22.53s-.07.38-.22.53c-.29.29-.77.29-1.06 0L12 13.479l-2.03 2.02c-.29.29-.77.29-1.06 0a.754.754 0 0 1 0-1.06Z" fill="#292D32"/></svg>