<svg width="24" height="24" fill="none" xmlns="http://www.w3.org/2000/svg"><path d="M12 12.252c-.44 0-.88-.11-1.28-.32l-6.51-3.51c-.59-.32-.96-.95-.96-1.65s.37-1.33.96-1.65l6.51-3.51c.8-.43 1.76-.43 2.55 0l6.51 3.51c.59.32.96.95.96 1.65s-.37 1.33-.96 1.65l-6.51 3.51c-.39.22-.83.32-1.27.32Zm0-9.47c-.19 0-.39.05-.57.15l-6.5 3.5c-.17.09-.18.28-.18.34s.01.25.18.33l6.51 3.51c.36.19.77.19 1.13 0l6.51-3.51c.16-.09.18-.28.18-.33 0-.06-.01-.25-.18-.33l-6.51-3.51c-.18-.1-.38-.15-.57-.15ZM9.78 22.72c-.28 0-.57-.07-.83-.2L2.89 19.5a2.969 2.969 0 0 1-1.64-2.66v-5.72c0-.65.33-1.24.88-1.58.56-.34 1.23-.37 1.81-.08L10 12.48c1.01.51 1.64 1.52 1.64 2.66v5.72c0 .65-.33 1.24-.88 1.58-.3.19-.64.28-.98.28ZM3.11 10.76c-.08 0-.15.03-.19.05-.06.04-.17.13-.17.31v5.72c0 .56.31 1.07.81 1.32l6.05 3.03c.16.08.29.02.35-.01.06-.04.17-.13.17-.31v-5.72c0-.56-.31-1.07-.81-1.32L3.27 10.8a.343.343 0 0 0-.16-.04ZM14.22 22.718c-.34 0-.68-.09-.98-.28-.55-.34-.88-.93-.88-1.58v-5.72c0-1.13.63-2.15 1.64-2.66l6.05-3.03c.58-.29 1.26-.26 1.81.08s.88.93.88 1.58v5.72c0 1.13-.63 2.15-1.64 2.66l-6.05 3.03c-.26.14-.55.2-.83.2Zm6.67-11.96c-.05 0-.1.01-.16.04l-6.05 3.03c-.5.25-.81.75-.81 1.32v5.72c0 .18.11.27.17.31.06.04.19.09.35.01l6.05-3.03c.5-.25.81-.76.81-1.32v-5.72c0-.18-.11-.27-.17-.31a.434.434 0 0 0-.19-.05Z" fill="#292D32"/></svg>