<svg width="24" height="24" fill="none" xmlns="http://www.w3.org/2000/svg"><path d="M16.5 22.749h-9c-3.3 0-3.75-1.8-3.75-3.75v-8.78c0-.41.34-.75.75-.75s.75.34.75.75v8.78c0 1.74.3 2.25 2.25 2.25h9c1.95 0 2.25-.51 2.25-2.25v-8.78c0-.41.34-.75.75-.75s.75.34.75.75v8.78c0 1.95-.45 3.75-3.75 3.75Z" fill="#292D32"/><path d="M19 10.75H5c-2.42 0-3.75-1.33-3.75-3.75V5c0-2.42 1.33-3.75 3.75-3.75h14c2.42 0 3.75 1.33 3.75 3.75v2c0 2.42-1.33 3.75-3.75 3.75Zm-14-8c-1.58 0-2.25.67-2.25 2.25v2c0 1.58.67 2.25 2.25 2.25h14c1.58 0 2.25-.67 2.25-2.25V5c0-1.58-.67-2.25-2.25-2.25H5ZM13.82 14.75h-3.64c-.41 0-.75-.34-.75-.75s.34-.75.75-.75h3.64c.41 0 .75.34.75.75s-.34.75-.75.75Z" fill="#292D32"/></svg>