<svg width="24" height="24" fill="none" xmlns="http://www.w3.org/2000/svg"><path d="M20.5 15.25c-.41 0-.75-.34-.75-.75s.34-.75.75-.75c.59 0 .72-.09.73-.09.02-.06.02-.41.02-.66v-2c0-.25 0-.59-.04-.68-.01.01-.16-.07-.71-.07-.41 0-.75-.34-.75-.75s.34-.75.75-.75c2.08 0 2.25 1.02 2.25 2.25v2c0 1.23-.17 2.25-2.25 2.25ZM4 22.25c-.14 0-.28-.04-.4-.12a.736.736 0 0 1-.23-1.03l12-19c.22-.35.69-.45 1.03-.23.35.22.46.68.23 1.03l-12 19c-.14.23-.38.35-.63.35Z" fill="#292D32"/><path d="M5.39 19.67h-.08c-3.4-.38-4.06-2.36-4.06-5.67v-4c0-4.41 1.34-5.75 5.75-5.75.41 0 .75.34.75.75s-.34.75-.75.75c-3.57 0-4.25.68-4.25 4.25v4c0 3.32.68 3.95 2.72 4.18.41.05.71.42.66.83-.04.38-.37.66-.74.66ZM13 19.752c-.41 0-.75-.34-.75-.75s.34-.75.75-.75c3.57 0 4.25-.68 4.25-4.25v-4c0-3.31-.68-3.95-2.71-4.18a.751.751 0 0 1-.66-.83c.05-.41.41-.72.83-.66 3.38.38 4.04 2.37 4.04 5.67v4c0 4.41-1.34 5.75-5.75 5.75Z" fill="#292D32"/></svg>