<svg width="24" height="24" fill="none" xmlns="http://www.w3.org/2000/svg"><path d="M20.5 15.25c-.41 0-.75-.34-.75-.75s.34-.75.75-.75c.59 0 .72-.09.73-.09.02-.06.02-.41.02-.66v-2c0-.25 0-.59-.04-.68-.01.01-.16-.07-.71-.07-.41 0-.75-.34-.75-.75s.34-.75.75-.75c2.08 0 2.25 1.02 2.25 2.25v2c0 1.23-.17 2.25-2.25 2.25ZM6.38 14.748c-.06 0-.12-.01-.18-.02-.4-.1-.65-.51-.55-.91.3-1.19.3-2.45 0-3.64a.748.748 0 1 1 1.45-.36c.36 1.43.36 2.94 0 4.36-.08.34-.39.57-.72.57ZM9.88 14.749c-.06 0-.12-.01-.18-.02-.4-.1-.65-.51-.55-.91.3-1.19.3-2.45 0-3.64-.1-.4.14-.81.55-.91.4-.1.81.14.91.55.36 1.43.36 2.94 0 4.36-.09.34-.4.57-.73.57ZM13.38 14.749c-.06 0-.12-.01-.18-.02-.4-.1-.65-.51-.55-.91.3-1.19.3-2.45 0-3.64-.1-.4.14-.81.55-.91.4-.1.81.14.91.55.36 1.43.36 2.94 0 4.36-.09.34-.4.57-.73.57Z" fill="#292D32"/><path d="M13 19.75H7c-4.41 0-5.75-1.34-5.75-5.75v-4c0-4.41 1.34-5.75 5.75-5.75h6c4.41 0 5.75 1.34 5.75 5.75v4c0 4.41-1.34 5.75-5.75 5.75Zm-6-14c-3.57 0-4.25.68-4.25 4.25v4c0 3.57.68 4.25 4.25 4.25h6c3.57 0 4.25-.68 4.25-4.25v-4c0-3.57-.68-4.25-4.25-4.25H7Z" fill="#292D32"/></svg>