<svg width="24" height="24" fill="none" xmlns="http://www.w3.org/2000/svg"><path d="M15.59 13.01a5.89 5.89 0 0 1-5.88-5.88 5.89 5.89 0 0 1 5.88-5.88 5.89 5.89 0 0 1 5.88 5.88 5.89 5.89 0 0 1-5.88 5.88Zm0-10.26c-2.41 0-4.38 1.96-4.38 4.38s1.96 4.38 4.38 4.38 4.38-1.96 4.38-4.38S18 2.75 15.59 2.75ZM6.361 20.191c-2.11 0-3.83-1.72-3.83-3.83 0-2.11 1.72-3.83 3.83-3.83 2.11 0 3.83 1.72 3.83 3.83 0 2.11-1.72 3.83-3.83 3.83Zm0-6.16c-1.28 0-2.33 1.04-2.33 2.33 0 1.28 1.04 2.33 2.33 2.33 1.28 0 2.33-1.04 2.33-2.33 0-1.28-1.05-2.33-2.33-2.33ZM16.62 22.749c-1.83 0-3.31-1.49-3.31-3.31 0-1.83 1.49-3.31 3.31-3.31a3.32 3.32 0 0 1 3.31 3.31 3.32 3.32 0 0 1-3.31 3.31Zm0-5.13a1.81 1.81 0 1 0 0 3.619 1.81 1.81 0 0 0 0-3.62Z" fill="#292D32"/></svg>