<svg width="24" height="24" fill="none" xmlns="http://www.w3.org/2000/svg"><path d="M12 22.75C6.07 22.75 1.25 17.93 1.25 12S6.07 1.25 12 1.25 22.75 6.07 22.75 12 17.93 22.75 12 22.75Zm0-20C6.9 2.75 2.75 6.9 2.75 12S6.9 21.25 12 21.25s9.25-4.15 9.25-9.25S17.1 2.75 12 2.75Z" fill="#292D32"/><path d="M12 16.75c-2.62 0-4.75-2.13-4.75-4.75S9.38 7.25 12 7.25s4.75 2.13 4.75 4.75-2.13 4.75-4.75 4.75Zm0-8c-1.79 0-3.25 1.46-3.25 3.25s1.46 3.25 3.25 3.25 3.25-1.46 3.25-3.25S13.79 8.75 12 8.75Z" fill="#292D32"/><path d="M21.17 8.751c-.05 0-.11-.01-.16-.02-2.94-.64-5.91-.64-8.85 0-.41.09-.8-.17-.89-.57-.09-.41.17-.8.57-.89 3.15-.69 6.34-.69 9.49 0 .4.09.66.49.57.89a.74.74 0 0 1-.73.59ZM8.54 14.75c-.21 0-.42-.09-.57-.26a24.762 24.762 0 0 1-4.71-8.12l.69-.31.71-.24.02.06a23.2 23.2 0 0 0 4.43 7.63c.27.31.24.79-.07 1.06-.15.12-.33.18-.5.18ZM10.88 22.689a.746.746 0 0 1-.55-1.25c2-2.2 3.48-4.75 4.4-7.58.13-.39.57-.65.96-.52s.62.51.5.9c-1.01 3.12-2.6 5.86-4.74 8.22-.16.15-.37.23-.57.23Z" fill="#292D32"/></svg>