<svg width="24" height="24" fill="none" xmlns="http://www.w3.org/2000/svg"><path d="M14.97 22.75h-6c-5.43 0-7.75-2.32-7.75-7.75V9c0-5.43 2.32-7.75 7.75-7.75h6c5.43 0 7.75 2.32 7.75 7.75v6c0 5.43-2.31 7.75-7.75 7.75Zm-6-20C4.36 2.75 2.72 4.39 2.72 9v6c0 4.61 1.64 6.25 6.25 6.25h6c4.61 0 6.25-1.64 6.25-6.25V9c0-4.61-1.64-6.25-6.25-6.25h-6Z" fill="#292D32"/><path d="M3.27 20.451c-.19 0-.38-.07-.53-.22a.754.754 0 0 1 0-1.06l16.45-16.45c.29-.29.77-.29 1.06 0 .29.29.29.77 0 1.06L3.8 20.231a.71.71 0 0 1-.53.22ZM16.06 18.75c-.41 0-.75-.34-.75-.75v-5c0-.41.34-.75.75-.75s.75.34.75.75v5c0 .41-.34.75-.75.75Z" fill="#292D32"/><path d="M18.5 16.25h-5c-.41 0-.75-.34-.75-.75s.34-.75.75-.75h5c.41 0 .75.34.75.75s-.34.75-.75.75ZM10.5 8.25h-5c-.41 0-.75-.34-.75-.75s.34-.75.75-.75h5c.41 0 .75.34.75.75s-.34.75-.75.75Z" fill="#292D32"/></svg>