<svg width="24" height="24" fill="none" xmlns="http://www.w3.org/2000/svg"><path d="M16.7 19.73H7.3c-.74 0-1.49-.53-1.74-1.22L1.42 6.92c-.51-1.46-.14-2.13.26-2.43.4-.3 1.15-.48 2.41.42l3.9 2.79c.12.07.23.1.31.08.09-.03.16-.11.21-.25l1.76-4.69c.53-1.4 1.31-1.61 1.73-1.61.42 0 1.2.21 1.73 1.61l1.76 4.69c.05.13.12.22.21.25s.2 0 .31-.09l3.66-2.61c1.34-.96 2.12-.77 2.55-.46.42.32.81 1.03.26 2.58l-4.04 11.31c-.25.69-1 1.22-1.74 1.22ZM2.68 5.81c.02.14.06.34.16.6L6.98 18c.04.1.22.23.32.23h9.4c.11 0 .29-.13.32-.23l4.04-11.3c.14-.38.18-.64.19-.79-.15.05-.38.16-.71.4l-3.66 2.61c-.5.35-1.09.46-1.62.3-.53-.16-.96-.58-1.18-1.15l-1.76-4.69c-.13-.35-.25-.52-.32-.6-.07.08-.19.25-.32.59L9.92 8.06c-.21.57-.64.99-1.18 1.15-.53.16-1.13.05-1.62-.3l-3.9-2.79a2.76 2.76 0 0 0-.54-.31ZM17.5 22.75h-11c-.41 0-.75-.34-.75-.75s.34-.75.75-.75h11c.41 0 .75.34.75.75s-.34.75-.75.75Z" fill="#292D32"/><path d="M14.5 14.75h-5c-.41 0-.75-.34-.75-.75s.34-.75.75-.75h5c.41 0 .75.34.75.75s-.34.75-.75.75Z" fill="#292D32"/></svg>