<svg width="24" height="24" fill="none" xmlns="http://www.w3.org/2000/svg"><path d="M12 22.6c-1.11 0-2.14-.47-2.91-1.31l-6.86-7.54c-.97-1.06-1.27-2.93-.69-4.24L4.1 3.75c.7-1.57 1.87-2.34 3.59-2.34h8.59v.75-.75c1.72 0 2.89.76 3.59 2.33l2.56 5.76c.58 1.31.29 3.18-.68 4.24l-6.85 7.55c-.75.84-1.79 1.31-2.9 1.31Zm4.29-19.7H7.7c-1.31 0-1.84.58-2.22 1.45l-2.56 5.76c-.34.77-.14 2 .42 2.62l6.86 7.54c.48.53 1.12.82 1.8.82.68 0 1.32-.29 1.8-.82l6.85-7.55c.57-.63.77-1.85.42-2.62l-2.56-5.76c-.38-.86-.91-1.44-2.22-1.44Z" fill="#292D32"/><path d="M3.5 8.748c-.41 0-.75-.34-.75-.75s.34-.75.75-.75l17-.01c.41 0 .75.34.75.75s-.34.75-.75.75l-17 .01Z" fill="#292D32"/></svg>