<svg width="24" height="24" fill="none" xmlns="http://www.w3.org/2000/svg"><path d="M4.91 22.82c-1.09 0-2.02-.35-2.7-1.03-.97-.97-1.27-2.45-.84-4.17l2.48-9.93c.43-1.72 2.11-3.39 3.82-3.82l9.93-2.48c1.72-.43 3.2-.13 4.17.84.97.97 1.27 2.45.84 4.17l-2.48 9.93c-.43 1.72-2.11 3.39-3.82 3.82l-9.93 2.48c-.51.12-1 .19-1.47.19ZM17.98 2.83 8.05 5.32c-1.17.29-2.44 1.56-2.74 2.73l-2.48 9.93c-.3 1.19-.14 2.16.44 2.75.58.58 1.56.74 2.75.44l9.93-2.48c1.17-.29 2.44-1.57 2.73-2.73l2.48-9.93c.3-1.19.14-2.16-.44-2.75-.58-.59-1.55-.74-2.74-.45Z" fill="#292D32"/><path d="M12 16.25A4.26 4.26 0 0 1 7.75 12 4.26 4.26 0 0 1 12 7.75 4.26 4.26 0 0 1 16.25 12 4.26 4.26 0 0 1 12 16.25Zm0-7c-1.52 0-2.75 1.23-2.75 2.75s1.23 2.75 2.75 2.75 2.75-1.23 2.75-2.75S13.52 9.25 12 9.25Z" fill="#292D32"/></svg>