<svg width="24" height="24" fill="none" xmlns="http://www.w3.org/2000/svg"><path d="M15 22.75H9c-5.43 0-7.75-2.32-7.75-7.75V9c0-5.43 2.32-7.75 7.75-7.75h6c5.43 0 7.75 2.32 7.75 7.75v6c0 5.43-2.32 7.75-7.75 7.75Zm-6-20C4.39 2.75 2.75 4.39 2.75 9v6c0 4.61 1.64 6.25 6.25 6.25h6c4.61 0 6.25-1.64 6.25-6.25V9c0-4.61-1.64-6.25-6.25-6.25H9Z" fill="#292D32"/><path d="M8.82 9.751c-.85 0-1.7-.32-2.35-.97a.754.754 0 0 1 0-1.06c.29-.29.77-.29 1.06 0 .71.71 1.87.71 2.58 0 .29-.29.77-.29 1.06 0 .29.29.29.77 0 1.06-.65.64-1.5.97-2.35.97ZM15.18 9.751c-.85 0-1.7-.32-2.35-.97a.754.754 0 0 1 0-1.06c.29-.29.77-.29 1.06 0 .71.71 1.87.71 2.58 0 .29-.29.77-.29 1.06 0 .29.29.29.77 0 1.06-.65.64-1.5.97-2.35.97ZM12 19.15c-2.9 0-5.25-2.36-5.25-5.25 0-.91.74-1.65 1.65-1.65h7.2c.91 0 1.65.74 1.65 1.65 0 2.89-2.35 5.25-5.25 5.25Zm-3.6-5.4c-.08 0-.15.07-.15.15 0 2.07 1.68 3.75 3.75 3.75 2.07 0 3.75-1.68 3.75-3.75 0-.08-.07-.15-.15-.15H8.4Z" fill="#292D32"/></svg>