<svg width="24" height="24" fill="none" xmlns="http://www.w3.org/2000/svg"><path d="M10.93 22.75c-.48 0-.96-.12-1.4-.36-.89-.5-1.42-1.39-1.42-2.4v-5.35c0-.51-.33-1.26-.64-1.65L3.67 9c-.63-.63-1.12-1.73-1.12-2.54V4.14c0-1.61 1.22-2.87 2.77-2.87h13.34a2.77 2.77 0 0 1 2.77 2.77v2.22c0 1.05-.63 2.26-1.23 2.85-.29.29-.77.29-1.06 0a.754.754 0 0 1 0-1.06c.37-.37.79-1.2.79-1.79V4.04c0-.7-.57-1.27-1.27-1.27H5.32c-.71 0-1.27.6-1.27 1.37v2.32c0 .37.3 1.1.69 1.49L8.59 12c.51.63 1.01 1.69 1.01 2.64v5.35c0 .66.45.98.65 1.09.43.24.94.23 1.34-.01l1.4-.9c.35-.22.81-.12 1.04.23.22.35.12.81-.22 1.04l-1.41.91c-.45.26-.96.4-1.47.4Z" fill="#292D32"/><path d="M13.69 18.889c-.38 0-.74-.14-1-.4-.31-.31-.45-.76-.38-1.23l.19-1.35c.05-.35.26-.76.51-1.01l3.54-3.54c.48-.48.95-.73 1.46-.78.62-.06 1.24.2 1.82.78.58.58.84 1.19.78 1.82-.05.5-.31.98-.78 1.46l-3.54 3.54c-.25.25-.67.46-1.02.51l-1.35.19c-.08.01-.15.01-.23.01Zm4.49-6.83h-.03c-.14.01-.33.13-.54.35l-3.54 3.54a.38.38 0 0 0-.08.17l-.18 1.25 1.25-.18c.04-.01.14-.06.17-.09l3.54-3.54c.21-.21.34-.4.35-.54.02-.2-.18-.44-.35-.61-.16-.16-.39-.35-.59-.35Z" fill="#292D32"/><path d="M18.79 15.36c-.07 0-.14-.01-.2-.03a3.977 3.977 0 0 1-2.74-2.74.76.76 0 0 1 .52-.93c.4-.11.81.12.92.52.23.82.88 1.47 1.7 1.7.4.11.63.53.52.93-.09.34-.39.55-.72.55Z" fill="#292D32"/></svg>