<svg width="24" height="24" fill="none" xmlns="http://www.w3.org/2000/svg"><path d="M16.879 20.25a5.32 5.32 0 0 1-2.97-.9 5.236 5.236 0 0 1-1.73-1.77c-.52-.85-.8-1.83-.8-2.83 0-3.03 2.47-5.5 5.5-5.5.42 0 .83.05 1.22.14 2.48.55 4.28 2.8 4.28 5.36 0 1.01-.27 1.99-.79 2.84a5.514 5.514 0 0 1-4.71 2.66Zm0-9.5c-2.21 0-4 1.79-4 4 0 .73.2 1.44.58 2.06.32.53.75.97 1.25 1.28.66.44 1.4.66 2.17.66 1.4 0 2.71-.74 3.43-1.94.38-.62.57-1.33.57-2.06 0-1.86-1.31-3.5-3.12-3.9-.29-.07-.58-.1-.88-.1Z" fill="#292D32"/><path d="M16.199 16.67c-.19 0-.38-.07-.53-.22l-1.17-1.17a.754.754 0 0 1 0-1.06c.29-.29.77-.29 1.06 0l.66.66 2.01-1.85c.31-.28.78-.26 1.06.04s.26.78-.04 1.06l-2.54 2.34c-.14.13-.33.2-.51.2Z" fill="#292D32"/><path d="M10.93 22.75c-.48 0-.96-.12-1.39-.36-.89-.5-1.42-1.4-1.42-2.41v-5.35c0-.51-.33-1.26-.65-1.65l-3.8-3.99c-.63-.65-1.12-1.74-1.12-2.54V4.12c0-1.61 1.22-2.87 2.77-2.87h13.34a2.77 2.77 0 0 1 2.77 2.77v2.22c0 1.05-.62 2.23-1.23 2.85l-1.8 1.59a.77.77 0 0 1-.67.17c-.27-.07-.56-.1-.86-.1-2.21 0-4 1.79-4 4 0 .73.2 1.44.58 2.06.32.53.75.97 1.25 1.28.22.14.36.38.36.64v.34c0 .79-.48 1.9-1.28 2.37l-1.38.89c-.44.28-.96.42-1.47.42Zm-5.6-20c-.71 0-1.27.6-1.27 1.37v2.33c0 .36.3 1.09.7 1.49l3.85 4.05c.51.63 1.02 1.69 1.02 2.64v5.35c0 .66.46.99.65 1.1.43.24.94.23 1.33-.01l1.4-.9c.27-.16.54-.67.56-1.03-.55-.41-1.03-.94-1.39-1.54-.52-.85-.8-1.83-.8-2.83a5.51 5.51 0 0 1 6.32-5.44l1.48-1.31c.34-.35.76-1.18.76-1.77V4.03c0-.7-.57-1.27-1.27-1.27H5.33v-.01Z" fill="#292D32"/></svg>