<svg width="24" height="24" fill="none" xmlns="http://www.w3.org/2000/svg"><path d="M9.99 22.75c-.2 0-.36-.04-.48-.09-.4-.15-1.08-.64-1.08-2.19v-2.44c0-.41.34-.75.75-.75s.75.34.75.75v2.44c0 .5.09.72.13.78.03-.04.24-.14.57-.52l7.57-8.6c.28-.32.32-.52.32-.56-.02-.01-.2-.11-.62-.11h-.93c-.41 0-.75-.34-.75-.75s.34-.75.75-.75h.93c1.34 0 1.82.63 1.99 1 .17.38.32 1.15-.56 2.16l-7.57 8.6c-.71.82-1.33 1.03-1.77 1.03ZM9.18 15.22c-.41 0-.75-.34-.75-.75v-.43H6.09c-1.34 0-1.82-.63-1.99-1-.17-.38-.32-1.15.56-2.16l7.57-8.6c1.02-1.16 1.85-1.08 2.25-.93.4.15 1.08.64 1.08 2.19v5.31c0 .41-.34.75-.75.75s-.75-.34-.75-.75V3.52c0-.5-.09-.72-.13-.78-.03.04-.24.14-.57.52l-7.57 8.6c-.28.32-.32.52-.32.56.02.01.2.11.62.11h3.09c.41 0 .75.34.75.75v1.18c0 .42-.34.76-.75.76Z" fill="#292D32"/><path d="M2 22.751c-.19 0-.38-.07-.53-.22a.754.754 0 0 1 0-1.06l20-20c.29-.29.77-.29 1.06 0 .29.29.29.77 0 1.06l-20 20c-.15.15-.34.22-.53.22Z" fill="#292D32"/></svg>