<svg width="24" height="24" fill="none" xmlns="http://www.w3.org/2000/svg"><path d="M9.99 22.75c-.2 0-.36-.04-.48-.09-.4-.15-1.08-.64-1.08-2.19v-6.45H6.09c-1.34 0-1.82-.63-1.99-1-.17-.38-.32-1.15.56-2.16l7.57-8.6c1.02-1.16 1.85-1.08 2.25-.93.4.15 1.08.64 1.08 2.19v6.45h2.34c1.34 0 1.82.63 1.99 1 .17.38.32 1.15-.56 2.16l-7.57 8.6c-.71.81-1.33 1.02-1.77 1.02Zm3.94-20.01c-.03.04-.24.14-.57.52l-7.57 8.6c-.28.32-.32.52-.32.56.02.01.2.11.62.11h3.09c.41 0 .75.34.75.75v7.2c0 .5.09.72.13.78.03-.04.24-.14.57-.52l7.57-8.6c.28-.32.32-.52.32-.56-.02-.01-.2-.11-.62-.11h-3.09c-.41 0-.75-.34-.75-.75v-7.2c.01-.5-.09-.71-.13-.78Z" fill="#292D32"/></svg>