<svg width="24" height="24" fill="none" xmlns="http://www.w3.org/2000/svg"><path d="M11.07 18.17c-.17 0-.33-.03-.5-.09-.55-.21-.91-.72-.91-1.31v-3.3h-.98c-.56 0-1.05-.32-1.28-.82-.23-.51-.14-1.08.23-1.5l4.26-4.84c.39-.44.99-.59 1.54-.38.55.21.91.72.91 1.31v3.3h.99c.56 0 1.05.32 1.28.82.23.51.14 1.08-.23 1.5l-4.26 4.84c-.28.3-.66.47-1.05.47Zm-2.17-6.2h1.51c.41 0 .75.34.75.75v3.78l3.94-4.47h-1.51c-.41 0-.75-.34-.75-.75V7.5L8.9 11.97Z" fill="#292D32"/><path d="M11.97 22.75C6.05 22.75 1.22 17.93 1.22 12S6.05 1.25 11.97 1.25 22.72 6.07 22.72 12 17.9 22.75 11.97 22.75Zm0-20c-5.1 0-9.25 4.15-9.25 9.25s4.15 9.25 9.25 9.25 9.25-4.15 9.25-9.25-4.15-9.25-9.25-9.25Z" fill="#292D32"/></svg>