<svg width="24" height="24" fill="none" xmlns="http://www.w3.org/2000/svg"><path d="M14.9 22.75H9.1c-.89 0-2.03-.47-2.65-1.1l-4.1-4.1c-.63-.63-1.1-1.77-1.1-2.65V9.1c0-.89.47-2.03 1.1-2.65l4.1-4.1c.63-.63 1.77-1.1 2.65-1.1h5.8c.89 0 2.03.47 2.65 1.1l4.1 4.1c.63.63 1.1 1.77 1.1 2.65v5.8c0 .89-.47 2.03-1.1 2.65l-4.1 4.1c-.63.63-1.76 1.1-2.65 1.1Zm-5.8-20c-.49 0-1.25.31-1.59.66l-4.1 4.1c-.34.35-.66 1.1-.66 1.59v5.8c0 .49.31 1.25.66 1.59l4.1 4.1c.35.34 1.1.66 1.59.66h5.8c.49 0 1.25-.31 1.59-.66l4.1-4.1c.34-.35.66-1.1.66-1.59V9.1c0-.49-.31-1.25-.66-1.59l-4.1-4.1c-.35-.34-1.1-.66-1.59-.66H9.1Z" fill="#292D32"/><path d="M8.5 16.251c-.19 0-.38-.07-.53-.22a.754.754 0 0 1 0-1.06l7-7c.29-.29.77-.29 1.06 0 .29.29.29.77 0 1.06l-7 7c-.15.15-.34.22-.53.22Z" fill="#292D32"/><path d="M15.5 16.251c-.19 0-.38-.07-.53-.22l-7-7a.754.754 0 0 1 0-1.06c.29-.29.77-.29 1.06 0l7 7c.29.29.29.77 0 1.06-.15.15-.34.22-.53.22Z" fill="#292D32"/></svg>