<svg width="24" height="24" fill="none" xmlns="http://www.w3.org/2000/svg"><path d="M15.33 22.75c-.42 0-.85-.15-1.18-.45l-2-1.83c-.08-.07-.24-.07-.33 0L9.83 22.3c-.66.61-1.69.6-2.35 0l-2-1.83c-.08-.07-.24-.07-.33 0l-.99.91c-.91.83-1.63.7-1.98.54-.35-.16-.94-.6-.94-1.85v-7.89c0-6.03 4.82-10.93 10.75-10.93s10.75 4.9 10.75 10.93v7.89c0 1.25-.59 1.7-.94 1.85-.35.15-1.07.29-1.98-.54l-1-.91c-.08-.07-.24-.07-.32 0l-2 1.83c-.32.3-.74.45-1.17.45ZM12 18.91c.42 0 .85.15 1.17.45l2 1.83c.08.07.24.07.32 0l2-1.83c.66-.6 1.69-.6 2.35 0l1 .91c.17.15.28.22.35.24.03-.07.06-.21.06-.45v-7.89c0-5.2-4.15-9.43-9.25-9.43s-9.25 4.23-9.25 9.43v7.89c0 .24.04.38.06.45.07-.03.19-.09.35-.24l1-.91c.66-.6 1.69-.6 2.35 0l2 1.83c.08.07.24.07.32 0l2-1.83c.32-.3.75-.45 1.17-.45Z" fill="#292D32"/><path d="M12 16.07c-1.57 0-3.14-.49-4.45-1.47a.75.75 0 0 1 .9-1.2 5.94 5.94 0 0 0 7.1 0 .75.75 0 0 1 .9 1.2A7.423 7.423 0 0 1 12 16.07ZM12 11.75c-1.52 0-2.75-1.23-2.75-2.75S10.48 6.25 12 6.25 14.75 7.48 14.75 9s-1.23 2.75-2.75 2.75Zm0-4a1.25 1.25 0 1 0 0 2.5 1.25 1.25 0 0 0 0-2.5Z" fill="#292D32"/></svg>