<svg width="24" height="24" fill="none" xmlns="http://www.w3.org/2000/svg"><path d="M14 18.25h-4c-.41 0-.75-.34-.75-.75s.34-.75.75-.75h4c.41 0 .75.34.75.75s-.34.75-.75.75ZM2 18.25c-.41 0-.75-.34-.75-.75v-10c0-4.41 1.34-5.75 5.75-5.75.41 0 .75.34.75.75s-.34.75-.75.75c-3.57 0-4.25.67-4.25 4.25v10c0 .41-.34.75-.75.75ZM22 18.25c-.41 0-.75-.34-.75-.75v-10c0-3.58-.68-4.25-4.25-4.25-.41 0-.75-.34-.75-.75s.34-.75.75-.75c4.41 0 5.75 1.34 5.75 5.75v10c0 .41-.34.75-.75.75Z" fill="#292D32"/><path d="M7.2 22.75H4.8c-2.42 0-3.55-1.13-3.55-3.55v-3.29c0-2.42 1.13-3.55 3.55-3.55h2.4c2.42 0 3.55 1.13 3.55 3.55v3.29c0 2.42-1.13 3.55-3.55 3.55Zm-2.4-8.89c-1.59 0-2.05.46-2.05 2.05v3.29c0 1.59.46 2.05 2.05 2.05h2.4c1.59 0 2.05-.46 2.05-2.05v-3.29c0-1.59-.46-2.05-2.05-2.05H4.8ZM19.2 22.75h-2.4c-2.42 0-3.55-1.13-3.55-3.55v-3.29c0-2.42 1.13-3.55 3.55-3.55h2.4c2.42 0 3.55 1.13 3.55 3.55v3.29c0 2.42-1.13 3.55-3.55 3.55Zm-2.4-8.89c-1.59 0-2.05.46-2.05 2.05v3.29c0 1.59.46 2.05 2.05 2.05h2.4c1.59 0 2.05-.46 2.05-2.05v-3.29c0-1.59-.46-2.05-2.05-2.05h-2.4Z" fill="#292D32"/></svg>