<svg width="24" height="24" fill="none" xmlns="http://www.w3.org/2000/svg"><path d="M12.001 22.72c-2.67 0-5.35-.96-7.38-2.89-2.13-2.02-3.33-4.74-3.37-7.66-.04-2.93 1.08-5.68 3.15-7.75 4.19-4.19 11.01-4.19 15.2 0 2.07 2.07 3.19 4.82 3.15 7.75-.04 2.93-1.24 5.65-3.37 7.66-2.03 1.93-4.71 2.89-7.38 2.89Zm0-19.94c-2.37 0-4.74.9-6.54 2.7a9.203 9.203 0 0 0-2.71 6.67 9.12 9.12 0 0 0 2.9 6.59c3.5 3.32 9.2 3.31 12.7 0a9.216 9.216 0 0 0 2.9-6.59c.04-2.51-.93-4.89-2.71-6.67a9.22 9.22 0 0 0-6.54-2.7Z" fill="#292D32"/><path d="M12 18.32c-1.58 0-3.15-.57-4.35-1.7a.755.755 0 0 1-.03-1.06c.29-.3.76-.31 1.06-.03 1.83 1.73 4.81 1.73 6.64 0 .3-.28.78-.27 1.06.03.28.3.27.78-.03 1.06-1.2 1.13-2.77 1.7-4.35 1.7Z" fill="#292D32"/></svg>