<svg width="24" height="24" fill="none" xmlns="http://www.w3.org/2000/svg"><path d="M11.97 22.75C6.05 22.75 1.22 17.93 1.22 12S6.05 1.25 11.97 1.25 22.72 6.07 22.72 12 17.9 22.75 11.97 22.75Zm0-20c-5.1 0-9.25 4.15-9.25 9.25s4.15 9.25 9.25 9.25 9.25-4.15 9.25-9.25-4.15-9.25-9.25-9.25Z" fill="#292D32"/><path d="M12 19.249c-2.15 0-4.17-1.05-5.4-2.82a.742.742 0 0 1 .19-1.04c.34-.24.81-.15 1.04.19a5.098 5.098 0 0 0 4.17 2.18c1.66 0 3.22-.81 4.17-2.18.24-.34.7-.42 1.04-.19.34.24.42.7.19 1.04a6.576 6.576 0 0 1-5.4 2.82Z" fill="#292D32"/></svg>