<svg width="24" height="24" fill="none" xmlns="http://www.w3.org/2000/svg"><path d="M17.6 22.56H6.4c-1.82 0-3.48-1.4-3.78-3.2L1.29 11.4c-.21-1.24.39-2.83 1.38-3.62L9.6 2.23c1.34-1.08 3.45-1.07 4.8.01l6.93 5.54c.98.79 1.58 2.38 1.38 3.62l-1.33 7.96c-.3 1.77-1.99 3.2-3.78 3.2ZM11.99 2.94c-.53 0-1.06.16-1.45.47L3.61 8.96c-.57.46-.96 1.48-.84 2.2l1.33 7.96c.18 1.05 1.23 1.94 2.3 1.94h11.2c1.07 0 2.12-.89 2.3-1.95l1.33-7.96c.12-.72-.28-1.75-.84-2.2l-6.93-5.54c-.4-.31-.93-.47-1.47-.47Z" fill="#292D32"/><path d="M12 16.25c-1.79 0-3.25-1.46-3.25-3.25S10.21 9.75 12 9.75s3.25 1.46 3.25 3.25-1.46 3.25-3.25 3.25Zm0-5c-.96 0-1.75.79-1.75 1.75s.79 1.75 1.75 1.75 1.75-.79 1.75-1.75-.79-1.75-1.75-1.75Z" fill="#292D32"/></svg>