<svg width="24" height="24" fill="none" xmlns="http://www.w3.org/2000/svg"><path d="M12 18.75c-.41 0-.75-.34-.75-.75v-3c0-.41.34-.75.75-.75s.75.34.75.75v3c0 .41-.34.75-.75.75Z" fill="#292D32"/><path d="M17.6 22.56H6.4c-1.82 0-3.48-1.4-3.78-3.19L1.29 11.4c-.22-1.24.39-2.83 1.38-3.62L9.6 2.23c1.34-1.08 3.45-1.07 4.8.01l6.93 5.54c.98.79 1.58 2.38 1.38 3.62l-1.33 7.96c-.3 1.77-2 3.2-3.78 3.2ZM11.99 2.93c-.53 0-1.06.16-1.45.47L3.61 8.96c-.56.45-.96 1.49-.84 2.2l1.33 7.96c.18 1.05 1.23 1.94 2.3 1.94h11.2c1.07 0 2.12-.89 2.3-1.95l1.33-7.96c.11-.7-.29-1.76-.84-2.2l-6.93-5.54c-.4-.32-.94-.48-1.47-.48Z" fill="#292D32"/></svg>