<svg width="24" height="24" fill="none" xmlns="http://www.w3.org/2000/svg"><path d="M17.6 22.56H6.4c-1.82 0-3.48-1.4-3.78-3.2L1.29 11.4c-.21-1.24.39-2.83 1.38-3.62L9.6 2.23c1.34-1.08 3.45-1.07 4.8.01l6.93 5.54c.98.79 1.58 2.38 1.38 3.62l-1.33 7.96c-.3 1.77-1.99 3.2-3.78 3.2ZM11.99 2.94c-.53 0-1.06.16-1.45.47L3.61 8.96c-.57.46-.96 1.48-.84 2.2l1.33 7.96c.18 1.05 1.23 1.94 2.3 1.94h11.2c1.07 0 2.12-.89 2.3-1.95l1.33-7.96c.12-.72-.28-1.75-.84-2.2l-6.93-5.54c-.4-.31-.93-.47-1.47-.47Z" fill="#292D32"/><path d="M14.12 15.13a.75.75 0 0 1-.52-.21c-.97-.93-2.23-.93-3.21 0-.3.29-.77.28-1.06-.02-.29-.3-.28-.77.02-1.06 1.55-1.49 3.72-1.49 5.28 0 .3.29.31.76.02 1.06-.13.15-.33.23-.53.23Z" fill="#292D32"/><path d="M16.24 13.012c-.19 0-.38-.07-.52-.21-.47-.46-1-.83-1.56-1.1-1.4-.67-2.93-.67-4.32 0-.56.27-1.08.64-1.56 1.1-.29.29-.77.29-1.06-.01-.29-.3-.28-.77.01-1.06.59-.58 1.25-1.04 1.96-1.38 1.81-.87 3.81-.87 5.61 0 .71.34 1.37.8 1.96 1.38a.746.746 0 0 1-.52 1.28ZM12 17.5c-.26 0-.51-.1-.71-.29a.996.996 0 0 1 0-1.41c.39-.39 1.03-.39 1.42 0 .39.39.39 1.02 0 1.41-.2.19-.45.29-.71.29Z" fill="#292D32"/></svg>