<svg width="24" height="24" fill="none" xmlns="http://www.w3.org/2000/svg"><path d="M12.01 22.74c-.63 0-1.25-.21-1.74-.63l-1.58-1.35c-.16-.14-.56-.28-.77-.28H6.17a2.68 2.68 0 0 1-2.68-2.68v-1.71c0-.21-.14-.61-.27-.76l-1.36-1.6c-.82-.97-.82-2.49 0-3.47l1.36-1.6c.13-.15.27-.55.27-.76V6.2c0-1.48 1.2-2.68 2.68-2.68H7.9c.21 0 .6-.15.77-.29l1.58-1.35c.98-.83 2.51-.83 3.49 0l1.58 1.35c.16.14.57.28.78.28h1.7c1.48 0 2.68 1.2 2.68 2.68v1.7c0 .21.15.6.29.77l1.35 1.58c.84.99.83 2.52 0 3.49l-1.35 1.58c-.14.17-.28.56-.28.77v1.7c0 1.48-1.2 2.68-2.68 2.68h-1.7c-.21 0-.6.15-.78.29l-1.58 1.35c-.49.43-1.12.64-1.74.64ZM6.17 5.02c-.65 0-1.18.53-1.18 1.18v1.7c0 .57-.26 1.29-.63 1.73L3 11.23c-.34.41-.34 1.13 0 1.53l1.35 1.59c.36.41.63 1.16.63 1.73v1.71c0 .65.53 1.18 1.18 1.18H7.9c.56 0 1.3.27 1.74.64l1.59 1.36c.41.35 1.13.35 1.54 0l1.58-1.35c.45-.38 1.18-.64 1.74-.64h1.7c.65 0 1.18-.53 1.18-1.18v-1.7c0-.56.27-1.29.64-1.74l1.36-1.59c.35-.41.35-1.13 0-1.54l-1.35-1.58c-.38-.45-.64-1.18-.64-1.74V6.2c0-.65-.53-1.18-1.18-1.18h-1.7c-.57 0-1.31-.27-1.75-.64l-1.59-1.36c-.41-.35-1.12-.35-1.54 0L9.65 4.38c-.45.37-1.18.64-1.75.64H6.17Z" fill="#292D32"/><path d="M12 16.871c-.55 0-1-.45-1-1s.44-1 1-1c.55 0 1 .45 1 1s-.44 1-1 1ZM12 13.719c-.41 0-.75-.34-.75-.75v-4.84c0-.41.34-.75.75-.75s.75.34.75.75v4.83c0 .42-.33.76-.75.76Z" fill="#292D32"/></svg>