<svg width="24" height="24" fill="none" xmlns="http://www.w3.org/2000/svg"><path d="M20.779 19.34H3.219c-.41 0-.75-.34-.75-.75v-4.94c0-5.22 4.25-9.47 9.47-9.47h.12c5.22 0 9.47 4.25 9.47 9.47v4.94c0 .41-.34.75-.75.75Zm-16.81-1.5h16.06v-4.19c0-4.4-3.58-7.97-7.97-7.97h-.12c-4.4 0-7.97 3.58-7.97 7.97v4.19Z" fill="#292D32"/><path d="M12 5.68c-.41 0-.75-.34-.75-.75V2c0-.41.34-.75.75-.75s.75.34.75.75v2.93c0 .41-.34.75-.75.75ZM12 22.75c-2.31 0-4.24-1.81-4.4-4.11a.76.76 0 0 1 .2-.56c.14-.15.34-.24.55-.24h7.3c.21 0 .41.09.55.24.14.15.21.36.2.56-.16 2.3-2.09 4.11-4.4 4.11Zm-2.73-3.41A2.916 2.916 0 0 0 12 21.25c1.24 0 2.32-.79 2.73-1.91H9.27Z" fill="#292D32"/></svg>