<svg width="24" height="24" fill="none" xmlns="http://www.w3.org/2000/svg"><path d="M12 22.75c-5.08 0-9.51-3.61-10.53-8.58a.76.76 0 0 1 .58-.89c.41-.08.8.18.89.58.88 4.28 4.69 7.39 9.06 7.39 4.36 0 8.17-3.09 9.06-7.35a.74.74 0 0 1 .89-.58c.41.08.67.48.58.89-1.04 4.94-5.46 8.54-10.53 8.54ZM21.81 10.808c-.35 0-.66-.25-.73-.61-.85-4.32-4.67-7.46-9.08-7.46-4.38 0-8.19 3.11-9.06 7.39-.08.41-.48.66-.89.58a.74.74 0 0 1-.58-.89c1.02-4.97 5.45-8.58 10.53-8.58 5.13 0 9.56 3.65 10.55 8.67.08.41-.19.8-.59.88-.05.02-.1.02-.15.02Z" fill="#292D32"/><path d="M12 14.25c-1.24 0-2.25-1.01-2.25-2.25S10.76 9.75 12 9.75s2.25 1.01 2.25 2.25-1.01 2.25-2.25 2.25Zm0-3c-.41 0-.75.34-.75.75s.34.75.75.75.75-.34.75-.75-.34-.75-.75-.75Z" fill="#292D32"/></svg>