<svg width="24" height="24" fill="none" xmlns="http://www.w3.org/2000/svg"><path d="M15 22.75H9c-2.07 0-3.75-1.68-3.75-3.75v-5.02a.75.75 0 0 1 .75-.75l3.89.02c.84 0 1.68.2 2.44.58.56.28 1.16.42 1.79.42H18c.41 0 .75.34.75.75v4c0 2.07-1.68 3.75-3.75 3.75Zm-8.25-8.02V19c0 1.24 1.01 2.25 2.25 2.25h6c1.24 0 2.25-1.01 2.25-2.25v-3.25h-3.13c-.86 0-1.69-.19-2.46-.58-.56-.28-1.16-.42-1.77-.42l-3.14-.02Z" fill="#292D32"/><path d="M18 15.75h-3.88c-.86 0-1.69-.19-2.46-.58-.56-.28-1.16-.42-1.77-.42L6 14.73c-.41 0-.75-.34-.75-.75v-3.15c0-.66.34-1.48.81-1.95l2.12-2.12a.26.26 0 0 0 .07-.17V5c0-.41.34-.75.75-.75h6c.41 0 .75.34.75.75v1.59c0 .06.03.13.07.17l2.12 2.12c.47.47.81 1.29.81 1.95V15c0 .41-.34.75-.75.75ZM6.75 13.23l3.14.02c.84 0 1.68.2 2.44.58.56.28 1.16.42 1.79.42h3.13v-3.42c0-.26-.18-.7-.37-.89l-2.12-2.12c-.32-.32-.51-.77-.51-1.23v-.84h-4.5v.84c0 .46-.19.91-.51 1.23L7.12 9.94c-.19.19-.37.63-.37.89v2.4Z" fill="#292D32"/><path d="M18 16.75c-.41 0-.75-.34-.75-.75v-1c0-.41.34-.75.75-.75s.75.34.75.75v1c0 .41-.34.75-.75.75ZM6 15.73c-.41 0-.75-.34-.75-.75v-1c0-.41.34-.75.75-.75s.75.34.75.75v1c0 .41-.34.75-.75.75ZM14.5 5.75h-5c-1.24 0-2.25-1.01-2.25-2.25S8.26 1.25 9.5 1.25h5c1.24 0 2.25 1.01 2.25 2.25s-1.01 2.25-2.25 2.25Zm-5-3c-.41 0-.75.34-.75.75s.34.75.75.75h5c.41 0 .75-.34.75-.75s-.34-.75-.75-.75h-5Z" fill="#292D32"/></svg>