<svg width="24" height="24" fill="none" xmlns="http://www.w3.org/2000/svg"><path d="M12 22.75H9c-5.43 0-7.75-2.32-7.75-7.75V9c0-5.43 2.32-7.75 7.75-7.75h6c5.43 0 7.75 2.32 7.75 7.75v3c0 .41-.34.75-.75.75s-.75-.34-.75-.75V9c0-4.61-1.64-6.25-6.25-6.25H9C4.39 2.75 2.75 4.39 2.75 9v6c0 4.61 1.64 6.25 6.25 6.25h3c.41 0 .75.34.75.75s-.34.75-.75.75Z" fill="#292D32"/><path d="M16.37 22.771h-.02a2.229 2.229 0 0 1-2.15-1.6l-1.85-5.95c-.25-.82-.04-1.7.57-2.29.6-.59 1.47-.81 2.27-.56l5.96 1.85c.96.3 1.59 1.14 1.6 2.15.01 1-.6 1.85-1.56 2.17l-1.63.55c-.23.08-.41.25-.48.48l-.56 1.64c-.31.95-1.15 1.56-2.15 1.56Zm-1.86-9c-.27 0-.45.15-.53.22-.21.21-.28.5-.19.79l1.85 5.95c.16.51.58.53.74.54.14 0 .57-.04.73-.53l.56-1.64c.22-.67.76-1.2 1.43-1.43l1.63-.55c.5-.16.53-.6.53-.73s-.04-.57-.54-.73l-5.96-1.85a.855.855 0 0 0-.25-.04Z" fill="#292D32"/></svg>