<svg width="24" height="24" fill="none" xmlns="http://www.w3.org/2000/svg"><path d="M11.311 18.001h-.02a2.328 2.328 0 0 1-2.23-1.65l-1.95-6.28c-.26-.85-.04-1.76.59-2.38a2.34 2.34 0 0 1 2.36-.58l6.29 1.95c1 .31 1.65 1.19 1.66 2.23a2.31 2.31 0 0 1-1.61 2.25l-1.72.58c-.26.09-.45.28-.54.53l-.59 1.73c-.33.99-1.21 1.62-2.24 1.62Zm-1.97-9.5c-.3 0-.5.16-.59.25a.85.85 0 0 0-.21.87l1.95 6.28c.17.55.66.6.81.6.12-.01.63-.04.81-.59l.59-1.73c.23-.69.79-1.25 1.48-1.48l1.72-.58h.01c.55-.18.59-.67.59-.81 0-.15-.05-.64-.6-.81l-6.29-1.95a.707.707 0 0 0-.27-.05Z" fill="#292D32"/><path d="M12 22.75C6.07 22.75 1.25 17.93 1.25 12S6.07 1.25 12 1.25 22.75 6.07 22.75 12 17.93 22.75 12 22.75Zm0-20C6.9 2.75 2.75 6.9 2.75 12S6.9 21.25 12 21.25s9.25-4.15 9.25-9.25S17.1 2.75 12 2.75Z" fill="#292D32"/></svg>