<svg width="24" height="24" fill="none" xmlns="http://www.w3.org/2000/svg"><path d="M8.67 22.75H2c-.41 0-.75-.34-.75-.75v-6c0-1.52 1.23-2.75 2.75-2.75h4.67c.41 0 .75.34.75.75v8c0 .41-.34.75-.75.75Zm-5.92-1.5h5.17v-6.5H4c-.69 0-1.25.56-1.25 1.25v5.25Z" fill="#292D32"/><path d="M15.33 22.75H8.66c-.41 0-.75-.34-.75-.75V12c0-1.52 1.23-2.75 2.75-2.75h2.67c1.52 0 2.75 1.23 2.75 2.75v10c0 .41-.33.75-.75.75Zm-5.91-1.5h5.17V12c0-.69-.56-1.25-1.25-1.25h-2.67c-.69 0-1.25.56-1.25 1.25v9.25Z" fill="#292D32"/><path d="M22 22.75h-6.67c-.41 0-.75-.34-.75-.75v-5c0-.41.34-.75.75-.75H20c1.52 0 2.75 1.23 2.75 2.75v3c0 .41-.34.75-.75.75Zm-5.92-1.5h5.17V19c0-.69-.56-1.25-1.25-1.25h-3.92v3.5ZM13.699 8.348c-.24 0-.54-.07-.88-.27l-.82-.49-.81.48c-.82.49-1.36.2-1.56.06-.2-.14-.63-.58-.42-1.5l.19-.83-.68-.68c-.42-.42-.57-.92-.42-1.38.15-.46.56-.78 1.14-.88l.87-.15.49-.98c.54-1.07 1.85-1.07 2.38 0l.49.98.87.15c.58.1 1 .42 1.14.88.15.46-.01.96-.42 1.38l-.68.68.19.83c.21.93-.22 1.36-.42 1.51-.09.08-.32.21-.65.21Zm-1.7-2.27c.24 0 .48.06.68.18l.56.33-.12-.54c-.1-.42.05-.93.36-1.24l.51-.51-.63-.11c-.4-.07-.79-.36-.97-.72l-.39-.75-.38.75c-.18.36-.57.65-.97.72l-.63.1.51.51c.31.31.45.82.36 1.24l-.12.54.56-.33c.19-.12.43-.17.67-.17Z" fill="#292D32"/></svg>