<svg width="24" height="24" fill="none" xmlns="http://www.w3.org/2000/svg"><path d="M18.53 23.75c-.15 0-.29-.02-.42-.05a6.466 6.466 0 0 1-3.36-2.23c-.91-1.13-1.41-2.51-1.41-3.9v-2.19c0-.72.48-1.45 1.15-1.73l2.79-1.14c.82-.32 1.71-.32 2.52 0l2.8 1.14c.67.28 1.16 1.01 1.16 1.73v2.19c0 2.79-2 5.37-4.75 6.13-.17.03-.33.05-.48.05Zm.01-10c-.24 0-.48.04-.71.14l-2.77 1.14c-.1.04-.22.23-.22.35v2.19c0 1.05.38 2.1 1.08 2.97.66.84 1.57 1.45 2.56 1.72.03.01.09.01.14-.01 2.05-.57 3.62-2.58 3.62-4.68v-2.19c0-.12-.12-.3-.23-.35l-2.78-1.14a1.81 1.81 0 0 0-.69-.14Z" fill="#292D32"/><path d="M15.34 21.75H6.18c-1.74 0-3.34-1.35-3.63-3.06l-1.26-7.55c-.21-1.19.38-2.72 1.32-3.48L9.19 2.4c1.29-1.04 3.31-1.03 4.6.01l6.58 5.25c.95.76 1.53 2.29 1.32 3.48l-.43 2.59c-.04.22-.18.42-.38.53-.2.11-.44.13-.65.04l-1-.41c-.44-.18-.94-.18-1.4 0l-2.77 1.14c-.1.04-.22.23-.22.35v2.19c0 1.05.38 2.1 1.08 2.97.18.22.22.53.09.79-.12.25-.38.42-.67.42ZM11.48 3.12c-.49 0-.99.15-1.35.44L3.55 8.82c-.52.42-.89 1.4-.78 2.06l1.26 7.55c.17.98 1.15 1.81 2.15 1.81h7.8c-.42-.85-.64-1.77-.64-2.69v-2.19c0-.72.48-1.45 1.15-1.73l2.79-1.14c.82-.32 1.71-.32 2.52 0l.14.06.28-1.66c.11-.66-.26-1.64-.78-2.06l-6.58-5.25c-.38-.31-.88-.46-1.38-.46Z" fill="#292D32"/></svg>