<svg width="24" height="24" fill="none" xmlns="http://www.w3.org/2000/svg"><path d="M20.62 13.07c-.38 0-.7-.29-.75-.67a7.834 7.834 0 0 0-3.34-5.61.752.752 0 0 1-.19-1.04c.24-.34.71-.42 1.04-.19a9.335 9.335 0 0 1 3.97 6.68c.04.41-.25.78-.67.83h-.06ZM3.49 13.12h-.08a.766.766 0 0 1-.67-.83c.27-2.69 1.7-5.12 3.91-6.69a.753.753 0 1 1 .87 1.23 7.847 7.847 0 0 0-3.29 5.62.74.74 0 0 1-.74.67ZM12.06 22.61c-1.48 0-2.89-.34-4.21-1a.75.75 0 0 1-.33-1.01.75.75 0 0 1 1.01-.33 7.904 7.904 0 0 0 6.94.06c.37-.18.82-.02 1 .35.18.37.02.82-.35 1-1.28.62-2.64.93-4.06.93ZM12.06 8.439a3.53 3.53 0 1 1-.002-7.059 3.53 3.53 0 0 1 .001 7.059Zm0-5.55c-1.12 0-2.03.91-2.03 2.03 0 1.12.91 2.03 2.03 2.03 1.12 0 2.03-.91 2.03-2.03 0-1.12-.92-2.03-2.03-2.03ZM4.83 20.67a3.53 3.53 0 1 1 0-7.06 3.53 3.53 0 0 1 0 7.06Zm0-5.56c-1.12 0-2.03.91-2.03 2.03 0 1.12.91 2.03 2.03 2.03 1.12 0 2.03-.91 2.03-2.03 0-1.12-.91-2.03-2.03-2.03ZM19.17 20.67a3.53 3.53 0 1 1 3.53-3.53c-.01 1.94-1.59 3.53-3.53 3.53Zm0-5.56c-1.12 0-2.03.91-2.03 2.03 0 1.12.91 2.03 2.03 2.03 1.12 0 2.03-.91 2.03-2.03a2.038 2.038 0 0 0-2.03-2.03Z" fill="#292D32"/></svg>