<svg width="24" height="24" fill="none" xmlns="http://www.w3.org/2000/svg"><path d="M17.22 9.75H8.96c-.56 0-1.12-.19-1.56-.55L5.21 7.45c-.6-.48-.94-1.19-.94-1.95s.34-1.48.94-1.95L7.4 1.8c.44-.35 1-.55 1.56-.55h8.26a2.5 2.5 0 0 1 2.5 2.5v3.5a2.5 2.5 0 0 1-2.5 2.5Zm-8.26-7c-.23 0-.45.08-.62.22L6.15 4.72a1 1 0 0 0-.38.78c0 .3.14.59.38.78l2.19 1.75c.18.14.4.22.62.22h8.26c.55 0 1-.45 1-1v-3.5c0-.55-.45-1-1-1H8.96ZM15.06 19.75H6.8a2.5 2.5 0 0 1-2.5-2.5v-3.5a2.5 2.5 0 0 1 2.5-2.5h8.26c.57 0 1.12.19 1.56.55l2.19 1.75c.6.48.94 1.19.94 1.95s-.34 1.48-.94 1.95l-2.19 1.75c-.44.36-.99.55-1.56.55Zm-8.26-7c-.55 0-1 .45-1 1v3.5c0 .55.45 1 1 1h8.26c.23 0 .45-.08.62-.22l2.19-1.75a1 1 0 0 0 .38-.78 1 1 0 0 0-.38-.78l-2.19-1.75c-.18-.14-.4-.22-.62-.22H6.8Z" fill="#292D32"/><path d="M12 12.75c-.41 0-.75-.34-.75-.75V9c0-.41.34-.75.75-.75s.75.34.75.75v3c0 .41-.34.75-.75.75ZM12 22.75c-.41 0-.75-.34-.75-.75v-3c0-.41.34-.75.75-.75s.75.34.75.75v3c0 .41-.34.75-.75.75Z" fill="#292D32"/><path d="M15 22.75H9c-.41 0-.75-.34-.75-.75s.34-.75.75-.75h6c.41 0 .75.34.75.75s-.34.75-.75.75Z" fill="#292D32"/></svg>