<svg width="24" height="24" fill="none" xmlns="http://www.w3.org/2000/svg"><path d="M19.14 20.25c-.19 0-.38-.07-.53-.21-.3-.29-.3-.76-.01-1.06a9.188 9.188 0 0 0 2.65-6.48c0-5.1-4.15-9.25-9.25-9.25S2.75 7.4 2.75 12.5c0 2.43.93 4.72 2.63 6.46.29.3.28.77-.01 1.06-.3.29-.77.28-1.06-.01a10.709 10.709 0 0 1-3.06-7.51C1.25 6.57 6.07 1.75 12 1.75S22.75 6.57 22.75 12.5c0 2.83-1.09 5.51-3.08 7.53-.14.15-.34.22-.53.22Z" fill="#292D32"/><path d="M11.999 22.25c-2.27 0-4.12-1.85-4.12-4.12S9.729 14 11.999 14s4.12 1.85 4.12 4.12-1.85 4.13-4.12 4.13Zm0-6.75c-1.45 0-2.62 1.18-2.62 2.62 0 1.44 1.18 2.62 2.62 2.62 1.44 0 2.62-1.18 2.62-2.62 0-1.44-1.17-2.62-2.62-2.62ZM16 12.75h-.75c-.83 0-1.5-.67-1.5-1.5v-.75c0-1.24 1.01-2.25 2.25-2.25s2.25 1.01 2.25 2.25-1.01 2.25-2.25 2.25Zm0-3c-.41 0-.75.34-.75.75v.75H16c.41 0 .75-.34.75-.75s-.34-.75-.75-.75Z" fill="#292D32"/></svg>