<svg width="24" height="24" fill="none" xmlns="http://www.w3.org/2000/svg"><path d="M11.97 22.751c-.61 0-1.24-.05-1.88-.16-4.4-.75-7.99-4.35-8.72-8.77-.58-3.51.51-6.94 3-9.43 2.49-2.49 5.92-3.57 9.42-3 4.41.73 8.02 4.31 8.77 8.71.16.97.2 1.92.12 2.82v.01c-.02.23-.06.45-.12.67-.07.25-.26.44-.5.52-.24.08-.51.02-.71-.14a5.262 5.262 0 0 0-3.38-1.23c-2.9 0-5.25 2.36-5.25 5.25 0 1.24.44 2.44 1.23 3.38.17.2.22.46.14.71-.08.25-.27.43-.52.5-.22.06-.44.1-.67.12-.3.03-.61.04-.93.04Zm0-20c-2.45 0-4.77.95-6.53 2.71-2.14 2.14-3.08 5.1-2.58 8.12.63 3.79 3.7 6.89 7.49 7.53.6.1 1.17.16 1.72.14-.54-.99-.83-2.11-.83-3.25 0-3.72 3.03-6.75 6.75-6.75 1.14 0 2.26.29 3.25.83.01-.55-.04-1.12-.14-1.72-.64-3.78-3.74-6.86-7.53-7.48-.55-.09-1.08-.13-1.6-.13Z" fill="#292D32"/><path d="M13.38 22.61a.71.71 0 0 1-.57-.27A6.747 6.747 0 0 1 11.22 18c0-3.72 3.03-6.75 6.75-6.75 1.59 0 3.13.56 4.34 1.59.23.19.32.5.24.78-.18.62-.5 1.16-.96 1.62l-6.38 6.38c-.46.46-1.01.78-1.62.96-.07.02-.14.03-.21.03Zm4.59-9.86c-2.9 0-5.25 2.36-5.25 5.25 0 1.06.32 2.09.91 2.95.19-.1.36-.23.52-.39l6.38-6.38c.16-.16.29-.33.39-.52-.86-.59-1.89-.91-2.95-.91Z" fill="#292D32"/></svg>