<svg width="24" height="24" fill="none" xmlns="http://www.w3.org/2000/svg"><path d="M14.67 21.652H4.22c-1.1 0-2.07-.57-2.6-1.53-.53-.96-.5-2.09.08-3.02l2.77-4.43c.22-.35.22-1 0-1.34L1.7 6.902c-.58-.93-.61-2.06-.08-3.02s1.51-1.53 2.6-1.53h11.44c.94 0 2.03.6 2.52 1.4l4.18 6.68c.56.9.51 2.28-.13 3.13l-5.18 6.9c-.51.68-1.53 1.19-2.38 1.19ZM4.22 3.852c-.54 0-1.03.28-1.29.76s-.25 1.04.04 1.5l2.77 4.43c.52.84.52 2.1 0 2.94l-2.77 4.43c-.29.46-.3 1.02-.04 1.5s.75.76 1.29.76h10.45c.38 0 .95-.29 1.18-.59l5.18-6.9c.27-.36.3-1.05.06-1.43l-4.18-6.68c-.22-.36-.83-.69-1.25-.69H4.22v-.03Z" fill="#292D32"/></svg>