<svg width="24" height="24" fill="none" xmlns="http://www.w3.org/2000/svg"><path d="M17 21h-6.72c-1.62 0-3.17-.69-4.25-1.88L2.5 15.24a4.783 4.783 0 0 1 0-6.47l3.53-3.88A5.727 5.727 0 0 1 10.28 3H17c3.17 0 5.75 2.58 5.75 5.75v6.5c0 3.17-2.58 5.75-5.75 5.75ZM10.28 4.5c-1.19 0-2.34.51-3.14 1.39L3.6 9.78a3.301 3.301 0 0 0 0 4.45l3.53 3.88c.8.88 1.95 1.39 3.14 1.39H17a4.26 4.26 0 0 0 4.25-4.25v-6.5A4.26 4.26 0 0 0 17 4.5h-6.72Z" fill="#292D32"/><path d="M16 15.22c-.19 0-.38-.07-.53-.22l-4.94-4.95a.754.754 0 0 1 0-1.06c.29-.29.77-.29 1.06 0l4.94 4.95c.29.29.29.77 0 1.06-.15.15-.34.22-.53.22Z" fill="#292D32"/><path d="M11.06 15.219c-.19 0-.38-.07-.53-.22a.755.755 0 0 1 0-1.06l4.94-4.94c.29-.29.77-.29 1.06 0 .29.29.29.77 0 1.06l-4.94 4.94c-.15.15-.34.22-.53.22Z" fill="#292D32"/></svg>