<svg width="24" height="24" fill="none" xmlns="http://www.w3.org/2000/svg"><path d="M16.17 10.81H7.83c-.86 0-1.52-.34-1.82-.92-.3-.59-.18-1.32.32-2.01l4.17-5.84a1.827 1.827 0 0 1 3.02.01l4.17 5.83c.5.69.62 1.42.32 2.01-.32.58-.98.92-1.84.92ZM12 2.7c-.09 0-.19.08-.28.2L7.55 8.75c-.2.27-.21.43-.2.46.01.02.15.1.49.1h8.34c.33 0 .47-.09.49-.11 0-.02-.01-.18-.2-.45L12.3 2.91c-.11-.14-.21-.21-.3-.21Z" fill="#292D32"/><path d="M17.59 18.749H6.42c-1.43 0-2-.69-2.21-1.1-.21-.41-.43-1.27.41-2.43l3.99-5.6c.14-.2.37-.31.61-.31h5.57c.24 0 .47.12.61.31l3.99 5.61c.84 1.15.61 2.01.4 2.42-.21.41-.77 1.1-2.2 1.1Zm-7.99-7.94-3.77 5.29c-.32.44-.35.74-.29.87.07.13.33.28.87.28h11.17c.54 0 .81-.15.87-.28.07-.13.03-.43-.29-.87l-3.77-5.3H9.6v.01Z" fill="#292D32"/><path d="M12 22.75c-.41 0-.75-.34-.75-.75v-4c0-.41.34-.75.75-.75s.75.34.75.75v4c0 .41-.34.75-.75.75Z" fill="#292D32"/></svg>