<svg width="24" height="24" fill="none" xmlns="http://www.w3.org/2000/svg"><path d="M15 22.75H9c-5.43 0-7.75-2.32-7.75-7.75V9c0-5.43 2.32-7.75 7.75-7.75h6c5.43 0 7.75 2.32 7.75 7.75v6c0 5.43-2.32 7.75-7.75 7.75Zm-6-20C4.39 2.75 2.75 4.39 2.75 9v6c0 4.61 1.64 6.25 6.25 6.25h6c4.61 0 6.25-1.64 6.25-6.25V9c0-4.61-1.64-6.25-6.25-6.25H9Z" fill="#292D32"/><path d="M17.899 9.799h-.07c-3.46-.34-6.9-.48-10.31-.13l-1.34.13a.745.745 0 0 1-.82-.67.75.75 0 0 1 .67-.82l1.34-.13c3.51-.35 7.05-.22 10.61.13.41.04.71.41.67.82-.04.38-.37.67-.75.67Z" fill="#292D32"/><path d="M14.29 9.14a.75.75 0 0 1-.74-.62l-.14-.85c-.02-.14-.06-.36-.1-.41 0 0-.1-.06-.46-.06h-1.72c-.37 0-.47.06-.47.06-.02.04-.06.26-.08.4l-.14.86a.76.76 0 0 1-.86.62.76.76 0 0 1-.62-.86l.14-.86c.11-.64.29-1.71 2.03-1.71h1.72c1.75 0 1.93 1.12 2.03 1.72l.14.85c.07.41-.21.8-.61.86h-.12Z" fill="#292D32"/><path d="M14.1 18.31H9.89c-2.53 0-2.64-1.52-2.71-2.53l-.43-6.61a.75.75 0 1 1 1.5-.1l.43 6.6c.07.98.08 1.13 1.21 1.13h4.21c1.13 0 1.14-.15 1.21-1.13l.43-6.6c.03-.41.37-.73.8-.7.41.03.73.38.7.8l-.43 6.6c-.07 1.02-.17 2.54-2.71 2.54Z" fill="#292D32"/></svg>