<svg width="24" height="24" fill="none" xmlns="http://www.w3.org/2000/svg"><path d="M17.18 18.75c-1.71 0-3.75-.65-3.75-3.75V9c0-3.1 2.04-3.75 3.75-3.75s3.75.65 3.75 3.75v6c0 3.1-2.04 3.75-3.75 3.75Zm0-12c-1.62 0-2.25.63-2.25 2.25v6c0 1.62.63 2.25 2.25 2.25s2.25-.63 2.25-2.25V9c0-1.62-.63-2.25-2.25-2.25ZM6.82 18.75c-1.71 0-3.75-.65-3.75-3.75V9c0-3.1 2.04-3.75 3.75-3.75s3.75.65 3.75 3.75v6c0 3.1-2.04 3.75-3.75 3.75Zm0-12c-1.62 0-2.25.63-2.25 2.25v6c0 1.62.63 2.25 2.25 2.25s2.25-.63 2.25-2.25V9c0-1.62-.63-2.25-2.25-2.25Z" fill="#292D32"/><path d="M14.18 12.75H9.82c-.41 0-.75-.34-.75-.75s.34-.75.75-.75h4.36a.749.749 0 1 1 0 1.5ZM22.5 15.25c-.41 0-.75-.34-.75-.75v-5c0-.41.34-.75.75-.75s.75.34.75.75v5c0 .41-.34.75-.75.75ZM1.5 15.25c-.41 0-.75-.34-.75-.75v-5c0-.41.34-.75.75-.75s.75.34.75.75v5c0 .41-.34.75-.75.75Z" fill="#292D32"/></svg>