<svg width="24" height="24" fill="none" xmlns="http://www.w3.org/2000/svg"><path d="M18 10.71c-.16 0-.32-.05-.46-.16-3.37-2.6-7.72-2.6-11.08 0-.33.25-.8.19-1.05-.13-.25-.33-.19-.8.13-1.05 3.92-3.03 8.99-3.03 12.92 0 .33.25.39.72.13 1.05-.14.19-.37.29-.59.29Z" fill="#292D32"/><path d="M16.4 13.8c-.16 0-.32-.05-.46-.16-2.4-1.85-5.49-1.85-7.89 0-.33.25-.8.19-1.05-.13-.25-.33-.19-.8.13-1.05 2.95-2.28 6.77-2.28 9.72 0 .33.25.39.72.13 1.05-.13.19-.35.29-.58.29ZM14.2 16.891c-.16 0-.32-.05-.46-.16-1.06-.82-2.43-.82-3.49 0-.33.25-.8.19-1.05-.13-.25-.33-.19-.8.13-1.05a4.296 4.296 0 0 1 5.32 0c.33.25.39.72.13 1.05-.13.19-.35.29-.58.29Z" fill="#292D32"/><path d="M15 22.75H9c-5.43 0-7.75-2.32-7.75-7.75V9c0-5.43 2.32-7.75 7.75-7.75h6c5.43 0 7.75 2.32 7.75 7.75v6c0 5.43-2.32 7.75-7.75 7.75Zm-6-20C4.39 2.75 2.75 4.39 2.75 9v6c0 4.61 1.64 6.25 6.25 6.25h6c4.61 0 6.25-1.64 6.25-6.25V9c0-4.61-1.64-6.25-6.25-6.25H9Z" fill="#292D32"/></svg>