<svg width="24" height="24" fill="none" xmlns="http://www.w3.org/2000/svg"><path d="M2 12.99V15c0 5 2 7 7 7h6c5 0 7-2 7-7V9c0-5-2-7-7-7H9C4 2 2 4 2 9" stroke="#292D32" stroke-width="1.5" stroke-linecap="round" stroke-linejoin="round"/><path d="M9.62 17.299a2.12 2.12 0 1 0 0-4.24 2.12 2.12 0 0 0 0 4.24ZM11.738 15.18V7.77M13.128 6.768l2.34.78c.57.19 1.03.83 1.03 1.43v.62c0 .81-.63 1.26-1.39 1l-2.34-.78c-.57-.19-1.03-.83-1.03-1.43v-.62c0-.8.62-1.26 1.39-1Z" stroke="#292D32" stroke-width="1.5" stroke-linecap="round" stroke-linejoin="round"/></svg>