<svg width="24" height="24" fill="none" xmlns="http://www.w3.org/2000/svg"><path d="M9 6c-1.1 0-2 .9-2 2s.9 2 2 2 2-.9 2-2M2 13.04V15c0 5 2 7 7 7h6c5 0 7-2 7-7v-5M13 2H9C4 2 2 4 2 9M18 2v6l2-2M18 8l-2-2" stroke="#292D32" stroke-width="1.5" stroke-linecap="round" stroke-linejoin="round"/><path d="m2.672 18.949 4.93-3.31c.79-.53 1.93-.47 2.64.14l.33.29c.78.67 2.04.67 2.82 0l4.16-3.57c.78-.67 2.04-.67 2.82 0l1.63 1.4" stroke="#292D32" stroke-width="1.5" stroke-linecap="round" stroke-linejoin="round"/></svg>