<svg width="24" height="24" fill="none" xmlns="http://www.w3.org/2000/svg"><path d="M2 12.99V15c0 5 2 7 7 7h6c5 0 7-2 7-7V9c0-5-2-7-7-7H9C4 2 2 4 2 9" stroke="#292D32" stroke-width="1.5" stroke-linecap="round" stroke-linejoin="round"/><path d="M8.422 17.109a1.57 1.57 0 1 0 0-3.14 1.57 1.57 0 0 0 0 3.14Z" stroke="#292D32" stroke-width="1.5" stroke-linecap="round" stroke-linejoin="round"/><path d="M15.75 14.489v-6.14c0-1.31-.82-1.49-1.65-1.26l-3.14.86c-.57.16-.96.61-.96 1.26v6.34" stroke="#292D32" stroke-width="1.5" stroke-linecap="round" stroke-linejoin="round"/><path d="M14.183 16.058a1.57 1.57 0 1 0 0-3.14 1.57 1.57 0 0 0 0 3.14ZM9.992 11.039l5.76-1.57" stroke="#292D32" stroke-width="1.5" stroke-linecap="round" stroke-linejoin="round"/></svg>