<svg width="24" height="24" fill="none" xmlns="http://www.w3.org/2000/svg"><path d="M2.578 8.67a9.993 9.993 0 0 1 3.14-4.44M2 12c0 1.17.21 2.29.58 3.33M9.09 21.568c.92.28 1.9.43 2.91.43 5.52 0 10-4.48 10-10 0-.6-.06-1.19-.16-1.76M5.718 19.748c-.47-.38-.92-.8-1.32-1.26M20.24 6.34A9.982 9.982 0 0 0 12 2c-1.01 0-1.99.15-2.91.43M8.59 17.11a1.59 1.59 0 1 0 0-3.18 1.59 1.59 0 0 0 0 3.18Z" stroke="#292D32" stroke-width="1.5" stroke-linecap="round" stroke-linejoin="round"/><path d="M16.002 14.46V8.25c0-1.32-.83-1.51-1.67-1.28l-3.18.87c-.58.16-.98.61-.98 1.28v6.4" stroke="#292D32" stroke-width="1.5" stroke-linecap="round" stroke-linejoin="round"/><path d="M14.41 16.051a1.59 1.59 0 1 0 0-3.18 1.59 1.59 0 0 0 0 3.18ZM10.18 10.762 16 9.172" stroke="#292D32" stroke-width="1.5" stroke-linecap="round" stroke-linejoin="round"/></svg>