<svg width="24" height="24" fill="none" xmlns="http://www.w3.org/2000/svg"><path d="M2 13c0-2.65 1.15-4.15 3-4.72C5.6 8.09 6.27 8 7 8h10c.73 0 1.4.09 2 .28 1.85.57 3 2.07 3 4.72v4c0 3.5-2 5-5 5H7c-3 0-5-1.5-5-5" stroke="#292D32" stroke-width="1.5" stroke-miterlimit="10" stroke-linecap="round" stroke-linejoin="round"/><path d="M19 7v1.28c-.6-.19-1.27-.28-2-.28H7c-.73 0-1.4.09-2 .28V7c0-1.1.9-2 2-2h10c1.1 0 2 .9 2 2ZM16 3.51V5H8V3.51C8 2.68 8.68 2 9.51 2h4.98c.83 0 1.51.68 1.51 1.51Z" stroke="#292D32" stroke-width="1.5" stroke-miterlimit="10" stroke-linecap="round" stroke-linejoin="round"/><path d="M9.07 19.449a1.32 1.32 0 1 0 0-2.64 1.32 1.32 0 0 0 0 2.64Z" stroke="#292D32" stroke-width="1.5" stroke-linecap="round" stroke-linejoin="round"/><path d="M15.248 17.25v-5.17c0-1.1-.69-1.26-1.39-1.06l-2.65.72c-.48.13-.81.51-.81 1.06v5.33" stroke="#292D32" stroke-width="1.5" stroke-linecap="round" stroke-linejoin="round"/><path d="M13.93 18.57a1.32 1.32 0 1 0 0-2.64 1.32 1.32 0 0 0 0 2.64ZM10.398 14.347l4.85-1.32" stroke="#292D32" stroke-width="1.5" stroke-linecap="round" stroke-linejoin="round"/></svg>