<svg width="24" height="24" fill="none" xmlns="http://www.w3.org/2000/svg"><path d="M4 6c-1.25 1.67-2 3.75-2 6 0 5.52 4.48 10 10 10s10-4.48 10-10S17.52 2 12 2c-1.43 0-2.8.3-4.03.85" stroke="#292D32" stroke-width="1.5" stroke-linecap="round" stroke-linejoin="round"/><path d="M10.75 14.43V9.37c0-.48-.2-.67-.71-.67H8.75c-.51 0-.71.19-.71.67v5.06c0 .48.2.67.71.67h1.29c.51 0 .71-.19.71-.67ZM16.03 14.43V9.37c0-.48-.2-.67-.71-.67h-1.29c-.51 0-.71.19-.71.67v5.06c0 .48.2.67.71.67" stroke="#292D32" stroke-width="1.5" stroke-linecap="round" stroke-linejoin="round"/></svg>