<svg width="24" height="24" fill="none" xmlns="http://www.w3.org/2000/svg"><path d="M19.07 19.07c3.91-3.91 3.91-10.24 0-14.14M4.929 4.93c-3.91 3.91-3.91 10.24 0 14.14M8.7 21.41c1.07.37 2.18.55 3.3.55 1.12-.01 2.23-.18 3.3-.55M8.7 2.59c1.07-.37 2.18-.55 3.3-.55 1.12 0 2.23.18 3.3.55" stroke="#292D32" stroke-width="1.5" stroke-linecap="round" stroke-linejoin="round"/><path d="M8.738 10.33c0-2.08 1.47-2.93 3.27-1.89l1.45.84 1.45.84c1.8 1.04 1.8 2.74 0 3.78l-1.45.84-1.45.84c-1.8 1.04-3.27.19-3.27-1.89" stroke="#292D32" stroke-width="1.5" stroke-miterlimit="10" stroke-linecap="round" stroke-linejoin="round"/></svg>