<svg width="24" height="24" fill="none" xmlns="http://www.w3.org/2000/svg"><path d="M9.379 12.002v-1.39c0-1.72 1.22-2.43 2.71-1.57l1.2.69 1.2.69c1.49.86 1.49 2.27 0 3.13l-1.2.69-1.2.69c-1.49.86-2.71.16-2.71-1.57v-1.36ZM20.07 20.04l-2.12-2.11M20.05 17.96l-2.12 2.11" stroke="#292D32" stroke-width="1.5" stroke-miterlimit="10" stroke-linecap="round" stroke-linejoin="round"/><path d="M23 19c0 .75-.21 1.46-.58 2.06-.21.36-.48.68-.79.94-.7.63-1.62 1-2.63 1a3.93 3.93 0 0 1-3.27-1.73c-.06-.07-.11-.14-.15-.21A3.92 3.92 0 0 1 15 19c0-1.26.58-2.39 1.5-3.12.69-.55 1.56-.88 2.5-.88.84 0 1.63.27 2.28.72A3.98 3.98 0 0 1 23 19Z" stroke="#292D32" stroke-width="1.5" stroke-linecap="round" stroke-linejoin="round"/><path d="M7.969 2.85c1.23-.55 2.6-.85 4.03-.85 5.52 0 10 4.48 10 10 0 1.31-.25 2.57-.72 3.72M4 6c-1.25 1.67-2 3.75-2 6 0 5.52 4.48 10 10 10 1.32 0 2.58-.26 3.73-.73" stroke="#292D32" stroke-width="1.5" stroke-linecap="round" stroke-linejoin="round"/></svg>