<svg width="24" height="24" fill="none" xmlns="http://www.w3.org/2000/svg"><path d="M2 9c0-5 2-7 7-7h6c5 0 7 2 7 7v6c0 .23 0 .45-.02.67-.04-.06-.09-.12-.14-.17-.01-.01-.02-.03-.03-.04-.81-.9-2-1.46-3.31-1.46-1.26 0-2.41.52-3.23 1.36a4.5 4.5 0 0 0-.62 5.46c.22.37.5.71.82.99.02.01.03.02.04.03.05.05.1.09.16.14-.21.02-.44.02-.67.02H9c-5 0-7-2-7-7v-1.97M2.52 7.11h18.96M8.52 2.11v4.86M15.48 2.11v4.41" stroke="#292D32" stroke-width="1.5" stroke-linecap="round" stroke-linejoin="round"/><path d="M23 18.5c0 1.35-.6 2.55-1.53 3.38-.8.69-1.83 1.12-2.97 1.12-1.08 0-2.08-.38-2.85-1.02A4.46 4.46 0 0 1 14 18.5c0-1.42.65-2.69 1.69-3.51A4.47 4.47 0 0 1 18.5 14c1.41 0 2.66.64 3.48 1.65.64.77 1.02 1.77 1.02 2.85Z" stroke="#292D32" stroke-width="1.5" stroke-miterlimit="10" stroke-linecap="round" stroke-linejoin="round"/><path d="M18.779 17.09v1.69l-1.4.84" stroke="#292D32" stroke-width="1.5" stroke-miterlimit="10" stroke-linecap="round" stroke-linejoin="round"/></svg>