<svg width="24" height="24" fill="none" xmlns="http://www.w3.org/2000/svg"><path d="M15.72 9.69a5.251 5.251 0 0 0-7.44 0 5.25 5.25 0 0 0 0 7.44 5.251 5.251 0 0 0 7.44 0 5.23 5.23 0 0 0 1.54-3.72M12 13.41 10.41 15" stroke="#292D32" stroke-width="1.509" stroke-linecap="round" stroke-linejoin="round"/><path d="M19.07 6.339c.15.15.15.4 0 .56-.15.15-.4.15-.56 0-.16-.15-.15-.4 0-.56.15-.16.41-.16.56 0Z" stroke="#292D32" stroke-miterlimit="10"/><path d="M19.07 6.339c.15.15.15.4 0 .56-.15.15-.4.15-.56 0-.16-.15-.15-.4 0-.56.15-.16.41-.16.56 0Z" stroke="#292D32" stroke-width="1.5" stroke-linecap="round" stroke-linejoin="round"/><path d="M5.489 19.92c.15.15.15.4 0 .56-.15.16-.4.15-.56 0a.405.405 0 0 1 0-.56c.15-.16.41-.16.56 0Z" stroke="#292D32" stroke-miterlimit="10"/><path d="M5.489 19.92c.15.15.15.4 0 .56-.15.16-.4.15-.56 0a.405.405 0 0 1 0-.56c.15-.16.41-.16.56 0Z" stroke="#292D32" stroke-width="1.5" stroke-linecap="round" stroke-linejoin="round"/><path d="M21.88 13.132c.15.15.15.4 0 .56-.15.15-.4.15-.56 0-.16-.15-.15-.4 0-.56.15-.16.41-.16.56 0Z" stroke="#292D32" stroke-miterlimit="10"/><path d="M21.88 13.132c.15.15.15.4 0 .56-.15.15-.4.15-.56 0-.16-.15-.15-.4 0-.56.15-.16.41-.16.56 0Z" stroke="#292D32" stroke-width="1.5" stroke-linecap="round" stroke-linejoin="round"/><path d="M2.669 13.132c.15.15.15.4 0 .56-.15.16-.4.15-.56 0a.405.405 0 0 1 0-.56c.16-.16.41-.16.56 0Z" stroke="#292D32" stroke-miterlimit="10"/><path d="M2.669 13.132c.15.15.15.4 0 .56-.15.16-.4.15-.56 0a.405.405 0 0 1 0-.56c.16-.16.41-.16.56 0Z" stroke="#292D32" stroke-width="1.5" stroke-linecap="round" stroke-linejoin="round"/><path d="M19.07 19.92c.15.15.15.4 0 .56-.15.15-.4.15-.56 0-.16-.15-.15-.4 0-.56.16-.16.41-.16.56 0Z" stroke="#292D32" stroke-miterlimit="10"/><path d="M19.07 19.92c.15.15.15.4 0 .56-.15.15-.4.15-.56 0-.16-.15-.15-.4 0-.56.16-.16.41-.16.56 0Z" stroke="#292D32" stroke-width="1.5" stroke-linecap="round" stroke-linejoin="round"/><path d="M5.489 6.339c.15.15.15.4 0 .56-.15.16-.4.15-.56 0a.405.405 0 0 1 0-.56c.15-.16.41-.16.56 0Z" stroke="#292D32" stroke-miterlimit="10"/><path d="M5.489 6.339c.15.15.15.4 0 .56-.15.16-.4.15-.56 0a.405.405 0 0 1 0-.56c.15-.16.41-.16.56 0Z" stroke="#292D32" stroke-width="1.5" stroke-linecap="round" stroke-linejoin="round"/><path d="M12.282 3.519c.15.15.15.4 0 .56-.15.16-.4.15-.56 0-.16-.15-.15-.4 0-.56.15-.16.41-.15.56 0Z" stroke="#292D32" stroke-miterlimit="10"/><path d="M12.282 3.519c.15.15.15.4 0 .56-.15.16-.4.15-.56 0-.16-.15-.15-.4 0-.56.15-.16.41-.15.56 0Z" stroke="#292D32" stroke-width="1.5" stroke-linecap="round" stroke-linejoin="round"/></svg>