<svg width="24" height="24" fill="none" xmlns="http://www.w3.org/2000/svg"><path d="M17 4.96v7.12c0 1.99-1.41 2.76-3.14 1.72l-1.32-.8c-.3-.18-.78-.18-1.08 0l-1.32.8C8.41 14.84 7 14.07 7 12.08V4.99C7.01 3 8.01 2 10 2h4c1.98 0 2.98.99 3 2.96Z" fill="#292D32"/><path d="M22 11.9v3.03c0 5.05-2 7.07-7 7.07H9c-5 0-7-2.02-7-7.07V11.9c0-2.69.57-4.52 1.85-5.64.65-.55 1.65-.07 1.65.78v5.04c0 1.49.61 2.69 1.67 3.29 1.07.61 2.43.5 3.75-.29l1.08-.65 1.09.65c.74.45 1.51.68 2.23.68.54 0 1.05-.13 1.51-.39 1.06-.6 1.67-1.8 1.67-3.29V7.03c0-.85 1.01-1.33 1.65-.77C21.43 7.38 22 9.21 22 11.9Z" fill="#292D32"/></svg>