<svg width="24" height="24" fill="none" xmlns="http://www.w3.org/2000/svg"><path d="M13.55 20.162c-.26.11-.54.21-.84.31l-1.58.52c-3.97 1.28-6.06.21-7.35-3.76l-1.28-3.95c-1.28-3.97-.22-6.07 3.75-7.35l1.54-.51c-.19.48-.35 1.03-.5 1.65l-.98 4.19c-1.1 4.71.51 7.31 5.22 8.43l1.68.4c.11.03.23.05.34.07Z" fill="#292D32"/><path d="m17.17 3.209-1.67-.39c-3.34-.79-5.33-.14-6.5 2.28-.3.61-.54 1.35-.74 2.2l-.98 4.19c-.98 4.18.31 6.24 4.48 7.23l1.68.4c.58.14 1.12.23 1.62.27 3.12.3 4.78-1.16 5.62-4.77l.98-4.18c.98-4.18-.3-6.25-4.49-7.23Z" fill="#292D32"/></svg>