<svg width="24" height="24" fill="none" xmlns="http://www.w3.org/2000/svg"><path d="M12.676 19.959c.275.064.3.424.032.513l-1.58.52c-3.97 1.28-6.06.21-7.35-3.76l-1.28-3.95c-1.28-3.97-.22-6.07 3.75-7.35l.524-.174c.403-.133.795.271.68.68-.056.202-.11.414-.164.634l-.98 4.19c-1.1 4.71.51 7.31 5.22 8.43l1.148.267Z" fill="#292D32"/><path d="m17.17 3.209-1.67-.39c-3.34-.79-5.33-.14-6.5 2.28-.3.61-.54 1.35-.74 2.2l-.98 4.19c-.98 4.18.31 6.24 4.48 7.23l1.68.4c.58.14 1.12.23 1.62.27 3.12.3 4.78-1.16 5.62-4.77l.98-4.18c.98-4.18-.3-6.25-4.49-7.23Zm-1.88 10.12c-.09.34-.39.56-.73.56-.06 0-.12-.01-.19-.02l-2.91-.74a.75.75 0 0 1 .37-1.45l2.91.74c.41.1.65.51.55.91Zm2.93-3.38c-.09.34-.39.56-.73.56-.06 0-.12-.01-.19-.02l-4.85-1.23a.75.75 0 0 1 .37-1.45l4.85 1.23c.41.09.65.5.55.91Z" fill="#292D32"/></svg>