<svg xmlns="http://www.w3.org/2000/svg" width="24" height="24" fill="none" viewBox="0 0 24 24">
  <path fill="#292D32" d="M23 15.219c-.41 0-.75.34-.75.75a6.26 6.26 0 01-4.83 6.09l.27-.45a.751.751 0 10-1.29-.77l-1.05 1.75c-.14.23-.14.52-.01.75.13.24.38.38.65.38 4.27 0 7.75-3.48 7.75-7.75a.74.74 0 00-.74-.75zM8 .219C3.73.219.25 3.699.25 7.969c0 .41.34.75.75.75s.75-.34.75-.75c0-2.96 2.06-5.44 4.83-6.09l-.27.45a.751.751 0 101.29.77l1.05-1.75c.13-.23.14-.51 0-.75A.752.752 0 008 .219zM21.5 8.67c0 3.08-2.24 5.62-5.17 6.09v-.02c-.29-3.73-3.31-6.77-7.09-7.07a6.158 6.158 0 016.09-5.17c3.41 0 6.17 2.76 6.17 6.17zM9.81 14.2c0-.15-.17-.38-.38-.38H7.37v.75h2.06c.21.01.38-.16.38-.37zM9.83 16.078H7.37v.75h2.47c.32 0 .54-.2.54-.38s-.23-.37-.55-.37z"/>
  <path fill="#292D32" d="M14.83 14.848a6.174 6.174 0 00-5.68-5.68c-.16-.01-.31-.02-.48-.02-3.41 0-6.17 2.76-6.17 6.18 0 3.41 2.76 6.17 6.17 6.17s6.18-2.76 6.18-6.17c0-.17-.01-.32-.02-.48zm-5 3.48h-.66v.38c0 .41-.34.75-.75.75s-.75-.34-.75-.75v-.38H6.62c-.41 0-.75-.34-.75-.75v-4.5c0-.41.34-.75.75-.75h1.05v-.38c0-.41.34-.75.75-.75s.75.34.75.75v.38h.26c1 0 1.88.88 1.88 1.88 0 .29-.07.56-.19.81.46.34.75.86.75 1.44 0 1.03-.91 1.87-2.04 1.87z"/>
</svg>
