<svg width="24" height="24" fill="none" xmlns="http://www.w3.org/2000/svg"><path d="M6.89 15.749c-.28 0-.54-.15-.67-.41a.745.745 0 0 1 .34-1.01c.87-.43 1.61-1.09 2.14-1.89.18-.27.18-.61 0-.88-.54-.8-1.28-1.46-2.14-1.89a.74.74 0 0 1-.34-1.01c.18-.37.63-.52 1-.33 1.1.55 2.04 1.38 2.72 2.4a2.3 2.3 0 0 1 0 2.54 7.077 7.077 0 0 1-2.72 2.4c-.1.05-.22.08-.33.08ZM17 15.75h-4c-.41 0-.75-.34-.75-.75s.34-.75.75-.75h4c.41 0 .75.34.75.75s-.34.75-.75.75Z" fill="#292D32"/><path d="M15 22.75H9c-5.43 0-7.75-2.32-7.75-7.75V9c0-5.43 2.32-7.75 7.75-7.75h6c5.43 0 7.75 2.32 7.75 7.75v6c0 5.43-2.32 7.75-7.75 7.75Zm-6-20C4.39 2.75 2.75 4.39 2.75 9v6c0 4.61 1.64 6.25 6.25 6.25h6c4.61 0 6.25-1.64 6.25-6.25V9c0-4.61-1.64-6.25-6.25-6.25H9Z" fill="#292D32"/></svg>