<svg width="24" height="24" fill="none" xmlns="http://www.w3.org/2000/svg"><path d="M9 17.75c-.11 0-.23-.03-.33-.08-.77-.39-1.43-.97-1.91-1.69-.4-.6-.4-1.37 0-1.97a4.91 4.91 0 0 1 1.91-1.68c.37-.19.82-.03 1.01.34.19.37.04.82-.34 1.01-.54.27-1 .68-1.33 1.18a.29.29 0 0 0 0 .31c.33.5.79.91 1.33 1.18.37.19.52.64.34 1.01-.14.24-.41.39-.68.39ZM15.21 17.75c-.28 0-.54-.15-.67-.41a.745.745 0 0 1 .34-1.01c.54-.27 1-.68 1.33-1.18a.29.29 0 0 0 0-.31c-.33-.5-.79-.91-1.33-1.18a.763.763 0 0 1-.34-1.01c.19-.37.64-.52 1.01-.34.77.39 1.43.97 1.91 1.69.4.6.4 1.37 0 1.97a4.91 4.91 0 0 1-1.91 1.68.66.66 0 0 1-.34.1Z" fill="#292D32"/><path d="M15 22.75H9c-5.43 0-7.75-2.32-7.75-7.75V9c0-5.43 2.32-7.75 7.75-7.75h6c5.43 0 7.75 2.32 7.75 7.75v6c0 5.43-2.32 7.75-7.75 7.75Zm-6-20C4.39 2.75 2.75 4.39 2.75 9v6c0 4.61 1.64 6.25 6.25 6.25h6c4.61 0 6.25-1.64 6.25-6.25V9c0-4.61-1.64-6.25-6.25-6.25H9Z" fill="#292D32"/><path d="M2.23 8.76a.749.749 0 1 1 0-1.5l19.22-.01a.749.749 0 1 1 0 1.5l-19.22.01Z" fill="#292D32"/></svg>