<svg width="24" height="24" fill="none" xmlns="http://www.w3.org/2000/svg"><path d="M16 22.75H8c-3.65 0-5.75-2.1-5.75-5.75V7c0-3.65 2.1-5.75 5.75-5.75h8c3.65 0 5.75 2.1 5.75 5.75v10c0 3.65-2.1 5.75-5.75 5.75Zm-8-20C5.14 2.75 3.75 4.14 3.75 7v10c0 2.86 1.39 4.25 4.25 4.25h8c2.86 0 4.25-1.39 4.25-4.25V7c0-2.86-1.39-4.25-4.25-4.25H8Z" fill="#292D32"/><path d="M18.5 9.25h-2c-1.52 0-2.75-1.23-2.75-2.75v-2c0-.41.34-.75.75-.75s.75.34.75.75v2c0 .69.56 1.25 1.25 1.25h2c.41 0 .75.34.75.75s-.34.75-.75.75ZM10 17.751c-.19 0-.38-.07-.53-.22l-2-2a.755.755 0 0 1 0-1.06l2-2c.29-.29.77-.29 1.06 0 .29.29.29.77 0 1.06l-1.47 1.47 1.47 1.47c.29.29.29.77 0 1.06-.15.15-.34.22-.53.22ZM14 17.751c-.19 0-.38-.07-.53-.22a.755.755 0 0 1 0-1.06l1.47-1.47-1.47-1.47a.755.755 0 0 1 0-1.06c.29-.29.77-.29 1.06 0l2 2c.29.29.29.77 0 1.06l-2 2c-.15.15-.34.22-.53.22Z" fill="#292D32"/></svg>