<svg width="24" height="24" fill="none" xmlns="http://www.w3.org/2000/svg"><path d="M15 22.75H9c-5.43 0-7.75-2.32-7.75-7.75V9c0-5.43 2.32-7.75 7.75-7.75h6c5.43 0 7.75 2.32 7.75 7.75v4c0 .41-.34.75-.75.75s-.75-.34-.75-.75V9c0-4.61-1.64-6.25-6.25-6.25H9C4.39 2.75 2.75 4.39 2.75 9v6c0 4.61 1.64 6.25 6.25 6.25h6c.41 0 .75.34.75.75s-.34.75-.75.75Z" fill="#292D32"/><path d="M19 22.748c-.41 0-.75-.34-.75-.75v-4.19l-.72.72c-.29.29-.77.29-1.06 0a.754.754 0 0 1 0-1.06l2-2a.751.751 0 0 1 1.28.53v6c0 .41-.34.75-.75.75Z" fill="#292D32"/><path d="M21 18.751c-.19 0-.38-.07-.53-.22l-2-2a.754.754 0 0 1 0-1.06c.29-.29.77-.29 1.06 0l2 2c.29.29.29.77 0 1.06-.15.15-.34.22-.53.22ZM8.9 16.491h-.08a.751.751 0 0 1-.66-.83l1.04-9.48c.05-.41.42-.71.83-.66.41.05.71.42.66.83l-1.05 9.47c-.04.38-.37.67-.74.67ZM12.05 16.489h-.08a.751.751 0 0 1-.66-.83l1.05-9.47c.05-.41.42-.71.83-.66.41.05.71.42.66.83l-1.05 9.47c-.04.37-.37.66-.75.66Z" fill="#292D32"/><path d="M16 10.172H6.53c-.41 0-.75-.34-.75-.75s.34-.75.75-.75H16c.41 0 .75.34.75.75s-.34.75-.75.75ZM15.47 13.328H6c-.41 0-.75-.34-.75-.75s.34-.75.75-.75h9.47a.749.749 0 1 1 0 1.5Z" fill="#292D32"/></svg>