<svg width="24" height="24" fill="none" xmlns="http://www.w3.org/2000/svg"><path d="M5 15.75c-.41 0-.75-.34-.75-.75V8c0-.41.34-.75.75-.75s.75.34.75.75v7c0 .41-.34.75-.75.75Z" fill="#292D32"/><path d="M5.25 22.75c-2.21 0-4-1.79-4-4s1.79-4 4-4 4 1.79 4 4-1.79 4-4 4Zm0-6.5a2.5 2.5 0 0 0 0 5 2.5 2.5 0 0 0 0-5ZM5 8.75C2.93 8.75 1.25 7.07 1.25 5c0-2.07 1.68-3.75 3.75-3.75 2.07 0 3.75 1.68 3.75 3.75 0 2.07-1.68 3.75-3.75 3.75Zm0-6C3.76 2.75 2.75 3.76 2.75 5S3.76 7.25 5 7.25 7.25 6.24 7.25 5 6.24 2.75 5 2.75ZM19 8.75c-2.07 0-3.75-1.68-3.75-3.75 0-2.07 1.68-3.75 3.75-3.75 2.07 0 3.75 1.68 3.75 3.75 0 2.07-1.68 3.75-3.75 3.75Zm0-6c-1.24 0-2.25 1.01-2.25 2.25S17.76 7.25 19 7.25 21.25 6.24 21.25 5 20.24 2.75 19 2.75Z" fill="#292D32"/><path d="M5.13 15.748c-.06 0-.12-.01-.19-.02a.75.75 0 0 1-.54-.91c.55-2.12 2.46-3.6 4.65-3.6h.02l3.43.01h.02c2.22 0 4.21-1.41 4.94-3.51.14-.39.56-.6.95-.46.39.14.6.56.46.95-.94 2.71-3.53 4.49-6.38 4.52l-3.43-.01h-.01c-1.51 0-2.82 1.02-3.2 2.48-.08.33-.39.55-.72.55Z" fill="#292D32"/></svg>