<svg width="24" height="24" fill="none" xmlns="http://www.w3.org/2000/svg"><path d="M16.45 15.15c-.41 0-.75-.34-.75-.75V8.5c0-.14-.11-.25-.25-.25h-2.9c-.41 0-.75-.34-.75-.75s.34-.75.75-.75h2.9c.96 0 1.75.79 1.75 1.75v5.9c0 .41-.34.75-.75.75Z" fill="#292D32"/><path d="M14.05 9.75c-.17 0-.34-.06-.48-.17l-1.8-1.5a.761.761 0 0 1 0-1.16l1.8-1.5c.32-.26.79-.22 1.06.1s.22.79-.1 1.06l-1.11.92 1.11.92c.32.27.36.74.1 1.06-.15.18-.37.27-.58.27ZM7.55 15.15c-.41 0-.75-.34-.75-.75v-4.2c0-.41.34-.75.75-.75s.75.34.75.75v4.2c0 .41-.34.75-.75.75Z" fill="#292D32"/><path d="M7.7 10.65c-1.49 0-2.7-1.21-2.7-2.7 0-1.49 1.21-2.7 2.7-2.7 1.49 0 2.7 1.21 2.7 2.7 0 1.49-1.21 2.7-2.7 2.7Zm0-3.9c-.66 0-1.2.54-1.2 1.2 0 .66.54 1.2 1.2 1.2.66 0 1.2-.54 1.2-1.2 0-.66-.54-1.2-1.2-1.2ZM7.55 18.748c-1.41 0-2.55-1.14-2.55-2.55s1.14-2.55 2.55-2.55 2.55 1.14 2.55 2.55-1.14 2.55-2.55 2.55Zm0-3.6a1.05 1.05 0 1 0 0 2.1 1.05 1.05 0 0 0 0-2.1ZM16.45 18.748c-1.41 0-2.55-1.14-2.55-2.55s1.14-2.55 2.55-2.55 2.55 1.14 2.55 2.55-1.14 2.55-2.55 2.55Zm0-3.6a1.05 1.05 0 1 0 0 2.1 1.05 1.05 0 0 0 0-2.1Z" fill="#292D32"/><path d="M15 22.75H9c-5.43 0-7.75-2.32-7.75-7.75V9c0-5.43 2.32-7.75 7.75-7.75h6c5.43 0 7.75 2.32 7.75 7.75v6c0 5.43-2.32 7.75-7.75 7.75Zm-6-20C4.39 2.75 2.75 4.39 2.75 9v6c0 4.61 1.64 6.25 6.25 6.25h6c4.61 0 6.25-1.64 6.25-6.25V9c0-4.61-1.64-6.25-6.25-6.25H9Z" fill="#292D32"/></svg>