<svg width="24" height="24" fill="none" xmlns="http://www.w3.org/2000/svg"><path d="M7.8 14.552c-.41 0-.75-.34-.75-.75v-4.2c0-.41.34-.75.75-.75s.75.34.75.75v4.2c0 .41-.34.75-.75.75Z" fill="#292D32"/><path d="M7.95 18.752c-1.49 0-2.7-1.21-2.7-2.7 0-1.49 1.21-2.7 2.7-2.7 1.49 0 2.7 1.21 2.7 2.7 0 1.49-1.21 2.7-2.7 2.7Zm0-3.9c-.66 0-1.2.54-1.2 1.2 0 .66.54 1.2 1.2 1.2.66 0 1.2-.54 1.2-1.2 0-.66-.54-1.2-1.2-1.2ZM7.8 10.35c-1.41 0-2.55-1.14-2.55-2.55S6.39 5.25 7.8 5.25s2.55 1.14 2.55 2.55-1.14 2.55-2.55 2.55Zm0-3.6a1.05 1.05 0 1 0 0 2.1 1.05 1.05 0 0 0 0-2.1ZM16.2 10.35c-1.41 0-2.55-1.14-2.55-2.55s1.14-2.55 2.55-2.55 2.55 1.14 2.55 2.55-1.14 2.55-2.55 2.55Zm0-3.6a1.05 1.05 0 1 0 0 2.1 1.05 1.05 0 0 0 0-2.1Z" fill="#292D32"/><path d="M7.88 14.551c-.06 0-.13-.01-.19-.02a.75.75 0 0 1-.54-.91 3.168 3.168 0 0 1 3.08-2.38h.01l2.06.01h.01c1.21 0 2.28-.76 2.68-1.9a.748.748 0 1 1 1.41.5 4.32 4.32 0 0 1-4.11 2.91l-2.06-.01h-.01c-.77 0-1.44.52-1.63 1.26-.07.32-.38.54-.71.54Z" fill="#292D32"/><path d="M15 22.75H9c-5.43 0-7.75-2.32-7.75-7.75V9c0-5.43 2.32-7.75 7.75-7.75h6c5.43 0 7.75 2.32 7.75 7.75v6c0 5.43-2.32 7.75-7.75 7.75Zm-6-20C4.39 2.75 2.75 4.39 2.75 9v6c0 4.61 1.64 6.25 6.25 6.25h6c4.61 0 6.25-1.64 6.25-6.25V9c0-4.61-1.64-6.25-6.25-6.25H9Z" fill="#292D32"/></svg>