<svg width="24" height="24" fill="none" xmlns="http://www.w3.org/2000/svg"><path d="M7.8 15.15c-.41 0-.75-.34-.75-.75v-4.2c0-.41.34-.75.75-.75s.75.34.75.75v4.2c0 .41-.34.75-.75.75Z" fill="#292D32"/><path d="M7.95 10.65c-1.49 0-2.7-1.21-2.7-2.7 0-1.49 1.21-2.7 2.7-2.7 1.49 0 2.7 1.21 2.7 2.7 0 1.49-1.21 2.7-2.7 2.7Zm0-3.9c-.66 0-1.2.54-1.2 1.2 0 .66.54 1.2 1.2 1.2.66 0 1.2-.54 1.2-1.2 0-.66-.54-1.2-1.2-1.2ZM7.8 18.748c-1.41 0-2.55-1.14-2.55-2.55s1.14-2.55 2.55-2.55 2.55 1.14 2.55 2.55-1.14 2.55-2.55 2.55Zm0-3.6a1.05 1.05 0 1 0 0 2.1 1.05 1.05 0 0 0 0-2.1ZM16.2 18.748c-1.41 0-2.55-1.14-2.55-2.55s1.14-2.55 2.55-2.55 2.55 1.14 2.55 2.55-1.14 2.55-2.55 2.55Zm0-3.6a1.05 1.05 0 1 0 0 2.1 1.05 1.05 0 0 0 0-2.1Z" fill="#292D32"/><path d="M15.7 15.171a.75.75 0 0 1-.71-.5c-.4-1.14-1.47-1.9-2.68-1.9h-.01l-2.06.01h-.01c-1.45 0-2.72-.98-3.08-2.38-.1-.4.14-.81.54-.91.39-.1.81.14.91.54.19.74.86 1.26 1.63 1.26h.01l2.06-.01h.02c1.84 0 3.49 1.17 4.1 2.91.14.39-.07.82-.46.96-.09.01-.18.02-.26.02Z" fill="#292D32"/><path d="M15 22.75H9c-5.43 0-7.75-2.32-7.75-7.75V9c0-5.43 2.32-7.75 7.75-7.75h6c5.43 0 7.75 2.32 7.75 7.75v6c0 5.43-2.32 7.75-7.75 7.75Zm-6-20C4.39 2.75 2.75 4.39 2.75 9v6c0 4.61 1.64 6.25 6.25 6.25h6c4.61 0 6.25-1.64 6.25-6.25V9c0-4.61-1.64-6.25-6.25-6.25H9Z" fill="#292D32"/></svg>