<svg width="24" height="24" fill="none" xmlns="http://www.w3.org/2000/svg"><path d="M19 16.75c-.41 0-.75-.34-.75-.75V6.5c0-.69-.56-1.25-1.25-1.25h-4.5c-.41 0-.75-.34-.75-.75s.34-.75.75-.75H17c1.52 0 2.75 1.23 2.75 2.75V16c0 .41-.34.75-.75.75Z" fill="#292D32"/><path d="M15 7.75c-.17 0-.34-.06-.48-.17l-3-2.5a.761.761 0 0 1 0-1.16l3-2.5a.75.75 0 0 1 1.06.1c.27.32.22.79-.1 1.06L13.17 4.5l2.31 1.92c.32.27.36.74.1 1.06-.15.18-.37.27-.58.27ZM5 16.75c-.41 0-.75-.34-.75-.75V9c0-.41.34-.75.75-.75s.75.34.75.75v7c0 .41-.34.75-.75.75Z" fill="#292D32"/><path d="M5.25 9.25c-2.21 0-4-1.79-4-4s1.79-4 4-4 4 1.79 4 4-1.79 4-4 4Zm0-6.5a2.5 2.5 0 0 0 0 5 2.5 2.5 0 0 0 0-5ZM5 22.75c-2.07 0-3.75-1.68-3.75-3.75 0-2.07 1.68-3.75 3.75-3.75 2.07 0 3.75 1.68 3.75 3.75 0 2.07-1.68 3.75-3.75 3.75Zm0-6c-1.24 0-2.25 1.01-2.25 2.25S3.76 21.25 5 21.25 7.25 20.24 7.25 19 6.24 16.75 5 16.75ZM19 22.75c-2.07 0-3.75-1.68-3.75-3.75 0-2.07 1.68-3.75 3.75-3.75 2.07 0 3.75 1.68 3.75 3.75 0 2.07-1.68 3.75-3.75 3.75Zm0-6c-1.24 0-2.25 1.01-2.25 2.25s1.01 2.25 2.25 2.25 2.25-1.01 2.25-2.25-1.01-2.25-2.25-2.25Z" fill="#292D32"/></svg>