<svg width="24" height="24" fill="none" xmlns="http://www.w3.org/2000/svg"><path d="M19 16.75c-.41 0-.75-.34-.75-.75V6.5c0-.69-.56-1.25-1.25-1.25h-5.5c-.41 0-.75-.34-.75-.75s.34-.75.75-.75H17c1.52 0 2.75 1.23 2.75 2.75V16c0 .41-.34.75-.75.75Z" fill="#292D32"/><path d="M14 7.75c-.17 0-.34-.06-.48-.17l-3-2.5a.761.761 0 0 1 0-1.16l3-2.5a.75.75 0 0 1 1.06.1c.27.32.22.79-.1 1.06L12.17 4.5l2.31 1.92c.32.27.36.74.1 1.06-.15.18-.37.27-.58.27ZM19 22.75c-2.07 0-3.75-1.68-3.75-3.75 0-2.07 1.68-3.75 3.75-3.75 2.07 0 3.75 1.68 3.75 3.75 0 2.07-1.68 3.75-3.75 3.75Zm0-6c-1.24 0-2.25 1.01-2.25 2.25s1.01 2.25 2.25 2.25 2.25-1.01 2.25-2.25-1.01-2.25-2.25-2.25ZM12.5 20.25H7c-1.52 0-2.75-1.23-2.75-2.75V8c0-.41.34-.75.75-.75s.75.34.75.75v9.5c0 .69.56 1.25 1.25 1.25h5.5c.41 0 .75.34.75.75s-.34.75-.75.75Z" fill="#292D32"/><path d="M10 22.75a.75.75 0 0 1-.48-1.33l2.31-1.92-2.31-1.92a.758.758 0 0 1-.1-1.06c.27-.32.74-.36 1.06-.1l3 2.5a.761.761 0 0 1 0 1.16l-3 2.5c-.14.11-.31.17-.48.17ZM5 8.75C2.93 8.75 1.25 7.07 1.25 5c0-2.07 1.68-3.75 3.75-3.75 2.07 0 3.75 1.68 3.75 3.75 0 2.07-1.68 3.75-3.75 3.75Zm0-6C3.76 2.75 2.75 3.76 2.75 5S3.76 7.25 5 7.25 7.25 6.24 7.25 5 6.24 2.75 5 2.75Z" fill="#292D32"/></svg>