<svg width="24" height="24" fill="none" xmlns="http://www.w3.org/2000/svg"><path d="M14.97 22.75h-6c-5.43 0-7.75-2.32-7.75-7.75V9c0-5.43 2.32-7.75 7.75-7.75h6c5.43 0 7.75 2.32 7.75 7.75v6c0 5.43-2.31 7.75-7.75 7.75Zm-6-20C4.36 2.75 2.72 4.39 2.72 9v6c0 4.61 1.64 6.25 6.25 6.25h6c4.61 0 6.25-1.64 6.25-6.25V9c0-4.61-1.64-6.25-6.25-6.25h-6Z" fill="#292D32"/><path d="M22 16.25H2c-.41 0-.75-.34-.75-.75s.34-.75.75-.75h20c.41 0 .75.34.75.75s-.34.75-.75.75ZM12 11.811c-.19 0-.38-.07-.53-.22l-2.56-2.56a.754.754 0 0 1 0-1.06c.29-.29.77-.29 1.06 0l2.03 2.03 2.03-2.03c.29-.29.77-.29 1.06 0 .29.29.29.77 0 1.06l-2.56 2.56c-.15.15-.34.22-.53.22Z" fill="#292D32"/></svg>