<svg width="24" height="24" fill="none" xmlns="http://www.w3.org/2000/svg"><path d="M14.431 16.92h-2.29c-.41 0-.75-.34-.75-.75s.34-.75.75-.75h2.29a.781.781 0 0 0 0-1.56h-2.29c-.24 0-.47-.12-.61-.31a.746.746 0 0 1-.1-.68l.76-2.29c.1-.31.39-.51.71-.51h3.06c.41 0 .75.34.75.75s-.34.75-.75.75h-2.52l-.26.79h1.25a2.279 2.279 0 1 1 0 4.56ZM9.54 16.92c-.41 0-.75-.34-.75-.75v-3.39L8.6 13c-.28.31-.75.33-1.06.06A.755.755 0 0 1 7.49 12l1.5-1.67c.21-.23.54-.31.83-.2.29.11.48.39.48.7v5.35c-.01.41-.34.74-.76.74Z" fill="#292D32"/><path d="M12.002 3.48c-.08 0-.16.01-.24.01l.82-1.02c.26-.32.21-.8-.12-1.05a.747.747 0 0 0-1.05.12L9.442 4c-.01.01-.01.02-.02.04-.03.04-.05.09-.07.13-.02.05-.04.09-.05.13-.01.05-.01.09-.01.14v.2c.01.03.03.05.04.08.02.05.04.09.06.14.03.04.06.08.1.11.02.03.03.06.06.08.02.01.03.02.05.03.02.02.05.03.08.04.05.03.11.05.16.06.04.02.07.02.1.02s.05.01.08.01.05-.01.07-.02c.03 0 .06.01.09 0 .64-.15 1.24-.22 1.81-.22 4.49 0 8.14 3.65 8.14 8.14s-3.65 8.14-8.14 8.14-8.14-3.65-8.14-8.14c0-1.74.57-3.42 1.65-4.86a.75.75 0 0 0-1.2-.9c-1.28 1.7-1.95 3.69-1.95 5.76 0 5.31 4.32 9.64 9.64 9.64s9.64-4.32 9.64-9.64-4.32-9.63-9.63-9.63Z" fill="#292D32"/></svg>