<svg width="24" height="24" fill="none" xmlns="http://www.w3.org/2000/svg"><path d="M20.97 1h-2.94c-.87 0-1.51.36-1.8 1-.16.29-.23.63-.23 1.03v2.94C16 7.24 16.76 8 18.03 8h2.94c.4 0 .74-.07 1.03-.23.64-.29 1-.93 1-1.8V3.03C23 1.76 22.24 1 20.97 1Zm.94 3.93c-.1.1-.25.17-.41.18h-1.41v.51l.01.88c-.01.17-.07.31-.19.43-.1.1-.25.17-.41.17-.33 0-.6-.27-.6-.6V5.1l-1.4.01a.61.61 0 0 1-.6-.61c0-.33.27-.6.6-.6l.88.01h.52v-1.4c0-.33.27-.61.6-.61.33 0 .6.28.6.61l-.01.71v.68h1.41c.33 0 .6.27.6.6a.68.68 0 0 1-.19.43ZM9.001 10.381a2.38 2.38 0 1 0 0-4.76 2.38 2.38 0 0 0 0 4.76Z" fill="#292D32"/><path d="M20.97 8h-.47v4.61l-.13-.11c-.78-.67-2.04-.67-2.82 0l-4.16 3.57c-.78.67-2.04.67-2.82 0l-.34-.28c-.71-.62-1.84-.68-2.64-.14l-3.74 2.51c-.22-.56-.35-1.21-.35-1.97V7.81c0-2.82 1.49-4.31 4.31-4.31H16v-.47c0-.4.07-.74.23-1.03H7.81C4.17 2 2 4.17 2 7.81v8.38c0 1.09.19 2.04.56 2.84.86 1.9 2.7 2.97 5.25 2.97h8.38c3.64 0 5.81-2.17 5.81-5.81V7.77c-.29.16-.63.23-1.03.23Z" fill="#292D32"/></svg>