<svg width="24" height="24" fill="none" xmlns="http://www.w3.org/2000/svg"><path d="M21.769 2.229c-.3-.3-.79-.3-1.09 0l-18.45 18.46c-.3.3-.3.79 0 1.09a.758.758 0 0 0 1.08-.01l18.46-18.46c.31-.3.31-.78 0-1.08ZM9.001 10.381a2.38 2.38 0 1 0 0-4.76 2.38 2.38 0 0 0 0 4.76ZM21.608 5.39l-1.22 1.22c.08.37.11.77.11 1.2v4.8l-.13-.11c-.78-.67-2.04-.67-2.82 0l-4.16 3.57c-.71.61-1.83.67-2.61.15l-5.38 5.38c.04.02.08.03.12.04.27.09.54.16.83.22.1.02.2.04.31.05.37.05.75.09 1.15.09h8.38c3.64 0 5.81-2.17 5.81-5.81V7.81c0-.9-.13-1.71-.39-2.42Z" fill="#292D32"/><path d="m21.61 5.39-1.22 1.22c.08.37.11.77.11 1.2v4.8l-.13-.11c-.78-.67-2.04-.67-2.82 0l-4.16 3.57c-.71.61-1.83.67-2.61.15l-5.39 5.39c.71.26 1.52.39 2.42.39h8.38c3.64 0 5.81-2.17 5.81-5.81V7.81c0-.9-.13-1.71-.39-2.42ZM20.46 3.54 19.4 4.6c-.72-.73-1.8-1.1-3.21-1.1H7.81C4.99 3.5 3.5 4.99 3.5 7.81v8.38c0 .76.13 1.41.35 1.97l3.74-2.51c.34-.23.73-.35 1.12-.36l-5.17 5.17c-.4-.4-.73-.88-.98-1.43-.37-.8-.56-1.75-.56-2.84V7.81C2 4.17 4.17 2 7.81 2h8.38c1.82 0 3.27.54 4.27 1.54Z" fill="#292D32"/></svg>