<svg width="24" height="24" fill="none" xmlns="http://www.w3.org/2000/svg"><path d="M20.97 8h-2.94C16.76 8 16 7.24 16 5.97V3.03C16 1.76 16.76 1 18.03 1h2.94C22.24 1 23 1.76 23 3.03v2.94C23 7.24 22.24 8 20.97 8Zm.22-3.31a.62.62 0 0 0-.44-.18.62.62 0 0 0-.44.18l-.18.18V2.63c0-.35-.28-.63-.63-.63s-.63.28-.63.63v2.24l-.18-.18a.628.628 0 0 0-.88 0c-.24.24-.24.64 0 .88l1.25 1.25c.05.05.12.09.19.12.02.01.04.01.06.02.05.02.1.03.16.03h.06c.07 0 .13-.01.2-.04h.02c.07-.03.13-.07.18-.12.01-.01.01-.01.02-.01l1.25-1.25c.24-.24.24-.64-.01-.88ZM9.001 10.381a2.38 2.38 0 1 0 0-4.76 2.38 2.38 0 0 0 0 4.76Z" fill="#292D32"/><path d="M20.97 8h-.47v4.61l-.13-.11c-.78-.67-2.04-.67-2.82 0l-4.16 3.57c-.78.67-2.04.67-2.82 0l-.34-.28c-.71-.62-1.84-.68-2.64-.14l-3.74 2.51c-.22-.56-.35-1.21-.35-1.97V7.81c0-2.82 1.49-4.31 4.31-4.31H16v-.47c0-.4.07-.74.23-1.03H7.81C4.17 2 2 4.17 2 7.81v8.38c0 1.09.19 2.04.56 2.84.86 1.9 2.7 2.97 5.25 2.97h8.38c3.64 0 5.81-2.17 5.81-5.81V7.77c-.29.16-.63.23-1.03.23Z" fill="#292D32"/></svg>