<svg width="24" height="24" fill="none" xmlns="http://www.w3.org/2000/svg"><path d="M20.97 1h-2.94C16.76 1 16 1.76 16 3.03v2.94C16 7.24 16.76 8 18.03 8h2.94C22.24 8 23 7.24 23 5.97V3.03C23 1.76 22.24 1 20.97 1Zm.66 2.45-2.37 2.77a.49.49 0 0 1-.37.18h-.02c-.14 0-.27-.05-.37-.15l-1.1-1.08a.52.52 0 0 1 0-.73c.2-.2.53-.21.73 0l.7.69 2-2.34c.19-.22.51-.24.73-.06.23.18.25.51.07.72ZM9.001 10.381a2.38 2.38 0 1 0 0-4.76 2.38 2.38 0 0 0 0 4.76Z" fill="#292D32"/><path d="M20.97 8h-.47v4.61l-.13-.11c-.78-.67-2.04-.67-2.82 0l-4.16 3.57c-.78.67-2.04.67-2.82 0l-.34-.28c-.71-.62-1.84-.68-2.64-.14l-3.74 2.51c-.22-.56-.35-1.21-.35-1.97V7.81c0-2.82 1.49-4.31 4.31-4.31H16v-.47c0-.4.07-.74.23-1.03H7.81C4.17 2 2 4.17 2 7.81v8.38c0 1.09.19 2.04.56 2.84.86 1.9 2.7 2.97 5.25 2.97h8.38c3.64 0 5.81-2.17 5.81-5.81V7.77c-.29.16-.63.23-1.03.23Z" fill="#292D32"/></svg>