<svg width="24" height="24" fill="none" xmlns="http://www.w3.org/2000/svg"><path d="M9.001 10.381a2.38 2.38 0 1 0 0-4.76 2.38 2.38 0 0 0 0 4.76Z" fill="#292D32"/><path d="M20.97 8h-.47v4.61l-.13-.11c-.78-.67-2.04-.67-2.82 0l-4.16 3.57c-.78.67-2.04.67-2.82 0l-.34-.28c-.71-.62-1.84-.68-2.64-.14l-3.74 2.51c-.22-.56-.35-1.21-.35-1.97V7.81c0-2.82 1.49-4.31 4.31-4.31H16v-.47c0-.4.07-.74.23-1.03H7.81C4.17 2 2 4.17 2 7.81v8.38c0 1.09.19 2.04.56 2.84.86 1.9 2.7 2.97 5.25 2.97h8.38c3.64 0 5.81-2.17 5.81-5.81V7.77c-.29.16-.63.23-1.03.23Z" fill="#292D32"/><path d="M20.97 1h-2.94c-.87 0-1.51.36-1.8 1-.16.29-.23.63-.23 1.03V5.97C16 7.24 16.76 8 18.03 8H20.97c.4 0 .74-.07 1.03-.23.64-.29 1-.93 1-1.8V3.03C23 1.76 22.24 1 20.97 1Zm-.67 5.21c-.32.19-.63.29-.8.29-.45 0-1.73-.62-2.11-1.82a1.836 1.836 0 0 1-.02-1.07c.13-.47.44-.88.96-1.05.2-.06.41-.08.6-.04.2.03.39.11.56.24.32-.25.76-.33 1.18-.2.91.3 1.2 1.33.94 2.12-.04.12-.09.24-.15.35-.27.54-.73.94-1.16 1.18Z" fill="#292D32"/></svg>