<svg width="24" height="24" fill="none" xmlns="http://www.w3.org/2000/svg"><path d="M16.418 6.422v1.16l-7.28 7.28a4.776 4.776 0 0 1-1.56-3.52v-4.92c0-2.06 1.4-3.77 3.3-4.26.19-.05.37.11.37.3v1.54c0 .41.34.75.75.75s.75-.34.75-.75v-1.54c0-.19.18-.35.37-.3 1.9.49 3.3 2.2 3.3 4.26ZM19.812 9.811v1.59c0 4.07-3.13 7.42-7.11 7.77v2.13c0 .39-.31.7-.7.7-.39 0-.7-.31-.7-.7v-2.13c-1.09-.1-2.12-.42-3.04-.93l1.03-1.03c.82.38 1.74.6 2.71.6 3.54 0 6.42-2.88 6.42-6.41v-1.59c0-.38.31-.69.7-.69.38 0 .69.31.69.69Z" fill="#292D32"/><path d="M16.418 10.078v1.45c0 2.58-2.22 4.65-4.86 4.4-.28-.03-.56-.08-.82-.17l5.68-5.68ZM21.771 2.229c-.3-.3-.79-.3-1.09 0l-13.45 13.45a6.322 6.322 0 0 1-1.65-4.28v-1.59c0-.38-.31-.69-.7-.69-.38 0-.69.31-.69.69v1.59c0 2.03.78 3.88 2.05 5.27l-4.02 4.02c-.3.3-.3.79 0 1.09.16.14.35.22.55.22.2 0 .39-.08.54-.23l18.46-18.46c.31-.3.31-.78 0-1.08Z" fill="#292D32"/></svg>