<svg width="24" height="24" fill="none" xmlns="http://www.w3.org/2000/svg"><path d="M21.97 16.33A3.944 3.944 0 0 0 19 15c-2.21 0-4 1.79-4 4 0 .75.21 1.46.58 2.06.2.34.46.65.76.91.7.64 1.63 1.03 2.66 1.03 1.46 0 2.73-.78 3.42-1.94.37-.6.58-1.31.58-2.06 0-1.02-.39-1.96-1.03-2.67Zm-1.37 4.25c-.15.15-.34.22-.53.22s-.38-.07-.53-.22l-.53-.53-.55.55c-.15.15-.34.22-.53.22s-.38-.07-.53-.22a.754.754 0 0 1 0-1.06l.55-.55-.53-.53a.754.754 0 0 1 0-1.06c.29-.29.77-.29 1.06 0l.53.53.5-.5c.29-.29.77-.29 1.06 0 .29.29.29.77 0 1.06l-.5.5.53.53c.29.29.29.76 0 1.06ZM12.228 12.07c-.41 0-.74.33-.74.74s.33.74.74.74.74-.33.74-.74-.33-.74-.74-.74ZM6.76 13.059c-.41 0-.74.33-.74.74s.33.74.74.74.74-.33.74-.74-.33-.74-.74-.74Z" fill="#292D32"/><path d="M16.19 2H7.81c-.28 0-.55.01-.81.05-3.15.29-5 2.4-5 5.76v8.38c0 3.36 1.85 5.47 5 5.76.26.04.53.05.81.05h5.69c.39 0 .64-.44.49-.8-.29-.69-.49-1.49-.49-2.2 0-3.03 2.47-5.5 5.5-5.5.76 0 1.5.15 2.18.45.37.16.82-.09.82-.49V7.81C22 4.17 19.83 2 16.19 2Zm-1.71 6.05v4.76c0 .01-.01.02-.01.04a2.243 2.243 0 0 1-2.24 2.21c-1.24 0-2.24-1.01-2.24-2.24 0-1.24 1.01-2.24 2.24-2.24.26 0 .51.05.75.14V9.03l-3.97 1.08v3.7c0 .01-.01.02-.01.03a2.234 2.234 0 0 1-2.24 2.2c-1.24 0-2.24-1.01-2.24-2.24a2.25 2.25 0 0 1 2.24-2.24c.26 0 .51.05.74.14V7.79c0-.93.58-1.68 1.47-1.92l2.98-.82c.93-.25 1.5 0 1.82.24.46.35.69.92.69 1.68v1.08h.02Z" fill="#292D32"/></svg>