<svg width="24" height="24" fill="none" xmlns="http://www.w3.org/2000/svg"><path d="M7 3.252v17.5c0 .64-.61 1.15-1.23.98-2.4-.68-3.77-2.64-3.77-5.54v-8.38c0-2.9 1.37-4.86 3.77-5.54.62-.17 1.23.33 1.23.98ZM12.47 14.371a.68.68 0 0 0-.68.68c0 .37.31.68.68.68.38 0 .69-.31.69-.68a.69.69 0 0 0-.69-.68ZM17.518 13.45c-.38 0-.69.31-.69.69 0 .38.31.68.69.68.38 0 .69-.31.69-.68 0-.37-.31-.69-.69-.69Z" fill="#292D32"/><path d="M16.19 2H9.5c-.55 0-1 .45-1 1v18c0 .55.45 1 1 1h6.69C19.4 22 22 19.4 22 16.19V7.81C22 4.6 19.4 2 16.19 2Zm3.41 7.74v4.4c0 .01-.01.02-.01.03a2.074 2.074 0 0 1-2.07 2.04c-1.14 0-2.07-.93-2.07-2.07 0-1.14.93-2.07 2.07-2.07.24 0 .47.05.69.13v-1.55l-3.67 1v3.42c0 .01-.01.02-.01.03a2.074 2.074 0 0 1-2.07 2.04c-1.14 0-2.07-.93-2.07-2.07 0-1.14.93-2.07 2.07-2.07.24 0 .47.05.69.13V9.5c0-.86.53-1.56 1.36-1.77l2.75-.76c.86-.23 1.39 0 1.69.23.43.33.64.85.64 1.55v.99h.01Z" fill="#292D32"/></svg>