<svg width="24" height="24" fill="none" xmlns="http://www.w3.org/2000/svg"><path d="M17 4.75h-1V3.26c0-.83-.68-1.51-1.51-1.51H9.51C8.68 1.75 8 2.43 8 3.26v1.49H7c-1.1 0-2 .9-2 2v.13c.32-.09.65-.13 1-.13h12c.35 0 .68.04 1 .13v-.13c0-1.1-.9-2-2-2ZM13.93 16.93a.57.57 0 1 0-.001 1.14.57.57 0 0 0 0-1.14ZM9.07 17.809a.57.57 0 1 0 0 1.14.57.57 0 0 0 0-1.14Z" fill="#292D32"/><path d="M19 8.38c-.32-.09-.65-.13-1-.13H6c-.35 0-.68.04-1 .13-1.72.45-3 2.02-3 3.87v6c0 2.2 1.8 4 4 4h12c2.2 0 4-1.8 4-4v-6c0-1.85-1.28-3.42-3-3.87Zm-3 4.9v4.22c0 1.14-.93 2.07-2.07 2.07-1.14 0-2.07-.93-2.07-2.07 0-1.14.93-2.07 2.07-2.07.2 0 .39.04.57.09v-1.26l-3.35.91v3.21c0 .01 0 .02-.01.03a2.077 2.077 0 0 1-2.07 2.05c-1.14 0-2.07-.93-2.07-2.08s.93-2.07 2.07-2.07c.2 0 .39.04.58.09v-3.35c0-.86.54-1.56 1.36-1.78l2.65-.73c.85-.23 1.39-.01 1.69.22.3.23.65.68.65 1.57v.95Z" fill="#292D32"/></svg>