<svg width="24" height="24" fill="none" xmlns="http://www.w3.org/2000/svg"><path d="M14.54 13.672c-.36 0-.65.29-.65.65 0 .36.29.65.65.65.36 0 .65-.29.65-.65a.662.662 0 0 0-.65-.65ZM9.06 14.66c-.36 0-.65.29-.65.65 0 .36.29.65.65.65.36 0 .65-.29.65-.65 0-.36-.29-.65-.65-.65Z" fill="#292D32"/><path d="M16.19 2H7.81C4.17 2 2 4.17 2 7.81v8.37C2 19.83 4.17 22 7.81 22h8.37c3.64 0 5.81-2.17 5.81-5.81V7.81C22 4.17 19.83 2 16.19 2Zm.69 7.55v4.76c0 1.29-1.05 2.34-2.34 2.34-1.29 0-2.34-1.05-2.34-2.34 0-1.29 1.05-2.34 2.34-2.34.23 0 .44.04.65.1v-1.42l-3.78 1.03v3.62c0 .01-.01.02-.01.03a2.337 2.337 0 0 1-2.34 2.31c-1.29 0-2.34-1.05-2.34-2.34 0-1.29 1.05-2.34 2.34-2.34.23 0 .44.04.65.1V9.29c0-.97.6-1.76 1.54-2.01l2.99-.82c.96-.26 1.56-.01 1.9.25.33.26.74.77.74 1.77v1.07Z" fill="#292D32"/></svg>