<svg width="24" height="24" fill="none" xmlns="http://www.w3.org/2000/svg"><path d="M19.21 15.012c-1.09-.07-2.21.33-3.04 1.16a4.008 4.008 0 0 0 0 5.66c.53.53 1.18.88 1.87 1.05.38.1.78.13 1.18.11.95-.04 1.88-.42 2.61-1.15a3.98 3.98 0 0 0 1.05-3.79c-.16-.69-.52-1.34-1.05-1.87a3.952 3.952 0 0 0-2.62-1.17Zm2.03 3.97c0 .21-.08.39-.22.53s-.32.22-.53.22h-.74v.78c0 .21-.08.39-.22.53s-.32.22-.53.22c-.41 0-.75-.34-.75-.75v-.78h-.75c-.41 0-.75-.34-.75-.75s.34-.75.75-.75h.75v-.71c0-.41.34-.75.75-.75s.75.34.75.75v.71h.74c.42 0 .75.34.75.75ZM12.228 12.07c-.41 0-.74.33-.74.74s.33.74.74.74.74-.33.74-.74-.33-.74-.74-.74ZM6.76 13.059c-.41 0-.74.33-.74.74s.33.74.74.74.74-.33.74-.74-.33-.74-.74-.74Z" fill="#292D32"/><path d="M16.19 2H7.81c-.28 0-.55.01-.81.05-3.15.29-5 2.4-5 5.76v8.38c0 3.36 1.85 5.47 5 5.76.26.04.53.05.81.05h5.69c.39 0 .64-.44.49-.8-.29-.69-.49-1.49-.49-2.2 0-3.03 2.47-5.5 5.5-5.5.76 0 1.5.15 2.18.45.37.16.82-.09.82-.49V7.81C22 4.17 19.83 2 16.19 2Zm-1.71 6.05v4.76c0 .01-.01.02-.01.04a2.243 2.243 0 0 1-2.24 2.21c-1.24 0-2.24-1.01-2.24-2.24 0-1.24 1.01-2.24 2.24-2.24.26 0 .51.05.75.14V9.03l-3.97 1.08v3.7c0 .01-.01.02-.01.03a2.234 2.234 0 0 1-2.24 2.2c-1.24 0-2.24-1.01-2.24-2.24a2.25 2.25 0 0 1 2.24-2.24c.26 0 .51.05.74.14V7.79c0-.93.58-1.68 1.47-1.92l2.98-.82c.93-.25 1.5 0 1.82.24.46.35.69.92.69 1.68v1.08h.02Z" fill="#292D32"/></svg>