<svg width="24" height="24" fill="none" xmlns="http://www.w3.org/2000/svg"><path d="M19.072 19.821c-.19 0-.38-.07-.53-.22a.754.754 0 0 1 0-1.06c3.61-3.61 3.61-9.48 0-13.08a.754.754 0 0 1 0-1.06c.29-.29.77-.29 1.06 0 4.19 4.19 4.19 11.01 0 15.2-.15.15-.34.22-.53.22ZM4.93 19.821c-.19 0-.38-.07-.53-.22-4.19-4.19-4.19-11.01 0-15.2.29-.29.77-.29 1.06 0 .29.29.29.77 0 1.06-3.61 3.61-3.61 9.48 0 13.08.29.29.29.77 0 1.06-.15.15-.34.22-.53.22ZM11.999 22.712c-1.25-.01-2.44-.21-3.55-.6a.754.754 0 0 1-.46-.96c.14-.39.56-.6.96-.46.96.33 1.98.51 3.06.51 1.07 0 2.1-.18 3.05-.51.39-.13.82.07.96.46s-.07.82-.46.96c-1.12.39-2.31.6-3.56.6ZM15.299 3.34c-.08 0-.17-.01-.25-.04a9.04 9.04 0 0 0-3.05-.51c-1.07 0-2.09.18-3.05.51-.4.13-.82-.07-.96-.46s.07-.82.46-.96c1.12-.39 2.31-.59 3.55-.59 1.24 0 2.44.2 3.55.59a.75.75 0 0 1-.25 1.46ZM8.738 12v-1.67c0-2.08 1.47-2.93 3.27-1.89l1.45.84 1.45.84c1.8 1.04 1.8 2.74 0 3.78l-1.45.84-1.45.84c-1.8 1.04-3.27.19-3.27-1.89V12Z" fill="#292D32"/></svg>