<svg width="24" height="24" fill="none" xmlns="http://www.w3.org/2000/svg"><path d="M21.28 15.72c-.65-.45-1.44-.72-2.28-.72-.94 0-1.81.33-2.5.88A3.97 3.97 0 0 0 15 19c0 .75.21 1.46.58 2.06.04.07.09.14.15.21A3.93 3.93 0 0 0 19 23c1.01 0 1.93-.37 2.63-1 .31-.26.58-.58.79-.94.37-.6.58-1.31.58-2.06 0-1.36-.68-2.56-1.72-3.28Zm-.68 4.86c-.15.15-.34.22-.53.22s-.38-.07-.53-.22l-.53-.53-.55.55c-.15.15-.34.22-.53.22s-.38-.07-.53-.22a.754.754 0 0 1 0-1.06l.55-.55-.53-.53a.754.754 0 0 1 0-1.06c.29-.29.77-.29 1.06 0l.53.53.5-.5c.29-.29.77-.29 1.06 0 .29.29.29.77 0 1.06l-.5.5.53.53c.29.29.29.76 0 1.06Z" fill="#292D32"/><path d="M21.85 10.25c-.78-4.45-4.61-7.9-9.12-8.22-6.1-.44-11.14 4.61-10.7 10.7.32 4.51 3.77 8.33 8.22 9.11 1.15.2 2.27.2 3.34.02.31-.05.49-.39.37-.67-.3-.68-.46-1.43-.46-2.2 0-1.69.75-3.25 2.07-4.29.97-.78 2.19-1.21 3.43-1.21.78 0 1.52.16 2.19.46.29.13.62-.06.68-.37.18-1.06.18-2.18-.02-3.33Zm-7.35 3.32-1.2.69-1.2.69c-1.49.86-2.71.16-2.71-1.57V10.61c0-1.72 1.22-2.43 2.71-1.57l1.2.69 1.2.69c1.49.88 1.49 2.28 0 3.15Z" fill="#292D32"/></svg>