<svg width="24" height="24" fill="none" xmlns="http://www.w3.org/2000/svg"><path d="M11.25 7.86H2v8.33c0 .06 0 .12.01.17h9.24v-8.5ZM7.691 6.36h3.56V2h-3.53v4.24c0 .04-.02.08-.03.12ZM6.219 6.24V2.16c-2.22.46-3.67 1.94-4.09 4.2h4.11c-.01-.04-.02-.08-.02-.12ZM16.22 2h-3.47v4.36h3.47V2ZM17.71 6.358h4.16c-.42-2.28-1.89-3.77-4.15-4.21v4.18c0 .01-.01.02-.01.03ZM17.719 21.85c2.19-.43 3.63-1.83 4.1-3.99h-4.1v3.99ZM16.22 17.86h-3.47V22h3.47v-4.14ZM12.75 16.36h9.24c.01-.05.01-.11.01-.17V7.86h-9.25v8.5ZM11.249 17.86h-3.53V22h3.53v-4.14ZM2.18 17.86c.47 2.14 1.89 3.54 4.04 3.98v-3.98H2.18Z" fill="#292D32"/></svg>