<svg width="24" height="24" fill="none" xmlns="http://www.w3.org/2000/svg"><path d="M16.19 2H7.81C4.17 2 2 4.17 2 7.81v8.37C2 19.83 4.17 22 7.81 22h8.37c3.64 0 5.81-2.17 5.81-5.81V7.81C22 4.17 19.83 2 16.19 2ZM6.75 14.14c0 .41-.34.75-.75.75s-.75-.34-.75-.75V9.86c0-.41.34-.75.75-.75s.75.34.75.75v4.28Zm3 1.43c0 .41-.34.75-.75.75s-.75-.34-.75-.75V8.43c0-.41.34-.75.75-.75s.75.34.75.75v7.14Zm3 1.43c0 .41-.34.75-.75.75s-.75-.34-.75-.75V7c0-.41.34-.75.75-.75s.75.34.75.75v10Zm3-1.43c0 .41-.34.75-.75.75s-.75-.34-.75-.75V8.43c0-.41.34-.75.75-.75s.75.34.75.75v7.14Zm3-1.43c0 .41-.34.75-.75.75s-.75-.34-.75-.75V9.86c0-.41.34-.75.75-.75s.75.34.75.75v4.28Z" fill="#292D32"/></svg>