<svg width="24" height="24" fill="none" xmlns="http://www.w3.org/2000/svg"><path d="M18 16.75a.75.75 0 0 1-.6-1.2 5.94 5.94 0 0 0 0-7.1.75.75 0 0 1 1.2-.9c1.96 2.62 1.96 6.28 0 8.9-.15.2-.37.3-.6.3Z" fill="#292D32"/><path d="M19.828 19.25a.75.75 0 0 1-.6-1.2c2.67-3.56 2.67-8.54 0-12.1a.75.75 0 0 1 1.2-.9c3.07 4.09 3.07 9.81 0 13.9-.14.2-.37.3-.6.3ZM14.02 3.782c-1.12-.62-2.55-.46-4.01.45l-2.92 1.83c-.2.12-.43.19-.66.19H5c-2.42 0-3.75 1.33-3.75 3.75v4c0 2.42 1.33 3.75 3.75 3.75H6.43c.23 0 .46.07.66.19l2.92 1.83c.88.55 1.74.82 2.54.82a3 3 0 0 0 1.47-.37c1.11-.62 1.73-1.91 1.73-3.63v-9.18c0-1.72-.62-3.01-1.73-3.63Z" fill="#292D32"/></svg>