<svg width="24" height="24" fill="none" xmlns="http://www.w3.org/2000/svg"><path d="M16.19 2H7.81C4.17 2 2 4.17 2 7.81v8.37C2 19.83 4.17 22 7.81 22h8.37c3.64 0 5.81-2.17 5.81-5.81V7.81C22 4.17 19.83 2 16.19 2Zm.18 12.35-2.22 2.22c-.54.54-1.24.8-1.94.8a2.75 2.75 0 0 1-2.75-2.74c0-.73.29-1.43.81-1.94l1.41-1.41c.29-.29.77-.29 1.06 0 .29.29.29.77 0 1.06l-1.41 1.41a1.234 1.234 0 0 0 0 1.76c.49.49 1.28.49 1.77 0l2.22-2.22a3.253 3.253 0 0 0-4.6-4.6L8.3 11.11a2.657 2.657 0 0 0 0 3.78c.29.29.29.77 0 1.06-.29.29-.77.29-1.06 0A4.05 4.05 0 0 1 6 13.01c0-1.12.43-2.17 1.22-2.96l2.42-2.42a4.762 4.762 0 0 1 6.72 0 4.753 4.753 0 0 1 .01 6.72Z" fill="#292D32"/></svg>