<svg width="24" height="24" fill="none" xmlns="http://www.w3.org/2000/svg"><path d="M16.19 2H7.81C4.17 2 2 4.17 2 7.81v8.37C2 19.83 4.17 22 7.81 22h8.37c3.64 0 5.81-2.17 5.81-5.81V7.81C22 4.17 19.83 2 16.19 2ZM17 17.47c-1.71 0-3.31-.74-4.59-2.11-1.45 1.31-3.34 2.11-5.41 2.11-.41 0-.75-.34-.75-.75s.34-.75.75-.75c3.47 0 6.34-2.75 6.71-6.27h-6.7c-.41 0-.75-.34-.75-.75s.34-.74.75-.74h4.24v-.93c0-.41.34-.75.75-.75s.75.34.75.75v.93h1.69c.02 0 .04-.01.06-.01.02 0 .04.01.06.01h2.43c.41 0 .75.34.75.75s-.34.75-.75.75h-1.78a8.754 8.754 0 0 1-1.77 4.56c1 1.11 2.25 1.71 3.56 1.71.41 0 .75.34.75.75s-.34.74-.75.74Z" fill="#292D32"/></svg>