<svg width="24" height="24" fill="none" xmlns="http://www.w3.org/2000/svg"><path d="M12 2C6.48 2 2 6.48 2 12s4.48 10 10 10 10-4.48 10-10S17.52 2 12 2Zm5 15.47c-1.71 0-3.31-.74-4.59-2.11-1.45 1.31-3.34 2.11-5.41 2.11-.41 0-.75-.34-.75-.75s.34-.75.75-.75c3.47 0 6.34-2.75 6.71-6.27h-6.7c-.41 0-.75-.34-.75-.75s.34-.74.75-.74h4.24v-.93c0-.41.34-.75.75-.75s.75.34.75.75v.93h1.69c.02 0 .04-.01.06-.01.02 0 .04.01.06.01h2.43c.41 0 .75.34.75.75s-.34.75-.75.75h-1.78a8.754 8.754 0 0 1-1.77 4.56c1 1.11 2.25 1.71 3.56 1.71.41 0 .75.34.75.75s-.34.74-.75.74Z" fill="#292D32"/></svg>