<svg width="24" height="24" fill="none" xmlns="http://www.w3.org/2000/svg"><path d="M20.95 4.13c-.29-.42-.66-.79-1.08-1.08C18.92 2.36 17.68 2 16.19 2H7.81c-.2 0-.4.01-.59.03C3.94 2.24 2 4.37 2 7.81v8.38c0 1.49.36 2.73 1.05 3.68.29.42.66.79 1.08 1.08.82.6 1.86.95 3.09 1.03.19.01.39.02.59.02h8.38c3.64 0 5.81-2.17 5.81-5.81V7.81c0-1.49-.36-2.73-1.05-3.68ZM18.75 10c0 .41-.34.75-.75.75s-.75-.34-.75-.75V7.81L13.06 12l4.19 4.19V14c0-.41.34-.75.75-.75s.75.34.75.75v4c0 .1-.02.19-.06.29-.08.18-.22.33-.41.41-.09.04-.19.06-.29.06h-4c-.41 0-.75-.34-.75-.75s.34-.75.75-.75h2.19L12 13.06l-4.19 4.19H10c.41 0 .75.34.75.75s-.34.75-.75.75H6c-.1 0-.2-.02-.29-.06a.782.782 0 0 1-.41-.41.868.868 0 0 1-.05-.28v-4c0-.41.34-.75.75-.75s.75.34.75.75v2.19L10.94 12 6.75 7.81V10c0 .41-.34.75-.75.75s-.75-.34-.75-.75V6c0-.1.02-.19.06-.29.08-.18.22-.33.41-.41.09-.03.18-.05.28-.05h4c.41 0 .75.34.75.75s-.34.75-.75.75H7.81L12 10.94l4.19-4.19H14c-.41 0-.75-.34-.75-.75s.34-.75.75-.75h4c.1 0 .19.02.29.06.18.08.33.22.41.41.03.09.05.18.05.28v4Z" fill="#292D32"/></svg>