<svg width="24" height="24" fill="none" xmlns="http://www.w3.org/2000/svg"><path d="M12.5 14.75H10c-.41 0-.75-.34-.75-.75s.34-.75.75-.75h2.5c2.62 0 4.75-2.13 4.75-4.75s-2.13-4.75-4.75-4.75h-5c-2.62 0-4.75 2.13-4.75 4.75 0 1.1.39 2.17 1.09 3.02.26.32.22.79-.1 1.06-.32.26-.79.22-1.06-.1A6.283 6.283 0 0 1 1.25 8.5c0-3.45 2.8-6.25 6.25-6.25h5c3.45 0 6.25 2.8 6.25 6.25s-2.8 6.25-6.25 6.25Z" fill="#292D32"/><path d="M16.5 21.75h-5c-3.45 0-6.25-2.8-6.25-6.25s2.8-6.25 6.25-6.25H14c.41 0 .75.34.75.75s-.34.75-.75.75h-2.5c-2.62 0-4.75 2.13-4.75 4.75s2.13 4.75 4.75 4.75h5c2.62 0 4.75-2.13 4.75-4.75 0-1.1-.39-2.17-1.09-3.02a.758.758 0 0 1 .1-1.06.75.75 0 0 1 1.06.1 6.236 6.236 0 0 1 1.44 3.98c-.01 3.45-2.81 6.25-6.26 6.25Z" fill="#292D32"/></svg>