<svg width="24" height="24" fill="none" xmlns="http://www.w3.org/2000/svg"><path d="M12 2C6.48 2 2 6.48 2 12s4.48 10 10 10 10-4.48 10-10S17.52 2 12 2ZM8.65 14.77c-.11.3-.4.49-.7.49-.09 0-.17-.01-.26-.05-.81-.3-1.49-.89-1.92-1.66-1-1.8-.38-4.15 1.37-5.24l2.34-1.45c.86-.53 1.87-.69 2.83-.44.96.25 1.77.88 2.26 1.76 1 1.8.38 4.15-1.37 5.24l-.26.19a.76.76 0 0 1-1.05-.17.76.76 0 0 1 .17-1.05l.31-.22c1.12-.7 1.5-2.15.89-3.26-.29-.52-.76-.89-1.32-1.04-.56-.15-1.15-.06-1.66.26L7.92 9.59c-1.08.67-1.46 2.12-.85 3.24.25.45.65.8 1.13.98.39.14.59.57.45.96Zm8.27.88-2.34 1.45a3.59 3.59 0 0 1-2.83.43c-.96-.25-1.77-.88-2.25-1.76-1-1.8-.38-4.15 1.37-5.24l.26-.19a.76.76 0 0 1 1.05.17c.24.34.16.81-.17 1.05l-.31.22c-1.12.7-1.5 2.15-.89 3.26.29.52.76.89 1.32 1.04.56.15 1.15.06 1.66-.26l2.34-1.45c1.08-.67 1.46-2.12.85-3.24-.25-.45-.65-.8-1.13-.98a.736.736 0 0 1-.44-.96.74.74 0 0 1 .96-.44c.81.3 1.49.89 1.92 1.66.99 1.8.38 4.15-1.37 5.24Z" fill="#292D32"/></svg>