<svg width="24" height="24" fill="none" xmlns="http://www.w3.org/2000/svg"><path d="M21 22.75H3c-.41 0-.75-.34-.75-.75s.34-.75.75-.75h18c.41 0 .75.34.75.75s-.34.75-.75.75ZM21 2.75H3c-.41 0-.75-.34-.75-.75s.34-.75.75-.75h18c.41 0 .75.34.75.75s-.34.75-.75.75ZM14.3 15.358l-1.55 1.55V6.698l1.55 1.55c.15.15.34.22.53.22s.38-.07.53-.22c.29-.29.29-.77 0-1.06l-2.83-2.83a.774.774 0 0 0-1.06 0l-2.83 2.83c-.29.29-.29.77 0 1.06.29.29.77.29 1.06 0l1.55-1.55v10.21l-1.55-1.55a.754.754 0 0 0-1.06 0c-.29.29-.29.77 0 1.06l2.83 2.83a.75.75 0 0 0 1.06 0l2.83-2.83c.29-.29.29-.77 0-1.06a.754.754 0 0 0-1.06 0Z" fill="#292D32"/></svg>