<svg width="24" height="24" fill="none" xmlns="http://www.w3.org/2000/svg"><path d="M16.19 2H7.81C4.17 2 2 4.17 2 7.81v8.37C2 19.83 4.17 22 7.81 22h8.37c3.64 0 5.81-2.17 5.81-5.81V7.81C22 4.17 19.83 2 16.19 2Zm-4.58 9.84c0 3.08-.67 3.77-2.46 4.83-.12.07-.25.1-.38.1-.26 0-.51-.13-.65-.37a.758.758 0 0 1 .26-1.03c1.21-.72 1.63-.98 1.71-2.79h-1.9c-1.09 0-1.94-.85-1.94-1.94V9.16c0-1.09.85-1.94 1.94-1.94h1.49c1.07 0 1.94.87 1.94 1.94v2.68h-.01Zm6.14 0c0 3.08-.67 3.77-2.46 4.83-.12.07-.25.1-.38.1-.26 0-.51-.13-.65-.37a.758.758 0 0 1 .26-1.03c1.21-.72 1.63-.98 1.71-2.79h-1.91c-1.09 0-1.94-.85-1.94-1.94V9.16c0-1.09.85-1.94 1.94-1.94h1.49c1.07 0 1.94.87 1.94 1.94v2.68Z" fill="#292D32"/></svg>