<svg width="24" height="24" fill="none" xmlns="http://www.w3.org/2000/svg"><path d="M15.908 12.371h4.69c-.08 4.67-1 5.44-3.87 7.14-.33.2-.44.62-.24.96.2.33.62.44.96.24 3.38-2 4.56-3.22 4.56-9.04v-5.39c0-1.71-1.39-3.09-3.09-3.09h-3c-1.76 0-3.09 1.33-3.09 3.09v3c-.01 1.76 1.32 3.09 3.08 3.09ZM5.09 12.371h4.69c-.08 4.67-1 5.44-3.87 7.14-.33.2-.44.62-.24.96.2.33.62.44.96.24 3.38-2 4.56-3.22 4.56-9.04v-5.39c0-1.71-1.39-3.09-3.09-3.09h-3c-1.77 0-3.1 1.33-3.1 3.09v3c0 1.76 1.33 3.09 3.09 3.09Z" fill="#292D32"/></svg>