<svg width="24" height="24" fill="none" xmlns="http://www.w3.org/2000/svg"><path d="M12 2C6.48 2 2 6.48 2 12s4.48 10 10 10 10-4.48 10-10S17.52 2 12 2Zm-.39 12.84c0 1.09-.85 1.94-1.94 1.94H8.19c-1.07 0-1.94-.87-1.94-1.94v-2.67c0-3.08.67-3.77 2.46-4.83.12-.07.25-.1.38-.1.26 0 .51.13.65.37.21.36.09.82-.26 1.03-1.21.7-1.63.96-1.71 2.77h1.91c1.09 0 1.94.85 1.94 1.94v1.49h-.01Zm6.14 0c0 1.09-.85 1.94-1.94 1.94h-1.49c-1.07 0-1.94-.87-1.94-1.94v-2.67c0-3.08.67-3.77 2.46-4.83.12-.07.25-.1.38-.1.26 0 .51.13.65.37.21.36.09.82-.26 1.03-1.21.72-1.63.98-1.71 2.79h1.91c1.09 0 1.94.85 1.94 1.94v1.47Z" fill="#292D32"/></svg>