<svg width="24" height="24" fill="none" xmlns="http://www.w3.org/2000/svg"><path d="M20.95 4.13c-.29-.42-.66-.79-1.08-1.08C18.92 2.36 17.68 2 16.19 2H7.81c-.2 0-.4.01-.59.03C3.94 2.24 2 4.37 2 7.81v8.38c0 1.49.36 2.73 1.05 3.68.29.42.66.79 1.08 1.08.82.6 1.86.95 3.09 1.03.19.01.39.02.59.02h8.38c3.64 0 5.81-2.17 5.81-5.81V7.81c0-1.49-.36-2.73-1.05-3.68Zm-2.2 4.77c0 .41-.34.75-.75.75s-.75-.34-.75-.75V7.72a.58.58 0 0 0-.58-.58h-3.92v9.72h1.78c.41 0 .75.34.75.75s-.34.75-.75.75H9.47c-.41 0-.75-.34-.75-.75s.34-.75.75-.75h1.78V7.14H7.33a.58.58 0 0 0-.58.58V8.9c0 .41-.34.75-.75.75s-.75-.34-.75-.75V7.72c0-1.15.93-2.08 2.08-2.08h9.33c1.15 0 2.08.93 2.08 2.08V8.9h.01Z" fill="#292D32"/></svg>