<svg width="24" height="24" fill="none" xmlns="http://www.w3.org/2000/svg"><path opacity=".4" d="M16.192 2h-8.37c-3.64 0-5.81 2.17-5.81 5.81v8.37c0 3.64 2.17 5.81 5.81 5.81h8.37c3.64 0 5.81-2.17 5.81-5.81V7.81c0-3.64-2.17-5.81-5.81-5.81Z" fill="#292D32"/><path d="m13.581 14.692-2.32 2.32c-.64.65-1.69.65-2.34 0l-1.93-1.93c-.65-.65-.65-1.7 0-2.34l2.32-2.32 4.27 4.27Z" fill="#292D32"/><path opacity=".6" d="m17.009 11.261-3.43 3.43-4.27-4.27 3.43-3.43c.64-.65 1.69-.65 2.34 0l1.93 1.93c.65.65.65 1.7 0 2.34Z" fill="#292D32"/></svg>