<svg width="24" height="24" fill="none" xmlns="http://www.w3.org/2000/svg"><path opacity=".4" d="M12 22c5.523 0 10-4.477 10-10S17.523 2 12 2 2 6.477 2 12s4.477 10 10 10Z" fill="#292D32"/><path d="M16.998 15.97c-1.31 0-2.56-.6-3.56-1.71a8.526 8.526 0 0 0 1.77-4.56h1.78c.41 0 .75-.34.75-.75s-.34-.75-.75-.75h-2.43c-.02 0-.04-.01-.06-.01-.02 0-.04.01-.06.01h-1.69v-.93c0-.41-.34-.75-.75-.75s-.75.34-.75.75v.93h-4.24c-.41 0-.75.34-.75.75s.34.75.75.75h6.69c-.37 3.52-3.23 6.27-6.71 6.27-.41 0-.75.34-.75.75s.34.75.75.75c2.07 0 3.96-.8 5.41-2.11 1.27 1.36 2.88 2.11 4.59 2.11.41 0 .75-.34.75-.75s-.33-.75-.74-.75Z" fill="#292D32"/></svg>