<svg width="24" height="24" fill="none" xmlns="http://www.w3.org/2000/svg"><path opacity=".4" d="M22 7.81v8.38c0 3.64-2.17 5.81-5.81 5.81H7.81c-.2 0-.4-.01-.59-.02-1.23-.08-2.27-.43-3.09-1.03-.42-.29-.79-.66-1.08-1.08C2.36 18.92 2 17.68 2 16.19V7.81c0-3.44 1.94-5.57 5.22-5.78.19-.02.39-.03.59-.03h8.38c1.49 0 2.73.36 3.68 1.05.42.29.79.66 1.08 1.08.69.95 1.05 2.19 1.05 3.68Z" fill="#292D32"/><path d="M18 10.75c.41 0 .75-.34.75-.75V6c0-.1-.02-.19-.06-.29a.782.782 0 0 0-.41-.41.868.868 0 0 0-.28-.05h-4c-.41 0-.75.34-.75.75s.34.75.75.75h2.19L12 10.94 7.81 6.75H10c.41 0 .75-.34.75-.75s-.34-.75-.75-.75H6c-.1 0-.19.02-.29.06-.18.07-.33.22-.4.4-.04.1-.06.19-.06.29v4c0 .41.34.75.75.75s.75-.34.75-.75V7.81L10.94 12l-4.19 4.19V14c0-.41-.34-.75-.75-.75s-.75.34-.75.75v4c0 .1.02.19.06.29.08.18.22.33.41.41.08.03.18.05.28.05h4c.41 0 .75-.34.75-.75s-.34-.75-.75-.75H7.81L12 13.06l4.19 4.19H14c-.41 0-.75.34-.75.75s.34.75.75.75h4c.1 0 .2-.02.29-.06.18-.08.33-.22.41-.41.04-.09.06-.19.06-.29v-4c0-.41-.34-.75-.75-.75s-.75.34-.75.75v2.19L13.06 12l4.19-4.19V10c0 .41.34.75.75.75Z" fill="#292D32"/></svg>