<svg width="24" height="24" fill="none" xmlns="http://www.w3.org/2000/svg"><path d="M19.071 14.242c-.29.29-.75.29-1.03 0a.718.718 0 0 1 0-1.03c2-2 2-5.25 0-7.24-2-1.99-5.25-2-7.24 0-1.99 2-2 5.25 0 7.24.29.29.29.75 0 1.03-.29.29-.75.29-1.03 0-2.57-2.57-2.57-6.75 0-9.31 2.57-2.56 6.75-2.57 9.31 0a6.594 6.594 0 0 1-.01 9.31Z" fill="#292D32"/><path opacity=".4" d="M19.07 4.931a6.585 6.585 0 0 1-3.09 11.05c.53-2.16-.05-4.53-1.74-6.22a6.564 6.564 0 0 0-6.22-1.74c.28-1.13.85-2.21 1.74-3.09a6.585 6.585 0 0 1 9.31 0Z" fill="#292D32"/><path d="M4.929 9.76c.29-.29.75-.29 1.03 0 .29.29.29.75 0 1.03-2 2-2 5.25 0 7.24 2 1.99 5.25 2 7.24 0 1.99-2 2-5.25 0-7.24a.718.718 0 0 1 0-1.03c.29-.29.75-.29 1.03 0 2.57 2.57 2.57 6.75 0 9.31-2.57 2.56-6.75 2.57-9.31 0a6.594 6.594 0 0 1 .01-9.31Z" fill="#292D32"/><path opacity=".5" d="M14.241 9.762a6.563 6.563 0 0 1 1.74 6.22 6.585 6.585 0 0 1-11.05 3.09 6.585 6.585 0 0 1 0-9.31c.88-.89 1.96-1.46 3.09-1.74 2.16-.53 4.53.05 6.22 1.74Z" fill="#292D32"/></svg>