<svg width="24" height="24" fill="none" xmlns="http://www.w3.org/2000/svg"><path opacity=".4" d="M16.192 2h-8.37c-3.64 0-5.81 2.17-5.81 5.81v8.37c0 3.64 2.17 5.81 5.81 5.81h8.37c3.64 0 5.81-2.17 5.81-5.81V7.81c0-3.64-2.17-5.81-5.81-5.81Z" fill="#292D32"/><path d="M8.19 16.779h1.49c1.09 0 1.94-.85 1.94-1.94v-1.49c0-1.09-.85-1.94-1.94-1.94H7.77c.08-1.81.5-2.08 1.71-2.79.36-.21.47-.67.26-1.03a.746.746 0 0 0-.65-.37c-.13 0-.26.03-.38.1-1.79 1.06-2.46 1.75-2.46 4.83v2.67c0 1.09.87 1.96 1.94 1.96ZM14.319 16.779h1.49c1.09 0 1.94-.85 1.94-1.94v-1.49c0-1.09-.85-1.94-1.94-1.94h-1.91c.08-1.81.5-2.08 1.71-2.79.36-.21.47-.67.26-1.03a.746.746 0 0 0-.65-.37c-.13 0-.26.03-.38.1-1.79 1.06-2.46 1.75-2.46 4.83v2.67c.01 1.09.88 1.96 1.94 1.96Z" fill="#292D32"/></svg>