<svg width="24" height="24" fill="none" xmlns="http://www.w3.org/2000/svg"><path opacity=".4" d="M12 22c5.523 0 10-4.477 10-10S17.523 2 12 2 2 6.477 2 12s4.477 10 10 10Z" fill="#292D32"/><path d="M15.809 7.219h-1.49c-1.09 0-1.94.85-1.94 1.94v1.49c0 1.09.85 1.94 1.94 1.94h1.91c-.08 1.81-.5 2.08-1.71 2.79-.36.21-.47.67-.26 1.03.14.24.39.37.65.37.13 0 .26-.03.38-.1 1.79-1.06 2.46-1.75 2.46-4.83v-2.67c0-1.09-.87-1.96-1.94-1.96ZM9.68 7.219H8.19c-1.09 0-1.94.85-1.94 1.94v1.49c0 1.09.85 1.94 1.94 1.94h1.91c-.08 1.81-.5 2.08-1.71 2.79-.36.21-.47.67-.26 1.03.14.24.39.37.65.37.13 0 .26-.03.38-.1 1.79-1.06 2.46-1.75 2.46-4.83v-2.67c-.01-1.09-.88-1.96-1.94-1.96Z" fill="#292D32"/></svg>