<svg width="24" height="24" fill="none" xmlns="http://www.w3.org/2000/svg"><path opacity=".4" d="M22 7.81v8.38c0 3.64-2.17 5.81-5.81 5.81H7.81c-.2 0-.4-.01-.59-.02-1.23-.08-2.27-.43-3.09-1.03-.42-.29-.79-.66-1.08-1.08C2.36 18.92 2 17.68 2 16.19V7.81c0-3.44 1.94-5.57 5.22-5.78.19-.02.39-.03.59-.03h8.38c1.49 0 2.73.36 3.68 1.05.42.29.79.66 1.08 1.08.69.95 1.05 2.19 1.05 3.68Z" fill="#292D32"/><path d="M11.39 14.378h-.37v-6.47h2.57c.11 0 .2.09.2.2v.78c0 .41.34.75.75.75s.75-.34.75-.75v-.79c0-.94-.76-1.7-1.7-1.7H6.95c-.94 0-1.7.76-1.7 1.7v.78a.749.749 0 1 0 1.5 0v-.78c0-.11.09-.2.2-.2h2.57v6.48h-1c-.41 0-.75.34-.75.75s.34.75.75.75h2.86c.41 0 .75-.34.75-.75s-.33-.75-.74-.75Z" fill="#292D32"/><path d="M17.319 10.398h-3.6c-.41 0-.75.34-.75.75s.34.75.75.75h.48v4.2h-.35c-.41 0-.75.34-.75.75s.34.75.75.75h2.2c.41 0 .75-.34.75-.75s-.34-.75-.75-.75h-.35v-4.2h1.55v.34c0 .41.34.75.75.75s.75-.34.75-.75v-.41c0-.79-.64-1.43-1.43-1.43Z" fill="#292D32"/></svg>