<svg width="24" height="24" fill="none" xmlns="http://www.w3.org/2000/svg"><path opacity=".4" d="M22 7.81v8.38c0 3.64-2.17 5.81-5.81 5.81H7.81c-.2 0-.4-.01-.59-.02-1.23-.08-2.27-.43-3.09-1.03-.42-.29-.79-.66-1.08-1.08C2.36 18.92 2 17.68 2 16.19V7.81c0-3.44 1.94-5.57 5.22-5.78.19-.02.39-.03.59-.03h8.38c1.49 0 2.73.36 3.68 1.05.42.29.79.66 1.08 1.08.69.95 1.05 2.19 1.05 3.68Z" fill="#292D32"/><path d="M16.67 5.64H7.33c-1.15 0-2.08.93-2.08 2.08V8.9c0 .41.34.75.75.75s.75-.34.75-.75V7.72c0-.32.26-.58.58-.58h3.92v9.72H9.47c-.41 0-.75.34-.75.75s.34.75.75.75h5.07c.41 0 .75-.34.75-.75s-.34-.75-.75-.75h-1.78V7.14h3.92c.32 0 .58.26.58.58V8.9c0 .41.34.75.75.75s.75-.34.75-.75V7.72a2.1 2.1 0 0 0-2.09-2.08Z" fill="#292D32"/></svg>