<svg width="24" height="24" fill="none" xmlns="http://www.w3.org/2000/svg"><path opacity=".4" d="M22 7.81v8.38c0 3.64-2.17 5.81-5.81 5.81H7.81c-.2 0-.4-.01-.59-.02-1.23-.08-2.27-.43-3.09-1.03-.42-.29-.79-.66-1.08-1.08C2.36 18.92 2 17.68 2 16.19V7.81c0-3.44 1.94-5.57 5.22-5.78.19-.02.39-.03.59-.03h8.38c1.49 0 2.73.36 3.68 1.05.42.29.79.66 1.08 1.08.69.95 1.05 2.19 1.05 3.68Z" fill="#292D32"/><path d="M16.832 18.96h-9.66c-.41 0-.75-.34-.75-.75s.34-.75.75-.75h9.67c.41 0 .75.34.75.75s-.34.75-.76.75ZM12.002 16.2c-3.08 0-5.58-2.5-5.58-5.58V5.79c0-.41.34-.75.75-.75s.75.34.75.75v4.83c0 2.25 1.83 4.08 4.08 4.08s4.08-1.83 4.08-4.08V5.79c0-.41.34-.75.75-.75s.75.34.75.75v4.83c0 3.08-2.5 5.58-5.58 5.58Z" fill="#292D32"/></svg>