<svg width="24" height="24" fill="none" xmlns="http://www.w3.org/2000/svg"><path d="M21 5.25H3c-.41 0-.75-.34-.75-.75s.34-.75.75-.75h18c.41 0 .75.34.75.75s-.34.75-.75.75Z" fill="#292D32"/><path opacity=".4" d="M21.001 10.25h-9.47c-.41 0-.75-.34-.75-.75s.34-.75.75-.75h9.47c.41 0 .75.34.75.75s-.34.75-.75.75Z" fill="#292D32"/><path d="M21 15.25H3c-.41 0-.75-.34-.75-.75s.34-.75.75-.75h18c.41 0 .75.34.75.75s-.34.75-.75.75Z" fill="#292D32"/><path opacity=".4" d="M21.001 20.25h-9.47c-.41 0-.75-.34-.75-.75s.34-.75.75-.75h9.47c.41 0 .75.34.75.75s-.34.75-.75.75Z" fill="#292D32"/></svg>