<svg width="24" height="24" fill="none" xmlns="http://www.w3.org/2000/svg"><path opacity=".4" d="M22 7.81v8.38c0 3.64-2.17 5.81-5.81 5.81H7.81c-.2 0-.4-.01-.59-.02-1.23-.08-2.27-.43-3.09-1.03-.42-.29-.79-.66-1.08-1.08C2.36 18.92 2 17.68 2 16.19V7.81c0-3.44 1.94-5.57 5.22-5.78.19-.02.39-.03.59-.03h8.38c1.49 0 2.73.36 3.68 1.05.42.29.79.66 1.08 1.08.69.95 1.05 2.19 1.05 3.68Z" fill="#292D32"/><path d="M15.03 11.49c.6-.66.97-1.53.97-2.49 0-2.07-1.68-3.75-3.75-3.75H9.01C7.9 5.25 7 6.15 7 7.26v9.48c0 1.11.9 2.01 2.01 2.01h4.74c2.07 0 3.75-1.68 3.75-3.75 0-1.62-1.03-2.98-2.47-3.51ZM8.5 7.26c0-.28.23-.51.51-.51h3.24c1.24 0 2.25 1.01 2.25 2.25s-1.01 2.25-2.25 2.25H8.5V7.26Zm5.25 9.99H9.01c-.28 0-.51-.23-.51-.51v-3.99h5.25c1.24 0 2.25 1.01 2.25 2.25s-1.01 2.25-2.25 2.25Z" fill="#292D32"/></svg>