<svg width="24" height="24" fill="none" xmlns="http://www.w3.org/2000/svg"><path opacity=".4" d="M16.92 22a5.08 5.08 0 1 1 .001-10.162A5.08 5.08 0 0 1 16.92 22ZM5.02 2h3.92c2.07 0 3.07 1 3.02 3.02v3.92c.05 2.07-.95 3.07-3.02 3.02H5.02C3 12 2 11 2 8.93V5.01C2 3 3 2 5.02 2Z" fill="#292D32"/><path d="M9.01 8.262c-.31 0-.6-.12-.87-.32.25-.4.43-.85.52-1.34H9c.41 0 .75-.34.75-.75s-.34-.75-.75-.75H7.71a.749.749 0 0 0-.74-.68c-.39 0-.7.3-.74.68H4.94c-.41 0-.75.34-.75.75s.34.75.75.75h2.17c-.3.96-1.16 1.66-2.18 1.66-.41 0-.75.34-.75.75s.34.75.75.75a3.7 3.7 0 0 0 2.18-.72c.55.46 1.21.72 1.89.72.41 0 .75-.34.75-.75s-.33-.75-.74-.75ZM9 22.75c-4.27 0-7.75-3.48-7.75-7.75 0-.41.34-.75.75-.75s.75.34.75.75c0 2.96 2.06 5.44 4.83 6.09l-.27-.45a.751.751 0 1 1 1.29-.77l1.05 1.75c.14.23.14.52.01.75-.14.23-.39.38-.66.38ZM21.998 9.75c-.41 0-.75-.34-.75-.75 0-2.96-2.06-5.44-4.83-6.09l.27.45a.75.75 0 1 1-1.29.77l-1.05-1.75a.745.745 0 0 1-.01-.75c.13-.24.38-.38.65-.38 4.27 0 7.75 3.48 7.75 7.75a.74.74 0 0 1-.74.75ZM19.73 18.33l-2.14-4.27a.77.77 0 0 0-.67-.42.76.76 0 0 0-.67.41l-2.14 4.27c-.19.37-.04.82.34 1.01a.8.8 0 0 0 .33.08c.27 0 .54-.15.67-.41l.17-.34h2.59l.17.34c.19.37.64.52 1.01.34.38-.19.53-.64.34-1.01Zm-3.35-1.17.55-1.09.55 1.09h-1.1Z" fill="#292D32"/></svg>