<svg width="24" height="24" fill="none" xmlns="http://www.w3.org/2000/svg"><path d="M8 16.75H5.43c-2.69 0-4.18-1.48-4.18-4.18V5.43c0-2.69 1.48-4.18 4.18-4.18H10c2.69 0 4.18 1.48 4.18 4.18 0 .41-.34.75-.75.75s-.75-.34-.75-.75c0-1.88-.8-2.68-2.68-2.68H5.43c-1.88 0-2.68.8-2.68 2.68v7.14c0 1.88.8 2.68 2.68 2.68H8c.41 0 .75.34.75.75s-.34.75-.75.75Z" fill="#292D32"/><path d="M18.57 22.75H14c-2.69 0-4.18-1.48-4.18-4.18v-7.14c0-2.69 1.48-4.18 4.18-4.18h4.57c2.69 0 4.18 1.48 4.18 4.18v7.14c0 2.7-1.48 4.18-4.18 4.18ZM14 8.75c-1.88 0-2.68.8-2.68 2.68v7.14c0 1.88.8 2.68 2.68 2.68h4.57c1.88 0 2.68-.8 2.68-2.68v-7.14c0-1.88-.8-2.68-2.68-2.68H14Z" fill="#292D32"/><path d="M18.13 15.75h-3.25c-.41 0-.75-.34-.75-.75s.34-.75.75-.75h3.25c.41 0 .75.34.75.75s-.34.75-.75.75Z" fill="#292D32"/><path d="M16.5 17.379c-.41 0-.75-.34-.75-.75v-3.25c0-.41.34-.75.75-.75s.75.34.75.75v3.25c0 .41-.34.75-.75.75Z" fill="#292D32"/></svg>