<svg width="24" height="24" fill="none" xmlns="http://www.w3.org/2000/svg"><path d="M18.85 11.75h-2.7c-2.66 0-3.9-1.24-3.9-3.9v-2.7c0-2.66 1.24-3.9 3.9-3.9h2.7c2.66 0 3.9 1.24 3.9 3.9v2.7c0 2.66-1.24 3.9-3.9 3.9Zm-2.7-9c-1.84 0-2.4.56-2.4 2.4v2.7c0 1.84.56 2.4 2.4 2.4h2.7c1.84 0 2.4-.56 2.4-2.4v-2.7c0-1.84-.56-2.4-2.4-2.4h-2.7ZM7.85 22.75h-2.7c-2.66 0-3.9-1.24-3.9-3.9v-2.7c0-2.66 1.24-3.9 3.9-3.9h2.7c2.66 0 3.9 1.24 3.9 3.9v2.7c0 2.66-1.24 3.9-3.9 3.9Zm-2.7-9c-1.84 0-2.4.56-2.4 2.4v2.7c0 1.84.56 2.4 2.4 2.4h2.7c1.84 0 2.4-.56 2.4-2.4v-2.7c0-1.84-.56-2.4-2.4-2.4h-2.7Z" fill="#292D32"/><path d="M13.621 18.131h-2.62c-.41 0-.75-.34-.75-.75v-1.23c0-1.84-.56-2.4-2.4-2.4h-1.23c-.41 0-.75-.34-.75-.75v-2.62c0-3.12 1.39-4.51 4.51-4.51h2.62c.41 0 .75.34.75.75v1.23c0 1.84.56 2.4 2.4 2.4h1.23c.41 0 .75.34.75.75v2.62c0 3.12-1.39 4.51-4.51 4.51Zm-1.87-1.5h1.87c2.28 0 3.01-.73 3.01-3.01v-1.87h-.48c-2.66 0-3.9-1.24-3.9-3.9v-.48h-1.87c-2.28 0-3.01.73-3.01 3.01v1.87h.48c2.66 0 3.9 1.24 3.9 3.9v.48Z" fill="#292D32"/></svg>