<svg width="24" height="24" fill="none" xmlns="http://www.w3.org/2000/svg"><path d="M3 9.75C1.48 9.75.25 8.52.25 7S1.48 4.25 3 4.25 5.75 5.48 5.75 7 4.52 9.75 3 9.75Zm0-4a1.25 1.25 0 1 0 0 2.5 1.25 1.25 0 0 0 0-2.5ZM21 9.75c-1.52 0-2.75-1.23-2.75-2.75S19.48 4.25 21 4.25 23.75 5.48 23.75 7 22.52 9.75 21 9.75Zm0-4a1.25 1.25 0 1 0 0 2.5 1.25 1.25 0 0 0 0-2.5Z" fill="#292D32"/><path d="M19 7.75h-4c-.41 0-.75-.34-.75-.75s.34-.75.75-.75h4c.41 0 .75.34.75.75s-.34.75-.75.75ZM9 7.75H5c-.41 0-.75-.34-.75-.75s.34-.75.75-.75h4c.41 0 .75.34.75.75s-.34.75-.75.75ZM6 20.75H4c-1.24 0-2.25-1.01-2.25-2.25v-2c0-1.24 1.01-2.25 2.25-2.25h2c1.24 0 2.25 1.01 2.25 2.25v2c0 .9-.53 1.7-1.35 2.05-.27.13-.58.2-.9.2Zm-2-5c-.41 0-.75.34-.75.75v2c0 .41.34.75.75.75h2c.1 0 .19-.02.29-.07.29-.12.46-.39.46-.68v-2c0-.41-.34-.75-.75-.75H4ZM20 20.75h-2c-.32 0-.63-.07-.93-.21-.79-.33-1.32-1.14-1.32-2.04v-2c0-1.24 1.01-2.25 2.25-2.25h2c1.24 0 2.25 1.01 2.25 2.25v2c0 1.24-1.01 2.25-2.25 2.25Zm-2-5c-.41 0-.75.34-.75.75v2c0 .29.17.56.43.67.13.06.22.08.32.08h2c.41 0 .75-.34.75-.75v-2c0-.41-.34-.75-.75-.75h-2Z" fill="#292D32"/><path d="M13.5 10.75h-3c-1.24 0-2.25-1.01-2.25-2.25v-3c0-1.24 1.01-2.25 2.25-2.25h3c1.24 0 2.25 1.01 2.25 2.25v3c0 1.24-1.01 2.25-2.25 2.25Zm-3-6c-.41 0-.75.34-.75.75v3c0 .41.34.75.75.75h3c.41 0 .75-.34.75-.75v-3c0-.41-.34-.75-.75-.75h-3Z" fill="#292D32"/><path d="M18.97 15.75h-.09a.751.751 0 0 1-.66-.83c.02-.14.02-.27.02-.41 0-2.6-1.41-5-3.59-6.1a.75.75 0 1 1 .68-1.34c2.68 1.36 4.41 4.28 4.41 7.44 0 .2-.01.39-.04.59-.03.37-.35.65-.73.65ZM5.03 15.749c-.38 0-.7-.28-.74-.66-.02-.2-.04-.39-.04-.59 0-3.16 1.73-6.08 4.41-7.44a.75.75 0 0 1 1.01.33c.19.37.04.82-.33 1.01-2.18 1.1-3.59 3.5-3.59 6.1 0 .14.01.27.02.41.05.41-.25.78-.66.83-.02.01-.05.01-.08.01Z" fill="#292D32"/></svg>