<svg width="24" height="24" fill="none" xmlns="http://www.w3.org/2000/svg"><path d="M8.97 16.75c-.39 0-.73-.03-1.05-.08-3.8-.5-6.7-3.8-6.7-7.67 0-4.27 3.48-7.75 7.75-7.75 3.87 0 7.17 2.89 7.67 6.72.05.3.08.64.08 1.03 0 4.27-3.47 7.75-7.75 7.75Zm0-14c-3.45 0-6.25 2.8-6.25 6.25a6.26 6.26 0 0 0 5.42 6.19c.26.04.53.06.83.06 3.45 0 6.25-2.8 6.25-6.25 0-.3-.02-.57-.06-.81a6.254 6.254 0 0 0-6.19-5.44Z" fill="#292D32"/><path d="M14.97 22.75c-3.87 0-7.17-2.89-7.67-6.72a.747.747 0 0 1 .87-.84c.24.04.5.06.8.06 3.45 0 6.25-2.8 6.25-6.25 0-.3-.02-.57-.06-.81-.04-.23.04-.47.2-.64.16-.17.39-.26.64-.22 3.83.5 6.72 3.8 6.72 7.67 0 4.27-3.47 7.75-7.75 7.75Zm-5.99-6c.76 2.62 3.19 4.5 5.99 4.5 3.45 0 6.25-2.8 6.25-6.25 0-2.8-1.88-5.24-4.5-5.99 0 4.26-3.47 7.74-7.74 7.74Z" fill="#292D32"/><path d="M15.43 16.16c-.19 0-.38-.07-.53-.21l-1.3-1.28a.755.755 0 0 1-.01-1.06c.29-.29.76-.3 1.06-.01l1.3 1.28c.29.29.3.77.01 1.06-.14.14-.34.22-.53.22ZM16.97 12.751c-.19 0-.38-.07-.53-.22l-1-1a.754.754 0 0 1 0-1.06c.29-.29.77-.29 1.06 0l1 1c.29.29.29.77 0 1.06a.71.71 0 0 1-.53.22ZM11.97 17.751c-.19 0-.38-.07-.53-.22l-1-1a.754.754 0 0 1 0-1.06c.29-.29.77-.29 1.06 0l1 1c.29.29.29.77 0 1.06a.71.71 0 0 1-.53.22Z" fill="#292D32"/></svg>