<svg width="24" height="24" fill="none" xmlns="http://www.w3.org/2000/svg"><path d="M15.97 18.75c-1.67 0-3.27-.62-4.5-1.73a.75.75 0 0 1 0-1.12 5.2 5.2 0 0 0 1.75-3.9 5.2 5.2 0 0 0-1.75-3.9.75.75 0 0 1 0-1.12 6.683 6.683 0 0 1 4.5-1.73c3.72 0 6.75 3.03 6.75 6.75s-3.02 6.75-6.75 6.75Zm-2.87-2.36c.85.56 1.84.86 2.88.86 2.89 0 5.25-2.36 5.25-5.25s-2.36-5.25-5.25-5.25c-1.03 0-2.03.3-2.88.86a6.73 6.73 0 0 1 0 8.78Z" fill="#292D32"/><path d="M7.97 18.75c-3.72 0-6.75-3.03-6.75-6.75s3.03-6.75 6.75-6.75c1.67 0 3.27.62 4.5 1.73A6.72 6.72 0 0 1 14.72 12a6.7 6.7 0 0 1-2.25 5.02 6.713 6.713 0 0 1-4.5 1.73Zm0-12c-2.89 0-5.25 2.36-5.25 5.25s2.36 5.25 5.25 5.25c1.3 0 2.54-.48 3.5-1.35a5.196 5.196 0 0 0 1.75-3.9c0-1.49-.64-2.92-1.75-3.9-.96-.87-2.2-1.35-3.5-1.35Z" fill="#292D32"/></svg>