<svg width="24" height="24" fill="none" xmlns="http://www.w3.org/2000/svg"><path d="M12 22.75c-4.88 0-8.85-3.97-8.85-8.85-.03-5.73 5.43-10.5 7.78-12.29a1.77 1.77 0 0 1 2.14 0c2.35 1.82 7.81 6.65 7.78 12.3 0 4.87-3.97 8.84-8.85 8.84Zm0-20c-.05 0-.11.02-.16.06-1.69 1.29-7.21 5.9-7.18 11.09 0 4.06 3.3 7.35 7.35 7.35s7.35-3.29 7.35-7.34c.03-5.12-5.5-9.79-7.2-11.1a.29.29 0 0 0-.16-.06Z" fill="#292D32"/><path d="M12 22.75c-.41 0-.75-.34-.75-.75V2c0-.41.34-.75.75-.75s.75.34.75.75v20c0 .41-.34.75-.75.75Z" fill="#292D32"/><path d="M12 19.71c-.28 0-.55-.16-.68-.42a.744.744 0 0 1 .35-1l7.7-3.74c.37-.18.82-.02 1 .35.18.37.03.82-.35 1l-7.7 3.74c-.1.04-.21.07-.32.07ZM12 14.709c-.28 0-.55-.16-.68-.42a.744.744 0 0 1 .35-1l7.37-3.58c.37-.18.82-.03 1 .35.18.38.03.82-.35 1l-7.37 3.58c-.1.04-.21.07-.32.07ZM12 9.711c-.28 0-.55-.16-.68-.42a.744.744 0 0 1 .35-1l5.03-2.44c.37-.18.82-.02 1 .35.18.37.03.82-.35 1l-5.03 2.44c-.1.04-.21.07-.32.07Z" fill="#292D32"/></svg>