<svg width="24" height="24" fill="none" xmlns="http://www.w3.org/2000/svg"><path d="M14.97 22.75h-6c-5.43 0-7.75-2.32-7.75-7.75V9c0-5.43 2.32-7.75 7.75-7.75h2c.41 0 .75.34.75.75s-.34.75-.75.75h-2C4.36 2.75 2.72 4.39 2.72 9v6c0 4.61 1.64 6.25 6.25 6.25h6c4.61 0 6.25-1.64 6.25-6.25v-2c0-.41.34-.75.75-.75s.75.34.75.75v2c0 5.43-2.31 7.75-7.75 7.75Z" fill="#292D32"/><path d="M12.78 15.24c-.15 0-.29-.04-.42-.13a.738.738 0 0 1-.33-.62c0-.11-.01-.23-.03-.35-.07-.53-.31-1-.71-1.41-.41-.41-.91-.67-1.46-.74-.08-.01-.21-.02-.33-.01-.25.02-.5-.09-.65-.29a.78.78 0 0 1-.11-.71c.12-.34.31-.66.53-.91l1.23-1.54c2.14-2.67 6.45-5.87 9.63-7.14.73-.28 1.5-.12 2.03.41.55.55.71 1.33.42 2.04-1.27 3.17-4.47 7.49-7.13 9.62l-1.57 1.26c-.31.22-.56.37-.82.47-.09.03-.19.05-.28.05Zm-2.06-4.57c.61.2 1.16.54 1.63 1 .46.46.79.99.98 1.56l1.18-.95c2.49-2 5.49-6.04 6.68-9.01.08-.19-.01-.33-.09-.42-.05-.05-.19-.16-.42-.07-2.96 1.19-7 4.19-9 6.68l-.96 1.21Z" fill="#292D32"/><path d="M7.701 18.75c-.64 0-1.25-.25-1.71-.71-.53-.53-.79-1.26-.7-2.01l.21-1.96c.22-2.03 1.87-3.53 3.94-3.57.16-.01.36 0 .55.01a4 4 0 0 1 2.36 1.17c.64.64 1.03 1.4 1.14 2.26a4.061 4.061 0 0 1-1.15 3.45c-.63.63-1.45 1.02-2.38 1.14l-1.98.21c-.1.01-.19.01-.28.01Zm1.9-6.76h-.1c-1.15.03-2.36.8-2.51 2.24l-.21 1.97c-.03.29.07.58.27.78.2.2.48.3.76.27l1.97-.21c.58-.07 1.1-.32 1.49-.71.48-.49.75-1.13.75-1.83 0-.11-.01-.23-.03-.35-.07-.53-.31-1-.71-1.41-.41-.41-.91-.67-1.46-.74-.05-.01-.13-.01-.22-.01ZM15.82 12.731c-.41 0-.75-.34-.75-.75 0-1.67-1.36-3.04-3.04-3.04-.41 0-.75-.34-.75-.75s.34-.75.75-.75c2.5 0 4.54 2.03 4.54 4.54 0 .41-.33.75-.75.75Z" fill="#292D32"/></svg>