<svg width="24" height="24" fill="none" xmlns="http://www.w3.org/2000/svg"><path d="M10 16.75c-.41 0-.75-.34-.75-.75 0-1.67 0-3.75 3.75-3.75h4c2.25 0 2.25-.3 2.25-2.25V8c0-1.95 0-2.25-2.25-2.25h-1c-.41 0-.75-.34-.75-.75s.34-.75.75-.75h1c3.5 0 3.75 1.42 3.75 3.75v2c0 2.33-.25 3.75-3.75 3.75h-4c-2.25 0-2.25.61-2.25 2.25 0 .41-.34.75-.75.75ZM12 8.75H8c-.32 0-.61-.21-.71-.51a10.37 10.37 0 0 1 0-6.47c.1-.31.39-.52.71-.52h4c.32 0 .61.21.71.51.7 2.09.7 4.39 0 6.47-.1.31-.38.52-.71.52Zm-3.44-1.5h2.89a8.8 8.8 0 0 0 0-4.5H8.56a8.8 8.8 0 0 0 0 4.5Z" fill="#292D32"/><path d="M8 8.75H7C4.58 8.75 3.25 7.42 3.25 5S4.58 1.25 7 1.25h1c.26 0 .5.13.64.36.14.22.15.5.03.73-.9 1.79-.9 3.54 0 5.33.12.23.1.51-.03.73-.14.22-.38.35-.64.35Zm-1.12-6c-1.49.04-2.13.71-2.13 2.25 0 1.53.64 2.21 2.12 2.25-.5-1.5-.5-3 .01-4.5ZM13 8.75h-1c-.26 0-.5-.13-.64-.36a.733.733 0 0 1-.03-.73c.89-1.79.89-3.54 0-5.33-.12-.23-.1-.51.03-.73.14-.22.38-.35.64-.35h1c2.42 0 3.75 1.33 3.75 3.75S15.42 8.75 13 8.75Zm.12-6c.5 1.5.5 3 0 4.5 1.49-.04 2.12-.71 2.12-2.25.01-1.54-.63-2.21-2.12-2.25ZM10.5 22.75h-1c-1.03 0-2.25-.39-2.25-2.25v-3c0-1.86 1.22-2.25 2.25-2.25h1c1.03 0 2.25.39 2.25 2.25v3c0 1.86-1.22 2.25-2.25 2.25Zm-1-6c-.75 0-.75.22-.75.75v3c0 .53 0 .75.75.75h1c.75 0 .75-.22.75-.75v-3c0-.53 0-.75-.75-.75h-1Z" fill="#292D32"/></svg>