<svg width="24" height="24" fill="none" xmlns="http://www.w3.org/2000/svg"><path d="M20 9.07H4c-.41 0-.75-.34-.75-.75V4c0-1.52 1.23-2.75 2.75-2.75h12c1.52 0 2.75 1.23 2.75 2.75v4.32c0 .41-.34.75-.75.75ZM4.75 7.57h14.5V4c0-.69-.56-1.25-1.25-1.25H6c-.69 0-1.25.56-1.25 1.25v3.57Z" fill="#292D32"/><path d="M12.5 22.749h-1c-1.52 0-2.75-1.23-2.75-2.75v-2.1c0-.45-.24-.87-.64-1.09l-2.96-1.67a3.742 3.742 0 0 1-1.91-3.27v-3.56c0-.41.34-.75.75-.75h16c.41 0 .75.34.75.75v3.56c0 1.35-.73 2.6-1.91 3.27l-2.96 1.67c-.39.22-.64.64-.64 1.09v2.1a2.719 2.719 0 0 1-2.73 2.75ZM4.75 9.069v2.81c0 .81.44 1.56 1.14 1.96l2.96 1.67c.86.49 1.4 1.4 1.4 2.39v2.1c0 .69.56 1.25 1.25 1.25h1c.69 0 1.25-.56 1.25-1.25v-2.1c0-.99.54-1.91 1.4-2.39l2.96-1.67c.71-.4 1.14-1.15 1.14-1.96v-2.81H4.75Z" fill="#292D32"/></svg>