<svg width="24" height="24" fill="none" xmlns="http://www.w3.org/2000/svg"><path d="M9.02 19.751c-.86 0-1.72-.41-2.54-1.23l-4.01-4.01c-.81-.81-1.22-1.66-1.22-2.54 0-.87.41-1.73 1.22-2.54l6.68-6.68a.75.75 0 0 1 1.06 0l7.35 7.35c.32.32.5.74.5 1.2 0 .45-.18.88-.5 1.2l-6.02 6.02c-.8.82-1.66 1.23-2.52 1.23Zm.67-15.4-6.15 6.15c-.52.52-.78 1.02-.78 1.48 0 .46.26.96.78 1.47l4.01 4.01c1.05 1.05 1.9 1.05 2.95 0l6.02-6.02c.06-.06.07-.21 0-.28l-6.83-6.81Z" fill="#292D32"/><path d="M9.69 4.04c-.19 0-.38-.07-.53-.22L7.82 2.48a.754.754 0 0 1 0-1.06c.29-.29.77-.29 1.06 0l1.34 1.34c.29.29.29.77 0 1.06-.15.15-.34.22-.53.22ZM2.071 12.669a.75.75 0 0 1-.03-1.5l15.13-.66c.41-.02.76.3.78.72.02.41-.3.76-.72.78l-15.13.66h-.03ZM16 22.75H3c-.41 0-.75-.34-.75-.75s.34-.75.75-.75h13c.41 0 .75.34.75.75s-.34.75-.75.75ZM18.85 20.829c-1.43 0-2.6-1.17-2.6-2.6 0-1.45 1.71-3.37 2.05-3.75.28-.31.82-.31 1.1 0 .34.37 2.05 2.29 2.05 3.74 0 1.45-1.17 2.61-2.6 2.61Zm0-4.66c-.55.72-1.1 1.6-1.1 2.07 0 .61.49 1.1 1.1 1.1.61 0 1.1-.49 1.1-1.1 0-.48-.55-1.36-1.1-2.07Z" fill="#292D32"/></svg>