<svg width="24" height="24" fill="none" xmlns="http://www.w3.org/2000/svg"><path d="M15.84 22.75H8.16c-2.68 0-3.9-1-4.44-1.83-.79-1.22-.76-2.89.09-4.83l3.83-8.7a3.13 3.13 0 0 1-1.41-.81C5.66 6 5.32 5.2 5.32 4.37c0-1.72 1.4-3.12 3.12-3.12h7.11c.83 0 1.62.33 2.21.92.78.78 1.09 1.89.83 2.96-.26 1.07-1.14 1.92-2.22 2.23l3.82 8.74c.84 1.93.87 3.6.07 4.82-.54.83-1.76 1.83-4.42 1.83Zm-7.4-20c-.89 0-1.62.73-1.62 1.62 0 .43.18.85.47 1.15.3.3.72.47 1.15.47h.3c.25 0 .49.13.63.34.14.21.16.48.06.71l-4.25 9.65c-.63 1.44-.71 2.65-.21 3.41.62.95 2.07 1.15 3.18 1.15h7.68c1.1 0 2.54-.2 3.17-1.15.5-.77.43-1.97-.19-3.4L14.6 7.04a.752.752 0 0 1 .69-1.05h.16c.8 0 1.52-.51 1.69-1.22.14-.57-.02-1.13-.43-1.54a1.62 1.62 0 0 0-1.15-.48H8.44Z" fill="#292D32"/><path d="M13.84 15.039c-.66 0-1.37-.09-2.08-.33-2.84-.95-5.77-.85-5.8-.85-.4.06-.76-.31-.78-.72-.02-.41.31-.76.72-.78.13-.01 3.24-.11 6.33.92 2.6.87 5.15-.78 5.18-.8.34-.23.81-.13 1.04.21.23.34.14.81-.21 1.04-.09.07-1.99 1.31-4.4 1.31Z" fill="#292D32"/></svg>