<svg width="24" height="24" fill="none" xmlns="http://www.w3.org/2000/svg"><path d="M8 22.751c-3.72 0-6.75-3.03-6.75-6.75 0-3.04 2.04-5.72 4.97-6.51.37-.1.75.09.89.45.61 1.53 1.91 2.7 3.5 3.13.88.24 1.9.24 2.76 0 .37-.1.76.09.9.45.31.79.47 1.63.47 2.49 0 1.92-.82 3.75-2.25 5.02A6.708 6.708 0 0 1 8 22.751Zm-1.98-11.62c-1.95.8-3.27 2.72-3.27 4.87 0 2.89 2.36 5.25 5.25 5.25 1.3 0 2.54-.48 3.5-1.35a5.196 5.196 0 0 0 1.75-3.9c0-.46-.06-.9-.17-1.33-.94.15-1.96.1-2.86-.15a6.816 6.816 0 0 1-4.2-3.39Z" fill="#292D32"/><path d="M12 14.75c-.62 0-1.22-.08-1.78-.24a6.809 6.809 0 0 1-4.5-4.03C5.41 9.7 5.25 8.86 5.25 8c0-3.72 3.03-6.75 6.75-6.75S18.75 4.28 18.75 8c0 .86-.16 1.7-.47 2.49a6.811 6.811 0 0 1-4.5 4.03c-.56.15-1.16.23-1.78.23Zm0-12C9.11 2.75 6.75 5.11 6.75 8c0 .67.12 1.32.37 1.93.61 1.53 1.91 2.7 3.5 3.13.88.24 1.9.24 2.76 0 1.59-.43 2.9-1.61 3.5-3.13.24-.61.37-1.26.37-1.93 0-2.89-2.36-5.25-5.25-5.25Z" fill="#292D32"/><path d="M16 22.752c-1.67 0-3.27-.62-4.5-1.73a.75.75 0 0 1 0-1.12 5.2 5.2 0 0 0 1.75-3.9c0-.67-.12-1.32-.37-1.93-.08-.2-.07-.42.03-.61s.27-.33.47-.39c1.59-.43 2.89-1.6 3.5-3.13.14-.36.53-.54.89-.45 2.93.8 4.97 3.47 4.97 6.51.01 3.72-3.02 6.75-6.74 6.75Zm-2.88-2.36c.85.56 1.84.86 2.88.86 2.89 0 5.25-2.36 5.25-5.25 0-2.15-1.32-4.07-3.27-4.87a6.82 6.82 0 0 1-3.46 3.13c.15.56.23 1.15.23 1.74 0 1.62-.58 3.18-1.63 4.39Z" fill="#292D32"/></svg>