<svg width="24" height="24" fill="none" xmlns="http://www.w3.org/2000/svg"><path d="M17.1 1.25h-4.2c-3.91 0-5.65 1.74-5.65 5.65V8c0 .41.34.75.75.75h3.1c3.1 0 4.15 1.05 4.15 4.15V16c0 .41.34.75.75.75h1.1c3.91 0 5.65-1.74 5.65-5.65V6.9c0-3.91-1.74-5.65-5.65-5.65Zm-8.35 6V6.9c0-3.1 1.05-4.15 4.15-4.15h4.2c3.1 0 4.15 1.05 4.15 4.15v4.2c0 3.1-1.05 4.15-4.15 4.15h-.35V12.9c0-3.91-1.74-5.65-5.65-5.65H8.75Z" fill="#292D32"/><path d="M11.1 7.25H6.9c-3.91 0-5.65 1.74-5.65 5.65v4.2c0 3.91 1.74 5.65 5.65 5.65h4.2c3.91 0 5.65-1.74 5.65-5.65v-4.2c0-3.91-1.74-5.65-5.65-5.65Zm-4.2 14c-3.1 0-4.15-1.05-4.15-4.15v-4.2c0-3.1 1.05-4.15 4.15-4.15h4.2c3.1 0 4.15 1.05 4.15 4.15v4.2c0 3.1-1.05 4.15-4.15 4.15H6.9Z" fill="#292D32"/><path d="M8.03 17.7c-.19 0-.38-.07-.53-.22l-1.95-1.95a.754.754 0 0 1 0-1.06c.29-.29.77-.29 1.06 0l1.42 1.42 3.36-3.36c.29-.29.77-.29 1.06 0 .29.29.29.77 0 1.06l-3.9 3.89c-.14.14-.33.22-.52.22Z" fill="#292D32"/></svg>