<svg width="24" height="24" fill="none" xmlns="http://www.w3.org/2000/svg"><path d="M10.43 18.37c-.15 0-.29-.04-.42-.13a.738.738 0 0 1-.33-.62c0-.15-.01-.31-.03-.47-.09-.71-.41-1.33-.95-1.87s-1.21-.88-1.93-.97c-.12-.01-.29-.02-.45-.01-.26.02-.5-.09-.65-.3a.78.78 0 0 1-.11-.71c.15-.41.37-.78.63-1.08l1.54-1.94c2.65-3.31 8.02-7.29 11.95-8.87.84-.32 1.72-.13 2.33.47.63.63.82 1.53.49 2.35-1.58 3.94-5.55 9.3-8.86 11.95l-1.97 1.58c-.37.27-.67.44-.97.56-.08.04-.18.06-.27.06Zm-2.89-5.43c.84.22 1.59.66 2.22 1.29a4.62 4.62 0 0 1 1.26 2.14l1.69-1.36c3.14-2.51 6.91-7.6 8.4-11.34a.628.628 0 0 0-.16-.72.669.669 0 0 0-.73-.14c-3.72 1.5-8.81 5.27-11.33 8.41l-1.35 1.72Z" fill="#292D32"/><path d="M4.08 22.75c-.75 0-1.47-.3-2.01-.84-.62-.62-.92-1.48-.82-2.36l.27-2.46c.26-2.44 2.26-4.25 4.74-4.3.19-.01.44 0 .67.02 1.09.14 2.06.63 2.84 1.41.77.77 1.23 1.69 1.37 2.72a4.91 4.91 0 0 1-1.38 4.15c-.77.76-1.76 1.23-2.88 1.37l-2.47.27c-.11.01-.22.02-.33.02Zm2.37-8.45h-.13c-1.51.03-3.11 1.06-3.31 2.96l-.27 2.46c-.05.42.1.83.39 1.13.29.29.7.44 1.11.39l2.46-.27c.77-.1 1.46-.42 1.98-.94.64-.64 1-1.5 1-2.42 0-.15-.01-.31-.03-.47-.09-.71-.41-1.33-.95-1.87s-1.21-.88-1.93-.97h-.32ZM14.24 15.218c-.41 0-.75-.34-.75-.75 0-2.2-1.79-3.98-3.98-3.98-.41 0-.75-.34-.75-.75s.33-.75.74-.75c3.02 0 5.48 2.46 5.48 5.48.01.42-.33.75-.74.75ZM15.68 22.73c-.93 0-1.86-.44-2.75-1.33a.754.754 0 0 1 0-1.06c.29-.29.77-.29 1.06 0 1.18 1.18 2.19 1.18 3.37 0l2.96-2.96c1.19-1.19 1.19-2.2 0-3.38l-.74-.73a.755.755 0 0 1-.01-1.06c.29-.3.77-.3 1.06-.01l.74.73c1.78 1.78 1.78 3.73 0 5.51l-2.96 2.96c-.87.88-1.8 1.33-2.73 1.33ZM3.11 11.262c-.19 0-.39-.07-.53-.22-1.76-1.77-1.76-3.73 0-5.5l2.96-2.96c1.76-1.76 3.74-1.76 5.5 0l.74.74c.29.29.29.77 0 1.06-.29.29-.77.29-1.06 0l-.75-.74c-1.18-1.18-2.2-1.18-3.37 0l-2.96 2.96c-1.18 1.19-1.18 2.2 0 3.39.29.29.29.77 0 1.06-.15.14-.34.21-.53.21Z" fill="#292D32"/><path d="M7.55 8.3c-.19 0-.38-.07-.53-.22a.754.754 0 0 1 0-1.06l3.7-3.7c.29-.29.77-.29 1.06 0 .29.29.29.77 0 1.06l-3.7 3.7c-.15.15-.34.22-.53.22ZM17.16 16.43c-.19 0-.38-.07-.53-.22a.754.754 0 0 1 0-1.06l2.96-2.96c.29-.29.77-.29 1.06 0 .29.29.29.77 0 1.06l-2.96 2.96a.71.71 0 0 1-.53.22Z" fill="#292D32"/></svg>