<svg width="24" height="24" fill="none" xmlns="http://www.w3.org/2000/svg"><path d="M21 22.75H9c-.41 0-.75-.34-.75-.75s.34-.75.75-.75h12c.41 0 .75.34.75.75s-.34.75-.75.75Z" fill="#292D32"/><path d="M8.54 22.71c-1 0-1.95-.39-2.65-1.1L2.38 18.1a3.754 3.754 0 0 1 0-5.3L12.81 2.37c1.41-1.41 3.89-1.41 5.3 0l3.51 3.51a3.754 3.754 0 0 1 0 5.3L11.19 21.61c-.7.72-1.64 1.1-2.65 1.1Zm-5.1-5.66 3.51 3.51c.85.85 2.34.85 3.18 0l10.43-10.43c.88-.88.88-2.3 0-3.18l-3.51-3.51c-.84-.84-2.33-.85-3.18 0L3.44 13.87c-.88.87-.88 2.3 0 3.18Z" fill="#292D32"/><path d="M14.87 17.63c-.19 0-.38-.07-.53-.22L6.59 9.66a.755.755 0 0 1 0-1.06c.29-.29.77-.29 1.06 0l7.75 7.75c.29.29.29.77 0 1.06-.15.15-.34.22-.53.22Z" fill="#292D32"/><path d="M3.521 18.411c-.19 0-.38-.07-.53-.22a.754.754 0 0 1 0-1.06l5.66-5.66c.29-.29.77-.29 1.06 0 .29.29.29.77 0 1.06l-5.66 5.66c-.15.15-.34.22-.53.22ZM6.34 21.24c-.19 0-.38-.07-.53-.22a.754.754 0 0 1 0-1.06l5.66-5.66c.29-.29.77-.29 1.06 0 .29.29.29.77 0 1.06l-5.66 5.66a.75.75 0 0 1-.53.22Z" fill="#292D32"/></svg>