<svg width="24" height="24" fill="none" xmlns="http://www.w3.org/2000/svg"><path d="M11.97 22.75C6.05 22.75 1.22 17.93 1.22 12S6.05 1.25 11.97 1.25 22.72 6.07 22.72 12 17.9 22.75 11.97 22.75Zm0-20c-5.1 0-9.25 4.15-9.25 9.25s4.15 9.25 9.25 9.25 9.25-4.15 9.25-9.25-4.15-9.25-9.25-9.25Z" fill="#292D32"/><path d="M12 17.25c-2.9 0-5.25-2.36-5.25-5.25S9.1 6.75 12 6.75s5.25 2.36 5.25 5.25-2.35 5.25-5.25 5.25Zm0-9c-2.07 0-3.75 1.68-3.75 3.75 0 2.07 1.68 3.75 3.75 3.75 2.07 0 3.75-1.68 3.75-3.75 0-2.07-1.68-3.75-3.75-3.75Z" fill="#292D32"/><path d="M8.44 9.211c-.19 0-.39-.07-.53-.21l-3.54-3.54a.754.754 0 0 1 0-1.06c.29-.29.77-.29 1.06 0l3.54 3.54c.29.29.29.76 0 1.06-.15.14-.34.21-.53.21ZM4.9 19.819c-.19 0-.38-.07-.53-.22a.754.754 0 0 1 0-1.06l3.54-3.54c.29-.29.77-.29 1.06 0 .29.29.29.77 0 1.06l-3.54 3.54c-.14.15-.34.22-.53.22ZM19.04 19.819c-.19 0-.38-.07-.53-.22l-3.54-3.54a.754.754 0 0 1 0-1.06c.29-.29.77-.29 1.06 0l3.54 3.54c.29.29.29.77 0 1.06a.71.71 0 0 1-.53.22ZM15.51 9.21c-.19 0-.38-.07-.53-.22a.755.755 0 0 1 0-1.06l3.54-3.54c.29-.29.77-.29 1.06 0 .29.29.29.77 0 1.06L16.04 9c-.15.14-.34.21-.53.21Z" fill="#292D32"/></svg>