<svg width="24" height="24" fill="none" xmlns="http://www.w3.org/2000/svg"><path d="M5 21.869c-.74 0-1.47-.28-2.03-.84-.54-.54-.84-1.26-.84-2.03 0-.77.3-1.49.84-2.03l13-13a2.873 2.873 0 0 1 4.06 0c.54.54.84 1.26.84 2.03 0 .77-.3 1.49-.84 2.03l-13 13c-.56.56-1.29.84-2.03.84Zm13-17.24c-.35 0-.7.13-.97.4l-13 13c-.26.26-.4.6-.4.97s.14.71.4.97c.53.53 1.41.53 1.94 0l13-13c.26-.26.4-.6.4-.97s-.14-.71-.4-.97c-.27-.27-.62-.4-.97-.4Z" fill="#292D32"/><path d="M18.01 9.74c-.19 0-.38-.07-.53-.22l-3-3a.754.754 0 0 1 0-1.06c.29-.29.77-.29 1.06 0l3 3c.29.29.29.77 0 1.06-.15.15-.34.22-.53.22ZM10 5.5c-.05 0-.09-.01-.14-.02l-1.36-.4-1.36.4c-.18.05-.37 0-.49-.13-.13-.13-.18-.31-.13-.49l.4-1.36-.4-1.36c-.05-.18 0-.37.13-.49a.5.5 0 0 1 .49-.13l1.36.4 1.36-.4c.18-.05.36 0 .49.13a.5.5 0 0 1 .13.49l-.4 1.36.4 1.36c.05.18 0 .37-.13.49a.47.47 0 0 1-.35.15ZM8.5 4.06c.05 0 .09.01.14.02l.62.18-.18-.62a.447.447 0 0 1 0-.28l.18-.62-.62.18c-.09.03-.19.03-.28 0l-.62-.18.18.62c.03.09.03.19 0 .28l-.18.62.62-.18c.05-.01.09-.02.14-.02ZM6 11.5c-.05 0-.09-.01-.14-.02l-1.36-.4-1.36.4c-.18.05-.36 0-.49-.13a.5.5 0 0 1-.13-.49l.4-1.36-.4-1.36c-.05-.18 0-.37.13-.49s.32-.18.49-.13l1.36.4 1.36-.4a.5.5 0 0 1 .49.13c.13.13.18.32.13.49l-.4 1.36.4 1.36c.05.18 0 .37-.13.49a.47.47 0 0 1-.35.15Zm-1.5-1.44c.05 0 .09.01.14.02l.62.18-.18-.62a.447.447 0 0 1 0-.28l.18-.62-.62.18c-.09.03-.19.03-.28 0l-.62-.18.18.62c.03.09.03.19 0 .28l-.18.62.62-.18c.05-.01.09-.02.14-.02ZM21 16.5c-.05 0-.09-.01-.14-.02l-1.36-.4-1.36.4c-.18.05-.36 0-.49-.13s-.18-.32-.13-.49l.4-1.36-.4-1.36c-.05-.18 0-.37.13-.49s.32-.18.49-.13l1.36.4 1.36-.4a.5.5 0 0 1 .49.13.5.5 0 0 1 .13.49l-.4 1.36.4 1.36c.05.18 0 .37-.13.49a.47.47 0 0 1-.35.15Zm-1.5-1.44c.05 0 .09.01.14.02l.62.18-.18-.62a.447.447 0 0 1 0-.28l.18-.62-.62.18c-.09.03-.19.03-.28 0l-.62-.18.18.62c.03.09.03.19 0 .28l-.18.62.62-.18c.05-.01.09-.02.14-.02Z" fill="#292D32"/></svg>