<svg width="24" height="24" fill="none" xmlns="http://www.w3.org/2000/svg"><path d="M12 22.75c-1.17 0-2.26-.45-3.08-1.27l-6.39-6.39a4.334 4.334 0 0 1-1.27-3.08c0-1.16.45-2.26 1.27-3.08l6.39-6.39c.82-.82 1.92-1.27 3.08-1.27 1.16 0 2.26.45 3.08 1.27l6.39 6.39c.82.82 1.27 1.92 1.27 3.08 0 1.16-.45 2.26-1.27 3.08l-6.39 6.39c-.82.82-1.91 1.27-3.08 1.27Zm0-20c-.77 0-1.49.3-2.02.83L3.59 9.97c-.54.54-.83 1.26-.83 2.02s.3 1.49.83 2.02l6.39 6.39c1.07 1.07 2.97 1.07 4.04 0l6.39-6.39c.54-.54.83-1.25.83-2.02s-.3-1.49-.83-2.02l-6.39-6.39c-.53-.53-1.25-.83-2.02-.83Z" fill="#292D32"/><path d="M17.75 18.501c-.19 0-.38-.07-.53-.22l-11.5-11.5a.755.755 0 0 1 0-1.06c.29-.29.77-.29 1.06 0l11.5 11.5c.29.29.29.77 0 1.06-.15.15-.34.22-.53.22Z" fill="#292D32"/><path d="M6.25 18.501c-.19 0-.38-.07-.53-.22a.755.755 0 0 1 0-1.06l11.5-11.5c.29-.29.77-.29 1.06 0 .29.29.29.77 0 1.06l-11.5 11.5c-.15.15-.34.22-.53.22Z" fill="#292D32"/></svg>