<svg width="24" height="24" fill="none" xmlns="http://www.w3.org/2000/svg"><path d="M4.93 19.82a.75.75 0 0 1-.53-.22A10.681 10.681 0 0 1 1.25 12C1.25 6.07 6.07 1.25 12 1.25c2.87 0 5.57 1.12 7.6 3.15a.75.75 0 0 1 0 1.06L5.46 19.6a.75.75 0 0 1-.53.22ZM12 2.75C6.9 2.75 2.75 6.9 2.75 12a9.2 9.2 0 0 0 2.2 5.99L17.99 4.95A9.2 9.2 0 0 0 12 2.75Z" fill="#292D32"/><path d="M12 22.751c-2.87 0-5.57-1.12-7.6-3.15a.75.75 0 0 1 0-1.06l14.14-14.14c.29-.29.77-.29 1.06 0 2.03 2.03 3.15 4.73 3.15 7.6 0 5.93-4.82 10.75-10.75 10.75Zm-5.99-3.7a9.2 9.2 0 0 0 5.99 2.2c5.1 0 9.25-4.15 9.25-9.25a9.2 9.2 0 0 0-2.2-5.99L6.01 19.051Z" fill="#292D32"/><path d="M13.41 22.65c-.19 0-.38-.07-.53-.22l-5.66-5.66a.754.754 0 0 1 0-1.06c.29-.29.77-.29 1.06 0l5.66 5.66c.29.29.29.77 0 1.06a.71.71 0 0 1-.53.22ZM17.87 20.03c-.19 0-.38-.07-.53-.22l-6.58-6.58a.754.754 0 0 1 0-1.06c.29-.29.77-.29 1.06 0l6.58 6.58c.29.29.29.77 0 1.06-.15.15-.34.22-.53.22ZM21.12 16.221c-.19 0-.38-.07-.53-.22l-6.29-6.29a.754.754 0 0 1 0-1.06c.29-.29.77-.29 1.06 0l6.29 6.29a.75.75 0 0 1-.53 1.28Z" fill="#292D32"/></svg>