<svg width="24" height="24" fill="none" xmlns="http://www.w3.org/2000/svg"><path d="M15 22.75H9c-5.43 0-7.75-2.32-7.75-7.75V9c0-5.43 2.32-7.75 7.75-7.75h6c5.43 0 7.75 2.32 7.75 7.75v6c0 5.43-2.32 7.75-7.75 7.75Zm-6-20C4.39 2.75 2.75 4.39 2.75 9v6c0 4.61 1.64 6.25 6.25 6.25h6c4.61 0 6.25-1.64 6.25-6.25V9c0-4.61-1.64-6.25-6.25-6.25H9Z" fill="#292D32"/><path d="M17 17.5h-3.1c-.3 0-.57-.17-.69-.45a.75.75 0 0 1 .13-.81l1.62-1.79c.67-.75 1.05-1.7 1.05-2.68 0-1-.41-1.94-1.16-2.65A4.182 4.182 0 0 0 12 8c-1.06 0-2.1.41-2.85 1.12-.75.71-1.16 1.65-1.16 2.65 0 .98.37 1.93 1.05 2.68l1.62 1.79a.753.753 0 0 1-.56 1.26H7c-.41 0-.75-.34-.75-.75S6.59 16 7 16h1.41l-.49-.54a5.507 5.507 0 0 1-1.43-3.69c0-1.39.59-2.76 1.63-3.74A5.595 5.595 0 0 1 12 6.5c1.46 0 2.84.54 3.88 1.53 1.03.98 1.63 2.35 1.63 3.74 0 1.35-.51 2.66-1.43 3.69l-.49.54H17c.41 0 .75.34.75.75s-.34.75-.75.75Z" fill="#292D32"/></svg>