<svg width="24" height="24" fill="none" xmlns="http://www.w3.org/2000/svg"><path d="M15.04 13.02c-.19 0-.39-.08-.53-.22l-3.29-3.29a.742.742 0 0 1-.1-.93l1.03-1.63c.33-.53.85-.86 1.44-.92.65-.07 1.33.19 1.85.71l1.85 1.85c.5.5.75 1.18.68 1.85-.07.6-.39 1.12-.89 1.44l-1.63 1.03c-.14.08-.28.11-.41.11ZM12.7 8.87l2.45 2.45 1.12-.71c.14-.09.19-.23.2-.34a.813.813 0 0 0-.25-.63L14.37 7.8c-.2-.2-.43-.3-.62-.28-.14.02-.25.09-.34.23l-.71 1.12Z" fill="#292D32"/><path d="M8.29 17.98c-.62 0-1.2-.23-1.61-.64-.48-.48-.71-1.18-.62-1.92l.6-5.07c.2-1.69 1.02-2.37 2.74-2.26l2.39.14c.41.03.73.38.7.79-.03.41-.38.73-.79.7l-2.4-.13c-.97-.06-1.06.09-1.16.94l-.6 5.07c-.03.28.04.53.19.68.16.16.4.23.68.19l5.07-.6c.92-.11 1.03-.25.95-1.13l-.15-2.42c-.02-.41.29-.77.7-.79.41-.03.77.29.79.7l.14 2.39c.17 1.68-.53 2.54-2.26 2.74l-5.07.6c-.09.02-.19.02-.29.02Z" fill="#292D32"/><path d="M7.49 17.27c-.19 0-.38-.07-.53-.22a.754.754 0 0 1 0-1.06l1.85-1.85c.29-.29.77-.29 1.06 0 .29.29.29.77 0 1.06l-1.85 1.85a.71.71 0 0 1-.53.22Z" fill="#292D32"/><path d="M15 22.75H9c-5.43 0-7.75-2.32-7.75-7.75V9c0-5.43 2.32-7.75 7.75-7.75h6c5.43 0 7.75 2.32 7.75 7.75v6c0 5.43-2.32 7.75-7.75 7.75Zm-6-20C4.39 2.75 2.75 4.39 2.75 9v6c0 4.61 1.64 6.25 6.25 6.25h6c4.61 0 6.25-1.64 6.25-6.25V9c0-4.61-1.64-6.25-6.25-6.25H9Z" fill="#292D32"/></svg>