<svg width="24" height="24" fill="none" xmlns="http://www.w3.org/2000/svg"><path d="M16.98 13.201c-.19 0-.39-.08-.53-.22l-5.4-5.41a.742.742 0 0 1-.1-.93l1.69-2.67c.47-.74 1.18-1.2 2.01-1.29.93-.09 1.89.27 2.64 1.02l3.03 3.03c.72.72 1.08 1.69.97 2.65-.09.84-.54 1.57-1.24 2.01l-2.67 1.69c-.12.08-.26.12-.4.12Zm-4.45-6.26 4.56 4.56 2.17-1.37c.31-.2.51-.52.55-.91.06-.5-.15-1.03-.54-1.42l-3.03-3.03c-.43-.43-.95-.66-1.42-.59-.38.04-.69.25-.91.6l-1.38 2.16Z" fill="#292D32"/><path d="M5.89 21.339c-.89 0-1.69-.32-2.29-.91-.7-.7-1.01-1.67-.88-2.75l.98-8.33c.3-2.52 1.41-3.44 4-3.29l3.92.23c.41.03.73.38.7.79-.03.41-.38.73-.79.7l-3.92-.22c-1.78-.11-2.22.24-2.42 1.97l-.98 8.32c-.07.61.09 1.15.45 1.51.37.36.91.53 1.52.45l8.32-.98c1.75-.21 2.14-.67 1.97-2.39l-.24-3.95c-.02-.41.29-.77.7-.79.41-.03.77.29.79.7l.23 3.92c.24 2.49-.74 3.69-3.29 4l-8.32.98c-.14.03-.3.04-.45.04Z" fill="#292D32"/><path d="M4.61 20.17c-.19 0-.38-.07-.53-.22a.754.754 0 0 1 0-1.06l3.04-3.04c.29-.29.77-.29 1.06 0 .29.29.29.77 0 1.06l-3.04 3.04c-.15.15-.34.22-.53.22Z" fill="#292D32"/></svg>