<svg width="24" height="24" fill="none" xmlns="http://www.w3.org/2000/svg"><path d="M13.27 23.252h-2.52c-.7 0-1.33-.3-1.75-.81-.37-.46-.51-1.05-.38-1.61l.41-1.81c.08-.34.38-.58.73-.58h4.5c.35 0 .65.24.73.58l.41 1.81c.13.6.01 1.18-.36 1.64-.41.49-1.05.78-1.77.78Zm-2.91-3.33-.28 1.23a.4.4 0 0 0 .09.34c.13.16.34.25.58.25h2.52c.26 0 .48-.08.6-.23.08-.1.1-.22.07-.37l-.28-1.23h-3.3v.01Z" fill="#292D32"/><path d="M14.26 19.919c-.21 0-.41-.08-.56-.25a.756.756 0 0 1 .06-1.06l1.73-1.54c.69-.61.66-.76.15-1.4l-3.05-3.87c-.17-.21-.37-.33-.58-.33-.21 0-.41.12-.58.33l-3.05 3.87c-.54.69-.53.84.13 1.38l1.75 1.56c.31.27.34.75.06 1.06-.28.31-.75.34-1.06.06l-1.73-1.54c-1.26-1.03-1.37-2.13-.33-3.45l3.05-3.87c.45-.57 1.09-.9 1.76-.9.67 0 1.31.33 1.76.9l3.05 3.87c1.03 1.3.93 2.34-.33 3.45l-1.73 1.54c-.15.13-.33.19-.5.19Z" fill="#292D32"/><path d="M12.01 14.401c-.41 0-.75-.34-.75-.75v-2.53c0-.41.34-.75.75-.75s.75.34.75.75v2.53c0 .42-.34.75-.75.75ZM12.52 5.75h-1c-.96 0-1.75-.79-1.75-1.75V3c0-.96.79-1.75 1.75-1.75h1c.96 0 1.75.79 1.75 1.75v1c0 .96-.78 1.75-1.75 1.75Zm-1-3c-.14 0-.25.11-.25.25v1c0 .14.11.25.25.25h1c.14 0 .25-.11.25-.25V3c0-.14-.11-.25-.25-.25h-1ZM4.27 14.922h-1c-.96 0-1.75-.79-1.75-1.75v-1c0-.96.79-1.75 1.75-1.75h1c.96 0 1.75.79 1.75 1.75v1c0 .96-.79 1.75-1.75 1.75Zm-1-3c-.14 0-.25.11-.25.25v1c0 .14.11.25.25.25h1c.14 0 .25-.11.25-.25v-1c0-.14-.11-.25-.25-.25h-1ZM20.73 14.922h-1c-.96 0-1.75-.79-1.75-1.75v-1c0-.96.79-1.75 1.75-1.75h1c.96 0 1.75.79 1.75 1.75v1c0 .96-.78 1.75-1.75 1.75Zm-1-3c-.14 0-.25.11-.25.25v1c0 .14.11.25.25.25h1c.14 0 .25-.11.25-.25v-1c0-.14-.11-.25-.25-.25h-1Z" fill="#292D32"/><path d="M3.75 11.918c-.41 0-.75-.34-.75-.75 0-4.27 3.2-7.86 7.44-8.36.41-.04.78.25.83.66.05.41-.25.78-.66.83a6.92 6.92 0 0 0-6.11 6.87c0 .41-.34.75-.75.75ZM20.249 11.922c-.41 0-.75-.34-.75-.75 0-3.49-2.61-6.44-6.07-6.86a.744.744 0 0 1-.65-.83.74.74 0 0 1 .84-.65c4.21.51 7.39 4.1 7.39 8.35-.01.4-.34.74-.76.74Z" fill="#292D32"/></svg>