<svg width="24" height="24" fill="none" xmlns="http://www.w3.org/2000/svg"><path d="M13.27 23.252h-2.52c-.7 0-1.33-.3-1.75-.81-.37-.46-.51-1.05-.38-1.61l.41-1.81c.08-.34.38-.58.73-.58h4.5c.35 0 .65.24.73.58l.41 1.81c.13.6.01 1.18-.36 1.64-.41.49-1.05.78-1.77.78Zm-2.91-3.33-.28 1.23a.4.4 0 0 0 .09.34c.13.16.34.25.58.25h2.52c.26 0 .48-.08.6-.23.08-.1.1-.22.07-.37l-.28-1.23h-3.3v.01Z" fill="#292D32"/><path d="M14.26 19.919c-.21 0-.41-.08-.56-.25a.756.756 0 0 1 .06-1.06l1.73-1.54c.69-.61.66-.76.15-1.4l-3.05-3.87c-.17-.21-.37-.33-.58-.33-.21 0-.41.12-.58.33l-3.05 3.87c-.54.69-.53.84.13 1.38l1.75 1.56c.31.27.34.75.06 1.06-.28.31-.75.34-1.06.06l-1.73-1.54c-1.26-1.03-1.37-2.13-.33-3.45l3.05-3.87c.45-.57 1.09-.9 1.76-.9.67 0 1.31.33 1.76.9l3.05 3.87c1.03 1.3.93 2.34-.33 3.45l-1.73 1.54c-.15.13-.33.19-.5.19Z" fill="#292D32"/><path d="M12.01 14.401c-.41 0-.75-.34-.75-.75v-2.53c0-.41.34-.75.75-.75s.75.34.75.75v2.53c0 .42-.34.75-.75.75ZM12 6.288c-.5 0-1-.19-1.38-.57l-.78-.78c-.76-.76-.76-2 0-2.76l.78-.78c.76-.76 2-.76 2.76 0l.78.78c.76.76.76 2 0 2.76l-.78.78c-.38.38-.88.57-1.38.57Zm0-3.96c-.12 0-.23.04-.32.13l-.78.78c-.08.08-.13.2-.13.32s.05.23.13.32l.78.78c.17.17.47.17.64 0l.78-.78c.08-.08.13-.2.13-.32s-.05-.23-.13-.32l-.78-.78a.482.482 0 0 0-.32-.13ZM20.55 14.059h-1.1c-1.08 0-1.95-.88-1.95-1.95v-1.1c0-1.08.88-1.95 1.95-1.95h1.1c1.08 0 1.95.88 1.95 1.95v1.1c0 1.08-.88 1.95-1.95 1.95Zm-1.1-3.5c-.25 0-.45.2-.45.45v1.1c0 .25.2.45.45.45h1.1c.25 0 .45-.2.45-.45v-1.1c0-.25-.2-.45-.45-.45h-1.1ZM4.55 14.059h-1.1c-1.08 0-1.95-.88-1.95-1.95v-1.1c0-1.08.88-1.95 1.95-1.95h1.1c1.08 0 1.95.88 1.95 1.95v1.1c0 1.08-.88 1.95-1.95 1.95Zm-1.1-3.5c-.25 0-.45.2-.45.45v1.1c0 .25.2.45.45.45h1.1c.25 0 .45-.2.45-.45v-1.1c0-.25-.2-.45-.45-.45h-1.1Z" fill="#292D32"/><path d="M18.54 10.848c-.19 0-.38-.07-.53-.22l-5.3-5.3a.754.754 0 0 1 0-1.06c.29-.29.77-.29 1.06 0l5.3 5.3c.29.29.29.77 0 1.06-.15.15-.34.22-.53.22ZM5.46 10.848c-.19 0-.38-.07-.53-.22a.755.755 0 0 1 0-1.06l5.3-5.3c.29-.29.77-.29 1.06 0 .29.29.29.77 0 1.06l-5.3 5.3c-.15.15-.34.22-.53.22Z" fill="#292D32"/></svg>