<svg width="24" height="24" fill="none" xmlns="http://www.w3.org/2000/svg"><path d="M19 17.75H5c-2.42 0-3.75-1.33-3.75-3.75v-4c0-2.42 1.33-3.75 3.75-3.75h14c2.42 0 3.75 1.33 3.75 3.75v4c0 2.42-1.33 3.75-3.75 3.75Zm-14-10c-1.58 0-2.25.67-2.25 2.25v4c0 1.58.67 2.25 2.25 2.25h14c1.58 0 2.25-.67 2.25-2.25v-4c0-1.58-.67-2.25-2.25-2.25H5Z" fill="#292D32"/><path d="M18 12.75c-.41 0-.75-.34-.75-.75V7c0-.41.34-.75.75-.75s.75.34.75.75v5c0 .41-.34.75-.75.75ZM6 11.75c-.41 0-.75-.34-.75-.75V7c0-.41.34-.75.75-.75s.75.34.75.75v4c0 .41-.34.75-.75.75ZM10 12.75c-.42 0-.75-.34-.75-.76l.05-5c0-.41.34-.74.75-.74h.01c.41 0 .75.34.74.76l-.05 5c0 .41-.34.74-.75.74ZM14 10.75c-.41 0-.75-.34-.75-.75V7c0-.41.34-.75.75-.75s.75.34.75.75v3c0 .41-.34.75-.75.75Z" fill="#292D32"/></svg>