<svg width="24" height="24" fill="none" xmlns="http://www.w3.org/2000/svg"><path d="M18.47 22.75h-4c-2.42 0-3.75-1.33-3.75-3.75V5c0-2.42 1.33-3.75 3.75-3.75h4c2.42 0 3.75 1.33 3.75 3.75v14c0 2.42-1.34 3.75-3.75 3.75Zm-4-20c-1.58 0-2.25.67-2.25 2.25v14c0 1.58.67 2.25 2.25 2.25h4c1.58 0 2.25-.67 2.25-2.25V5c0-1.58-.67-2.25-2.25-2.25h-4Z" fill="#292D32"/><path d="M16.47 6.75h-5c-.41 0-.75-.34-.75-.75s.34-.75.75-.75h5c.41 0 .75.34.75.75s-.34.75-.75.75ZM15.47 18.75h-4c-.41 0-.75-.34-.75-.75s.34-.75.75-.75h4c.41 0 .75.34.75.75s-.34.75-.75.75ZM16.47 14.75c-.01 0-.01 0 0 0l-5.01-.05c-.41 0-.75-.34-.74-.76 0-.41.34-.74.75-.74h.01l5 .05c.41 0 .75.34.74.76-.01.41-.34.74-.75.74ZM14.47 10.75h-3c-.41 0-.75-.34-.75-.75s.34-.75.75-.75h3c.41 0 .75.34.75.75s-.34.75-.75.75ZM5.49 22.72c-.91 0-1.77-.56-2.36-1.54l-.82-1.36c-.3-.5-.53-1.32-.53-1.9V4.95c0-2.04 1.66-3.7 3.7-3.7s3.7 1.66 3.7 3.7v12.96c0 .58-.23 1.4-.53 1.9l-.82 1.36c-.57.99-1.43 1.55-2.34 1.55Zm0-19.97c-1.21 0-2.2.99-2.2 2.2v12.96c0 .31.15.86.31 1.13l.82 1.36c.31.52.7.81 1.07.81.37 0 .76-.3 1.07-.81l.82-1.36c.16-.27.31-.82.31-1.13V4.95c0-1.21-.99-2.2-2.2-2.2Z" fill="#292D32"/><path d="M8.44 7.75H2.53c-.41 0-.75-.34-.75-.75s.34-.75.75-.75h5.91c.41 0 .75.34.75.75s-.34.75-.75.75Z" fill="#292D32"/></svg>