<svg width="24" height="24" fill="none" xmlns="http://www.w3.org/2000/svg"><path d="M5.5 10.75A4.26 4.26 0 0 1 1.25 6.5 4.26 4.26 0 0 1 5.5 2.25 4.26 4.26 0 0 1 9.75 6.5a4.26 4.26 0 0 1-4.25 4.25Zm0-7c-1.52 0-2.75 1.23-2.75 2.75S3.98 9.25 5.5 9.25 8.25 8.02 8.25 6.5 7.02 3.75 5.5 3.75ZM5.5 21.75a4.26 4.26 0 0 1-4.25-4.25 4.26 4.26 0 0 1 4.25-4.25 4.26 4.26 0 0 1 4.25 4.25 4.26 4.26 0 0 1-4.25 4.25Zm0-7c-1.52 0-2.75 1.23-2.75 2.75s1.23 2.75 2.75 2.75 2.75-1.23 2.75-2.75-1.23-2.75-2.75-2.75Z" fill="#292D32"/><path d="M8.65 16.73a.75.75 0 0 1-.45-1.35L21.55 5.4a.75.75 0 0 1 .9 1.2L9.1 16.58c-.13.1-.29.15-.45.15Z" fill="#292D32"/><path d="M22 18.719a.76.76 0 0 1-.45-.15L8.2 8.589a.75.75 0 0 1 .9-1.2l13.35 9.98a.75.75 0 0 1-.45 1.35Z" fill="#292D32"/></svg>