<svg width="24" height="24" fill="none" xmlns="http://www.w3.org/2000/svg"><path d="M13.43 15.748H4.4c-1.12 0-2.14-.58-2.71-1.55-.57-.97-.59-2.13-.05-3.12l4.51-8.21a3.105 3.105 0 0 1 2.76-1.63c1.17 0 2.2.61 2.76 1.63l4.52 8.21c.54.98.52 2.15-.05 3.12-.57.97-1.59 1.55-2.71 1.55Zm-4.52-13c-.61 0-1.15.32-1.44.85l-4.51 8.21c-.28.52-.27 1.12.02 1.63.3.51.83.81 1.42.81h9.03c.59 0 1.12-.3 1.42-.81.3-.51.31-1.11.02-1.63l-4.52-8.21c-.29-.53-.83-.85-1.44-.85Z" fill="#292D32"/><path d="M15.5 22.75c-4 0-7.25-3.25-7.25-7.25 0-.18.01-.36.02-.54.02-.4.35-.71.75-.71h4.41c.59 0 1.12-.3 1.42-.81.3-.51.31-1.11.02-1.63l-1.28-2.33a.742.742 0 0 1-.02-.68c.1-.22.3-.37.53-.42.45-.09.92-.13 1.4-.13 4 0 7.25 3.25 7.25 7.25s-3.25 7.25-7.25 7.25Zm-5.74-7c.13 3.06 2.66 5.5 5.74 5.5 3.17 0 5.75-2.58 5.75-5.75s-2.58-5.75-5.75-5.75h-.05l.74 1.34c.54.98.52 2.15-.05 3.12a3.11 3.11 0 0 1-2.71 1.55H9.76v-.01Z" fill="#292D32"/></svg>