<svg width="24" height="24" fill="none" xmlns="http://www.w3.org/2000/svg"><path d="M11.72 22.75h-4.5c-4.15 0-6-1.85-6-6v-4.5c0-4.15 1.85-6 6-6h4.5c4.15 0 6 1.85 6 6v4.5c0 4.15-1.85 6-6 6Zm-4.5-15c-3.32 0-4.5 1.18-4.5 4.5v4.5c0 3.32 1.18 4.5 4.5 4.5h4.5c3.32 0 4.5-1.18 4.5-4.5v-4.5c0-3.32-1.18-4.5-4.5-4.5h-4.5Z" fill="#292D32"/><path d="M16.97 13.722c-.19 0-.37-.07-.51-.2a.72.72 0 0 1-.24-.55v-.72c0-3.32-1.18-4.5-4.5-4.5H11c-.21 0-.41-.09-.55-.24a.75.75 0 0 1-.19-.57 6.205 6.205 0 0 1 6.22-5.68c3.12 0 5.78 2.33 6.18 5.42.04.24.07.53.07.83 0 3.26-2.44 5.93-5.68 6.22-.03-.01-.05-.01-.08-.01Zm-5.08-7.47c3.97.05 5.78 1.85 5.83 5.83 2.04-.54 3.5-2.39 3.5-4.58 0-.21-.02-.41-.05-.6-.31-2.38-2.33-4.15-4.7-4.15-2.19 0-4.03 1.46-4.58 3.5Z" fill="#292D32"/></svg>