<svg width="24" height="24" fill="none" xmlns="http://www.w3.org/2000/svg"><path d="M11.5 21.75c-5.65 0-10.25-4.6-10.25-10.25S5.85 1.25 11.5 1.25c.41 0 .75.34.75.75s-.34.75-.75.75c-4.83 0-8.75 3.93-8.75 8.75s3.92 8.75 8.75 8.75 8.75-3.93 8.75-8.75c0-.41.34-.75.75-.75s.75.34.75.75c0 5.65-4.6 10.25-10.25 10.25ZM22 22.751c-.19 0-.38-.07-.53-.22l-2-2a.754.754 0 0 1 0-1.06c.29-.29.77-.29 1.06 0l2 2c.29.29.29.77 0 1.06-.15.15-.34.22-.53.22Z" fill="#292D32"/><path d="M17.5 9.54c-.92 0-3.06-1.12-3.72-3.18-.45-1.41.07-3.26 1.7-3.79.7-.23 1.43-.12 2.01.25.57-.37 1.32-.47 2.02-.25 1.63.53 2.16 2.38 1.7 3.79-.65 2.1-2.9 3.18-3.71 3.18Zm-2.29-3.63c.46 1.45 2.02 2.11 2.3 2.14.32-.03 1.85-.77 2.27-2.13.23-.73 0-1.67-.73-1.91-.31-.1-.73-.04-.93.25-.14.21-.36.33-.61.34a.758.758 0 0 1-.62-.31c-.23-.33-.65-.38-.95-.29-.72.24-.96 1.18-.73 1.91Z" fill="#292D32"/></svg>