<svg width="24" height="24" fill="none" xmlns="http://www.w3.org/2000/svg"><path d="M18.898 15.031c-2.21 0-4 1.79-4 4s1.79 4 4 4 4-1.79 4-4-1.79-4-4-4Zm1.6 5.65c-.15.15-.34.22-.53.22s-.38-.07-.53-.22l-.53-.53-.55.55c-.15.15-.34.22-.53.22s-.38-.07-.53-.22a.754.754 0 0 1 0-1.06l.55-.55-.53-.53a.754.754 0 0 1 0-1.06c.29-.29.77-.29 1.06 0l.53.53.5-.5c.29-.29.77-.29 1.06 0 .29.29.29.77 0 1.06l-.5.5.53.53c.29.29.29.77 0 1.06ZM22 7.538v1.46H2v-1.46c0-2.29 1.86-4.14 4.15-4.14h11.7c2.29 0 4.15 1.85 4.15 4.14Z" fill="#292D32"/><path opacity=".4" d="M2 9v7.46c0 2.29 1.85 4.14 4.14 4.14h6.26c.58 0 1.08-.49 1.03-1.07-.14-1.53.35-3.19 1.71-4.51.56-.55 1.25-.97 2-1.21 1.25-.4 2.46-.35 3.53.01a1 1 0 0 0 1.33-.94V9H2Zm6 8.25H6c-.41 0-.75-.34-.75-.75s.34-.75.75-.75h2c.41 0 .75.34.75.75s-.34.75-.75.75Z" fill="#292D32"/><path d="M8.75 16.5c0 .41-.34.75-.75.75H6c-.41 0-.75-.34-.75-.75s.34-.75.75-.75h2c.41 0 .75.34.75.75Z" fill="#292D32"/></svg>