<svg width="24" height="24" fill="none" xmlns="http://www.w3.org/2000/svg"><path d="M20.97 1h-2.94C16.76 1 16 1.76 16 3.03v2.94C16 7.24 16.76 8 18.03 8h2.94C22.24 8 23 7.24 23 5.97V3.03C23 1.76 22.24 1 20.97 1Zm.22 3.31a.62.62 0 0 1-.44.18.62.62 0 0 1-.44-.18l-.18-.18v2.24c0 .35-.28.63-.63.63s-.63-.28-.63-.63V4.13l-.18.18c-.24.24-.64.24-.88 0a.628.628 0 0 1 0-.88l1.25-1.25c.05-.05.12-.09.19-.12.02-.01.04-.01.06-.02.05-.02.1-.03.16-.03h.06c.07 0 .13.01.2.04h.02c.07.03.13.07.18.12.01.01.01.01.02.01l1.25 1.25c.24.24.24.64-.01.88Z" fill="#292D32"/><path opacity=".4" d="M22 7.768v1.23H2v-1.46c0-2.29 1.86-4.14 4.15-4.14H16v2.57c0 1.27.76 2.03 2.03 2.03h2.94c.4 0 .74-.07 1.03-.23Z" fill="#292D32"/><path d="M2 9v7.46c0 2.29 1.86 4.14 4.15 4.14h11.7c2.29 0 4.15-1.85 4.15-4.14V9H2Zm6 8.25H6c-.41 0-.75-.34-.75-.75s.34-.75.75-.75h2c.41 0 .75.34.75.75s-.34.75-.75.75Zm6.5 0h-4c-.41 0-.75-.34-.75-.75s.34-.75.75-.75h4c.41 0 .75.34.75.75s-.34.75-.75.75Z" fill="#292D32"/></svg>