<svg width="24" height="24" fill="none" xmlns="http://www.w3.org/2000/svg"><path d="M21.25 22H2.75c-.41 0-.75-.34-.75-.75s.34-.75.75-.75h18.5c.41 0 .75.34.75.75s-.34.75-.75.75Z" fill="#292D32"/><path opacity=".4" d="m20.589 13.699-7.23 7.23a3.618 3.618 0 0 1-5.12.01l-4.61-4.61 12.36-12.36 4.61 4.61a3.618 3.618 0 0 1-.01 5.12Z" fill="#292D32"/><path d="M15.989 3.97 3.619 16.33l-.91-.91a3.618 3.618 0 0 1 .01-5.12l7.23-7.23a3.618 3.618 0 0 1 5.12-.01l.92.91ZM12.89 17.599l-1.35 1.35c-.28.28-.73.28-1.01 0a.712.712 0 0 1 0-1.01l1.35-1.35c.28-.28.73-.28 1.01 0s.28.73 0 1.01ZM17.27 13.22l-2.69 2.69c-.28.28-.73.28-1.01 0a.712.712 0 0 1 0-1.01l2.69-2.69c.28-.28.73-.28 1.01 0 .27.28.27.73 0 1.01Z" fill="#292D32"/></svg>