<svg width="24" height="24" fill="none" xmlns="http://www.w3.org/2000/svg"><path d="M19 15c-2.21 0-4 1.79-4 4 0 .75.21 1.46.58 2.06A3.97 3.97 0 0 0 19 23c1.46 0 2.73-.78 3.42-1.94.37-.6.58-1.31.58-2.06 0-2.21-1.79-4-4-4Zm2.07 3.57-2.13 1.97c-.14.13-.33.2-.51.2-.19 0-.38-.07-.53-.22l-.99-.99a.754.754 0 0 1 0-1.06c.29-.29.77-.29 1.06 0l.48.48 1.6-1.48c.3-.28.78-.26 1.06.04s.26.77-.04 1.06ZM22 7.538v1.46H2v-1.46c0-2.29 1.86-4.14 4.15-4.14h11.7c2.29 0 4.15 1.85 4.15 4.14Z" fill="#292D32"/><path opacity=".4" d="M2 9v7.46c0 2.29 1.85 4.14 4.14 4.14h6.26c.58 0 1.08-.49 1.03-1.07-.14-1.53.35-3.19 1.71-4.51.56-.55 1.25-.97 2-1.21 1.25-.4 2.46-.35 3.53.01a1 1 0 0 0 1.33-.94V9H2Zm6 8.25H6c-.41 0-.75-.34-.75-.75s.34-.75.75-.75h2c.41 0 .75.34.75.75s-.34.75-.75.75Z" fill="#292D32"/><path d="M8.75 16.5c0 .41-.34.75-.75.75H6c-.41 0-.75-.34-.75-.75s.34-.75.75-.75h2c.41 0 .75.34.75.75Z" fill="#292D32"/></svg>