<svg width="24" height="24" fill="none" xmlns="http://www.w3.org/2000/svg"><path opacity=".4" d="M21.998 9v7.46c0 2.29-1.86 4.14-4.15 4.14H6.398l3.57-3.57 1.28-1.28L17.998 9h4ZM15 9 4 20c-1.2-.72-2-2.04-2-3.54V9h13Z" fill="#292D32"/><path d="M22 7.541v1.46h-4l3.47-3.47c.34.59.53 1.28.53 2.01ZM20 3.998l-5 5H2v-1.46c0-2.29 1.86-4.14 4.15-4.14h11.7c.79 0 1.52.22 2.15.6ZM8.21 15.79l-1.46 1.46H6c-.41 0-.75-.34-.75-.75s.34-.75.75-.75h2c.07 0 .14.01.21.04ZM15.249 16.5c0 .41-.34.75-.75.75h-4c-.2 0-.39-.09-.53-.22l1.28-1.28h3.25c.41 0 .75.34.75.75Z" fill="#292D32"/><path d="M21.769 2.229c-.3-.3-.79-.3-1.09 0l-18.45 18.46c-.3.3-.3.79 0 1.09a.758.758 0 0 0 1.08-.01l18.46-18.46c.31-.3.31-.78 0-1.08Z" fill="#292D32"/></svg>