<svg width="24" height="24" fill="none" xmlns="http://www.w3.org/2000/svg"><path opacity=".4" d="M22 7.768v1.23H2v-1.46c0-2.29 1.86-4.14 4.15-4.14H16v2.57c0 1.27.76 2.03 2.03 2.03h2.94c.4 0 .74-.07 1.03-.23Z" fill="#292D32"/><path d="M2 9v7.46c0 2.29 1.86 4.14 4.15 4.14h11.7c2.29 0 4.15-1.85 4.15-4.14V9H2Zm6 8.25H6c-.41 0-.75-.34-.75-.75s.34-.75.75-.75h2c.41 0 .75.34.75.75s-.34.75-.75.75Zm6.5 0h-4c-.41 0-.75-.34-.75-.75s.34-.75.75-.75h4c.41 0 .75.34.75.75s-.34.75-.75.75ZM20.97 1h-2.94C16.76 1 16 1.76 16 3.03v2.94C16 7.24 16.76 8 18.03 8h2.94C22.24 8 23 7.24 23 5.97V3.03C23 1.76 22.24 1 20.97 1Zm.37 4.49c.11.13.17.27.17.44 0 .14-.06.3-.17.41a.61.61 0 0 1-.85 0l-.99-.99-.98 1c-.23.23-.62.23-.86-.01a.61.61 0 0 1 0-.85l1-.98-.99-.99a.622.622 0 0 1-.01-.86c.23-.24.62-.23.86.01l.98.99 1-1a.61.61 0 0 1 .85 0c.11.13.16.28.17.44 0 .14-.06.3-.16.42l-1 1 .98.97Z" fill="#292D32"/></svg>