<svg width="24" height="24" fill="none" xmlns="http://www.w3.org/2000/svg"><path opacity=".4" d="M16.192 2h-8.37c-3.64 0-5.81 2.17-5.81 5.81v8.37c0 3.64 2.17 5.81 5.81 5.81h8.37c3.64 0 5.81-2.17 5.81-5.81V7.81c0-3.64-2.17-5.81-5.81-5.81Z" fill="#292D32"/><path d="M10.11 11.152H7.46c-.63 0-1.14.51-1.14 1.14v5.12h3.79v-6.26Z" fill="#292D32"/><path opacity=".4" d="M12.762 6.602h-1.52c-.63 0-1.14.51-1.14 1.14v9.66h3.79v-9.66c0-.63-.5-1.14-1.13-1.14Z" fill="#292D32"/><path d="M16.548 12.852h-2.65v4.55h3.79v-3.41c-.01-.63-.52-1.14-1.14-1.14Z" fill="#292D32"/></svg>