<svg width="24" height="24" fill="none" xmlns="http://www.w3.org/2000/svg"><path d="M18.5 12.648v3.7c0 3.12-2.91 5.65-6.5 5.65s-6.5-2.53-6.5-5.65v-3.7c0 3.12 2.91 5.35 6.5 5.35s6.5-2.23 6.5-5.35Z" fill="#292D32"/><path opacity=".4" d="M18.5 7.648v5c0 3.12-2.91 5.35-6.5 5.35s-6.5-2.23-6.5-5.35v-5c0 .91.25 1.75.69 2.47 1.07 1.76 3.27 2.88 5.81 2.88 2.54 0 4.74-1.12 5.81-2.88.44-.72.69-1.56.69-2.47Z" fill="#292D32"/><path d="M18.5 7.65c0 .91-.25 1.75-.69 2.47C16.74 11.88 14.54 13 12 13c-2.54 0-4.74-1.12-5.81-2.88-.44-.72-.69-1.56-.69-2.47C5.5 4.53 8.41 2 12 2c1.8 0 3.42.63 4.6 1.65 1.17 1.03 1.9 2.44 1.9 4Z" fill="#292D32"/></svg>