<svg width="24" height="24" fill="none" xmlns="http://www.w3.org/2000/svg"><path opacity=".4" d="m3.989 14.658-1.52-1.52c-.62-.62-.62-1.64 0-2.26l1.52-1.52c.26-.26.47-.77.47-1.13v-2.15c0-.88.72-1.6 1.6-1.6h2.15c.36 0 .87-.21 1.13-.47l1.52-1.52c.62-.62 1.64-.62 2.26 0l1.52 1.52c.26.26.77.47 1.13.47h2.15c.88 0 1.6.72 1.6 1.6v2.15c0 .36.21.87.47 1.13l1.52 1.52c.62.62.62 1.64 0 2.26l-1.52 1.52c-.26.26-.47.77-.47 1.13v2.15c0 .88-.72 1.6-1.6 1.6h-2.15c-.36 0-.87.21-1.13.47l-1.52 1.52c-.62.62-1.64.62-2.26 0l-1.52-1.52c-.26-.26-.77-.47-1.13-.47h-2.15c-.88 0-1.6-.72-1.6-1.6v-2.15c0-.37-.21-.88-.47-1.13Z" fill="#292D32"/><path d="M14.998 16c-.56 0-1.01-.45-1.01-1s.45-1 1-1 1 .45 1 1-.44 1-.99 1ZM9.01 10C8.45 10 8 9.55 8 9s.45-1 1-1 1 .45 1 1-.44 1-.99 1ZM9.001 15.751c-.19 0-.38-.07-.53-.22a.755.755 0 0 1 0-1.06l6-6c.29-.29.77-.29 1.06 0 .29.29.29.77 0 1.06l-6 6c-.15.15-.34.22-.53.22Z" fill="#292D32"/></svg>