<svg width="24" height="24" fill="none" xmlns="http://www.w3.org/2000/svg"><path opacity=".4" d="M16.19 2H7.81C4.17 2 2 4.17 2 7.81v8.37C2 19.83 4.17 22 7.81 22h8.37c3.64 0 5.81-2.17 5.81-5.81V7.81C22 4.17 19.83 2 16.19 2Z" fill="#292D32"/><path d="m14.26 12-1.51-.53V8.08h.36c.81 0 1.47.71 1.47 1.58 0 .41.34.75.75.75s.75-.34.75-.75c0-1.7-1.33-3.08-2.97-3.08h-.36V6c0-.41-.34-.75-.75-.75s-.75.34-.75.75v.58h-.65c-1.48 0-2.69 1.25-2.69 2.78 0 1.79 1.04 2.36 1.83 2.64l1.51.53v3.38h-.36c-.81 0-1.47-.71-1.47-1.58 0-.41-.34-.75-.75-.75s-.75.34-.75.75c0 1.7 1.33 3.08 2.97 3.08h.36V18c0 .41.34.75.75.75s.75-.34.75-.75v-.58h.65c1.48 0 2.69-1.25 2.69-2.78-.01-1.8-1.05-2.37-1.83-2.64Zm-4.02-1.41c-.51-.18-.82-.35-.82-1.22 0-.71.53-1.28 1.19-1.28h.65v2.86l-1.02-.36Zm3.16 5.33h-.65v-2.86l1.01.35c.51.18.82.35.82 1.22 0 .71-.53 1.29-1.18 1.29Z" fill="#292D32"/></svg>