<svg width="24" height="24" fill="none" xmlns="http://www.w3.org/2000/svg"><path d="M5 15c-.94 0-1.81.33-2.5.88A3.97 3.97 0 0 0 1 19c0 .75.21 1.46.58 2.06A3.97 3.97 0 0 0 5 23c1.01 0 1.93-.37 2.63-1 .31-.26.58-.58.79-.94.37-.6.58-1.31.58-2.06 0-2.21-1.79-4-4-4Zm2.07 3.57-2.13 1.97c-.14.13-.33.2-.51.2-.19 0-.38-.07-.53-.22l-.99-.99a.754.754 0 0 1 0-1.06c.29-.29.77-.29 1.06 0l.48.48 1.6-1.48c.3-.28.78-.26 1.06.04s.26.78-.04 1.06Z" fill="#292D32"/><path opacity=".4" d="M19.48 12.95h2.02v-1.44c0-2.07-1.69-3.76-3.76-3.76H6.26c-2.07 0-3.76 1.69-3.76 3.76v4.37A3.999 3.999 0 0 1 9 19c0 .75-.21 1.46-.58 2.06-.21.36-.48.68-.79.94h10.11c2.07 0 3.76-1.69 3.76-3.76v-1.19h-1.9c-1.08 0-2.07-.79-2.16-1.87-.06-.63.18-1.22.6-1.63.37-.38.88-.6 1.44-.6Z" fill="#292D32"/><path d="M14.85 3.952v3.8H6.26c-2.07 0-3.76 1.69-3.76 3.76v-3.67c0-1.19.73-2.25 1.84-2.67l7.94-3c1.24-.46 2.57.45 2.57 1.78ZM22.559 13.97v2.06c0 .55-.44 1-1 1.02h-1.96c-1.08 0-2.07-.79-2.16-1.87-.06-.63.18-1.22.6-1.63.37-.38.88-.6 1.44-.6h2.08c.56.02 1 .47 1 1.02ZM14 12.75H7c-.41 0-.75-.34-.75-.75s.34-.75.75-.75h7c.41 0 .75.34.75.75s-.34.75-.75.75Z" fill="#292D32"/></svg>