<svg width="25" height="24" fill="none" xmlns="http://www.w3.org/2000/svg"><path opacity=".4" d="M19.945 12.604h1.967v-1.401a3.668 3.668 0 0 0-3.66-3.66H7.078a3.668 3.668 0 0 0-3.66 3.66v4.253a3.892 3.892 0 0 1 6.327 3.037c0 .73-.205 1.421-.565 2.005-.204.35-.467.662-.769.915h9.84a3.668 3.668 0 0 0 3.66-3.66v-1.158h-1.849c-1.051 0-2.015-.769-2.102-1.82a1.955 1.955 0 0 1 .584-1.587 1.94 1.94 0 0 1 1.401-.584Z" fill="#292D32"/><path d="M15.439 3.846v3.699H7.078a3.668 3.668 0 0 0-3.66 3.66V7.633c0-1.159.71-2.19 1.79-2.6l7.73-2.92c1.206-.447 2.5.439 2.5 1.733ZM22.942 13.598v2.005a1 1 0 0 1-.974.993h-1.907c-1.052 0-2.015-.769-2.103-1.82a1.955 1.955 0 0 1 .584-1.586 1.94 1.94 0 0 1 1.402-.585h2.024a1 1 0 0 1 .974.993ZM14.61 12.41H7.796c-.399 0-.73-.332-.73-.73 0-.4.331-.73.73-.73h6.814c.399 0 .73.33.73.73 0 .398-.331.73-.73.73ZM8.605 15.741a3.896 3.896 0 0 0-2.327-1.115 3.865 3.865 0 0 0-3.18 1.115 3.816 3.816 0 0 0-1.018 1.817 3.864 3.864 0 0 0 1.019 3.69 3.8 3.8 0 0 0 2.498 1.121c.392.035.798 0 1.19-.103a3.816 3.816 0 0 0 1.818-1.019 3.892 3.892 0 0 0 0-5.506Zm-3.47 1.294c0-.399.331-.73.73-.73.406.008.73.331.737.737l-.007.723.695-.007c.406.007.73.33.736.736a.746.746 0 0 1-.736.737l-.695-.007.007.723a.746.746 0 0 1-.737.736.754.754 0 0 1-.73-.73v-.73H4.38a.722.722 0 0 1-.517-.212.722.722 0 0 1-.213-.517c0-.399.33-.73.73-.73h.757v-.729Z" fill="#292D32"/></svg>