<svg width="24" height="24" fill="none" xmlns="http://www.w3.org/2000/svg"><path opacity=".4" d="M16.19 2H7.81C4.17 2 2 4.17 2 7.81v8.37C2 19.83 4.17 22 7.81 22h8.37c3.64 0 5.81-2.17 5.81-5.81V7.81C22 4.17 19.83 2 16.19 2Z" fill="#292D32"/><path d="M10.5 8.809H6c-.41 0-.75-.34-.75-.75s.34-.75.75-.75h4.5c.41 0 .75.34.75.75s-.34.75-.75.75ZM18 14.809h-4.5c-.41 0-.75-.34-.75-.75s.34-.75.75-.75H18c.41 0 .75.34.75.75s-.34.75-.75.75ZM18 18.559h-4.5c-.41 0-.75-.34-.75-.75s.34-.75.75-.75H18c.41 0 .75.34.75.75s-.34.75-.75.75ZM18 7.309h-1.48v-1.5c0-.41-.34-.75-.75-.75s-.75.34-.75.75v1.5H13.5c-.41 0-.75.34-.75.75s.34.75.75.75h1.52v1.5c0 .41.34.75.75.75s.75-.34.75-.75v-1.5H18c.41 0 .75-.34.75-.75s-.34-.75-.75-.75ZM9.311 15.939l1.72-1.72c.29-.29.29-.77 0-1.06a.754.754 0 0 0-1.06 0l-1.72 1.72-1.72-1.72a.754.754 0 0 0-1.06 0c-.29.29-.29.77 0 1.06l1.72 1.72-1.72 1.72c-.29.29-.29.77 0 1.06.15.15.34.22.53.22s.38-.07.53-.22l1.72-1.72 1.72 1.72c.15.15.34.22.53.22s.38-.07.53-.22c.29-.29.29-.77 0-1.06l-1.72-1.72Z" fill="#292D32"/></svg>