<svg width="24" height="24" fill="none" xmlns="http://www.w3.org/2000/svg"><path opacity=".4" d="M22 9v6c0 3.5-2 5-5 5H8.45c.35-.59.55-1.27.55-2 0-2.21-1.79-4-4-4-1.2 0-2.27.53-3 1.36V9c0-3.5 2-5 5-5h10c3 0 5 1.5 5 5Z" fill="#292D32"/><path d="M12 14.5a2.5 2.5 0 1 0 0-5 2.5 2.5 0 0 0 0 5ZM18.5 14.75c-.41 0-.75-.34-.75-.75v-4c0-.41.34-.75.75-.75s.75.34.75.75v4c0 .41-.34.75-.75.75ZM5 14c-2.21 0-4 1.79-4 4 0 .75.21 1.46.58 2.06A3.97 3.97 0 0 0 5 22c1.46 0 2.73-.78 3.42-1.94.37-.6.58-1.31.58-2.06 0-2.21-1.79-4-4-4Zm1.97 3.67-2.13 1.97c-.14.13-.33.2-.51.2-.19 0-.38-.07-.53-.22l-.99-.99a.754.754 0 0 1 0-1.06c.29-.29.77-.29 1.06 0l.48.48 1.6-1.48c.3-.28.78-.26 1.06.04s.26.78-.04 1.06Z" fill="#292D32"/></svg>