<svg width="24" height="24" fill="none" xmlns="http://www.w3.org/2000/svg"><path opacity=".4" d="M17 20.5H7c-3 0-5-1.5-5-5v-7c0-3.5 2-5 5-5h10c3 0 5 1.5 5 5v7c0 3.5-2 5-5 5Z" fill="#292D32"/><path d="M12 15a3 3 0 1 0 0-6 3 3 0 0 0 0 6ZM4.5 10.75c-.41 0-.75-.34-.75-.75V8.5c0-1.79 1.46-3.25 3.25-3.25h1.5c.41 0 .75.34.75.75s-.34.75-.75.75H7c-.96 0-1.75.79-1.75 1.75V10c0 .41-.34.75-.75.75ZM19.5 10.75c-.41 0-.75-.34-.75-.75V8.5c0-.96-.79-1.75-1.75-1.75h-1.5c-.41 0-.75-.34-.75-.75s.34-.75.75-.75H17c1.79 0 3.25 1.46 3.25 3.25V10c0 .41-.34.75-.75.75ZM8.5 18.75H7c-1.79 0-3.25-1.46-3.25-3.25V14c0-.41.34-.75.75-.75s.75.34.75.75v1.5c0 .96.79 1.75 1.75 1.75h1.5c.41 0 .75.34.75.75s-.34.75-.75.75ZM17 18.75h-1.5c-.41 0-.75-.34-.75-.75s.34-.75.75-.75H17c.96 0 1.75-.79 1.75-1.75V14c0-.41.34-.75.75-.75s.75.34.75.75v1.5c0 1.79-1.46 3.25-3.25 3.25Z" fill="#292D32"/></svg>