<svg width="24" height="24" fill="none" xmlns="http://www.w3.org/2000/svg"><path opacity=".4" d="M17 7.75c-.19 0-.38-.07-.53-.22a.754.754 0 0 1 0-1.06l2.05-2.05C16.76 2.92 14.49 2 12 2 6.48 2 2 6.48 2 12s4.48 10 10 10 10-4.48 10-10c0-2.49-.92-4.76-2.42-6.52l-2.05 2.05c-.15.15-.34.22-.53.22Z" fill="#292D32"/><path d="m13.75 11.82-1-.35V9.25h.08c.51 0 .92.45.92 1 0 .41.34.75.75.75s.75-.34.75-.75c0-1.38-1.08-2.5-2.42-2.5h-.08V7.5c0-.41-.34-.75-.75-.75s-.75.34-.75.75v.25h-.3c-1.21 0-2.2 1.02-2.2 2.28 0 1.46.85 1.93 1.5 2.16l1 .35v2.22h-.08c-.51 0-.92-.45-.92-1 0-.41-.34-.75-.75-.75s-.75.34-.75.75c0 1.38 1.08 2.5 2.42 2.5h.08v.25c0 .41.34.75.75.75s.75-.34.75-.75v-.25h.3c1.21 0 2.2-1.02 2.2-2.28 0-1.47-.85-1.94-1.5-2.16Zm-3.01-1.06c-.34-.12-.49-.19-.49-.74 0-.43.32-.78.7-.78h.3v1.69l-.51-.17Zm2.31 3.99h-.3v-1.69l.51.18c.34.12.49.19.49.74 0 .42-.32.77-.7.77ZM22.688 1.708a.782.782 0 0 0-.41-.41.717.717 0 0 0-.29-.06h-4c-.41 0-.75.34-.75.75s.34.75.75.75h2.19l-1.67 1.67c.38.33.73.68 1.06 1.06l1.67-1.67v2.2c0 .41.34.75.75.75s.75-.34.75-.75v-4c.01-.1-.01-.19-.05-.29Z" fill="#292D32"/></svg>