<svg width="24" height="24" fill="none" xmlns="http://www.w3.org/2000/svg"><path opacity=".4" d="M12 22c5.523 0 10-4.477 10-10S17.523 2 12 2 2 6.477 2 12s4.477 10 10 10Z" fill="#292D32"/><path d="M8.322 16.02c-.19 0-.38-.07-.53-.22a.754.754 0 0 1 0-1.06l6.55-6.55c.29-.29.77-.29 1.06 0 .29.29.29.77 0 1.06l-6.55 6.55c-.15.15-.34.22-.53.22ZM8.73 7.66c-.81 0-1.48.66-1.48 1.48 0 .81.66 1.48 1.48 1.48.81 0 1.48-.66 1.48-1.48a1.49 1.49 0 0 0-1.48-1.48ZM15.269 13.39c-.81 0-1.48.66-1.48 1.48 0 .81.66 1.48 1.48 1.48.81 0 1.48-.66 1.48-1.48s-.66-1.48-1.48-1.48Z" fill="#292D32"/></svg>