<svg width="24" height="24" fill="none" xmlns="http://www.w3.org/2000/svg"><path opacity=".4" d="M16.192 2h-8.37c-3.64 0-5.81 2.17-5.81 5.81v8.37c0 3.64 2.17 5.81 5.81 5.81h8.37c3.64 0 5.81-2.17 5.81-5.81V7.81c0-3.64-2.17-5.81-5.81-5.81Z" fill="#292D32"/><path d="M8.822 16.02c-.19 0-.38-.07-.53-.22a.754.754 0 0 1 0-1.06l6.55-6.55c.29-.29.77-.29 1.06 0 .29.29.29.77 0 1.06l-6.55 6.55c-.15.15-.34.22-.53.22ZM9.23 7.66c-.81 0-1.48.66-1.48 1.48 0 .81.66 1.48 1.48 1.48.81 0 1.48-.66 1.48-1.48a1.49 1.49 0 0 0-1.48-1.48ZM15.769 13.39c-.81 0-1.48.66-1.48 1.48 0 .81.66 1.48 1.48 1.48.81 0 1.48-.66 1.48-1.48s-.66-1.48-1.48-1.48Z" fill="#292D32"/></svg>