<svg width="24" height="24" fill="none" xmlns="http://www.w3.org/2000/svg"><path opacity=".4" d="M6.728 19.702c.82-.88 2.07-.81 2.79.15l1.01 1.35c.81 1.07 2.12 1.07 2.93 0l1.01-1.35c.72-.96 1.97-1.03 2.79-.15 1.78 1.9 3.23 1.27 3.23-1.39V7.052c0-4.03-.94-5.04-4.72-5.04h-7.56c-3.78 0-4.72 1.01-4.72 5.04v11.26c.01 2.66 1.47 3.28 3.24 1.39Z" fill="#292D32"/><path d="m14.839 9.99-.5.51h-.01l-3.03 3.03c-.13.13-.4.27-.59.29l-1.35.2c-.49.07-.83-.28-.76-.76l.19-1.36c.03-.19.16-.45.29-.59l3.04-3.03.5-.51c.33-.33.7-.57 1.1-.57.34 0 .71.16 1.12.57.9.9.61 1.61 0 2.22Z" fill="#292D32"/></svg>