<svg width="24" height="24" fill="none" xmlns="http://www.w3.org/2000/svg"><path opacity=".4" d="M6.728 19.702c.82-.88 2.07-.81 2.79.15l1.01 1.35c.81 1.07 2.12 1.07 2.93 0l1.01-1.35c.72-.96 1.97-1.03 2.79-.15 1.78 1.9 3.23 1.27 3.23-1.39V7.052c0-4.03-.94-5.04-4.72-5.04h-7.56c-3.78 0-4.72 1.01-4.72 5.04v11.26c.01 2.66 1.47 3.28 3.24 1.39Z" fill="#292D32"/><path d="m15.659 13.47-.74-.74c.38-.58.61-1.28.61-2.03 0-2.04-1.66-3.7-3.7-3.7s-3.7 1.66-3.7 3.7 1.66 3.7 3.7 3.7c.75 0 1.45-.23 2.03-.61l.74.74c.15.15.34.22.53.22s.38-.07.53-.22c.29-.29.29-.77 0-1.06Z" fill="#292D32"/></svg>