<svg width="24" height="24" fill="none" xmlns="http://www.w3.org/2000/svg"><path opacity=".4" d="m9.422 2.161-5.5 2.06c-1.05.39-1.91 1.64-1.91 2.76v8.1c0 .81.53 1.88 1.18 2.36l5.5 4.11c.97.73 2.56.73 3.53 0l5.5-4.11c.65-.49 1.18-1.55 1.18-2.36v-8.1c0-1.12-.86-2.37-1.91-2.76l-5.5-2.06c-.57-.21-1.5-.21-2.07 0Z" fill="#292D32"/><path d="M19.26 6.762h-6.85c-.2 0-.39.01-.57.01-1.72.1-2.18.73-2.18 2.69v.39c0 .414.336.75.75.75h10.84a.75.75 0 0 0 .75-.75v-.39c0-2.16-.55-2.7-2.74-2.7ZM10.422 11.7a.75.75 0 0 0-.75.75v2.09c0 2.16.55 2.71 2.74 2.71h6.85c2.15 0 2.72-.52 2.74-2.59v-2.21a.75.75 0 0 0-.75-.75h-10.83Zm2.85 3.77h-1.25c-.3 0-.54-.24-.54-.54 0-.3.24-.54.54-.54h1.25c.3 0 .54.24.54.54 0 .3-.24.54-.54.54Zm4.05 0h-2.49c-.3 0-.54-.24-.54-.54 0-.3.24-.54.54-.54h2.49c.3 0 .54.24.54.54.01.3-.24.54-.54.54Z" fill="#292D32"/></svg>