<svg width="24" height="24" fill="none" xmlns="http://www.w3.org/2000/svg"><path opacity=".4" d="M20.841 13.17c.39 0 .7-.32.7-.72v-.88c0-3.93-1.2-5.12-5.12-5.12h-6.3v2.43c.39 0 .71.32.71.71v2.68c0 .39-.32.71-.71.71v2.51c.39 0 .71.32.71.71v2.68c0 .39-.32.71-.71.71V22h6.3c3.92 0 5.12-1.2 5.12-5.12 0-.39-.31-.71-.7-.71a1.5 1.5 0 1 1 0-3Z" fill="#292D32"/><path d="M7.569 6.46c.01 0 .01 0 0 0h9.04c-.01-.02-.01-.03-.01-.05a1.2 1.2 0 0 1 .37-.95c.13-.13.21-.31.21-.5s-.08-.37-.21-.5l-.55-.56c-.98-.99-2.06-1.9-3.32-1.9-1.25 0-2.34.91-3.32 1.9l-2.56 2.56h.35ZM9.41 9.59v2.68c0 .39.32.71.71.71v2.51c-.39 0-.71.32-.71.71v2.68c0 .39.32.71.71.71V22H7.58c-3.92 0-5.12-1.2-5.12-5.12v-.43c0-.4.31-.71.7-.71.84 0 1.51-.68 1.51-1.51S4 12.72 3.16 12.72c-.39 0-.7-.31-.7-.71v-.43c0-3.93 1.2-5.12 5.12-5.12h2.53v2.43c-.38 0-.7.32-.7.7Z" fill="#292D32"/></svg>