<svg width="24" height="24" fill="none" xmlns="http://www.w3.org/2000/svg"><path opacity=".4" d="M21.3 10.84c.39 0 .7-.31.7-.7v-.93c0-4.1-1.25-5.35-5.35-5.35h-9.3C3.25 3.86 2 5.11 2 9.21v.47c0 .39.31.7.7.7.9 0 1.63.73 1.63 1.63 0 .9-.73 1.62-1.63 1.62-.39 0-.7.31-.7.7v.47c0 4.1 1.25 5.35 5.35 5.35h9.3c4.1 0 5.35-1.25 5.35-5.35 0-.39-.31-.7-.7-.7a1.63 1.63 0 0 1 0-3.26Z" fill="#292D32"/><path d="M14.998 15.879c-.56 0-1.01-.45-1.01-1s.45-1 1-1 1 .45 1 1-.43 1-.99 1ZM8.998 10.879c-.56 0-1.01-.45-1.01-1s.45-1 1-1 1 .45 1 1-.43 1-.99 1ZM8.63 16.43c-.19 0-.38-.07-.53-.22a.754.754 0 0 1 0-1.06l6.73-6.73c.29-.29.77-.29 1.06 0 .29.29.29.77 0 1.06l-6.73 6.73c-.14.15-.34.22-.53.22Z" fill="#292D32"/></svg>