<svg width="24" height="24" fill="none" xmlns="http://www.w3.org/2000/svg"><path opacity=".4" d="M22 9.21v5.58c0 4.1-1.25 5.35-5.35 5.35H9.91v-3.02c0-.38-.32-.7-.7-.7V7.58c.38 0 .7-.32.7-.7V3.86h6.74c4.1 0 5.35 1.25 5.35 5.35Z" fill="#292D32"/><path d="M18.471 11.898c.17-.16.23-.41.16-.63a.59.59 0 0 0-.5-.42l-1.28-.19a.155.155 0 0 1-.11-.08l-.57-1.16a.61.61 0 0 0-.55-.34c-.24 0-.45.13-.56.34l-.57 1.16a.13.13 0 0 1-.12.08l-1.28.19c-.23.03-.43.2-.5.42a.61.61 0 0 0 .16.63l.93.9c.04.03.05.09.04.14l-.22 1.27c-.04.23.05.47.25.6a.6.6 0 0 0 .36.12c.1 0 .2-.02.29-.07l1.15-.6c.04-.02.1-.02.14 0l1.15.6a.625.625 0 0 0 .9-.66l-.22-1.27a.18.18 0 0 1 .04-.14l.91-.89ZM9.209 7.58v8.84c-.38 0-.7.32-.7.7v3.02h-1.16c-3.95 0-5.25-1.18-5.34-4.86-.01-.19.07-.37.2-.5.13-.14.32-.21.5-.21 1.4 0 2.55-1.15 2.55-2.56 0-1.41-1.15-2.57-2.55-2.57-.2 0-.37-.07-.5-.21a.679.679 0 0 1-.2-.5c.09-3.69 1.39-4.87 5.34-4.87h1.16v3.02c0 .39.32.7.7.7Z" fill="#292D32"/></svg>