<svg width="24" height="24" fill="none" xmlns="http://www.w3.org/2000/svg"><path d="M17.751 7.05c-.24-.04-.49-.05-.75-.05h-10c-.28 0-.55.02-.81.06.14-.28.34-.54.58-.78l3.25-3.26a3.525 3.525 0 0 1 4.96 0l1.75 1.77c.64.63.98 1.43 1.02 2.26Z" fill="#292D32"/><path opacity=".4" d="M2 16.36V12c0-2.72 1.64-4.62 4.19-4.94.26-.04.53-.06.81-.06h10c.26 0 .51.01.75.05C20.33 7.35 22 9.26 22 12v5c0 2.76-2.24 5-5 5H7c-2.76 0-5-2.24-5-5v-.64Z" fill="#292D32"/><path d="M22 12.5h-3c-1.1 0-2 .9-2 2s.9 2 2 2h3M1.229 21.682l.76-.76c-.4-.6-.63-1.32-.63-2.09a3.82 3.82 0 1 1 3.82 3.82c-.77 0-1.49-.23-2.09-.63l-.76.76a.78.78 0 0 1-.55.23c-.2 0-.4-.08-.55-.23a.767.767 0 0 1 0-1.1Z" fill="#292D32"/></svg>