<svg width="24" height="24" fill="none" xmlns="http://www.w3.org/2000/svg"><path d="M17.751 7.05c-.24-.04-.49-.05-.75-.05h-10c-.28 0-.55.02-.81.06.14-.28.34-.54.58-.78l3.25-3.26a3.525 3.525 0 0 1 4.96 0l1.75 1.77c.64.63.98 1.43 1.02 2.26ZM5 15c-2.21 0-4 1.79-4 4 0 .75.21 1.46.58 2.06A3.97 3.97 0 0 0 5 23c1.46 0 2.73-.78 3.42-1.94.37-.6.58-1.31.58-2.06 0-2.21-1.79-4-4-4Zm1.49 4.73h-.74v.78c0 .41-.34.75-.75.75s-.75-.34-.75-.75v-.78h-.74c-.41 0-.75-.34-.75-.75s.34-.75.75-.75h.74v-.71c0-.41.34-.75.75-.75s.75.34.75.75v.71h.74a.749.749 0 1 1 0 1.5Z" fill="#292D32"/><path opacity=".4" d="M22 12v5c0 3-2 5-5 5H7.63c.31-.26.58-.58.79-.94.37-.6.58-1.31.58-2.06 0-2.21-1.79-4-4-4-1.2 0-2.27.53-3 1.36V12c0-2.72 1.64-4.62 4.19-4.94.26-.04.53-.06.81-.06h10c.26 0 .51.01.75.05C20.33 7.35 22 9.26 22 12Z" fill="#292D32"/><path d="M22 12.5h-3c-1.1 0-2 .9-2 2s.9 2 2 2h3" fill="#292D32"/></svg>