<svg width="24" height="24" fill="none" xmlns="http://www.w3.org/2000/svg"><path opacity=".4" d="M6 10h3M6.762 22.002h10.48c2.76 0 3.86-1.69 3.99-3.75l.52-8.26c.06-.93-.23-1.8-.74-2.48" stroke="#292D32" stroke-width="1.5" stroke-linecap="round" stroke-linejoin="round"/><path d="M18 6c-.61 0-1.17-.35-1.45-.89l-.72-1.45C15.37 2.75 14.17 2 13.15 2h-2.29c-1.03 0-2.23.75-2.69 1.66l-.72 1.45C7.17 5.65 6.61 6 6 6 3.83 6 2.11 7.83 2.25 9.99l.52 8.26c.05.82.26 1.59.67 2.21" stroke="#292D32" stroke-width="1.5" stroke-linecap="round" stroke-linejoin="round"/><path opacity=".4" d="M10 17.31c.55.43 1.25.69 2 .69 1.79 0 3.25-1.46 3.25-3.25 0-.64-.18-1.23-.5-1.73" stroke="#292D32" stroke-width="1.5" stroke-linecap="round" stroke-linejoin="round"/><path d="M22 2 2 22" stroke="#292D32" stroke-width="1.5" stroke-linecap="round" stroke-linejoin="round"/></svg>