<svg width="24" height="24" fill="none" xmlns="http://www.w3.org/2000/svg"><path d="M9 22h6c5 0 7-2 7-7V9c0-5-2-7-7-7H9C4 2 2 4 2 9v6c0 5 2 7 7 7Z" stroke="#292D32" stroke-width="1.5" stroke-linecap="round" stroke-linejoin="round"/><g opacity=".4" stroke="#292D32" stroke-width="1.5" stroke-linecap="round" stroke-linejoin="round"><path d="M8.42 10.899a1.92 1.92 0 1 0 0-3.84 1.92 1.92 0 0 0 0 3.84ZM8.42 16.938a1.92 1.92 0 1 0 0-3.84 1.92 1.92 0 0 0 0 3.84ZM17.5 8.7l-7.34 5.49M17.5 15.28l-7.34-5.49"/></g></svg>