<svg width="24" height="24" fill="none" xmlns="http://www.w3.org/2000/svg"><path d="M3.37 20.1C2.43 18.97 2 17.31 2 15V9c0-5 2-7 7-7h6c2.19 0 3.8.38 4.92 1.23" stroke="#292D32" stroke-width="1.5" stroke-linecap="round" stroke-linejoin="round"/><path opacity=".4" d="M8 10a2 2 0 1 0 0-4 2 2 0 0 0 0 4Z" stroke="#292D32" stroke-width="1.5" stroke-linecap="round" stroke-linejoin="round"/><path d="M22 2 2 22" stroke="#292D32" stroke-width="1.5" stroke-linecap="round" stroke-linejoin="round"/><g opacity=".4" stroke="#292D32" stroke-width="1.5" stroke-linecap="round" stroke-linejoin="round"><path d="M21.97 7.992c.02.32.03.66.03 1.01v6c0 5-2 7-7 7H9c-.74 0-1.42-.04-2.04-.14"/><path d="M11.43 16.453c.3.3.79.3 1.09 0l5.03-5.04c.78-.78 2.04-.78 2.82 0l1.63 1.64"/></g></svg>