<svg width="24" height="24" fill="none" xmlns="http://www.w3.org/2000/svg"><path d="M16 6.3V6c0-2.21-1.79-4-4-4S8 3.79 8 6v5M4.352 9.648v1.7c0 1.06.21 2.06.6 2.98M20.07 2.84 3.93 18.99M11 3v3" stroke="#292D32" stroke-width="1.5" stroke-linecap="round" stroke-linejoin="round"/><g opacity=".4" stroke="#292D32" stroke-width="1.5" stroke-linecap="round" stroke-linejoin="round"><path d="M9.04 14.19c.73.81 1.79 1.31 2.96 1.31 2.21 0 4-1.79 4-4V11"/><path d="M6.781 16.948a7.656 7.656 0 0 0 12.87-5.6v-1.7M12 19v3"/></g></svg>