<svg width="24" height="24" fill="none" xmlns="http://www.w3.org/2000/svg"><path d="M2 3h20M2 9h9M2 15h6M2 21h4" stroke="#292D32" stroke-width="1.5" stroke-miterlimit="10" stroke-linecap="round" stroke-linejoin="round"/><g opacity=".4" stroke="#292D32" stroke-width="1.5" stroke-linecap="round" stroke-linejoin="round"><path d="M11.84 22a2.18 2.18 0 1 0 0-4.36 2.18 2.18 0 0 0 0 4.36Z"/><path d="M22 18.369v-8.51c0-1.81-1.14-2.06-2.29-1.75l-4.35 1.19c-.79.22-1.34.84-1.34 1.75v8.77"/><path d="M19.82 20.547a2.18 2.18 0 1 0 0-4.36 2.18 2.18 0 0 0 0 4.36ZM14.02 13.598l7.98-2.18"/></g></svg>