<svg width="24" height="24" fill="none" xmlns="http://www.w3.org/2000/svg"><path d="M17 22H7c-3 0-5-1.5-5-5v-5c0-3.5 2-5 5-5h10c3 0 5 1.5 5 5v5c0 3.5-2 5-5 5ZM6 4.5h12M9 2h6" stroke="#292D32" stroke-width="1.5" stroke-miterlimit="10" stroke-linecap="round" stroke-linejoin="round"/><g opacity=".4" stroke="#292D32" stroke-width="1.5" stroke-linecap="round" stroke-linejoin="round"><path d="M8.89 19.111a1.37 1.37 0 1 0 0-2.74 1.37 1.37 0 0 0 0 2.74Z"/><path d="M15.278 16.832v-5.35c0-1.14-.71-1.3-1.44-1.1l-2.74.75c-.5.14-.84.53-.84 1.1v5.51"/><path d="M13.91 18.2a1.37 1.37 0 1 0 0-2.739 1.37 1.37 0 0 0 0 2.74ZM10.258 13.83l5.02-1.37"/></g></svg>