<svg width="24" height="24" fill="none" xmlns="http://www.w3.org/2000/svg"><path d="M22 15V9c0-5-2-7-7-7H9C4 2 2 4 2 9v6c0 5 2 7 7 7h6c5 0 7-2 7-7Z" stroke="#292D32" stroke-width="1.5" stroke-linecap="round" stroke-linejoin="round"/><path opacity=".4" d="M7 2.5v19" stroke="#292D32" stroke-width="1.5" stroke-linecap="round" stroke-linejoin="round"/><g opacity=".4" stroke="#292D32" stroke-width="1.5" stroke-linecap="round" stroke-linejoin="round"><path d="M11.47 16.8a1.49 1.49 0 1 0 0-2.98 1.49 1.49 0 0 0 0 2.98Z"/><path d="M18.43 14.31V8.48c0-1.24-.78-1.41-1.57-1.2l-2.98.81c-.54.15-.92.58-.92 1.2v6.01"/><path d="M16.931 15.8a1.49 1.49 0 1 0 0-2.98 1.49 1.49 0 0 0 0 2.98ZM12.96 11.04l5.47-1.49"/></g></svg>