<svg width="24" height="24" fill="none" xmlns="http://www.w3.org/2000/svg"><path d="M22 9v6c0 .22 0 .44-.02.65A4.46 4.46 0 0 0 18.5 14c-1.06 0-2.04.37-2.81.99A4.448 4.448 0 0 0 14 18.5a4.5 4.5 0 0 0 1.66 3.48c-.21.02-.43.02-.66.02H9c-5 0-7-2-7-7V9c0-5 2-7 7-7h6c5 0 7 2 7 7Z" stroke="#292D32" stroke-width="1.5" stroke-linecap="round" stroke-linejoin="round"/><g opacity=".4" stroke="#292D32" stroke-width="1.5" stroke-linecap="round" stroke-linejoin="round"><path d="M2.52 7.11h18.96M8.52 2.11v4.86M15.48 2.11v4.41"/></g><path d="M23 18.5a4.5 4.5 0 0 1-1.54 3.38c-.79.7-1.82 1.12-2.96 1.12-1.07 0-2.06-.38-2.83-1.02h-.01A4.5 4.5 0 0 1 14 18.5c0-1.42.65-2.69 1.69-3.51A4.47 4.47 0 0 1 18.5 14c1.41 0 2.66.64 3.48 1.65.64.77 1.02 1.77 1.02 2.85Z" stroke="#292D32" stroke-width="1.5" stroke-miterlimit="10" stroke-linecap="round" stroke-linejoin="round"/><path opacity=".4" d="m16.75 18.5 1.11 1.11 2.4-2.22" stroke="#292D32" stroke-width="1.5" stroke-linecap="round" stroke-linejoin="round"/></svg>