<svg width="24" height="24" fill="none" xmlns="http://www.w3.org/2000/svg"><path d="M12.53 20.418H6.21c-3.16 0-4.21-2.1-4.21-4.21v-8.42c0-3.16 1.05-4.21 4.21-4.21h6.32c3.16 0 4.21 1.05 4.21 4.21v8.42c0 3.16-1.06 4.21-4.21 4.21Z" stroke="#292D32" stroke-width="1.5" stroke-linecap="round" stroke-linejoin="round"/><path opacity=".4" d="m19.518 17.1-2.78-1.95V8.84l2.78-1.95c1.36-.95 2.48-.37 2.48 1.3v7.62c0 1.67-1.12 2.25-2.48 1.29ZM11.5 11a1.5 1.5 0 1 0 0-3 1.5 1.5 0 0 0 0 3Z" stroke="#292D32" stroke-width="1.5" stroke-linecap="round" stroke-linejoin="round"/></svg>