<svg width="22" height="22" fill="none" xmlns="http://www.w3.org/2000/svg"><path d="M14 7.372v-.96c0-2.98-2.07-4.12-4.59-2.54l-2.92 1.83c-.32.19-.69.3-1.06.3H4c-2 0-3 1-3 3v4c0 2 1 3 3 3h2" stroke="#292D32" stroke-width="1.5" stroke-linecap="round" stroke-linejoin="round"/><path opacity=".4" d="M9.41 18.13c2.52 1.58 4.59.43 4.59-2.54v-3.64M17.81 8.422c.9 2.15.63 4.66-.81 6.58M20.148 6.8a10.82 10.82 0 0 1-1.32 10.7" stroke="#292D32" stroke-width="1.5" stroke-linecap="round" stroke-linejoin="round"/><path d="M21 1 1 21" stroke="#292D32" stroke-width="1.5" stroke-linecap="round" stroke-linejoin="round"/></svg>