<svg width="24" height="24" fill="none" xmlns="http://www.w3.org/2000/svg"><path d="M16.19 2H7.81C4.17 2 2 4.17 2 7.81v8.37C2 19.83 4.17 22 7.81 22h8.37c3.64 0 5.81-2.17 5.81-5.81V7.81C22 4.17 19.83 2 16.19 2ZM11.5 17.25c0 .36-.36.6-.69.46-1.21-.52-2.79-1-3.89-1.14l-.19-.02c-.61-.08-1.11-.65-1.11-1.27v-7.7c0-.77.62-1.34 1.38-1.28 1.25.1 3.1.7 4.26 1.36.16.09.24.26.24.43v9.16Zm6.88-1.98c0 .62-.5 1.19-1.11 1.27l-.21.02c-1.09.15-2.66.62-3.87 1.13-.33.14-.69-.1-.69-.46V8.08a.5.5 0 0 1 .25-.44c1.16-.65 2.97-1.23 4.2-1.34h.04c.77 0 1.39.62 1.39 1.39v7.58Z" fill="#292D32"/></svg>