<svg width="24" height="24" fill="none" xmlns="http://www.w3.org/2000/svg"><path d="M22 5.11v11.36c0 1.45-1.04 2.06-2.31 1.36l-1.93-1.08a.509.509 0 0 1-.26-.44V8.99c0-2.54-2.07-4.61-4.61-4.61H8.82c-.37 0-.63-.39-.46-.71C8.88 2.68 9.92 2 11.11 2h7.78C20.6 2 22 3.4 22 5.11Z" fill="#292D32"/><path d="M12.89 5.879H5.11A3.12 3.12 0 0 0 2 8.989v11.36c0 1.45 1.04 2.06 2.31 1.36l3.93-2.19c.42-.23 1.1-.23 1.52 0l3.93 2.19c1.27.7 2.31.09 2.31-1.36V8.989c0-1.71-1.4-3.11-3.11-3.11ZM11 12.749H9.75v1.25c0 .41-.34.75-.75.75s-.75-.34-.75-.75v-1.25H7c-.41 0-.75-.34-.75-.75s.34-.75.75-.75h1.25v-1.25c0-.41.34-.75.75-.75s.75.34.75.75v1.25H11c.41 0 .75.34.75.75s-.34.75-.75.75Z" fill="#292D32"/></svg>