<svg width="24" height="24" fill="none" xmlns="http://www.w3.org/2000/svg"><path d="M22 5.11v11.36c0 1.45-1.04 2.06-2.31 1.36l-1.93-1.08a.509.509 0 0 1-.26-.44V8.99c0-2.54-2.07-4.61-4.61-4.61H8.82c-.37 0-.63-.39-.46-.71C8.88 2.68 9.92 2 11.11 2h7.78C20.6 2 22 3.4 22 5.11Z" fill="#292D32"/><path d="M12.89 5.879H5.11A3.12 3.12 0 0 0 2 8.989v11.36c0 1.45 1.04 2.06 2.31 1.36l3.93-2.19c.42-.23 1.1-.23 1.52 0l3.93 2.19c1.27.7 2.31.09 2.31-1.36V8.989c0-1.71-1.4-3.11-3.11-3.11Zm-1.95 7c.29.29.29.77 0 1.06-.15.15-.34.22-.53.22s-.38-.07-.53-.22l-.88-.88-.88.88c-.15.15-.34.22-.53.22s-.38-.07-.53-.22a.754.754 0 0 1 0-1.06l.88-.88-.88-.88a.754.754 0 0 1 0-1.06c.29-.29.77-.29 1.06 0l.88.88.88-.88c.29-.29.77-.29 1.06 0 .29.29.29.77 0 1.06l-.88.88.88.88Z" fill="#292D32"/></svg>