<svg xmlns="http://www.w3.org/2000/svg" width="24" height="24" fill="none" viewBox="0 0 24 24">
  <path fill="#292D32" d="M16.19 2H7.82C4.17 2 2 4.17 2 7.81v8.37c0 3.64 2.17 5.81 5.81 5.81h8.37c3.64 0 5.81-2.17 5.81-5.81V7.81C22 4.17 19.83 2 16.19 2z" opacity=".4"/>
  <path fill="#292D32" d="M10.18 6.1c-.41 0-.75.34-.75.75v8.5l-1.76-1.76a.754.754 0 00-1.06 0c-.29.29-.29.77 0 1.06l3.04 3.04a.776.776 0 00.53.22c.1 0 .19-.02.29-.06.18-.08.33-.22.41-.41.04-.09.06-.19.06-.29V6.85a.758.758 0 00-.76-.75zM17.39 9.36l-3.04-3.04a.776.776 0 00-.24-.16.707.707 0 00-.57 0c-.18.08-.33.22-.41.41-.04.09-.06.19-.06.29v10.31c0 .41.34.75.75.75s.75-.34.75-.75v-8.5l1.76 1.76c.15.15.34.22.53.22s.38-.07.53-.22c.29-.31.29-.78 0-1.07z"/>
</svg>
