<svg xmlns="http://www.w3.org/2000/svg" width="24" height="24" fill="none" viewBox="0 0 24 24">
  <path fill="#292D32" d="M12 22c5.523 0 10-4.477 10-10S17.523 2 12 2 2 6.477 2 12s4.477 10 10 10z" opacity=".4"/>
  <path fill="#292D32" d="M17.85 13.53a.783.783 0 00-.41-.41.717.717 0 00-.29-.06H6.84c-.41 0-.75.34-.75.75s.34.75.75.75h8.5l-1.76 1.76c-.29.29-.29.77 0 1.06.15.15.34.22.53.22s.38-.07.53-.22l3.04-3.04c.07-.07.12-.15.16-.24a.75.75 0 00.01-.57zM17.15 9.43h-8.5l1.76-1.76c.29-.29.29-.77 0-1.06a.755.755 0 00-1.06 0L6.31 9.65c-.07.07-.12.15-.16.24-.08.18-.08.39 0 .57.08.18.22.33.41.41.09.04.19.06.29.06h10.31c.41 0 .75-.34.75-.75s-.34-.75-.76-.75z"/>
</svg>
