<svg xmlns="http://www.w3.org/2000/svg" width="24" height="24" fill="none" viewBox="0 0 24 24">
  <path fill="#292D32" d="M12 22c5.523 0 10-4.477 10-10S17.523 2 12 2 2 6.477 2 12s4.477 10 10 10z" opacity=".4"/>
  <path fill="#292D32" d="M17.39 9.26l-3.04-3.04a.776.776 0 00-.24-.16.707.707 0 00-.57 0c-.18.08-.33.22-.41.41-.04.09-.06.19-.06.29v10.31c0 .41.34.75.75.75s.75-.34.75-.75v-8.5l1.76 1.76c.15.15.34.22.53.22s.38-.07.53-.22c.29-.31.29-.78 0-1.07zM10.93 6.75c0-.41-.34-.75-.75-.75s-.75.34-.75.75v8.5l-1.76-1.76a.755.755 0 00-1.06 0c-.29.29-.29.77 0 1.06l3.04 3.04a.776.776 0 00.53.22c.1 0 .19-.02.29-.06.18-.08.33-.22.41-.41.04-.09.06-.19.06-.29V6.75h-.01z"/>
</svg>
