<svg xmlns="http://www.w3.org/2000/svg" width="24" height="24" fill="none" viewBox="0 0 24 24">
  <path fill="#292D32" d="M7.81 2h8.37C19.83 2 22 4.17 22 7.81v8.37c0 3.64-2.17 5.81-5.81 5.81H7.81C4.17 22 2 19.83 2 16.19V7.81C2 4.17 4.17 2 7.81 2z" opacity=".4"/>
  <path fill="#292D32" d="M5.47 11.47l4.29-4.29c.29-.29.77-.29 1.06 0 .29.29.29.77 0 1.06l-3.01 3.01H18c.41 0 .75.34.75.75s-.34.75-.75.75H7.81l3.01 3.01c.29.29.29.77 0 1.06-.15.15-.34.22-.53.22s-.38-.07-.53-.22l-4.29-4.29a.75.75 0 010-1.06z"/>
</svg>
