<svg xmlns="http://www.w3.org/2000/svg" width="24" height="24" fill="none" viewBox="0 0 24 24">
  <path fill="#292D32" d="M22 7.81v8.37c0 3.64-2.17 5.81-5.81 5.81H7.81C4.17 22 2 19.83 2 16.19V7.81C2 4.17 4.17 2 7.81 2h8.37C19.83 2 22 4.17 22 7.81z" opacity=".4"/>
  <path fill="#292D32" d="M12.53 5.47l4.29 4.29c.29.29.29.77 0 1.06-.29.29-.77.29-1.06 0l-3.01-3.01V18c0 .41-.34.75-.75.75s-.75-.34-.75-.75V7.81l-3.01 3.01c-.29.29-.77.29-1.06 0a.742.742 0 01-.22-.53c0-.19.08-.39.22-.53l4.29-4.29a.75.75 0 011.06 0z"/>
</svg>
