<svg xmlns="http://www.w3.org/2000/svg" width="24" height="24" fill="none" viewBox="0 0 24 24">
  <path fill="#292D32" d="M2 16.19V7.81C2 4.17 4.17 2 7.81 2h8.37C19.83 2 22 4.17 22 7.81v8.37c0 3.64-2.17 5.81-5.81 5.81H7.81C4.17 22 2 19.83 2 16.19z" opacity=".4"/>
  <path fill="#292D32" d="M11.47 18.53l-4.29-4.29a.754.754 0 010-1.06c.29-.29.77-.29 1.06 0l3.01 3.01V6c0-.41.34-.75.75-.75s.75.34.75.75v10.19l3.01-3.01c.29-.29.77-.29 1.06 0 .15.15.22.34.22.53s-.07.38-.22.53l-4.29 4.29a.75.75 0 01-1.06 0z"/>
</svg>
