<svg xmlns="http://www.w3.org/2000/svg" width="24" height="24" fill="none" viewBox="0 0 24 24">
  <path fill="#292D32" d="M7.81 2h8.37C19.83 2 22 4.17 22 7.81v8.37c0 3.64-2.17 5.81-5.81 5.81H7.81C4.17 22 2 19.83 2 16.19V7.81C2 4.17 4.17 2 7.81 2z" opacity=".4"/>
  <path fill="#292D32" d="M13.92 8.98H8.77l.33-.33c.29-.29.29-.77 0-1.06a.754.754 0 00-1.06 0L6.47 9.16c-.29.29-.29.77 0 1.06l1.57 1.57c.15.15.34.22.53.22s.38-.07.53-.22c.29-.29.29-.77 0-1.06l-.26-.26h5.08c1.28 0 2.33 1.04 2.33 2.33s-1.04 2.33-2.33 2.33H9c-.41 0-.75.34-.75.75s.34.75.75.75h4.92c2.11 0 3.83-1.72 3.83-3.83 0-2.11-1.72-3.82-3.83-3.82z"/>
</svg>
