<svg xmlns="http://www.w3.org/2000/svg" width="24" height="24" fill="none" viewBox="0 0 24 24">
  <path fill="#292D32" d="M22.03 12.03a9.984 9.984 0 01-4.7 8.48 9.948 9.948 0 01-5.3 1.52c-5.52 0-10-4.48-10-10a9.984 9.984 0 014.7-8.48 9.948 9.948 0 015.3-1.52c5.52 0 10 4.48 10 10z" opacity=".4"/>
  <path fill="#292D32" d="M15.1 7.68l-.01 4.55c0 .31-.19.58-.47.69-.09.04-.19.06-.28.06a.75.75 0 01-.53-.22l-8.19-8.2a1.06 1.06 0 01-.1-.12c.38-.32.78-.62 1.21-.89l6.86 6.87.01-2.74a.749.749 0 111.5 0zM18.54 19.62c-.38.32-.78.62-1.21.89l-6.86-6.87-.01 2.74a.749.749 0 11-1.5 0l.01-4.55c0-.31.19-.58.47-.69.27-.12.6-.06.81.16l8.19 8.2c.04.04.07.08.1.12z"/>
</svg>
