<svg xmlns="http://www.w3.org/2000/svg" width="24" height="24" fill="none" viewBox="0 0 24 24">
  <path fill="#292D32" d="M16.19 2H7.82C4.18 2 2.01 4.17 2.01 7.81v8.37c0 3.64 2.17 5.81 5.81 5.81h8.37c3.64 0 5.81-2.17 5.81-5.81V7.81C22 4.17 19.83 2 16.19 2z" opacity=".4"/>
  <path fill="#292D32" d="M13.021 12.59h-2.43c-.41 0-.75.34-.75.75s.34.75.75.75h4.24c.1 0 .19-.02.29-.06.18-.08.33-.22.41-.41.04-.09.06-.19.06-.29V9.1c0-.41-.34-.75-.75-.75s-.75.34-.75.75v2.43l-4.38-4.38a.755.755 0 00-1.06 0c-.29.29-.29.77 0 1.06l4.37 4.38zM18.71 16.28a.749.749 0 00-.95-.47 18.334 18.334 0 01-11.53 0 .753.753 0 00-.95.47c-.13.39.08.82.47.95 2.01.67 4.12 1.01 6.24 1.01s4.23-.34 6.24-1.01c.4-.14.61-.56.48-.95z"/>
</svg>
