<svg xmlns="http://www.w3.org/2000/svg" width="24" height="24" fill="none" viewBox="0 0 24 24">
  <path fill="#292D32" d="M16.19 2H7.82C4.17 2 2 4.17 2 7.81v8.37c0 3.64 2.17 5.81 5.81 5.81h8.37c3.64 0 5.81-2.17 5.81-5.81V7.81C22 4.17 19.83 2 16.19 2z" opacity=".4"/>
  <path fill="#292D32" d="M12 6.51c-.14 0-.29.02-.43.03l.28-.32c.27-.31.24-.79-.07-1.06a.756.756 0 00-1.06.07L9.05 7.14c-.01.01-.01.02-.02.03-.01.01-.02.01-.02.02-.02.03-.03.07-.05.11-.02.05-.05.09-.06.14-.01.05-.01.09-.02.14 0 .05-.01.09-.01.14 0 .05.02.09.04.14.01.05.03.09.05.13.02.04.06.08.09.12.03.03.04.07.07.09.01.01.02.01.03.02.01.01.01.02.02.02l1.94 1.42c.13.1.29.14.44.14.23 0 .46-.11.61-.31.24-.33.17-.8-.16-1.05l-.56-.41c.18-.02.37-.04.56-.04a4.26 4.26 0 014.25 4.25A4.26 4.26 0 0112 16.49a4.26 4.26 0 01-4.25-4.25c0-.85.25-1.66.71-2.36.23-.34.14-.81-.21-1.04a.746.746 0 00-1.04.21c-.63.95-.97 2.05-.97 3.19 0 3.17 2.58 5.75 5.75 5.75s5.75-2.58 5.75-5.75S15.17 6.51 12 6.51z"/>
</svg>
