<svg xmlns="http://www.w3.org/2000/svg" width="24" height="24" fill="none" viewBox="0 0 24 24">
  <path fill="#292D32" d="M12 22c5.523 0 10-4.477 10-10S17.523 2 12 2 2 6.477 2 12s4.477 10 10 10z" opacity=".4"/>
  <path fill="#292D32" d="M16.759 11.93a.741.741 0 00-.85.64c-.12.87-.51 1.65-1.11 2.25-1.38 1.38-3.52 1.52-5.07.45h.75c.41 0 .75-.34.75-.75s-.34-.75-.75-.75h-2.67c-.41 0-.75.34-.75.75v2.67c0 .41.34.75.75.75s.75-.34.75-.75v-.94c1 .81 2.21 1.24 3.43 1.24 1.4 0 2.8-.53 3.87-1.6.83-.83 1.36-1.9 1.53-3.1a.734.734 0 00-.63-.86zM7.34 12.08c.37 0 .69-.27.74-.64.12-.87.51-1.65 1.11-2.25 1.38-1.38 3.52-1.52 5.07-.45h-.75c-.41 0-.75.34-.75.75s.34.75.75.75h2.67c.41 0 .75-.34.75-.75V6.82c0-.41-.34-.75-.75-.75s-.75.34-.75.75v.94c-2.15-1.74-5.3-1.63-7.29.36-.83.83-1.36 1.9-1.53 3.1-.06.41.23.79.64.85.02.01.06.01.09.01z"/>
</svg>
