<svg xmlns="http://www.w3.org/2000/svg" width="24" height="24" fill="none" viewBox="0 0 24 24">
  <path fill="#292D32" d="M16.19 2H7.82C4.17 2 2 4.17 2 7.81v8.37c0 3.64 2.17 5.81 5.81 5.81h8.37c3.64 0 5.81-2.17 5.81-5.81V7.81C22 4.17 19.83 2 16.19 2z" opacity=".4"/>
  <path fill="#292D32" d="M16.78 9.07a.746.746 0 00-1.04-.21c-.34.23-.44.7-.21 1.04a4.26 4.26 0 01-3.54 6.61 4.26 4.26 0 01-4.25-4.25 4.26 4.26 0 014.25-4.25c.19 0 .37.02.56.04l-.55.41a.75.75 0 00-.16 1.05c.15.2.38.31.61.31.15 0 .31-.05.44-.14l1.94-1.42c.01-.01.01-.02.02-.02.01-.01.02-.01.03-.02.03-.03.05-.06.07-.09.03-.04.07-.07.09-.12.02-.04.03-.09.05-.13.01-.05.03-.09.04-.14.01-.05 0-.09-.01-.14 0-.05 0-.09-.02-.14-.01-.05-.04-.09-.06-.14-.02-.03-.02-.07-.05-.11-.01-.01-.02-.01-.02-.02-.01-.01-.01-.02-.02-.03l-1.67-1.91a.747.747 0 00-1.06-.07c-.31.27-.34.75-.07 1.06l.28.32c-.14-.01-.28-.03-.43-.03-3.17 0-5.75 2.58-5.75 5.75s2.58 5.75 5.75 5.75 5.75-2.58 5.75-5.75c0-1.16-.33-2.26-.97-3.21z"/>
</svg>
