<svg xmlns="http://www.w3.org/2000/svg" width="24" height="24" fill="none" viewBox="0 0 24 24">
  <path fill="#292D32" d="M12 22c5.523 0 10-4.477 10-10S17.523 2 12 2 2 6.477 2 12s4.477 10 10 10z" opacity=".4"/>
  <path fill="#292D32" d="M14.9 7.59H9.31l.41-.41c.29-.29.29-.77 0-1.06a.754.754 0 00-1.06 0L6.97 7.81c-.07.07-.12.15-.16.24-.08.18-.08.39 0 .57.04.09.09.17.16.24l1.69 1.69c.15.15.34.22.53.22s.38-.07.53-.22c.29-.29.29-.77 0-1.06l-.41-.41h5.59c.47 0 .85.38.85.85v1.77c0 .41.34.75.75.75s.75-.34.75-.75V9.93c0-1.28-1.06-2.34-2.35-2.34zM17.19 15.37a.776.776 0 00-.16-.24l-1.69-1.69a.754.754 0 00-1.06 0c-.29.29-.29.77 0 1.06l.41.41H9.1a.85.85 0 01-.85-.85v-1.77c0-.41-.34-.75-.75-.75s-.75.34-.75.75v1.77c0 1.3 1.06 2.35 2.35 2.35h5.59l-.41.41c-.29.29-.29.77 0 1.06.15.15.34.22.53.22s.38-.07.53-.22l1.69-1.69c.07-.07.12-.15.16-.24a.73.73 0 000-.58z"/>
</svg>
