<svg xmlns="http://www.w3.org/2000/svg" width="24" height="24" fill="none" viewBox="0 0 24 24">
  <path fill="#292D32" d="M16.19 2H7.82C4.18 2 2.01 4.17 2.01 7.81v8.37c0 3.64 2.17 5.81 5.81 5.81h8.37c3.64 0 5.81-2.17 5.81-5.81V7.81C22 4.17 19.83 2 16.19 2z" opacity=".4"/>
  <path fill="#292D32" fill-rule="evenodd" d="M11.47 5.98a.75.75 0 011.06 0l3 3a.75.75 0 11-1.06 1.06L12 7.57l-2.47 2.47a.75.75 0 01-1.06-1.06l3-3z" clip-rule="evenodd"/>
  <path fill="#292D32" fill-rule="evenodd" d="M12 5.76a.75.75 0 01.75.75v8a.75.75 0 01-1.5 0v-8a.75.75 0 01.75-.75zM5.289 16.272a.75.75 0 01.949-.473 18.198 18.198 0 0011.524 0 .75.75 0 01.476 1.422 19.698 19.698 0 01-12.476 0 .75.75 0 01-.473-.949z" clip-rule="evenodd"/>
</svg>
