<svg xmlns="http://www.w3.org/2000/svg" width="24" height="24" fill="none" viewBox="0 0 24 24">
  <path fill="#292D32" d="M16.19 2H7.82C4.18 2 2.01 4.17 2.01 7.81v8.37c0 3.64 2.17 5.81 5.81 5.81h8.37c3.64 0 5.81-2.17 5.81-5.81V7.81C22 4.17 19.83 2 16.19 2z" opacity=".4"/>
  <path fill="#292D32" d="M9.172 14.09c.19 0 .38-.07.53-.22l4.38-4.38v2.43c0 .41.34.75.75.75s.75-.34.75-.75V7.68c0-.1-.02-.19-.06-.29a.782.782 0 00-.41-.41.717.717 0 00-.29-.06h-4.24c-.41 0-.75.34-.75.75s.34.75.75.75h2.43l-4.38 4.38c-.29.29-.29.77 0 1.06.16.16.35.23.54.23zM18.71 16.28a.749.749 0 00-.95-.47 18.334 18.334 0 01-11.53 0 .753.753 0 00-.95.47c-.13.39.08.82.47.95 2.01.67 4.12 1.01 6.24 1.01s4.23-.34 6.24-1.01c.4-.14.61-.56.48-.95z"/>
</svg>
