<svg width="24" height="24" fill="none" xmlns="http://www.w3.org/2000/svg"><path d="M22 5.15v3.7c0 2.25-.9 3.15-3.15 3.15h-2.7C13.9 12 13 11.1 13 8.85v-3.7C13 2.9 13.9 2 16.15 2h2.7C21.1 2 22 2.9 22 5.15ZM11 15.15v3.7C11 21.1 10.1 22 7.85 22h-2.7C2.9 22 2 21.1 2 18.85v-3.7C2 12.9 2.9 12 5.15 12h2.7c2.25 0 3.15.9 3.15 3.15Z" stroke="#292D32" stroke-width="1.5" stroke-linecap="round" stroke-linejoin="round"/><path opacity=".4" d="M22 15c0 3.87-3.13 7-7 7l1.05-1.75M2 9c0-3.87 3.13-7 7-7L7.95 3.75" stroke="#292D32" stroke-width="1.5" stroke-linecap="round" stroke-linejoin="round"/></svg>