<svg width="24" height="24" fill="none" xmlns="http://www.w3.org/2000/svg"><path d="M19.9 13.5H4.1c-1.5 0-2.1.64-2.1 2.23v4.04C2 21.36 2.6 22 4.1 22h15.8c1.5 0 2.1-.64 2.1-2.23v-4.04c0-1.59-.6-2.23-2.1-2.23Z" stroke="#292D32" stroke-width="1.5" stroke-linecap="round" stroke-linejoin="round"/><path opacity=".4" d="M19.9 2H4.1C2.6 2 2 2.64 2 4.23v4.04c0 1.59.6 2.23 2.1 2.23h15.8c1.5 0 2.1-.64 2.1-2.23V4.23C22 2.64 21.4 2 19.9 2Z" stroke="#292D32" stroke-width="1.5" stroke-linecap="round" stroke-linejoin="round"/></svg>