<svg width="24" height="24" fill="none" xmlns="http://www.w3.org/2000/svg"><path d="M5 16.5v-9c0-.62.02-1.17.09-1.66C5.38 3.21 6.62 2.5 10 2.5h4c3.38 0 4.62.71 4.91 3.34.07.49.09 1.04.09 1.66v9c0 .62-.02 1.17-.09 1.66-.29 2.63-1.53 3.34-4.91 3.34h-4c-3.38 0-4.62-.71-4.91-3.34-.07-.49-.09-1.04-.09-1.66Z" stroke="#292D32" stroke-width="1.5" stroke-linecap="round" stroke-linejoin="round"/><path opacity=".4" d="M2 19.5v-15M22 19V4" stroke="#292D32" stroke-width="1.5" stroke-linecap="round" stroke-linejoin="round"/></svg>