<svg xmlns="http://www.w3.org/2000/svg" width="24" height="24" fill="none" viewBox="0 0 24 24">
  <path stroke="#292D32" stroke-linecap="round" stroke-linejoin="round" stroke-width="1.5" d="M9 22h6c5 0 7-2 7-7V9c0-5-2-7-7-7H9C4 2 2 4 2 9v6c0 5 2 7 7 7z"/>
  <path stroke="#292D32" stroke-linecap="round" stroke-linejoin="round" stroke-width="1.5" d="M17.5 12c0 3.04-2.46 5.5-5.5 5.5s-4.89-3.06-4.89-3.06m0 0h2.48m-2.48 0v2.75M6.5 12c0-3.04 2.44-5.5 5.5-5.5 3.67 0 5.5 3.06 5.5 3.06m0 0V6.81m0 2.75h-2.44"/>
</svg>
