<svg width="24" height="24" fill="none" xmlns="http://www.w3.org/2000/svg"><path d="M8 2v3M16 2v3" stroke="#292D32" stroke-width="1.5" stroke-miterlimit="10" stroke-linecap="round" stroke-linejoin="round"/><path opacity=".4" d="M3.5 9.09h17" stroke="#292D32" stroke-width="1.5" stroke-miterlimit="10" stroke-linecap="round" stroke-linejoin="round"/><path d="M22 19c0 .75-.21 1.46-.58 2.06A3.97 3.97 0 0 1 18 23c-1.01 0-1.93-.37-2.63-1-.31-.26-.58-.58-.79-.94A3.92 3.92 0 0 1 14 19c0-2.21 1.79-4 4-4 1.2 0 2.27.53 3 1.36A4 4 0 0 1 22 19Z" stroke="#292D32" stroke-width="1.5" stroke-miterlimit="10" stroke-linecap="round" stroke-linejoin="round"/><path d="m16.44 19 .99.99 2.13-1.97" stroke="#292D32" stroke-width="1.5" stroke-linecap="round" stroke-linejoin="round"/><path d="M21 8.5v7.86c-.73-.83-1.8-1.36-3-1.36-2.21 0-4 1.79-4 4 0 .75.21 1.46.58 2.06.21.36.48.68.79.94H8c-3.5 0-5-2-5-5V8.5c0-3 1.5-5 5-5h8c3.5 0 5 2 5 5Z" stroke="#292D32" stroke-width="1.5" stroke-miterlimit="10" stroke-linecap="round" stroke-linejoin="round"/><path opacity=".4" d="M11.995 13.7h.009M8.295 13.7h.01M8.295 16.7h.009" stroke="#292D32" stroke-width="2" stroke-linecap="round" stroke-linejoin="round"/></svg>