<svg width="24" height="24" fill="none" xmlns="http://www.w3.org/2000/svg"><path d="m12.9 16.33 1.67-1.39-1.67-1.53v2.92ZM12.9 10.592l1.67-1.53-1.67-1.39v2.92Z" fill="#292D32"/><path d="M15 2H9C6 2 4 4 4 7v10c0 3 2 5 5 5h6c3 0 5-2 5-5V7c0-3-2-5-5-5Zm.72 11.95c.29.27.45.64.44 1.02-.01.38-.19.75-.49 1L13.6 17.7c-.38.32-.73.41-1 .41-.22 0-.39-.06-.49-.1-.22-.1-.72-.43-.72-1.34V14l-2.3 2.11c-.3.28-.78.26-1.06-.05A.746.746 0 0 1 8.08 15l3.28-3-3.28-3.01A.755.755 0 0 1 9.1 7.88L11.4 10V7.33c0-.9.5-1.23.72-1.34.21-.1.79-.28 1.49.3l2.06 1.72c.3.25.48.62.49 1 .01.38-.15.76-.44 1.02L13.58 12l2.14 1.95Z" fill="#292D32"/></svg>