<svg width="24" height="24" fill="none" xmlns="http://www.w3.org/2000/svg"><path d="m12.3 17.32 2.31-1.93-2.31-2.09v4.02ZM12.3 6.68v3.96l2.31-2.12-2.31-1.84Z" fill="#292D32"/><path d="M16.19 2H7.81C4.17 2 2 4.17 2 7.81v8.37C2 19.83 4.17 22 7.81 22h8.37c3.64 0 5.81-2.17 5.81-5.81V7.81C22 4.17 19.83 2 16.19 2ZM5.25 12A1.374 1.374 0 1 1 8 12a1.374 1.374 0 1 1-2.75 0Zm10.32 4.54-2.41 2.01c-.41.35-.79.45-1.08.45-.23 0-.41-.06-.51-.11-.23-.11-.77-.46-.77-1.44v-3.39l-2.9 2.65c-.3.28-.78.26-1.06-.05a.746.746 0 0 1 .05-1.06l3.91-3.58v-.08L6.89 8.4a.746.746 0 0 1-.05-1.06c.28-.3.76-.33 1.06-.05l2.9 2.65V6.56c0-.98.54-1.34.77-1.44.23-.11.85-.29 1.6.34l2.41 2.01c.33.27.52.66.53 1.07.01.41-.16.81-.47 1.1L13.04 12l2.59 2.37c.31.29.49.69.48 1.1-.02.41-.21.8-.54 1.07Zm1.81-3.16c-.76 0-1.38-.62-1.38-1.38 0-.76.62-1.38 1.38-1.38.76 0 1.38.62 1.38 1.38 0 .76-.63 1.38-1.38 1.38Z" fill="#292D32"/></svg>