<svg width="24" height="24" fill="none" xmlns="http://www.w3.org/2000/svg"><path d="M8.11 11.85c-2.82.2-2.81 4.3 0 4.5h6.67c.81.01 1.59-.3 2.19-.84 1.98-1.73.92-5.2-1.68-5.53-.93-5.64-9.08-3.5-7.15 1.87M9 22.75c-4.27 0-7.75-3.48-7.75-7.75 0-.41.34-.75.75-.75s.75.34.75.75c0 2.96 2.06 5.44 4.83 6.09l-.27-.45a.751.751 0 1 1 1.29-.77l1.05 1.75c.14.23.14.52.01.75-.14.23-.39.38-.66.38ZM22 9.75c-.41 0-.75-.34-.75-.75 0-2.96-2.06-5.44-4.83-6.09l.27.45a.751.751 0 1 1-1.29.77l-1.05-1.75a.745.745 0 0 1-.01-.75c.14-.23.39-.38.66-.38 4.27 0 7.75 3.48 7.75 7.75 0 .41-.34.75-.75.75Z" fill="#292D32"/></svg>