<svg width="24" height="24" fill="none" xmlns="http://www.w3.org/2000/svg"><path d="M13.98 7.75h-3.97c-1.25 0-2.27 1.01-2.27 2.27v3.97c0 1.25 1.01 2.27 2.27 2.27h3.97c1.25 0 2.27-1.01 2.27-2.27v-3.97c0-1.26-1.01-2.27-2.27-2.27Zm-.48 5.23-.89 1.55c-.13.23-.37.35-.61.35-.12 0-.25-.03-.35-.09a.693.693 0 0 1-.26-.96l.64-1.11h-.56c-.45 0-.82-.2-1.02-.54-.2-.34-.18-.76.05-1.15l.89-1.55c.2-.34.63-.45.96-.26.34.19.46.62.26.96l-.64 1.11h.56c.45 0 .82.2 1.02.54.2.34.18.76-.05 1.15Z" fill="#292D32"/><path d="M21.25 12.75c.42 0 .75-.34.75-.75 0-.42-.33-.75-.75-.75H20v-2.2h1.25c.42 0 .75-.33.75-.75 0-.41-.33-.75-.75-.75h-1.48a4.975 4.975 0 0 0-3.32-3.32V2.75c0-.41-.34-.75-.75-.75s-.75.34-.75.75V4h-2.2V2.75c0-.41-.34-.75-.75-.75s-.75.34-.75.75V4H9.06V2.75a.749.749 0 1 0-1.5 0v1.48a4.97 4.97 0 0 0-3.33 3.32H2.75a.749.749 0 1 0 0 1.5H4v2.2H2.75a.749.749 0 1 0 0 1.5H4v2.2H2.75a.749.749 0 1 0 0 1.5h1.48a4.95 4.95 0 0 0 3.33 3.32v1.48a.749.749 0 1 0 1.5 0V20h2.2v1.25a.749.749 0 1 0 1.5 0V20h2.19v1.25c0 .41.34.75.75.75s.75-.34.75-.75v-1.48a4.975 4.975 0 0 0 3.32-3.32h1.48c.42 0 .75-.34.75-.75 0-.42-.33-.75-.75-.75H20v-2.2h1.25Zm-3.99 1.51c0 1.65-1.35 3-3 3H9.74c-1.65 0-3-1.35-3-3V9.74c0-1.65 1.35-3 3-3h4.52c1.65 0 3 1.35 3 3v4.52Z" fill="#292D32"/></svg>