<svg width="24" height="24" fill="none" xmlns="http://www.w3.org/2000/svg"><path d="M20 6v.24h-5.13c-2.97 0-4.35 1.38-4.35 4.35v5.11h-.77v3.55h.77v1.5H4.95c-.41 0-.75-.34-.75-.75s.34-.75.75-.75h3.3V15.7H6c-3.13 0-3.97-.77-4-3.8V6c0-3.2.8-4 4-4h10c3.2 0 4 .8 4 4Z" fill="#292D32"/><path d="M20 7.788c-.25-.03-.54-.05-.85-.05h-4.28c-2.14 0-2.85.71-2.85 2.85v8.66c.01.62.08 1.11.23 1.5.35.91 1.14 1.25 2.62 1.25h4.28c2.14 0 2.85-.71 2.85-2.85v-8.56c0-1.83-.52-2.61-2-2.8Zm-2.99 2.3c.87 0 1.57.7 1.57 1.57 0 .87-.7 1.57-1.57 1.57-.87 0-1.57-.7-1.57-1.57 0-.87.7-1.57 1.57-1.57Zm0 9.06c-1.18 0-2.14-.96-2.14-2.14a2.142 2.142 0 0 1 3.54-1.62c.45.4.74.98.74 1.62 0 1.18-.96 2.14-2.14 2.14Z" fill="#292D32"/><path d="M20 7.788c-.25-.03-.54-.05-.85-.05h-4.28c-2.14 0-2.85.71-2.85 2.85v8.66c.01.62.08 1.11.23 1.5.35.91 1.14 1.25 2.62 1.25h4.28c2.14 0 2.85-.71 2.85-2.85v-8.56c0-1.83-.52-2.61-2-2.8Zm-2.99 2.3c.87 0 1.57.7 1.57 1.57 0 .87-.7 1.57-1.57 1.57-.87 0-1.57-.7-1.57-1.57 0-.87.7-1.57 1.57-1.57Zm0 9.06c-1.18 0-2.14-.96-2.14-2.14a2.142 2.142 0 0 1 3.54-1.62c.45.4.74.98.74 1.62 0 1.18-.96 2.14-2.14 2.14Z" fill="#292D32"/></svg>