<svg width="24" height="24" fill="none" xmlns="http://www.w3.org/2000/svg"><path d="M9.93 12.75H3c-.55 0-1 .45-1 1v2.44C2 19.4 4.6 22 7.81 22h1.7c.77 0 1.24-.82.87-1.5-.79-1.47-1.1-3.24-.71-5.1.14-.68.38-1.32.7-1.92a.498.498 0 0 0-.44-.73ZM6.75 18c0 .41-.34.75-.75.75s-.75-.34-.75-.75v-2c0-.41.34-.75.75-.75s.75.34.75.75v2ZM16.19 2H7.81C4.6 2 2 4.6 2 7.81v2.44c0 .55.45 1 1 1h8.84c.22 0 .43-.08.61-.22.86-.66 1.87-1.14 2.95-1.36 1.86-.39 3.63-.08 5.1.71.68.36 1.5-.1 1.5-.87v-1.7C22 4.6 19.4 2 16.19 2ZM6.75 8.25c0 .41-.34.75-.75.75s-.75-.34-.75-.75v-2c0-.41.34-.75.75-.75s.75.34.75.75v2Zm4 0c0 .41-.34.75-.75.75s-.75-.34-.75-.75v-2c0-.41.34-.75.75-.75s.75.34.75.75v2ZM18 8h-4c-.41 0-.75-.34-.75-.75s.34-.75.75-.75h4c.41 0 .75.34.75.75S18.41 8 18 8ZM17 11c-3.31 0-6 2.69-6 6s2.69 6 6 6 6-2.69 6-6-2.69-6-6-6Zm2.93 7.2c-.16.39-.39.74-.69 1.04a3.139 3.139 0 0 1-4.1.31v.14c0 .31-.25.57-.57.57a.578.578 0 0 1-.57-.58v-1.44c0-.31.25-.57.57-.57h1.44c.31 0 .57.25.57.57 0 .29-.21.51-.49.55.76.37 1.73.25 2.34-.36a2 2 0 0 0 .44-.67c.12-.29.45-.43.74-.31.3.12.44.46.32.75Zm.07-2.44c0 .31-.25.57-.57.57h-1.44a.57.57 0 0 1-.57-.57c0-.29.21-.51.49-.55-.76-.37-1.73-.25-2.35.36-.17.17-.3.36-.4.57a.565.565 0 0 1-.75.28.567.567 0 0 1-.27-.76c.16-.33.37-.63.62-.89a3.139 3.139 0 0 1 4.1-.31v-.13c0-.31.25-.57.57-.57.32 0 .57.24.57.56v1.44Z" fill="#292D32"/></svg>