<svg width="24" height="24" fill="none" xmlns="http://www.w3.org/2000/svg"><path d="M12.75 16h2.75c2.8 0 3.5-.7 3.5-3.5V8.3c0-2.8-.7-3.5-3.5-3.5h-2.1c-.7 0-.85-.21-1.12-.56l-1.05-1.4c-.4-.53-.63-.84-1.68-.84H8.5C5.7 2 5 2.7 5 5.5v7c0 2.8.7 3.5 3.5 3.5h2.75v3c0 .05.02.09.03.14a2 2 0 0 0-1.14 1.14c-.05-.01-.09-.03-.14-.03H6c-.41 0-.75.34-.75.75s.34.75.75.75h4c.05 0 .09-.02.14-.03a1.992 1.992 0 0 0 3.72 0c.05.01.09.03.14.03h4c.41 0 .75-.34.75-.75s-.34-.75-.75-.75h-4c-.05 0-.09.02-.14.03a2 2 0 0 0-1.14-1.14c.01-.05.03-.09.03-.14v-3Z" fill="#292D32"/></svg>