<svg width="24" height="24" fill="none" xmlns="http://www.w3.org/2000/svg"><path d="M17 2H7C4.8 2 3 3.8 3 6v12c0 2.2 1.8 4 4 4h10c2.2 0 4-1.8 4-4V6c0-2.2-1.8-4-4-4Zm-6.14 16.14c-.15.15-.34.22-.53.22s-.38-.07-.53-.22l-.65-.65-.62.62c-.15.15-.34.22-.53.22s-.38-.07-.53-.22a.754.754 0 0 1 0-1.06l.62-.62-.59-.59a.754.754 0 0 1 0-1.06c.29-.29.77-.29 1.06 0l.59.59.62-.62c.29-.29.77-.29 1.06 0 .29.29.29.77 0 1.06l-.62.62.65.65c.29.29.29.77 0 1.06Zm3.63.35c-.55 0-1-.44-1-.99v-.02c0-.55.45-1 1-1s1 .45 1 1-.45 1.01-1 1.01Zm2.02-2.16c-.55 0-1.01-.45-1.01-1s.44-1 .99-1h.02c.55 0 1 .45 1 1s-.45 1-1 1ZM18 9.25c0 .96-.79 1.75-1.75 1.75h-8.5C6.79 11 6 10.21 6 9.25v-2.5C6 5.79 6.79 5 7.75 5h8.5c.96 0 1.75.79 1.75 1.75v2.5Z" fill="#292D32"/></svg>