<svg width="24" height="24" fill="none" xmlns="http://www.w3.org/2000/svg"><path d="M18.27 3.35c-.47-.07-1.01-.1-1.77-.1h-9c-.75 0-1.3.03-1.74.09C2.41 3.71 1.75 5.7 1.75 9v6c0 3.3.66 5.29 3.98 5.65.47.07 1.01.1 1.77.1h9c.75 0 1.3-.03 1.74-.09 3.35-.37 4.01-2.35 4.01-5.66V9c0-3.3-.66-5.29-3.98-5.65ZM10.09 9c.56 0 1.01.45 1.01 1s-.45 1-1 1-1-.45-1-1 .44-1 .99-1Zm-3 0c.57 0 1.01.45 1.01 1s-.45 1-1 1-1-.45-1-1 .44-1 .99-1ZM17 16.25H7.02c-.41 0-.76-.34-.76-.75s.33-.75.74-.75h10c.41 0 .75.34.75.75s-.34.75-.75.75Zm0-5.5h-3.5c-.41 0-.75-.34-.75-.75s.34-.75.75-.75H17c.41 0 .75.34.75.75s-.34.75-.75.75Z" fill="#292D32"/></svg>