<svg width="24" height="24" fill="none" xmlns="http://www.w3.org/2000/svg"><path d="M17 22.75H7c-.41 0-.75-.34-.75-.75s.34-.75.75-.75h10c.41 0 .75.34.75.75s-.34.75-.75.75ZM18 2H6C3.79 2 2 3.79 2 6v9c0 2.21 1.79 4 4 4h12c2.21 0 4-1.79 4-4V6c0-2.21-1.79-4-4-4ZM9.99 7.32c.56 0 1.01.45 1.01 1s-.45 1-1 1-1-.45-1-1 .44-1 .99-1Zm-3.15 0c.56 0 1.01.45 1.01 1s-.45 1-1 1-1-.45-1-1 .43-1 .99-1Zm10.42 7.54H6.76c-.42 0-.76-.34-.76-.75s.33-.75.74-.75h10.53c.41 0 .75.34.75.75s-.34.75-.76.75Zm0-5.79h-3.68c-.41 0-.75-.34-.75-.75s.34-.75.75-.75h3.68a.749.749 0 1 1 0 1.5Z" fill="#292D32"/></svg>