<svg width="24" height="24" fill="none" xmlns="http://www.w3.org/2000/svg"><path d="M16 3.75H8c-.41 0-.75-.34-.75-.75s.34-.75.75-.75h8c.41 0 .75.34.75.75s-.34.75-.75.75ZM16 21.75H8c-.41 0-.75-.34-.75-.75s.34-.75.75-.75h8c.41 0 .75.34.75.75s-.34.75-.75.75ZM15.5 5h-7C6.17 5 5 6.17 5 8.5v7C5 17.83 6.17 19 8.5 19h7c2.33 0 3.5-1.17 3.5-3.5v-7C19 6.17 17.83 5 15.5 5Zm-1 8.25h-3c-.41 0-.75-.34-.75-.75v-3c0-.41.34-.75.75-.75s.75.34.75.75v2.25h2.25c.41 0 .75.34.75.75s-.34.75-.75.75Z" fill="#292D32"/></svg>