<svg width="24" height="24" fill="none" xmlns="http://www.w3.org/2000/svg"><path d="M11 18v3c0 .5-.4 1-1 1s-1-.5-1-1v-3h2ZM15 18v3c0 .5-.4 1-1 1s-1-.5-1-1v-3h2ZM17 11v5c0 1.1-.9 2-2 2H9c-1.1 0-2-.9-2-2v-5c0-1.1.9-2 2-2h6c1.1 0 2 .9 2 2ZM5 11v4c0 .6-.4 1-1 1s-1-.4-1-1v-4c0-.6.4-1 1-1s1 .4 1 1ZM21 11v4c0 .6-.4 1-1 1s-1-.4-1-1v-4c0-.6.4-1 1-1s1 .4 1 1ZM13 18h-2M9.6 7h4.8c.9 0 1.6-.75 1.6-1.714C16 2.929 14.2 1 12 1S8 2.929 8 5.286C8 6.25 8.7 7 9.6 7Z" stroke="#17191C" stroke-width="1.5" stroke-miterlimit="10" stroke-linecap="round" stroke-linejoin="round"/></svg>