<svg width="24" height="24" fill="none" xmlns="http://www.w3.org/2000/svg"><path clip-rule="evenodd" d="M15.4 2c.2 1.1-.3 2.2-.9 3-.6.8-1.7 1.5-2.8 1.4-.2-1.1.3-2.1.9-2.9.7-.8 1.8-1.4 2.8-1.5Zm3.2 17.4c.5-.8.8-1.3 1.2-2.2-3.1-1.2-3.6-5.6-.5-7.2-.9-1.2-2.2-1.8-3.5-1.8-.9 0-1.5.2-2.1.4-.5.2-.9.3-1.4.3-.6 0-1-.2-1.6-.4-.6-.2-1.2-.4-1.9-.4-1.4 0-2.9.8-3.8 2.3-1.3 2-1.1 5.9 1 9.1.9 1.2 1.9 2.5 3.2 2.5.6 0 .9-.2 1.3-.3.5-.2 1-.4 1.8-.4.9 0 1.3.2 1.8.4.4.2.7.3 1.3.3 1.4 0 2.4-1.5 3.2-2.6Z" stroke="#17191C" stroke-width="1.5" stroke-miterlimit="10" stroke-linecap="round" stroke-linejoin="round"/></svg>