<svg width="24" height="24" fill="none" xmlns="http://www.w3.org/2000/svg"><path d="M6.1 15.6 11.7 6c.2-.3.6-.3.8 0L14 8c.4.6.5 1.4.1 2l-3.3 5.3c-.3.5-.9.9-1.5.9H6.4c-.3.1-.5-.3-.3-.6ZM15.2 12.4l-1.9 3.2c-.2.3 0 .7.4.7h3.8c.4 0 .6-.4.4-.7L16 12.4c-.2-.3-.6-.3-.8 0Z" stroke="#17191C" stroke-width="1.5" stroke-miterlimit="10" stroke-linecap="round" stroke-linejoin="round"/><path d="M12 22c5.523 0 10-4.477 10-10S17.523 2 12 2 2 6.477 2 12s4.477 10 10 10Z" stroke="#17191C" stroke-width="1.5" stroke-miterlimit="10"/></svg>