<svg width="24" height="24" fill="none" xmlns="http://www.w3.org/2000/svg"><path d="M11.4 2.4 6.3 7.5c-.2.2-.2.5 0 .7L8 9.9c.2.2.5.2.7 0l5.1-5.1c.2-.2.2-.5 0-.7l-1.7-1.7c-.2-.2-.5-.2-.7 0ZM15.3 6.3l-9 9c-.2.2-.2.5 0 .7L8 17.7c.2.2.5.2.7 0l9-9c.2-.2.2-.5 0-.7L16 6.3c-.2-.2-.5-.2-.7 0ZM19.2 10.2l-9 9c-.2.2-.2.5 0 .7l1.7 1.7c.2.2.5.2.7 0l9-9c.2-.2.2-.5 0-.7l-1.7-1.7c-.2-.2-.5-.2-.7 0ZM4.1 13.8l-1.7-1.7c-.2-.2-.2-.5 0-.7l1.7-1.7c.2-.2.5-.2.7 0l1.7 1.7c.2.2.2.5 0 .7l-1.7 1.7c-.2.2-.5.2-.7 0Z" stroke="#17191C" stroke-width="1.5" stroke-miterlimit="10" stroke-linecap="round" stroke-linejoin="round"/></svg>