<svg width="24" height="24" fill="none" xmlns="http://www.w3.org/2000/svg"><path d="M9 8.38h4.685c1.038 0 1.88.935 1.88 1.882 0 1.038-.842 1.88-1.88 1.88H9V8.381Z" stroke="#17191C" stroke-width="1.5" stroke-miterlimit="10" stroke-linecap="round" stroke-linejoin="round"/><path d="M9 12.13h5.354c1.188 0 2.146.843 2.146 1.882 0 1.038-.958 1.88-2.146 1.88H9v-3.761ZM12.277 15.88v1.882M9.935 15.88v1.882M12.277 6.5v1.88M9.935 6.5v1.88M10.777 8.38H7.5M10.777 15.88H7.5" stroke="#17191C" stroke-width="1.5" stroke-miterlimit="10" stroke-linecap="round" stroke-linejoin="round"/><path d="M12 22c5.523 0 10-4.477 10-10S17.523 2 12 2 2 6.477 2 12s4.477 10 10 10Z" stroke="#17191C" stroke-width="1.5" stroke-miterlimit="10"/></svg>