<svg width="24" height="24" fill="none" xmlns="http://www.w3.org/2000/svg"><path d="M6 9v6c0 2 1 3 3 3h6c2 0 3-1 3-3v-3c0-.6-.4-1-1-1s-1-.4-1-1V9c0-2-1-3-3-3H9C7 6 6 7 6 9Z" stroke="#17191C" stroke-width="1.5" stroke-miterlimit="10"/><path d="M10 10h2M10 14h4" stroke="#17191C" stroke-width="1.5" stroke-miterlimit="10" stroke-linecap="round" stroke-linejoin="round"/><path d="M15 22H9c-5 0-7-2-7-7V9c0-5 2-7 7-7h6c5 0 7 2 7 7v6c0 5-2 7-7 7Z" stroke="#17191C" stroke-width="1.5" stroke-linecap="round" stroke-linejoin="round"/></svg>