<svg width="24" height="24" fill="none" xmlns="http://www.w3.org/2000/svg"><path d="M13.75 10a1 1 0 1 0 0-2 1 1 0 0 0 0 2ZM10.25 10a1 1 0 1 0 0-2 1 1 0 0 0 0 2ZM15.5 13a1 1 0 1 0 0-2 1 1 0 0 0 0 2ZM17.15 9.75a.75.75 0 1 0 0-1.5.75.75 0 0 0 0 1.5ZM17.15 15.75a.75.75 0 1 0 0-1.5.75.75 0 0 0 0 1.5ZM19.75 12.75a.75.75 0 1 0 0-1.5.75.75 0 0 0 0 1.5ZM6.8 9.75a.75.75 0 1 0 0-1.5.75.75 0 0 0 0 1.5ZM6.8 15.75a.75.75 0 1 0 0-1.5.75.75 0 0 0 0 1.5ZM4.2 12.75a.75.75 0 1 0 0-1.5.75.75 0 0 0 0 1.5ZM15.9 5.95a.75.75 0 1 0 0-1.5.75.75 0 0 0 0 1.5ZM8.1 5.95a.75.75 0 1 0 0-1.5.75.75 0 0 0 0 1.5ZM12.05 6.75a.75.75 0 1 0 0-1.5.75.75 0 0 0 0 1.5ZM15.9 19.75a.75.75 0 1 0 0-1.5.75.75 0 0 0 0 1.5ZM8.1 19.75a.75.75 0 1 0 0-1.5.75.75 0 0 0 0 1.5ZM12.05 18.95a.75.75 0 1 0 0-1.5.75.75 0 0 0 0 1.5ZM8.5 13a1 1 0 1 0 0-2 1 1 0 0 0 0 2ZM10.25 16a1 1 0 1 0 0-2 1 1 0 0 0 0 2ZM13.75 16a1 1 0 1 0 0-2 1 1 0 0 0 0 2Z" stroke="#17191C" stroke-miterlimit="10"/><path d="M12 2.45v0" stroke="#17191C" stroke-width="2" stroke-linecap="round" stroke-linejoin="round"/><path d="M17.5 2.85v0M17.5 21.2v0M20 16.5v0M20 7v0M4 16.5v0M4 7v0M6.5 2.85v0M6.5 21.2v0" stroke="#17191C" stroke-width="1.5" stroke-linecap="round" stroke-linejoin="round"/><path d="M12 21.5v0M1.55 12v0M22.5 12v0" stroke="#17191C" stroke-width="2" stroke-linecap="round" stroke-linejoin="round"/></svg>