<svg width="24" height="24" fill="none" xmlns="http://www.w3.org/2000/svg"><path d="m8.5 5.1 2.7 2.7c.4.4 1.2.4 1.6 0l2.7-2.7c.7-.7.2-2-.8-2H9.3c-1 .1-1.5 1.3-.8 2ZM8.5 18.9l2.7-2.7c.4-.4 1.2-.4 1.6 0l2.7 2.7c.7.7.2 2-.8 2H9.3c-1-.1-1.5-1.3-.8-2ZM2.2 11.5 4.4 8c.3-.6 1.1-.7 1.6-.2l3.5 3.5c.4.4.4 1 0 1.4L6 16.2c-.5.5-1.2.4-1.6-.2l-2.2-3.5c-.3-.3-.3-.7 0-1ZM21.8 11.5 19.6 8c-.3-.5-1.1-.6-1.6-.2l-3.5 3.5c-.4.4-.4 1 0 1.4l3.5 3.5c.5.5 1.2.4 1.6-.2l2.2-3.5c.3-.3.3-.7 0-1Z" stroke="#17191C" stroke-width="1.5" stroke-miterlimit="10" stroke-linecap="round" stroke-linejoin="round"/></svg>