<svg width="24" height="24" fill="none" xmlns="http://www.w3.org/2000/svg"><path d="M10.8 3.4 7.2 7.7c-.1.2-.2.5-.3.7L5.2 17c-.1.6.2 1.3.7 1.6l5.3 3c.4.2 1.1.2 1.5 0l5.3-3c.5-.3.8-1 .7-1.6L17 8.4c0-.2-.2-.5-.3-.7l-3.6-4.3c-.6-.8-1.6-.8-2.3 0Z" stroke="#17191C" stroke-width="1.5" stroke-miterlimit="10" stroke-linecap="round" stroke-linejoin="round"/><path d="m16.8 8.5-4.3 12.2c-.2.4-.8.4-.9 0L7.2 8.5" stroke="#17191C" stroke-width="1.5" stroke-miterlimit="10" stroke-linecap="round" stroke-linejoin="round"/></svg>