<svg width="24" height="24" fill="none" xmlns="http://www.w3.org/2000/svg"><path d="M10.45 3.05 6.71 7.71c-.85 1.06-.55 2.42.66 3.02l3.73 1.87c.49.24 1.29.24 1.78 0l3.73-1.87c1.21-.61 1.51-1.97.66-3.02l-3.73-4.66c-.84-1.07-2.24-1.07-3.09 0ZM12 2.3v5.26" stroke="#17191C" stroke-width="1.5" stroke-miterlimit="10" stroke-linecap="round" stroke-linejoin="round"/><path d="M7.8 10.71 12 7.56l4.2 3.15M8.77 14.43l1.61.72a4 4 0 0 0 3.25 0l1.61-.72c1.44-.64 2.77 1.1 1.77 2.32l-3.46 4.23c-.85 1.04-2.24 1.04-3.1 0L7 16.75c-1.01-1.22.32-2.96 1.77-2.32Z" stroke="#17191C" stroke-width="1.5" stroke-miterlimit="10" stroke-linecap="round" stroke-linejoin="round"/></svg>