<svg width="24" height="24" fill="none" xmlns="http://www.w3.org/2000/svg"><path d="M12 2H8.7C6.8 2 5.3 3.5 5.3 5.3c0 1.8 1.5 3.3 3.3 3.3H12V2ZM12 8.7H8.7c-1.8 0-3.3 1.5-3.3 3.3 0 1.8 1.5 3.3 3.3 3.3H12V8.7ZM12 15.3H8.7c-1.8 0-3.3 1.5-3.3 3.3 0 1.8 1.5 3.3 3.3 3.3 1.8 0 3.3-1.5 3.3-3.3v-3.3ZM12 2h3.3c1.8 0 3.3 1.5 3.3 3.3 0 1.8-1.5 3.3-3.3 3.3H12V2ZM15.3 8.7c1.8 0 3.3 1.5 3.3 3.3 0 1.8-1.5 3.3-3.3 3.3-1.8 0-3.3-1.5-3.3-3.3 0-1.8 1.5-3.3 3.3-3.3Z" stroke="#17191C" stroke-width="1.5" stroke-miterlimit="10"/></svg>