<svg width="24" height="24" fill="none" xmlns="http://www.w3.org/2000/svg"><path d="M11 2.6 4.5 6.4c-.6.4-1 1-1 1.7v7.7c0 .7.4 1.4 1 1.7l6.5 3.8c.6.4 1.4.4 2 0l6.5-3.8c.6-.4 1-1 1-1.7V8.1c0-.7-.4-1.4-1-1.7L13 2.6c-.6-.4-1.4-.4-2 0Z" stroke="#17191C" stroke-width="1.5" stroke-miterlimit="10" stroke-linecap="round" stroke-linejoin="round"/><path d="m17 9-5-3-5 3 10 6-5 3-5-3M11.5 10l-2 2M14.5 12l-2 2" stroke="#17191C" stroke-width="1.5" stroke-miterlimit="10" stroke-linecap="round" stroke-linejoin="round"/></svg>