<svg width="24" height="24" fill="none" xmlns="http://www.w3.org/2000/svg"><path d="M12 3.2v.01M12 7.7v.01M12 11.7v.01" stroke="#17191C" stroke-width="3" stroke-miterlimit="10" stroke-linecap="round" stroke-linejoin="round"/><path d="M12 15.7v.01" stroke="#17191C" stroke-width="2" stroke-miterlimit="10" stroke-linecap="round" stroke-linejoin="round"/><path d="M12 19.2v.01" stroke="#17191C" stroke-width="1.5" stroke-miterlimit="10" stroke-linecap="round" stroke-linejoin="round"/><path d="M12 22.2v.01" stroke="#17191C" stroke-miterlimit="10" stroke-linecap="round" stroke-linejoin="round"/><path d="M3.5 7.7v.01M20.5 7.7v.01" stroke="#17191C" stroke-width="3" stroke-miterlimit="10" stroke-linecap="round" stroke-linejoin="round"/><path d="M20.5 11.7v.01M3.5 11.7v.01" stroke="#17191C" stroke-width="2" stroke-miterlimit="10" stroke-linecap="round" stroke-linejoin="round"/><path d="M20.5 14.7v.01" stroke="#17191C" stroke-width="1.5" stroke-miterlimit="10" stroke-linecap="round" stroke-linejoin="round"/><path d="M20.5 17.7v.01" stroke="#17191C" stroke-miterlimit="10" stroke-linecap="round" stroke-linejoin="round"/><path d="M3.5 14.7v.01" stroke="#17191C" stroke-width="1.5" stroke-miterlimit="10" stroke-linecap="round" stroke-linejoin="round"/><path d="M3.5 17.7v.01" stroke="#17191C" stroke-miterlimit="10" stroke-linecap="round" stroke-linejoin="round"/><path d="M7.8 9.7v.01M7.75 5.5v.01M16.2 9.7v.01M16.25 5.5v.01" stroke="#17191C" stroke-width="3" stroke-miterlimit="10" stroke-linecap="round" stroke-linejoin="round"/><path d="M7.8 13.7v.01" stroke="#17191C" stroke-width="2" stroke-miterlimit="10" stroke-linecap="round" stroke-linejoin="round"/><path d="M7.8 16.7v.01" stroke="#17191C" stroke-width="1.5" stroke-miterlimit="10" stroke-linecap="round" stroke-linejoin="round"/><path d="M7.8 19.7v.01" stroke="#17191C" stroke-miterlimit="10" stroke-linecap="round" stroke-linejoin="round"/><path d="M16.2 13.7v.01" stroke="#17191C" stroke-width="2" stroke-miterlimit="10" stroke-linecap="round" stroke-linejoin="round"/><path d="M16.2 16.7v.01" stroke="#17191C" stroke-width="1.5" stroke-miterlimit="10" stroke-linecap="round" stroke-linejoin="round"/><path d="M16.2 19.7v.01" stroke="#17191C" stroke-miterlimit="10" stroke-linecap="round" stroke-linejoin="round"/></svg>