<svg width="24" height="24" fill="none" xmlns="http://www.w3.org/2000/svg"><path d="M7.6 7.6V3.9c0-.8.6-1.5 1.4-1.7 2-.3 4-.3 6 0 .8.1 1.4.8 1.4 1.7v5.9c0 1.2-1 2.2-2.2 2.2H9.8c-1.2 0-2.2 1-2.2 2.2v5.9c0 .8.6 1.5 1.4 1.7 2 .3 4 .3 6 0 .8-.1 1.4-.8 1.4-1.7v-3.7" stroke="#17191C" stroke-width="1.5" stroke-linecap="round" stroke-linejoin="round"/><path d="M16.4 7.6h3.7c.8 0 1.5.6 1.7 1.4.3 2 .3 4 0 6-.1.8-.8 1.4-1.7 1.4H12M12 7.6H3.9c-.8 0-1.5.6-1.7 1.4-.3 2-.3 4 0 6 .1.8.8 1.4 1.7 1.4h3.7M10 4.85v0M14 19.15v0" stroke="#17191C" stroke-width="1.5" stroke-linecap="round" stroke-linejoin="round"/></svg>