<svg width="24" height="24" fill="none" xmlns="http://www.w3.org/2000/svg"><path d="M8 2.8c1.2-.5 2.6-.8 4-.8 5.5 0 10 4.5 10 10s-4.5 10-10 10S2 17.5 2 12c0-1.4.3-2.8.8-4" stroke="#17191C" stroke-width="1.5" stroke-miterlimit="10" stroke-linecap="round" stroke-linejoin="round"/><path d="M16 16.2V12c0-2.3-1.9-4.2-4.2-4.2-2.3 0-4.2 1.9-4.2 4.2 0 2.3 1.9 4.2 4.2 4.2H16ZM5 6.5a1.5 1.5 0 1 0 0-3 1.5 1.5 0 0 0 0 3Z" stroke="#17191C" stroke-width="1.5" stroke-miterlimit="10" stroke-linecap="round" stroke-linejoin="round"/></svg>