<svg width="24" height="24" fill="none" xmlns="http://www.w3.org/2000/svg"><path d="M19 9.9v6.9c0 .8-.4 1.5-1.1 1.8l-6.5 3.1c-.5.2-1.2.2-1.7 0l-6.5-3.1c-.7-.3-1.1-1-1.1-1.8V9.3c0-.8.4-1.5 1.1-1.8l6.5-3.1c.5-.2 1.2-.2 1.7 0L14 5.7V6c0 2.2 1.8 4 4 4 .4 0 .7 0 1-.1Z" stroke="#17191C" stroke-width="1.5" stroke-miterlimit="10" stroke-linejoin="round"/><path d="M7 10.5v3c0 1.1.9 2 2 2s2-.9 2-2v-3M14 10.5v4.9" stroke="#17191C" stroke-width="1.5" stroke-miterlimit="10" stroke-linecap="round"/><path d="M22 6c0 1.9-1.3 3.4-3 3.9-.3.1-.6.1-1 .1-2.2 0-4-1.8-4-4v-.3c.2-2 1.9-3.7 4-3.7 2.2 0 4 1.8 4 4Z" stroke="#17191C" stroke-width="1.5" stroke-miterlimit="10"/><path d="M19.1 5.9c.2-.2.4-.5.4-.8 0-.8-.6-1.3-1.5-1.3s-1.5.5-1.5 1.3c0 .3.1.6.4.8-.3.2-.5.6-.5 1 0 .8.6 1.3 1.6 1.3s1.6-.5 1.6-1.3c0-.4-.2-.8-.5-1ZM18 5.5c-.3 0-.4-.1-.4-.4 0-.3.2-.4.4-.4s.4.1.4.4c0 .3-.1.4-.4.4Zm0 .8c.3 0 .6.1.6.5 0 .3-.2.5-.6.5-.4 0-.6-.2-.6-.5 0-.4.5-.5.6-.5Z" fill="#17191C"/></svg>