<svg width="24" height="24" fill="none" xmlns="http://www.w3.org/2000/svg"><path d="M16.9 16.9c2.7-2.7 2.7-7.2 0-9.9M7.1 7.1c-2.7 2.7-2.7 7.2 0 9.9" stroke="#17191C" stroke-width="1.5" stroke-miterlimit="10" stroke-linecap="round" stroke-linejoin="round"/><path d="M9.7 13.6c0 .9.7 1.6 1.6 1.6H13c.7 0 1.4-.6 1.4-1.4 0-.9-.4-1.2-.9-1.4l-2.8-1c-.7-.1-1-.4-1-1.2 0-.8.6-1.4 1.4-1.4h1.8c.9 0 1.6.7 1.6 1.6M12 7.8v8.4" stroke="#17191C" stroke-width="1.5" stroke-linecap="round" stroke-linejoin="round"/><path d="M12 22c5.523 0 10-4.477 10-10S17.523 2 12 2 2 6.477 2 12s4.477 10 10 10Z" stroke="#17191C" stroke-width="1.5" stroke-miterlimit="10" stroke-linecap="round" stroke-linejoin="round"/></svg>