<svg width="24" height="24" fill="none" xmlns="http://www.w3.org/2000/svg"><path d="M6.9 20.6c1.5.9 3.3 1.4 5.1 1.4 5.5 0 10-4.5 10-10S17.5 2 12 2 2 6.5 2 12c0 1.8.5 3.5 1.3 5l-.86 3.306a1 1 0 0 0 1.243 1.213L6.9 20.6Z" stroke="#17191C" stroke-width="1.5" stroke-miterlimit="10" stroke-linecap="round" stroke-linejoin="round"/><path d="M16.5 14.848c0 .162-.036.329-.113.491a1.856 1.856 0 0 1-.306.459c-.221.243-.464.418-.74.531-.27.113-.563.171-.878.171-.46 0-.951-.108-1.47-.328a7.922 7.922 0 0 1-1.55-.892 12.95 12.95 0 0 1-1.478-1.26 12.79 12.79 0 0 1-1.257-1.471 8.02 8.02 0 0 1-.884-1.534C7.608 10.5 7.5 10.01 7.5 9.543c0-.306.054-.598.162-.868.108-.275.28-.527.519-.752.288-.284.603-.423.937-.423.126 0 .252.027.365.081.117.054.22.135.302.252l1.046 1.472c.08.112.14.216.18.315.04.094.063.189.063.274a.61.61 0 0 1-.095.32 1.53 1.53 0 0 1-.252.319l-.343.356a.24.24 0 0 0-.072.18c0 .035.005.067.014.103.013.036.027.063.036.09.08.149.22.342.419.576.203.234.419.473.653.711.244.239.478.459.717.662.234.197.428.332.581.413l.082.037a.311.311 0 0 0 .112.018.248.248 0 0 0 .185-.077l.342-.338c.113-.112.221-.197.325-.252a.6.6 0 0 1 .32-.094.72.72 0 0 1 .275.059c.099.04.203.098.315.175l1.492 1.058a.683.683 0 0 1 .248.287.921.921 0 0 1 .072.351Z" stroke="#17191C" stroke-width="1.5" stroke-miterlimit="10"/></svg>