<svg width="24" height="24" fill="none" xmlns="http://www.w3.org/2000/svg"><path d="M5.5 2H4.1c-1 0-1.5 1.1-.8 1.8L9 9.5c1.6 1.6 4.3 1.6 5.9 0l5.7-5.7c.8-.7.3-1.8-.7-1.8h-1.4c-.8 0-1.6.3-2.2.9l-3.6 3.6c-.4.4-1.1.4-1.5 0L7.7 2.9C7.1 2.3 6.3 2 5.5 2ZM5.5 22H4.1c-.9 0-1.4-1.1-.7-1.8L9 14.5c1.6-1.6 4.3-1.6 5.9 0l5.7 5.7c.7.7.2 1.8-.7 1.8h-1.4c-.8 0-1.6-.3-2.2-.9l-3.6-3.6c-.4-.4-1.1-.4-1.5 0l-3.6 3.6c-.5.5-1.3.9-2.1.9Z" stroke="#17191C" stroke-width="1.5" stroke-miterlimit="10" stroke-linecap="round" stroke-linejoin="round"/></svg>