<svg width="24" height="24" fill="none" xmlns="http://www.w3.org/2000/svg"><path d="M10.5 11.5v2.8L8 15.8l-2.5-1.5v-2.8L8 10l1.2.7 1.3.8ZM18.5 11.5v2.8L16 15.8l-2.5-1.5v-2.8l1.3-.8L16 10l2.5 1.5Z" stroke="#17191C" stroke-width="1.5" stroke-miterlimit="10" stroke-linejoin="round"/><path d="M14.8 9.3v1.4l-1.3.8v1.7l-1.5.9-1.5-.9v-1.7l-1.3-.8V9.3L12 7.8l2.8 1.5Z" stroke="#17191C" stroke-width="1.5" stroke-miterlimit="10" stroke-linejoin="round"/><path d="M12 22c5.523 0 10-4.477 10-10S17.523 2 12 2 2 6.477 2 12s4.477 10 10 10Z" stroke="#17191C" stroke-width="1.5" stroke-miterlimit="10" stroke-linejoin="round"/></svg>