<svg width="24" height="24" fill="none" xmlns="http://www.w3.org/2000/svg"><path clip-rule="evenodd" d="M6 9.7v2.8c0 1.5 1.3 2.8 2.8 2.8h3.7c.5 0 .9-.4.9-.9v-2.8c0-1.5-1.2-2.8-2.8-2.8H6.9c-.5 0-.9.4-.9.9Z" stroke="#17191C" stroke-width="1.5" stroke-miterlimit="10"/><path clip-rule="evenodd" d="M18 9.2v5.6l-2.8-1.9v-1.8L18 9.2Z" stroke="#17191C" stroke-width="1.5" stroke-miterlimit="10" stroke-linecap="round" stroke-linejoin="round"/><path d="M12 22c5.523 0 10-4.477 10-10S17.523 2 12 2 2 6.477 2 12s4.477 10 10 10Z" stroke="#17191C" stroke-width="1.5" stroke-miterlimit="10"/></svg>