<svg width="24" height="24" fill="none" xmlns="http://www.w3.org/2000/svg"><path d="M23 15.969c0 3.87-3.13 7-7 7l1.05-1.75M1 7.969c0-3.87 3.13-7 7-7l-1.05 1.75" stroke="#292D32" stroke-width="1.5" stroke-linecap="round" stroke-linejoin="round"/><path d="M6.62 13.07h2.81c.62 0 1.13.56 1.13 1.13 0 .62-.5 1.13-1.13 1.13H6.62v-2.26Z" stroke="#292D32" stroke-width="1.5" stroke-miterlimit="10" stroke-linecap="round" stroke-linejoin="round"/><path d="M6.62 15.328h3.22c.71 0 1.29.5 1.29 1.13 0 .62-.58 1.13-1.29 1.13H6.62v-2.26ZM8.42 17.578v1.12M8.42 11.95v1.12" stroke="#292D32" stroke-width="1.5" stroke-miterlimit="10" stroke-linecap="round" stroke-linejoin="round"/><path d="M2.5 15.33c0-3.41 2.76-6.17 6.17-6.17.16 0 .31.01.48.02 3.03.23 5.45 2.65 5.68 5.68.01.16.02.31.02.48 0 3.41-2.76 6.17-6.17 6.17-2.13 0-4.01-1.08-5.12-2.72" stroke="#292D32" stroke-width="1.5" stroke-miterlimit="10" stroke-linecap="round" stroke-linejoin="round"/><path d="M21.5 8.67c0 3.41-2.76 6.17-6.17 6.17h-.49a6.174 6.174 0 0 0-5.68-5.68v-.49c0-3.41 2.76-6.17 6.17-6.17 1.8 0 3.42.77 4.55 2" stroke="#292D32" stroke-width="1.5" stroke-miterlimit="10" stroke-linecap="round" stroke-linejoin="round"/></svg>