<svg width="24" height="24" fill="none" xmlns="http://www.w3.org/2000/svg"><path d="M11.12 18.248c-.19 0-.38-.07-.53-.22l-1.5-1.5a.754.754 0 0 1 0-1.06c.29-.29.77-.29 1.06 0l.99.99 2.72-2.51c.3-.28.78-.26 1.06.04s.26.78-.04 1.06l-3.25 3c-.14.13-.32.2-.51.2ZM5.19 6.381c-.19 0-.39-.08-.53-.22a.754.754 0 0 1 0-1.06l3.63-3.63c.29-.29.77-.29 1.06 0 .29.29.29.77 0 1.06l-3.63 3.63c-.15.14-.34.22-.53.22ZM18.81 6.381c-.19 0-.38-.07-.53-.22l-3.63-3.63a.754.754 0 0 1 0-1.06c.29-.29.77-.29 1.06 0l3.63 3.63c.29.29.29.77 0 1.06-.14.14-.34.22-.53.22Z" fill="#292D32"/><path d="M20.21 10.602H4c-.7.01-1.5.01-2.08-.57-.46-.45-.67-1.15-.67-2.18 0-2.75 2.01-2.75 2.97-2.75h15.56c.96 0 2.97 0 2.97 2.75 0 1.04-.21 1.73-.67 2.18-.52.52-1.22.57-1.87.57Zm-15.99-1.5h15.79c.45.01.87.01 1.01-.13.07-.07.22-.31.22-1.12 0-1.13-.28-1.25-1.47-1.25H4.22c-1.19 0-1.47.12-1.47 1.25 0 .81.16 1.05.22 1.12.14.13.57.13 1.01.13h.24Z" fill="#292D32"/><path d="M14.89 22.75H8.86c-3.58 0-4.38-2.13-4.69-3.98l-1.41-8.65c-.07-.41.21-.79.62-.86.4-.07.79.21.86.62l1.41 8.64c.29 1.77.89 2.73 3.21 2.73h6.03c2.57 0 2.86-.9 3.19-2.64l1.68-8.75c.08-.41.47-.68.88-.59.41.08.67.47.59.88l-1.68 8.75c-.39 2.03-1.04 3.85-4.66 3.85Z" fill="#292D32"/></svg>