<svg width="24" height="24" fill="none" xmlns="http://www.w3.org/2000/svg"><path d="M16.5 8.63c-.41 0-.75-.34-.75-.75V6.5c0-1.05-.45-2.07-1.23-2.78-.79-.72-1.81-1.05-2.89-.95-1.8.17-3.38 2.01-3.38 3.93v.97c0 .41-.34.75-.75.75s-.75-.34-.75-.75v-.98c0-2.69 2.17-5.17 4.74-5.42 1.5-.14 2.94.33 4.04 1.34a5.27 5.27 0 0 1 1.72 3.89v1.38c0 .41-.34.75-.75.75Z" fill="#292D32"/><path d="M15 22.75H9c-4.62 0-5.48-2.15-5.7-4.24l-.75-5.99c-.11-1.08-.15-2.63.9-3.79.9-1 2.39-1.48 4.55-1.48h8c2.17 0 3.66.49 4.55 1.48 1.04 1.16 1.01 2.71.9 3.77l-.75 6.01c-.22 2.09-1.08 4.24-5.7 4.24Zm-7-14c-1.69 0-2.85.33-3.44.99-.49.54-.65 1.37-.52 2.61l.75 5.99c.17 1.6.61 2.92 4.21 2.92h6c3.6 0 4.04-1.31 4.21-2.9l.75-6.01c.13-1.22-.03-2.05-.52-2.6-.59-.67-1.75-1-3.44-1H8Z" fill="#292D32"/><path d="M15.42 13.148c-.56 0-1.01-.45-1.01-1s.45-1 1-1 1 .45 1 1-.44 1-.99 1ZM8.42 13.148c-.56 0-1.01-.45-1.01-1s.45-1 1-1 1 .45 1 1-.44 1-.99 1Z" fill="#292D32"/></svg>