<svg width="24" height="24" fill="none" xmlns="http://www.w3.org/2000/svg"><path d="M14.72 22.751H9.33c-.64 0-1.2-.04-1.71-.11a.754.754 0 0 1-.64-.85c.06-.41.43-.71.85-.64.44.06.93.09 1.49.09h5.39c4.09 0 5.54-1.45 5.54-5.54v-4.49c0-.41.34-.75.75-.75s.75.34.75.75v4.49c.01 4.94-2.1 7.05-7.03 7.05ZM3.04 16.269c-.41 0-.75-.34-.75-.75v-4.3c0-.41.34-.75.75-.75s.75.34.75.75v4.3c0 .41-.34.75-.75.75ZM12.03 12.75c-1.1 0-2.1-.43-2.81-1.22s-1.04-1.82-.93-2.92l.67-6.68c.04-.38.36-.68.75-.68h4.67c.39 0 .71.29.75.68l.67 6.68c.11 1.1-.22 2.13-.93 2.92-.74.79-1.74 1.22-2.84 1.22Zm-1.66-10-.6 6.01c-.07.67.13 1.3.55 1.76.85.94 2.55.94 3.4 0 .42-.47.62-1.1.55-1.76l-.6-6.01h-3.3Z" fill="#292D32"/><path d="M18.33 12.75c-2.03 0-3.84-1.64-4.05-3.66l-.7-7.01c-.02-.21.05-.42.19-.58.14-.16.34-.25.56-.25h3.05c2.94 0 4.31 1.23 4.72 4.25l.28 2.78c.12 1.18-.24 2.3-1.01 3.15-.77.85-1.85 1.32-3.04 1.32Zm-3.17-10 .62 6.19c.13 1.25 1.3 2.31 2.55 2.31.76 0 1.44-.29 1.93-.82.48-.53.7-1.24.63-2l-.28-2.75c-.31-2.26-1.04-2.93-3.23-2.93h-2.22ZM5.67 12.75c-1.19 0-2.27-.47-3.04-1.32-.77-.85-1.13-1.97-1.01-3.15l.28-2.75c.42-3.05 1.79-4.28 4.73-4.28h3.05c.21 0 .41.09.56.25.14.16.21.37.19.58l-.7 7.01c-.22 2.02-2.04 3.66-4.06 3.66Zm.95-10c-2.19 0-2.92.66-3.24 2.95l-.27 2.72c-.08.76.15 1.47.63 2s1.17.82 1.93.82c1.26 0 2.43-1.06 2.55-2.31l.62-6.19H6.62v.01ZM5 23.75c-1.4 0-2.71-.61-3.61-1.68-.01-.01-.05-.05-.08-.1-.15-.18-.28-.36-.38-.55-.44-.71-.68-1.55-.68-2.43a4.712 4.712 0 0 1 2.44-4.15c.69-.39 1.5-.61 2.31-.61 1.16 0 2.23.4 3.09 1.15.11.08.26.23.39.37.81.89 1.26 2.03 1.26 3.22 0 .87-.24 1.72-.69 2.45-.22.38-.49.71-.79.97-.06.06-.12.12-.19.17-.79.77-1.9 1.19-3.07 1.19Zm-2.52-2.71c.03.03.08.08.12.15.55.65 1.45 1.07 2.4 1.07.79 0 1.55-.29 2.13-.81.03-.04.07-.08.12-.11.2-.17.37-.39.53-.65.31-.51.48-1.08.48-1.68 0-.81-.31-1.6-.87-2.21-.07-.08-.14-.16-.23-.22-1.08-.93-2.56-1.07-3.74-.4-.16.09-.3.18-.43.29-.78.62-1.23 1.54-1.23 2.54 0 .59.16 1.17.47 1.67.08.14.16.25.25.35-.01 0 0 0 0 .01Z" fill="#292D32"/><path d="M6.5 19.73H3.51c-.41 0-.75-.34-.75-.75s.34-.75.75-.75H6.5c.41 0 .75.34.75.75s-.34.75-.75.75Z" fill="#292D32"/></svg>