<svg width="24" height="24" fill="none" xmlns="http://www.w3.org/2000/svg"><path d="M16.49 22.75H7.5c-1.72 0-3.01-.46-3.81-1.37-.8-.91-1.11-2.23-.9-3.94l.9-7.5c.26-2.21.82-4.19 4.72-4.19h7.2c3.89 0 4.45 1.98 4.72 4.19l.9 7.5c.2 1.71-.1 3.04-.9 3.94-.83.91-2.11 1.37-3.84 1.37ZM8.4 7.25c-2.88 0-3.02 1.14-3.23 2.86l-.9 7.5c-.15 1.27.03 2.2.54 2.77.51.57 1.41.86 2.69.86h8.99c1.28 0 2.18-.29 2.69-.86.51-.57.69-1.5.54-2.77l-.9-7.5c-.21-1.73-.34-2.86-3.23-2.86H8.4Z" fill="#292D32"/><path d="M16 8.75c-.41 0-.75-.34-.75-.75V4.5c0-1.08-.67-1.75-1.75-1.75h-3c-1.08 0-1.75.67-1.75 1.75V8c0 .41-.34.75-.75.75s-.75-.34-.75-.75V4.5c0-1.91 1.34-3.25 3.25-3.25h3c1.91 0 3.25 1.34 3.25 3.25V8c0 .41-.34.75-.75.75ZM20.41 17.781H8c-.41 0-.75-.34-.75-.75s.34-.75.75-.75h12.41c.41 0 .75.34.75.75s-.34.75-.75.75Z" fill="#292D32"/></svg>