<svg width="24" height="24" fill="none" xmlns="http://www.w3.org/2000/svg"><path d="M18.19 17.75H7.54c-.99 0-1.94-.42-2.61-1.15A3.573 3.573 0 0 1 4 13.9l.83-9.96c.03-.31-.08-.61-.29-.84-.21-.23-.5-.35-.81-.35H2c-.41 0-.75-.34-.75-.75s.34-.75.75-.75h1.74c.73 0 1.42.31 1.91.84.27.3.47.65.58 1.04h12.49c1.01 0 1.94.4 2.62 1.12.67.73 1.01 1.68.93 2.69l-.54 7.5c-.11 1.83-1.71 3.31-3.54 3.31ZM6.28 4.62l-.78 9.4c-.05.58.14 1.13.53 1.56.39.43.93.66 1.51.66h10.65c1.04 0 1.98-.88 2.06-1.92l.54-7.5a2.04 2.04 0 0 0-2.06-2.21H6.28v.01ZM16.25 22.75c-1.1 0-2-.9-2-2s.9-2 2-2 2 .9 2 2-.9 2-2 2Zm0-2.5c-.28 0-.5.22-.5.5s.22.5.5.5.5-.22.5-.5-.22-.5-.5-.5ZM8.25 22.75c-1.1 0-2-.9-2-2s.9-2 2-2 2 .9 2 2-.9 2-2 2Zm0-2.5c-.28 0-.5.22-.5.5s.22.5.5.5.5-.22.5-.5-.22-.5-.5-.5Z" fill="#292D32"/><path d="M21 8.75H9c-.41 0-.75-.34-.75-.75s.34-.75.75-.75h12c.41 0 .75.34.75.75s-.34.75-.75.75Z" fill="#292D32"/></svg>