<svg xmlns="http://www.w3.org/2000/svg" width="24" height="24" fill="none" viewBox="0 0 24 24">
  <g opacity=".4">
    <path stroke="#292D32" stroke-linecap="round" stroke-linejoin="round" stroke-width="1.5" d="M12.14 15.07v-1.96c0-2.52 2.04-4.57 4.57-4.57h1.96"/>
    <path stroke="#292D32" stroke-linecap="round" stroke-linejoin="round" stroke-width="1.5" d="M5.621 8.55h1.96c2.52 0 4.57 2.04 4.57 4.57v4.13"/>
    <path stroke="#292D32" stroke-linecap="round" stroke-linejoin="round" stroke-width="1.5" d="M7.14 6.75l-1.8 1.8 1.8 1.8M16.86 6.75l1.8 1.8-1.8 1.8"/>
  </g>
  <path stroke="#292D32" stroke-linecap="round" stroke-linejoin="round" stroke-width="1.5" d="M9 22h6c5 0 7-2 7-7V9c0-5-2-7-7-7H9C4 2 2 4 2 9v6c0 5 2 7 7 7z"/>
</svg>
