<svg xmlns="http://www.w3.org/2000/svg" width="24" height="24" fill="none" viewBox="0 0 24 24">
  <path stroke="#292D32" stroke-linecap="round" stroke-linejoin="round" stroke-width="1.5" d="M22 12c0-5.52-4.48-10-10-10S2 6.48 2 12s4.48 10 10 10"/>
  <g opacity=".4">
    <path stroke="#292D32" stroke-linecap="round" stroke-linejoin="round" stroke-width="1.5" d="M8 3h1a28.424 28.424 0 000 18H8M15 3c.97 2.92 1.46 5.96 1.46 9"/>
    <path stroke="#292D32" stroke-linecap="round" stroke-linejoin="round" stroke-width="1.5" d="M3 16v-1c2.92.97 5.96 1.46 9 1.46M3 9a28.424 28.424 0 0118 0"/>
  </g>
  <path stroke="#292D32" stroke-linecap="round" stroke-linejoin="round" stroke-miterlimit="10" stroke-width="1.5" d="M19.211 15.74l-3.54 3.54c-.14.14-.27.4-.3.59l-.19 1.35c-.07.49.27.83.76.76l1.35-.19c.19-.03.46-.16.59-.3l3.54-3.54c.61-.61.9-1.32 0-2.22-.89-.89-1.6-.6-2.21.01zM18.7 16.25c.3 1.08 1.14 1.92 2.22 2.22"/>
</svg>
