<svg xmlns="http://www.w3.org/2000/svg" width="24" height="24" fill="none" viewBox="0 0 24 24">
  <path stroke="#292D32" stroke-linecap="round" stroke-linejoin="round" stroke-width="1.5" d="M17.35 9.05l-2.34 7.54c-.56 1.79-3.07 1.82-3.66.04l-.699-2.07c-.19-.57-.64-1.03-1.21-1.21l-2.08-.7c-1.77-.59-1.74-3.12.05-3.66l7.54-2.35c1.48-.45 2.87.94 2.4 2.41z" opacity=".4"/>
  <path stroke="#292D32" stroke-linecap="round" stroke-linejoin="round" stroke-width="1.5" d="M9 22h6c5 0 7-2 7-7V9c0-5-2-7-7-7H9C4 2 2 4 2 9v6c0 5 2 7 7 7z"/>
</svg>
