<svg width="24" height="24" fill="none" xmlns="http://www.w3.org/2000/svg"><path opacity=".4" d="M18 18.862h-.76c-.8 0-1.56.31-2.12.87l-1.71 1.69c-.78.77-2.05.77-2.83 0l-1.71-1.69c-.56-.56-1.33-.87-2.12-.87H6c-1.66 0-3-1.33-3-2.97V4.982c0-1.64 1.34-2.97 3-2.97h12c1.66 0 3 1.33 3 2.97v10.91c0 1.63-1.34 2.97-3 2.97Z" fill="#292D32"/><path d="M10.38 14.51H7.7c-.44 0-.85-.21-1.11-.57-.25-.34-.31-.76-.19-1.16.35-1.07 1.21-1.65 1.97-2.17.8-.54 1.25-.88 1.25-1.46a.939.939 0 1 0-1.88 0c0 .41-.34.75-.75.75s-.75-.34-.75-.75c0-1.34 1.09-2.44 2.44-2.44 1.35 0 2.44 1.09 2.44 2.44 0 1.41-1.06 2.13-1.91 2.71-.53.36-1.03.7-1.28 1.15h2.44c.41 0 .75.34.75.75s-.33.75-.74.75ZM16.04 14.509c-.41 0-.75-.34-.75-.75v-.69h-1.97c-.49 0-.94-.26-1.19-.68-.25-.43-.25-.96 0-1.38.68-1.17 1.47-2.5 2.19-3.66.32-.51.93-.74 1.5-.58.57.17.97.69.96 1.29v3.52H17c.41 0 .75.34.75.75s-.34.75-.75.75h-.21v.69c0 .41-.33.74-.75.74Zm-.75-5.87c-.59.96-1.2 1.99-1.75 2.93h1.75v-2.93Z" fill="#292D32"/></svg>