<svg width="24" height="24" fill="none" xmlns="http://www.w3.org/2000/svg"><path opacity=".4" d="M22 8.692c0 1.19-.19 2.29-.52 3.31-.21.67-.48 1.31-.8 1.9-.88-.93-2.11-1.5-3.48-1.5-2.65 0-4.8 2.15-4.8 4.8 0 1.23.47 2.35 1.23 3.2-.37.17-.71.31-1.01.41-.34.12-.9.12-1.24 0-2.41-.82-7.28-3.81-8.86-8.81-.33-1.02-.52-2.12-.52-3.31 0-3.09 2.49-5.59 5.56-5.59 1.81 0 3.43.88 4.44 2.23a5.549 5.549 0 0 1 4.44-2.23c3.07 0 5.56 2.5 5.56 5.59Z" fill="#292D32"/><path d="M20.69 13.918c-.01 0-.01-.01-.01-.01v-.01c-.88-.92-2.11-1.5-3.48-1.5-2.65 0-4.8 2.15-4.8 4.8 0 1.23.47 2.35 1.23 3.2.88.98 2.15 1.6 3.57 1.6 2.65 0 4.8-2.15 4.8-4.8 0-1.27-.5-2.42-1.31-3.28Zm-1.68 5.15c-.14.14-.34.22-.53.22s-.38-.08-.53-.22l-.74-.74-.76.77c-.15.14-.34.22-.53.22a.67.67 0 0 1-.28-.06.669.669 0 0 1-.25-.16c-.3-.3-.3-.77 0-1.06l.76-.77-.73-.74c-.3-.29-.3-.77 0-1.06.29-.29.76-.29 1.06 0l.73.74.71-.71c.3-.29.77-.29 1.06 0 .17.17.24.39.21.61-.01.17-.08.33-.21.45l-.71.71.74.74c.3.29.3.76 0 1.06Z" fill="#292D32"/></svg>