<svg width="24" height="24" fill="none" xmlns="http://www.w3.org/2000/svg"><path opacity=".4" d="M22 8.691c0 1.19-.19 2.29-.52 3.31-1.58 5-6.45 7.99-8.86 8.81-.34.12-.9.12-1.24 0-.64-.22-1.45-.59-2.32-1.11-.56-.33-.65-1.11-.19-1.57l11.28-11.28c.54-.54 1.49-.31 1.68.43.11.45.17.92.17 1.41Z" fill="#292D32"/><path d="M22.53 1.471a.754.754 0 0 0-1.06 0l-2.34 2.34c-.79-.45-1.71-.71-2.69-.71-1.81 0-3.43.88-4.44 2.23a5.549 5.549 0 0 0-4.44-2.23c-3.07 0-5.56 2.5-5.56 5.59 0 1.19.19 2.29.52 3.31.65 2.07 1.87 3.8 3.25 5.17l-4.3 4.3c-.29.29-.29.77 0 1.06.15.15.34.22.53.22s.38-.07.53-.22l20-20c.29-.29.29-.77 0-1.06Z" fill="#292D32"/></svg>