<svg width="24" height="24" fill="none" xmlns="http://www.w3.org/2000/svg"><path opacity=".4" d="M16.44 3.102c-1.81 0-3.43.88-4.44 2.23a5.549 5.549 0 0 0-4.44-2.23c-3.07 0-5.56 2.5-5.56 5.59 0 1.19.19 2.29.52 3.31 1.58 5 6.45 7.99 8.86 8.81.34.12.9.12 1.24 0 2.41-.82 7.28-3.81 8.86-8.81.33-1.02.52-2.12.52-3.31 0-3.09-2.49-5.59-5.56-5.59Z" fill="#292D32"/><path d="m21.77 20.682-.76-.76c.4-.6.63-1.32.63-2.09a3.82 3.82 0 1 0-3.82 3.82c.77 0 1.49-.23 2.09-.63l.76.76c.15.15.35.23.55.23.2 0 .4-.08.55-.23.31-.31.31-.8 0-1.1Z" fill="#292D32"/></svg>