<svg width="24" height="24" fill="none" xmlns="http://www.w3.org/2000/svg"><path opacity=".4" d="M21.65 10.03c-.39-.56-1.08-.88-1.87-.88h-4.1c-.27 0-.52-.11-.69-.31-.18-.2-.25-.48-.21-.77l.51-3.28c.22-.98-.43-2.08-1.41-2.41-.91-.34-1.98.12-2.41.77L7.25 9.42l-.12.2v8.84l.15.15 3.17 2.45c.42.42 1.37.65 2.04.65h3.9c1.34 0 2.69-1.01 2.99-2.24l2.46-7.49c.26-.71.19-1.4-.19-1.95Z" fill="#292D32"/><path d="M5.21 6.379H4.18c-1.55 0-2.18.6-2.18 2.08v10.06c0 1.48.63 2.08 2.18 2.08h1.03c1.55 0 2.18-.6 2.18-2.08V8.459c0-1.48-.63-2.08-2.18-2.08Z" fill="#292D32"/></svg>