<svg width="24" height="24" fill="none" xmlns="http://www.w3.org/2000/svg"><path opacity=".4" d="M19.86 8.092c0 .15 0 .3-.01.44-1.53-.57-3.33-.22-4.53.86a4.43 4.43 0 0 0-2.98-1.14c-2.46 0-4.46 2.01-4.46 4.49 0 2.83 1.42 4.9 2.78 6.24-.11-.01-.2-.03-.28-.06C7.79 18.032 2 14.352 2 8.092c0-2.76 2.22-4.99 4.96-4.99 1.63 0 3.07.78 3.97 1.99a4.957 4.957 0 0 1 3.97-1.99c2.74 0 4.96 2.23 4.96 4.99Z" fill="#292D32"/><path d="M18 9.59c-1.07 0-2.04.52-2.64 1.32-.6-.8-1.56-1.32-2.64-1.32-1.82 0-3.3 1.48-3.3 3.32 0 .71.11 1.36.31 1.96.94 2.97 3.83 4.74 5.26 5.23.2.07.53.07.74 0 1.43-.49 4.32-2.26 5.26-5.23.2-.61.31-1.26.31-1.96 0-1.84-1.48-3.32-3.3-3.32Z" fill="#292D32"/></svg>