<svg width="24" height="24" fill="none" xmlns="http://www.w3.org/2000/svg"><path opacity=".4" d="M14 5v5h-1c-1.65 0-3 1.35-3 3v1H5c-1.66 0-3-1.34-3-3V5c0-1.66 1.34-3 3-3h6c1.66 0 3 1.34 3 3Z" fill="#292D32"/><path d="M5.2 6.629c-.23 0-.47-.11-.61-.32a.753.753 0 0 1 .18-1.05c.78-.55 1.83-.56 2.62-.02.34.23.43.7.2 1.04-.23.34-.7.43-1.04.2a.8.8 0 0 0-.9.01c-.15.1-.3.14-.45.14ZM9.2 6.629c-.23 0-.47-.11-.61-.32a.753.753 0 0 1 .18-1.05c.78-.55 1.83-.56 2.62-.02.34.23.43.7.2 1.04-.23.34-.7.43-1.04.2a.8.8 0 0 0-.9.01c-.15.1-.3.14-.45.14ZM8.16 12.17H5.84c-.71 0-1.29-.58-1.29-1.29 0-1.9 1.55-3.45 3.45-3.45.78 0 1.55.27 2.16.76a.748.748 0 0 1-.93 1.17c-.35-.28-.77-.43-1.22-.43-1 0-1.83.76-1.94 1.74h2.1c.41 0 .75.34.75.75s-.35.75-.76.75ZM18.22 16.679a.363.363 0 0 0-.28-.12h-3.88c-.11 0-.21.04-.28.12-.07.08-.11.19-.09.29a2.328 2.328 0 0 0 2.31 2.08c1.19 0 2.18-.89 2.31-2.08a.376.376 0 0 0-.09-.29Z" fill="#292D32"/><path d="M19 10h-6c-1.65 0-3 1.35-3 3v6c0 1.65 1.35 3 3 3h6c1.65 0 3-1.35 3-3v-6c0-1.65-1.35-3-3-3Zm-6.41 3.17c.24-.34.71-.42 1.05-.18a.8.8 0 0 0 .9.01c.34-.24.81-.15 1.04.2.23.34.15.81-.2 1.04-.39.26-.84.4-1.29.4-.47 0-.93-.14-1.32-.42a.756.756 0 0 1-.18-1.05Zm3.41 7c-1.9 0-3.45-1.55-3.45-3.45 0-.71.58-1.29 1.29-1.29h4.32c.71 0 1.29.58 1.29 1.29 0 1.9-1.55 3.45-3.45 3.45Zm3.38-5.94c-.39.26-.84.4-1.29.4-.47 0-.93-.14-1.32-.42a.753.753 0 1 1 .87-1.23.8.8 0 0 0 .9.01c.34-.24.81-.15 1.04.2.23.35.14.81-.2 1.04Z" fill="#292D32"/></svg>