<svg width="24" height="24" fill="none" xmlns="http://www.w3.org/2000/svg"><path opacity=".4" d="M18.7 14.46c-.35.35-.55 1.06-.44 1.54l.69 3.01c.29 1.25.11 2.19-.51 2.64a1.5 1.5 0 0 1-.9.27c-.51 0-1.11-.19-1.77-.58l-2.93-1.74c-.45-.27-1.23-.27-1.68 0l-2.93 1.74c-1.11.65-2.06.76-2.67.31-.04-.03-.08-.06-.11-.1L18.8 8.2l1.17.2c1.06.18 1.77.66 2 1.36.22.7-.08 1.51-.84 2.27l-2.43 2.43ZM5.74 16c.11-.48-.09-1.19-.44-1.54l-2.43-2.43c-.76-.76-1.06-1.57-.84-2.27.23-.7.94-1.18 2-1.36l3.12-.52c.45-.08 1-.48 1.21-.89l1.72-3.45C10.58 2.55 11.26 2 12 2s1.42.55 1.92 1.54l1.72 3.45c.13.26.4.51.69.68L5.07 18.93 5.74 16Z" fill="#292D32"/><path d="M21.77 2.229c-.3-.3-.79-.3-1.09 0L2.23 20.689c-.3.3-.3.79 0 1.09a.758.758 0 0 0 1.08-.01l18.46-18.46c.31-.3.31-.78 0-1.08Z" fill="#292D32"/></svg>