<svg width="24" height="24" fill="none" xmlns="http://www.w3.org/2000/svg"><path d="M6.72 9.56h-.94A3.79 3.79 0 0 1 2 5.78C2 3.7 3.7 2 5.78 2h1.89a2.84 2.84 0 0 1 2.83 2.83V17.1c0 1.04-.85 1.89-1.89 1.89s-1.89-.85-1.89-1.89V9.56Z" stroke="#292D32" stroke-width="1.5" stroke-miterlimit="10" stroke-linecap="round" stroke-linejoin="round"/><path d="M5.78 6.72a.939.939 0 1 1 0-1.88M17.28 9.56h.94c2.08 0 3.78-1.7 3.78-3.78S20.3 2 18.22 2h-1.89a2.84 2.84 0 0 0-2.83 2.83V17.1c0 1.04.85 1.89 1.89 1.89s1.89-.85 1.89-1.89V9.56Z" stroke="#292D32" stroke-width="1.5" stroke-miterlimit="10" stroke-linecap="round" stroke-linejoin="round"/><path d="M18.22 6.72a.939.939 0 1 0 0-1.88M8.5 22v-3M15.5 22v-3" stroke="#292D32" stroke-width="1.5" stroke-miterlimit="10" stroke-linecap="round" stroke-linejoin="round"/></svg>