<svg width="24" height="24" fill="none" xmlns="http://www.w3.org/2000/svg"><path d="M3.5 7v10c0 3 1.47 5 5 5h7c3.47 0 5-2 5-5v-1.17c0-.53-.21-1.04-.59-1.41l-.83-.83c-.38-.38-.59-.88-.59-1.41V10c0-.55.45-1 1-1s1-.45 1-1V7c0-3-1.53-5-5-5h-7C4.97 2 3.5 4 3.5 7Z" stroke="#292D32" stroke-width="1.5" stroke-linecap="round" stroke-linejoin="round"/><path d="M7.99 21.97 7.98 19c0-1.11.89-2 2-2h4.01c1.1 0 1.99.89 2 1.99l.03 2.99M8.94 4.95l.05-2.89M11.94 4.95l.05-2.89M14.94 4.92l.05-2.88" stroke="#292D32" stroke-width="1.5" stroke-linecap="round" stroke-linejoin="round"/></svg>