<svg width="24" height="24" fill="none" xmlns="http://www.w3.org/2000/svg"><path d="M16 22.75H8c-3.65 0-5.75-2.1-5.75-5.75V7c0-3.65 2.1-5.75 5.75-5.75h8c3.65 0 5.75 2.1 5.75 5.75v10c0 3.65-2.1 5.75-5.75 5.75Zm-8-20C5.14 2.75 3.75 4.14 3.75 7v10c0 2.86 1.39 4.25 4.25 4.25h8c2.86 0 4.25-1.39 4.25-4.25V7c0-2.86-1.39-4.25-4.25-4.25H8Z" fill="#292D32"/><path d="M9 11.11a1.244 1.244 0 0 1-1.25-1.24V2c0-.41.34-.75.75-.75h7c.41 0 .75.34.75.75v7.86c0 .5-.29.95-.75 1.14-.45.2-.98.11-1.35-.23L12 8.8l-2.15 1.98c-.24.22-.54.33-.85.33Zm3-3.9c.3 0 .61.11.85.33l1.9 1.75V2.75h-5.5v6.54l1.9-1.75c.24-.22.55-.33.85-.33ZM17.5 14.75h-4.25c-.41 0-.75-.34-.75-.75s.34-.75.75-.75h4.25c.41 0 .75.34.75.75s-.34.75-.75.75ZM17.5 18.75H9c-.41 0-.75-.34-.75-.75s.34-.75.75-.75h8.5c.41 0 .75.34.75.75s-.34.75-.75.75Z" fill="#292D32"/></svg>