<svg width="24" height="24" fill="none" xmlns="http://www.w3.org/2000/svg"><path d="M12 22.252c-.82 0-1.64-.26-2.32-.77l-5.21-3.9a3.903 3.903 0 0 1-1.55-3.1V1.762h18.16v12.72c0 1.21-.58 2.37-1.55 3.1l-5.21 3.9c-.68.51-1.5.77-2.32.77Zm-7.58-19v11.22c0 .74.36 1.45.95 1.9l5.21 3.9c.84.63 2.01.63 2.85 0l5.21-3.9c.59-.45.95-1.16.95-1.9V3.252H4.42Z" fill="#292D32"/><path d="M22 3.25H2c-.41 0-.75-.34-.75-.75s.34-.75.75-.75h20c.41 0 .75.34.75.75s-.34.75-.75.75ZM16 8.75H8c-.41 0-.75-.34-.75-.75s.34-.75.75-.75h8c.41 0 .75.34.75.75s-.34.75-.75.75ZM16 13.75H8c-.41 0-.75-.34-.75-.75s.34-.75.75-.75h8c.41 0 .75.34.75.75s-.34.75-.75.75Z" fill="#292D32"/></svg>