<svg width="24" height="24" fill="none" xmlns="http://www.w3.org/2000/svg"><path d="M10.81 16.95c-.19 0-.38-.07-.53-.22l-1.5-1.5a.754.754 0 0 1 0-1.06c.29-.29.77-.29 1.06 0l.97.97 3.47-3.47c.29-.29.77-.29 1.06 0 .29.29.29.77 0 1.06l-4 4c-.14.15-.34.22-.53.22ZM14 6.75h-4c-.96 0-2.75 0-2.75-2.75S9.04 1.25 10 1.25h4c.96 0 2.75 0 2.75 2.75 0 .96 0 2.75-2.75 2.75Zm-4-4c-.99 0-1.25 0-1.25 1.25S9.01 5.25 10 5.25h4c1.25 0 1.25-.26 1.25-1.25 0-1.25-.26-1.25-1.25-1.25h-4Z" fill="#292D32"/><path d="M15 22.75H9c-5.62 0-6.75-2.58-6.75-6.75v-6c0-4.56 1.65-6.51 5.71-6.72.41-.02.77.29.79.71.02.42-.3.76-.71.78C5.2 4.93 3.75 5.78 3.75 10v6c0 3.7.73 5.25 5.25 5.25h6c4.52 0 5.25-1.55 5.25-5.25v-6c0-4.22-1.45-5.07-4.29-5.23a.75.75 0 1 1 .08-1.5c4.06.22 5.71 2.17 5.71 6.72v6c0 4.18-1.13 6.76-6.75 6.76Z" fill="#292D32"/></svg>