<svg width="24" height="24" fill="none" xmlns="http://www.w3.org/2000/svg"><path d="M12 22.75C6.07 22.75 1.25 17.93 1.25 12S6.07 1.25 12 1.25 22.75 6.07 22.75 12 17.93 22.75 12 22.75Zm0-20C6.9 2.75 2.75 6.9 2.75 12S6.9 21.25 12 21.25s9.25-4.15 9.25-9.25S17.1 2.75 12 2.75Z" fill="#292D32"/><path d="M8.991 15.619c-2 0-3.62-1.62-3.62-3.62a3.62 3.62 0 0 1 6.01-2.72c.31.27.34.75.07 1.06-.27.31-.75.34-1.06.07a2.12 2.12 0 0 0-1.4-.53 2.121 2.121 0 0 0 0 4.24c.51 0 1.01-.19 1.4-.53.31-.27.78-.24 1.06.07.27.31.24.79-.07 1.06-.67.58-1.52.9-2.39.9ZM15.991 15.619c-2 0-3.62-1.62-3.62-3.62a3.62 3.62 0 0 1 6.01-2.72c.31.27.34.75.07 1.06-.27.31-.75.34-1.06.07a2.12 2.12 0 0 0-1.4-.53 2.121 2.121 0 0 0 0 4.24c.51 0 1.01-.19 1.4-.53.31-.27.78-.24 1.06.07.27.31.24.79-.07 1.06-.67.58-1.52.9-2.39.9Z" fill="#292D32"/></svg>