<svg width="24" height="24" fill="none" xmlns="http://www.w3.org/2000/svg"><path d="M15 22.75H9c-5.43 0-7.75-2.32-7.75-7.75V9c0-5.43 2.32-7.75 7.75-7.75h5c.41 0 .75.34.75.75s-.34.75-.75.75H9C4.39 2.75 2.75 4.39 2.75 9v6c0 4.61 1.64 6.25 6.25 6.25h6c4.61 0 6.25-1.64 6.25-6.25v-5c0-.41.34-.75.75-.75s.75.34.75.75v5c0 5.43-2.32 7.75-7.75 7.75Z" fill="#292D32"/><path d="M22 10.748h-4c-3.42 0-4.75-1.33-4.75-4.75v-4c0-.3.18-.58.46-.69.28-.12.6-.05.82.16l8 8a.751.751 0 0 1-.53 1.28Zm-7.25-6.94v2.19c0 2.58.67 3.25 3.25 3.25h2.19l-5.44-5.44ZM9.42 18.949c-.87 0-2.89-1.06-3.51-3-.43-1.34.07-3.09 1.62-3.59.65-.21 1.34-.12 1.89.22.54-.34 1.24-.43 1.9-.22 1.55.5 2.05 2.25 1.62 3.59-.63 1.98-2.75 3-3.52 3Zm-2.09-3.45c.42 1.31 1.84 1.93 2.1 1.95.28-.03 1.68-.72 2.07-1.95.21-.66 0-1.5-.65-1.71-.27-.09-.64-.04-.81.22-.14.21-.36.33-.61.34a.72.72 0 0 1-.62-.31c-.21-.29-.57-.33-.83-.24-.64.2-.86 1.04-.65 1.7Z" fill="#292D32"/></svg>