<svg width="24" height="24" fill="none" xmlns="http://www.w3.org/2000/svg"><path d="M16 22.75H8c-3.65 0-5.75-2.1-5.75-5.75V7c0-3.65 2.1-5.75 5.75-5.75h8c3.65 0 5.75 2.1 5.75 5.75v10c0 3.65-2.1 5.75-5.75 5.75Zm-8-20C5.14 2.75 3.75 4.14 3.75 7v10c0 2.86 1.39 4.25 4.25 4.25h8c2.86 0 4.25-1.39 4.25-4.25V7c0-2.86-1.39-4.25-4.25-4.25H8Z" fill="#292D32"/><path d="M18.5 9.25h-2c-1.52 0-2.75-1.23-2.75-2.75v-2c0-.41.34-.75.75-.75s.75.34.75.75v2c0 .69.56 1.25 1.25 1.25h2c.41 0 .75.34.75.75s-.34.75-.75.75ZM10.269 18.718c-.88-.02-2.89-1.09-3.5-3-.43-1.33.07-3.09 1.61-3.59.66-.21 1.34-.12 1.88.22.54-.34 1.23-.43 1.9-.22 1.54.5 2.04 2.25 1.63 3.59-.62 1.98-2.75 3-3.52 3Zm-2.07-3.46c.42 1.29 1.85 1.93 2.11 1.96.27-.03 1.67-.72 2.05-1.96.2-.66-.01-1.5-.66-1.71-.26-.08-.63-.04-.8.22a.73.73 0 0 1-.61.34.71.71 0 0 1-.63-.32c-.2-.28-.56-.32-.82-.24-.64.21-.85 1.06-.64 1.71Z" fill="#292D32"/></svg>