<svg width="24" height="24" fill="none" xmlns="http://www.w3.org/2000/svg"><path d="M9 22.75c-5.43 0-7.75-2.32-7.75-7.75V9c0-5.43 2.32-7.75 7.75-7.75h5c.41 0 .75.34.75.75s-.34.75-.75.75H9C4.39 2.75 2.75 4.39 2.75 9v6c0 4.61 1.64 6.25 6.25 6.25.41 0 .75.34.75.75s-.34.75-.75.75ZM22 13.75c-.41 0-.75-.34-.75-.75v-3c0-.41.34-.75.75-.75s.75.34.75.75v3c0 .41-.34.75-.75.75Z" fill="#292D32"/><path d="M22 10.748h-4c-3.42 0-4.75-1.33-4.75-4.75v-4c0-.3.18-.58.46-.69.28-.12.6-.05.82.16l8 8a.751.751 0 0 1-.53 1.28Zm-7.25-6.94v2.19c0 2.58.67 3.25 3.25 3.25h2.19l-5.44-5.44ZM19.34 22.748H13.76c-1.67-.12-2.51-1.4-2.51-2.62 0-.98.55-2.01 1.61-2.43-.22-1.25.1-2.41.93-3.28 1.02-1.07 2.66-1.5 4.08-1.06 1.24.38 2.13 1.36 2.5 2.72 1.05.32 1.88 1.15 2.22 2.28.4 1.31.03 2.65-.96 3.51-.61.56-1.43.88-2.29.88Zm-5.55-3.74c-.76.07-1.04.64-1.04 1.12 0 .48.28 1.06 1.06 1.12h5.51c.51-.03.96-.18 1.32-.5.65-.57.7-1.38.52-1.96-.18-.58-.67-1.23-1.51-1.34a.753.753 0 0 1-.65-.62c-.22-1.35-.98-1.85-1.57-2.03-.87-.27-1.92 0-2.55.67-.43.45-.85 1.26-.38 2.55a.75.75 0 0 1-.45.96c-.09.02-.18.03-.26.03Z" fill="#292D32"/></svg>