<svg width="24" height="24" fill="none" xmlns="http://www.w3.org/2000/svg"><path d="M11 17.751c-.19 0-.38-.07-.53-.22a.754.754 0 0 1 0-1.06l.72-.72H7c-.41 0-.75-.34-.75-.75s.34-.75.75-.75h4.19l-.72-.72a.742.742 0 0 1-.22-.53c0-.19.07-.38.22-.53.29-.29.77-.29 1.06 0l2 2c.13.13.2.3.21.46v.16c-.02.14-.08.27-.18.39l-.04.04-2 2c-.14.16-.33.23-.52.23Z" fill="#292D32"/><path d="M15 22.75H9c-5.43 0-7.75-2.32-7.75-7.75V9c0-5.43 2.32-7.75 7.75-7.75h5c.41 0 .75.34.75.75s-.34.75-.75.75H9C4.39 2.75 2.75 4.39 2.75 9v6c0 4.61 1.64 6.25 6.25 6.25h6c4.61 0 6.25-1.64 6.25-6.25v-5c0-.41.34-.75.75-.75s.75.34.75.75v5c0 5.43-2.32 7.75-7.75 7.75Z" fill="#292D32"/><path d="M22 10.748h-4c-3.42 0-4.75-1.33-4.75-4.75v-4c0-.3.18-.58.46-.69.28-.12.6-.05.82.16l8 8a.751.751 0 0 1-.53 1.28Zm-7.25-6.94v2.19c0 2.58.67 3.25 3.25 3.25h2.19l-5.44-5.44Z" fill="#292D32"/></svg>