<svg width="24" height="24" fill="none" xmlns="http://www.w3.org/2000/svg"><path d="M7.08 16.098c-.36 0-.72-.09-1.05-.28a2.074 2.074 0 0 1-1.07-1.82v-3.57c0-.26-.17-.7-.38-.95l-2.52-2.65c-.47-.46-.81-1.26-.81-1.87v-1.55c0-1.21.92-2.17 2.1-2.17h8.9c1.16 0 2.1.94 2.1 2.1v1.48c0 .78-.45 1.64-.89 2.08l-2.93 2.59c-.23.19-.42.65-.42.99v2.9c0 .69-.42 1.46-.97 1.79l-.92.6c-.36.22-.75.33-1.14.33ZM3.35 2.748c-.34 0-.6.29-.6.67v1.55c0 .17.17.6.39.82l2.58 2.71c.38.47.75 1.24.75 1.93v3.57c0 .3.19.45.31.51.16.09.42.14.64 0l.93-.6c.12-.07.26-.35.26-.52v-2.9c0-.79.39-1.66.94-2.13l2.88-2.55c.18-.18.42-.67.42-.99v-1.48c0-.33-.27-.6-.6-.6h-8.9v.01Z" fill="#292D32"/><path d="M15 22.749H9c-5.43 0-7.75-2.32-7.75-7.75v-3c0-.41.34-.75.75-.75s.75.34.75.75v3c0 4.61 1.64 6.25 6.25 6.25h6c4.61 0 6.25-1.64 6.25-6.25v-6c0-2.9-.68-4.58-2.21-5.45-.16-.09-.69-.33-2.21-.57a.742.742 0 0 1-.62-.86c.07-.41.46-.69.86-.62 1.31.21 2.2.45 2.71.74 2.02 1.15 2.97 3.3 2.97 6.76v6c0 5.43-2.32 7.75-7.75 7.75Z" fill="#292D32"/><path d="M18 13.75h-5c-.41 0-.75-.34-.75-.75s.34-.75.75-.75h5c.41 0 .75.34.75.75s-.34.75-.75.75ZM18 17.75h-7c-.41 0-.75-.34-.75-.75s.34-.75.75-.75h7c.41 0 .75.34.75.75s-.34.75-.75.75Z" fill="#292D32"/></svg>