<svg width="24" height="24" fill="none" xmlns="http://www.w3.org/2000/svg"><path d="M12 14.75H7c-.41 0-.75-.34-.75-.75s.34-.75.75-.75h5c.41 0 .75.34.75.75s-.34.75-.75.75ZM7 6.708c-.19 0-.38-.07-.53-.22l-3.75-3.75a.754.754 0 0 1 0-1.06c.29-.29.77-.29 1.06 0l3.75 3.75c.29.29.29.77 0 1.06-.15.14-.34.22-.53.22Z" fill="#292D32"/><path d="M3.21 6.751c-.19 0-.38-.07-.53-.22a.754.754 0 0 1 0-1.06l3.75-3.75c.29-.29.77-.29 1.06 0 .29.29.29.77 0 1.06l-3.75 3.75c-.14.15-.34.22-.53.22ZM15 10.75H7c-.41 0-.75-.34-.75-.75s.34-.75.75-.75h8c.41 0 .75.34.75.75s-.34.75-.75.75Z" fill="#292D32"/><path d="M21 16.75c-.41 0-.75-.34-.75-.75V7.99c0-4.23-1.44-5.09-4.29-5.24H10c-.41 0-.75-.34-.75-.75s.34-.75.75-.75h6c4.1.22 5.75 2.17 5.75 6.74V16c0 .41-.34.75-.75.75ZM15 22.752H9c-5.62 0-6.75-2.59-6.75-6.77v-6.97c0-.41.34-.75.75-.75s.75.34.75.75v6.97c0 3.72.73 5.27 5.25 5.27h6c.41 0 .75.34.75.75s-.34.75-.75.75Z" fill="#292D32"/><path d="M15 22.75a.753.753 0 0 1-.75-.75v-3c0-2.42 1.33-3.75 3.75-3.75h3c.3 0 .58.18.69.46.11.28.05.6-.16.82l-6 6c-.14.14-.34.22-.53.22Zm3-6c-1.58 0-2.25.67-2.25 2.25v1.19l3.44-3.44H18Z" fill="#292D32"/></svg>