<svg width="24" height="24" fill="none" xmlns="http://www.w3.org/2000/svg"><path d="M9.56 18.75c-.41 0-.75-.34-.75-.75v-5c0-.41.34-.75.75-.75s.75.34.75.75v5c0 .41-.34.75-.75.75Z" fill="#292D32"/><path d="M12 16.25H7c-.41 0-.75-.34-.75-.75s.34-.75.75-.75h5c.41 0 .75.34.75.75s-.34.75-.75.75ZM8 5.75c-.41 0-.75-.34-.75-.75V2c0-.41.34-.75.75-.75s.75.34.75.75v3c0 .41-.34.75-.75.75ZM16 5.75c-.41 0-.75-.34-.75-.75V2c0-.41.34-.75.75-.75s.75.34.75.75v3c0 .41-.34.75-.75.75Z" fill="#292D32"/><path d="M8.85 22.81c-2.47 0-4.1-.54-5.12-1.7-1.18-1.33-1.37-3.32-1.41-5.09l-.13-6.17c-.1-4.73 1.47-6.7 5.57-7.01l8.04-.16h.04c4.11.14 5.75 2.04 5.85 6.78l.12 6.17c.04 1.77-.08 3.77-1.2 5.14-1.02 1.25-2.74 1.86-5.41 1.92l-6 .12h-.35ZM15.8 4.17l-7.97.16c-2.8.22-4.23 1.12-4.14 5.49l.13 6.17c.04 2.12.35 3.36 1.03 4.13.76.86 2.13 1.24 4.33 1.19l6-.12c2.19-.04 3.55-.48 4.28-1.37.65-.79.91-2.04.86-4.16l-.12-6.17c-.1-4.36-1.56-5.22-4.4-5.32Z" fill="#292D32"/></svg>