<svg width="24" height="24" fill="none" xmlns="http://www.w3.org/2000/svg"><path d="M8 5.75c-.41 0-.75-.34-.75-.75V2c0-.41.34-.75.75-.75s.75.34.75.75v3c0 .41-.34.75-.75.75ZM16 5.75c-.41 0-.75-.34-.75-.75V2c0-.41.34-.75.75-.75s.75.34.75.75v3c0 .41-.34.75-.75.75ZM15 11.75H7c-.41 0-.75-.34-.75-.75s.34-.75.75-.75h8c.41 0 .75.34.75.75s-.34.75-.75.75ZM12 15.75H7c-.41 0-.75-.34-.75-.75s.34-.75.75-.75h5c.41 0 .75.34.75.75s-.34.75-.75.75Z" fill="#292D32"/><path d="M15 22.75H9c-5.62 0-6.75-2.65-6.75-6.93V9.65c0-4.74 1.6-6.67 5.71-6.9H16c4.15.23 5.75 2.16 5.75 6.9V16c0 .41-.34.75-.75.75s-.75-.34-.75-.75V9.65c0-4.36-1.45-5.24-4.29-5.4H8c-2.8.16-4.25 1.04-4.25 5.4v6.17c0 3.83.73 5.43 5.25 5.43h6c.41 0 .75.34.75.75s-.34.75-.75.75Z" fill="#292D32"/><path d="M15 22.75a.753.753 0 0 1-.75-.75v-3c0-2.42 1.33-3.75 3.75-3.75h3c.3 0 .58.18.69.46.12.28.05.6-.16.82l-6 6a.75.75 0 0 1-.53.22Zm3-6c-1.58 0-2.25.67-2.25 2.25v1.19l3.44-3.44H18Z" fill="#292D32"/></svg>