<svg width="24" height="24" fill="none" xmlns="http://www.w3.org/2000/svg"><path d="M8 22h8c4.02 0 4.74-1.61 4.95-3.57l.75-8C21.97 7.99 21.27 6 17 6H7c-4.27 0-4.97 1.99-4.7 4.43l.75 8C3.26 20.39 3.98 22 8 22Z" stroke="#292D32" stroke-width="1.5" stroke-miterlimit="10" stroke-linecap="round" stroke-linejoin="round"/><path opacity=".4" d="M8 6v-.8C8 3.43 8 2 11.2 2h1.6C16 2 16 3.43 16 5.2V6" stroke="#292D32" stroke-width="1.5" stroke-miterlimit="10" stroke-linecap="round" stroke-linejoin="round"/><g opacity=".4" stroke="#292D32" stroke-width="1.5" stroke-miterlimit="10" stroke-linecap="round" stroke-linejoin="round"><path d="M14 13v1.02c0 1.09-.01 1.98-2 1.98-1.98 0-2-.88-2-1.97V13c0-1 0-1 1-1h2c1 0 1 0 1 1ZM21.65 11A16.484 16.484 0 0 1 14 14.02M2.617 11.27c2.25 1.54 4.79 2.47 7.38 2.76"/></g></svg>