<svg width="24" height="24" fill="none" xmlns="http://www.w3.org/2000/svg"><path opacity=".4" d="M12.93 4.79H7.35C3.25 4.79 2 6.04 2 10.14v3.72c0 4.1 1.25 5.35 5.35 5.35h5.58c4.1 0 5.35-1.25 5.35-5.35v-3.72c0-4.1-1.25-5.35-5.35-5.35Z" fill="#292D32"/><path d="M20.42 9c-.14-.01-.32-.02-.52-.02-.39 0-.7.31-.7.7v4.65c0 .39.31.7.7.7.2 0 .37-.01.54-.02C22 14.83 22 13.73 22 12.93v-1.86c0-.8 0-1.9-1.58-2.07ZM6.38 14.748c-.06 0-.12-.01-.18-.02-.4-.1-.65-.51-.55-.91.3-1.19.3-2.45 0-3.64a.748.748 0 1 1 1.45-.36c.36 1.43.36 2.94 0 4.36-.08.34-.39.57-.72.57ZM9.88 14.749c-.06 0-.12-.01-.18-.02-.4-.1-.65-.51-.55-.91.3-1.19.3-2.45 0-3.64-.1-.4.14-.81.55-.91.4-.1.81.14.91.55.36 1.43.36 2.94 0 4.36-.09.34-.4.57-.73.57ZM13.38 14.749c-.06 0-.12-.01-.18-.02-.4-.1-.65-.51-.55-.91.3-1.19.3-2.45 0-3.64-.1-.4.14-.81.55-.91.4-.1.81.14.91.55.36 1.43.36 2.94 0 4.36-.09.34-.4.57-.73.57Z" fill="#292D32"/></svg>