<svg width="24" height="24" fill="none" xmlns="http://www.w3.org/2000/svg"><path d="M20.42 9c-.14-.01-.32-.02-.52-.02-.39 0-.7.31-.7.7v4.65c0 .39.31.7.7.7.2 0 .37-.01.54-.02C22 14.83 22 13.73 22 12.93v-1.86c0-.8 0-1.9-1.58-2.07Z" fill="#292D32"/><path opacity=".4" d="M14.5 4.87 5.52 19.09C2.87 18.71 2 17.27 2 13.86v-3.72c0-4.1 1.25-5.35 5.35-5.35h5.58c.58 0 1.1.02 1.57.08ZM18.28 10.139v3.72c0 2.95-2.4 5.35-5.35 5.35H7.45l8.78-13.9c1.52.69 2.05 2.15 2.05 4.83Z" fill="#292D32"/><path d="M4 22.25c-.14 0-.28-.04-.4-.12a.736.736 0 0 1-.23-1.03l12-19c.22-.35.69-.45 1.03-.23.35.22.46.68.23 1.03l-12 19c-.14.23-.38.35-.63.35Z" fill="#292D32"/></svg>