<svg width="24" height="24" fill="none" xmlns="http://www.w3.org/2000/svg"><path opacity=".4" d="M5.33 19.421c-.11 0-.23-.03-.33-.08l-2.22-1.11a.76.76 0 0 1-.41-.67v-2.78c0-.41.34-.75.75-.75s.75.34.75.75v2.31l1.81.9c.37.19.52.64.34 1.01-.15.26-.41.42-.69.42Z" fill="#292D32"/><path d="M12 22.749a.88.88 0 0 1-.17-.02.67.67 0 0 1-.18-.07l-2.21-1.1a.763.763 0 0 1-.34-1.01c.19-.37.64-.52 1.01-.34l1.14.57v-1.56c0-.41.34-.75.75-.75s.75.34.75.75v1.56l1.14-.57c.37-.18.82-.03 1.01.34.19.37.04.82-.34 1.01l-2.21 1.1c-.06.03-.12.05-.18.07-.06.01-.11.02-.17.02Z" fill="#292D32"/><path opacity=".4" d="M18.67 19.42c-.27 0-.54-.15-.67-.41a.745.745 0 0 1 .34-1.01l1.81-.9v-2.31c0-.41.34-.75.75-.75s.75.34.75.75v2.78c0 .28-.16.54-.41.67l-2.22 1.11c-.13.04-.24.07-.35.07Z" fill="#292D32"/><path d="M12 14.42c-.41 0-.75-.34-.75-.75v-2.31l-1.81-.9a.763.763 0 0 1-.34-1.01c.19-.37.64-.52 1.01-.34l1.89.94 1.89-.94c.37-.18.82-.04 1.01.34.19.37.04.82-.34 1.01l-1.81.9v2.31c0 .41-.34.75-.75.75Z" fill="#292D32"/><path opacity=".4" d="M3.11 9.97c-.41 0-.75-.34-.75-.75V6.45c0-.06.01-.12.02-.17.02-.08.05-.15.09-.22.03-.05.06-.09.1-.13.04-.04.09-.08.14-.11.02-.01.05-.03.07-.04l2.21-1.1c.37-.18.82-.04 1.01.34.19.37.04.82-.34 1.01l-.88.44.88.44c.37.19.52.64.34 1.01a.76.76 0 0 1-1.01.34l-1.14-.57v1.56c.01.39-.32.72-.74.72Z" fill="#292D32"/><path d="M14.22 3.86c-.11 0-.23-.03-.33-.08L12 2.84l-1.89.94c-.37.19-.82.04-1.01-.34a.745.745 0 0 1 .34-1.01l2.22-1.11c.21-.11.46-.11.67 0l2.22 1.11c.37.19.52.64.34 1.01-.13.27-.39.42-.67.42Z" fill="#292D32"/><path opacity=".4" d="M20.89 9.97c-.41 0-.75-.34-.75-.75V7.66L19 8.23c-.37.19-.82.04-1.01-.34a.745.745 0 0 1 .34-1.01l.88-.44-.88-.44a.763.763 0 0 1-.34-1.01.76.76 0 0 1 1.01-.34l2.21 1.1c.02.01.05.02.07.04.06.03.11.08.16.13l.09.12c.04.07.07.14.09.22.01.06.02.12.02.17V9.2c0 .44-.34.77-.75.77Z" fill="#292D32"/></svg>