<svg width="24" height="24" fill="none" xmlns="http://www.w3.org/2000/svg"><path opacity=".4" d="m9.83 5.571-3.47 2.11-1.58-2.6c-.58-.95-.28-2.21.68-2.79.95-.58 2.21-.28 2.79.68l1.58 2.6ZM19.27 17.64l-.01.01-1.3.79-1.3.79-1.3.79-1.3.79-1.3.79h-.01c-1.31.8-2.93.32-3.6-1.05l-2.08-4.24c-.73-1.48-.5-3.28.62-4.51.26-.28.56-.54.91-.75l3.21-1.95c.36-.21.72-.37 1.09-.46 1.6-.44 3.3.18 4.28 1.51l2.81 3.8c.91 1.25.59 2.9-.72 3.69Z" fill="#292D32"/><path d="M12.9 8.662c-.37.09-.73.24-1.09.46l-3.21 1.95c-.36.21-.65.47-.91.75-.01 0-.01-.01-.01-.01l-1.65-2.73c-.29-.48-.14-1.11.33-1.39l3.47-2.11c.48-.29 1.1-.14 1.39.33l1.66 2.73c.01.01.02.01.02.02ZM16.66 19.23l-1.3.79-1.67-2.75c-.21-.36-.1-.82.25-1.05.37-.21.83-.1 1.05.25l1.67 2.76ZM14.06 20.82l-1.3.79-1.67-2.75a.765.765 0 0 1 .25-1.05c.36-.21.82-.1 1.05.25l1.67 2.76ZM19.26 17.651l-1.3.79-1.67-2.75c-.21-.36-.1-.82.25-1.05.37-.21.83-.1 1.05.25l1.67 2.76Z" fill="#292D32"/></svg>