<svg width="24" height="24" fill="none" xmlns="http://www.w3.org/2000/svg"><path opacity=".4" d="M16.19 2H7.81C4.17 2 2 4.17 2 7.81v8.37C2 19.83 4.17 22 7.81 22h8.37c3.64 0 5.81-2.17 5.81-5.81V7.81C22 4.17 19.83 2 16.19 2Z" fill="#292D32"/><path d="m13.06 12 2.3-2.3c.29-.29.29-.77 0-1.06a.754.754 0 0 0-1.06 0l-2.3 2.3-2.3-2.3a.754.754 0 0 0-1.06 0c-.29.29-.29.77 0 1.06l2.3 2.3-2.3 2.3c-.29.29-.29.77 0 1.06.15.15.34.22.53.22s.38-.07.53-.22l2.3-2.3 2.3 2.3c.15.15.34.22.53.22s.38-.07.53-.22c.29-.29.29-.77 0-1.06l-2.3-2.3Z" fill="#292D32"/></svg>