<svg width="24" height="24" fill="none" xmlns="http://www.w3.org/2000/svg"><path opacity=".6" d="M17.79 10.472v1.53H2v-1.53c0-2.32 1.89-4.21 4.21-4.21h7.37c2.32 0 4.21 1.89 4.21 4.21Z" fill="#292D32"/><path opacity=".4" d="M17.79 12v5.79c0 2.32-1.89 4.21-4.21 4.21H6.21C3.89 22 2 20.11 2 17.79V12h15.79Z" fill="#292D32"/><path d="M5.5 5.121c-.41 0-.75-.34-.75-.75v-1.75c0-.41.34-.75.75-.75s.75.34.75.75v1.75c0 .42-.34.75-.75.75ZM9.5 5.121c-.41 0-.75-.34-.75-.75v-1.75c0-.41.34-.75.75-.75s.75.34.75.75v1.75c0 .42-.34.75-.75.75ZM13.5 5.121c-.41 0-.75-.34-.75-.75v-1.75c0-.41.34-.75.75-.75s.75.34.75.75v1.75c0 .42-.34.75-.75.75ZM21.65 14.322c0 2.15-1.74 3.89-3.89 3.89v-7.79c2.14 0 3.89 1.75 3.89 3.9Z" fill="#292D32"/></svg>