<svg width="24" height="24" fill="none" xmlns="http://www.w3.org/2000/svg"><path opacity=".4" d="M16.19 2H7.81C4.17 2 2 4.17 2 7.81v8.37C2 19.83 4.17 22 7.81 22h8.37c3.64 0 5.81-2.17 5.81-5.81V7.81C22 4.17 19.83 2 16.19 2Z" fill="#292D32"/><path d="M15.5 10.131a1.88 1.88 0 1 0 0-3.76 1.88 1.88 0 0 0 0 3.76ZM8.5 10.131a1.88 1.88 0 1 0 0-3.76 1.88 1.88 0 0 0 0 3.76ZM15.6 12.922H8.4c-.7 0-1.27.57-1.27 1.28 0 2.69 2.19 4.88 4.88 4.88s4.88-2.19 4.88-4.88c-.01-.7-.59-1.28-1.29-1.28Z" fill="#292D32"/></svg>