<svg width="24" height="24" fill="none" xmlns="http://www.w3.org/2000/svg"><path opacity=".4" d="M22 7.81v8.38c0 3.64-2.17 5.81-5.81 5.81H7.81c-.2 0-.4-.01-.59-.02-1.23-.08-2.27-.43-3.09-1.03-.42-.29-.79-.66-1.08-1.08C2.36 18.92 2 17.68 2 16.19V7.81c0-3.44 1.94-5.57 5.22-5.78.19-.02.39-.03.59-.03h8.38c1.49 0 2.73.36 3.68 1.05.42.29.79.66 1.08 1.08.69.95 1.05 2.19 1.05 3.68Z" fill="#292D32"/><path d="M8.16 6.648h7.67c.64 0 1.16.52 1.16 1.16v1.28c0 .47-.29 1.05-.58 1.34l-2.5 2.21c-.35.29-.58.87-.58 1.34v2.5c0 .35-.23.81-.52.99l-.81.51c-.76.47-1.8-.06-1.8-.99v-3.08c0-.41-.23-.93-.47-1.22l-2.21-2.33c-.29-.28-.52-.81-.52-1.16v-1.33c0-.7.52-1.22 1.16-1.22Z" fill="#292D32"/></svg>