<svg width="24" height="24" fill="none" xmlns="http://www.w3.org/2000/svg"><path d="M17.92 10.12a4.42 4.42 0 0 0-1.04-.12c-2.62 0-4.75 2.13-4.75 4.75 0 .89.25 1.73.69 2.45.37.62.88 1.15 1.5 1.53.74.49 1.62.77 2.56.77 1.74 0 3.25-.93 4.07-2.3.44-.72.68-1.56.68-2.45a4.74 4.74 0 0 0-3.71-4.63Zm1.33 4.01-2.54 2.34c-.14.13-.33.2-.51.2-.19 0-.38-.07-.53-.22l-1.17-1.17a.754.754 0 0 1 0-1.06c.29-.29.77-.29 1.06 0l.66.66 2.01-1.85c.31-.28.78-.26 1.06.04.28.31.26.78-.04 1.06Z" fill="#292D32"/><path opacity=".4" d="M5.41 2h13.17c1.1 0 2 .91 2 2.02v2.22c0 .81-.5 1.82-1 2.32l-4.29 3.84c-.6.51-1 1.52-1 2.32v4.34c0 .61-.4 1.41-.9 1.72l-1.4.91c-1.3.81-3.09-.1-3.09-1.72v-5.35c0-.71-.4-1.62-.8-2.12L4.31 8.46c-.5-.51-.9-1.41-.9-2.02V4.12c.01-1.21.91-2.12 2-2.12Z" fill="#292D32"/></svg>