<svg width="24" height="24" fill="none" xmlns="http://www.w3.org/2000/svg"><path d="m19.75 15.41-.85-.85c.44-.67.7-1.46.7-2.32C19.6 9.9 17.7 8 15.36 8c-2.34 0-4.24 1.9-4.24 4.24 0 2.34 1.9 4.24 4.24 4.24.86 0 1.66-.26 2.32-.7l.85.85c.17.17.39.25.61.25.22 0 .44-.08.61-.25.33-.34.33-.89 0-1.22Z" fill="#292D32"/><path opacity=".4" d="M5.41 2h13.17c1.1 0 2 .91 2 2.02v2.22c0 .81-.5 1.82-1 2.32l-4.29 3.84c-.6.51-1 1.52-1 2.32v4.34c0 .61-.4 1.41-.9 1.72l-1.4.91c-1.3.81-3.09-.1-3.09-1.72v-5.35c0-.71-.4-1.62-.8-2.12L4.31 8.46c-.5-.51-.9-1.41-.9-2.02V4.12c.01-1.21.91-2.12 2-2.12Z" fill="#292D32"/></svg>