<svg width="24" height="24" fill="none" xmlns="http://www.w3.org/2000/svg"><path opacity=".4" d="M22 20.07v-7.89C22 6.58 17.5 2 12 2S2 6.58 2 12.18v7.89c0 1.26.75 1.6 1.67.76l1-.91c.37-.34.97-.34 1.34 0l2 1.83c.37.34.97.34 1.34 0l2-1.83c.37-.34.97-.34 1.34 0l2 1.83c.37.34.97.34 1.34 0l2-1.83c.37-.34.97-.34 1.34 0l1 .91c.88.84 1.63.5 1.63-.76Z" fill="#292D32"/><path d="M12 16.07c-1.57 0-3.14-.49-4.45-1.47a.75.75 0 0 1 .9-1.2 5.94 5.94 0 0 0 7.1 0 .75.75 0 0 1 .9 1.2A7.423 7.423 0 0 1 12 16.07ZM12 11.381a2.38 2.38 0 1 0 0-4.76 2.38 2.38 0 0 0 0 4.76Z" fill="#292D32"/></svg>