<svg width="24" height="24" fill="none" xmlns="http://www.w3.org/2000/svg"><path opacity=".4" d="M16.19 2H7.81C4.17 2 2 4.17 2 7.81v8.37C2 19.83 4.17 22 7.81 22h8.37c3.64 0 5.81-2.17 5.81-5.81V7.81C22 4.17 19.83 2 16.19 2Z" fill="#292D32"/><path d="M17 8.25H7c-.41 0-.75-.34-.75-.75s.34-.75.75-.75h10c.41 0 .75.34.75.75s-.34.75-.75.75ZM17 12.75H7c-.41 0-.75-.34-.75-.75s.34-.75.75-.75h10c.41 0 .75.34.75.75s-.34.75-.75.75ZM17 17.25H7c-.41 0-.75-.34-.75-.75s.34-.75.75-.75h10c.41 0 .75.34.75.75s-.34.75-.75.75Z" fill="#292D32"/></svg>
