<svg width="24" height="24" fill="none" xmlns="http://www.w3.org/2000/svg"><path opacity=".4" d="M12 22c5.523 0 10-4.477 10-10S17.523 2 12 2 2 6.477 2 12s4.477 10 10 10Z" fill="#292D32"/><path d="M12 13.75c.41 0 .75-.34.75-.75V8c0-.41-.34-.75-.75-.75s-.75.34-.75.75v5c0 .41.34.75.75.75ZM12.92 15.619c-.05-.12-.12-.23-.21-.33-.1-.09-.21-.16-.33-.21a1 1 0 0 0-.76 0c-.12.05-.23.12-.33.21-.09.1-.16.21-.21.33-.05.12-.08.25-.08.38s.03.26.08.38c.05.13.12.23.21.33.1.09.21.16.33.21.12.05.25.08.38.08s.26-.03.38-.08.23-.12.33-.21c.09-.1.16-.2.21-.33.05-.12.08-.25.08-.38s-.03-.26-.08-.38Z" fill="#292D32"/></svg>