<svg width="24" height="24" fill="none" xmlns="http://www.w3.org/2000/svg"><path opacity=".4" d="M16.19 2H7.81C4.17 2 2 4.17 2 7.81v8.37C2 19.83 4.17 22 7.81 22h8.37c3.64 0 5.81-2.17 5.81-5.81V7.81C22 4.17 19.83 2 16.19 2Z" fill="#292D32"/><path d="M12 15.881a3.88 3.88 0 1 0 0-7.76 3.88 3.88 0 0 0 0 7.76ZM17 7.5a.99.99 0 0 1-.71-.29c-.09-.1-.16-.21-.21-.33A.995.995 0 0 1 16 6.5c0-.13.03-.26.08-.38.05-.13.12-.23.21-.33.23-.23.58-.34.9-.27.07.01.13.03.19.06.06.02.12.05.18.09.05.03.1.08.15.12.09.1.16.2.21.33.05.12.08.25.08.38s-.03.26-.08.38-.12.23-.21.33c-.1.09-.21.16-.33.21-.12.05-.25.08-.38.08Z" fill="#292D32"/></svg>