<svg width="24" height="24" fill="none" xmlns="http://www.w3.org/2000/svg"><path opacity=".4" d="m19.53 5.53-14 14c-.02.02-.03.03-.05.04-.38-.32-.73-.67-1.05-1.05A9.903 9.903 0 0 1 2 12C2 6.48 6.48 2 12 2c2.49 0 4.77.91 6.52 2.43.38.32.73.67 1.05 1.05-.01.02-.02.03-.04.05ZM22 12.002c0 5.52-4.48 10-10 10-1.99 0-3.84-.58-5.4-1.6l13.8-13.8a9.815 9.815 0 0 1 1.6 5.4Z" fill="#292D32"/><path d="M21.77 2.229c-.3-.3-.79-.3-1.09 0L2.23 20.689c-.3.3-.3.79 0 1.09a.758.758 0 0 0 1.08-.01l18.46-18.46c.31-.3.31-.78 0-1.08Z" fill="#292D32"/></svg>