<svg width="24" height="24" fill="none" xmlns="http://www.w3.org/2000/svg"><path d="M3 16.5c-.41 0-.75-.34-.75-.75v-7.5c0-.41.34-.75.75-.75s.75.34.75.75v7.5c0 .41-.34.75-.75.75Z" fill="#292D32"/><path opacity=".4" d="M7.5 19c-.41 0-.75-.34-.75-.75V5.75c0-.41.34-.75.75-.75s.75.34.75.75v12.5c0 .41-.34.75-.75.75Z" fill="#292D32"/><path d="M12 21.5c-.41 0-.75-.34-.75-.75V3.25c0-.41.34-.75.75-.75s.75.34.75.75v17.5c0 .41-.34.75-.75.75Z" fill="#292D32"/><path opacity=".4" d="M16.5 19c-.41 0-.75-.34-.75-.75V5.75c0-.41.34-.75.75-.75s.75.34.75.75v12.5c0 .41-.34.75-.75.75Z" fill="#292D32"/><path d="M21 16.5c-.41 0-.75-.34-.75-.75v-7.5c0-.41.34-.75.75-.75s.75.34.75.75v7.5c0 .41-.34.75-.75.75Z" fill="#292D32"/></svg>