<svg width="24" height="24" fill="none" xmlns="http://www.w3.org/2000/svg"><path opacity=".4" d="M19.1 20.3c-.2 0-.4-.1-.5-.2-.3-.3-.3-.8 0-1.1 1.7-1.7 2.6-4 2.6-6.5 0-5.1-4.1-9.2-9.2-9.2s-9.2 4.1-9.2 9.2c0 2.4.9 4.7 2.6 6.5.3.3.3.8 0 1.1-.3.3-.8.3-1.1 0-2-2-3.1-4.7-3.1-7.5 0-6 4.9-10.9 10.8-10.9s10.8 4.8 10.8 10.8c0 2.8-1.1 5.5-3.1 7.5-.2.2-.4.3-.6.3Z" fill="#292D32"/><path d="M12 22a3.9 3.9 0 1 0 0-7.8 3.9 3.9 0 0 0 0 7.8ZM16 8.5c-1.1 0-2 .9-2 2v.8c0 .7.6 1.2 1.2 1.2h.8c1.1 0 2-.9 2-2s-.9-2-2-2Z" fill="#292D32"/></svg>