<svg width="24" height="24" fill="none" xmlns="http://www.w3.org/2000/svg"><path opacity=".4" d="M16.19 2H7.82C4.18 2 2.01 4.17 2.01 7.81v8.37c0 3.64 2.17 5.81 5.81 5.81h8.37c3.64 0 5.81-2.17 5.81-5.81V7.81C22 4.17 19.83 2 16.19 2Z" fill="#292D32"/><path d="M16.86 8.458c-.84-.08-1.61-.13-2.36-.18l-.08-.48c-.07-.48-.22-1.47-1.73-1.47H11.3c-1.49 0-1.65.95-1.73 1.46l-.08.47c-.43.03-.85.05-1.28.09l-1.09.11c-.38.04-.65.37-.61.75.04.35.33.62.68.62h.07l1.08-.11c.6-.05 1.21-.1 1.81-.13 1.22-.05 2.44-.03 3.67.03.91.04 1.86.11 2.9.21h.06c.35 0 .65-.27.68-.62a.659.659 0 0 0-.6-.75ZM15.83 11.099a.9.9 0 0 0-.67-.29H8.84c-.25 0-.5.11-.67.29a.93.93 0 0 0-.24.69l.31 3.96c.06.85.13 1.91 2.05 1.91h3.42c1.92 0 1.99-1.06 2.05-1.91l.31-3.96a.93.93 0 0 0-.24-.69Z" fill="#292D32"/></svg>