<svg width="24" height="24" fill="none" xmlns="http://www.w3.org/2000/svg"><path opacity=".4" d="M21.08 8.58v6.84c0 1.12-.6 2.16-1.57 2.73l-5.94 3.43c-.97.56-2.17.56-3.15 0l-5.94-3.43a3.15 3.15 0 0 1-1.57-2.73V8.58c0-1.12.6-2.16 1.57-2.73l5.94-3.43c.97-.56 2.17-.56 3.15 0l5.94 3.43c.97.57 1.57 1.6 1.57 2.73Z" fill="#292D32"/><path d="M12 13.75c-.41 0-.75-.34-.75-.75V7.75c0-.41.34-.75.75-.75s.75.34.75.75V13c0 .41-.34.75-.75.75ZM12 17.249c-.13 0-.26-.03-.38-.08-.13-.05-.23-.12-.33-.21-.09-.1-.16-.21-.22-.33a.986.986 0 0 1-.07-.38c0-.26.1-.52.29-.71.1-.09.2-.16.33-.21.37-.16.81-.07 1.09.21.09.1.16.2.21.33.05.12.08.25.08.38s-.03.26-.08.38-.12.23-.21.33a.99.99 0 0 1-.71.29Z" fill="#292D32"/></svg>