<svg width="24" height="24" fill="none" xmlns="http://www.w3.org/2000/svg"><path opacity=".4" d="M17.18 5.25c-1.71 0-3.75.65-3.75 3.75v6c0 3.1 2.04 3.75 3.75 3.75s3.75-.65 3.75-3.75V9c0-3.1-2.04-3.75-3.75-3.75ZM6.82 5.25c-1.71 0-3.75.65-3.75 3.75v6c0 3.1 2.04 3.75 3.75 3.75s3.75-.65 3.75-3.75V9c0-3.1-2.04-3.75-3.75-3.75Z" fill="#292D32"/><path d="M13.43 11.25h-2.86v1.5h2.86v-1.5ZM22.5 15.25c-.41 0-.75-.34-.75-.75v-5c0-.41.34-.75.75-.75s.75.34.75.75v5c0 .41-.34.75-.75.75ZM1.5 15.25c-.41 0-.75-.34-.75-.75v-5c0-.41.34-.75.75-.75s.75.34.75.75v5c0 .41-.34.75-.75.75Z" fill="#292D32"/></svg>