<svg width="24" height="24" fill="none" xmlns="http://www.w3.org/2000/svg"><path opacity=".4" d="M19.09 12.588c-.16 0-.32-.05-.46-.16-4.03-3.11-9.24-3.11-13.27 0-.33.25-.8.19-1.05-.13-.25-.33-.19-.8.13-1.05 4.59-3.55 10.52-3.55 15.1 0 .33.25.39.72.13 1.05-.13.19-.35.29-.58.29Z" fill="#292D32"/><path d="M22 9.108c-.16 0-.32-.05-.46-.16-5.8-4.48-13.29-4.48-19.08 0-.33.25-.8.19-1.05-.13-.25-.33-.19-.8.13-1.05 6.35-4.91 14.56-4.91 20.92 0 .33.25.39.72.13 1.05-.14.19-.37.29-.59.29ZM17.21 16.241c-.16 0-.32-.05-.46-.16-2.88-2.23-6.61-2.23-9.5 0-.33.25-.8.19-1.05-.13-.25-.33-.19-.8.13-1.05 3.44-2.66 7.89-2.66 11.33 0 .33.25.39.72.13 1.05a.72.72 0 0 1-.58.29Z" fill="#292D32"/><path opacity=".4" d="M14.6 19.9c-.16 0-.32-.05-.46-.16-1.3-1.01-2.99-1.01-4.29 0-.33.25-.8.19-1.05-.13-.25-.33-.19-.8.13-1.05 1.86-1.44 4.26-1.44 6.12 0 .33.25.39.72.13 1.05a.72.72 0 0 1-.58.29Z" fill="#292D32"/></svg>