<svg width="24" height="24" fill="none" xmlns="http://www.w3.org/2000/svg"><path d="M2 17.06h10" stroke="#292D32" stroke-width="1.5" stroke-miterlimit="10" stroke-linecap="round" stroke-linejoin="round"/><path d="M4.22 13.5h5.56c1.78 0 2.22.44 2.22 2.2v4.11c0 1.76-.44 2.2-2.22 2.2H4.22c-1.78 0-2.22-.44-2.22-2.2V15.7c0-1.76.44-2.2 2.22-2.2ZM22 15c0 3.87-3.13 7-7 7l1.05-1.75M2 9c0-3.87 3.13-7 7-7L7.95 3.75M18.5 11a4.5 4.5 0 1 0 0-9 4.5 4.5 0 0 0 0 9Z" stroke="#292D32" stroke-width="1.5" stroke-linecap="round" stroke-linejoin="round"/></svg>