<svg width="24" height="24" fill="none" xmlns="http://www.w3.org/2000/svg"><path d="M12.198 17.382a2.75 2.75 0 0 1-2.75-2.74c0-.73.29-1.43.81-1.94l1.41-1.41c.29-.29.77-.29 1.06 0 .29.29.29.77 0 1.06l-1.41 1.41a1.234 1.234 0 0 0 0 1.76c.49.49 1.28.49 1.77 0l2.22-2.22a3.253 3.253 0 0 0-4.6-4.6l-2.42 2.42a2.657 2.657 0 0 0 0 3.78c.29.29.29.77 0 1.06-.29.29-.77.29-1.06 0a4.151 4.151 0 0 1-1.22-2.96c0-1.12.43-2.17 1.22-2.96l2.42-2.42a4.762 4.762 0 0 1 6.72 0 4.762 4.762 0 0 1 0 6.72l-2.22 2.22c-.54.55-1.24.82-1.95.82Z" fill="#292D32"/><path d="M15 22.75H9c-5.43 0-7.75-2.32-7.75-7.75V9c0-5.43 2.32-7.75 7.75-7.75h6c5.43 0 7.75 2.32 7.75 7.75v6c0 5.43-2.32 7.75-7.75 7.75Zm-6-20C4.39 2.75 2.75 4.39 2.75 9v6c0 4.61 1.64 6.25 6.25 6.25h6c4.61 0 6.25-1.64 6.25-6.25V9c0-4.61-1.64-6.25-6.25-6.25H9Z" fill="#292D32"/></svg>