<svg width="24" height="24" fill="none" xmlns="http://www.w3.org/2000/svg"><path d="M15 22.75H9c-5.43 0-7.75-2.32-7.75-7.75V9c0-5.43 2.32-7.75 7.75-7.75h6c5.43 0 7.75 2.32 7.75 7.75v6c0 5.43-2.32 7.75-7.75 7.75Zm-6-20C4.39 2.75 2.75 4.39 2.75 9v6c0 4.61 1.64 6.25 6.25 6.25h6c4.61 0 6.25-1.64 6.25-6.25V9c0-4.61-1.64-6.25-6.25-6.25H9Z" fill="#292D32"/><path d="M10.091 18.249c-.62 0-1.23-.23-1.7-.7l-1.94-1.94c-.94-.94-.94-2.46 0-3.4l5.75-5.75c.94-.94 2.46-.94 3.4 0l1.94 1.94c.94.94.94 2.46 0 3.4l-5.75 5.75c-.47.46-1.08.7-1.7.7Zm-2.57-3.7 1.94 1.94c.35.35.93.35 1.28 0l5.75-5.75c.35-.35.35-.93 0-1.28l-1.94-1.94a.911.911 0 0 0-1.28 0l-5.75 5.75c-.35.35-.35.92 0 1.28Z" fill="#292D32"/><path d="M13.582 15.442c-.19 0-.38-.07-.53-.22l-4.28-4.28a.755.755 0 0 1 0-1.06c.29-.29.77-.29 1.06 0l4.28 4.28c.29.29.29.77 0 1.06-.14.15-.34.22-.53.22Z" fill="#292D32"/></svg>