<svg width="24" height="24" fill="none" xmlns="http://www.w3.org/2000/svg"><path d="M16.988 9.71h-9.98c-.41 0-.75-.34-.75-.75s.34-.75.75-.75h9.98c.41 0 .75.34.75.75s-.34.75-.75.75Z" fill="#292D32"/><path d="M12 9.711c-.41 0-.75-.34-.75-.75v-1.68c0-.41.34-.75.75-.75s.75.34.75.75v1.68c0 .41-.34.75-.75.75ZM7 17.471c-.41 0-.75-.34-.75-.75s.34-.75.75-.75c3.72 0 6.75-3.15 6.75-7.03 0-.41.34-.75.75-.75s.75.34.75.75c0 4.71-3.7 8.53-8.25 8.53Z" fill="#292D32"/><path d="M17.001 17.47c-1.97 0-3.8-.98-5.14-2.77a.75.75 0 0 1 1.2-.9c1.06 1.4 2.46 2.17 3.95 2.17.41 0 .75.34.75.75s-.35.75-.76.75Z" fill="#292D32"/><path d="M15 22.75H9c-5.43 0-7.75-2.32-7.75-7.75V9c0-5.43 2.32-7.75 7.75-7.75h6c5.43 0 7.75 2.32 7.75 7.75v6c0 5.43-2.32 7.75-7.75 7.75Zm-6-20C4.39 2.75 2.75 4.39 2.75 9v6c0 4.61 1.64 6.25 6.25 6.25h6c4.61 0 6.25-1.64 6.25-6.25V9c0-4.61-1.64-6.25-6.25-6.25H9Z" fill="#292D32"/></svg>