<svg width="24" height="24" fill="none" xmlns="http://www.w3.org/2000/svg"><path d="M7.75 18.5c-3.58 0-6.5-2.92-6.5-6.5s2.92-6.5 6.5-6.5c.41 0 .75.34.75.75S8.16 7 7.75 7c-2.76 0-5 2.24-5 5s2.24 5 5 5 5-2.24 5-5c0-.41.34-.75.75-.75s.75.34.75.75c0 3.58-2.92 6.5-6.5 6.5Z" fill="#292D32"/><path d="M16 18.75c-.41 0-.75-.34-.75-.75s.34-.75.75-.75c2.89 0 5.25-2.36 5.25-5.25S18.89 6.75 16 6.75 10.75 9.11 10.75 12c0 .41-.34.75-.75.75s-.75-.34-.75-.75c0-3.72 3.03-6.75 6.75-6.75s6.75 3.03 6.75 6.75-3.03 6.75-6.75 6.75Z" fill="#292D32"/></svg>