<svg width="24" height="24" fill="none" xmlns="http://www.w3.org/2000/svg"><path d="M7.94 15.26c-.09 0-.17-.01-.26-.05-.81-.3-1.49-.89-1.92-1.66-1-1.8-.38-4.15 1.37-5.24l2.34-1.45c.86-.53 1.87-.69 2.83-.44.96.25 1.77.88 2.26 1.76 1 1.8.38 4.15-1.37 5.24l-.26.19a.76.76 0 0 1-1.05-.17.76.76 0 0 1 .17-1.05l.31-.22c1.12-.7 1.5-2.15.89-3.26-.29-.52-.76-.89-1.32-1.04-.56-.15-1.15-.05-1.66.26L7.93 9.58c-1.08.67-1.46 2.12-.85 3.24.25.45.65.8 1.13.98.39.14.59.57.44.96-.11.31-.4.5-.71.5Z" fill="#292D32"/><path d="M12.662 17.65c-.3 0-.61-.04-.91-.12-.96-.25-1.77-.88-2.25-1.76-1-1.8-.38-4.15 1.37-5.24l.26-.19a.76.76 0 0 1 1.05.17c.24.34.16.81-.17 1.05l-.31.22c-1.12.7-1.5 2.15-.89 3.26.29.52.76.89 1.32 1.04.56.15 1.15.05 1.66-.26l2.34-1.45c1.08-.67 1.46-2.12.85-3.24-.25-.45-.65-.8-1.13-.98a.736.736 0 0 1-.44-.96c.14-.39.57-.59.96-.44.81.3 1.49.89 1.92 1.66 1 1.8.38 4.15-1.37 5.24l-2.34 1.45c-.59.36-1.25.55-1.92.55Z" fill="#292D32"/><path d="M12 22.75C6.07 22.75 1.25 17.93 1.25 12S6.07 1.25 12 1.25 22.75 6.07 22.75 12 17.93 22.75 12 22.75Zm0-20C6.9 2.75 2.75 6.9 2.75 12S6.9 21.25 12 21.25s9.25-4.15 9.25-9.25S17.1 2.75 12 2.75Z" fill="#292D32"/></svg>