<svg width="24" height="24" fill="none" xmlns="http://www.w3.org/2000/svg"><path d="M12.33 21.34c-1.09 0-2.18-.41-3.01-1.24a4.249 4.249 0 0 1 0-6.01l2.48-2.47c.29-.29.77-.29 1.06 0 .29.29.29.77 0 1.06l-2.48 2.47a2.758 2.758 0 0 0 0 3.89 2.758 2.758 0 0 0 3.89 0l3.89-3.89a6.21 6.21 0 0 0 1.83-4.42c0-1.67-.65-3.24-1.83-4.42a6.253 6.253 0 0 0-8.84 0l-4.24 4.24a5.22 5.22 0 0 0-1.54 3.71c0 1.4.55 2.72 1.54 3.71.29.29.29.77 0 1.06-.29.29-.77.29-1.06 0a6.736 6.736 0 0 1-1.98-4.77c0-1.8.7-3.5 1.98-4.77l4.24-4.24c3.02-3.02 7.94-3.02 10.96 0a7.709 7.709 0 0 1 2.27 5.48c0 2.07-.81 4.02-2.27 5.48l-3.89 3.89c-.83.83-1.91 1.24-3 1.24Z" fill="#292D32"/></svg>