<svg width="24" height="24" fill="none" xmlns="http://www.w3.org/2000/svg"><path d="M15 22.75H9c-5.43 0-7.75-2.32-7.75-7.75V9c0-5.43 2.32-7.75 7.75-7.75h6c5.43 0 7.75 2.32 7.75 7.75v6c0 5.43-2.32 7.75-7.75 7.75Zm-6-20C4.39 2.75 2.75 4.39 2.75 9v6c0 4.61 1.64 6.25 6.25 6.25h6c4.61 0 6.25-1.64 6.25-6.25V9c0-4.61-1.64-6.25-6.25-6.25H9Z" fill="#292D32"/><path d="M9.68 16.782H8.19c-1.07 0-1.94-.87-1.94-1.94v-2.67c0-.41.34-.75.75-.75h2.68c1.09 0 1.94.85 1.94 1.94v1.49a1.933 1.933 0 0 1-1.94 1.93Zm-1.93-3.87v1.92c0 .24.2.44.44.44h1.49c.32 0 .44-.24.44-.44v-1.49c0-.2-.11-.44-.44-.44H7.75v.01Z" fill="#292D32"/><path d="M7 12.91c-.41 0-.75-.34-.75-.75 0-3.08.67-3.77 2.46-4.83a.76.76 0 0 1 1.03.26c.21.35.09.82-.26 1.03-1.36.81-1.73 1.02-1.73 3.54 0 .42-.34.75-.75.75ZM15.809 16.782h-1.49c-1.07 0-1.94-.87-1.94-1.94v-2.67c0-.41.34-.75.75-.75h2.68c1.09 0 1.94.85 1.94 1.94v1.49c0 1.07-.85 1.93-1.94 1.93Zm-1.92-3.87v1.92c0 .24.2.44.44.44h1.49c.32 0 .44-.24.44-.44v-1.49c0-.2-.11-.44-.44-.44h-1.93v.01Z" fill="#292D32"/><path d="M13.14 12.91c-.41 0-.75-.34-.75-.75 0-3.08.67-3.77 2.46-4.83.36-.21.82-.09 1.03.26.21.35.09.82-.26 1.03-1.36.81-1.73 1.02-1.73 3.54 0 .42-.34.75-.75.75Z" fill="#292D32"/></svg>