<svg width="24" height="24" fill="none" xmlns="http://www.w3.org/2000/svg"><path d="M22.001 12.4h-5.8c-1.9 0-3.33-1.43-3.33-3.33V5.85c0-1.9 1.43-3.33 3.33-3.33h3.22c1.83 0 3.33 1.49 3.33 3.33v5.8c0 .42-.34.75-.75.75Zm-5.8-8.37c-1.06 0-1.83.77-1.83 1.83v3.22c0 1.06.77 1.83 1.83 1.83h5.05V5.86c0-1.01-.82-1.83-1.83-1.83h-3.22Z" fill="#292D32"/><path d="M17.469 21.468c-.26 0-.51-.13-.65-.37a.758.758 0 0 1 .26-1.03c3.23-1.92 4.17-2.72 4.17-8.42 0-.41.34-.75.75-.75s.75.34.75.75c0 6.25-1.27 7.56-4.9 9.71a.67.67 0 0 1-.38.11ZM10.372 12.4h-5.8c-1.9 0-3.33-1.43-3.33-3.33V5.85c0-1.9 1.43-3.33 3.33-3.33h3.23c1.83 0 3.33 1.49 3.33 3.33v5.8c-.01.42-.34.75-.76.75Zm-5.79-8.37c-1.06 0-1.83.77-1.83 1.83v3.22c0 1.06.77 1.83 1.83 1.83h5.05V5.86c0-1.01-.82-1.83-1.83-1.83h-3.22Z" fill="#292D32"/><path d="M5.84 21.468c-.26 0-.51-.13-.65-.37a.758.758 0 0 1 .26-1.03c3.23-1.92 4.17-2.72 4.17-8.42 0-.41.34-.75.75-.75s.75.34.75.75c0 6.25-1.27 7.56-4.9 9.71a.67.67 0 0 1-.38.11Z" fill="#292D32"/></svg>