<svg width="24" height="24" fill="none" xmlns="http://www.w3.org/2000/svg"><path d="M7.8 21.47H4.58c-1.83 0-3.33-1.49-3.33-3.33v-5.8c0-.41.34-.75.75-.75h5.8c1.9 0 3.33 1.43 3.33 3.33v3.22c-.01 1.9-1.44 3.33-3.33 3.33ZM2.75 13.1v5.05c0 1.01.82 1.83 1.83 1.83H7.8c1.06 0 1.83-.77 1.83-1.83v-3.22c0-1.06-.77-1.83-1.83-1.83H2.75Z" fill="#292D32"/><path d="M2 13.099c-.41 0-.75-.34-.75-.75 0-6.25 1.27-7.56 4.9-9.71.36-.21.82-.09 1.03.26.21.36.09.82-.26 1.03-3.24 1.92-4.17 2.72-4.17 8.42 0 .41-.34.75-.75.75ZM19.421 21.47h-3.22c-1.83 0-3.33-1.49-3.33-3.33v-5.8c0-.41.34-.75.75-.75h5.8c1.9 0 3.33 1.43 3.33 3.33v3.22c0 1.9-1.43 3.33-3.33 3.33Zm-5.04-8.37v5.05c0 1.01.82 1.83 1.83 1.83h3.22c1.06 0 1.83-.77 1.83-1.83v-3.22c0-1.06-.77-1.83-1.83-1.83h-5.05Z" fill="#292D32"/><path d="M13.629 13.099c-.41 0-.75-.34-.75-.75 0-6.25 1.27-7.56 4.9-9.71.36-.21.82-.09 1.03.26.21.36.09.82-.26 1.03-3.24 1.92-4.17 2.72-4.17 8.42 0 .41-.34.75-.75.75Z" fill="#292D32"/></svg>