<svg width="24" height="24" fill="none" xmlns="http://www.w3.org/2000/svg"><path d="M16.999 12.589h-2.68c-1.09 0-1.94-.85-1.94-1.94v-1.49c0-1.09.85-1.94 1.94-1.94h1.49c1.07 0 1.94.87 1.94 1.94v2.67c0 .42-.34.76-.75.76Zm-2.68-3.87c-.32 0-.44.24-.44.44v1.49c0 .2.11.44.44.44h1.93v-1.92c0-.24-.2-.44-.44-.44h-1.49v-.01Z" fill="#292D32"/><path d="M14.91 16.78c-.26 0-.51-.13-.65-.37a.758.758 0 0 1 .26-1.03c1.36-.81 1.73-1.02 1.73-3.54 0-.41.34-.75.75-.75s.75.34.75.75c0 3.08-.67 3.77-2.46 4.83-.12.07-.25.11-.38.11ZM10.862 12.589h-2.68c-1.09 0-1.94-.85-1.94-1.94v-1.49c0-1.09.85-1.94 1.94-1.94h1.49c1.07 0 1.94.87 1.94 1.94v2.67c0 .42-.33.76-.75.76Zm-2.67-3.87c-.32 0-.44.24-.44.44v1.49c0 .2.11.44.44.44h1.93v-1.92c0-.24-.2-.44-.44-.44h-1.49v-.01Z" fill="#292D32"/><path d="M8.77 16.78c-.26 0-.51-.13-.65-.37a.758.758 0 0 1 .26-1.03c1.36-.81 1.73-1.02 1.73-3.54 0-.41.34-.75.75-.75s.75.34.75.75c0 3.08-.67 3.77-2.46 4.83-.12.07-.25.11-.38.11Z" fill="#292D32"/><path d="M12 22.75C6.07 22.75 1.25 17.93 1.25 12S6.07 1.25 12 1.25 22.75 6.07 22.75 12 17.93 22.75 12 22.75Zm0-20C6.9 2.75 2.75 6.9 2.75 12S6.9 21.25 12 21.25s9.25-4.15 9.25-9.25S17.1 2.75 12 2.75Z" fill="#292D32"/></svg>