<svg width="24" height="24" fill="none" xmlns="http://www.w3.org/2000/svg"><path d="M18.608 6.68c-.41 0-.75-.34-.75-.75V4.42c0-.6-.49-1.1-1.1-1.1H3.828c-.6 0-1.1.49-1.1 1.1v1.51c0 .41-.34.75-.75.75s-.74-.34-.74-.75V4.42c0-1.43 1.17-2.6 2.6-2.6h12.92c1.43 0 2.6 1.16 2.6 2.6v1.51c0 .41-.34.75-.75.75Z" fill="#292D32"/><path d="M10.3 18.85c-.41 0-.75-.34-.75-.75V3.32c0-.41.34-.75.75-.75s.75.34.75.75V18.1c0 .42-.34.75-.75.75Z" fill="#292D32"/><path d="M12.478 18.852h-5.58c-.41 0-.75-.34-.75-.75s.34-.75.75-.75h5.58c.41 0 .75.34.75.75s-.34.75-.75.75ZM22.01 13.198c-.41 0-.75-.34-.75-.75v-.8c0-.31-.26-.57-.57-.57h-7.01c-.41 0-.75-.34-.75-.75s.34-.75.75-.75h7.01c1.14 0 2.07.93 2.07 2.07v.8c0 .42-.33.75-.75.75Z" fill="#292D32"/><path d="M16.078 22.181c-.41 0-.75-.34-.75-.75v-10.56c0-.41.34-.75.75-.75s.75.34.75.75v10.56c0 .41-.34.75-.75.75Z" fill="#292D32"/><path d="M18.221 22.18h-4.28c-.41 0-.75-.34-.75-.75s.34-.75.75-.75h4.28c.41 0 .75.34.75.75s-.34.75-.75.75Z" fill="#292D32"/></svg>