<svg width="24" height="24" fill="none" xmlns="http://www.w3.org/2000/svg"><path d="M11.999 12.75h-7.12c-.41 0-.75-.34-.75-.75V4.5c0-1.52 1.23-2.75 2.75-2.75h5.12c3.03 0 5.5 2.47 5.5 5.5s-2.47 5.5-5.5 5.5Zm-6.38-1.5h6.38c2.21 0 4-1.79 4-4s-1.79-4-4-4h-5.12c-.69 0-1.25.56-1.25 1.25v6.75h-.01Z" fill="#292D32"/><path d="M14.379 22.25h-7.5c-1.52 0-2.75-1.23-2.75-2.75V12c0-.41.34-.75.75-.75h9.5c3.03 0 5.5 2.47 5.5 5.5s-2.47 5.5-5.5 5.5Zm-8.76-9.5v6.75c0 .69.56 1.25 1.25 1.25h7.5c2.21 0 4-1.79 4-4s-1.79-4-4-4h-8.75Z" fill="#292D32"/></svg>