<svg width="24" height="24" fill="none" xmlns="http://www.w3.org/2000/svg"><path d="M21.332 7.921c-.41 0-.75-.34-.75-.75v-1.82c0-.73-.59-1.32-1.32-1.32H4.742c-.73 0-1.32.59-1.32 1.32v1.83c0 .41-.34.75-.75.75s-.75-.34-.75-.76v-1.82c0-1.56 1.27-2.82 2.82-2.82h14.52c1.56 0 2.82 1.27 2.82 2.82v1.83c0 .41-.33.74-.75.74Z" fill="#292D32"/><path d="M12 21.47c-.41 0-.75-.34-.75-.75V4.11c0-.41.34-.75.75-.75s.75.34.75.75v16.61c0 .42-.34.75-.75.75Z" fill="#292D32"/><path d="M15.939 21.469h-7.88c-.41 0-.75-.34-.75-.75s.34-.75.75-.75h7.88c.41 0 .75.34.75.75s-.34.75-.75.75Z" fill="#292D32"/></svg>