<svg width="24" height="24" fill="none" xmlns="http://www.w3.org/2000/svg"><path d="M14.789 19.418c-.11 0-.23-.03-.33-.08a.763.763 0 0 1-.34-1.01l2.14-4.27a.76.76 0 0 1 .67-.41c.28 0 .54.16.67.42l2.14 4.27c.19.37.04.82-.34 1.01-.37.19-.82.04-1.01-.34l-1.46-2.93-1.46 2.93a.78.78 0 0 1-.68.41Z" fill="#292D32"/><path d="M18.68 18.66h-3.52c-.41 0-.75-.34-.75-.75s.34-.75.75-.75h3.52a.749.749 0 1 1 0 1.5Z" fill="#292D32"/><path d="M16.92 22.75a5.83 5.83 0 1 1 0-11.66 5.83 5.83 0 0 1 0 11.66Zm0-10.15c-2.39 0-4.33 1.94-4.33 4.33s1.94 4.33 4.33 4.33c2.38 0 4.33-1.94 4.33-4.33s-1.94-4.33-4.33-4.33ZM4.86 12.698c-1.11 0-1.99-.31-2.61-.91-.66-.64-1-1.61-1-2.86v-3.92c0-2.43 1.34-3.77 3.77-3.77h3.92c1.25 0 2.21.33 2.86 1 .63.65.94 1.59.91 2.79v3.9c.03 1.22-.28 2.18-.93 2.83-.65.65-1.61.95-2.85.93h-3.9c-.07.01-.12.01-.17.01Zm.16-9.95c-1.61 0-2.27.66-2.27 2.27v3.92c0 .83.18 1.43.54 1.78.35.34.91.49 1.7.48h3.94c.84.02 1.42-.15 1.77-.5.35-.35.51-.94.49-1.75v-3.94c.02-.8-.14-1.37-.48-1.72-.35-.36-.95-.54-1.78-.54H5.02Z" fill="#292D32"/><path d="M9.001 6.602h-4.06c-.41 0-.75-.34-.75-.75s.34-.75.75-.75h4.06a.749.749 0 1 1 0 1.5Z" fill="#292D32"/><path d="M6.98 6.602c-.41 0-.75-.34-.75-.75v-.68c0-.41.34-.75.75-.75s.75.34.75.75v.68c0 .41-.34.75-.75.75Z" fill="#292D32"/><path d="M4.941 9.76c-.41 0-.75-.34-.75-.75s.34-.75.75-.75c1.27 0 2.3-1.08 2.3-2.42 0-.41.34-.75.75-.75s.75.34.75.75c0 2.16-1.7 3.92-3.8 3.92Z" fill="#292D32"/><path d="M9.01 9.758c-.93 0-1.82-.47-2.45-1.3a.75.75 0 0 1 1.2-.9c.34.46.79.71 1.25.71.41 0 .75.34.75.75s-.34.74-.75.74ZM9 22.75c-4.27 0-7.75-3.48-7.75-7.75 0-.41.34-.75.75-.75s.75.34.75.75c0 2.96 2.06 5.44 4.83 6.09l-.27-.45a.751.751 0 1 1 1.29-.77l1.05 1.75c.14.23.14.52.01.75-.14.23-.39.38-.66.38ZM21.998 9.75c-.41 0-.75-.34-.75-.75 0-2.96-2.06-5.44-4.83-6.09l.27.45a.75.75 0 1 1-1.29.77l-1.05-1.75a.745.745 0 0 1-.01-.75c.13-.24.38-.38.65-.38 4.27 0 7.75 3.48 7.75 7.75a.74.74 0 0 1-.74.75Z" fill="#292D32"/></svg>