<svg width="24" height="24" fill="none" xmlns="http://www.w3.org/2000/svg"><path d="M15.59 12.26c2.83 0 5.13-2.3 5.13-5.13S18.42 2 15.59 2s-5.13 2.3-5.13 5.13c0 1.3.48 2.48 1.28 3.38M3.28 16.361c0 1.7 1.38 3.08 3.08 3.08 1.7 0 3.08-1.38 3.08-3.08 0-1.7-1.38-3.08-3.08-3.08" stroke="#292D32" stroke-width="1.5" stroke-miterlimit="10" stroke-linecap="round" stroke-linejoin="round"/><path d="M16.62 21.999a2.56 2.56 0 1 0 0-5.12 2.56 2.56 0 0 0 0 5.12Z" stroke="#292D32" stroke-width="1.5" stroke-miterlimit="10"/></svg>