<svg width="24" height="24" fill="none" xmlns="http://www.w3.org/2000/svg"><path d="M12.15 16.5v2.1" stroke="#292D32" stroke-width="1.5" stroke-linecap="round" stroke-linejoin="round"/><path d="M7.15 22h10v-1c0-1.1-.9-2-2-2h-6c-1.1 0-2 .9-2 2v1Z" stroke="#292D32" stroke-width="1.5" stroke-miterlimit="10"/><path d="M6.15 22h12M8.51 15.07A6.99 6.99 0 0 1 5 9V6c0-2.21 1.79-4 4-4h6c2.21 0 4 1.79 4 4v3c0 3.82-3.05 6.92-6.85 7H12" stroke="#292D32" stroke-width="1.5" stroke-linecap="round" stroke-linejoin="round"/><path d="M5.47 11.652c-.75-.24-1.41-.68-1.93-1.2-.9-1-1.5-2.2-1.5-3.6s1.1-2.5 2.5-2.5h.65c-.2.46-.3.97-.3 1.5v3c0 1 .21 1.94.58 2.8ZM18.53 11.652c.75-.24 1.41-.68 1.93-1.2.9-1 1.5-2.2 1.5-3.6s-1.1-2.5-2.5-2.5h-.65c.2.46.3.97.3 1.5v3c0 1-.21 1.94-.58 2.8Z" stroke="#292D32" stroke-width="1.5" stroke-linecap="round" stroke-linejoin="round"/></svg>