<svg width="24" height="24" fill="none" xmlns="http://www.w3.org/2000/svg"><path d="M8.68 12.72h1.74v4.05c0 .6.74.88 1.14.43l4.26-4.84a.65.65 0 0 0-.49-1.08h-1.74V7.23c0-.6-.74-.88-1.14-.43l-4.26 4.84a.65.65 0 0 0 .49 1.08Z" stroke="#292D32" stroke-width="1.5" stroke-miterlimit="10" stroke-linecap="round" stroke-linejoin="round"/><path d="M4 6c-1.25 1.67-2 3.75-2 6 0 5.52 4.48 10 10 10s10-4.48 10-10S17.52 2 12 2c-1.43 0-2.8.3-4.03.85" stroke="#292D32" stroke-width="1.5" stroke-linecap="round" stroke-linejoin="round"/></svg>