<svg width="24" height="24" fill="none" xmlns="http://www.w3.org/2000/svg"><path d="M2 16.072v4.01c0 1.26.75 1.6 1.67.76l1-.91c.37-.34.97-.34 1.34 0l2 1.83c.37.34.97.34 1.34 0l2-1.83c.37-.34.97-.34 1.34 0l2 1.83c.37.34.97.34 1.34 0l2-1.83c.37-.34.97-.34 1.34 0l1 .91c.92.84 1.67.5 1.67-.76v-7.89c0-5.6-4.5-10.18-10-10.18s-10 4.58-10 10.18" stroke="#292D32" stroke-width="1.5" stroke-linecap="round" stroke-linejoin="round"/><path d="M8 14a6.66 6.66 0 0 0 8 0M12 11a2 2 0 1 0 0-4 2 2 0 0 0 0 4Z" stroke="#292D32" stroke-width="1.5" stroke-linecap="round" stroke-linejoin="round"/></svg>