<svg width="24" height="24" fill="none" xmlns="http://www.w3.org/2000/svg"><path d="M2.03 11.28c-.17-.98.33-2.29 1.11-2.91l6.93-5.55c1.06-.85 2.79-.85 3.86.01l6.93 5.54c.77.62 1.27 1.93 1.11 2.91l-1.33 7.96c-.24 1.41-1.61 2.57-3.04 2.57H6.4c-1.44 0-2.8-1.15-3.04-2.57l-.64-3.86" stroke="#292D32" stroke-width="1.5" stroke-linecap="round" stroke-linejoin="round"/><path d="M9.88 14.38c1.27-1.21 2.97-1.21 4.24 0M8.75 11.45c-.35.23-.68.5-1 .81M16.24 12.26a6.64 6.64 0 0 0-1.76-1.24 5.76 5.76 0 0 0-2.48-.57" stroke="#292D32" stroke-width="1.5" stroke-linecap="round" stroke-linejoin="round"/><path d="M11.995 16.5h.01" stroke="#292D32" stroke-width="2" stroke-linecap="round" stroke-linejoin="round"/></svg>