<svg width="24" height="24" fill="none" xmlns="http://www.w3.org/2000/svg"><path d="M12 8.129v4.83M4.24 6.198c0-1.06.87-1.93 1.93-1.93H7.9c.4 0 .96-.21 1.26-.46l1.58-1.35c.7-.59 1.83-.59 2.51 0l1.58 1.35c.3.25.87.46 1.27.46h1.7c1.06 0 1.93.87 1.93 1.93v1.7c0 .4.21.96.46 1.26l1.35 1.58c.59.7.59 1.83 0 2.51l-1.35 1.58c-.25.3-.46.86-.46 1.26v1.7c0 1.06-.87 1.93-1.93 1.93h-1.7c-.4 0-.96.21-1.26.46l-1.58 1.35c-.7.59-1.83.59-2.51 0l-1.58-1.35c-.3-.25-.87-.46-1.26-.46H6.17c-1.06 0-1.93-.87-1.93-1.93v-1.71c0-.39-.2-.96-.45-1.25l-1.35-1.59c-.58-.69-.58-1.81 0-2.5l.56-.66" stroke="#292D32" stroke-width="1.5" stroke-linecap="round" stroke-linejoin="round"/><path d="M11.994 16h.01" stroke="#292D32" stroke-width="2" stroke-linecap="round" stroke-linejoin="round"/></svg>