<svg width="24" height="24" fill="none" xmlns="http://www.w3.org/2000/svg"><path d="m16.15 12.83-1.73.58c-.48.16-.85.53-1.01 1.01l-.58 1.73c-.49 1.49-2.59 1.46-3.05-.03L7.83 9.84c-.38-1.25.77-2.4 2-2.02l6.29 1.95c1.49.47 1.51 2.57.03 3.06Z" stroke="#292D32" stroke-width="1.5" stroke-linecap="round" stroke-linejoin="round"/><path d="M4 6c-1.25 1.67-2 3.75-2 6 0 5.52 4.48 10 10 10s10-4.48 10-10S17.52 2 12 2c-1.43 0-2.8.3-4.03.85" stroke="#292D32" stroke-width="1.5" stroke-linecap="round" stroke-linejoin="round"/></svg>