<svg width="24" height="24" fill="none" xmlns="http://www.w3.org/2000/svg"><path d="M18.97 22h-14c-3 0-3-1.35-3-3v-1c0-.55.45-1 1-1h18c.55 0 1 .45 1 1v1c0 1.65 0 3-3 3ZM4.62 8.56A8.015 8.015 0 0 1 11.27 5h1.45c.58 0 1.15.06 1.69.18 3.61.78 6.31 3.98 6.31 7.82v4H3.27v-4" stroke="#292D32" stroke-width="1.5" stroke-linecap="round" stroke-linejoin="round"/><path d="M14.5 4.5c0 .24-.03.46-.09.68-.54-.12-1.11-.18-1.69-.18h-1.45c-.58 0-1.14.06-1.68.18-.06-.22-.09-.44-.09-.68a2.5 2.5 0 0 1 5 0ZM15 11H9" stroke="#292D32" stroke-width="1.5" stroke-linecap="round" stroke-linejoin="round"/></svg>