<svg width="24" height="24" fill="none" xmlns="http://www.w3.org/2000/svg"><path d="M21.97 11.28c.16-.98-.34-2.29-1.11-2.91l-6.93-5.54c-1.07-.86-2.8-.86-3.86-.01L3.14 8.37c-.78.62-1.28 1.93-1.11 2.91l.28 1.68M11.4 21.81h6.2c1.43 0 2.8-1.16 3.04-2.57l.63-3.74M2 19c1.76.04 2.96 1.24 3 3M2 16c.52.01 1.02.07 1.5.18M8 22c-.01-.76-.14-1.47-.37-2.12-.27-.76-.67-1.43-1.19-1.99" stroke="#292D32" stroke-width="1.5" stroke-linecap="round" stroke-linejoin="round"/><path d="M1.996 22h.009" stroke="#292D32" stroke-width="2" stroke-linecap="round" stroke-linejoin="round"/></svg>