<svg width="24" height="24" fill="none" xmlns="http://www.w3.org/2000/svg"><path d="M2 13.05V15c0 5 2 7 7 7h6c5 0 7-2 7-7V9c0-5-2-7-7-7H9C4 2 2 4 2 9" stroke="#292D32" stroke-width="1.5" stroke-linecap="round" stroke-linejoin="round"/><path d="M17.9 9.053a65.54 65.54 0 0 0-6.57-.33c-1.3 0-2.6.07-3.89.2l-1.34.13M9.709 8.391l.14-.86c.1-.62.18-1.09 1.29-1.09h1.72c1.11 0 1.19.49 1.29 1.09l.14.85M16.49 9.133l-.43 6.6c-.07 1.03-.13 1.83-1.96 1.83H9.89c-1.83 0-1.89-.8-1.96-1.83l-.43-6.6" stroke="#292D32" stroke-width="1.5" stroke-linecap="round" stroke-linejoin="round"/></svg>