<svg width="24" height="24" fill="none" xmlns="http://www.w3.org/2000/svg"><path d="M2 12.61h17" stroke="#292D32" stroke-width="1.5" stroke-miterlimit="10" stroke-linecap="round" stroke-linejoin="round"/><path d="M19 10.28v7.15c-.03 2.85-.81 3.57-3.78 3.57H5.78C2.76 21 2 20.25 2 17.27v-6.99c0-2.7.63-3.57 3-3.71.24-.01.5-.02.78-.02h9.44c3.02 0 3.78.75 3.78 3.73Z" stroke="#292D32" stroke-width="1.5" stroke-linecap="round" stroke-linejoin="round"/><path d="M22 6.73v6.99c0 2.7-.63 3.57-3 3.71v-7.15c0-2.98-.76-3.73-3.78-3.73H5.78c-.28 0-.54.01-.78.02C5.03 3.72 5.81 3 8.78 3h9.44C21.24 3 22 3.75 22 6.73Z" stroke="#292D32" stroke-width="1.5" stroke-linecap="round" stroke-linejoin="round"/><path d="M5.25 17.81h1.72M9.11 17.81h3.44" stroke="#292D32" stroke-width="1.5" stroke-miterlimit="10" stroke-linecap="round" stroke-linejoin="round"/></svg>