<svg width="24" height="24" fill="none" xmlns="http://www.w3.org/2000/svg"><path d="M8.672 14.33c0 1.29.99 2.33 2.22 2.33h2.51c1.07 0 1.94-.91 1.94-2.03 0-1.22-.53-1.65-1.32-1.93l-4.03-1.4c-.79-.28-1.32-.71-1.32-1.93 0-1.12.87-2.03 1.94-2.03h2.51c1.23 0 2.22 1.04 2.22 2.33M12 6v12" stroke="#292D32" stroke-width="1.5" stroke-linecap="round" stroke-linejoin="round"/><path d="M12 22c5.523 0 10-4.477 10-10S17.523 2 12 2 2 6.477 2 12s4.477 10 10 10Z" stroke="#292D32" stroke-width="1.5" stroke-linecap="round" stroke-linejoin="round"/></svg>