<svg width="24" height="24" fill="none" xmlns="http://www.w3.org/2000/svg"><path d="M18.91 14.692c0 1.29 1.06 2.34 2.35 2.34 0 3.75-.94 4.69-4.69 4.69H7.19c-3.75 0-4.69-.94-4.69-4.69v-.46a2.36 2.36 0 0 0 2.35-2.35 2.36 2.36 0 0 0-2.35-2.35v-.46c.01-3.75.94-4.69 4.69-4.69h9.37c3.75 0 4.69.94 4.69 4.69v.94c-1.29 0-2.34 1.04-2.34 2.34Z" stroke="#292D32" stroke-width="1.5" stroke-linecap="round" stroke-linejoin="round"/><path d="M16.211 6.723h-9.09l2.93-2.93c2.39-2.39 3.59-2.39 5.98 0l.6.6c-.63.63-.78 1.56-.42 2.33Z" stroke="#292D32" stroke-width="1.5" stroke-linecap="round" stroke-linejoin="round"/><path d="M9.879 6.723v15" stroke="#292D32" stroke-width="1.5" stroke-linecap="round" stroke-linejoin="round" stroke-dasharray="5 5"/></svg>