<svg width="24" height="24" fill="none" xmlns="http://www.w3.org/2000/svg"><path d="m12 7.89-1.07 1.86c-.24.41-.04.75.43.75h1.27c.48 0 .67.34.43.75L12 13.11" stroke="#292D32" stroke-width="1.5" stroke-linecap="round" stroke-linejoin="round"/><path d="M8.3 18.04v-1.16C6 15.49 4.11 12.78 4.11 9.9c0-4.95 4.55-8.83 9.69-7.71 2.26.5 4.24 2 5.27 4.07 2.09 4.2-.11 8.66-3.34 10.61v1.16c0 .29.11.96-.96.96H9.26c-1.1.01-.96-.42-.96-.95ZM8.5 22c2.29-.65 4.71-.65 7 0" stroke="#292D32" stroke-width="1.5" stroke-linecap="round" stroke-linejoin="round"/></svg>