<svg width="24" height="24" fill="none" xmlns="http://www.w3.org/2000/svg"><path d="M18 7v10c0 .62-.02 1.17-.09 1.66C17.62 21.29 16.38 22 13 22h-2c-3.38 0-4.62-.71-4.91-3.34C6.02 18.17 6 17.62 6 17V7c0-.62.02-1.17.09-1.66C6.38 2.71 7.62 2 11 2h2c3.38 0 4.62.71 4.91 3.34.07.49.09 1.04.09 1.66Z" stroke="#292D32" stroke-width="1.5" stroke-linecap="round" stroke-linejoin="round"/><path d="M6 17c0 .62.02 1.17.09 1.66-.14.01-.27.01-.42.01h-.34C2.67 18.67 2 18 2 15.33V8.67C2 6 2.67 5.33 5.33 5.33h.34c.15 0 .28 0 .42.01C6.02 5.83 6 6.38 6 7v10ZM22 8.67v6.66c0 2.67-.67 3.34-3.33 3.34h-.34c-.15 0-.28 0-.42-.01.07-.49.09-1.04.09-1.66V7c0-.62-.02-1.17-.09-1.66.14-.01.27-.01.42-.01h.34C21.33 5.33 22 6 22 8.67Z" stroke="#292D32" stroke-width="1.5" stroke-linecap="round" stroke-linejoin="round"/></svg>